%TF.GenerationSoftware,KiCad,Pcbnew,4.0.7*%
%TF.CreationDate,2020-03-02T22:47:31+01:00*%
%TF.ProjectId,u5,75352E6B696361645F70636200000000,191101*%
%TF.FileFunction,Copper,L2,Bot,Signal*%
%FSLAX46Y46*%
G04 Gerber Fmt 4.6, Leading zero omitted, Abs format (unit mm)*
G04 Created by KiCad (PCBNEW 4.0.7) date 03/02/20 22:47:31*
%MOMM*%
%LPD*%
G01*
G04 APERTURE LIST*
%ADD10C,0.150000*%
%ADD11C,0.300000*%
%ADD12O,2.032000X1.727200*%
%ADD13R,2.032000X1.727200*%
%ADD14C,1.524000*%
%ADD15R,2.499360X2.499360*%
%ADD16C,2.499360*%
%ADD17C,5.400000*%
%ADD18C,1.778000*%
%ADD19R,1.778000X1.778000*%
%ADD20C,1.000000*%
G04 APERTURE END LIST*
D10*
D11*
X138461428Y-92031429D02*
X138389999Y-91960000D01*
X138247142Y-91888571D01*
X137889999Y-91888571D01*
X137747142Y-91960000D01*
X137675713Y-92031429D01*
X137604285Y-92174286D01*
X137604285Y-92317143D01*
X137675713Y-92531429D01*
X138532856Y-93388571D01*
X137604285Y-93388571D01*
X136675714Y-91888571D02*
X136532857Y-91888571D01*
X136390000Y-91960000D01*
X136318571Y-92031429D01*
X136247142Y-92174286D01*
X136175714Y-92460000D01*
X136175714Y-92817143D01*
X136247142Y-93102857D01*
X136318571Y-93245714D01*
X136390000Y-93317143D01*
X136532857Y-93388571D01*
X136675714Y-93388571D01*
X136818571Y-93317143D01*
X136890000Y-93245714D01*
X136961428Y-93102857D01*
X137032857Y-92817143D01*
X137032857Y-92460000D01*
X136961428Y-92174286D01*
X136890000Y-92031429D01*
X136818571Y-91960000D01*
X136675714Y-91888571D01*
X134747143Y-93388571D02*
X135604286Y-93388571D01*
X135175714Y-93388571D02*
X135175714Y-91888571D01*
X135318571Y-92102857D01*
X135461429Y-92245714D01*
X135604286Y-92317143D01*
X134032858Y-93388571D02*
X133747143Y-93388571D01*
X133604286Y-93317143D01*
X133532858Y-93245714D01*
X133390000Y-93031429D01*
X133318572Y-92745714D01*
X133318572Y-92174286D01*
X133390000Y-92031429D01*
X133461429Y-91960000D01*
X133604286Y-91888571D01*
X133890000Y-91888571D01*
X134032858Y-91960000D01*
X134104286Y-92031429D01*
X134175715Y-92174286D01*
X134175715Y-92531429D01*
X134104286Y-92674286D01*
X134032858Y-92745714D01*
X133890000Y-92817143D01*
X133604286Y-92817143D01*
X133461429Y-92745714D01*
X133390000Y-92674286D01*
X133318572Y-92531429D01*
X120042143Y-79418571D02*
X120042143Y-77918571D01*
X119542143Y-78990000D01*
X119042143Y-77918571D01*
X119042143Y-79418571D01*
X118327857Y-79418571D02*
X118327857Y-77918571D01*
X117827857Y-78990000D01*
X117327857Y-77918571D01*
X117327857Y-79418571D01*
X115899285Y-77918571D02*
X116613571Y-77918571D01*
X116685000Y-78632857D01*
X116613571Y-78561429D01*
X116470714Y-78490000D01*
X116113571Y-78490000D01*
X115970714Y-78561429D01*
X115899285Y-78632857D01*
X115827857Y-78775714D01*
X115827857Y-79132857D01*
X115899285Y-79275714D01*
X115970714Y-79347143D01*
X116113571Y-79418571D01*
X116470714Y-79418571D01*
X116613571Y-79347143D01*
X116685000Y-79275714D01*
X115185000Y-79418571D02*
X115185000Y-77918571D01*
X114827857Y-77918571D01*
X114613572Y-77990000D01*
X114470714Y-78132857D01*
X114399286Y-78275714D01*
X114327857Y-78561429D01*
X114327857Y-78775714D01*
X114399286Y-79061429D01*
X114470714Y-79204286D01*
X114613572Y-79347143D01*
X114827857Y-79418571D01*
X115185000Y-79418571D01*
X112613572Y-77847143D02*
X113899286Y-79775714D01*
X112113571Y-77918571D02*
X112113571Y-79132857D01*
X112042143Y-79275714D01*
X111970714Y-79347143D01*
X111827857Y-79418571D01*
X111542143Y-79418571D01*
X111399285Y-79347143D01*
X111327857Y-79275714D01*
X111256428Y-79132857D01*
X111256428Y-77918571D01*
X109827856Y-77918571D02*
X110542142Y-77918571D01*
X110613571Y-78632857D01*
X110542142Y-78561429D01*
X110399285Y-78490000D01*
X110042142Y-78490000D01*
X109899285Y-78561429D01*
X109827856Y-78632857D01*
X109756428Y-78775714D01*
X109756428Y-79132857D01*
X109827856Y-79275714D01*
X109899285Y-79347143D01*
X110042142Y-79418571D01*
X110399285Y-79418571D01*
X110542142Y-79347143D01*
X110613571Y-79275714D01*
X150295714Y-121963571D02*
X150295714Y-120463571D01*
X149938571Y-120463571D01*
X149724286Y-120535000D01*
X149581428Y-120677857D01*
X149510000Y-120820714D01*
X149438571Y-121106429D01*
X149438571Y-121320714D01*
X149510000Y-121606429D01*
X149581428Y-121749286D01*
X149724286Y-121892143D01*
X149938571Y-121963571D01*
X150295714Y-121963571D01*
X148795714Y-120963571D02*
X148795714Y-121963571D01*
X148795714Y-121106429D02*
X148724286Y-121035000D01*
X148581428Y-120963571D01*
X148367143Y-120963571D01*
X148224286Y-121035000D01*
X148152857Y-121177857D01*
X148152857Y-121963571D01*
X147438571Y-121820714D02*
X147367143Y-121892143D01*
X147438571Y-121963571D01*
X147510000Y-121892143D01*
X147438571Y-121820714D01*
X147438571Y-121963571D01*
X146724285Y-121820714D02*
X146652857Y-121892143D01*
X146724285Y-121963571D01*
X146795714Y-121892143D01*
X146724285Y-121820714D01*
X146724285Y-121963571D01*
X146724285Y-121035000D02*
X146652857Y-121106429D01*
X146724285Y-121177857D01*
X146795714Y-121106429D01*
X146724285Y-121035000D01*
X146724285Y-121177857D01*
X144152856Y-120463571D02*
X144867142Y-120463571D01*
X144938571Y-121177857D01*
X144867142Y-121106429D01*
X144724285Y-121035000D01*
X144367142Y-121035000D01*
X144224285Y-121106429D01*
X144152856Y-121177857D01*
X144081428Y-121320714D01*
X144081428Y-121677857D01*
X144152856Y-121820714D01*
X144224285Y-121892143D01*
X144367142Y-121963571D01*
X144724285Y-121963571D01*
X144867142Y-121892143D01*
X144938571Y-121820714D01*
X143367143Y-121963571D02*
X143081428Y-121963571D01*
X142938571Y-121892143D01*
X142867143Y-121820714D01*
X142724285Y-121606429D01*
X142652857Y-121320714D01*
X142652857Y-120749286D01*
X142724285Y-120606429D01*
X142795714Y-120535000D01*
X142938571Y-120463571D01*
X143224285Y-120463571D01*
X143367143Y-120535000D01*
X143438571Y-120606429D01*
X143510000Y-120749286D01*
X143510000Y-121106429D01*
X143438571Y-121249286D01*
X143367143Y-121320714D01*
X143224285Y-121392143D01*
X142938571Y-121392143D01*
X142795714Y-121320714D01*
X142724285Y-121249286D01*
X142652857Y-121106429D01*
X140938572Y-120392143D02*
X142224286Y-122320714D01*
X139724285Y-120463571D02*
X140438571Y-120463571D01*
X140510000Y-121177857D01*
X140438571Y-121106429D01*
X140295714Y-121035000D01*
X139938571Y-121035000D01*
X139795714Y-121106429D01*
X139724285Y-121177857D01*
X139652857Y-121320714D01*
X139652857Y-121677857D01*
X139724285Y-121820714D01*
X139795714Y-121892143D01*
X139938571Y-121963571D01*
X140295714Y-121963571D01*
X140438571Y-121892143D01*
X140510000Y-121820714D01*
X137938572Y-120392143D02*
X139224286Y-122320714D01*
X137224285Y-121106429D02*
X137367143Y-121035000D01*
X137438571Y-120963571D01*
X137510000Y-120820714D01*
X137510000Y-120749286D01*
X137438571Y-120606429D01*
X137367143Y-120535000D01*
X137224285Y-120463571D01*
X136938571Y-120463571D01*
X136795714Y-120535000D01*
X136724285Y-120606429D01*
X136652857Y-120749286D01*
X136652857Y-120820714D01*
X136724285Y-120963571D01*
X136795714Y-121035000D01*
X136938571Y-121106429D01*
X137224285Y-121106429D01*
X137367143Y-121177857D01*
X137438571Y-121249286D01*
X137510000Y-121392143D01*
X137510000Y-121677857D01*
X137438571Y-121820714D01*
X137367143Y-121892143D01*
X137224285Y-121963571D01*
X136938571Y-121963571D01*
X136795714Y-121892143D01*
X136724285Y-121820714D01*
X136652857Y-121677857D01*
X136652857Y-121392143D01*
X136724285Y-121249286D01*
X136795714Y-121177857D01*
X136938571Y-121106429D01*
D10*
X171450000Y-71120000D02*
X100330000Y-71120000D01*
X171450000Y-128270000D02*
X171450000Y-71120000D01*
X100330000Y-128270000D02*
X171450000Y-128270000D01*
X100330000Y-71120000D02*
X100330000Y-128270000D01*
D12*
X127000000Y-109220000D03*
X127000000Y-121920000D03*
X127000000Y-119380000D03*
X127000000Y-116840000D03*
X127000000Y-114300000D03*
X127000000Y-111760000D03*
D13*
X116840000Y-109220000D03*
D12*
X116840000Y-111760000D03*
X116840000Y-114300000D03*
X116840000Y-116840000D03*
X116840000Y-119380000D03*
X116840000Y-121920000D03*
D14*
X135890000Y-86360000D03*
X135890000Y-76200000D03*
X144780000Y-111760000D03*
X154940000Y-111760000D03*
X135890000Y-106680000D03*
X135890000Y-96520000D03*
X139700000Y-88900000D03*
X139700000Y-78740000D03*
X144780000Y-88900000D03*
X154940000Y-88900000D03*
D15*
X161290000Y-101600000D03*
D16*
X161290000Y-107950000D03*
D15*
X161290000Y-118110000D03*
D16*
X161290000Y-113030000D03*
X161290000Y-91440000D03*
X161290000Y-96520000D03*
X161290000Y-86360000D03*
D17*
X105410000Y-124460000D03*
X166370000Y-74930000D03*
X105410000Y-74930000D03*
X166370000Y-124460000D03*
D12*
X127000000Y-86360000D03*
X127000000Y-99060000D03*
X127000000Y-96520000D03*
X127000000Y-93980000D03*
X127000000Y-91440000D03*
X127000000Y-88900000D03*
D13*
X116840000Y-86360000D03*
D12*
X116840000Y-88900000D03*
X116840000Y-91440000D03*
X116840000Y-93980000D03*
X116840000Y-96520000D03*
X116840000Y-99060000D03*
D13*
X109220000Y-90170000D03*
D12*
X109220000Y-92710000D03*
X109220000Y-95250000D03*
X109220000Y-97790000D03*
X109220000Y-100330000D03*
X109220000Y-102870000D03*
X109220000Y-105410000D03*
X109220000Y-107950000D03*
D16*
X161290000Y-81280000D03*
D14*
X144780000Y-81280000D03*
X154940000Y-81280000D03*
X144780000Y-96520000D03*
X154940000Y-96520000D03*
X144780000Y-104140000D03*
X154940000Y-104140000D03*
X139700000Y-109220000D03*
X139700000Y-99060000D03*
D18*
X154940000Y-85090000D03*
D19*
X144780000Y-85090000D03*
D18*
X154940000Y-92710000D03*
D19*
X144780000Y-92710000D03*
D18*
X154940000Y-100330000D03*
D19*
X144780000Y-100330000D03*
D18*
X154940000Y-107950000D03*
D19*
X144780000Y-107950000D03*
D14*
X132080000Y-106680000D03*
X132080000Y-114300000D03*
D20*
X116840000Y-111760000D02*
X115570000Y-111760000D01*
X113030000Y-100330000D02*
X109220000Y-100330000D01*
X114300000Y-101600000D02*
X113030000Y-100330000D01*
X114300000Y-110490000D02*
X114300000Y-101600000D01*
X115570000Y-111760000D02*
X114300000Y-110490000D01*
X109220000Y-105410000D02*
X110490000Y-105410000D01*
X113030000Y-114300000D02*
X116840000Y-114300000D01*
X111760000Y-113030000D02*
X113030000Y-114300000D01*
X111760000Y-106680000D02*
X111760000Y-113030000D01*
X110490000Y-105410000D02*
X111760000Y-106680000D01*
X109220000Y-90170000D02*
X109220000Y-87630000D01*
X110490000Y-86360000D02*
X116840000Y-86360000D01*
X109220000Y-87630000D02*
X110490000Y-86360000D01*
X109220000Y-92710000D02*
X111760000Y-92710000D01*
X114300000Y-88900000D02*
X116840000Y-88900000D01*
X113030000Y-90170000D02*
X114300000Y-88900000D01*
X113030000Y-91440000D02*
X113030000Y-90170000D01*
X111760000Y-92710000D02*
X113030000Y-91440000D01*
X138430000Y-118110000D02*
X139700000Y-118110000D01*
X134620000Y-114300000D02*
X138430000Y-118110000D01*
X161290000Y-118110000D02*
X139700000Y-118110000D01*
X134620000Y-114300000D02*
X127000000Y-114300000D01*
X161290000Y-81280000D02*
X165100000Y-81280000D01*
X165100000Y-81280000D02*
X166370000Y-82550000D01*
X166370000Y-82550000D02*
X166370000Y-107950000D01*
X154940000Y-81280000D02*
X156210000Y-81280000D01*
X156210000Y-81280000D02*
X161290000Y-86360000D01*
X154940000Y-88900000D02*
X156210000Y-88900000D01*
X158750000Y-88900000D02*
X161290000Y-91440000D01*
X156210000Y-88900000D02*
X158750000Y-88900000D01*
X154940000Y-96520000D02*
X156210000Y-96520000D01*
X156210000Y-96520000D02*
X161290000Y-96520000D01*
X154940000Y-104140000D02*
X156210000Y-104140000D01*
X158750000Y-104140000D02*
X161290000Y-101600000D01*
X156210000Y-104140000D02*
X158750000Y-104140000D01*
X154940000Y-111760000D02*
X156210000Y-111760000D01*
X160020000Y-111760000D02*
X161290000Y-113030000D01*
X156210000Y-111760000D02*
X160020000Y-111760000D01*
X139700000Y-102870000D02*
X139700000Y-99060000D01*
X140970000Y-104140000D02*
X139700000Y-102870000D01*
X144780000Y-104140000D02*
X140970000Y-104140000D01*
X120650000Y-113030000D02*
X119380000Y-114300000D01*
X119380000Y-114300000D02*
X118110000Y-114300000D01*
X118110000Y-114300000D02*
X116840000Y-114300000D01*
X120650000Y-92710000D02*
X120650000Y-113030000D01*
X119380000Y-91440000D02*
X120650000Y-92710000D01*
X118110000Y-91440000D02*
X119380000Y-91440000D01*
X109220000Y-102870000D02*
X105410000Y-102870000D01*
X105410000Y-82550000D02*
X123190000Y-82550000D01*
X104140000Y-83820000D02*
X105410000Y-82550000D01*
X104140000Y-101600000D02*
X104140000Y-83820000D01*
X105410000Y-102870000D02*
X104140000Y-101600000D01*
X127000000Y-116840000D02*
X124460000Y-116840000D01*
X123190000Y-115570000D02*
X123190000Y-109220000D01*
X124460000Y-116840000D02*
X123190000Y-115570000D01*
X127000000Y-121920000D02*
X127000000Y-124460000D01*
X127000000Y-111760000D02*
X137160000Y-111760000D01*
X137160000Y-111760000D02*
X139700000Y-114300000D01*
X139700000Y-114300000D02*
X152400000Y-114300000D01*
X152400000Y-114300000D02*
X154940000Y-111760000D01*
X154940000Y-85090000D02*
X152400000Y-85090000D01*
X151130000Y-86360000D02*
X151130000Y-92710000D01*
X152400000Y-85090000D02*
X151130000Y-86360000D01*
X160020000Y-107950000D02*
X166370000Y-107950000D01*
X127000000Y-93980000D02*
X124460000Y-93980000D01*
X124460000Y-93980000D02*
X123190000Y-95250000D01*
X123190000Y-95250000D02*
X123190000Y-109220000D01*
X166370000Y-107950000D02*
X166370000Y-118110000D01*
X166370000Y-118110000D02*
X160020000Y-124460000D01*
X160020000Y-124460000D02*
X127000000Y-124460000D01*
X127000000Y-124460000D02*
X124460000Y-124460000D01*
X113030000Y-124460000D02*
X109220000Y-120650000D01*
X124460000Y-124460000D02*
X113030000Y-124460000D01*
X109220000Y-120650000D02*
X109220000Y-107950000D01*
X109220000Y-105410000D02*
X109220000Y-105410000D01*
X127000000Y-109220000D02*
X123190000Y-109220000D01*
X123190000Y-109220000D02*
X123190000Y-109220000D01*
X109220000Y-97790000D02*
X113030000Y-97790000D01*
X114300000Y-99060000D02*
X116840000Y-99060000D01*
X113030000Y-97790000D02*
X114300000Y-99060000D01*
X109220000Y-95250000D02*
X113030000Y-95250000D01*
X114300000Y-96520000D02*
X116840000Y-96520000D01*
X113030000Y-95250000D02*
X114300000Y-96520000D01*
X109220000Y-92710000D02*
X109220000Y-92710000D01*
X132080000Y-106680000D02*
X135890000Y-106680000D01*
X127000000Y-121920000D02*
X127000000Y-116840000D01*
X151130000Y-92710000D02*
X154940000Y-92710000D01*
X154940000Y-100330000D02*
X151130000Y-100330000D01*
X152400000Y-107950000D02*
X162560000Y-107950000D01*
X151130000Y-106680000D02*
X152400000Y-107950000D01*
X151130000Y-92710000D02*
X151130000Y-100330000D01*
X151130000Y-100330000D02*
X151130000Y-106680000D01*
X139700000Y-109220000D02*
X140970000Y-110490000D01*
X147320000Y-76200000D02*
X139700000Y-76200000D01*
X148590000Y-77470000D02*
X147320000Y-76200000D01*
X148590000Y-110490000D02*
X148590000Y-77470000D01*
X147320000Y-111760000D02*
X148590000Y-110490000D01*
X142240000Y-111760000D02*
X147320000Y-111760000D01*
X140970000Y-110490000D02*
X142240000Y-111760000D01*
X139700000Y-109220000D02*
X138430000Y-109220000D01*
X138430000Y-109220000D02*
X135890000Y-106680000D01*
X127000000Y-91440000D02*
X124460000Y-91440000D01*
X124460000Y-91440000D02*
X123190000Y-90170000D01*
X123190000Y-90170000D02*
X123190000Y-82550000D01*
X123190000Y-82550000D02*
X123190000Y-77470000D01*
X123190000Y-77470000D02*
X124460000Y-76200000D01*
X124460000Y-76200000D02*
X139700000Y-76200000D01*
X139700000Y-76200000D02*
X139700000Y-78740000D01*
X135890000Y-86360000D02*
X143510000Y-86360000D01*
X143510000Y-86360000D02*
X144780000Y-85090000D01*
X127000000Y-86360000D02*
X135890000Y-86360000D01*
X127000000Y-88900000D02*
X144780000Y-88900000D01*
X127000000Y-96520000D02*
X144780000Y-96520000D01*
X127000000Y-99060000D02*
X139700000Y-99060000D01*
X144780000Y-104140000D02*
X144780000Y-107950000D01*
X144780000Y-96520000D02*
X144780000Y-100330000D01*
X144780000Y-88900000D02*
X144780000Y-92710000D01*
X144780000Y-81280000D02*
X144780000Y-85090000D01*
M02*
