%FSLAX45Y45*%
G04 Gerber Fmt 4.5, Leading zero omitted, Abs format (unit mm)*
G04 Created by KiCad (PCBNEW 4.0.7) date 02/20/20 23:48:35*
%MOMM*%
%LPD*%
G01*
G04 APERTURE LIST*
%ADD10C,0.127000*%
%ADD11C,0.150000*%
%ADD12C,0.200000*%
%ADD13C,0.300000*%
G04 APERTURE END LIST*
D10*
D11*
X17145000Y-7112000D02*
X10033000Y-7112000D01*
X17145000Y-12827000D02*
X17145000Y-7112000D01*
X10033000Y-12827000D02*
X17145000Y-12827000D01*
X10033000Y-7112000D02*
X10033000Y-12827000D01*
D12*
X13167360Y-10627360D02*
X13248640Y-10708640D01*
X13248640Y-10627360D02*
X13167360Y-10708640D01*
X13167360Y-11389360D02*
X13248640Y-11470640D01*
X13248640Y-11389360D02*
X13167360Y-11470640D01*
X13548360Y-7579360D02*
X13629640Y-7660640D01*
X13629640Y-7579360D02*
X13548360Y-7660640D01*
X13548360Y-8595360D02*
X13629640Y-8676640D01*
X13629640Y-8595360D02*
X13548360Y-8676640D01*
X13548360Y-9611360D02*
X13629640Y-9692640D01*
X13629640Y-9611360D02*
X13548360Y-9692640D01*
X13548360Y-10627360D02*
X13629640Y-10708640D01*
X13629640Y-10627360D02*
X13548360Y-10708640D01*
X13929360Y-7833360D02*
X14010640Y-7914640D01*
X14010640Y-7833360D02*
X13929360Y-7914640D01*
X13929360Y-8849360D02*
X14010640Y-8930640D01*
X14010640Y-8849360D02*
X13929360Y-8930640D01*
X13929360Y-9865360D02*
X14010640Y-9946640D01*
X14010640Y-9865360D02*
X13929360Y-9946640D01*
X13929360Y-10881360D02*
X14010640Y-10962640D01*
X14010640Y-10881360D02*
X13929360Y-10962640D01*
X14437360Y-8087360D02*
X14518640Y-8168640D01*
X14518640Y-8087360D02*
X14437360Y-8168640D01*
X14437360Y-8849360D02*
X14518640Y-8930640D01*
X14518640Y-8849360D02*
X14437360Y-8930640D01*
X14437360Y-9611360D02*
X14518640Y-9692640D01*
X14518640Y-9611360D02*
X14437360Y-9692640D01*
X14437360Y-10373360D02*
X14518640Y-10454640D01*
X14518640Y-10373360D02*
X14437360Y-10454640D01*
X14437360Y-11135360D02*
X14518640Y-11216640D01*
X14518640Y-11135360D02*
X14437360Y-11216640D01*
X15453360Y-8087360D02*
X15534640Y-8168640D01*
X15534640Y-8087360D02*
X15453360Y-8168640D01*
X15453360Y-8849360D02*
X15534640Y-8930640D01*
X15534640Y-8849360D02*
X15453360Y-8930640D01*
X15453360Y-9611360D02*
X15534640Y-9692640D01*
X15534640Y-9611360D02*
X15453360Y-9692640D01*
X15453360Y-10373360D02*
X15534640Y-10454640D01*
X15534640Y-10373360D02*
X15453360Y-10454640D01*
X15453360Y-11135360D02*
X15534640Y-11216640D01*
X15534640Y-11135360D02*
X15453360Y-11216640D01*
X10972800Y-9017000D02*
G75*
G03X10972800Y-9017000I-50800J0D01*
G01*
X10972800Y-9271000D02*
G75*
G03X10972800Y-9271000I-50800J0D01*
G01*
X10972800Y-9525000D02*
G75*
G03X10972800Y-9525000I-50800J0D01*
G01*
X10972800Y-9779000D02*
G75*
G03X10972800Y-9779000I-50800J0D01*
G01*
X10972800Y-10033000D02*
G75*
G03X10972800Y-10033000I-50800J0D01*
G01*
X10972800Y-10287000D02*
G75*
G03X10972800Y-10287000I-50800J0D01*
G01*
X10972800Y-10541000D02*
G75*
G03X10972800Y-10541000I-50800J0D01*
G01*
X10972800Y-10795000D02*
G75*
G03X10972800Y-10795000I-50800J0D01*
G01*
X11734800Y-8636000D02*
G75*
G03X11734800Y-8636000I-50800J0D01*
G01*
X11734800Y-8890000D02*
G75*
G03X11734800Y-8890000I-50800J0D01*
G01*
X11734800Y-9144000D02*
G75*
G03X11734800Y-9144000I-50800J0D01*
G01*
X11734800Y-9398000D02*
G75*
G03X11734800Y-9398000I-50800J0D01*
G01*
X11734800Y-9652000D02*
G75*
G03X11734800Y-9652000I-50800J0D01*
G01*
X11734800Y-9906000D02*
G75*
G03X11734800Y-9906000I-50800J0D01*
G01*
X11734800Y-10922000D02*
G75*
G03X11734800Y-10922000I-50800J0D01*
G01*
X11734800Y-11176000D02*
G75*
G03X11734800Y-11176000I-50800J0D01*
G01*
X11734800Y-11430000D02*
G75*
G03X11734800Y-11430000I-50800J0D01*
G01*
X11734800Y-11684000D02*
G75*
G03X11734800Y-11684000I-50800J0D01*
G01*
X11734800Y-11938000D02*
G75*
G03X11734800Y-11938000I-50800J0D01*
G01*
X11734800Y-12192000D02*
G75*
G03X11734800Y-12192000I-50800J0D01*
G01*
X12750800Y-8636000D02*
G75*
G03X12750800Y-8636000I-50800J0D01*
G01*
X12750800Y-8890000D02*
G75*
G03X12750800Y-8890000I-50800J0D01*
G01*
X12750800Y-9144000D02*
G75*
G03X12750800Y-9144000I-50800J0D01*
G01*
X12750800Y-9398000D02*
G75*
G03X12750800Y-9398000I-50800J0D01*
G01*
X12750800Y-9652000D02*
G75*
G03X12750800Y-9652000I-50800J0D01*
G01*
X12750800Y-9906000D02*
G75*
G03X12750800Y-9906000I-50800J0D01*
G01*
X12750800Y-10922000D02*
G75*
G03X12750800Y-10922000I-50800J0D01*
G01*
X12750800Y-11176000D02*
G75*
G03X12750800Y-11176000I-50800J0D01*
G01*
X12750800Y-11430000D02*
G75*
G03X12750800Y-11430000I-50800J0D01*
G01*
X12750800Y-11684000D02*
G75*
G03X12750800Y-11684000I-50800J0D01*
G01*
X12750800Y-11938000D02*
G75*
G03X12750800Y-11938000I-50800J0D01*
G01*
X12750800Y-12192000D02*
G75*
G03X12750800Y-12192000I-50800J0D01*
G01*
X14528800Y-8509000D02*
G75*
G03X14528800Y-8509000I-50800J0D01*
G01*
X14528800Y-9271000D02*
G75*
G03X14528800Y-9271000I-50800J0D01*
G01*
X14528800Y-10033000D02*
G75*
G03X14528800Y-10033000I-50800J0D01*
G01*
X14528800Y-10795000D02*
G75*
G03X14528800Y-10795000I-50800J0D01*
G01*
X15544800Y-8509000D02*
G75*
G03X15544800Y-8509000I-50800J0D01*
G01*
X15544800Y-9271000D02*
G75*
G03X15544800Y-9271000I-50800J0D01*
G01*
X15544800Y-10033000D02*
G75*
G03X15544800Y-10033000I-50800J0D01*
G01*
X15544800Y-10795000D02*
G75*
G03X15544800Y-10795000I-50800J0D01*
G01*
X16179800Y-8128000D02*
G75*
G03X16179800Y-8128000I-50800J0D01*
G01*
X16179800Y-8636000D02*
G75*
G03X16179800Y-8636000I-50800J0D01*
G01*
X16179800Y-9144000D02*
G75*
G03X16179800Y-9144000I-50800J0D01*
G01*
X16179800Y-9652000D02*
G75*
G03X16179800Y-9652000I-50800J0D01*
G01*
X16179800Y-10160000D02*
G75*
G03X16179800Y-10160000I-50800J0D01*
G01*
X16179800Y-10795000D02*
G75*
G03X16179800Y-10795000I-50800J0D01*
G01*
X16179800Y-11303000D02*
G75*
G03X16179800Y-11303000I-50800J0D01*
G01*
X16179800Y-11811000D02*
G75*
G03X16179800Y-11811000I-50800J0D01*
G01*
X10541000Y-7318000D02*
X10541000Y-7668000D01*
X10366000Y-7493000D02*
X10716000Y-7493000D01*
X10541000Y-12271000D02*
X10541000Y-12621000D01*
X10366000Y-12446000D02*
X10716000Y-12446000D01*
X16637000Y-7318000D02*
X16637000Y-7668000D01*
X16462000Y-7493000D02*
X16812000Y-7493000D01*
X16637000Y-12271000D02*
X16637000Y-12621000D01*
X16462000Y-12446000D02*
X16812000Y-12446000D01*
D13*
X10296929Y-13300214D02*
X10296929Y-13000214D01*
X10368357Y-13000214D01*
X10411214Y-13014500D01*
X10439786Y-13043071D01*
X10454071Y-13071643D01*
X10468357Y-13128786D01*
X10468357Y-13171643D01*
X10454071Y-13228786D01*
X10439786Y-13257357D01*
X10411214Y-13285929D01*
X10368357Y-13300214D01*
X10296929Y-13300214D01*
X10596929Y-13300214D02*
X10596929Y-13100214D01*
X10596929Y-13157357D02*
X10611214Y-13128786D01*
X10625500Y-13114500D01*
X10654071Y-13100214D01*
X10682643Y-13100214D01*
X10782643Y-13300214D02*
X10782643Y-13100214D01*
X10782643Y-13000214D02*
X10768357Y-13014500D01*
X10782643Y-13028786D01*
X10796929Y-13014500D01*
X10782643Y-13000214D01*
X10782643Y-13028786D01*
X10968357Y-13300214D02*
X10939786Y-13285929D01*
X10925500Y-13257357D01*
X10925500Y-13000214D01*
X11125500Y-13300214D02*
X11096929Y-13285929D01*
X11082643Y-13257357D01*
X11082643Y-13000214D01*
X11468357Y-13300214D02*
X11468357Y-13000214D01*
X11568357Y-13214500D01*
X11668357Y-13000214D01*
X11668357Y-13300214D01*
X11939786Y-13300214D02*
X11939786Y-13143071D01*
X11925500Y-13114500D01*
X11896928Y-13100214D01*
X11839786Y-13100214D01*
X11811214Y-13114500D01*
X11939786Y-13285929D02*
X11911214Y-13300214D01*
X11839786Y-13300214D01*
X11811214Y-13285929D01*
X11796928Y-13257357D01*
X11796928Y-13228786D01*
X11811214Y-13200214D01*
X11839786Y-13185929D01*
X11911214Y-13185929D01*
X11939786Y-13171643D01*
X12082643Y-13100214D02*
X12082643Y-13400214D01*
X12082643Y-13114500D02*
X12111214Y-13100214D01*
X12168357Y-13100214D01*
X12196928Y-13114500D01*
X12211214Y-13128786D01*
X12225500Y-13157357D01*
X12225500Y-13243071D01*
X12211214Y-13271643D01*
X12196928Y-13285929D01*
X12168357Y-13300214D01*
X12111214Y-13300214D01*
X12082643Y-13285929D01*
X12354071Y-13271643D02*
X12368357Y-13285929D01*
X12354071Y-13300214D01*
X12339786Y-13285929D01*
X12354071Y-13271643D01*
X12354071Y-13300214D01*
X12354071Y-13114500D02*
X12368357Y-13128786D01*
X12354071Y-13143071D01*
X12339786Y-13128786D01*
X12354071Y-13114500D01*
X12354071Y-13143071D01*
X9944220Y-13753860D02*
X10025500Y-13835140D01*
X10025500Y-13753860D02*
X9944220Y-13835140D01*
X10354071Y-13630214D02*
X10382643Y-13630214D01*
X10411214Y-13644500D01*
X10425500Y-13658786D01*
X10439786Y-13687357D01*
X10454071Y-13744500D01*
X10454071Y-13815929D01*
X10439786Y-13873071D01*
X10425500Y-13901643D01*
X10411214Y-13915929D01*
X10382643Y-13930214D01*
X10354071Y-13930214D01*
X10325500Y-13915929D01*
X10311214Y-13901643D01*
X10296929Y-13873071D01*
X10282643Y-13815929D01*
X10282643Y-13744500D01*
X10296929Y-13687357D01*
X10311214Y-13658786D01*
X10325500Y-13644500D01*
X10354071Y-13630214D01*
X10582643Y-13901643D02*
X10596929Y-13915929D01*
X10582643Y-13930214D01*
X10568357Y-13915929D01*
X10582643Y-13901643D01*
X10582643Y-13930214D01*
X10768357Y-13758786D02*
X10739786Y-13744500D01*
X10725500Y-13730214D01*
X10711214Y-13701643D01*
X10711214Y-13687357D01*
X10725500Y-13658786D01*
X10739786Y-13644500D01*
X10768357Y-13630214D01*
X10825500Y-13630214D01*
X10854071Y-13644500D01*
X10868357Y-13658786D01*
X10882643Y-13687357D01*
X10882643Y-13701643D01*
X10868357Y-13730214D01*
X10854071Y-13744500D01*
X10825500Y-13758786D01*
X10768357Y-13758786D01*
X10739786Y-13773071D01*
X10725500Y-13787357D01*
X10711214Y-13815929D01*
X10711214Y-13873071D01*
X10725500Y-13901643D01*
X10739786Y-13915929D01*
X10768357Y-13930214D01*
X10825500Y-13930214D01*
X10854071Y-13915929D01*
X10868357Y-13901643D01*
X10882643Y-13873071D01*
X10882643Y-13815929D01*
X10868357Y-13787357D01*
X10854071Y-13773071D01*
X10825500Y-13758786D01*
X11168357Y-13930214D02*
X10996929Y-13930214D01*
X11082643Y-13930214D02*
X11082643Y-13630214D01*
X11054071Y-13673071D01*
X11025500Y-13701643D01*
X10996929Y-13715929D01*
X11296928Y-13930214D02*
X11296928Y-13730214D01*
X11296928Y-13758786D02*
X11311214Y-13744500D01*
X11339786Y-13730214D01*
X11382643Y-13730214D01*
X11411214Y-13744500D01*
X11425500Y-13773071D01*
X11425500Y-13930214D01*
X11425500Y-13773071D02*
X11439786Y-13744500D01*
X11468357Y-13730214D01*
X11511214Y-13730214D01*
X11539786Y-13744500D01*
X11554071Y-13773071D01*
X11554071Y-13930214D01*
X11696928Y-13930214D02*
X11696928Y-13730214D01*
X11696928Y-13758786D02*
X11711214Y-13744500D01*
X11739786Y-13730214D01*
X11782643Y-13730214D01*
X11811214Y-13744500D01*
X11825500Y-13773071D01*
X11825500Y-13930214D01*
X11825500Y-13773071D02*
X11839786Y-13744500D01*
X11868357Y-13730214D01*
X11911214Y-13730214D01*
X11939786Y-13744500D01*
X11954071Y-13773071D01*
X11954071Y-13930214D01*
X12539786Y-13615929D02*
X12282643Y-14001643D01*
X12925500Y-13630214D02*
X12954071Y-13630214D01*
X12982643Y-13644500D01*
X12996928Y-13658786D01*
X13011214Y-13687357D01*
X13025500Y-13744500D01*
X13025500Y-13815929D01*
X13011214Y-13873071D01*
X12996928Y-13901643D01*
X12982643Y-13915929D01*
X12954071Y-13930214D01*
X12925500Y-13930214D01*
X12896928Y-13915929D01*
X12882643Y-13901643D01*
X12868357Y-13873071D01*
X12854071Y-13815929D01*
X12854071Y-13744500D01*
X12868357Y-13687357D01*
X12882643Y-13658786D01*
X12896928Y-13644500D01*
X12925500Y-13630214D01*
X13154071Y-13901643D02*
X13168357Y-13915929D01*
X13154071Y-13930214D01*
X13139786Y-13915929D01*
X13154071Y-13901643D01*
X13154071Y-13930214D01*
X13354071Y-13630214D02*
X13382643Y-13630214D01*
X13411214Y-13644500D01*
X13425500Y-13658786D01*
X13439785Y-13687357D01*
X13454071Y-13744500D01*
X13454071Y-13815929D01*
X13439785Y-13873071D01*
X13425500Y-13901643D01*
X13411214Y-13915929D01*
X13382643Y-13930214D01*
X13354071Y-13930214D01*
X13325500Y-13915929D01*
X13311214Y-13901643D01*
X13296928Y-13873071D01*
X13282643Y-13815929D01*
X13282643Y-13744500D01*
X13296928Y-13687357D01*
X13311214Y-13658786D01*
X13325500Y-13644500D01*
X13354071Y-13630214D01*
X13554071Y-13630214D02*
X13739785Y-13630214D01*
X13639785Y-13744500D01*
X13682643Y-13744500D01*
X13711214Y-13758786D01*
X13725500Y-13773071D01*
X13739785Y-13801643D01*
X13739785Y-13873071D01*
X13725500Y-13901643D01*
X13711214Y-13915929D01*
X13682643Y-13930214D01*
X13596928Y-13930214D01*
X13568357Y-13915929D01*
X13554071Y-13901643D01*
X13854071Y-13658786D02*
X13868357Y-13644500D01*
X13896928Y-13630214D01*
X13968357Y-13630214D01*
X13996928Y-13644500D01*
X14011214Y-13658786D01*
X14025500Y-13687357D01*
X14025500Y-13715929D01*
X14011214Y-13758786D01*
X13839785Y-13930214D01*
X14025500Y-13930214D01*
X14139786Y-13630214D02*
X14139786Y-13687357D01*
X14254071Y-13630214D02*
X14254071Y-13687357D01*
X14696928Y-14044500D02*
X14682643Y-14030214D01*
X14654071Y-13987357D01*
X14639785Y-13958786D01*
X14625500Y-13915929D01*
X14611214Y-13844500D01*
X14611214Y-13787357D01*
X14625500Y-13715929D01*
X14639785Y-13673071D01*
X14654071Y-13644500D01*
X14682643Y-13601643D01*
X14696928Y-13587357D01*
X14796928Y-13658786D02*
X14811214Y-13644500D01*
X14839785Y-13630214D01*
X14911214Y-13630214D01*
X14939785Y-13644500D01*
X14954071Y-13658786D01*
X14968357Y-13687357D01*
X14968357Y-13715929D01*
X14954071Y-13758786D01*
X14782643Y-13930214D01*
X14968357Y-13930214D01*
X15154071Y-13630214D02*
X15182643Y-13630214D01*
X15211214Y-13644500D01*
X15225500Y-13658786D01*
X15239785Y-13687357D01*
X15254071Y-13744500D01*
X15254071Y-13815929D01*
X15239785Y-13873071D01*
X15225500Y-13901643D01*
X15211214Y-13915929D01*
X15182643Y-13930214D01*
X15154071Y-13930214D01*
X15125500Y-13915929D01*
X15111214Y-13901643D01*
X15096928Y-13873071D01*
X15082643Y-13815929D01*
X15082643Y-13744500D01*
X15096928Y-13687357D01*
X15111214Y-13658786D01*
X15125500Y-13644500D01*
X15154071Y-13630214D01*
X15611214Y-13930214D02*
X15611214Y-13630214D01*
X15739785Y-13930214D02*
X15739785Y-13773071D01*
X15725500Y-13744500D01*
X15696928Y-13730214D01*
X15654071Y-13730214D01*
X15625500Y-13744500D01*
X15611214Y-13758786D01*
X15925500Y-13930214D02*
X15896928Y-13915929D01*
X15882643Y-13901643D01*
X15868357Y-13873071D01*
X15868357Y-13787357D01*
X15882643Y-13758786D01*
X15896928Y-13744500D01*
X15925500Y-13730214D01*
X15968357Y-13730214D01*
X15996928Y-13744500D01*
X16011214Y-13758786D01*
X16025500Y-13787357D01*
X16025500Y-13873071D01*
X16011214Y-13901643D01*
X15996928Y-13915929D01*
X15968357Y-13930214D01*
X15925500Y-13930214D01*
X16196928Y-13930214D02*
X16168357Y-13915929D01*
X16154071Y-13887357D01*
X16154071Y-13630214D01*
X16425500Y-13915929D02*
X16396928Y-13930214D01*
X16339786Y-13930214D01*
X16311214Y-13915929D01*
X16296928Y-13887357D01*
X16296928Y-13773071D01*
X16311214Y-13744500D01*
X16339786Y-13730214D01*
X16396928Y-13730214D01*
X16425500Y-13744500D01*
X16439786Y-13773071D01*
X16439786Y-13801643D01*
X16296928Y-13830214D01*
X16554071Y-13915929D02*
X16582643Y-13930214D01*
X16639786Y-13930214D01*
X16668357Y-13915929D01*
X16682643Y-13887357D01*
X16682643Y-13873071D01*
X16668357Y-13844500D01*
X16639786Y-13830214D01*
X16596928Y-13830214D01*
X16568357Y-13815929D01*
X16554071Y-13787357D01*
X16554071Y-13773071D01*
X16568357Y-13744500D01*
X16596928Y-13730214D01*
X16639786Y-13730214D01*
X16668357Y-13744500D01*
X16782643Y-14044500D02*
X16796929Y-14030214D01*
X16825500Y-13987357D01*
X16839786Y-13958786D01*
X16854071Y-13915929D01*
X16868357Y-13844500D01*
X16868357Y-13787357D01*
X16854071Y-13715929D01*
X16839786Y-13673071D01*
X16825500Y-13644500D01*
X16796929Y-13601643D01*
X16782643Y-13587357D01*
X10025500Y-14190500D02*
G75*
G03X10025500Y-14190500I-50800J0D01*
G01*
X10454071Y-14326214D02*
X10282643Y-14326214D01*
X10368357Y-14326214D02*
X10368357Y-14026214D01*
X10339786Y-14069071D01*
X10311214Y-14097643D01*
X10282643Y-14111929D01*
X10582643Y-14297643D02*
X10596929Y-14311929D01*
X10582643Y-14326214D01*
X10568357Y-14311929D01*
X10582643Y-14297643D01*
X10582643Y-14326214D01*
X10782643Y-14026214D02*
X10811214Y-14026214D01*
X10839786Y-14040500D01*
X10854071Y-14054786D01*
X10868357Y-14083357D01*
X10882643Y-14140500D01*
X10882643Y-14211929D01*
X10868357Y-14269071D01*
X10854071Y-14297643D01*
X10839786Y-14311929D01*
X10811214Y-14326214D01*
X10782643Y-14326214D01*
X10754071Y-14311929D01*
X10739786Y-14297643D01*
X10725500Y-14269071D01*
X10711214Y-14211929D01*
X10711214Y-14140500D01*
X10725500Y-14083357D01*
X10739786Y-14054786D01*
X10754071Y-14040500D01*
X10782643Y-14026214D01*
X10996929Y-14054786D02*
X11011214Y-14040500D01*
X11039786Y-14026214D01*
X11111214Y-14026214D01*
X11139786Y-14040500D01*
X11154071Y-14054786D01*
X11168357Y-14083357D01*
X11168357Y-14111929D01*
X11154071Y-14154786D01*
X10982643Y-14326214D01*
X11168357Y-14326214D01*
X11296928Y-14326214D02*
X11296928Y-14126214D01*
X11296928Y-14154786D02*
X11311214Y-14140500D01*
X11339786Y-14126214D01*
X11382643Y-14126214D01*
X11411214Y-14140500D01*
X11425500Y-14169071D01*
X11425500Y-14326214D01*
X11425500Y-14169071D02*
X11439786Y-14140500D01*
X11468357Y-14126214D01*
X11511214Y-14126214D01*
X11539786Y-14140500D01*
X11554071Y-14169071D01*
X11554071Y-14326214D01*
X11696928Y-14326214D02*
X11696928Y-14126214D01*
X11696928Y-14154786D02*
X11711214Y-14140500D01*
X11739786Y-14126214D01*
X11782643Y-14126214D01*
X11811214Y-14140500D01*
X11825500Y-14169071D01*
X11825500Y-14326214D01*
X11825500Y-14169071D02*
X11839786Y-14140500D01*
X11868357Y-14126214D01*
X11911214Y-14126214D01*
X11939786Y-14140500D01*
X11954071Y-14169071D01*
X11954071Y-14326214D01*
X12539786Y-14011929D02*
X12282643Y-14397643D01*
X12925500Y-14026214D02*
X12954071Y-14026214D01*
X12982643Y-14040500D01*
X12996928Y-14054786D01*
X13011214Y-14083357D01*
X13025500Y-14140500D01*
X13025500Y-14211929D01*
X13011214Y-14269071D01*
X12996928Y-14297643D01*
X12982643Y-14311929D01*
X12954071Y-14326214D01*
X12925500Y-14326214D01*
X12896928Y-14311929D01*
X12882643Y-14297643D01*
X12868357Y-14269071D01*
X12854071Y-14211929D01*
X12854071Y-14140500D01*
X12868357Y-14083357D01*
X12882643Y-14054786D01*
X12896928Y-14040500D01*
X12925500Y-14026214D01*
X13154071Y-14297643D02*
X13168357Y-14311929D01*
X13154071Y-14326214D01*
X13139786Y-14311929D01*
X13154071Y-14297643D01*
X13154071Y-14326214D01*
X13354071Y-14026214D02*
X13382643Y-14026214D01*
X13411214Y-14040500D01*
X13425500Y-14054786D01*
X13439785Y-14083357D01*
X13454071Y-14140500D01*
X13454071Y-14211929D01*
X13439785Y-14269071D01*
X13425500Y-14297643D01*
X13411214Y-14311929D01*
X13382643Y-14326214D01*
X13354071Y-14326214D01*
X13325500Y-14311929D01*
X13311214Y-14297643D01*
X13296928Y-14269071D01*
X13282643Y-14211929D01*
X13282643Y-14140500D01*
X13296928Y-14083357D01*
X13311214Y-14054786D01*
X13325500Y-14040500D01*
X13354071Y-14026214D01*
X13711214Y-14126214D02*
X13711214Y-14326214D01*
X13639785Y-14011929D02*
X13568357Y-14226214D01*
X13754071Y-14226214D01*
X13925500Y-14026214D02*
X13954071Y-14026214D01*
X13982643Y-14040500D01*
X13996928Y-14054786D01*
X14011214Y-14083357D01*
X14025500Y-14140500D01*
X14025500Y-14211929D01*
X14011214Y-14269071D01*
X13996928Y-14297643D01*
X13982643Y-14311929D01*
X13954071Y-14326214D01*
X13925500Y-14326214D01*
X13896928Y-14311929D01*
X13882643Y-14297643D01*
X13868357Y-14269071D01*
X13854071Y-14211929D01*
X13854071Y-14140500D01*
X13868357Y-14083357D01*
X13882643Y-14054786D01*
X13896928Y-14040500D01*
X13925500Y-14026214D01*
X14139786Y-14026214D02*
X14139786Y-14083357D01*
X14254071Y-14026214D02*
X14254071Y-14083357D01*
X14696928Y-14440500D02*
X14682643Y-14426214D01*
X14654071Y-14383357D01*
X14639785Y-14354786D01*
X14625500Y-14311929D01*
X14611214Y-14240500D01*
X14611214Y-14183357D01*
X14625500Y-14111929D01*
X14639785Y-14069071D01*
X14654071Y-14040500D01*
X14682643Y-13997643D01*
X14696928Y-13983357D01*
X14939785Y-14126214D02*
X14939785Y-14326214D01*
X14868357Y-14011929D02*
X14796928Y-14226214D01*
X14982643Y-14226214D01*
X15139785Y-14154786D02*
X15111214Y-14140500D01*
X15096928Y-14126214D01*
X15082643Y-14097643D01*
X15082643Y-14083357D01*
X15096928Y-14054786D01*
X15111214Y-14040500D01*
X15139785Y-14026214D01*
X15196928Y-14026214D01*
X15225500Y-14040500D01*
X15239785Y-14054786D01*
X15254071Y-14083357D01*
X15254071Y-14097643D01*
X15239785Y-14126214D01*
X15225500Y-14140500D01*
X15196928Y-14154786D01*
X15139785Y-14154786D01*
X15111214Y-14169071D01*
X15096928Y-14183357D01*
X15082643Y-14211929D01*
X15082643Y-14269071D01*
X15096928Y-14297643D01*
X15111214Y-14311929D01*
X15139785Y-14326214D01*
X15196928Y-14326214D01*
X15225500Y-14311929D01*
X15239785Y-14297643D01*
X15254071Y-14269071D01*
X15254071Y-14211929D01*
X15239785Y-14183357D01*
X15225500Y-14169071D01*
X15196928Y-14154786D01*
X15611214Y-14326214D02*
X15611214Y-14026214D01*
X15739785Y-14326214D02*
X15739785Y-14169071D01*
X15725500Y-14140500D01*
X15696928Y-14126214D01*
X15654071Y-14126214D01*
X15625500Y-14140500D01*
X15611214Y-14154786D01*
X15925500Y-14326214D02*
X15896928Y-14311929D01*
X15882643Y-14297643D01*
X15868357Y-14269071D01*
X15868357Y-14183357D01*
X15882643Y-14154786D01*
X15896928Y-14140500D01*
X15925500Y-14126214D01*
X15968357Y-14126214D01*
X15996928Y-14140500D01*
X16011214Y-14154786D01*
X16025500Y-14183357D01*
X16025500Y-14269071D01*
X16011214Y-14297643D01*
X15996928Y-14311929D01*
X15968357Y-14326214D01*
X15925500Y-14326214D01*
X16196928Y-14326214D02*
X16168357Y-14311929D01*
X16154071Y-14283357D01*
X16154071Y-14026214D01*
X16425500Y-14311929D02*
X16396928Y-14326214D01*
X16339786Y-14326214D01*
X16311214Y-14311929D01*
X16296928Y-14283357D01*
X16296928Y-14169071D01*
X16311214Y-14140500D01*
X16339786Y-14126214D01*
X16396928Y-14126214D01*
X16425500Y-14140500D01*
X16439786Y-14169071D01*
X16439786Y-14197643D01*
X16296928Y-14226214D01*
X16554071Y-14311929D02*
X16582643Y-14326214D01*
X16639786Y-14326214D01*
X16668357Y-14311929D01*
X16682643Y-14283357D01*
X16682643Y-14269071D01*
X16668357Y-14240500D01*
X16639786Y-14226214D01*
X16596928Y-14226214D01*
X16568357Y-14211929D01*
X16554071Y-14183357D01*
X16554071Y-14169071D01*
X16568357Y-14140500D01*
X16596928Y-14126214D01*
X16639786Y-14126214D01*
X16668357Y-14140500D01*
X16782643Y-14440500D02*
X16796929Y-14426214D01*
X16825500Y-14383357D01*
X16839786Y-14354786D01*
X16854071Y-14311929D01*
X16868357Y-14240500D01*
X16868357Y-14183357D01*
X16854071Y-14111929D01*
X16839786Y-14069071D01*
X16825500Y-14040500D01*
X16796929Y-13997643D01*
X16782643Y-13983357D01*
X9850500Y-14411500D02*
X9850500Y-14761500D01*
X9675500Y-14586500D02*
X10025500Y-14586500D01*
X10268357Y-14422214D02*
X10454071Y-14422214D01*
X10354071Y-14536500D01*
X10396929Y-14536500D01*
X10425500Y-14550786D01*
X10439786Y-14565071D01*
X10454071Y-14593643D01*
X10454071Y-14665071D01*
X10439786Y-14693643D01*
X10425500Y-14707929D01*
X10396929Y-14722214D01*
X10311214Y-14722214D01*
X10282643Y-14707929D01*
X10268357Y-14693643D01*
X10582643Y-14693643D02*
X10596929Y-14707929D01*
X10582643Y-14722214D01*
X10568357Y-14707929D01*
X10582643Y-14693643D01*
X10582643Y-14722214D01*
X10868357Y-14422214D02*
X10725500Y-14422214D01*
X10711214Y-14565071D01*
X10725500Y-14550786D01*
X10754071Y-14536500D01*
X10825500Y-14536500D01*
X10854071Y-14550786D01*
X10868357Y-14565071D01*
X10882643Y-14593643D01*
X10882643Y-14665071D01*
X10868357Y-14693643D01*
X10854071Y-14707929D01*
X10825500Y-14722214D01*
X10754071Y-14722214D01*
X10725500Y-14707929D01*
X10711214Y-14693643D01*
X11068357Y-14422214D02*
X11096929Y-14422214D01*
X11125500Y-14436500D01*
X11139786Y-14450786D01*
X11154071Y-14479357D01*
X11168357Y-14536500D01*
X11168357Y-14607929D01*
X11154071Y-14665071D01*
X11139786Y-14693643D01*
X11125500Y-14707929D01*
X11096929Y-14722214D01*
X11068357Y-14722214D01*
X11039786Y-14707929D01*
X11025500Y-14693643D01*
X11011214Y-14665071D01*
X10996929Y-14607929D01*
X10996929Y-14536500D01*
X11011214Y-14479357D01*
X11025500Y-14450786D01*
X11039786Y-14436500D01*
X11068357Y-14422214D01*
X11296928Y-14722214D02*
X11296928Y-14522214D01*
X11296928Y-14550786D02*
X11311214Y-14536500D01*
X11339786Y-14522214D01*
X11382643Y-14522214D01*
X11411214Y-14536500D01*
X11425500Y-14565071D01*
X11425500Y-14722214D01*
X11425500Y-14565071D02*
X11439786Y-14536500D01*
X11468357Y-14522214D01*
X11511214Y-14522214D01*
X11539786Y-14536500D01*
X11554071Y-14565071D01*
X11554071Y-14722214D01*
X11696928Y-14722214D02*
X11696928Y-14522214D01*
X11696928Y-14550786D02*
X11711214Y-14536500D01*
X11739786Y-14522214D01*
X11782643Y-14522214D01*
X11811214Y-14536500D01*
X11825500Y-14565071D01*
X11825500Y-14722214D01*
X11825500Y-14565071D02*
X11839786Y-14536500D01*
X11868357Y-14522214D01*
X11911214Y-14522214D01*
X11939786Y-14536500D01*
X11954071Y-14565071D01*
X11954071Y-14722214D01*
X12539786Y-14407929D02*
X12282643Y-14793643D01*
X12925500Y-14422214D02*
X12954071Y-14422214D01*
X12982643Y-14436500D01*
X12996928Y-14450786D01*
X13011214Y-14479357D01*
X13025500Y-14536500D01*
X13025500Y-14607929D01*
X13011214Y-14665071D01*
X12996928Y-14693643D01*
X12982643Y-14707929D01*
X12954071Y-14722214D01*
X12925500Y-14722214D01*
X12896928Y-14707929D01*
X12882643Y-14693643D01*
X12868357Y-14665071D01*
X12854071Y-14607929D01*
X12854071Y-14536500D01*
X12868357Y-14479357D01*
X12882643Y-14450786D01*
X12896928Y-14436500D01*
X12925500Y-14422214D01*
X13154071Y-14693643D02*
X13168357Y-14707929D01*
X13154071Y-14722214D01*
X13139786Y-14707929D01*
X13154071Y-14693643D01*
X13154071Y-14722214D01*
X13454071Y-14722214D02*
X13282643Y-14722214D01*
X13368357Y-14722214D02*
X13368357Y-14422214D01*
X13339785Y-14465071D01*
X13311214Y-14493643D01*
X13282643Y-14507929D01*
X13554071Y-14422214D02*
X13739785Y-14422214D01*
X13639785Y-14536500D01*
X13682643Y-14536500D01*
X13711214Y-14550786D01*
X13725500Y-14565071D01*
X13739785Y-14593643D01*
X13739785Y-14665071D01*
X13725500Y-14693643D01*
X13711214Y-14707929D01*
X13682643Y-14722214D01*
X13596928Y-14722214D01*
X13568357Y-14707929D01*
X13554071Y-14693643D01*
X13911214Y-14550786D02*
X13882643Y-14536500D01*
X13868357Y-14522214D01*
X13854071Y-14493643D01*
X13854071Y-14479357D01*
X13868357Y-14450786D01*
X13882643Y-14436500D01*
X13911214Y-14422214D01*
X13968357Y-14422214D01*
X13996928Y-14436500D01*
X14011214Y-14450786D01*
X14025500Y-14479357D01*
X14025500Y-14493643D01*
X14011214Y-14522214D01*
X13996928Y-14536500D01*
X13968357Y-14550786D01*
X13911214Y-14550786D01*
X13882643Y-14565071D01*
X13868357Y-14579357D01*
X13854071Y-14607929D01*
X13854071Y-14665071D01*
X13868357Y-14693643D01*
X13882643Y-14707929D01*
X13911214Y-14722214D01*
X13968357Y-14722214D01*
X13996928Y-14707929D01*
X14011214Y-14693643D01*
X14025500Y-14665071D01*
X14025500Y-14607929D01*
X14011214Y-14579357D01*
X13996928Y-14565071D01*
X13968357Y-14550786D01*
X14139786Y-14422214D02*
X14139786Y-14479357D01*
X14254071Y-14422214D02*
X14254071Y-14479357D01*
X14696928Y-14836500D02*
X14682643Y-14822214D01*
X14654071Y-14779357D01*
X14639785Y-14750786D01*
X14625500Y-14707929D01*
X14611214Y-14636500D01*
X14611214Y-14579357D01*
X14625500Y-14507929D01*
X14639785Y-14465071D01*
X14654071Y-14436500D01*
X14682643Y-14393643D01*
X14696928Y-14379357D01*
X14939785Y-14522214D02*
X14939785Y-14722214D01*
X14868357Y-14407929D02*
X14796928Y-14622214D01*
X14982643Y-14622214D01*
X15325500Y-14722214D02*
X15325500Y-14422214D01*
X15454071Y-14722214D02*
X15454071Y-14565071D01*
X15439785Y-14536500D01*
X15411214Y-14522214D01*
X15368357Y-14522214D01*
X15339785Y-14536500D01*
X15325500Y-14550786D01*
X15639785Y-14722214D02*
X15611214Y-14707929D01*
X15596928Y-14693643D01*
X15582643Y-14665071D01*
X15582643Y-14579357D01*
X15596928Y-14550786D01*
X15611214Y-14536500D01*
X15639785Y-14522214D01*
X15682643Y-14522214D01*
X15711214Y-14536500D01*
X15725500Y-14550786D01*
X15739785Y-14579357D01*
X15739785Y-14665071D01*
X15725500Y-14693643D01*
X15711214Y-14707929D01*
X15682643Y-14722214D01*
X15639785Y-14722214D01*
X15911214Y-14722214D02*
X15882643Y-14707929D01*
X15868357Y-14679357D01*
X15868357Y-14422214D01*
X16139786Y-14707929D02*
X16111214Y-14722214D01*
X16054071Y-14722214D01*
X16025500Y-14707929D01*
X16011214Y-14679357D01*
X16011214Y-14565071D01*
X16025500Y-14536500D01*
X16054071Y-14522214D01*
X16111214Y-14522214D01*
X16139786Y-14536500D01*
X16154071Y-14565071D01*
X16154071Y-14593643D01*
X16011214Y-14622214D01*
X16268357Y-14707929D02*
X16296928Y-14722214D01*
X16354071Y-14722214D01*
X16382643Y-14707929D01*
X16396928Y-14679357D01*
X16396928Y-14665071D01*
X16382643Y-14636500D01*
X16354071Y-14622214D01*
X16311214Y-14622214D01*
X16282643Y-14607929D01*
X16268357Y-14579357D01*
X16268357Y-14565071D01*
X16282643Y-14536500D01*
X16311214Y-14522214D01*
X16354071Y-14522214D01*
X16382643Y-14536500D01*
X16496928Y-14836500D02*
X16511214Y-14822214D01*
X16539786Y-14779357D01*
X16554071Y-14750786D01*
X16568357Y-14707929D01*
X16582643Y-14636500D01*
X16582643Y-14579357D01*
X16568357Y-14507929D01*
X16554071Y-14465071D01*
X16539786Y-14436500D01*
X16511214Y-14393643D01*
X16496928Y-14379357D01*
M02*
