G04 #@! TF.FileFunction,Legend,Top*
%FSLAX46Y46*%
G04 Gerber Fmt 4.6, Leading zero omitted, Abs format (unit mm)*
G04 Created by KiCad (PCBNEW 4.0.7) date 02/20/20 23:48:31*
%MOMM*%
%LPD*%
G01*
G04 APERTURE LIST*
%ADD10C,0.150000*%
%ADD11C,0.300000*%
%ADD12C,0.200000*%
G04 APERTURE END LIST*
D10*
D11*
X133930715Y-123277143D02*
X133930715Y-120277143D01*
X134930715Y-122420000D01*
X135930715Y-120277143D01*
X135930715Y-123277143D01*
X137359286Y-123277143D02*
X137359286Y-120277143D01*
X138359286Y-122420000D01*
X139359286Y-120277143D01*
X139359286Y-123277143D01*
X142216428Y-120277143D02*
X140787857Y-120277143D01*
X140645000Y-121705714D01*
X140787857Y-121562857D01*
X141073571Y-121420000D01*
X141787857Y-121420000D01*
X142073571Y-121562857D01*
X142216428Y-121705714D01*
X142359285Y-121991429D01*
X142359285Y-122705714D01*
X142216428Y-122991429D01*
X142073571Y-123134286D01*
X141787857Y-123277143D01*
X141073571Y-123277143D01*
X140787857Y-123134286D01*
X140645000Y-122991429D01*
X143645000Y-123277143D02*
X143645000Y-120277143D01*
X144359285Y-120277143D01*
X144787857Y-120420000D01*
X145073571Y-120705714D01*
X145216428Y-120991429D01*
X145359285Y-121562857D01*
X145359285Y-121991429D01*
X145216428Y-122562857D01*
X145073571Y-122848571D01*
X144787857Y-123134286D01*
X144359285Y-123277143D01*
X143645000Y-123277143D01*
X148787857Y-120134286D02*
X146216428Y-123991429D01*
X149787857Y-120277143D02*
X149787857Y-122705714D01*
X149930714Y-122991429D01*
X150073571Y-123134286D01*
X150359285Y-123277143D01*
X150930714Y-123277143D01*
X151216428Y-123134286D01*
X151359285Y-122991429D01*
X151502142Y-122705714D01*
X151502142Y-120277143D01*
X154359285Y-120277143D02*
X152930714Y-120277143D01*
X152787857Y-121705714D01*
X152930714Y-121562857D01*
X153216428Y-121420000D01*
X153930714Y-121420000D01*
X154216428Y-121562857D01*
X154359285Y-121705714D01*
X154502142Y-121991429D01*
X154502142Y-122705714D01*
X154359285Y-122991429D01*
X154216428Y-123134286D01*
X153930714Y-123277143D01*
X153216428Y-123277143D01*
X152930714Y-123134286D01*
X152787857Y-122991429D01*
X101607857Y-89348571D02*
X101893571Y-89348571D01*
X102036429Y-89420000D01*
X102179286Y-89562857D01*
X102250714Y-89848571D01*
X102250714Y-90348571D01*
X102179286Y-90634286D01*
X102036429Y-90777143D01*
X101893571Y-90848571D01*
X101607857Y-90848571D01*
X101465000Y-90777143D01*
X101322143Y-90634286D01*
X101250714Y-90348571D01*
X101250714Y-89848571D01*
X101322143Y-89562857D01*
X101465000Y-89420000D01*
X101607857Y-89348571D01*
X102893572Y-89348571D02*
X102893572Y-90562857D01*
X102965000Y-90705714D01*
X103036429Y-90777143D01*
X103179286Y-90848571D01*
X103465000Y-90848571D01*
X103607858Y-90777143D01*
X103679286Y-90705714D01*
X103750715Y-90562857D01*
X103750715Y-89348571D01*
X104250715Y-89348571D02*
X105107858Y-89348571D01*
X104679287Y-90848571D02*
X104679287Y-89348571D01*
X106250715Y-89848571D02*
X106250715Y-90848571D01*
X105893572Y-89277143D02*
X105536429Y-90348571D01*
X106465001Y-90348571D01*
X101607857Y-91888571D02*
X101893571Y-91888571D01*
X102036429Y-91960000D01*
X102179286Y-92102857D01*
X102250714Y-92388571D01*
X102250714Y-92888571D01*
X102179286Y-93174286D01*
X102036429Y-93317143D01*
X101893571Y-93388571D01*
X101607857Y-93388571D01*
X101465000Y-93317143D01*
X101322143Y-93174286D01*
X101250714Y-92888571D01*
X101250714Y-92388571D01*
X101322143Y-92102857D01*
X101465000Y-91960000D01*
X101607857Y-91888571D01*
X102893572Y-91888571D02*
X102893572Y-93102857D01*
X102965000Y-93245714D01*
X103036429Y-93317143D01*
X103179286Y-93388571D01*
X103465000Y-93388571D01*
X103607858Y-93317143D01*
X103679286Y-93245714D01*
X103750715Y-93102857D01*
X103750715Y-91888571D01*
X104250715Y-91888571D02*
X105107858Y-91888571D01*
X104679287Y-93388571D02*
X104679287Y-91888571D01*
X105465001Y-91888571D02*
X106393572Y-91888571D01*
X105893572Y-92460000D01*
X106107858Y-92460000D01*
X106250715Y-92531429D01*
X106322144Y-92602857D01*
X106393572Y-92745714D01*
X106393572Y-93102857D01*
X106322144Y-93245714D01*
X106250715Y-93317143D01*
X106107858Y-93388571D01*
X105679286Y-93388571D01*
X105536429Y-93317143D01*
X105465001Y-93245714D01*
X101607857Y-94428571D02*
X101893571Y-94428571D01*
X102036429Y-94500000D01*
X102179286Y-94642857D01*
X102250714Y-94928571D01*
X102250714Y-95428571D01*
X102179286Y-95714286D01*
X102036429Y-95857143D01*
X101893571Y-95928571D01*
X101607857Y-95928571D01*
X101465000Y-95857143D01*
X101322143Y-95714286D01*
X101250714Y-95428571D01*
X101250714Y-94928571D01*
X101322143Y-94642857D01*
X101465000Y-94500000D01*
X101607857Y-94428571D01*
X102893572Y-94428571D02*
X102893572Y-95642857D01*
X102965000Y-95785714D01*
X103036429Y-95857143D01*
X103179286Y-95928571D01*
X103465000Y-95928571D01*
X103607858Y-95857143D01*
X103679286Y-95785714D01*
X103750715Y-95642857D01*
X103750715Y-94428571D01*
X104250715Y-94428571D02*
X105107858Y-94428571D01*
X104679287Y-95928571D02*
X104679287Y-94428571D01*
X105536429Y-94571429D02*
X105607858Y-94500000D01*
X105750715Y-94428571D01*
X106107858Y-94428571D01*
X106250715Y-94500000D01*
X106322144Y-94571429D01*
X106393572Y-94714286D01*
X106393572Y-94857143D01*
X106322144Y-95071429D01*
X105465001Y-95928571D01*
X106393572Y-95928571D01*
X101607857Y-96968571D02*
X101893571Y-96968571D01*
X102036429Y-97040000D01*
X102179286Y-97182857D01*
X102250714Y-97468571D01*
X102250714Y-97968571D01*
X102179286Y-98254286D01*
X102036429Y-98397143D01*
X101893571Y-98468571D01*
X101607857Y-98468571D01*
X101465000Y-98397143D01*
X101322143Y-98254286D01*
X101250714Y-97968571D01*
X101250714Y-97468571D01*
X101322143Y-97182857D01*
X101465000Y-97040000D01*
X101607857Y-96968571D01*
X102893572Y-96968571D02*
X102893572Y-98182857D01*
X102965000Y-98325714D01*
X103036429Y-98397143D01*
X103179286Y-98468571D01*
X103465000Y-98468571D01*
X103607858Y-98397143D01*
X103679286Y-98325714D01*
X103750715Y-98182857D01*
X103750715Y-96968571D01*
X104250715Y-96968571D02*
X105107858Y-96968571D01*
X104679287Y-98468571D02*
X104679287Y-96968571D01*
X106393572Y-98468571D02*
X105536429Y-98468571D01*
X105965001Y-98468571D02*
X105965001Y-96968571D01*
X105822144Y-97182857D01*
X105679286Y-97325714D01*
X105536429Y-97397143D01*
X101250714Y-100937143D02*
X101465000Y-101008571D01*
X101822143Y-101008571D01*
X101965000Y-100937143D01*
X102036429Y-100865714D01*
X102107857Y-100722857D01*
X102107857Y-100580000D01*
X102036429Y-100437143D01*
X101965000Y-100365714D01*
X101822143Y-100294286D01*
X101536429Y-100222857D01*
X101393571Y-100151429D01*
X101322143Y-100080000D01*
X101250714Y-99937143D01*
X101250714Y-99794286D01*
X101322143Y-99651429D01*
X101393571Y-99580000D01*
X101536429Y-99508571D01*
X101893571Y-99508571D01*
X102107857Y-99580000D01*
X102750714Y-100222857D02*
X103250714Y-100222857D01*
X103465000Y-101008571D02*
X102750714Y-101008571D01*
X102750714Y-99508571D01*
X103465000Y-99508571D01*
X104107857Y-101008571D02*
X104107857Y-99508571D01*
X104965000Y-101008571D01*
X104965000Y-99508571D01*
X105607857Y-100937143D02*
X105822143Y-101008571D01*
X106179286Y-101008571D01*
X106322143Y-100937143D01*
X106393572Y-100865714D01*
X106465000Y-100722857D01*
X106465000Y-100580000D01*
X106393572Y-100437143D01*
X106322143Y-100365714D01*
X106179286Y-100294286D01*
X105893572Y-100222857D01*
X105750714Y-100151429D01*
X105679286Y-100080000D01*
X105607857Y-99937143D01*
X105607857Y-99794286D01*
X105679286Y-99651429D01*
X105750714Y-99580000D01*
X105893572Y-99508571D01*
X106250714Y-99508571D01*
X106465000Y-99580000D01*
X101107857Y-102048571D02*
X101607857Y-103548571D01*
X102107857Y-102048571D01*
X103465000Y-103405714D02*
X103393571Y-103477143D01*
X103179285Y-103548571D01*
X103036428Y-103548571D01*
X102822143Y-103477143D01*
X102679285Y-103334286D01*
X102607857Y-103191429D01*
X102536428Y-102905714D01*
X102536428Y-102691429D01*
X102607857Y-102405714D01*
X102679285Y-102262857D01*
X102822143Y-102120000D01*
X103036428Y-102048571D01*
X103179285Y-102048571D01*
X103393571Y-102120000D01*
X103465000Y-102191429D01*
X104965000Y-103405714D02*
X104893571Y-103477143D01*
X104679285Y-103548571D01*
X104536428Y-103548571D01*
X104322143Y-103477143D01*
X104179285Y-103334286D01*
X104107857Y-103191429D01*
X104036428Y-102905714D01*
X104036428Y-102691429D01*
X104107857Y-102405714D01*
X104179285Y-102262857D01*
X104322143Y-102120000D01*
X104536428Y-102048571D01*
X104679285Y-102048571D01*
X104893571Y-102120000D01*
X104965000Y-102191429D01*
X106322143Y-102048571D02*
X105607857Y-102048571D01*
X105536428Y-102762857D01*
X105607857Y-102691429D01*
X105750714Y-102620000D01*
X106107857Y-102620000D01*
X106250714Y-102691429D01*
X106322143Y-102762857D01*
X106393571Y-102905714D01*
X106393571Y-103262857D01*
X106322143Y-103405714D01*
X106250714Y-103477143D01*
X106107857Y-103548571D01*
X105750714Y-103548571D01*
X105607857Y-103477143D01*
X105536428Y-103405714D01*
D12*
X132080000Y-114300000D02*
X132080000Y-106680000D01*
D11*
X165457143Y-118217143D02*
X166600000Y-118217143D01*
X166028571Y-118788571D02*
X166028571Y-117645714D01*
X168028572Y-117288571D02*
X167314286Y-117288571D01*
X167242857Y-118002857D01*
X167314286Y-117931429D01*
X167457143Y-117860000D01*
X167814286Y-117860000D01*
X167957143Y-117931429D01*
X168028572Y-118002857D01*
X168100000Y-118145714D01*
X168100000Y-118502857D01*
X168028572Y-118645714D01*
X167957143Y-118717143D01*
X167814286Y-118788571D01*
X167457143Y-118788571D01*
X167314286Y-118717143D01*
X167242857Y-118645714D01*
X168528571Y-117288571D02*
X169028571Y-118788571D01*
X169528571Y-117288571D01*
X165457143Y-113708571D02*
X165457143Y-112208571D01*
X165814286Y-112208571D01*
X166028571Y-112280000D01*
X166171429Y-112422857D01*
X166242857Y-112565714D01*
X166314286Y-112851429D01*
X166314286Y-113065714D01*
X166242857Y-113351429D01*
X166171429Y-113494286D01*
X166028571Y-113637143D01*
X165814286Y-113708571D01*
X165457143Y-113708571D01*
X167600000Y-113708571D02*
X167600000Y-112922857D01*
X167528571Y-112780000D01*
X167385714Y-112708571D01*
X167100000Y-112708571D01*
X166957143Y-112780000D01*
X167600000Y-113637143D02*
X167457143Y-113708571D01*
X167100000Y-113708571D01*
X166957143Y-113637143D01*
X166885714Y-113494286D01*
X166885714Y-113351429D01*
X166957143Y-113208571D01*
X167100000Y-113137143D01*
X167457143Y-113137143D01*
X167600000Y-113065714D01*
X168100000Y-112708571D02*
X168671429Y-112708571D01*
X168314286Y-112208571D02*
X168314286Y-113494286D01*
X168385714Y-113637143D01*
X168528572Y-113708571D01*
X168671429Y-113708571D01*
X169814286Y-113708571D02*
X169814286Y-112922857D01*
X169742857Y-112780000D01*
X169600000Y-112708571D01*
X169314286Y-112708571D01*
X169171429Y-112780000D01*
X169814286Y-113637143D02*
X169671429Y-113708571D01*
X169314286Y-113708571D01*
X169171429Y-113637143D01*
X169100000Y-113494286D01*
X169100000Y-113351429D01*
X169171429Y-113208571D01*
X169314286Y-113137143D01*
X169671429Y-113137143D01*
X169814286Y-113065714D01*
X166242857Y-107200000D02*
X166100000Y-107128571D01*
X165885714Y-107128571D01*
X165671429Y-107200000D01*
X165528571Y-107342857D01*
X165457143Y-107485714D01*
X165385714Y-107771429D01*
X165385714Y-107985714D01*
X165457143Y-108271429D01*
X165528571Y-108414286D01*
X165671429Y-108557143D01*
X165885714Y-108628571D01*
X166028571Y-108628571D01*
X166242857Y-108557143D01*
X166314286Y-108485714D01*
X166314286Y-107985714D01*
X166028571Y-107985714D01*
X166957143Y-108628571D02*
X166957143Y-107128571D01*
X167814286Y-108628571D01*
X167814286Y-107128571D01*
X168528572Y-108628571D02*
X168528572Y-107128571D01*
X168885715Y-107128571D01*
X169100000Y-107200000D01*
X169242858Y-107342857D01*
X169314286Y-107485714D01*
X169385715Y-107771429D01*
X169385715Y-107985714D01*
X169314286Y-108271429D01*
X169242858Y-108414286D01*
X169100000Y-108557143D01*
X168885715Y-108628571D01*
X168528572Y-108628571D01*
X165457143Y-102278571D02*
X165457143Y-100778571D01*
X166171429Y-101278571D02*
X166171429Y-102278571D01*
X166171429Y-101421429D02*
X166242857Y-101350000D01*
X166385715Y-101278571D01*
X166600000Y-101278571D01*
X166742857Y-101350000D01*
X166814286Y-101492857D01*
X166814286Y-102278571D01*
X168314286Y-102278571D02*
X167457143Y-102278571D01*
X167885715Y-102278571D02*
X167885715Y-100778571D01*
X167742858Y-100992857D01*
X167600000Y-101135714D01*
X167457143Y-101207143D01*
X165457143Y-97198571D02*
X165457143Y-95698571D01*
X166171429Y-96198571D02*
X166171429Y-97198571D01*
X166171429Y-96341429D02*
X166242857Y-96270000D01*
X166385715Y-96198571D01*
X166600000Y-96198571D01*
X166742857Y-96270000D01*
X166814286Y-96412857D01*
X166814286Y-97198571D01*
X167457143Y-95841429D02*
X167528572Y-95770000D01*
X167671429Y-95698571D01*
X168028572Y-95698571D01*
X168171429Y-95770000D01*
X168242858Y-95841429D01*
X168314286Y-95984286D01*
X168314286Y-96127143D01*
X168242858Y-96341429D01*
X167385715Y-97198571D01*
X168314286Y-97198571D01*
X165457143Y-92118571D02*
X165457143Y-90618571D01*
X166171429Y-91118571D02*
X166171429Y-92118571D01*
X166171429Y-91261429D02*
X166242857Y-91190000D01*
X166385715Y-91118571D01*
X166600000Y-91118571D01*
X166742857Y-91190000D01*
X166814286Y-91332857D01*
X166814286Y-92118571D01*
X167385715Y-90618571D02*
X168314286Y-90618571D01*
X167814286Y-91190000D01*
X168028572Y-91190000D01*
X168171429Y-91261429D01*
X168242858Y-91332857D01*
X168314286Y-91475714D01*
X168314286Y-91832857D01*
X168242858Y-91975714D01*
X168171429Y-92047143D01*
X168028572Y-92118571D01*
X167600000Y-92118571D01*
X167457143Y-92047143D01*
X167385715Y-91975714D01*
X165457143Y-87038571D02*
X165457143Y-85538571D01*
X166171429Y-86038571D02*
X166171429Y-87038571D01*
X166171429Y-86181429D02*
X166242857Y-86110000D01*
X166385715Y-86038571D01*
X166600000Y-86038571D01*
X166742857Y-86110000D01*
X166814286Y-86252857D01*
X166814286Y-87038571D01*
X168171429Y-86038571D02*
X168171429Y-87038571D01*
X167814286Y-85467143D02*
X167457143Y-86538571D01*
X168385715Y-86538571D01*
D12*
X158750000Y-120650000D02*
X158750000Y-105410000D01*
X163830000Y-120650000D02*
X158750000Y-120650000D01*
X163830000Y-105410000D02*
X163830000Y-120650000D01*
X158750000Y-105410000D02*
X163830000Y-105410000D01*
X163830000Y-104140000D02*
X163830000Y-78740000D01*
X158750000Y-104140000D02*
X163830000Y-104140000D01*
X158750000Y-78740000D02*
X158750000Y-104140000D01*
X163830000Y-78740000D02*
X158750000Y-78740000D01*
D11*
X166242857Y-80530000D02*
X166100000Y-80458571D01*
X165885714Y-80458571D01*
X165671429Y-80530000D01*
X165528571Y-80672857D01*
X165457143Y-80815714D01*
X165385714Y-81101429D01*
X165385714Y-81315714D01*
X165457143Y-81601429D01*
X165528571Y-81744286D01*
X165671429Y-81887143D01*
X165885714Y-81958571D01*
X166028571Y-81958571D01*
X166242857Y-81887143D01*
X166314286Y-81815714D01*
X166314286Y-81315714D01*
X166028571Y-81315714D01*
X166957143Y-81958571D02*
X166957143Y-80458571D01*
X167814286Y-81958571D01*
X167814286Y-80458571D01*
X168528572Y-81958571D02*
X168528572Y-80458571D01*
X168885715Y-80458571D01*
X169100000Y-80530000D01*
X169242858Y-80672857D01*
X169314286Y-80815714D01*
X169385715Y-81101429D01*
X169385715Y-81315714D01*
X169314286Y-81601429D01*
X169242858Y-81744286D01*
X169100000Y-81887143D01*
X168885715Y-81958571D01*
X168528572Y-81958571D01*
X102107857Y-107200000D02*
X101965000Y-107128571D01*
X101750714Y-107128571D01*
X101536429Y-107200000D01*
X101393571Y-107342857D01*
X101322143Y-107485714D01*
X101250714Y-107771429D01*
X101250714Y-107985714D01*
X101322143Y-108271429D01*
X101393571Y-108414286D01*
X101536429Y-108557143D01*
X101750714Y-108628571D01*
X101893571Y-108628571D01*
X102107857Y-108557143D01*
X102179286Y-108485714D01*
X102179286Y-107985714D01*
X101893571Y-107985714D01*
X102822143Y-108628571D02*
X102822143Y-107128571D01*
X103679286Y-108628571D01*
X103679286Y-107128571D01*
X104393572Y-108628571D02*
X104393572Y-107128571D01*
X104750715Y-107128571D01*
X104965000Y-107200000D01*
X105107858Y-107342857D01*
X105179286Y-107485714D01*
X105250715Y-107771429D01*
X105250715Y-107985714D01*
X105179286Y-108271429D01*
X105107858Y-108414286D01*
X104965000Y-108557143D01*
X104750715Y-108628571D01*
X104393572Y-108628571D01*
X101107857Y-104588571D02*
X101607857Y-106088571D01*
X102107857Y-104588571D01*
X103465000Y-105945714D02*
X103393571Y-106017143D01*
X103179285Y-106088571D01*
X103036428Y-106088571D01*
X102822143Y-106017143D01*
X102679285Y-105874286D01*
X102607857Y-105731429D01*
X102536428Y-105445714D01*
X102536428Y-105231429D01*
X102607857Y-104945714D01*
X102679285Y-104802857D01*
X102822143Y-104660000D01*
X103036428Y-104588571D01*
X103179285Y-104588571D01*
X103393571Y-104660000D01*
X103465000Y-104731429D01*
X104965000Y-105945714D02*
X104893571Y-106017143D01*
X104679285Y-106088571D01*
X104536428Y-106088571D01*
X104322143Y-106017143D01*
X104179285Y-105874286D01*
X104107857Y-105731429D01*
X104036428Y-105445714D01*
X104036428Y-105231429D01*
X104107857Y-104945714D01*
X104179285Y-104802857D01*
X104322143Y-104660000D01*
X104536428Y-104588571D01*
X104679285Y-104588571D01*
X104893571Y-104660000D01*
X104965000Y-104731429D01*
X105465000Y-104588571D02*
X106393571Y-104588571D01*
X105893571Y-105160000D01*
X106107857Y-105160000D01*
X106250714Y-105231429D01*
X106322143Y-105302857D01*
X106393571Y-105445714D01*
X106393571Y-105802857D01*
X106322143Y-105945714D01*
X106250714Y-106017143D01*
X106107857Y-106088571D01*
X105679285Y-106088571D01*
X105536428Y-106017143D01*
X105465000Y-105945714D01*
D10*
X171450000Y-71120000D02*
X100330000Y-71120000D01*
X171450000Y-128270000D02*
X171450000Y-71120000D01*
X100330000Y-128270000D02*
X171450000Y-128270000D01*
X100330000Y-71120000D02*
X100330000Y-128270000D01*
X128270000Y-110490000D02*
X128270000Y-107696000D01*
X128270000Y-107696000D02*
X118872000Y-107696000D01*
X118872000Y-107696000D02*
X118872000Y-110490000D01*
X118872000Y-110490000D02*
X118110000Y-110490000D01*
X118110000Y-123190000D02*
X125730000Y-123190000D01*
X125730000Y-123190000D02*
X125476000Y-123190000D01*
X128270000Y-123190000D02*
X125730000Y-123190000D01*
X128270000Y-110490000D02*
X128270000Y-123190000D01*
X118110000Y-123190000D02*
X115570000Y-123190000D01*
X115570000Y-123190000D02*
X115570000Y-110490000D01*
X118390000Y-107670000D02*
X118390000Y-109220000D01*
X118110000Y-110490000D02*
X115570000Y-110490000D01*
X115290000Y-109220000D02*
X115290000Y-107670000D01*
X115290000Y-107670000D02*
X118390000Y-107670000D01*
X135890000Y-86360000D02*
X135890000Y-85344000D01*
X135890000Y-85344000D02*
X134874000Y-85344000D01*
X134874000Y-85344000D02*
X134874000Y-77216000D01*
X134874000Y-77216000D02*
X136906000Y-77216000D01*
X136906000Y-77216000D02*
X136906000Y-85344000D01*
X136906000Y-85344000D02*
X135890000Y-85344000D01*
X135382000Y-85344000D02*
X134874000Y-84836000D01*
X135890000Y-76200000D02*
X135890000Y-77216000D01*
X144780000Y-111760000D02*
X145796000Y-111760000D01*
X145796000Y-111760000D02*
X145796000Y-110744000D01*
X145796000Y-110744000D02*
X153924000Y-110744000D01*
X153924000Y-110744000D02*
X153924000Y-112776000D01*
X153924000Y-112776000D02*
X145796000Y-112776000D01*
X145796000Y-112776000D02*
X145796000Y-111760000D01*
X145796000Y-111252000D02*
X146304000Y-110744000D01*
X154940000Y-111760000D02*
X153924000Y-111760000D01*
X135890000Y-106680000D02*
X135890000Y-105664000D01*
X135890000Y-105664000D02*
X134874000Y-105664000D01*
X134874000Y-105664000D02*
X134874000Y-97536000D01*
X134874000Y-97536000D02*
X136906000Y-97536000D01*
X136906000Y-97536000D02*
X136906000Y-105664000D01*
X136906000Y-105664000D02*
X135890000Y-105664000D01*
X135382000Y-105664000D02*
X134874000Y-105156000D01*
X135890000Y-96520000D02*
X135890000Y-97536000D01*
X139700000Y-88900000D02*
X139700000Y-87884000D01*
X139700000Y-87884000D02*
X138684000Y-87884000D01*
X138684000Y-87884000D02*
X138684000Y-79756000D01*
X138684000Y-79756000D02*
X140716000Y-79756000D01*
X140716000Y-79756000D02*
X140716000Y-87884000D01*
X140716000Y-87884000D02*
X139700000Y-87884000D01*
X139192000Y-87884000D02*
X138684000Y-87376000D01*
X139700000Y-78740000D02*
X139700000Y-79756000D01*
X144780000Y-88900000D02*
X145796000Y-88900000D01*
X145796000Y-88900000D02*
X145796000Y-87884000D01*
X145796000Y-87884000D02*
X153924000Y-87884000D01*
X153924000Y-87884000D02*
X153924000Y-89916000D01*
X153924000Y-89916000D02*
X145796000Y-89916000D01*
X145796000Y-89916000D02*
X145796000Y-88900000D01*
X145796000Y-88392000D02*
X146304000Y-87884000D01*
X154940000Y-88900000D02*
X153924000Y-88900000D01*
X128270000Y-87630000D02*
X128270000Y-84836000D01*
X128270000Y-84836000D02*
X118872000Y-84836000D01*
X118872000Y-84836000D02*
X118872000Y-87630000D01*
X118872000Y-87630000D02*
X118110000Y-87630000D01*
X118110000Y-100330000D02*
X125730000Y-100330000D01*
X125730000Y-100330000D02*
X125476000Y-100330000D01*
X128270000Y-100330000D02*
X125730000Y-100330000D01*
X128270000Y-87630000D02*
X128270000Y-100330000D01*
X118110000Y-100330000D02*
X115570000Y-100330000D01*
X115570000Y-100330000D02*
X115570000Y-87630000D01*
X118390000Y-84810000D02*
X118390000Y-86360000D01*
X118110000Y-87630000D02*
X115570000Y-87630000D01*
X115290000Y-86360000D02*
X115290000Y-84810000D01*
X115290000Y-84810000D02*
X118390000Y-84810000D01*
X107950000Y-91440000D02*
X107950000Y-109220000D01*
X107950000Y-109220000D02*
X110490000Y-109220000D01*
X110490000Y-109220000D02*
X110490000Y-91440000D01*
X107670000Y-88620000D02*
X107670000Y-90170000D01*
X107950000Y-91440000D02*
X110490000Y-91440000D01*
X110770000Y-90170000D02*
X110770000Y-88620000D01*
X110770000Y-88620000D02*
X107670000Y-88620000D01*
X144780000Y-81280000D02*
X145796000Y-81280000D01*
X145796000Y-81280000D02*
X145796000Y-80264000D01*
X145796000Y-80264000D02*
X153924000Y-80264000D01*
X153924000Y-80264000D02*
X153924000Y-82296000D01*
X153924000Y-82296000D02*
X145796000Y-82296000D01*
X145796000Y-82296000D02*
X145796000Y-81280000D01*
X145796000Y-80772000D02*
X146304000Y-80264000D01*
X154940000Y-81280000D02*
X153924000Y-81280000D01*
X144780000Y-96520000D02*
X145796000Y-96520000D01*
X145796000Y-96520000D02*
X145796000Y-95504000D01*
X145796000Y-95504000D02*
X153924000Y-95504000D01*
X153924000Y-95504000D02*
X153924000Y-97536000D01*
X153924000Y-97536000D02*
X145796000Y-97536000D01*
X145796000Y-97536000D02*
X145796000Y-96520000D01*
X145796000Y-96012000D02*
X146304000Y-95504000D01*
X154940000Y-96520000D02*
X153924000Y-96520000D01*
X144780000Y-104140000D02*
X145796000Y-104140000D01*
X145796000Y-104140000D02*
X145796000Y-103124000D01*
X145796000Y-103124000D02*
X153924000Y-103124000D01*
X153924000Y-103124000D02*
X153924000Y-105156000D01*
X153924000Y-105156000D02*
X145796000Y-105156000D01*
X145796000Y-105156000D02*
X145796000Y-104140000D01*
X145796000Y-103632000D02*
X146304000Y-103124000D01*
X154940000Y-104140000D02*
X153924000Y-104140000D01*
X139700000Y-109220000D02*
X139700000Y-108204000D01*
X139700000Y-108204000D02*
X138684000Y-108204000D01*
X138684000Y-108204000D02*
X138684000Y-100076000D01*
X138684000Y-100076000D02*
X140716000Y-100076000D01*
X140716000Y-100076000D02*
X140716000Y-108204000D01*
X140716000Y-108204000D02*
X139700000Y-108204000D01*
X139192000Y-108204000D02*
X138684000Y-107696000D01*
X139700000Y-99060000D02*
X139700000Y-100076000D01*
X153670000Y-86360000D02*
X146050000Y-86360000D01*
X146050000Y-86360000D02*
X146050000Y-83820000D01*
X146050000Y-83820000D02*
X153670000Y-83820000D01*
X153670000Y-83820000D02*
X153670000Y-86360000D01*
X146685000Y-86360000D02*
X146685000Y-83820000D01*
X147320000Y-83820000D02*
X147320000Y-86360000D01*
X153670000Y-85090000D02*
X154940000Y-85090000D01*
X146050000Y-85090000D02*
X144780000Y-85090000D01*
X153670000Y-93980000D02*
X146050000Y-93980000D01*
X146050000Y-93980000D02*
X146050000Y-91440000D01*
X146050000Y-91440000D02*
X153670000Y-91440000D01*
X153670000Y-91440000D02*
X153670000Y-93980000D01*
X146685000Y-93980000D02*
X146685000Y-91440000D01*
X147320000Y-91440000D02*
X147320000Y-93980000D01*
X153670000Y-92710000D02*
X154940000Y-92710000D01*
X146050000Y-92710000D02*
X144780000Y-92710000D01*
X153670000Y-101600000D02*
X146050000Y-101600000D01*
X146050000Y-101600000D02*
X146050000Y-99060000D01*
X146050000Y-99060000D02*
X153670000Y-99060000D01*
X153670000Y-99060000D02*
X153670000Y-101600000D01*
X146685000Y-101600000D02*
X146685000Y-99060000D01*
X147320000Y-99060000D02*
X147320000Y-101600000D01*
X153670000Y-100330000D02*
X154940000Y-100330000D01*
X146050000Y-100330000D02*
X144780000Y-100330000D01*
X153670000Y-109220000D02*
X146050000Y-109220000D01*
X146050000Y-109220000D02*
X146050000Y-106680000D01*
X146050000Y-106680000D02*
X153670000Y-106680000D01*
X153670000Y-106680000D02*
X153670000Y-109220000D01*
X146685000Y-109220000D02*
X146685000Y-106680000D01*
X147320000Y-106680000D02*
X147320000Y-109220000D01*
X153670000Y-107950000D02*
X154940000Y-107950000D01*
X146050000Y-107950000D02*
X144780000Y-107950000D01*
X120205714Y-104862381D02*
X120205714Y-105671905D01*
X120253333Y-105767143D01*
X120300952Y-105814762D01*
X120396190Y-105862381D01*
X120586667Y-105862381D01*
X120681905Y-105814762D01*
X120729524Y-105767143D01*
X120777143Y-105671905D01*
X120777143Y-104862381D01*
X121729524Y-104862381D02*
X121253333Y-104862381D01*
X121205714Y-105338571D01*
X121253333Y-105290952D01*
X121348571Y-105243333D01*
X121586667Y-105243333D01*
X121681905Y-105290952D01*
X121729524Y-105338571D01*
X121777143Y-105433810D01*
X121777143Y-105671905D01*
X121729524Y-105767143D01*
X121681905Y-105814762D01*
X121586667Y-105862381D01*
X121348571Y-105862381D01*
X121253333Y-105814762D01*
X121205714Y-105767143D01*
X122396190Y-104862381D02*
X122491429Y-104862381D01*
X122586667Y-104910000D01*
X122634286Y-104957619D01*
X122681905Y-105052857D01*
X122729524Y-105243333D01*
X122729524Y-105481429D01*
X122681905Y-105671905D01*
X122634286Y-105767143D01*
X122586667Y-105814762D01*
X122491429Y-105862381D01*
X122396190Y-105862381D01*
X122300952Y-105814762D01*
X122253333Y-105767143D01*
X122205714Y-105671905D01*
X122158095Y-105481429D01*
X122158095Y-105243333D01*
X122205714Y-105052857D01*
X122253333Y-104957619D01*
X122300952Y-104910000D01*
X122396190Y-104862381D01*
X123110476Y-104957619D02*
X123158095Y-104910000D01*
X123253333Y-104862381D01*
X123491429Y-104862381D01*
X123586667Y-104910000D01*
X123634286Y-104957619D01*
X123681905Y-105052857D01*
X123681905Y-105148095D01*
X123634286Y-105290952D01*
X123062857Y-105862381D01*
X123681905Y-105862381D01*
X136342381Y-82399047D02*
X135866190Y-82732381D01*
X136342381Y-82970476D02*
X135342381Y-82970476D01*
X135342381Y-82589523D01*
X135390000Y-82494285D01*
X135437619Y-82446666D01*
X135532857Y-82399047D01*
X135675714Y-82399047D01*
X135770952Y-82446666D01*
X135818571Y-82494285D01*
X135866190Y-82589523D01*
X135866190Y-82970476D01*
X135342381Y-81494285D02*
X135342381Y-81970476D01*
X135818571Y-82018095D01*
X135770952Y-81970476D01*
X135723333Y-81875238D01*
X135723333Y-81637142D01*
X135770952Y-81541904D01*
X135818571Y-81494285D01*
X135913810Y-81446666D01*
X136151905Y-81446666D01*
X136247143Y-81494285D01*
X136294762Y-81541904D01*
X136342381Y-81637142D01*
X136342381Y-81875238D01*
X136294762Y-81970476D01*
X136247143Y-82018095D01*
X135342381Y-80827619D02*
X135342381Y-80732380D01*
X135390000Y-80637142D01*
X135437619Y-80589523D01*
X135532857Y-80541904D01*
X135723333Y-80494285D01*
X135961429Y-80494285D01*
X136151905Y-80541904D01*
X136247143Y-80589523D01*
X136294762Y-80637142D01*
X136342381Y-80732380D01*
X136342381Y-80827619D01*
X136294762Y-80922857D01*
X136247143Y-80970476D01*
X136151905Y-81018095D01*
X135961429Y-81065714D01*
X135723333Y-81065714D01*
X135532857Y-81018095D01*
X135437619Y-80970476D01*
X135390000Y-80922857D01*
X135342381Y-80827619D01*
X135770952Y-79922857D02*
X135723333Y-80018095D01*
X135675714Y-80065714D01*
X135580476Y-80113333D01*
X135532857Y-80113333D01*
X135437619Y-80065714D01*
X135390000Y-80018095D01*
X135342381Y-79922857D01*
X135342381Y-79732380D01*
X135390000Y-79637142D01*
X135437619Y-79589523D01*
X135532857Y-79541904D01*
X135580476Y-79541904D01*
X135675714Y-79589523D01*
X135723333Y-79637142D01*
X135770952Y-79732380D01*
X135770952Y-79922857D01*
X135818571Y-80018095D01*
X135866190Y-80065714D01*
X135961429Y-80113333D01*
X136151905Y-80113333D01*
X136247143Y-80065714D01*
X136294762Y-80018095D01*
X136342381Y-79922857D01*
X136342381Y-79732380D01*
X136294762Y-79637142D01*
X136247143Y-79589523D01*
X136151905Y-79541904D01*
X135961429Y-79541904D01*
X135866190Y-79589523D01*
X135818571Y-79637142D01*
X135770952Y-79732380D01*
X148740953Y-112212381D02*
X148407619Y-111736190D01*
X148169524Y-112212381D02*
X148169524Y-111212381D01*
X148550477Y-111212381D01*
X148645715Y-111260000D01*
X148693334Y-111307619D01*
X148740953Y-111402857D01*
X148740953Y-111545714D01*
X148693334Y-111640952D01*
X148645715Y-111688571D01*
X148550477Y-111736190D01*
X148169524Y-111736190D01*
X149645715Y-111212381D02*
X149169524Y-111212381D01*
X149121905Y-111688571D01*
X149169524Y-111640952D01*
X149264762Y-111593333D01*
X149502858Y-111593333D01*
X149598096Y-111640952D01*
X149645715Y-111688571D01*
X149693334Y-111783810D01*
X149693334Y-112021905D01*
X149645715Y-112117143D01*
X149598096Y-112164762D01*
X149502858Y-112212381D01*
X149264762Y-112212381D01*
X149169524Y-112164762D01*
X149121905Y-112117143D01*
X150312381Y-111212381D02*
X150407620Y-111212381D01*
X150502858Y-111260000D01*
X150550477Y-111307619D01*
X150598096Y-111402857D01*
X150645715Y-111593333D01*
X150645715Y-111831429D01*
X150598096Y-112021905D01*
X150550477Y-112117143D01*
X150502858Y-112164762D01*
X150407620Y-112212381D01*
X150312381Y-112212381D01*
X150217143Y-112164762D01*
X150169524Y-112117143D01*
X150121905Y-112021905D01*
X150074286Y-111831429D01*
X150074286Y-111593333D01*
X150121905Y-111402857D01*
X150169524Y-111307619D01*
X150217143Y-111260000D01*
X150312381Y-111212381D01*
X151121905Y-112212381D02*
X151312381Y-112212381D01*
X151407620Y-112164762D01*
X151455239Y-112117143D01*
X151550477Y-111974286D01*
X151598096Y-111783810D01*
X151598096Y-111402857D01*
X151550477Y-111307619D01*
X151502858Y-111260000D01*
X151407620Y-111212381D01*
X151217143Y-111212381D01*
X151121905Y-111260000D01*
X151074286Y-111307619D01*
X151026667Y-111402857D01*
X151026667Y-111640952D01*
X151074286Y-111736190D01*
X151121905Y-111783810D01*
X151217143Y-111831429D01*
X151407620Y-111831429D01*
X151502858Y-111783810D01*
X151550477Y-111736190D01*
X151598096Y-111640952D01*
X136342381Y-102719047D02*
X135866190Y-103052381D01*
X136342381Y-103290476D02*
X135342381Y-103290476D01*
X135342381Y-102909523D01*
X135390000Y-102814285D01*
X135437619Y-102766666D01*
X135532857Y-102719047D01*
X135675714Y-102719047D01*
X135770952Y-102766666D01*
X135818571Y-102814285D01*
X135866190Y-102909523D01*
X135866190Y-103290476D01*
X135342381Y-101814285D02*
X135342381Y-102290476D01*
X135818571Y-102338095D01*
X135770952Y-102290476D01*
X135723333Y-102195238D01*
X135723333Y-101957142D01*
X135770952Y-101861904D01*
X135818571Y-101814285D01*
X135913810Y-101766666D01*
X136151905Y-101766666D01*
X136247143Y-101814285D01*
X136294762Y-101861904D01*
X136342381Y-101957142D01*
X136342381Y-102195238D01*
X136294762Y-102290476D01*
X136247143Y-102338095D01*
X135342381Y-101147619D02*
X135342381Y-101052380D01*
X135390000Y-100957142D01*
X135437619Y-100909523D01*
X135532857Y-100861904D01*
X135723333Y-100814285D01*
X135961429Y-100814285D01*
X136151905Y-100861904D01*
X136247143Y-100909523D01*
X136294762Y-100957142D01*
X136342381Y-101052380D01*
X136342381Y-101147619D01*
X136294762Y-101242857D01*
X136247143Y-101290476D01*
X136151905Y-101338095D01*
X135961429Y-101385714D01*
X135723333Y-101385714D01*
X135532857Y-101338095D01*
X135437619Y-101290476D01*
X135390000Y-101242857D01*
X135342381Y-101147619D01*
X135342381Y-99957142D02*
X135342381Y-100147619D01*
X135390000Y-100242857D01*
X135437619Y-100290476D01*
X135580476Y-100385714D01*
X135770952Y-100433333D01*
X136151905Y-100433333D01*
X136247143Y-100385714D01*
X136294762Y-100338095D01*
X136342381Y-100242857D01*
X136342381Y-100052380D01*
X136294762Y-99957142D01*
X136247143Y-99909523D01*
X136151905Y-99861904D01*
X135913810Y-99861904D01*
X135818571Y-99909523D01*
X135770952Y-99957142D01*
X135723333Y-100052380D01*
X135723333Y-100242857D01*
X135770952Y-100338095D01*
X135818571Y-100385714D01*
X135913810Y-100433333D01*
X140152381Y-84939047D02*
X139676190Y-85272381D01*
X140152381Y-85510476D02*
X139152381Y-85510476D01*
X139152381Y-85129523D01*
X139200000Y-85034285D01*
X139247619Y-84986666D01*
X139342857Y-84939047D01*
X139485714Y-84939047D01*
X139580952Y-84986666D01*
X139628571Y-85034285D01*
X139676190Y-85129523D01*
X139676190Y-85510476D01*
X139152381Y-84034285D02*
X139152381Y-84510476D01*
X139628571Y-84558095D01*
X139580952Y-84510476D01*
X139533333Y-84415238D01*
X139533333Y-84177142D01*
X139580952Y-84081904D01*
X139628571Y-84034285D01*
X139723810Y-83986666D01*
X139961905Y-83986666D01*
X140057143Y-84034285D01*
X140104762Y-84081904D01*
X140152381Y-84177142D01*
X140152381Y-84415238D01*
X140104762Y-84510476D01*
X140057143Y-84558095D01*
X139152381Y-83367619D02*
X139152381Y-83272380D01*
X139200000Y-83177142D01*
X139247619Y-83129523D01*
X139342857Y-83081904D01*
X139533333Y-83034285D01*
X139771429Y-83034285D01*
X139961905Y-83081904D01*
X140057143Y-83129523D01*
X140104762Y-83177142D01*
X140152381Y-83272380D01*
X140152381Y-83367619D01*
X140104762Y-83462857D01*
X140057143Y-83510476D01*
X139961905Y-83558095D01*
X139771429Y-83605714D01*
X139533333Y-83605714D01*
X139342857Y-83558095D01*
X139247619Y-83510476D01*
X139200000Y-83462857D01*
X139152381Y-83367619D01*
X139152381Y-82700952D02*
X139152381Y-82034285D01*
X140152381Y-82462857D01*
X148740953Y-89352381D02*
X148407619Y-88876190D01*
X148169524Y-89352381D02*
X148169524Y-88352381D01*
X148550477Y-88352381D01*
X148645715Y-88400000D01*
X148693334Y-88447619D01*
X148740953Y-88542857D01*
X148740953Y-88685714D01*
X148693334Y-88780952D01*
X148645715Y-88828571D01*
X148550477Y-88876190D01*
X148169524Y-88876190D01*
X149645715Y-88352381D02*
X149169524Y-88352381D01*
X149121905Y-88828571D01*
X149169524Y-88780952D01*
X149264762Y-88733333D01*
X149502858Y-88733333D01*
X149598096Y-88780952D01*
X149645715Y-88828571D01*
X149693334Y-88923810D01*
X149693334Y-89161905D01*
X149645715Y-89257143D01*
X149598096Y-89304762D01*
X149502858Y-89352381D01*
X149264762Y-89352381D01*
X149169524Y-89304762D01*
X149121905Y-89257143D01*
X150312381Y-88352381D02*
X150407620Y-88352381D01*
X150502858Y-88400000D01*
X150550477Y-88447619D01*
X150598096Y-88542857D01*
X150645715Y-88733333D01*
X150645715Y-88971429D01*
X150598096Y-89161905D01*
X150550477Y-89257143D01*
X150502858Y-89304762D01*
X150407620Y-89352381D01*
X150312381Y-89352381D01*
X150217143Y-89304762D01*
X150169524Y-89257143D01*
X150121905Y-89161905D01*
X150074286Y-88971429D01*
X150074286Y-88733333D01*
X150121905Y-88542857D01*
X150169524Y-88447619D01*
X150217143Y-88400000D01*
X150312381Y-88352381D01*
X150979048Y-88352381D02*
X151598096Y-88352381D01*
X151264762Y-88733333D01*
X151407620Y-88733333D01*
X151502858Y-88780952D01*
X151550477Y-88828571D01*
X151598096Y-88923810D01*
X151598096Y-89161905D01*
X151550477Y-89257143D01*
X151502858Y-89304762D01*
X151407620Y-89352381D01*
X151121905Y-89352381D01*
X151026667Y-89304762D01*
X150979048Y-89257143D01*
X158734286Y-75652381D02*
X158734286Y-76366667D01*
X158686666Y-76509524D01*
X158591428Y-76604762D01*
X158448571Y-76652381D01*
X158353333Y-76652381D01*
X159686667Y-75652381D02*
X159210476Y-75652381D01*
X159162857Y-76128571D01*
X159210476Y-76080952D01*
X159305714Y-76033333D01*
X159543810Y-76033333D01*
X159639048Y-76080952D01*
X159686667Y-76128571D01*
X159734286Y-76223810D01*
X159734286Y-76461905D01*
X159686667Y-76557143D01*
X159639048Y-76604762D01*
X159543810Y-76652381D01*
X159305714Y-76652381D01*
X159210476Y-76604762D01*
X159162857Y-76557143D01*
X160353333Y-75652381D02*
X160448572Y-75652381D01*
X160543810Y-75700000D01*
X160591429Y-75747619D01*
X160639048Y-75842857D01*
X160686667Y-76033333D01*
X160686667Y-76271429D01*
X160639048Y-76461905D01*
X160591429Y-76557143D01*
X160543810Y-76604762D01*
X160448572Y-76652381D01*
X160353333Y-76652381D01*
X160258095Y-76604762D01*
X160210476Y-76557143D01*
X160162857Y-76461905D01*
X160115238Y-76271429D01*
X160115238Y-76033333D01*
X160162857Y-75842857D01*
X160210476Y-75747619D01*
X160258095Y-75700000D01*
X160353333Y-75652381D01*
X161639048Y-76652381D02*
X161067619Y-76652381D01*
X161353333Y-76652381D02*
X161353333Y-75652381D01*
X161258095Y-75795238D01*
X161162857Y-75890476D01*
X161067619Y-75938095D01*
X158734286Y-122642381D02*
X158734286Y-123356667D01*
X158686666Y-123499524D01*
X158591428Y-123594762D01*
X158448571Y-123642381D01*
X158353333Y-123642381D01*
X159686667Y-122642381D02*
X159210476Y-122642381D01*
X159162857Y-123118571D01*
X159210476Y-123070952D01*
X159305714Y-123023333D01*
X159543810Y-123023333D01*
X159639048Y-123070952D01*
X159686667Y-123118571D01*
X159734286Y-123213810D01*
X159734286Y-123451905D01*
X159686667Y-123547143D01*
X159639048Y-123594762D01*
X159543810Y-123642381D01*
X159305714Y-123642381D01*
X159210476Y-123594762D01*
X159162857Y-123547143D01*
X160353333Y-122642381D02*
X160448572Y-122642381D01*
X160543810Y-122690000D01*
X160591429Y-122737619D01*
X160639048Y-122832857D01*
X160686667Y-123023333D01*
X160686667Y-123261429D01*
X160639048Y-123451905D01*
X160591429Y-123547143D01*
X160543810Y-123594762D01*
X160448572Y-123642381D01*
X160353333Y-123642381D01*
X160258095Y-123594762D01*
X160210476Y-123547143D01*
X160162857Y-123451905D01*
X160115238Y-123261429D01*
X160115238Y-123023333D01*
X160162857Y-122832857D01*
X160210476Y-122737619D01*
X160258095Y-122690000D01*
X160353333Y-122642381D01*
X161067619Y-122737619D02*
X161115238Y-122690000D01*
X161210476Y-122642381D01*
X161448572Y-122642381D01*
X161543810Y-122690000D01*
X161591429Y-122737619D01*
X161639048Y-122832857D01*
X161639048Y-122928095D01*
X161591429Y-123070952D01*
X161020000Y-123642381D01*
X161639048Y-123642381D01*
X120205714Y-82002381D02*
X120205714Y-82811905D01*
X120253333Y-82907143D01*
X120300952Y-82954762D01*
X120396190Y-83002381D01*
X120586667Y-83002381D01*
X120681905Y-82954762D01*
X120729524Y-82907143D01*
X120777143Y-82811905D01*
X120777143Y-82002381D01*
X121729524Y-82002381D02*
X121253333Y-82002381D01*
X121205714Y-82478571D01*
X121253333Y-82430952D01*
X121348571Y-82383333D01*
X121586667Y-82383333D01*
X121681905Y-82430952D01*
X121729524Y-82478571D01*
X121777143Y-82573810D01*
X121777143Y-82811905D01*
X121729524Y-82907143D01*
X121681905Y-82954762D01*
X121586667Y-83002381D01*
X121348571Y-83002381D01*
X121253333Y-82954762D01*
X121205714Y-82907143D01*
X122396190Y-82002381D02*
X122491429Y-82002381D01*
X122586667Y-82050000D01*
X122634286Y-82097619D01*
X122681905Y-82192857D01*
X122729524Y-82383333D01*
X122729524Y-82621429D01*
X122681905Y-82811905D01*
X122634286Y-82907143D01*
X122586667Y-82954762D01*
X122491429Y-83002381D01*
X122396190Y-83002381D01*
X122300952Y-82954762D01*
X122253333Y-82907143D01*
X122205714Y-82811905D01*
X122158095Y-82621429D01*
X122158095Y-82383333D01*
X122205714Y-82192857D01*
X122253333Y-82097619D01*
X122300952Y-82050000D01*
X122396190Y-82002381D01*
X123681905Y-83002381D02*
X123110476Y-83002381D01*
X123396190Y-83002381D02*
X123396190Y-82002381D01*
X123300952Y-82145238D01*
X123205714Y-82240476D01*
X123110476Y-82288095D01*
X148740953Y-81732381D02*
X148407619Y-81256190D01*
X148169524Y-81732381D02*
X148169524Y-80732381D01*
X148550477Y-80732381D01*
X148645715Y-80780000D01*
X148693334Y-80827619D01*
X148740953Y-80922857D01*
X148740953Y-81065714D01*
X148693334Y-81160952D01*
X148645715Y-81208571D01*
X148550477Y-81256190D01*
X148169524Y-81256190D01*
X149645715Y-80732381D02*
X149169524Y-80732381D01*
X149121905Y-81208571D01*
X149169524Y-81160952D01*
X149264762Y-81113333D01*
X149502858Y-81113333D01*
X149598096Y-81160952D01*
X149645715Y-81208571D01*
X149693334Y-81303810D01*
X149693334Y-81541905D01*
X149645715Y-81637143D01*
X149598096Y-81684762D01*
X149502858Y-81732381D01*
X149264762Y-81732381D01*
X149169524Y-81684762D01*
X149121905Y-81637143D01*
X150312381Y-80732381D02*
X150407620Y-80732381D01*
X150502858Y-80780000D01*
X150550477Y-80827619D01*
X150598096Y-80922857D01*
X150645715Y-81113333D01*
X150645715Y-81351429D01*
X150598096Y-81541905D01*
X150550477Y-81637143D01*
X150502858Y-81684762D01*
X150407620Y-81732381D01*
X150312381Y-81732381D01*
X150217143Y-81684762D01*
X150169524Y-81637143D01*
X150121905Y-81541905D01*
X150074286Y-81351429D01*
X150074286Y-81113333D01*
X150121905Y-80922857D01*
X150169524Y-80827619D01*
X150217143Y-80780000D01*
X150312381Y-80732381D01*
X151502858Y-81065714D02*
X151502858Y-81732381D01*
X151264762Y-80684762D02*
X151026667Y-81399048D01*
X151645715Y-81399048D01*
X148740953Y-96972381D02*
X148407619Y-96496190D01*
X148169524Y-96972381D02*
X148169524Y-95972381D01*
X148550477Y-95972381D01*
X148645715Y-96020000D01*
X148693334Y-96067619D01*
X148740953Y-96162857D01*
X148740953Y-96305714D01*
X148693334Y-96400952D01*
X148645715Y-96448571D01*
X148550477Y-96496190D01*
X148169524Y-96496190D01*
X149645715Y-95972381D02*
X149169524Y-95972381D01*
X149121905Y-96448571D01*
X149169524Y-96400952D01*
X149264762Y-96353333D01*
X149502858Y-96353333D01*
X149598096Y-96400952D01*
X149645715Y-96448571D01*
X149693334Y-96543810D01*
X149693334Y-96781905D01*
X149645715Y-96877143D01*
X149598096Y-96924762D01*
X149502858Y-96972381D01*
X149264762Y-96972381D01*
X149169524Y-96924762D01*
X149121905Y-96877143D01*
X150312381Y-95972381D02*
X150407620Y-95972381D01*
X150502858Y-96020000D01*
X150550477Y-96067619D01*
X150598096Y-96162857D01*
X150645715Y-96353333D01*
X150645715Y-96591429D01*
X150598096Y-96781905D01*
X150550477Y-96877143D01*
X150502858Y-96924762D01*
X150407620Y-96972381D01*
X150312381Y-96972381D01*
X150217143Y-96924762D01*
X150169524Y-96877143D01*
X150121905Y-96781905D01*
X150074286Y-96591429D01*
X150074286Y-96353333D01*
X150121905Y-96162857D01*
X150169524Y-96067619D01*
X150217143Y-96020000D01*
X150312381Y-95972381D01*
X151026667Y-96067619D02*
X151074286Y-96020000D01*
X151169524Y-95972381D01*
X151407620Y-95972381D01*
X151502858Y-96020000D01*
X151550477Y-96067619D01*
X151598096Y-96162857D01*
X151598096Y-96258095D01*
X151550477Y-96400952D01*
X150979048Y-96972381D01*
X151598096Y-96972381D01*
X148740953Y-104592381D02*
X148407619Y-104116190D01*
X148169524Y-104592381D02*
X148169524Y-103592381D01*
X148550477Y-103592381D01*
X148645715Y-103640000D01*
X148693334Y-103687619D01*
X148740953Y-103782857D01*
X148740953Y-103925714D01*
X148693334Y-104020952D01*
X148645715Y-104068571D01*
X148550477Y-104116190D01*
X148169524Y-104116190D01*
X149645715Y-103592381D02*
X149169524Y-103592381D01*
X149121905Y-104068571D01*
X149169524Y-104020952D01*
X149264762Y-103973333D01*
X149502858Y-103973333D01*
X149598096Y-104020952D01*
X149645715Y-104068571D01*
X149693334Y-104163810D01*
X149693334Y-104401905D01*
X149645715Y-104497143D01*
X149598096Y-104544762D01*
X149502858Y-104592381D01*
X149264762Y-104592381D01*
X149169524Y-104544762D01*
X149121905Y-104497143D01*
X150312381Y-103592381D02*
X150407620Y-103592381D01*
X150502858Y-103640000D01*
X150550477Y-103687619D01*
X150598096Y-103782857D01*
X150645715Y-103973333D01*
X150645715Y-104211429D01*
X150598096Y-104401905D01*
X150550477Y-104497143D01*
X150502858Y-104544762D01*
X150407620Y-104592381D01*
X150312381Y-104592381D01*
X150217143Y-104544762D01*
X150169524Y-104497143D01*
X150121905Y-104401905D01*
X150074286Y-104211429D01*
X150074286Y-103973333D01*
X150121905Y-103782857D01*
X150169524Y-103687619D01*
X150217143Y-103640000D01*
X150312381Y-103592381D01*
X151598096Y-104592381D02*
X151026667Y-104592381D01*
X151312381Y-104592381D02*
X151312381Y-103592381D01*
X151217143Y-103735238D01*
X151121905Y-103830476D01*
X151026667Y-103878095D01*
X140152381Y-105259047D02*
X139676190Y-105592381D01*
X140152381Y-105830476D02*
X139152381Y-105830476D01*
X139152381Y-105449523D01*
X139200000Y-105354285D01*
X139247619Y-105306666D01*
X139342857Y-105259047D01*
X139485714Y-105259047D01*
X139580952Y-105306666D01*
X139628571Y-105354285D01*
X139676190Y-105449523D01*
X139676190Y-105830476D01*
X139152381Y-104354285D02*
X139152381Y-104830476D01*
X139628571Y-104878095D01*
X139580952Y-104830476D01*
X139533333Y-104735238D01*
X139533333Y-104497142D01*
X139580952Y-104401904D01*
X139628571Y-104354285D01*
X139723810Y-104306666D01*
X139961905Y-104306666D01*
X140057143Y-104354285D01*
X140104762Y-104401904D01*
X140152381Y-104497142D01*
X140152381Y-104735238D01*
X140104762Y-104830476D01*
X140057143Y-104878095D01*
X139152381Y-103687619D02*
X139152381Y-103592380D01*
X139200000Y-103497142D01*
X139247619Y-103449523D01*
X139342857Y-103401904D01*
X139533333Y-103354285D01*
X139771429Y-103354285D01*
X139961905Y-103401904D01*
X140057143Y-103449523D01*
X140104762Y-103497142D01*
X140152381Y-103592380D01*
X140152381Y-103687619D01*
X140104762Y-103782857D01*
X140057143Y-103830476D01*
X139961905Y-103878095D01*
X139771429Y-103925714D01*
X139533333Y-103925714D01*
X139342857Y-103878095D01*
X139247619Y-103830476D01*
X139200000Y-103782857D01*
X139152381Y-103687619D01*
X139152381Y-102449523D02*
X139152381Y-102925714D01*
X139628571Y-102973333D01*
X139580952Y-102925714D01*
X139533333Y-102830476D01*
X139533333Y-102592380D01*
X139580952Y-102497142D01*
X139628571Y-102449523D01*
X139723810Y-102401904D01*
X139961905Y-102401904D01*
X140057143Y-102449523D01*
X140104762Y-102497142D01*
X140152381Y-102592380D01*
X140152381Y-102830476D01*
X140104762Y-102925714D01*
X140057143Y-102973333D01*
X148169524Y-85542381D02*
X148169524Y-84542381D01*
X148407619Y-84542381D01*
X148550477Y-84590000D01*
X148645715Y-84685238D01*
X148693334Y-84780476D01*
X148740953Y-84970952D01*
X148740953Y-85113810D01*
X148693334Y-85304286D01*
X148645715Y-85399524D01*
X148550477Y-85494762D01*
X148407619Y-85542381D01*
X148169524Y-85542381D01*
X149645715Y-84542381D02*
X149169524Y-84542381D01*
X149121905Y-85018571D01*
X149169524Y-84970952D01*
X149264762Y-84923333D01*
X149502858Y-84923333D01*
X149598096Y-84970952D01*
X149645715Y-85018571D01*
X149693334Y-85113810D01*
X149693334Y-85351905D01*
X149645715Y-85447143D01*
X149598096Y-85494762D01*
X149502858Y-85542381D01*
X149264762Y-85542381D01*
X149169524Y-85494762D01*
X149121905Y-85447143D01*
X150312381Y-84542381D02*
X150407620Y-84542381D01*
X150502858Y-84590000D01*
X150550477Y-84637619D01*
X150598096Y-84732857D01*
X150645715Y-84923333D01*
X150645715Y-85161429D01*
X150598096Y-85351905D01*
X150550477Y-85447143D01*
X150502858Y-85494762D01*
X150407620Y-85542381D01*
X150312381Y-85542381D01*
X150217143Y-85494762D01*
X150169524Y-85447143D01*
X150121905Y-85351905D01*
X150074286Y-85161429D01*
X150074286Y-84923333D01*
X150121905Y-84732857D01*
X150169524Y-84637619D01*
X150217143Y-84590000D01*
X150312381Y-84542381D01*
X151502858Y-84875714D02*
X151502858Y-85542381D01*
X151264762Y-84494762D02*
X151026667Y-85209048D01*
X151645715Y-85209048D01*
X148169524Y-93162381D02*
X148169524Y-92162381D01*
X148407619Y-92162381D01*
X148550477Y-92210000D01*
X148645715Y-92305238D01*
X148693334Y-92400476D01*
X148740953Y-92590952D01*
X148740953Y-92733810D01*
X148693334Y-92924286D01*
X148645715Y-93019524D01*
X148550477Y-93114762D01*
X148407619Y-93162381D01*
X148169524Y-93162381D01*
X149645715Y-92162381D02*
X149169524Y-92162381D01*
X149121905Y-92638571D01*
X149169524Y-92590952D01*
X149264762Y-92543333D01*
X149502858Y-92543333D01*
X149598096Y-92590952D01*
X149645715Y-92638571D01*
X149693334Y-92733810D01*
X149693334Y-92971905D01*
X149645715Y-93067143D01*
X149598096Y-93114762D01*
X149502858Y-93162381D01*
X149264762Y-93162381D01*
X149169524Y-93114762D01*
X149121905Y-93067143D01*
X150312381Y-92162381D02*
X150407620Y-92162381D01*
X150502858Y-92210000D01*
X150550477Y-92257619D01*
X150598096Y-92352857D01*
X150645715Y-92543333D01*
X150645715Y-92781429D01*
X150598096Y-92971905D01*
X150550477Y-93067143D01*
X150502858Y-93114762D01*
X150407620Y-93162381D01*
X150312381Y-93162381D01*
X150217143Y-93114762D01*
X150169524Y-93067143D01*
X150121905Y-92971905D01*
X150074286Y-92781429D01*
X150074286Y-92543333D01*
X150121905Y-92352857D01*
X150169524Y-92257619D01*
X150217143Y-92210000D01*
X150312381Y-92162381D01*
X150979048Y-92162381D02*
X151598096Y-92162381D01*
X151264762Y-92543333D01*
X151407620Y-92543333D01*
X151502858Y-92590952D01*
X151550477Y-92638571D01*
X151598096Y-92733810D01*
X151598096Y-92971905D01*
X151550477Y-93067143D01*
X151502858Y-93114762D01*
X151407620Y-93162381D01*
X151121905Y-93162381D01*
X151026667Y-93114762D01*
X150979048Y-93067143D01*
X148169524Y-100782381D02*
X148169524Y-99782381D01*
X148407619Y-99782381D01*
X148550477Y-99830000D01*
X148645715Y-99925238D01*
X148693334Y-100020476D01*
X148740953Y-100210952D01*
X148740953Y-100353810D01*
X148693334Y-100544286D01*
X148645715Y-100639524D01*
X148550477Y-100734762D01*
X148407619Y-100782381D01*
X148169524Y-100782381D01*
X149645715Y-99782381D02*
X149169524Y-99782381D01*
X149121905Y-100258571D01*
X149169524Y-100210952D01*
X149264762Y-100163333D01*
X149502858Y-100163333D01*
X149598096Y-100210952D01*
X149645715Y-100258571D01*
X149693334Y-100353810D01*
X149693334Y-100591905D01*
X149645715Y-100687143D01*
X149598096Y-100734762D01*
X149502858Y-100782381D01*
X149264762Y-100782381D01*
X149169524Y-100734762D01*
X149121905Y-100687143D01*
X150312381Y-99782381D02*
X150407620Y-99782381D01*
X150502858Y-99830000D01*
X150550477Y-99877619D01*
X150598096Y-99972857D01*
X150645715Y-100163333D01*
X150645715Y-100401429D01*
X150598096Y-100591905D01*
X150550477Y-100687143D01*
X150502858Y-100734762D01*
X150407620Y-100782381D01*
X150312381Y-100782381D01*
X150217143Y-100734762D01*
X150169524Y-100687143D01*
X150121905Y-100591905D01*
X150074286Y-100401429D01*
X150074286Y-100163333D01*
X150121905Y-99972857D01*
X150169524Y-99877619D01*
X150217143Y-99830000D01*
X150312381Y-99782381D01*
X151026667Y-99877619D02*
X151074286Y-99830000D01*
X151169524Y-99782381D01*
X151407620Y-99782381D01*
X151502858Y-99830000D01*
X151550477Y-99877619D01*
X151598096Y-99972857D01*
X151598096Y-100068095D01*
X151550477Y-100210952D01*
X150979048Y-100782381D01*
X151598096Y-100782381D01*
X148169524Y-108402381D02*
X148169524Y-107402381D01*
X148407619Y-107402381D01*
X148550477Y-107450000D01*
X148645715Y-107545238D01*
X148693334Y-107640476D01*
X148740953Y-107830952D01*
X148740953Y-107973810D01*
X148693334Y-108164286D01*
X148645715Y-108259524D01*
X148550477Y-108354762D01*
X148407619Y-108402381D01*
X148169524Y-108402381D01*
X149645715Y-107402381D02*
X149169524Y-107402381D01*
X149121905Y-107878571D01*
X149169524Y-107830952D01*
X149264762Y-107783333D01*
X149502858Y-107783333D01*
X149598096Y-107830952D01*
X149645715Y-107878571D01*
X149693334Y-107973810D01*
X149693334Y-108211905D01*
X149645715Y-108307143D01*
X149598096Y-108354762D01*
X149502858Y-108402381D01*
X149264762Y-108402381D01*
X149169524Y-108354762D01*
X149121905Y-108307143D01*
X150312381Y-107402381D02*
X150407620Y-107402381D01*
X150502858Y-107450000D01*
X150550477Y-107497619D01*
X150598096Y-107592857D01*
X150645715Y-107783333D01*
X150645715Y-108021429D01*
X150598096Y-108211905D01*
X150550477Y-108307143D01*
X150502858Y-108354762D01*
X150407620Y-108402381D01*
X150312381Y-108402381D01*
X150217143Y-108354762D01*
X150169524Y-108307143D01*
X150121905Y-108211905D01*
X150074286Y-108021429D01*
X150074286Y-107783333D01*
X150121905Y-107592857D01*
X150169524Y-107497619D01*
X150217143Y-107450000D01*
X150312381Y-107402381D01*
X151598096Y-108402381D02*
X151026667Y-108402381D01*
X151312381Y-108402381D02*
X151312381Y-107402381D01*
X151217143Y-107545238D01*
X151121905Y-107640476D01*
X151026667Y-107688095D01*
M02*
