M48
;DRILL file {KiCad 4.0.7} date 02/20/20 23:48:34
;FORMAT={-:-/ absolute / metric / decimal}
FMAT,2
METRIC,TZ
T1C0.813
T2C1.016
T3C3.500
%
G90
G05
M71
T1
X132.08Y-106.68
X132.08Y-114.3
X135.89Y-76.2
X135.89Y-86.36
X135.89Y-96.52
X135.89Y-106.68
X139.7Y-78.74
X139.7Y-88.9
X139.7Y-99.06
X139.7Y-109.22
X144.78Y-81.28
X144.78Y-88.9
X144.78Y-96.52
X144.78Y-104.14
X144.78Y-111.76
X154.94Y-81.28
X154.94Y-88.9
X154.94Y-96.52
X154.94Y-104.14
X154.94Y-111.76
T2
X109.22Y-90.17
X109.22Y-92.71
X109.22Y-95.25
X109.22Y-97.79
X109.22Y-100.33
X109.22Y-102.87
X109.22Y-105.41
X109.22Y-107.95
X116.84Y-86.36
X116.84Y-88.9
X116.84Y-91.44
X116.84Y-93.98
X116.84Y-96.52
X116.84Y-99.06
X116.84Y-109.22
X116.84Y-111.76
X116.84Y-114.3
X116.84Y-116.84
X116.84Y-119.38
X116.84Y-121.92
X127.Y-86.36
X127.Y-88.9
X127.Y-91.44
X127.Y-93.98
X127.Y-96.52
X127.Y-99.06
X127.Y-109.22
X127.Y-111.76
X127.Y-114.3
X127.Y-116.84
X127.Y-119.38
X127.Y-121.92
X144.78Y-85.09
X144.78Y-92.71
X144.78Y-100.33
X144.78Y-107.95
X154.94Y-85.09
X154.94Y-92.71
X154.94Y-100.33
X154.94Y-107.95
X161.29Y-81.28
X161.29Y-86.36
X161.29Y-91.44
X161.29Y-96.52
X161.29Y-101.6
X161.29Y-107.95
X161.29Y-113.03
X161.29Y-118.11
T3
X105.41Y-74.93
X105.41Y-124.46
X166.37Y-74.93
X166.37Y-124.46
T0
M30
