M48
;DRILL file {KiCad 4.0.7} date 03/02/20 22:47:37
;FORMAT={-:-/ absolute / inch / decimal}
FMAT,2
INCH,TZ
T1C0.032
T2C0.040
T3C0.138
%
G90
G05
M72
T1
X5.2Y-4.2
X5.2Y-4.5
X5.35Y-3.
X5.35Y-3.4
X5.35Y-3.8
X5.35Y-4.2
X5.5Y-3.1
X5.5Y-3.5
X5.5Y-3.9
X5.5Y-4.3
X5.7Y-3.2
X5.7Y-3.5
X5.7Y-3.8
X5.7Y-4.1
X5.7Y-4.4
X6.1Y-3.2
X6.1Y-3.5
X6.1Y-3.8
X6.1Y-4.1
X6.1Y-4.4
T2
X4.3Y-3.55
X4.3Y-3.65
X4.3Y-3.75
X4.3Y-3.85
X4.3Y-3.95
X4.3Y-4.05
X4.3Y-4.15
X4.3Y-4.25
X4.6Y-3.4
X4.6Y-3.5
X4.6Y-3.6
X4.6Y-3.7
X4.6Y-3.8
X4.6Y-3.9
X4.6Y-4.3
X4.6Y-4.4
X4.6Y-4.5
X4.6Y-4.6
X4.6Y-4.7
X4.6Y-4.8
X5.Y-3.4
X5.Y-3.5
X5.Y-3.6
X5.Y-3.7
X5.Y-3.8
X5.Y-3.9
X5.Y-4.3
X5.Y-4.4
X5.Y-4.5
X5.Y-4.6
X5.Y-4.7
X5.Y-4.8
X5.7Y-3.35
X5.7Y-3.65
X5.7Y-3.95
X5.7Y-4.25
X6.1Y-3.35
X6.1Y-3.65
X6.1Y-3.95
X6.1Y-4.25
X6.35Y-3.2
X6.35Y-3.4
X6.35Y-3.6
X6.35Y-3.8
X6.35Y-4.
X6.35Y-4.25
X6.35Y-4.45
X6.35Y-4.65
T3
X4.15Y-2.95
X4.15Y-4.9
X6.55Y-2.95
X6.55Y-4.9
T0
M30
