<?xml version="1.0" standalone="no"?>
 <!DOCTYPE svg PUBLIC "-//W3C//DTD SVG 1.1//EN" 
 "http://www.w3.org/Graphics/SVG/1.1/DTD/svg11.dtd"> 
<svg xmlns="http://www.w3.org/2000/svg" version="1.1" 
    width="29.7002cm" height="21.0007cm" viewBox="0 0 116930 82680 ">
<title>SVG Picture created as u6-F.SilkS.svg date 2019/10/06 16:13:14 </title>
  <desc>Picture generated by PCBNEW </desc>
<g style="fill:#000000; fill-opacity:1;stroke:#000000; stroke-opacity:1;
stroke-linecap:round; stroke-linejoin:round; "
 transform="translate(0 0) scale(1 1)">
</g>
<g style="fill:#000000; fill-opacity:0.0; 
stroke:#000000; stroke-width:-0.000393701; stroke-opacity:1; 
stroke-linecap:round; stroke-linejoin:round;">
</g>
<g style="fill:#000000; fill-opacity:0.0; 
stroke:#000000; stroke-width:59.0551; stroke-opacity:1; 
stroke-linecap:round; stroke-linejoin:round;">
<rect x="69685.9" y="65357.2" width="42519.7" height="12598.4" rx="0" />
<rect x="3937.01" y="3937.01" width="109056" height="74806" rx="0" />
<rect x="4724.41" y="4724.41" width="107481" height="73231.2" rx="0" />
<path d="M23622 4724
L23622 3937
" />
<path d="M43307 4724
L43307 3937
" />
<path d="M62992 4724
L62992 3937
" />
<path d="M82677 4724
L82677 3937
" />
<path d="M102362 4724
L102362 3937
" />
<path d="M14169 4562
L13877 4562
" />
<path d="M14023 4562
L14023 4050
L13974 4123
L13925 4172
L13877 4196
" />
<path d="M33562 4099
L33586 4074
L33635 4050
L33757 4050
L33805 4074
L33830 4099
L33854 4147
L33854 4196
L33830 4269
L33537 4562
L33854 4562
" />
<path d="M53222 4050
L53539 4050
L53368 4245
L53442 4245
L53490 4269
L53515 4294
L53539 4342
L53539 4464
L53515 4513
L53490 4537
L53442 4562
L53295 4562
L53247 4537
L53222 4513
" />
<path d="M73175 4221
L73175 4562
" />
<path d="M73053 4026
L72932 4391
L73248 4391
" />
<path d="M92885 4050
L92641 4050
L92617 4294
L92641 4269
L92690 4245
L92812 4245
L92860 4269
L92885 4294
L92909 4342
L92909 4464
L92885 4513
L92860 4537
L92812 4562
L92690 4562
L92641 4537
L92617 4513
" />
<path d="M112545 4050
L112448 4050
L112399 4074
L112375 4099
L112326 4172
L112302 4269
L112302 4464
L112326 4513
L112350 4537
L112399 4562
L112497 4562
L112545 4537
L112570 4513
L112594 4464
L112594 4342
L112570 4294
L112545 4269
L112497 4245
L112399 4245
L112350 4269
L112326 4294
L112302 4342
" />
<path d="M23622 77955
L23622 78742
" />
<path d="M43307 77955
L43307 78742
" />
<path d="M62992 77955
L62992 78742
" />
<path d="M82677 77955
L82677 78742
" />
<path d="M102362 77955
L102362 78742
" />
<path d="M14169 78580
L13877 78580
" />
<path d="M14023 78580
L14023 78069
L13974 78142
L13925 78190
L13877 78215
" />
<path d="M33562 78117
L33586 78093
L33635 78069
L33757 78069
L33805 78093
L33830 78117
L33854 78166
L33854 78215
L33830 78288
L33537 78580
L33854 78580
" />
<path d="M53222 78069
L53539 78069
L53368 78263
L53442 78263
L53490 78288
L53515 78312
L53539 78361
L53539 78483
L53515 78532
L53490 78556
L53442 78580
L53295 78580
L53247 78556
L53222 78532
" />
<path d="M73175 78239
L73175 78580
" />
<path d="M73053 78044
L72932 78410
L73248 78410
" />
<path d="M92885 78069
L92641 78069
L92617 78312
L92641 78288
L92690 78263
L92812 78263
L92860 78288
L92885 78312
L92909 78361
L92909 78483
L92885 78532
L92860 78556
L92812 78580
L92690 78580
L92641 78556
L92617 78532
" />
<path d="M112545 78069
L112448 78069
L112399 78093
L112375 78117
L112326 78190
L112302 78288
L112302 78483
L112326 78532
L112350 78556
L112399 78580
L112497 78580
L112545 78556
L112570 78532
L112594 78483
L112594 78361
L112570 78312
L112545 78288
L112497 78263
L112399 78263
L112350 78288
L112326 78312
L112302 78361
" />
<path d="M3937 23622
L4724 23622
" />
<path d="M3937 43307
L4724 43307
" />
<path d="M3937 62992
L4724 62992
" />
<path d="M4208 13864
L4452 13864
" />
<path d="M4160 14011
L4330 13499
L4501 14011
" />
<path d="M4367 33428
L4440 33452
L4464 33476
L4489 33525
L4489 33598
L4464 33647
L4440 33671
L4391 33696
L4196 33696
L4196 33184
L4367 33184
L4416 33208
L4440 33233
L4464 33281
L4464 33330
L4440 33379
L4416 33403
L4367 33428
L4196 33428
" />
<path d="M4489 53332
L4464 53356
L4391 53381
L4342 53381
L4269 53356
L4221 53308
L4196 53259
L4172 53161
L4172 53088
L4196 52991
L4221 52942
L4269 52893
L4342 52869
L4391 52869
L4464 52893
L4489 52918
" />
<path d="M4196 73066
L4196 72554
L4318 72554
L4391 72578
L4440 72627
L4464 72676
L4489 72773
L4489 72846
L4464 72944
L4440 72993
L4391 73041
L4318 73066
L4196 73066
" />
<path d="M112992 23622
L112205 23622
" />
<path d="M112992 43307
L112205 43307
" />
<path d="M112992 62992
L112205 62992
" />
<path d="M112477 13864
L112721 13864
" />
<path d="M112428 14011
L112599 13499
L112769 14011
" />
<path d="M112635 33428
L112708 33452
L112733 33476
L112757 33525
L112757 33598
L112733 33647
L112708 33671
L112660 33696
L112465 33696
L112465 33184
L112635 33184
L112684 33208
L112708 33233
L112733 33281
L112733 33330
L112708 33379
L112684 33403
L112635 33428
L112465 33428
" />
<path d="M112757 53332
L112733 53356
L112660 53381
L112611 53381
L112538 53356
L112489 53308
L112465 53259
L112440 53161
L112440 53088
L112465 52991
L112489 52942
L112538 52893
L112611 52869
L112660 52869
L112733 52893
L112757 52918
" />
<path d="M112465 73066
L112465 72554
L112587 72554
L112660 72578
L112708 72627
L112733 72676
L112757 72773
L112757 72846
L112733 72944
L112708 72993
L112660 73041
L112587 73066
L112465 73066
" />
<path d="M78881 76293
L78881 75703
L79022 75703
L79106 75731
L79162 75787
L79190 75843
L79219 75956
L79219 76040
L79190 76153
L79162 76209
L79106 76265
L79022 76293
L78881 76293
" />
<path d="M79725 76293
L79725 75984
L79697 75928
L79640 75899
L79528 75899
L79472 75928
" />
<path d="M79725 76265
L79669 76293
L79528 76293
L79472 76265
L79444 76209
L79444 76153
L79472 76096
L79528 76068
L79669 76068
L79725 76040
" />
<path d="M79922 75899
L80147 75899
" />
<path d="M80006 75703
L80006 76209
L80034 76265
L80090 76293
L80147 76293
" />
<path d="M80568 76265
L80512 76293
L80400 76293
L80343 76265
L80315 76209
L80315 75984
L80343 75928
L80400 75899
L80512 75899
L80568 75928
L80597 75984
L80597 76040
L80315 76096
" />
<path d="M80850 76237
L80878 76265
L80850 76293
L80822 76265
L80850 76237
L80850 76293
" />
<path d="M80850 75928
L80878 75956
L80850 75984
L80822 75956
L80850 75928
L80850 75984
" />
<path d="M81553 75759
L81581 75731
L81637 75703
L81778 75703
L81834 75731
L81862 75759
L81890 75815
L81890 75871
L81862 75956
L81525 76293
L81890 76293
" />
<path d="M82256 75703
L82312 75703
L82368 75731
L82396 75759
L82424 75815
L82453 75928
L82453 76068
L82424 76181
L82396 76237
L82368 76265
L82312 76293
L82256 76293
L82199 76265
L82171 76237
L82143 76181
L82115 76068
L82115 75928
L82143 75815
L82171 75759
L82199 75731
L82256 75703
" />
<path d="M83015 76293
L82678 76293
" />
<path d="M82846 76293
L82846 75703
L82790 75787
L82734 75843
L82678 75871
" />
<path d="M83296 76293
L83409 76293
L83465 76265
L83493 76237
L83549 76153
L83577 76040
L83577 75815
L83549 75759
L83521 75731
L83465 75703
L83352 75703
L83296 75731
L83268 75759
L83240 75815
L83240 75956
L83268 76012
L83296 76040
L83352 76068
L83465 76068
L83521 76040
L83549 76012
L83577 75956
" />
<path d="M83831 76068
L84280 76068
" />
<path d="M84674 75703
L84730 75703
L84787 75731
L84815 75759
L84843 75815
L84871 75928
L84871 76068
L84843 76181
L84815 76237
L84787 76265
L84730 76293
L84674 76293
L84618 76265
L84590 76237
L84562 76181
L84534 76068
L84534 75928
L84562 75815
L84590 75759
L84618 75731
L84674 75703
" />
<path d="M85152 76293
L85265 76293
L85321 76265
L85349 76237
L85405 76153
L85433 76040
L85433 75815
L85405 75759
L85377 75731
L85321 75703
L85208 75703
L85152 75731
L85124 75759
L85096 75815
L85096 75956
L85124 76012
L85152 76040
L85208 76068
L85321 76068
L85377 76040
L85405 76012
L85433 75956
" />
<path d="M85687 76068
L86136 76068
" />
<path d="M86727 76293
L86390 76293
" />
<path d="M86558 76293
L86558 75703
L86502 75787
L86446 75843
L86390 75871
" />
<path d="M87008 76293
L87121 76293
L87177 76265
L87205 76237
L87261 76153
L87289 76040
L87289 75815
L87261 75759
L87233 75731
L87177 75703
L87064 75703
L87008 75731
L86980 75759
L86952 75815
L86952 75956
L86980 76012
L87008 76040
L87064 76068
L87177 76068
L87233 76040
L87261 76012
L87289 75956
" />
<path d="M69685 76577
L112205 76577
" />
<path d="M70220 77395
L70220 76805
" />
<path d="M70557 77395
L70304 77058
" />
<path d="M70557 76805
L70220 77142
" />
<path d="M70810 77395
L70810 77002
" />
<path d="M70810 76805
L70782 76833
L70810 76861
L70838 76833
L70810 76805
L70810 76861
" />
<path d="M71429 77339
L71401 77367
L71316 77395
L71260 77395
L71176 77367
L71120 77311
L71091 77255
L71063 77142
L71063 77058
L71091 76946
L71120 76889
L71176 76833
L71260 76805
L71316 76805
L71401 76833
L71429 76861
" />
<path d="M71935 77395
L71935 77086
L71907 77030
L71851 77002
L71738 77002
L71682 77030
" />
<path d="M71935 77367
L71879 77395
L71738 77395
L71682 77367
L71654 77311
L71654 77255
L71682 77199
L71738 77171
L71879 77171
L71935 77142
" />
<path d="M72469 77395
L72469 76805
" />
<path d="M72469 77367
L72413 77395
L72301 77395
L72244 77367
L72216 77339
L72188 77283
L72188 77114
L72216 77058
L72244 77030
L72301 77002
L72413 77002
L72469 77030
" />
<path d="M73201 77086
L73397 77086
" />
<path d="M73482 77395
L73201 77395
L73201 76805
L73482 76805
" />
<path d="M73735 77339
L73763 77367
L73735 77395
L73707 77367
L73735 77339
L73735 77395
" />
<path d="M74016 77395
L74016 76805
L74157 76805
L74241 76833
L74297 76889
L74325 76946
L74354 77058
L74354 77142
L74325 77255
L74297 77311
L74241 77367
L74157 77395
L74016 77395
" />
<path d="M74607 77339
L74635 77367
L74607 77395
L74579 77367
L74607 77339
L74607 77395
" />
<path d="M74860 77227
L75141 77227
" />
<path d="M74804 77395
L75000 76805
L75197 77395
" />
<path d="M75394 77339
L75422 77367
L75394 77395
L75366 77367
L75394 77339
L75394 77395
" />
<path d="M76575 77002
L76575 77592
" />
<path d="M76575 77030
L76631 77002
L76744 77002
L76800 77030
L76828 77058
L76856 77114
L76856 77283
L76828 77339
L76800 77367
L76744 77395
L76631 77395
L76575 77367
" />
<path d="M77363 77367
L77306 77395
L77194 77395
L77138 77367
L77109 77339
L77081 77283
L77081 77114
L77109 77058
L77138 77030
L77194 77002
L77306 77002
L77363 77030
" />
<path d="M77616 77395
L77616 76805
" />
<path d="M77616 77030
L77672 77002
L77784 77002
L77841 77030
L77869 77058
L77897 77114
L77897 77283
L77869 77339
L77841 77367
L77784 77395
L77672 77395
L77616 77367
" />
<path d="M78150 77002
L78150 77395
" />
<path d="M78150 77058
L78178 77030
L78234 77002
L78319 77002
L78375 77030
L78403 77086
L78403 77395
" />
<path d="M78909 77367
L78853 77395
L78741 77395
L78684 77367
L78656 77311
L78656 77086
L78684 77030
L78741 77002
L78853 77002
L78909 77030
L78937 77086
L78937 77142
L78656 77199
" />
<path d="M79134 77002
L79247 77395
L79359 77114
L79472 77395
L79584 77002
" />
<path d="M80512 77002
L80512 77395
" />
<path d="M80372 76777
L80231 77199
L80597 77199
" />
<path d="M80822 77339
L80850 77367
L80822 77395
L80793 77367
L80822 77339
L80822 77395
" />
<path d="M81215 76805
L81271 76805
L81328 76833
L81356 76861
L81384 76917
L81412 77030
L81412 77171
L81384 77283
L81356 77339
L81328 77367
L81271 77395
L81215 77395
L81159 77367
L81131 77339
L81103 77283
L81075 77171
L81075 77030
L81103 76917
L81131 76861
L81159 76833
L81215 76805
" />
<path d="M81665 77339
L81693 77367
L81665 77395
L81637 77367
L81665 77339
L81665 77395
" />
<path d="M82228 76805
L81946 76805
L81918 77086
L81946 77058
L82003 77030
L82143 77030
L82199 77058
L82228 77086
L82256 77142
L82256 77283
L82228 77339
L82199 77367
L82143 77395
L82003 77395
L81946 77367
L81918 77339
" />
<path d="M82509 77171
L82959 77171
" />
<path d="M82734 77395
L82734 76946
" />
<path d="M83493 77395
L83493 76805
" />
<path d="M83493 77367
L83437 77395
L83324 77395
L83268 77367
L83240 77339
L83212 77283
L83212 77114
L83240 77058
L83268 77030
L83324 77002
L83437 77002
L83493 77030
" />
<path d="M83690 77002
L83915 77002
" />
<path d="M83774 77395
L83774 76889
L83802 76833
L83859 76805
L83915 76805
" />
<path d="M84084 77367
L84140 77395
L84252 77395
L84309 77367
L84337 77311
L84337 77283
L84309 77227
L84252 77199
L84168 77199
L84112 77171
L84084 77114
L84084 77086
L84112 77030
L84168 77002
L84252 77002
L84309 77030
" />
<path d="M84843 77002
L84843 77480
L84815 77536
L84787 77564
L84730 77592
L84646 77592
L84590 77564
" />
<path d="M84843 77367
L84787 77395
L84674 77395
L84618 77367
L84590 77339
L84562 77283
L84562 77114
L84590 77058
L84618 77030
L84674 77002
L84787 77002
L84843 77030
" />
<path d="M85433 77395
L85096 77395
" />
<path d="M85265 77395
L85265 76805
L85208 76889
L85152 76946
L85096 76974
" />
<path d="M85687 77171
L86136 77171
" />
<path d="M86671 77002
L86671 77395
" />
<path d="M86530 76777
L86390 77199
L86755 77199
" />
<path d="M69685 75396
L112205 75396
" />
</g>
<g style="fill:#000000; fill-opacity:0.0; 
stroke:#000000; stroke-width:118.11; stroke-opacity:1; 
stroke-linecap:round; stroke-linejoin:round;">
<path d="M104022 76293
L103825 76012
" />
<path d="M103684 76293
L103684 75703
L103909 75703
L103965 75731
L103994 75759
L104022 75815
L104022 75899
L103994 75956
L103965 75984
L103909 76012
L103684 76012
" />
<path d="M104500 76265
L104444 76293
L104331 76293
L104275 76265
L104247 76209
L104247 75984
L104275 75928
L104331 75899
L104444 75899
L104500 75928
L104528 75984
L104528 76040
L104247 76096
" />
<path d="M104725 75899
L104865 76293
L105006 75899
" />
<path d="M105231 76237
L105259 76265
L105231 76293
L105203 76265
L105231 76237
L105231 76293
" />
<path d="M105231 75928
L105259 75956
L105231 75984
L105203 75956
L105231 75928
L105231 75984
" />
<path d="M106271 76293
L105934 76293
" />
<path d="M106103 76293
L106103 75703
L106046 75787
L105990 75843
L105934 75871
" />
<path d="M106553 76293
L106665 76293
L106721 76265
L106750 76237
L106806 76153
L106834 76040
L106834 75815
L106806 75759
L106778 75731
L106721 75703
L106609 75703
L106553 75731
L106525 75759
L106496 75815
L106496 75956
L106525 76012
L106553 76040
L106609 76068
L106721 76068
L106778 76040
L106806 76012
L106834 75956
" />
<path d="M107199 75703
L107256 75703
L107312 75731
L107340 75759
L107368 75815
L107396 75928
L107396 76068
L107368 76181
L107340 76237
L107312 76265
L107256 76293
L107199 76293
L107143 76265
L107115 76237
L107087 76181
L107059 76068
L107059 75928
L107087 75815
L107115 75759
L107143 75731
L107199 75703
" />
<path d="M107678 76293
L107790 76293
L107846 76265
L107874 76237
L107931 76153
L107959 76040
L107959 75815
L107931 75759
L107903 75731
L107846 75703
L107734 75703
L107678 75731
L107649 75759
L107621 75815
L107621 75956
L107649 76012
L107678 76040
L107734 76068
L107846 76068
L107903 76040
L107931 76012
L107959 75956
" />
<path d="M108521 76293
L108184 76293
" />
<path d="M108352 76293
L108352 75703
L108296 75787
L108240 75843
L108184 75871
" />
<path d="M108802 76293
L108915 76293
L108971 76265
L108999 76237
L109055 76153
L109084 76040
L109084 75815
L109055 75759
L109027 75731
L108971 75703
L108859 75703
L108802 75731
L108774 75759
L108746 75815
L108746 75956
L108774 76012
L108802 76040
L108859 76068
L108971 76068
L109027 76040
L109055 76012
L109084 75956
" />
</g>
<g style="fill:#000000; fill-opacity:0.0; 
stroke:#000000; stroke-width:59.0551; stroke-opacity:1; 
stroke-linecap:round; stroke-linejoin:round;">
<path d="M70192 76265
L70276 76293
L70417 76293
L70473 76265
L70501 76237
L70529 76181
L70529 76124
L70501 76068
L70473 76040
L70417 76012
L70304 75984
L70248 75956
L70220 75928
L70192 75871
L70192 75815
L70220 75759
L70248 75731
L70304 75703
L70445 75703
L70529 75731
" />
<path d="M70782 76293
L70782 75899
" />
<path d="M70782 75703
L70754 75731
L70782 75759
L70810 75731
L70782 75703
L70782 75759
" />
<path d="M71007 75899
L71316 75899
L71007 76293
L71316 76293
" />
<path d="M71766 76265
L71710 76293
L71598 76293
L71541 76265
L71513 76209
L71513 75984
L71541 75928
L71598 75899
L71710 75899
L71766 75928
L71795 75984
L71795 76040
L71513 76096
" />
<path d="M72048 76237
L72076 76265
L72048 76293
L72019 76265
L72048 76237
L72048 76293
" />
<path d="M72048 75928
L72076 75956
L72048 75984
L72019 75956
L72048 75928
L72048 75984
" />
<path d="M72751 76124
L73032 76124
" />
<path d="M72694 76293
L72891 75703
L73088 76293
" />
<path d="M73538 75899
L73538 76293
" />
<path d="M73397 75674
L73257 76096
L73622 76096
" />
<path d="M103684 77395
L103684 76805
" />
<path d="M104219 77395
L104219 76805
" />
<path d="M104219 77367
L104162 77395
L104050 77395
L103994 77367
L103965 77339
L103937 77283
L103937 77114
L103965 77058
L103994 77030
L104050 77002
L104162 77002
L104219 77030
" />
<path d="M104500 77339
L104528 77367
L104500 77395
L104472 77367
L104500 77339
L104500 77395
" />
<path d="M104500 77030
L104528 77058
L104500 77086
L104472 77058
L104500 77030
L104500 77086
" />
<path d="M105540 77395
L105203 77395
" />
<path d="M105372 77395
L105372 76805
L105315 76889
L105259 76946
L105203 76974
" />
<path d="M106215 76777
L105709 77536
" />
<path d="M106721 77395
L106384 77395
" />
<path d="M106553 77395
L106553 76805
L106496 76889
L106440 76946
L106384 76974
" />
<path d="M69685 73821
L112205 73821
" />
</g>
<g style="fill:#000000; fill-opacity:0.0; 
stroke:#000000; stroke-width:157.48; stroke-opacity:1; 
stroke-linecap:round; stroke-linejoin:round;">
<path d="M70257 74099
L70707 74099
" />
<path d="M70384 74886
L70482 74099
" />
<path d="M70871 74886
L70937 74361
" />
<path d="M70970 74099
L70927 74136
L70960 74174
L71002 74136
L70970 74099
L70960 74174
" />
<path d="M71199 74361
L71499 74361
" />
<path d="M71345 74099
L71260 74774
L71288 74849
L71359 74886
L71434 74886
" />
<path d="M71809 74886
L71738 74849
L71710 74774
L71795 74099
" />
<path d="M72413 74849
L72334 74886
L72184 74886
L72113 74849
L72085 74774
L72123 74474
L72169 74399
L72249 74361
L72399 74361
L72469 74399
L72498 74474
L72488 74549
L72104 74624
" />
<path d="M72793 74811
L72826 74849
L72783 74886
L72751 74849
L72793 74811
L72783 74886
" />
<path d="M72844 74399
L72877 74436
L72835 74474
L72802 74436
L72844 74399
L72835 74474
" />
<path d="M73758 74886
L73857 74099
L74049 74661
L74382 74099
L74283 74886
" />
<path d="M74658 74886
L74757 74099
L74949 74661
L75282 74099
L75183 74886
" />
<path d="M76031 74099
L75657 74099
L75572 74474
L75614 74436
L75694 74399
L75882 74399
L75952 74436
L75985 74474
L76013 74549
L75989 74736
L75942 74811
L75900 74849
L75821 74886
L75633 74886
L75563 74849
L75530 74811
" />
<path d="M76308 74886
L76406 74099
L76594 74099
L76702 74136
L76767 74211
L76795 74286
L76814 74436
L76800 74549
L76744 74699
L76697 74774
L76613 74849
L76495 74886
L76308 74886
" />
<path d="M78202 74136
L78131 74099
L78019 74099
L77902 74136
L77817 74211
L77770 74286
L77714 74436
L77700 74549
L77719 74699
L77747 74774
L77813 74849
L77920 74886
L77995 74886
L78112 74849
L78155 74811
L78187 74549
L78037 74549
" />
<path d="M78483 74886
L78548 74361
" />
<path d="M78530 74511
L78576 74436
L78619 74399
L78698 74361
L78773 74361
" />
<path d="M79083 74886
L79012 74849
L78980 74811
L78951 74736
L78980 74511
L79026 74436
L79069 74399
L79148 74361
L79261 74361
L79331 74399
L79364 74436
L79392 74511
L79364 74736
L79317 74811
L79275 74849
L79195 74886
L79083 74886
" />
<path d="M79673 74361
L79758 74886
L79954 74511
L80058 74886
L80273 74361
" />
<path d="M80507 74886
L80573 74361
" />
<path d="M80606 74099
L80564 74136
L80597 74174
L80639 74136
L80606 74099
L80597 74174
" />
<path d="M80948 74361
L80882 74886
" />
<path d="M80939 74436
L80981 74399
L81061 74361
L81173 74361
L81243 74399
L81271 74474
L81220 74886
" />
<path d="M81998 74361
L81918 74999
L81871 75074
L81829 75111
L81750 75149
L81637 75149
L81567 75111
" />
<path d="M81937 74849
L81857 74886
L81707 74886
L81637 74849
L81604 74811
L81576 74736
L81604 74511
L81651 74436
L81693 74399
L81773 74361
L81923 74361
L81993 74399
" />
<path d="M82907 74886
L83006 74099
" />
<path d="M83245 74886
L83296 74474
L83268 74399
L83198 74361
L83085 74361
L83006 74399
L82963 74436
" />
<path d="M83732 74886
L83662 74849
L83629 74811
L83601 74736
L83629 74511
L83676 74436
L83718 74399
L83798 74361
L83910 74361
L83980 74399
L84013 74436
L84041 74511
L84013 74736
L83966 74811
L83924 74849
L83845 74886
L83732 74886
" />
<path d="M84735 74361
L84669 74886
" />
<path d="M84398 74361
L84346 74774
L84374 74849
L84444 74886
L84557 74886
L84637 74849
L84679 74811
" />
<path d="M85012 74849
L85082 74886
L85232 74886
L85312 74849
L85358 74774
L85363 74736
L85335 74661
L85265 74624
L85152 74624
L85082 74586
L85054 74511
L85058 74474
L85105 74399
L85185 74361
L85298 74361
L85368 74399
" />
<path d="M85986 74849
L85907 74886
L85757 74886
L85687 74849
L85658 74774
L85696 74474
L85743 74399
L85822 74361
L85972 74361
L86043 74399
L86071 74474
L86061 74549
L85677 74624
" />
<path d="M87299 74849
L87219 74886
L87069 74886
L86999 74849
L86966 74811
L86938 74736
L86966 74511
L87013 74436
L87055 74399
L87135 74361
L87285 74361
L87355 74399
" />
<path d="M87744 74886
L87674 74849
L87641 74811
L87613 74736
L87641 74511
L87688 74436
L87730 74399
L87810 74361
L87922 74361
L87992 74399
L88025 74436
L88053 74511
L88025 74736
L87978 74811
L87936 74849
L87857 74886
L87744 74886
" />
<path d="M88410 74361
L88344 74886
" />
<path d="M88400 74436
L88442 74399
L88522 74361
L88635 74361
L88705 74399
L88733 74474
L88681 74886
" />
<path d="M89010 74361
L89310 74361
" />
<path d="M89155 74099
L89070 74774
L89099 74849
L89169 74886
L89244 74886
" />
<path d="M89506 74886
L89572 74361
" />
<path d="M89553 74511
L89600 74436
L89642 74399
L89722 74361
L89797 74361
" />
<path d="M90106 74886
L90036 74849
L90003 74811
L89975 74736
L90003 74511
L90050 74436
L90092 74399
L90172 74361
L90284 74361
L90355 74399
L90388 74436
L90416 74511
L90388 74736
L90341 74811
L90298 74849
L90219 74886
L90106 74886
" />
<path d="M90819 74886
L90748 74849
L90720 74774
L90805 74099
" />
<path d="M91231 74886
L91161 74849
L91133 74774
L91217 74099
" />
<path d="M91531 74886
L91597 74361
" />
<path d="M91630 74099
L91587 74136
L91620 74174
L91662 74136
L91630 74099
L91620 74174
" />
<path d="M91972 74361
L91906 74886
" />
<path d="M91962 74436
L92004 74399
L92084 74361
L92197 74361
L92267 74399
L92295 74474
L92244 74886
" />
<path d="M93022 74361
L92942 74999
L92895 75074
L92853 75111
L92773 75149
L92661 75149
L92590 75111
" />
<path d="M92961 74849
L92881 74886
L92731 74886
L92661 74849
L92628 74811
L92600 74736
L92628 74511
L92675 74436
L92717 74399
L92797 74361
L92947 74361
L93017 74399
" />
<path d="M94268 74886
L94320 74474
L94292 74399
L94221 74361
L94071 74361
L93992 74399
" />
<path d="M94273 74849
L94193 74886
L94006 74886
L93936 74849
L93907 74774
L93917 74699
L93964 74624
L94043 74586
L94231 74586
L94310 74549
" />
<path d="M94709 74361
L94643 74886
" />
<path d="M94699 74436
L94742 74399
L94821 74361
L94934 74361
L95004 74399
L95032 74474
L94981 74886
" />
<path d="M95693 74886
L95792 74099
" />
<path d="M95698 74849
L95618 74886
L95468 74886
L95398 74849
L95365 74811
L95337 74736
L95365 74511
L95412 74436
L95454 74399
L95534 74361
L95684 74361
L95754 74399
" />
<path d="M96668 74886
L96734 74361
" />
<path d="M96715 74511
L96762 74436
L96804 74399
L96884 74361
L96959 74361
" />
<path d="M97460 74849
L97380 74886
L97230 74886
L97160 74849
L97132 74774
L97169 74474
L97216 74399
L97296 74361
L97446 74361
L97516 74399
L97544 74474
L97535 74549
L97151 74624
" />
<path d="M97830 74886
L97896 74361
" />
<path d="M97887 74436
L97929 74399
L98008 74361
L98121 74361
L98191 74399
L98219 74474
L98168 74886
" />
<path d="M98219 74474
L98266 74399
L98346 74361
L98458 74361
L98529 74399
L98557 74474
L98505 74886
" />
<path d="M98993 74886
L98922 74849
L98890 74811
L98861 74736
L98890 74511
L98936 74436
L98979 74399
L99058 74361
L99171 74361
L99241 74399
L99274 74436
L99302 74511
L99274 74736
L99227 74811
L99185 74849
L99105 74886
L98993 74886
" />
<path d="M99546 74361
L99846 74361
" />
<path d="M99691 74099
L99607 74774
L99635 74849
L99705 74886
L99780 74886
" />
<path d="M100347 74849
L100268 74886
L100118 74886
L100047 74849
L100019 74774
L100057 74474
L100103 74399
L100183 74361
L100333 74361
L100403 74399
L100432 74474
L100422 74549
L100038 74624
" />
<path d="M101317 74886
L101383 74361
" />
<path d="M101374 74436
L101416 74399
L101495 74361
L101608 74361
L101678 74399
L101706 74474
L101655 74886
" />
<path d="M101706 74474
L101753 74399
L101833 74361
L101945 74361
L102016 74399
L102044 74474
L101992 74886
" />
<path d="M102480 74886
L102409 74849
L102377 74811
L102349 74736
L102377 74511
L102424 74436
L102466 74399
L102545 74361
L102658 74361
L102728 74399
L102761 74436
L102789 74511
L102761 74736
L102714 74811
L102672 74849
L102592 74886
L102480 74886
" />
<path d="M103145 74361
L103080 74886
" />
<path d="M103136 74436
L103178 74399
L103258 74361
L103370 74361
L103441 74399
L103469 74474
L103417 74886
" />
<path d="M103792 74886
L103858 74361
" />
<path d="M103891 74099
L103848 74136
L103881 74174
L103923 74136
L103891 74099
L103881 74174
" />
<path d="M104120 74361
L104420 74361
" />
<path d="M104265 74099
L104181 74774
L104209 74849
L104280 74886
L104355 74886
" />
<path d="M104729 74886
L104659 74849
L104626 74811
L104598 74736
L104626 74511
L104673 74436
L104715 74399
L104795 74361
L104908 74361
L104978 74399
L105011 74436
L105039 74511
L105011 74736
L104964 74811
L104922 74849
L104842 74886
L104729 74886
" />
<path d="M105329 74886
L105395 74361
" />
<path d="M105376 74511
L105423 74436
L105465 74399
L105545 74361
L105620 74361
" />
<path d="M105817 74886
L105882 74361
" />
<path d="M105915 74099
L105873 74136
L105906 74174
L105948 74136
L105915 74099
L105906 74174
" />
<path d="M106257 74361
L106192 74886
" />
<path d="M106248 74436
L106290 74399
L106370 74361
L106482 74361
L106553 74399
L106581 74474
L106529 74886
" />
<path d="M107307 74361
L107228 74999
L107181 75074
L107139 75111
L107059 75149
L106946 75149
L106876 75111
" />
<path d="M107246 74849
L107167 74886
L107017 74886
L106946 74849
L106914 74811
L106885 74736
L106914 74511
L106960 74436
L107003 74399
L107082 74361
L107232 74361
L107303 74399
" />
<path d="M108521 74849
L108442 74886
L108292 74886
L108221 74849
L108193 74774
L108231 74474
L108277 74399
L108357 74361
L108507 74361
L108577 74399
L108606 74474
L108596 74549
L108212 74624
" />
<path d="M109295 74361
L109196 75149
" />
<path d="M109234 74849
L109154 74886
L109004 74886
L108934 74849
L108901 74811
L108873 74736
L108901 74511
L108948 74436
L108990 74399
L109070 74361
L109220 74361
L109290 74399
" />
<path d="M110007 74361
L109941 74886
" />
<path d="M109669 74361
L109618 74774
L109646 74849
L109716 74886
L109829 74886
L109909 74849
L109951 74811
" />
<path d="M110316 74886
L110382 74361
" />
<path d="M110415 74099
L110373 74136
L110405 74174
L110448 74136
L110415 74099
L110405 74174
" />
<path d="M110757 74361
L110658 75149
" />
<path d="M110752 74399
L110832 74361
L110982 74361
L111052 74399
L111085 74436
L111113 74511
L111085 74736
L111038 74811
L110996 74849
L110916 74886
L110766 74886
L110696 74849
" />
<path d="M111404 74886
L111469 74361
" />
<path d="M111460 74436
L111502 74399
L111582 74361
L111694 74361
L111765 74399
L111793 74474
L111741 74886
" />
<path d="M111793 74474
L111840 74399
L111919 74361
L112032 74361
L112102 74399
L112130 74474
L112079 74886
" />
<path d="M112758 74849
L112678 74886
L112528 74886
L112458 74849
L112430 74774
L112468 74474
L112514 74399
L112594 74361
L112744 74361
L112814 74399
L112843 74474
L112833 74549
L112449 74624
" />
<path d="M113194 74361
L113128 74886
" />
<path d="M113185 74436
L113227 74399
L113307 74361
L113419 74361
L113489 74399
L113517 74474
L113466 74886
" />
<path d="M113794 74361
L114094 74361
" />
<path d="M113939 74099
L113855 74774
L113883 74849
L113953 74886
L114028 74886
" />
</g>
<g style="fill:#000000; fill-opacity:0.0; 
stroke:#000000; stroke-width:59.0551; stroke-opacity:1; 
stroke-linecap:round; stroke-linejoin:round;">
<path d="M70417 73070
L70220 73070
" />
<path d="M70220 73380
L70220 72789
L70501 72789
" />
<path d="M70726 73380
L70726 72986
" />
<path d="M70726 72789
L70698 72817
L70726 72845
L70754 72817
L70726 72789
L70726 72845
" />
<path d="M71091 73380
L71035 73352
L71007 73295
L71007 72789
" />
<path d="M71541 73352
L71485 73380
L71373 73380
L71316 73352
L71288 73295
L71288 73070
L71316 73014
L71373 72986
L71485 72986
L71541 73014
L71570 73070
L71570 73127
L71288 73183
" />
<path d="M71823 73323
L71851 73352
L71823 73380
L71795 73352
L71823 73323
L71823 73380
" />
<path d="M71823 73014
L71851 73042
L71823 73070
L71795 73042
L71823 73014
L71823 73070
" />
<path d="M72807 72986
L72807 73380
" />
<path d="M72554 72986
L72554 73295
L72582 73352
L72638 73380
L72723 73380
L72779 73352
L72807 73323
" />
<path d="M73341 72789
L73229 72789
L73172 72817
L73144 72845
L73088 72930
L73060 73042
L73060 73267
L73088 73323
L73116 73352
L73172 73380
L73285 73380
L73341 73352
L73369 73323
L73397 73267
L73397 73127
L73369 73070
L73341 73042
L73285 73014
L73172 73014
L73116 73042
L73088 73070
L73060 73127
" />
<path d="M73651 73323
L73679 73352
L73651 73380
L73622 73352
L73651 73323
L73651 73380
" />
<path d="M73932 73380
L73932 72789
" />
<path d="M73988 73155
L74157 73380
" />
<path d="M74157 72986
L73932 73211
" />
<path d="M74410 73380
L74410 72986
" />
<path d="M74410 72789
L74382 72817
L74410 72845
L74438 72817
L74410 72789
L74410 72845
" />
<path d="M74944 73352
L74888 73380
L74775 73380
L74719 73352
L74691 73323
L74663 73267
L74663 73099
L74691 73042
L74719 73014
L74775 72986
L74888 72986
L74944 73014
" />
<path d="M75450 73380
L75450 73070
L75422 73014
L75366 72986
L75253 72986
L75197 73014
" />
<path d="M75450 73352
L75394 73380
L75253 73380
L75197 73352
L75169 73295
L75169 73239
L75197 73183
L75253 73155
L75394 73155
L75450 73127
" />
<path d="M75985 73380
L75985 72789
" />
<path d="M75985 73352
L75928 73380
L75816 73380
L75760 73352
L75732 73323
L75703 73267
L75703 73099
L75732 73042
L75760 73014
L75816 72986
L75928 72986
L75985 73014
" />
<path d="M76125 73436
L76575 73436
" />
<path d="M76716 72986
L76716 73577
" />
<path d="M76716 73014
L76772 72986
L76885 72986
L76941 73014
L76969 73042
L76997 73099
L76997 73267
L76969 73323
L76941 73352
L76885 73380
L76772 73380
L76716 73352
" />
<path d="M77503 73352
L77447 73380
L77334 73380
L77278 73352
L77250 73323
L77222 73267
L77222 73099
L77250 73042
L77278 73014
L77334 72986
L77447 72986
L77503 73014
" />
<path d="M77756 73380
L77756 72789
" />
<path d="M77756 73014
L77813 72986
L77925 72986
L77981 73014
L78009 73042
L78037 73099
L78037 73267
L78009 73323
L77981 73352
L77925 73380
L77813 73380
L77756 73352
" />
<path d="M69685 71459
L112205 71459
" />
<path d="M70192 72289
L70276 72317
L70417 72317
L70473 72289
L70501 72260
L70529 72204
L70529 72148
L70501 72092
L70473 72064
L70417 72036
L70304 72007
L70248 71979
L70220 71951
L70192 71895
L70192 71839
L70220 71782
L70248 71754
L70304 71726
L70445 71726
L70529 71754
" />
<path d="M70782 72317
L70782 71726
" />
<path d="M71035 72317
L71035 72007
L71007 71951
L70951 71923
L70867 71923
L70810 71951
L70782 71979
" />
<path d="M71541 72289
L71485 72317
L71373 72317
L71316 72289
L71288 72232
L71288 72007
L71316 71951
L71373 71923
L71485 71923
L71541 71951
L71570 72007
L71570 72064
L71288 72120
" />
<path d="M72048 72289
L71991 72317
L71879 72317
L71823 72289
L71795 72232
L71795 72007
L71823 71951
L71879 71923
L71991 71923
L72048 71951
L72076 72007
L72076 72064
L71795 72120
" />
<path d="M72244 71923
L72469 71923
" />
<path d="M72329 71726
L72329 72232
L72357 72289
L72413 72317
L72469 72317
" />
<path d="M72666 72260
L72694 72289
L72666 72317
L72638 72289
L72666 72260
L72666 72317
" />
<path d="M72666 71951
L72694 71979
L72666 72007
L72638 71979
L72666 71951
L72666 72007
" />
</g>
<g style="fill:#000000; fill-opacity:0.0; 
stroke:#000000; stroke-width:118.11; stroke-opacity:1; 
stroke-linecap:round; stroke-linejoin:round;">
<path d="M70220 71136
L70220 70545
L70445 70545
L70501 70573
L70529 70601
L70557 70658
L70557 70742
L70529 70798
L70501 70826
L70445 70854
L70220 70854
" />
<path d="M70895 71136
L70838 71108
L70810 71079
L70782 71023
L70782 70854
L70810 70798
L70838 70770
L70895 70742
L70979 70742
L71035 70770
L71063 70798
L71091 70854
L71091 71023
L71063 71079
L71035 71108
L70979 71136
L70895 71136
" />
<path d="M71288 70742
L71598 70742
L71288 71136
L71598 71136
" />
<path d="M71795 71108
L71851 71136
L71963 71136
L72019 71108
L72048 71051
L72048 71023
L72019 70967
L71963 70939
L71879 70939
L71823 70911
L71795 70854
L71795 70826
L71823 70770
L71879 70742
L71963 70742
L72019 70770
" />
<path d="M72554 71136
L72554 70826
L72526 70770
L72469 70742
L72357 70742
L72301 70770
" />
<path d="M72554 71108
L72498 71136
L72357 71136
L72301 71108
L72273 71051
L72273 70995
L72301 70939
L72357 70911
L72498 70911
L72554 70883
" />
<path d="M72835 71136
L72835 70742
" />
<path d="M72835 70854
L72863 70798
L72891 70770
L72947 70742
L73004 70742
" />
<path d="M73594 70545
L73988 70545
L73594 71136
L73988 71136
" />
<path d="M74185 71108
L74241 71136
L74354 71136
L74410 71108
L74438 71051
L74438 71023
L74410 70967
L74354 70939
L74269 70939
L74213 70911
L74185 70854
L74185 70826
L74213 70770
L74269 70742
L74354 70742
L74410 70770
" />
<path d="M74775 71136
L74719 71108
L74691 71079
L74663 71023
L74663 70854
L74691 70798
L74719 70770
L74775 70742
L74860 70742
L74916 70770
L74944 70798
L74972 70854
L74972 71023
L74944 71079
L74916 71108
L74860 71136
L74775 71136
" />
<path d="M75310 71136
L75253 71108
L75225 71051
L75225 70545
" />
<path d="M75450 70742
L75675 70742
" />
<path d="M75535 70545
L75535 71051
L75563 71108
L75619 71136
L75675 71136
" />
<path d="M76322 70911
L76772 70911
" />
<path d="M77503 71136
L77503 70545
" />
<path d="M77756 71136
L77756 70826
L77728 70770
L77672 70742
L77588 70742
L77531 70770
L77503 70798
" />
<path d="M77953 70742
L78178 70742
" />
<path d="M78037 70545
L78037 71051
L78066 71108
L78122 71136
L78178 71136
" />
<path d="M78291 70742
L78516 70742
" />
<path d="M78375 70545
L78375 71051
L78403 71108
L78459 71136
L78516 71136
" />
<path d="M78712 70742
L78712 71332
" />
<path d="M78712 70770
L78769 70742
L78881 70742
L78937 70770
L78965 70798
L78994 70854
L78994 71023
L78965 71079
L78937 71108
L78881 71136
L78769 71136
L78712 71108
" />
<path d="M79247 71079
L79275 71108
L79247 71136
L79219 71108
L79247 71079
L79247 71136
" />
<path d="M79247 70770
L79275 70798
L79247 70826
L79219 70798
L79247 70770
L79247 70826
" />
<path d="M79950 70517
L79444 71276
" />
<path d="M80568 70517
L80062 71276
" />
<path d="M80709 70742
L80822 71136
L80934 70854
L81046 71136
L81159 70742
" />
<path d="M81328 70742
L81440 71136
L81553 70854
L81665 71136
L81778 70742
" />
<path d="M81946 70742
L82059 71136
L82171 70854
L82284 71136
L82396 70742
" />
<path d="M82621 71079
L82649 71108
L82621 71136
L82593 71108
L82621 71079
L82621 71136
" />
<path d="M82874 71108
L82931 71136
L83043 71136
L83099 71108
L83127 71051
L83127 71023
L83099 70967
L83043 70939
L82959 70939
L82903 70911
L82874 70854
L82874 70826
L82903 70770
L82959 70742
L83043 70742
L83099 70770
" />
<path d="M83324 70742
L83634 70742
L83324 71136
L83634 71136
" />
<path d="M84084 71108
L84027 71136
L83915 71136
L83859 71108
L83831 71051
L83831 70826
L83859 70770
L83915 70742
L84027 70742
L84084 70770
L84112 70826
L84112 70883
L83831 70939
" />
<path d="M84365 71136
L84365 70742
" />
<path d="M84365 70854
L84393 70798
L84421 70770
L84477 70742
L84534 70742
" />
<path d="M84983 71136
L84983 70826
L84955 70770
L84899 70742
L84787 70742
L84730 70770
" />
<path d="M84983 71108
L84927 71136
L84787 71136
L84730 71108
L84702 71051
L84702 70995
L84730 70939
L84787 70911
L84927 70911
L84983 70883
" />
<path d="M85180 70742
L85405 70742
" />
<path d="M85265 71136
L85265 70629
L85293 70573
L85349 70545
L85405 70545
" />
<path d="M85602 71136
L85602 70742
" />
<path d="M85602 70545
L85574 70573
L85602 70601
L85630 70573
L85602 70545
L85602 70601
" />
<path d="M85883 70742
L85883 71136
" />
<path d="M85883 70798
L85912 70770
L85968 70742
L86052 70742
L86108 70770
L86136 70826
L86136 71136
" />
<path d="M86671 70742
L86671 71220
L86643 71276
L86615 71304
L86558 71332
L86474 71332
L86418 71304
" />
<path d="M86671 71108
L86615 71136
L86502 71136
L86446 71108
L86418 71079
L86390 71023
L86390 70854
L86418 70798
L86446 70770
L86502 70742
L86615 70742
L86671 70770
" />
<path d="M87036 71136
L86980 71108
L86952 71079
L86924 71023
L86924 70854
L86952 70798
L86980 70770
L87036 70742
L87121 70742
L87177 70770
L87205 70798
L87233 70854
L87233 71023
L87205 71079
L87177 71108
L87121 71136
L87036 71136
" />
<path d="M87486 71136
L87486 70742
" />
<path d="M87486 70798
L87514 70770
L87571 70742
L87655 70742
L87711 70770
L87739 70826
L87739 71136
" />
<path d="M87739 70826
L87768 70770
L87824 70742
L87908 70742
L87964 70770
L87992 70826
L87992 71136
" />
<path d="M88274 71136
L88274 70545
" />
<path d="M88274 70770
L88330 70742
L88442 70742
L88499 70770
L88527 70798
L88555 70854
L88555 71023
L88527 71079
L88499 71108
L88442 71136
L88330 71136
L88274 71108
" />
<path d="M89061 71136
L89061 70826
L89033 70770
L88977 70742
L88864 70742
L88808 70770
" />
<path d="M89061 71108
L89005 71136
L88864 71136
L88808 71108
L88780 71051
L88780 70995
L88808 70939
L88864 70911
L89005 70911
L89061 70883
" />
<path d="M89342 71079
L89370 71108
L89342 71136
L89314 71108
L89342 71079
L89342 71136
" />
<path d="M89624 71136
L89624 70545
" />
<path d="M89877 71136
L89877 70826
L89849 70770
L89792 70742
L89708 70742
L89652 70770
L89624 70798
" />
<path d="M90411 70742
L90411 71136
" />
<path d="M90158 70742
L90158 71051
L90186 71108
L90242 71136
L90327 71136
L90383 71108
L90411 71079
" />
</g>
<g style="fill:#000000; fill-opacity:0.0; 
stroke:#000000; stroke-width:59.0551; stroke-opacity:1; 
stroke-linecap:round; stroke-linejoin:round;">
<path d="M70220 69364
L70220 69842
L70248 69898
L70276 69926
L70332 69955
L70445 69955
L70501 69926
L70529 69898
L70557 69842
L70557 69364
" />
<path d="M70838 69561
L70838 69955
" />
<path d="M70838 69617
L70867 69589
L70923 69561
L71007 69561
L71063 69589
L71091 69645
L71091 69955
" />
<path d="M71373 69955
L71373 69561
" />
<path d="M71373 69364
L71345 69392
L71373 69420
L71401 69392
L71373 69364
L71373 69420
" />
<path d="M71570 69561
L71795 69561
" />
<path d="M71654 69364
L71654 69870
L71682 69926
L71738 69955
L71795 69955
" />
<path d="M72441 69364
L72441 69842
L72469 69898
L72498 69926
L72554 69955
L72666 69955
L72723 69926
L72751 69898
L72779 69842
L72779 69364
" />
<path d="M73313 69364
L73201 69364
L73144 69392
L73116 69420
L73060 69505
L73032 69617
L73032 69842
L73060 69898
L73088 69926
L73144 69955
L73257 69955
L73313 69926
L73341 69898
L73369 69842
L73369 69701
L73341 69645
L73313 69617
L73257 69589
L73144 69589
L73088 69617
L73060 69645
L73032 69701
" />
<path d="M70220 66411
L70220 65821
L70360 65821
L70445 65849
L70501 65905
L70529 65961
L70557 66074
L70557 66158
L70529 66271
L70501 66327
L70445 66383
L70360 66411
L70220 66411
" />
<path d="M70810 66411
L70810 66018
" />
<path d="M70810 66130
L70838 66074
L70867 66046
L70923 66018
L70979 66018
" />
<path d="M71429 66411
L71429 66102
L71401 66046
L71345 66018
L71232 66018
L71176 66046
" />
<path d="M71429 66383
L71373 66411
L71232 66411
L71176 66383
L71148 66327
L71148 66271
L71176 66214
L71232 66186
L71373 66186
L71429 66158
" />
<path d="M71654 66018
L71766 66411
L71879 66130
L71991 66411
L72104 66018
" />
<path d="M72779 66018
L72779 66411
" />
<path d="M72779 66074
L72807 66046
L72863 66018
L72947 66018
L73004 66046
L73032 66102
L73032 66411
" />
<path d="M73397 66411
L73341 66383
L73313 66355
L73285 66299
L73285 66130
L73313 66074
L73341 66046
L73397 66018
L73482 66018
L73538 66046
L73566 66074
L73594 66130
L73594 66299
L73566 66355
L73538 66383
L73482 66411
L73397 66411
" />
<path d="M73847 66355
L73876 66383
L73847 66411
L73819 66383
L73847 66355
L73847 66411
" />
<path d="M74129 66355
L74157 66383
L74129 66411
L74100 66383
L74129 66355
L74129 66411
" />
<path d="M74129 66046
L74157 66074
L74129 66102
L74100 66074
L74129 66046
L74129 66102
" />
<path d="M75141 65821
L74860 65821
L74832 66102
L74860 66074
L74916 66046
L75057 66046
L75113 66074
L75141 66102
L75169 66158
L75169 66299
L75141 66355
L75113 66383
L75057 66411
L74916 66411
L74860 66383
L74832 66355
" />
<path d="M75450 66411
L75563 66411
L75619 66383
L75647 66355
L75703 66271
L75732 66158
L75732 65933
L75703 65877
L75675 65849
L75619 65821
L75507 65821
L75450 65849
L75422 65877
L75394 65933
L75394 66074
L75422 66130
L75450 66158
L75507 66186
L75619 66186
L75675 66158
L75703 66130
L75732 66074
" />
<path d="M76406 65793
L75900 66552
" />
<path d="M76885 65821
L76603 65821
L76575 66102
L76603 66074
L76660 66046
L76800 66046
L76856 66074
L76885 66102
L76913 66158
L76913 66299
L76885 66355
L76856 66383
L76800 66411
L76660 66411
L76603 66383
L76575 66355
" />
<path d="M77588 65793
L77081 66552
" />
<path d="M77813 66411
L77925 66411
L77981 66383
L78009 66355
L78066 66271
L78094 66158
L78094 65933
L78066 65877
L78037 65849
L77981 65821
L77869 65821
L77813 65849
L77784 65877
L77756 65933
L77756 66074
L77784 66130
L77813 66158
L77869 66186
L77981 66186
L78037 66158
L78066 66130
L78094 66074
" />
<path d="M77559 75396
L77559 76577
" />
<path d="M102756 75396
L102756 77955
" />
</g> 
</svg>
