<?xml version="1.0" standalone="no"?>
 <!DOCTYPE svg PUBLIC "-//W3C//DTD SVG 1.1//EN" 
 "http://www.w3.org/Graphics/SVG/1.1/DTD/svg11.dtd"> 
<svg xmlns="http://www.w3.org/2000/svg" version="1.1" 
    width="29.7002cm" height="21.0007cm" viewBox="0 0 116930 82680 ">
<title>SVG Picture created as u5-F.SilkS.svg date 2020/02/14 20:20:36 </title>
  <desc>Picture generated by PCBNEW </desc>
<g style="fill:#000000; fill-opacity:1;stroke:#000000; stroke-opacity:1;
stroke-linecap:round; stroke-linejoin:round; "
 transform="translate(0 0) scale(1 1)">
</g>
<g style="fill:#000000; fill-opacity:0.0; 
stroke:#000000; stroke-width:-0.000393701; stroke-opacity:1; 
stroke-linecap:round; stroke-linejoin:round;">
</g>
<g style="fill:#000000; fill-opacity:0.0; 
stroke:#000000; stroke-width:59.0551; stroke-opacity:1; 
stroke-linecap:round; stroke-linejoin:round;">
<rect x="69685.9" y="65357.2" width="42519.7" height="12598.4" rx="0" />
<rect x="3937.01" y="3937.01" width="109056" height="74806" rx="0" />
<rect x="4724.41" y="4724.41" width="107481" height="73231.2" rx="0" />
<path d="M23622 4724
L23622 3937
" />
<path d="M43307 4724
L43307 3937
" />
<path d="M62992 4724
L62992 3937
" />
<path d="M82677 4724
L82677 3937
" />
<path d="M102362 4724
L102362 3937
" />
<path d="M14169 4562
L13877 4562
" />
<path d="M14023 4562
L14023 4050
L13974 4123
L13925 4172
L13877 4196
" />
<path d="M33562 4099
L33586 4074
L33635 4050
L33757 4050
L33805 4074
L33830 4099
L33854 4147
L33854 4196
L33830 4269
L33537 4562
L33854 4562
" />
<path d="M53222 4050
L53539 4050
L53368 4245
L53442 4245
L53490 4269
L53515 4294
L53539 4342
L53539 4464
L53515 4513
L53490 4537
L53442 4562
L53295 4562
L53247 4537
L53222 4513
" />
<path d="M73175 4221
L73175 4562
" />
<path d="M73053 4026
L72932 4391
L73248 4391
" />
<path d="M92885 4050
L92641 4050
L92617 4294
L92641 4269
L92690 4245
L92812 4245
L92860 4269
L92885 4294
L92909 4342
L92909 4464
L92885 4513
L92860 4537
L92812 4562
L92690 4562
L92641 4537
L92617 4513
" />
<path d="M112545 4050
L112448 4050
L112399 4074
L112375 4099
L112326 4172
L112302 4269
L112302 4464
L112326 4513
L112350 4537
L112399 4562
L112497 4562
L112545 4537
L112570 4513
L112594 4464
L112594 4342
L112570 4294
L112545 4269
L112497 4245
L112399 4245
L112350 4269
L112326 4294
L112302 4342
" />
<path d="M23622 77955
L23622 78742
" />
<path d="M43307 77955
L43307 78742
" />
<path d="M62992 77955
L62992 78742
" />
<path d="M82677 77955
L82677 78742
" />
<path d="M102362 77955
L102362 78742
" />
<path d="M14169 78580
L13877 78580
" />
<path d="M14023 78580
L14023 78069
L13974 78142
L13925 78190
L13877 78215
" />
<path d="M33562 78117
L33586 78093
L33635 78069
L33757 78069
L33805 78093
L33830 78117
L33854 78166
L33854 78215
L33830 78288
L33537 78580
L33854 78580
" />
<path d="M53222 78069
L53539 78069
L53368 78263
L53442 78263
L53490 78288
L53515 78312
L53539 78361
L53539 78483
L53515 78532
L53490 78556
L53442 78580
L53295 78580
L53247 78556
L53222 78532
" />
<path d="M73175 78239
L73175 78580
" />
<path d="M73053 78044
L72932 78410
L73248 78410
" />
<path d="M92885 78069
L92641 78069
L92617 78312
L92641 78288
L92690 78263
L92812 78263
L92860 78288
L92885 78312
L92909 78361
L92909 78483
L92885 78532
L92860 78556
L92812 78580
L92690 78580
L92641 78556
L92617 78532
" />
<path d="M112545 78069
L112448 78069
L112399 78093
L112375 78117
L112326 78190
L112302 78288
L112302 78483
L112326 78532
L112350 78556
L112399 78580
L112497 78580
L112545 78556
L112570 78532
L112594 78483
L112594 78361
L112570 78312
L112545 78288
L112497 78263
L112399 78263
L112350 78288
L112326 78312
L112302 78361
" />
<path d="M3937 23622
L4724 23622
" />
<path d="M3937 43307
L4724 43307
" />
<path d="M3937 62992
L4724 62992
" />
<path d="M4208 13864
L4452 13864
" />
<path d="M4160 14011
L4330 13499
L4501 14011
" />
<path d="M4367 33428
L4440 33452
L4464 33476
L4489 33525
L4489 33598
L4464 33647
L4440 33671
L4391 33696
L4196 33696
L4196 33184
L4367 33184
L4416 33208
L4440 33233
L4464 33281
L4464 33330
L4440 33379
L4416 33403
L4367 33428
L4196 33428
" />
<path d="M4489 53332
L4464 53356
L4391 53381
L4342 53381
L4269 53356
L4221 53308
L4196 53259
L4172 53161
L4172 53088
L4196 52991
L4221 52942
L4269 52893
L4342 52869
L4391 52869
L4464 52893
L4489 52918
" />
<path d="M4196 73066
L4196 72554
L4318 72554
L4391 72578
L4440 72627
L4464 72676
L4489 72773
L4489 72846
L4464 72944
L4440 72993
L4391 73041
L4318 73066
L4196 73066
" />
<path d="M112992 23622
L112205 23622
" />
<path d="M112992 43307
L112205 43307
" />
<path d="M112992 62992
L112205 62992
" />
<path d="M112477 13864
L112721 13864
" />
<path d="M112428 14011
L112599 13499
L112769 14011
" />
<path d="M112635 33428
L112708 33452
L112733 33476
L112757 33525
L112757 33598
L112733 33647
L112708 33671
L112660 33696
L112465 33696
L112465 33184
L112635 33184
L112684 33208
L112708 33233
L112733 33281
L112733 33330
L112708 33379
L112684 33403
L112635 33428
L112465 33428
" />
<path d="M112757 53332
L112733 53356
L112660 53381
L112611 53381
L112538 53356
L112489 53308
L112465 53259
L112440 53161
L112440 53088
L112465 52991
L112489 52942
L112538 52893
L112611 52869
L112660 52869
L112733 52893
L112757 52918
" />
<path d="M112465 73066
L112465 72554
L112587 72554
L112660 72578
L112708 72627
L112733 72676
L112757 72773
L112757 72846
L112733 72944
L112708 72993
L112660 73041
L112587 73066
L112465 73066
" />
<path d="M78881 76293
L78881 75703
L79022 75703
L79106 75731
L79162 75787
L79190 75843
L79219 75956
L79219 76040
L79190 76153
L79162 76209
L79106 76265
L79022 76293
L78881 76293
" />
<path d="M79725 76293
L79725 75984
L79697 75928
L79640 75899
L79528 75899
L79472 75928
" />
<path d="M79725 76265
L79669 76293
L79528 76293
L79472 76265
L79444 76209
L79444 76153
L79472 76096
L79528 76068
L79669 76068
L79725 76040
" />
<path d="M79922 75899
L80147 75899
" />
<path d="M80006 75703
L80006 76209
L80034 76265
L80090 76293
L80147 76293
" />
<path d="M80568 76265
L80512 76293
L80400 76293
L80343 76265
L80315 76209
L80315 75984
L80343 75928
L80400 75899
L80512 75899
L80568 75928
L80597 75984
L80597 76040
L80315 76096
" />
<path d="M80850 76237
L80878 76265
L80850 76293
L80822 76265
L80850 76237
L80850 76293
" />
<path d="M80850 75928
L80878 75956
L80850 75984
L80822 75956
L80850 75928
L80850 75984
" />
<path d="M81553 75759
L81581 75731
L81637 75703
L81778 75703
L81834 75731
L81862 75759
L81890 75815
L81890 75871
L81862 75956
L81525 76293
L81890 76293
" />
<path d="M82256 75703
L82312 75703
L82368 75731
L82396 75759
L82424 75815
L82453 75928
L82453 76068
L82424 76181
L82396 76237
L82368 76265
L82312 76293
L82256 76293
L82199 76265
L82171 76237
L82143 76181
L82115 76068
L82115 75928
L82143 75815
L82171 75759
L82199 75731
L82256 75703
" />
<path d="M83015 76293
L82678 76293
" />
<path d="M82846 76293
L82846 75703
L82790 75787
L82734 75843
L82678 75871
" />
<path d="M83296 76293
L83409 76293
L83465 76265
L83493 76237
L83549 76153
L83577 76040
L83577 75815
L83549 75759
L83521 75731
L83465 75703
L83352 75703
L83296 75731
L83268 75759
L83240 75815
L83240 75956
L83268 76012
L83296 76040
L83352 76068
L83465 76068
L83521 76040
L83549 76012
L83577 75956
" />
<path d="M83831 76068
L84280 76068
" />
<path d="M84871 76293
L84534 76293
" />
<path d="M84702 76293
L84702 75703
L84646 75787
L84590 75843
L84534 75871
" />
<path d="M85433 76293
L85096 76293
" />
<path d="M85265 76293
L85265 75703
L85208 75787
L85152 75843
L85096 75871
" />
<path d="M85687 76068
L86136 76068
" />
<path d="M86530 75703
L86586 75703
L86643 75731
L86671 75759
L86699 75815
L86727 75928
L86727 76068
L86699 76181
L86671 76237
L86643 76265
L86586 76293
L86530 76293
L86474 76265
L86446 76237
L86418 76181
L86390 76068
L86390 75928
L86418 75815
L86446 75759
L86474 75731
L86530 75703
" />
<path d="M87289 76293
L86952 76293
" />
<path d="M87121 76293
L87121 75703
L87064 75787
L87008 75843
L86952 75871
" />
<path d="M69685 76577
L112205 76577
" />
<path d="M70220 77395
L70220 76805
" />
<path d="M70557 77395
L70304 77058
" />
<path d="M70557 76805
L70220 77142
" />
<path d="M70810 77395
L70810 77002
" />
<path d="M70810 76805
L70782 76833
L70810 76861
L70838 76833
L70810 76805
L70810 76861
" />
<path d="M71429 77339
L71401 77367
L71316 77395
L71260 77395
L71176 77367
L71120 77311
L71091 77255
L71063 77142
L71063 77058
L71091 76946
L71120 76889
L71176 76833
L71260 76805
L71316 76805
L71401 76833
L71429 76861
" />
<path d="M71935 77395
L71935 77086
L71907 77030
L71851 77002
L71738 77002
L71682 77030
" />
<path d="M71935 77367
L71879 77395
L71738 77395
L71682 77367
L71654 77311
L71654 77255
L71682 77199
L71738 77171
L71879 77171
L71935 77142
" />
<path d="M72469 77395
L72469 76805
" />
<path d="M72469 77367
L72413 77395
L72301 77395
L72244 77367
L72216 77339
L72188 77283
L72188 77114
L72216 77058
L72244 77030
L72301 77002
L72413 77002
L72469 77030
" />
<path d="M73201 77086
L73397 77086
" />
<path d="M73482 77395
L73201 77395
L73201 76805
L73482 76805
" />
<path d="M73735 77339
L73763 77367
L73735 77395
L73707 77367
L73735 77339
L73735 77395
" />
<path d="M74016 77395
L74016 76805
L74157 76805
L74241 76833
L74297 76889
L74325 76946
L74354 77058
L74354 77142
L74325 77255
L74297 77311
L74241 77367
L74157 77395
L74016 77395
" />
<path d="M74607 77339
L74635 77367
L74607 77395
L74579 77367
L74607 77339
L74607 77395
" />
<path d="M74860 77227
L75141 77227
" />
<path d="M74804 77395
L75000 76805
L75197 77395
" />
<path d="M75394 77339
L75422 77367
L75394 77395
L75366 77367
L75394 77339
L75394 77395
" />
<path d="M76575 77395
L76575 76805
" />
<path d="M76631 77171
L76800 77395
" />
<path d="M76800 77002
L76575 77227
" />
<path d="M77053 77395
L77053 77002
" />
<path d="M77053 76805
L77025 76833
L77053 76861
L77081 76833
L77053 76805
L77053 76861
" />
<path d="M77588 77367
L77531 77395
L77419 77395
L77363 77367
L77334 77339
L77306 77283
L77306 77114
L77334 77058
L77363 77030
L77419 77002
L77531 77002
L77588 77030
" />
<path d="M78094 77395
L78094 77086
L78066 77030
L78009 77002
L77897 77002
L77841 77030
" />
<path d="M78094 77367
L78037 77395
L77897 77395
L77841 77367
L77813 77311
L77813 77255
L77841 77199
L77897 77171
L78037 77171
L78094 77142
" />
<path d="M78628 77395
L78628 76805
" />
<path d="M78628 77367
L78572 77395
L78459 77395
L78403 77367
L78375 77339
L78347 77283
L78347 77114
L78375 77058
L78403 77030
L78459 77002
L78572 77002
L78628 77030
" />
<path d="M79612 77002
L79612 77395
" />
<path d="M79472 76777
L79331 77199
L79697 77199
" />
<path d="M79922 77339
L79950 77367
L79922 77395
L79894 77367
L79922 77339
L79922 77395
" />
<path d="M80315 76805
L80372 76805
L80428 76833
L80456 76861
L80484 76917
L80512 77030
L80512 77171
L80484 77283
L80456 77339
L80428 77367
L80372 77395
L80315 77395
L80259 77367
L80231 77339
L80203 77283
L80175 77171
L80175 77030
L80203 76917
L80231 76861
L80259 76833
L80315 76805
" />
<path d="M80765 77339
L80793 77367
L80765 77395
L80737 77367
L80765 77339
L80765 77395
" />
<path d="M81328 76805
L81046 76805
L81018 77086
L81046 77058
L81103 77030
L81243 77030
L81300 77058
L81328 77086
L81356 77142
L81356 77283
L81328 77339
L81300 77367
L81243 77395
L81103 77395
L81046 77367
L81018 77339
" />
<path d="M81609 77171
L82059 77171
" />
<path d="M81834 77395
L81834 76946
" />
<path d="M82593 77395
L82593 76805
" />
<path d="M82593 77367
L82537 77395
L82424 77395
L82368 77367
L82340 77339
L82312 77283
L82312 77114
L82340 77058
L82368 77030
L82424 77002
L82537 77002
L82593 77030
" />
<path d="M82790 77002
L83015 77002
" />
<path d="M82874 77395
L82874 76889
L82903 76833
L82959 76805
L83015 76805
" />
<path d="M83184 77367
L83240 77395
L83352 77395
L83409 77367
L83437 77311
L83437 77283
L83409 77227
L83352 77199
L83268 77199
L83212 77171
L83184 77114
L83184 77086
L83212 77030
L83268 77002
L83352 77002
L83409 77030
" />
<path d="M83943 77002
L83943 77480
L83915 77536
L83887 77564
L83831 77592
L83746 77592
L83690 77564
" />
<path d="M83943 77367
L83887 77395
L83774 77395
L83718 77367
L83690 77339
L83662 77283
L83662 77114
L83690 77058
L83718 77030
L83774 77002
L83887 77002
L83943 77030
" />
<path d="M84534 77395
L84196 77395
" />
<path d="M84365 77395
L84365 76805
L84309 76889
L84252 76946
L84196 76974
" />
<path d="M84787 77171
L85237 77171
" />
<path d="M85771 77002
L85771 77395
" />
<path d="M85630 76777
L85490 77199
L85855 77199
" />
<path d="M69685 75396
L112205 75396
" />
</g>
<g style="fill:#000000; fill-opacity:0.0; 
stroke:#000000; stroke-width:118.11; stroke-opacity:1; 
stroke-linecap:round; stroke-linejoin:round;">
<path d="M104022 76293
L103825 76012
" />
<path d="M103684 76293
L103684 75703
L103909 75703
L103965 75731
L103994 75759
L104022 75815
L104022 75899
L103994 75956
L103965 75984
L103909 76012
L103684 76012
" />
<path d="M104500 76265
L104444 76293
L104331 76293
L104275 76265
L104247 76209
L104247 75984
L104275 75928
L104331 75899
L104444 75899
L104500 75928
L104528 75984
L104528 76040
L104247 76096
" />
<path d="M104725 75899
L104865 76293
L105006 75899
" />
<path d="M105231 76237
L105259 76265
L105231 76293
L105203 76265
L105231 76237
L105231 76293
" />
<path d="M105231 75928
L105259 75956
L105231 75984
L105203 75956
L105231 75928
L105231 75984
" />
<path d="M106271 76293
L105934 76293
" />
<path d="M106103 76293
L106103 75703
L106046 75787
L105990 75843
L105934 75871
" />
<path d="M106553 76293
L106665 76293
L106721 76265
L106750 76237
L106806 76153
L106834 76040
L106834 75815
L106806 75759
L106778 75731
L106721 75703
L106609 75703
L106553 75731
L106525 75759
L106496 75815
L106496 75956
L106525 76012
L106553 76040
L106609 76068
L106721 76068
L106778 76040
L106806 76012
L106834 75956
" />
<path d="M107396 76293
L107059 76293
" />
<path d="M107228 76293
L107228 75703
L107171 75787
L107115 75843
L107059 75871
" />
<path d="M107959 76293
L107621 76293
" />
<path d="M107790 76293
L107790 75703
L107734 75787
L107678 75843
L107621 75871
" />
<path d="M108324 75703
L108381 75703
L108437 75731
L108465 75759
L108493 75815
L108521 75928
L108521 76068
L108493 76181
L108465 76237
L108437 76265
L108381 76293
L108324 76293
L108268 76265
L108240 76237
L108212 76181
L108184 76068
L108184 75928
L108212 75815
L108240 75759
L108268 75731
L108324 75703
" />
<path d="M109084 76293
L108746 76293
" />
<path d="M108915 76293
L108915 75703
L108859 75787
L108802 75843
L108746 75871
" />
</g>
<g style="fill:#000000; fill-opacity:0.0; 
stroke:#000000; stroke-width:59.0551; stroke-opacity:1; 
stroke-linecap:round; stroke-linejoin:round;">
<path d="M70192 76265
L70276 76293
L70417 76293
L70473 76265
L70501 76237
L70529 76181
L70529 76124
L70501 76068
L70473 76040
L70417 76012
L70304 75984
L70248 75956
L70220 75928
L70192 75871
L70192 75815
L70220 75759
L70248 75731
L70304 75703
L70445 75703
L70529 75731
" />
<path d="M70782 76293
L70782 75899
" />
<path d="M70782 75703
L70754 75731
L70782 75759
L70810 75731
L70782 75703
L70782 75759
" />
<path d="M71007 75899
L71316 75899
L71007 76293
L71316 76293
" />
<path d="M71766 76265
L71710 76293
L71598 76293
L71541 76265
L71513 76209
L71513 75984
L71541 75928
L71598 75899
L71710 75899
L71766 75928
L71795 75984
L71795 76040
L71513 76096
" />
<path d="M72048 76237
L72076 76265
L72048 76293
L72019 76265
L72048 76237
L72048 76293
" />
<path d="M72048 75928
L72076 75956
L72048 75984
L72019 75956
L72048 75928
L72048 75984
" />
<path d="M72751 76124
L73032 76124
" />
<path d="M72694 76293
L72891 75703
L73088 76293
" />
<path d="M73538 75899
L73538 76293
" />
<path d="M73397 75674
L73257 76096
L73622 76096
" />
<path d="M103684 77395
L103684 76805
" />
<path d="M104219 77395
L104219 76805
" />
<path d="M104219 77367
L104162 77395
L104050 77395
L103994 77367
L103965 77339
L103937 77283
L103937 77114
L103965 77058
L103994 77030
L104050 77002
L104162 77002
L104219 77030
" />
<path d="M104500 77339
L104528 77367
L104500 77395
L104472 77367
L104500 77339
L104500 77395
" />
<path d="M104500 77030
L104528 77058
L104500 77086
L104472 77058
L104500 77030
L104500 77086
" />
<path d="M105540 77395
L105203 77395
" />
<path d="M105372 77395
L105372 76805
L105315 76889
L105259 76946
L105203 76974
" />
<path d="M106215 76777
L105709 77536
" />
<path d="M106721 77395
L106384 77395
" />
<path d="M106553 77395
L106553 76805
L106496 76889
L106440 76946
L106384 76974
" />
<path d="M69685 73821
L112205 73821
" />
</g>
<g style="fill:#000000; fill-opacity:0.0; 
stroke:#000000; stroke-width:157.48; stroke-opacity:1; 
stroke-linecap:round; stroke-linejoin:round;">
<path d="M70257 74099
L70707 74099
" />
<path d="M70384 74886
L70482 74099
" />
<path d="M70871 74886
L70937 74361
" />
<path d="M70970 74099
L70927 74136
L70960 74174
L71002 74136
L70970 74099
L70960 74174
" />
<path d="M71199 74361
L71499 74361
" />
<path d="M71345 74099
L71260 74774
L71288 74849
L71359 74886
L71434 74886
" />
<path d="M71809 74886
L71738 74849
L71710 74774
L71795 74099
" />
<path d="M72413 74849
L72334 74886
L72184 74886
L72113 74849
L72085 74774
L72123 74474
L72169 74399
L72249 74361
L72399 74361
L72469 74399
L72498 74474
L72488 74549
L72104 74624
" />
<path d="M72793 74811
L72826 74849
L72783 74886
L72751 74849
L72793 74811
L72783 74886
" />
<path d="M72844 74399
L72877 74436
L72835 74474
L72802 74436
L72844 74399
L72835 74474
" />
<path d="M73758 74886
L73857 74099
L74049 74661
L74382 74099
L74283 74886
" />
<path d="M74658 74886
L74757 74099
L74949 74661
L75282 74099
L75183 74886
" />
<path d="M76031 74099
L75657 74099
L75572 74474
L75614 74436
L75694 74399
L75882 74399
L75952 74436
L75985 74474
L76013 74549
L75989 74736
L75942 74811
L75900 74849
L75821 74886
L75633 74886
L75563 74849
L75530 74811
" />
<path d="M76308 74886
L76406 74099
L76594 74099
L76702 74136
L76767 74211
L76795 74286
L76814 74436
L76800 74549
L76744 74699
L76697 74774
L76613 74849
L76495 74886
L76308 74886
" />
<path d="M78155 74811
L78112 74849
L77995 74886
L77920 74886
L77813 74849
L77747 74774
L77719 74699
L77700 74549
L77714 74436
L77770 74286
L77817 74211
L77902 74136
L78019 74099
L78094 74099
L78202 74136
L78234 74174
" />
<path d="M78595 74886
L78525 74849
L78492 74811
L78464 74736
L78492 74511
L78539 74436
L78581 74399
L78661 74361
L78773 74361
L78844 74399
L78876 74436
L78905 74511
L78876 74736
L78830 74811
L78787 74849
L78708 74886
L78595 74886
" />
<path d="M79261 74361
L79195 74886
" />
<path d="M79251 74436
L79294 74399
L79373 74361
L79486 74361
L79556 74399
L79584 74474
L79533 74886
" />
<path d="M79861 74361
L80161 74361
" />
<path d="M80006 74099
L79922 74774
L79950 74849
L80020 74886
L80095 74886
" />
<path d="M80358 74886
L80423 74361
" />
<path d="M80404 74511
L80451 74436
L80493 74399
L80573 74361
L80648 74361
" />
<path d="M80957 74886
L80887 74849
L80854 74811
L80826 74736
L80854 74511
L80901 74436
L80943 74399
L81023 74361
L81136 74361
L81206 74399
L81239 74436
L81267 74511
L81239 74736
L81192 74811
L81150 74849
L81070 74886
L80957 74886
" />
<path d="M81670 74886
L81600 74849
L81571 74774
L81656 74099
" />
<path d="M82082 74886
L82012 74849
L81984 74774
L82068 74099
" />
<path d="M82382 74886
L82448 74361
" />
<path d="M82481 74099
L82438 74136
L82471 74174
L82513 74136
L82481 74099
L82471 74174
" />
<path d="M82823 74361
L82757 74886
" />
<path d="M82813 74436
L82856 74399
L82935 74361
L83048 74361
L83118 74399
L83146 74474
L83095 74886
" />
<path d="M83873 74361
L83793 74999
L83746 75074
L83704 75111
L83624 75149
L83512 75149
L83441 75111
" />
<path d="M83812 74849
L83732 74886
L83582 74886
L83512 74849
L83479 74811
L83451 74736
L83479 74511
L83526 74436
L83568 74399
L83648 74361
L83798 74361
L83868 74399
" />
<path d="M85119 74886
L85171 74474
L85143 74399
L85073 74361
L84923 74361
L84843 74399
" />
<path d="M85124 74849
L85044 74886
L84857 74886
L84787 74849
L84759 74774
L84768 74699
L84815 74624
L84894 74586
L85082 74586
L85162 74549
" />
<path d="M85560 74361
L85494 74886
" />
<path d="M85551 74436
L85593 74399
L85672 74361
L85785 74361
L85855 74399
L85883 74474
L85832 74886
" />
<path d="M86544 74886
L86643 74099
" />
<path d="M86549 74849
L86469 74886
L86319 74886
L86249 74849
L86216 74811
L86188 74736
L86216 74511
L86263 74436
L86305 74399
L86385 74361
L86535 74361
L86605 74399
" />
<path d="M87519 74886
L87585 74361
" />
<path d="M87566 74511
L87613 74436
L87655 74399
L87735 74361
L87810 74361
" />
<path d="M88311 74849
L88232 74886
L88082 74886
L88011 74849
L87983 74774
L88021 74474
L88067 74399
L88147 74361
L88297 74361
L88367 74399
L88396 74474
L88386 74549
L88002 74624
" />
<path d="M88681 74886
L88747 74361
" />
<path d="M88738 74436
L88780 74399
L88860 74361
L88972 74361
L89042 74399
L89070 74474
L89019 74886
" />
<path d="M89070 74474
L89117 74399
L89197 74361
L89310 74361
L89380 74399
L89408 74474
L89356 74886
" />
<path d="M89844 74886
L89774 74849
L89741 74811
L89713 74736
L89741 74511
L89788 74436
L89830 74399
L89909 74361
L90022 74361
L90092 74399
L90125 74436
L90153 74511
L90125 74736
L90078 74811
L90036 74849
L89956 74886
L89844 74886
" />
<path d="M90397 74361
L90697 74361
" />
<path d="M90542 74099
L90458 74774
L90486 74849
L90556 74886
L90631 74886
" />
<path d="M91198 74849
L91119 74886
L90969 74886
L90898 74849
L90870 74774
L90908 74474
L90955 74399
L91034 74361
L91184 74361
L91255 74399
L91283 74474
L91273 74549
L90889 74624
" />
<path d="M92169 74886
L92234 74361
" />
<path d="M92225 74436
L92267 74399
L92347 74361
L92459 74361
L92529 74399
L92558 74474
L92506 74886
" />
<path d="M92558 74474
L92604 74399
L92684 74361
L92797 74361
L92867 74399
L92895 74474
L92843 74886
" />
<path d="M93331 74886
L93261 74849
L93228 74811
L93200 74736
L93228 74511
L93275 74436
L93317 74399
L93397 74361
L93509 74361
L93579 74399
L93612 74436
L93640 74511
L93612 74736
L93565 74811
L93523 74849
L93443 74886
L93331 74886
" />
<path d="M93996 74361
L93931 74886
" />
<path d="M93987 74436
L94029 74399
L94109 74361
L94221 74361
L94292 74399
L94320 74474
L94268 74886
" />
<path d="M94643 74886
L94709 74361
" />
<path d="M94742 74099
L94699 74136
L94732 74174
L94774 74136
L94742 74099
L94732 74174
" />
<path d="M94971 74361
L95271 74361
" />
<path d="M95117 74099
L95032 74774
L95060 74849
L95131 74886
L95206 74886
" />
<path d="M95581 74886
L95510 74849
L95477 74811
L95449 74736
L95477 74511
L95524 74436
L95567 74399
L95646 74361
L95759 74361
L95829 74399
L95862 74436
L95890 74511
L95862 74736
L95815 74811
L95773 74849
L95693 74886
L95581 74886
" />
<path d="M96181 74886
L96246 74361
" />
<path d="M96227 74511
L96274 74436
L96316 74399
L96396 74361
L96471 74361
" />
<path d="M96668 74886
L96734 74361
" />
<path d="M96766 74099
L96724 74136
L96757 74174
L96799 74136
L96766 74099
L96757 74174
" />
<path d="M97109 74361
L97043 74886
" />
<path d="M97099 74436
L97141 74399
L97221 74361
L97334 74361
L97404 74399
L97432 74474
L97380 74886
" />
<path d="M98158 74361
L98079 74999
L98032 75074
L97990 75111
L97910 75149
L97798 75149
L97727 75111
" />
<path d="M98097 74849
L98018 74886
L97868 74886
L97798 74849
L97765 74811
L97737 74736
L97765 74511
L97812 74436
L97854 74399
L97933 74361
L98083 74361
L98154 74399
" />
<path d="M99372 74849
L99293 74886
L99143 74886
L99072 74849
L99044 74774
L99082 74474
L99129 74399
L99208 74361
L99358 74361
L99429 74399
L99457 74474
L99447 74549
L99063 74624
" />
<path d="M100146 74361
L100047 75149
" />
<path d="M100085 74849
L100005 74886
L99855 74886
L99785 74849
L99752 74811
L99724 74736
L99752 74511
L99799 74436
L99841 74399
L99921 74361
L100071 74361
L100141 74399
" />
<path d="M100858 74361
L100792 74886
" />
<path d="M100521 74361
L100469 74774
L100497 74849
L100567 74886
L100680 74886
L100760 74849
L100802 74811
" />
<path d="M101167 74886
L101233 74361
" />
<path d="M101266 74099
L101224 74136
L101256 74174
L101299 74136
L101266 74099
L101256 74174
" />
<path d="M101608 74361
L101510 75149
" />
<path d="M101603 74399
L101683 74361
L101833 74361
L101903 74399
L101936 74436
L101964 74511
L101936 74736
L101889 74811
L101847 74849
L101767 74886
L101617 74886
L101547 74849
" />
<path d="M102255 74886
L102320 74361
" />
<path d="M102311 74436
L102353 74399
L102433 74361
L102545 74361
L102616 74399
L102644 74474
L102592 74886
" />
<path d="M102644 74474
L102691 74399
L102770 74361
L102883 74361
L102953 74399
L102981 74474
L102930 74886
" />
<path d="M103609 74849
L103530 74886
L103380 74886
L103309 74849
L103281 74774
L103319 74474
L103366 74399
L103445 74361
L103595 74361
L103666 74399
L103694 74474
L103684 74549
L103300 74624
" />
<path d="M104045 74361
L103980 74886
" />
<path d="M104036 74436
L104078 74399
L104158 74361
L104270 74361
L104340 74399
L104369 74474
L104317 74886
" />
<path d="M104645 74361
L104945 74361
" />
<path d="M104790 74099
L104706 74774
L104734 74849
L104804 74886
L104879 74886
" />
</g>
<g style="fill:#000000; fill-opacity:0.0; 
stroke:#000000; stroke-width:59.0551; stroke-opacity:1; 
stroke-linecap:round; stroke-linejoin:round;">
<path d="M70417 73070
L70220 73070
" />
<path d="M70220 73380
L70220 72789
L70501 72789
" />
<path d="M70726 73380
L70726 72986
" />
<path d="M70726 72789
L70698 72817
L70726 72845
L70754 72817
L70726 72789
L70726 72845
" />
<path d="M71091 73380
L71035 73352
L71007 73295
L71007 72789
" />
<path d="M71541 73352
L71485 73380
L71373 73380
L71316 73352
L71288 73295
L71288 73070
L71316 73014
L71373 72986
L71485 72986
L71541 73014
L71570 73070
L71570 73127
L71288 73183
" />
<path d="M71823 73323
L71851 73352
L71823 73380
L71795 73352
L71823 73323
L71823 73380
" />
<path d="M71823 73014
L71851 73042
L71823 73070
L71795 73042
L71823 73014
L71823 73070
" />
<path d="M72807 72986
L72807 73380
" />
<path d="M72554 72986
L72554 73295
L72582 73352
L72638 73380
L72723 73380
L72779 73352
L72807 73323
" />
<path d="M73369 72789
L73088 72789
L73060 73070
L73088 73042
L73144 73014
L73285 73014
L73341 73042
L73369 73070
L73397 73127
L73397 73267
L73369 73323
L73341 73352
L73285 73380
L73144 73380
L73088 73352
L73060 73323
" />
<path d="M73651 73323
L73679 73352
L73651 73380
L73622 73352
L73651 73323
L73651 73380
" />
<path d="M73932 73380
L73932 72789
" />
<path d="M73988 73155
L74157 73380
" />
<path d="M74157 72986
L73932 73211
" />
<path d="M74410 73380
L74410 72986
" />
<path d="M74410 72789
L74382 72817
L74410 72845
L74438 72817
L74410 72789
L74410 72845
" />
<path d="M74944 73352
L74888 73380
L74775 73380
L74719 73352
L74691 73323
L74663 73267
L74663 73099
L74691 73042
L74719 73014
L74775 72986
L74888 72986
L74944 73014
" />
<path d="M75450 73380
L75450 73070
L75422 73014
L75366 72986
L75253 72986
L75197 73014
" />
<path d="M75450 73352
L75394 73380
L75253 73380
L75197 73352
L75169 73295
L75169 73239
L75197 73183
L75253 73155
L75394 73155
L75450 73127
" />
<path d="M75985 73380
L75985 72789
" />
<path d="M75985 73352
L75928 73380
L75816 73380
L75760 73352
L75732 73323
L75703 73267
L75703 73099
L75732 73042
L75760 73014
L75816 72986
L75928 72986
L75985 73014
" />
<path d="M76125 73436
L76575 73436
" />
<path d="M76716 72986
L76716 73577
" />
<path d="M76716 73014
L76772 72986
L76885 72986
L76941 73014
L76969 73042
L76997 73099
L76997 73267
L76969 73323
L76941 73352
L76885 73380
L76772 73380
L76716 73352
" />
<path d="M77503 73352
L77447 73380
L77334 73380
L77278 73352
L77250 73323
L77222 73267
L77222 73099
L77250 73042
L77278 73014
L77334 72986
L77447 72986
L77503 73014
" />
<path d="M77756 73380
L77756 72789
" />
<path d="M77756 73014
L77813 72986
L77925 72986
L77981 73014
L78009 73042
L78037 73099
L78037 73267
L78009 73323
L77981 73352
L77925 73380
L77813 73380
L77756 73352
" />
<path d="M69685 71459
L112205 71459
" />
<path d="M70192 72289
L70276 72317
L70417 72317
L70473 72289
L70501 72260
L70529 72204
L70529 72148
L70501 72092
L70473 72064
L70417 72036
L70304 72007
L70248 71979
L70220 71951
L70192 71895
L70192 71839
L70220 71782
L70248 71754
L70304 71726
L70445 71726
L70529 71754
" />
<path d="M70782 72317
L70782 71726
" />
<path d="M71035 72317
L71035 72007
L71007 71951
L70951 71923
L70867 71923
L70810 71951
L70782 71979
" />
<path d="M71541 72289
L71485 72317
L71373 72317
L71316 72289
L71288 72232
L71288 72007
L71316 71951
L71373 71923
L71485 71923
L71541 71951
L71570 72007
L71570 72064
L71288 72120
" />
<path d="M72048 72289
L71991 72317
L71879 72317
L71823 72289
L71795 72232
L71795 72007
L71823 71951
L71879 71923
L71991 71923
L72048 71951
L72076 72007
L72076 72064
L71795 72120
" />
<path d="M72244 71923
L72469 71923
" />
<path d="M72329 71726
L72329 72232
L72357 72289
L72413 72317
L72469 72317
" />
<path d="M72666 72260
L72694 72289
L72666 72317
L72638 72289
L72666 72260
L72666 72317
" />
<path d="M72666 71951
L72694 71979
L72666 72007
L72638 71979
L72666 71951
L72666 72007
" />
</g>
<g style="fill:#000000; fill-opacity:0.0; 
stroke:#000000; stroke-width:118.11; stroke-opacity:1; 
stroke-linecap:round; stroke-linejoin:round;">
<path d="M70220 71136
L70220 70545
L70445 70545
L70501 70573
L70529 70601
L70557 70658
L70557 70742
L70529 70798
L70501 70826
L70445 70854
L70220 70854
" />
<path d="M70895 71136
L70838 71108
L70810 71079
L70782 71023
L70782 70854
L70810 70798
L70838 70770
L70895 70742
L70979 70742
L71035 70770
L71063 70798
L71091 70854
L71091 71023
L71063 71079
L71035 71108
L70979 71136
L70895 71136
" />
<path d="M71288 70742
L71598 70742
L71288 71136
L71598 71136
" />
<path d="M71795 71108
L71851 71136
L71963 71136
L72019 71108
L72048 71051
L72048 71023
L72019 70967
L71963 70939
L71879 70939
L71823 70911
L71795 70854
L71795 70826
L71823 70770
L71879 70742
L71963 70742
L72019 70770
" />
<path d="M72554 71136
L72554 70826
L72526 70770
L72469 70742
L72357 70742
L72301 70770
" />
<path d="M72554 71108
L72498 71136
L72357 71136
L72301 71108
L72273 71051
L72273 70995
L72301 70939
L72357 70911
L72498 70911
L72554 70883
" />
<path d="M72835 71136
L72835 70742
" />
<path d="M72835 70854
L72863 70798
L72891 70770
L72947 70742
L73004 70742
" />
<path d="M73594 70545
L73988 70545
L73594 71136
L73988 71136
" />
<path d="M74185 71108
L74241 71136
L74354 71136
L74410 71108
L74438 71051
L74438 71023
L74410 70967
L74354 70939
L74269 70939
L74213 70911
L74185 70854
L74185 70826
L74213 70770
L74269 70742
L74354 70742
L74410 70770
" />
<path d="M74775 71136
L74719 71108
L74691 71079
L74663 71023
L74663 70854
L74691 70798
L74719 70770
L74775 70742
L74860 70742
L74916 70770
L74944 70798
L74972 70854
L74972 71023
L74944 71079
L74916 71108
L74860 71136
L74775 71136
" />
<path d="M75310 71136
L75253 71108
L75225 71051
L75225 70545
" />
<path d="M75450 70742
L75675 70742
" />
<path d="M75535 70545
L75535 71051
L75563 71108
L75619 71136
L75675 71136
" />
<path d="M76322 70911
L76772 70911
" />
<path d="M77503 71136
L77503 70545
" />
<path d="M77756 71136
L77756 70826
L77728 70770
L77672 70742
L77588 70742
L77531 70770
L77503 70798
" />
<path d="M77953 70742
L78178 70742
" />
<path d="M78037 70545
L78037 71051
L78066 71108
L78122 71136
L78178 71136
" />
<path d="M78291 70742
L78516 70742
" />
<path d="M78375 70545
L78375 71051
L78403 71108
L78459 71136
L78516 71136
" />
<path d="M78712 70742
L78712 71332
" />
<path d="M78712 70770
L78769 70742
L78881 70742
L78937 70770
L78965 70798
L78994 70854
L78994 71023
L78965 71079
L78937 71108
L78881 71136
L78769 71136
L78712 71108
" />
<path d="M79247 71079
L79275 71108
L79247 71136
L79219 71108
L79247 71079
L79247 71136
" />
<path d="M79247 70770
L79275 70798
L79247 70826
L79219 70798
L79247 70770
L79247 70826
" />
<path d="M79950 70517
L79444 71276
" />
<path d="M80568 70517
L80062 71276
" />
<path d="M80709 70742
L80822 71136
L80934 70854
L81046 71136
L81159 70742
" />
<path d="M81328 70742
L81440 71136
L81553 70854
L81665 71136
L81778 70742
" />
<path d="M81946 70742
L82059 71136
L82171 70854
L82284 71136
L82396 70742
" />
<path d="M82621 71079
L82649 71108
L82621 71136
L82593 71108
L82621 71079
L82621 71136
" />
<path d="M82874 71108
L82931 71136
L83043 71136
L83099 71108
L83127 71051
L83127 71023
L83099 70967
L83043 70939
L82959 70939
L82903 70911
L82874 70854
L82874 70826
L82903 70770
L82959 70742
L83043 70742
L83099 70770
" />
<path d="M83324 70742
L83634 70742
L83324 71136
L83634 71136
" />
<path d="M84084 71108
L84027 71136
L83915 71136
L83859 71108
L83831 71051
L83831 70826
L83859 70770
L83915 70742
L84027 70742
L84084 70770
L84112 70826
L84112 70883
L83831 70939
" />
<path d="M84365 71136
L84365 70742
" />
<path d="M84365 70854
L84393 70798
L84421 70770
L84477 70742
L84534 70742
" />
<path d="M84983 71136
L84983 70826
L84955 70770
L84899 70742
L84787 70742
L84730 70770
" />
<path d="M84983 71108
L84927 71136
L84787 71136
L84730 71108
L84702 71051
L84702 70995
L84730 70939
L84787 70911
L84927 70911
L84983 70883
" />
<path d="M85180 70742
L85405 70742
" />
<path d="M85265 71136
L85265 70629
L85293 70573
L85349 70545
L85405 70545
" />
<path d="M85602 71136
L85602 70742
" />
<path d="M85602 70545
L85574 70573
L85602 70601
L85630 70573
L85602 70545
L85602 70601
" />
<path d="M85883 70742
L85883 71136
" />
<path d="M85883 70798
L85912 70770
L85968 70742
L86052 70742
L86108 70770
L86136 70826
L86136 71136
" />
<path d="M86671 70742
L86671 71220
L86643 71276
L86615 71304
L86558 71332
L86474 71332
L86418 71304
" />
<path d="M86671 71108
L86615 71136
L86502 71136
L86446 71108
L86418 71079
L86390 71023
L86390 70854
L86418 70798
L86446 70770
L86502 70742
L86615 70742
L86671 70770
" />
<path d="M87036 71136
L86980 71108
L86952 71079
L86924 71023
L86924 70854
L86952 70798
L86980 70770
L87036 70742
L87121 70742
L87177 70770
L87205 70798
L87233 70854
L87233 71023
L87205 71079
L87177 71108
L87121 71136
L87036 71136
" />
<path d="M87486 71136
L87486 70742
" />
<path d="M87486 70798
L87514 70770
L87571 70742
L87655 70742
L87711 70770
L87739 70826
L87739 71136
" />
<path d="M87739 70826
L87768 70770
L87824 70742
L87908 70742
L87964 70770
L87992 70826
L87992 71136
" />
<path d="M88274 71136
L88274 70545
" />
<path d="M88274 70770
L88330 70742
L88442 70742
L88499 70770
L88527 70798
L88555 70854
L88555 71023
L88527 71079
L88499 71108
L88442 71136
L88330 71136
L88274 71108
" />
<path d="M89061 71136
L89061 70826
L89033 70770
L88977 70742
L88864 70742
L88808 70770
" />
<path d="M89061 71108
L89005 71136
L88864 71136
L88808 71108
L88780 71051
L88780 70995
L88808 70939
L88864 70911
L89005 70911
L89061 70883
" />
<path d="M89342 71079
L89370 71108
L89342 71136
L89314 71108
L89342 71079
L89342 71136
" />
<path d="M89624 71136
L89624 70545
" />
<path d="M89877 71136
L89877 70826
L89849 70770
L89792 70742
L89708 70742
L89652 70770
L89624 70798
" />
<path d="M90411 70742
L90411 71136
" />
<path d="M90158 70742
L90158 71051
L90186 71108
L90242 71136
L90327 71136
L90383 71108
L90411 71079
" />
</g>
<g style="fill:#000000; fill-opacity:0.0; 
stroke:#000000; stroke-width:59.0551; stroke-opacity:1; 
stroke-linecap:round; stroke-linejoin:round;">
<path d="M70220 69955
L70220 69364
L70417 69786
L70613 69364
L70613 69955
" />
<path d="M70979 69955
L70923 69926
L70895 69898
L70867 69842
L70867 69673
L70895 69617
L70923 69589
L70979 69561
L71063 69561
L71120 69589
L71148 69617
L71176 69673
L71176 69842
L71148 69898
L71120 69926
L71063 69955
L70979 69955
" />
<path d="M71682 69955
L71682 69364
" />
<path d="M71682 69926
L71626 69955
L71513 69955
L71457 69926
L71429 69898
L71401 69842
L71401 69673
L71429 69617
L71457 69589
L71513 69561
L71626 69561
L71682 69589
" />
<path d="M72216 69561
L72216 69955
" />
<path d="M71963 69561
L71963 69870
L71991 69926
L72048 69955
L72132 69955
L72188 69926
L72216 69898
" />
<path d="M72582 69955
L72526 69926
L72498 69870
L72498 69364
" />
<path d="M73032 69926
L72976 69955
L72863 69955
L72807 69926
L72779 69870
L72779 69645
L72807 69589
L72863 69561
L72976 69561
L73032 69589
L73060 69645
L73060 69701
L72779 69758
" />
<path d="M73763 69364
L73763 69842
L73791 69898
L73819 69926
L73876 69955
L73988 69955
L74044 69926
L74072 69898
L74100 69842
L74100 69364
" />
<path d="M74663 69364
L74382 69364
L74354 69645
L74382 69617
L74438 69589
L74579 69589
L74635 69617
L74663 69645
L74691 69701
L74691 69842
L74663 69898
L74635 69926
L74579 69955
L74438 69955
L74382 69926
L74354 69898
" />
<path d="M70220 68773
L70220 68183
" />
<path d="M70501 68380
L70501 68773
" />
<path d="M70501 68436
L70529 68408
L70585 68380
L70670 68380
L70726 68408
L70754 68464
L70754 68773
" />
<path d="M71035 68380
L71035 68970
" />
<path d="M71035 68408
L71091 68380
L71204 68380
L71260 68408
L71288 68436
L71316 68492
L71316 68661
L71288 68717
L71260 68745
L71204 68773
L71091 68773
L71035 68745
" />
<path d="M71823 68380
L71823 68773
" />
<path d="M71570 68380
L71570 68689
L71598 68745
L71654 68773
L71738 68773
L71795 68745
L71823 68717
" />
<path d="M72019 68380
L72244 68380
" />
<path d="M72104 68183
L72104 68689
L72132 68745
L72188 68773
L72244 68773
" />
<path d="M72413 68745
L72469 68773
L72582 68773
L72638 68745
L72666 68689
L72666 68661
L72638 68605
L72582 68577
L72498 68577
L72441 68548
L72413 68492
L72413 68464
L72441 68408
L72498 68380
L72582 68380
L72638 68408
" />
<path d="M70220 66411
L70220 65821
L70360 65821
L70445 65849
L70501 65905
L70529 65961
L70557 66074
L70557 66158
L70529 66271
L70501 66327
L70445 66383
L70360 66411
L70220 66411
" />
<path d="M70810 66411
L70810 66018
" />
<path d="M70810 66130
L70838 66074
L70867 66046
L70923 66018
L70979 66018
" />
<path d="M71429 66411
L71429 66102
L71401 66046
L71345 66018
L71232 66018
L71176 66046
" />
<path d="M71429 66383
L71373 66411
L71232 66411
L71176 66383
L71148 66327
L71148 66271
L71176 66214
L71232 66186
L71373 66186
L71429 66158
" />
<path d="M71654 66018
L71766 66411
L71879 66130
L71991 66411
L72104 66018
" />
<path d="M72779 66018
L72779 66411
" />
<path d="M72779 66074
L72807 66046
L72863 66018
L72947 66018
L73004 66046
L73032 66102
L73032 66411
" />
<path d="M73397 66411
L73341 66383
L73313 66355
L73285 66299
L73285 66130
L73313 66074
L73341 66046
L73397 66018
L73482 66018
L73538 66046
L73566 66074
L73594 66130
L73594 66299
L73566 66355
L73538 66383
L73482 66411
L73397 66411
" />
<path d="M73847 66355
L73876 66383
L73847 66411
L73819 66383
L73847 66355
L73847 66411
" />
<path d="M74129 66355
L74157 66383
L74129 66411
L74100 66383
L74129 66355
L74129 66411
" />
<path d="M74129 66046
L74157 66074
L74129 66102
L74100 66074
L74129 66046
L74129 66102
" />
<path d="M75141 65821
L74860 65821
L74832 66102
L74860 66074
L74916 66046
L75057 66046
L75113 66074
L75141 66102
L75169 66158
L75169 66299
L75141 66355
L75113 66383
L75057 66411
L74916 66411
L74860 66383
L74832 66355
" />
<path d="M75450 66411
L75563 66411
L75619 66383
L75647 66355
L75703 66271
L75732 66158
L75732 65933
L75703 65877
L75675 65849
L75619 65821
L75507 65821
L75450 65849
L75422 65877
L75394 65933
L75394 66074
L75422 66130
L75450 66158
L75507 66186
L75619 66186
L75675 66158
L75703 66130
L75732 66074
" />
<path d="M76406 65793
L75900 66552
" />
<path d="M76885 65821
L76603 65821
L76575 66102
L76603 66074
L76660 66046
L76800 66046
L76856 66074
L76885 66102
L76913 66158
L76913 66299
L76885 66355
L76856 66383
L76800 66411
L76660 66411
L76603 66383
L76575 66355
" />
<path d="M77588 65793
L77081 66552
" />
<path d="M77869 66074
L77813 66046
L77784 66018
L77756 65961
L77756 65933
L77784 65877
L77813 65849
L77869 65821
L77981 65821
L78037 65849
L78066 65877
L78094 65933
L78094 65961
L78066 66018
L78037 66046
L77981 66074
L77869 66074
L77813 66102
L77784 66130
L77756 66186
L77756 66299
L77784 66355
L77813 66383
L77869 66411
L77981 66411
L78037 66383
L78066 66355
L78094 66299
L78094 66186
L78066 66130
L78037 66102
L77981 66074
" />
<path d="M77559 75396
L77559 76577
" />
<path d="M102756 75396
L102756 77955
" />
</g>
<g style="fill:#000000; fill-opacity:0.0; 
stroke:#000000; stroke-width:118.11; stroke-opacity:1; 
stroke-linecap:round; stroke-linejoin:round;">
<path d="M52728 48534
L52728 47353
L53122 48196
L53516 47353
L53516 48534
" />
<path d="M54078 48534
L54078 47353
L54472 48196
L54865 47353
L54865 48534
" />
<path d="M55990 47353
L55428 47353
L55372 47915
L55428 47859
L55540 47803
L55821 47803
L55934 47859
L55990 47915
L56046 48028
L56046 48309
L55990 48421
L55934 48478
L55821 48534
L55540 48534
L55428 48478
L55372 48421
" />
<path d="M56553 48534
L56553 47353
L56834 47353
L57003 47409
L57115 47521
L57171 47634
L57228 47859
L57228 48028
L57171 48253
L57115 48365
L57003 48478
L56834 48534
L56553 48534
" />
<path d="M58577 47296
L57565 48815
" />
<path d="M58971 47353
L58971 48309
L59027 48421
L59084 48478
L59196 48534
L59421 48534
L59534 48478
L59590 48421
L59646 48309
L59646 47353
" />
<path d="M60771 47353
L60208 47353
L60152 47915
L60208 47859
L60321 47803
L60602 47803
L60715 47859
L60771 47915
L60827 48028
L60827 48309
L60771 48421
L60715 48478
L60602 48534
L60321 48534
L60208 48478
L60152 48421
" />
<path d="M40003 35176
L40115 35176
L40171 35204
L40228 35260
L40256 35373
L40256 35570
L40228 35682
L40171 35739
L40115 35767
L40003 35767
L39946 35739
L39890 35682
L39862 35570
L39862 35373
L39890 35260
L39946 35204
L40003 35176
" />
<path d="M40509 35176
L40509 35654
L40537 35710
L40565 35739
L40621 35767
L40734 35767
L40790 35739
L40818 35710
L40846 35654
L40846 35176
" />
<path d="M41043 35176
L41381 35176
" />
<path d="M41212 35767
L41212 35176
" />
<path d="M41830 35373
L41830 35767
" />
<path d="M41690 35148
L41549 35570
L41915 35570
" />
<path d="M40003 36176
L40115 36176
L40171 36204
L40228 36260
L40256 36373
L40256 36570
L40228 36682
L40171 36739
L40115 36767
L40003 36767
L39946 36739
L39890 36682
L39862 36570
L39862 36373
L39890 36260
L39946 36204
L40003 36176
" />
<path d="M40509 36176
L40509 36654
L40537 36710
L40565 36739
L40621 36767
L40734 36767
L40790 36739
L40818 36710
L40846 36654
L40846 36176
" />
<path d="M41043 36176
L41381 36176
" />
<path d="M41212 36767
L41212 36176
" />
<path d="M41521 36176
L41887 36176
L41690 36401
L41774 36401
L41830 36429
L41859 36457
L41887 36514
L41887 36654
L41859 36710
L41830 36739
L41774 36767
L41606 36767
L41549 36739
L41521 36710
" />
<path d="M40003 37176
L40115 37176
L40171 37204
L40228 37260
L40256 37373
L40256 37570
L40228 37682
L40171 37739
L40115 37767
L40003 37767
L39946 37739
L39890 37682
L39862 37570
L39862 37373
L39890 37260
L39946 37204
L40003 37176
" />
<path d="M40509 37176
L40509 37654
L40537 37710
L40565 37739
L40621 37767
L40734 37767
L40790 37739
L40818 37710
L40846 37654
L40846 37176
" />
<path d="M41043 37176
L41381 37176
" />
<path d="M41212 37767
L41212 37176
" />
<path d="M41549 37232
L41577 37204
L41634 37176
L41774 37176
L41830 37204
L41859 37232
L41887 37289
L41887 37345
L41859 37429
L41521 37767
L41887 37767
" />
<path d="M40003 38176
L40115 38176
L40171 38204
L40228 38260
L40256 38373
L40256 38570
L40228 38682
L40171 38739
L40115 38767
L40003 38767
L39946 38739
L39890 38682
L39862 38570
L39862 38373
L39890 38260
L39946 38204
L40003 38176
" />
<path d="M40509 38176
L40509 38654
L40537 38710
L40565 38739
L40621 38767
L40734 38767
L40790 38739
L40818 38710
L40846 38654
L40846 38176
" />
<path d="M41043 38176
L41381 38176
" />
<path d="M41212 38767
L41212 38176
" />
<path d="M41887 38767
L41549 38767
" />
<path d="M41718 38767
L41718 38176
L41662 38260
L41606 38317
L41549 38345
" />
<path d="M39862 39739
L39946 39767
L40087 39767
L40143 39739
L40171 39710
L40199 39654
L40199 39598
L40171 39542
L40143 39514
L40087 39485
L39974 39457
L39918 39429
L39890 39401
L39862 39345
L39862 39289
L39890 39232
L39918 39204
L39974 39176
L40115 39176
L40199 39204
" />
<path d="M40453 39457
L40649 39457
" />
<path d="M40734 39767
L40453 39767
L40453 39176
L40734 39176
" />
<path d="M40987 39767
L40987 39176
L41324 39767
L41324 39176
" />
<path d="M41577 39739
L41662 39767
L41802 39767
L41859 39739
L41887 39710
L41915 39654
L41915 39598
L41887 39542
L41859 39514
L41802 39485
L41690 39457
L41634 39429
L41606 39401
L41577 39345
L41577 39289
L41606 39232
L41634 39204
L41690 39176
L41830 39176
L41915 39204
" />
<path d="M39806 40176
L40003 40767
L40199 40176
" />
<path d="M40734 40710
L40706 40739
L40621 40767
L40565 40767
L40481 40739
L40424 40682
L40396 40626
L40368 40514
L40368 40429
L40396 40317
L40424 40260
L40481 40204
L40565 40176
L40621 40176
L40706 40204
L40734 40232
" />
<path d="M41324 40710
L41296 40739
L41212 40767
L41156 40767
L41071 40739
L41015 40682
L40987 40626
L40959 40514
L40959 40429
L40987 40317
L41015 40260
L41071 40204
L41156 40176
L41212 40176
L41296 40204
L41324 40232
" />
<path d="M41859 40176
L41577 40176
L41549 40457
L41577 40429
L41634 40401
L41774 40401
L41830 40429
L41859 40457
L41887 40514
L41887 40654
L41859 40710
L41830 40739
L41774 40767
L41634 40767
L41577 40739
L41549 40710
" />
</g>
<g style="fill:#000000; fill-opacity:0.0; 
stroke:#000000; stroke-width:78.7402; stroke-opacity:1; 
stroke-linecap:round; stroke-linejoin:round;">
<path d="M52000 45000
L52000 42000
" />
</g>
<g style="fill:#000000; fill-opacity:0.0; 
stroke:#000000; stroke-width:118.11; stroke-opacity:1; 
stroke-linecap:round; stroke-linejoin:round;">
<path d="M65140 46542
L65590 46542
" />
<path d="M65365 46767
L65365 46317
" />
<path d="M66152 46176
L65871 46176
L65843 46457
L65871 46429
L65928 46401
L66068 46401
L66124 46429
L66152 46457
L66181 46514
L66181 46654
L66152 46710
L66124 46739
L66068 46767
L65928 46767
L65871 46739
L65843 46710
" />
<path d="M66349 46176
L66546 46767
L66743 46176
" />
<path d="M65140 44767
L65140 44176
L65281 44176
L65365 44204
L65421 44260
L65449 44317
L65478 44429
L65478 44514
L65449 44626
L65421 44682
L65365 44739
L65281 44767
L65140 44767
" />
<path d="M65984 44767
L65984 44457
L65956 44401
L65899 44373
L65787 44373
L65731 44401
" />
<path d="M65984 44739
L65928 44767
L65787 44767
L65731 44739
L65703 44682
L65703 44626
L65731 44570
L65787 44542
L65928 44542
L65984 44514
" />
<path d="M66181 44373
L66406 44373
" />
<path d="M66265 44176
L66265 44682
L66293 44739
L66349 44767
L66406 44767
" />
<path d="M66856 44767
L66856 44457
L66827 44401
L66771 44373
L66659 44373
L66602 44401
" />
<path d="M66856 44739
L66799 44767
L66659 44767
L66602 44739
L66574 44682
L66574 44626
L66602 44570
L66659 44542
L66799 44542
L66856 44514
" />
<path d="M65449 42204
L65393 42176
L65309 42176
L65224 42204
L65168 42260
L65140 42317
L65112 42429
L65112 42514
L65140 42626
L65168 42682
L65224 42739
L65309 42767
L65365 42767
L65449 42739
L65478 42710
L65478 42514
L65365 42514
" />
<path d="M65731 42767
L65731 42176
L66068 42767
L66068 42176
" />
<path d="M66349 42767
L66349 42176
L66490 42176
L66574 42204
L66631 42260
L66659 42317
L66687 42429
L66687 42514
L66659 42626
L66631 42682
L66574 42739
L66490 42767
L66349 42767
" />
<path d="M65140 40267
L65140 39676
" />
<path d="M65421 39873
L65421 40267
" />
<path d="M65421 39929
L65449 39901
L65506 39873
L65590 39873
L65646 39901
L65674 39957
L65674 40267
" />
<path d="M66265 40267
L65928 40267
" />
<path d="M66096 40267
L66096 39676
L66040 39760
L65984 39817
L65928 39845
" />
<path d="M65140 38267
L65140 37676
" />
<path d="M65421 37873
L65421 38267
" />
<path d="M65421 37929
L65449 37901
L65506 37873
L65590 37873
L65646 37901
L65674 37957
L65674 38267
" />
<path d="M65928 37732
L65956 37704
L66012 37676
L66152 37676
L66209 37704
L66237 37732
L66265 37789
L66265 37845
L66237 37929
L65899 38267
L66265 38267
" />
<path d="M65140 36267
L65140 35676
" />
<path d="M65421 35873
L65421 36267
" />
<path d="M65421 35929
L65449 35901
L65506 35873
L65590 35873
L65646 35901
L65674 35957
L65674 36267
" />
<path d="M65899 35676
L66265 35676
L66068 35901
L66152 35901
L66209 35929
L66237 35957
L66265 36014
L66265 36154
L66237 36210
L66209 36239
L66152 36267
L65984 36267
L65928 36239
L65899 36210
" />
<path d="M65140 34267
L65140 33676
" />
<path d="M65421 33873
L65421 34267
" />
<path d="M65421 33929
L65449 33901
L65506 33873
L65590 33873
L65646 33901
L65674 33957
L65674 34267
" />
<path d="M66209 33873
L66209 34267
" />
<path d="M66068 33648
L65928 34070
L66293 34070
" />
</g>
<g style="fill:#000000; fill-opacity:0.0; 
stroke:#000000; stroke-width:78.7402; stroke-opacity:1; 
stroke-linecap:round; stroke-linejoin:round;">
<path d="M62500 47500
L62500 41500
" />
<path d="M64500 47500
L62500 47500
" />
<path d="M64500 41500
L64500 47500
" />
<path d="M62500 41500
L64500 41500
" />
<path d="M64500 41000
L64500 31000
" />
<path d="M62500 41000
L64500 41000
" />
<path d="M62500 31000
L62500 41000
" />
<path d="M64500 31000
L62500 31000
" />
</g>
<g style="fill:#000000; fill-opacity:0.0; 
stroke:#000000; stroke-width:118.11; stroke-opacity:1; 
stroke-linecap:round; stroke-linejoin:round;">
<path d="M65449 31704
L65393 31676
L65309 31676
L65224 31704
L65168 31760
L65140 31817
L65112 31929
L65112 32014
L65140 32126
L65168 32182
L65224 32239
L65309 32267
L65365 32267
L65449 32239
L65478 32210
L65478 32014
L65365 32014
" />
<path d="M65731 32267
L65731 31676
L66068 32267
L66068 31676
" />
<path d="M66349 32267
L66349 31676
L66490 31676
L66574 31704
L66631 31760
L66659 31817
L66687 31929
L66687 32014
L66659 32126
L66631 32182
L66574 32239
L66490 32267
L66349 32267
" />
<path d="M40199 42204
L40143 42176
L40059 42176
L39974 42204
L39918 42260
L39890 42317
L39862 42429
L39862 42514
L39890 42626
L39918 42682
L39974 42739
L40059 42767
L40115 42767
L40199 42739
L40228 42710
L40228 42514
L40115 42514
" />
<path d="M40481 42767
L40481 42176
L40818 42767
L40818 42176
" />
<path d="M41099 42767
L41099 42176
L41240 42176
L41324 42204
L41381 42260
L41409 42317
L41437 42429
L41437 42514
L41409 42626
L41381 42682
L41324 42739
L41240 42767
L41099 42767
" />
<path d="M39806 41176
L40003 41767
L40199 41176
" />
<path d="M40734 41710
L40706 41739
L40621 41767
L40565 41767
L40481 41739
L40424 41682
L40396 41626
L40368 41514
L40368 41429
L40396 41317
L40424 41260
L40481 41204
L40565 41176
L40621 41176
L40706 41204
L40734 41232
" />
<path d="M41324 41710
L41296 41739
L41212 41767
L41156 41767
L41071 41739
L41015 41682
L40987 41626
L40959 41514
L40959 41429
L40987 41317
L41015 41260
L41071 41204
L41156 41176
L41212 41176
L41296 41204
L41324 41232
" />
<path d="M41521 41176
L41887 41176
L41690 41401
L41774 41401
L41830 41429
L41859 41457
L41887 41514
L41887 41654
L41859 41710
L41830 41739
L41774 41767
L41606 41767
L41549 41739
L41521 41710
" />
</g>
<g style="fill:#000000; fill-opacity:0.0; 
stroke:#000000; stroke-width:59.0551; stroke-opacity:1; 
stroke-linecap:round; stroke-linejoin:round;">
<path d="M67500 28000
L39500 28000
" />
<path d="M67500 50500
L67500 28000
" />
<path d="M39500 50500
L67500 50500
" />
<path d="M39500 28000
L39500 50500
" />
<path d="M50500 43500
L50500 42400
" />
<path d="M50500 42400
L46800 42400
" />
<path d="M46800 42400
L46800 43500
" />
<path d="M46800 43500
L46500 43500
" />
<path d="M46500 48500
L49500 48500
" />
<path d="M49500 48500
L49400 48500
" />
<path d="M50500 48500
L49500 48500
" />
<path d="M50500 43500
L50500 48500
" />
<path d="M46500 48500
L45500 48500
" />
<path d="M45500 48500
L45500 43500
" />
<path d="M46610 42389
L46610 43000
" />
<path d="M46500 43500
L45500 43500
" />
<path d="M45389 43000
L45389 42389
" />
<path d="M45389 42389
L46610 42389
" />
<path d="M53500 34000
L53500 33600
" />
<path d="M53500 33600
L53100 33600
" />
<path d="M53100 33600
L53100 30400
" />
<path d="M53100 30400
L53900 30400
" />
<path d="M53900 30400
L53900 33600
" />
<path d="M53900 33600
L53500 33600
" />
<path d="M53300 33600
L53100 33400
" />
<path d="M53500 30000
L53500 30400
" />
<path d="M57000 44000
L57400 44000
" />
<path d="M57400 44000
L57400 43600
" />
<path d="M57400 43600
L60600 43600
" />
<path d="M60600 43600
L60600 44400
" />
<path d="M60600 44400
L57400 44400
" />
<path d="M57400 44400
L57400 44000
" />
<path d="M57400 43800
L57600 43600
" />
<path d="M61000 44000
L60600 44000
" />
<path d="M53500 42000
L53500 41600
" />
<path d="M53500 41600
L53100 41600
" />
<path d="M53100 41600
L53100 38400
" />
<path d="M53100 38400
L53900 38400
" />
<path d="M53900 38400
L53900 41600
" />
<path d="M53900 41600
L53500 41600
" />
<path d="M53300 41600
L53100 41400
" />
<path d="M53500 38000
L53500 38400
" />
<path d="M55000 35000
L55000 34600
" />
<path d="M55000 34600
L54600 34600
" />
<path d="M54600 34600
L54600 31400
" />
<path d="M54600 31400
L55400 31400
" />
<path d="M55400 31400
L55400 34600
" />
<path d="M55400 34600
L55000 34600
" />
<path d="M54800 34600
L54600 34400
" />
<path d="M55000 31000
L55000 31400
" />
<path d="M57000 35000
L57400 35000
" />
<path d="M57400 35000
L57400 34600
" />
<path d="M57400 34600
L60600 34600
" />
<path d="M60600 34600
L60600 35400
" />
<path d="M60600 35400
L57400 35400
" />
<path d="M57400 35400
L57400 35000
" />
<path d="M57400 34800
L57600 34600
" />
<path d="M61000 35000
L60600 35000
" />
<path d="M50500 34500
L50500 33400
" />
<path d="M50500 33400
L46800 33400
" />
<path d="M46800 33400
L46800 34500
" />
<path d="M46800 34500
L46500 34500
" />
<path d="M46500 39500
L49500 39500
" />
<path d="M49500 39500
L49400 39500
" />
<path d="M50500 39500
L49500 39500
" />
<path d="M50500 34500
L50500 39500
" />
<path d="M46500 39500
L45500 39500
" />
<path d="M45500 39500
L45500 34500
" />
<path d="M46610 33389
L46610 34000
" />
<path d="M46500 34500
L45500 34500
" />
<path d="M45389 34000
L45389 33389
" />
<path d="M45389 33389
L46610 33389
" />
<path d="M42500 36000
L42500 43000
" />
<path d="M42500 43000
L43500 43000
" />
<path d="M43500 43000
L43500 36000
" />
<path d="M42389 34889
L42389 35500
" />
<path d="M42500 36000
L43500 36000
" />
<path d="M43610 35500
L43610 34889
" />
<path d="M43610 34889
L42389 34889
" />
<path d="M57000 32000
L57400 32000
" />
<path d="M57400 32000
L57400 31600
" />
<path d="M57400 31600
L60600 31600
" />
<path d="M60600 31600
L60600 32400
" />
<path d="M60600 32400
L57400 32400
" />
<path d="M57400 32400
L57400 32000
" />
<path d="M57400 31800
L57600 31600
" />
<path d="M61000 32000
L60600 32000
" />
<path d="M57000 38000
L57400 38000
" />
<path d="M57400 38000
L57400 37600
" />
<path d="M57400 37600
L60600 37600
" />
<path d="M60600 37600
L60600 38400
" />
<path d="M60600 38400
L57400 38400
" />
<path d="M57400 38400
L57400 38000
" />
<path d="M57400 37800
L57600 37600
" />
<path d="M61000 38000
L60600 38000
" />
<path d="M57000 41000
L57400 41000
" />
<path d="M57400 41000
L57400 40600
" />
<path d="M57400 40600
L60600 40600
" />
<path d="M60600 40600
L60600 41400
" />
<path d="M60600 41400
L57400 41400
" />
<path d="M57400 41400
L57400 41000
" />
<path d="M57400 40800
L57600 40600
" />
<path d="M61000 41000
L60600 41000
" />
<path d="M55000 43000
L55000 42600
" />
<path d="M55000 42600
L54600 42600
" />
<path d="M54600 42600
L54600 39400
" />
<path d="M54600 39400
L55400 39400
" />
<path d="M55400 39400
L55400 42600
" />
<path d="M55400 42600
L55000 42600
" />
<path d="M54800 42600
L54600 42400
" />
<path d="M55000 39000
L55000 39400
" />
<path d="M60500 34000
L57500 34000
" />
<path d="M57500 34000
L57500 33000
" />
<path d="M57500 33000
L60500 33000
" />
<path d="M60500 33000
L60500 34000
" />
<path d="M57750 34000
L57750 33000
" />
<path d="M58000 33000
L58000 34000
" />
<path d="M60500 33500
L61000 33500
" />
<path d="M57500 33500
L57000 33500
" />
<path d="M60500 37000
L57500 37000
" />
<path d="M57500 37000
L57500 36000
" />
<path d="M57500 36000
L60500 36000
" />
<path d="M60500 36000
L60500 37000
" />
<path d="M57750 37000
L57750 36000
" />
<path d="M58000 36000
L58000 37000
" />
<path d="M60500 36500
L61000 36500
" />
<path d="M57500 36500
L57000 36500
" />
<path d="M60500 40000
L57500 40000
" />
<path d="M57500 40000
L57500 39000
" />
<path d="M57500 39000
L60500 39000
" />
<path d="M60500 39000
L60500 40000
" />
<path d="M57750 40000
L57750 39000
" />
<path d="M58000 39000
L58000 40000
" />
<path d="M60500 39500
L61000 39500
" />
<path d="M57500 39500
L57000 39500
" />
<path d="M60500 43000
L57500 43000
" />
<path d="M57500 43000
L57500 42000
" />
<path d="M57500 42000
L60500 42000
" />
<path d="M60500 42000
L60500 43000
" />
<path d="M57750 43000
L57750 42000
" />
<path d="M58000 42000
L58000 43000
" />
<path d="M60500 42500
L61000 42500
" />
<path d="M57500 42500
L57000 42500
" />
<path d="M47325 41284
L47325 41603
L47343 41640
L47362 41659
L47400 41678
L47475 41678
L47512 41659
L47531 41640
L47550 41603
L47550 41284
" />
<path d="M47925 41284
L47737 41284
L47718 41471
L47737 41453
L47775 41434
L47868 41434
L47906 41453
L47925 41471
L47943 41509
L47943 41603
L47925 41640
L47906 41659
L47868 41678
L47775 41678
L47737 41659
L47718 41640
" />
<path d="M48187 41284
L48224 41284
L48262 41303
L48281 41321
L48299 41359
L48318 41434
L48318 41528
L48299 41603
L48281 41640
L48262 41659
L48224 41678
L48187 41678
L48149 41659
L48131 41640
L48112 41603
L48093 41528
L48093 41434
L48112 41359
L48131 41321
L48149 41303
L48187 41284
" />
<path d="M48468 41321
L48487 41303
L48524 41284
L48618 41284
L48656 41303
L48674 41321
L48693 41359
L48693 41396
L48674 41453
L48449 41678
L48693 41678
" />
<path d="M53678 32440
L53490 32571
" />
<path d="M53678 32665
L53284 32665
L53284 32515
L53303 32478
L53321 32459
L53359 32440
L53415 32440
L53453 32459
L53471 32478
L53490 32515
L53490 32665
" />
<path d="M53284 32084
L53284 32271
L53471 32290
L53453 32271
L53434 32234
L53434 32140
L53453 32103
L53471 32084
L53509 32065
L53603 32065
L53640 32084
L53659 32103
L53678 32140
L53678 32234
L53659 32271
L53640 32290
" />
<path d="M53284 31821
L53284 31784
L53303 31746
L53321 31728
L53359 31709
L53434 31690
L53528 31690
L53603 31709
L53640 31728
L53659 31746
L53678 31784
L53678 31821
L53659 31859
L53640 31878
L53603 31896
L53528 31915
L53434 31915
L53359 31896
L53321 31878
L53303 31859
L53284 31821
" />
<path d="M53453 31465
L53434 31503
L53415 31521
L53378 31540
L53359 31540
L53321 31521
L53303 31503
L53284 31465
L53284 31390
L53303 31353
L53321 31334
L53359 31315
L53378 31315
L53415 31334
L53434 31353
L53453 31390
L53453 31465
L53471 31503
L53490 31521
L53528 31540
L53603 31540
L53640 31521
L53659 31503
L53678 31465
L53678 31390
L53659 31353
L53640 31334
L53603 31315
L53528 31315
L53490 31334
L53471 31353
L53453 31390
" />
<path d="M58559 44178
L58428 43990
" />
<path d="M58334 44178
L58334 43784
L58484 43784
L58521 43803
L58540 43821
L58559 43859
L58559 43915
L58540 43953
L58521 43971
L58484 43990
L58334 43990
" />
<path d="M58915 43784
L58728 43784
L58709 43971
L58728 43953
L58765 43934
L58859 43934
L58896 43953
L58915 43971
L58934 44009
L58934 44103
L58915 44140
L58896 44159
L58859 44178
L58765 44178
L58728 44159
L58709 44140
" />
<path d="M59178 43784
L59215 43784
L59253 43803
L59271 43821
L59290 43859
L59309 43934
L59309 44028
L59290 44103
L59271 44140
L59253 44159
L59215 44178
L59178 44178
L59140 44159
L59121 44140
L59103 44103
L59084 44028
L59084 43934
L59103 43859
L59121 43821
L59140 43803
L59178 43784
" />
<path d="M59496 44178
L59571 44178
L59609 44159
L59628 44140
L59665 44084
L59684 44009
L59684 43859
L59665 43821
L59646 43803
L59609 43784
L59534 43784
L59496 43803
L59478 43821
L59459 43859
L59459 43953
L59478 43990
L59496 44009
L59534 44028
L59609 44028
L59646 44009
L59665 43990
L59684 43953
" />
<path d="M53678 40440
L53490 40571
" />
<path d="M53678 40665
L53284 40665
L53284 40515
L53303 40478
L53321 40459
L53359 40440
L53415 40440
L53453 40459
L53471 40478
L53490 40515
L53490 40665
" />
<path d="M53284 40084
L53284 40271
L53471 40290
L53453 40271
L53434 40234
L53434 40140
L53453 40103
L53471 40084
L53509 40065
L53603 40065
L53640 40084
L53659 40103
L53678 40140
L53678 40234
L53659 40271
L53640 40290
" />
<path d="M53284 39821
L53284 39784
L53303 39746
L53321 39728
L53359 39709
L53434 39690
L53528 39690
L53603 39709
L53640 39728
L53659 39746
L53678 39784
L53678 39821
L53659 39859
L53640 39878
L53603 39896
L53528 39915
L53434 39915
L53359 39896
L53321 39878
L53303 39859
L53284 39821
" />
<path d="M53284 39353
L53284 39428
L53303 39465
L53321 39484
L53378 39521
L53453 39540
L53603 39540
L53640 39521
L53659 39503
L53678 39465
L53678 39390
L53659 39353
L53640 39334
L53603 39315
L53509 39315
L53471 39334
L53453 39353
L53434 39390
L53434 39465
L53453 39503
L53471 39521
L53509 39540
" />
<path d="M55178 33440
L54990 33571
" />
<path d="M55178 33665
L54784 33665
L54784 33515
L54803 33478
L54821 33459
L54859 33440
L54915 33440
L54953 33459
L54971 33478
L54990 33515
L54990 33665
" />
<path d="M54784 33084
L54784 33271
L54971 33290
L54953 33271
L54934 33234
L54934 33140
L54953 33103
L54971 33084
L55009 33065
L55103 33065
L55140 33084
L55159 33103
L55178 33140
L55178 33234
L55159 33271
L55140 33290
" />
<path d="M54784 32821
L54784 32784
L54803 32746
L54821 32728
L54859 32709
L54934 32690
L55028 32690
L55103 32709
L55140 32728
L55159 32746
L55178 32784
L55178 32821
L55159 32859
L55140 32878
L55103 32896
L55028 32915
L54934 32915
L54859 32896
L54821 32878
L54803 32859
L54784 32821
" />
<path d="M54784 32559
L54784 32296
L55178 32465
" />
<path d="M58559 35178
L58428 34990
" />
<path d="M58334 35178
L58334 34784
L58484 34784
L58521 34803
L58540 34821
L58559 34859
L58559 34915
L58540 34953
L58521 34971
L58484 34990
L58334 34990
" />
<path d="M58915 34784
L58728 34784
L58709 34971
L58728 34953
L58765 34934
L58859 34934
L58896 34953
L58915 34971
L58934 35009
L58934 35103
L58915 35140
L58896 35159
L58859 35178
L58765 35178
L58728 35159
L58709 35140
" />
<path d="M59178 34784
L59215 34784
L59253 34803
L59271 34821
L59290 34859
L59309 34934
L59309 35028
L59290 35103
L59271 35140
L59253 35159
L59215 35178
L59178 35178
L59140 35159
L59121 35140
L59103 35103
L59084 35028
L59084 34934
L59103 34859
L59121 34821
L59140 34803
L59178 34784
" />
<path d="M59440 34784
L59684 34784
L59553 34934
L59609 34934
L59646 34953
L59665 34971
L59684 35009
L59684 35103
L59665 35140
L59646 35159
L59609 35178
L59496 35178
L59459 35159
L59440 35140
" />
<path d="M62493 29784
L62493 30065
L62475 30121
L62437 30159
L62381 30178
L62343 30178
" />
<path d="M62868 29784
L62681 29784
L62662 29971
L62681 29953
L62718 29934
L62812 29934
L62850 29953
L62868 29971
L62887 30009
L62887 30103
L62868 30140
L62850 30159
L62812 30178
L62718 30178
L62681 30159
L62662 30140
" />
<path d="M63131 29784
L63168 29784
L63206 29803
L63224 29821
L63243 29859
L63262 29934
L63262 30028
L63243 30103
L63224 30140
L63206 30159
L63168 30178
L63131 30178
L63093 30159
L63074 30140
L63056 30103
L63037 30028
L63037 29934
L63056 29859
L63074 29821
L63093 29803
L63131 29784
" />
<path d="M63637 30178
L63412 30178
" />
<path d="M63524 30178
L63524 29784
L63487 29840
L63449 29878
L63412 29896
" />
<path d="M62493 48284
L62493 48565
L62475 48621
L62437 48659
L62381 48678
L62343 48678
" />
<path d="M62868 48284
L62681 48284
L62662 48471
L62681 48453
L62718 48434
L62812 48434
L62850 48453
L62868 48471
L62887 48509
L62887 48603
L62868 48640
L62850 48659
L62812 48678
L62718 48678
L62681 48659
L62662 48640
" />
<path d="M63131 48284
L63168 48284
L63206 48303
L63224 48321
L63243 48359
L63262 48434
L63262 48528
L63243 48603
L63224 48640
L63206 48659
L63168 48678
L63131 48678
L63093 48659
L63074 48640
L63056 48603
L63037 48528
L63037 48434
L63056 48359
L63074 48321
L63093 48303
L63131 48284
" />
<path d="M63412 48321
L63431 48303
L63468 48284
L63562 48284
L63599 48303
L63618 48321
L63637 48359
L63637 48396
L63618 48453
L63393 48678
L63637 48678
" />
<path d="M47325 32284
L47325 32603
L47343 32640
L47362 32659
L47400 32678
L47475 32678
L47512 32659
L47531 32640
L47550 32603
L47550 32284
" />
<path d="M47925 32284
L47737 32284
L47718 32471
L47737 32453
L47775 32434
L47868 32434
L47906 32453
L47925 32471
L47943 32509
L47943 32603
L47925 32640
L47906 32659
L47868 32678
L47775 32678
L47737 32659
L47718 32640
" />
<path d="M48187 32284
L48224 32284
L48262 32303
L48281 32321
L48299 32359
L48318 32434
L48318 32528
L48299 32603
L48281 32640
L48262 32659
L48224 32678
L48187 32678
L48149 32659
L48131 32640
L48112 32603
L48093 32528
L48093 32434
L48112 32359
L48131 32321
L48149 32303
L48187 32284
" />
<path d="M48693 32678
L48468 32678
" />
<path d="M48581 32678
L48581 32284
L48543 32340
L48506 32378
L48468 32396
" />
<path d="M58559 32178
L58428 31990
" />
<path d="M58334 32178
L58334 31784
L58484 31784
L58521 31803
L58540 31821
L58559 31859
L58559 31915
L58540 31953
L58521 31971
L58484 31990
L58334 31990
" />
<path d="M58915 31784
L58728 31784
L58709 31971
L58728 31953
L58765 31934
L58859 31934
L58896 31953
L58915 31971
L58934 32009
L58934 32103
L58915 32140
L58896 32159
L58859 32178
L58765 32178
L58728 32159
L58709 32140
" />
<path d="M59178 31784
L59215 31784
L59253 31803
L59271 31821
L59290 31859
L59309 31934
L59309 32028
L59290 32103
L59271 32140
L59253 32159
L59215 32178
L59178 32178
L59140 32159
L59121 32140
L59103 32103
L59084 32028
L59084 31934
L59103 31859
L59121 31821
L59140 31803
L59178 31784
" />
<path d="M59646 31915
L59646 32178
" />
<path d="M59553 31765
L59459 32046
L59703 32046
" />
<path d="M58559 38178
L58428 37990
" />
<path d="M58334 38178
L58334 37784
L58484 37784
L58521 37803
L58540 37821
L58559 37859
L58559 37915
L58540 37953
L58521 37971
L58484 37990
L58334 37990
" />
<path d="M58915 37784
L58728 37784
L58709 37971
L58728 37953
L58765 37934
L58859 37934
L58896 37953
L58915 37971
L58934 38009
L58934 38103
L58915 38140
L58896 38159
L58859 38178
L58765 38178
L58728 38159
L58709 38140
" />
<path d="M59178 37784
L59215 37784
L59253 37803
L59271 37821
L59290 37859
L59309 37934
L59309 38028
L59290 38103
L59271 38140
L59253 38159
L59215 38178
L59178 38178
L59140 38159
L59121 38140
L59103 38103
L59084 38028
L59084 37934
L59103 37859
L59121 37821
L59140 37803
L59178 37784
" />
<path d="M59459 37821
L59478 37803
L59515 37784
L59609 37784
L59646 37803
L59665 37821
L59684 37859
L59684 37896
L59665 37953
L59440 38178
L59684 38178
" />
<path d="M58559 41178
L58428 40990
" />
<path d="M58334 41178
L58334 40784
L58484 40784
L58521 40803
L58540 40821
L58559 40859
L58559 40915
L58540 40953
L58521 40971
L58484 40990
L58334 40990
" />
<path d="M58915 40784
L58728 40784
L58709 40971
L58728 40953
L58765 40934
L58859 40934
L58896 40953
L58915 40971
L58934 41009
L58934 41103
L58915 41140
L58896 41159
L58859 41178
L58765 41178
L58728 41159
L58709 41140
" />
<path d="M59178 40784
L59215 40784
L59253 40803
L59271 40821
L59290 40859
L59309 40934
L59309 41028
L59290 41103
L59271 41140
L59253 41159
L59215 41178
L59178 41178
L59140 41159
L59121 41140
L59103 41103
L59084 41028
L59084 40934
L59103 40859
L59121 40821
L59140 40803
L59178 40784
" />
<path d="M59684 41178
L59459 41178
" />
<path d="M59571 41178
L59571 40784
L59534 40840
L59496 40878
L59459 40896
" />
<path d="M55178 41440
L54990 41571
" />
<path d="M55178 41665
L54784 41665
L54784 41515
L54803 41478
L54821 41459
L54859 41440
L54915 41440
L54953 41459
L54971 41478
L54990 41515
L54990 41665
" />
<path d="M54784 41084
L54784 41271
L54971 41290
L54953 41271
L54934 41234
L54934 41140
L54953 41103
L54971 41084
L55009 41065
L55103 41065
L55140 41084
L55159 41103
L55178 41140
L55178 41234
L55159 41271
L55140 41290
" />
<path d="M54784 40821
L54784 40784
L54803 40746
L54821 40728
L54859 40709
L54934 40690
L55028 40690
L55103 40709
L55140 40728
L55159 40746
L55178 40784
L55178 40821
L55159 40859
L55140 40878
L55103 40896
L55028 40915
L54934 40915
L54859 40896
L54821 40878
L54803 40859
L54784 40821
" />
<path d="M54784 40334
L54784 40521
L54971 40540
L54953 40521
L54934 40484
L54934 40390
L54953 40353
L54971 40334
L55009 40315
L55103 40315
L55140 40334
L55159 40353
L55178 40390
L55178 40484
L55159 40521
L55140 40540
" />
<path d="M58334 33678
L58334 33284
L58428 33284
L58484 33303
L58521 33340
L58540 33378
L58559 33453
L58559 33509
L58540 33584
L58521 33621
L58484 33659
L58428 33678
L58334 33678
" />
<path d="M58915 33284
L58728 33284
L58709 33471
L58728 33453
L58765 33434
L58859 33434
L58896 33453
L58915 33471
L58934 33509
L58934 33603
L58915 33640
L58896 33659
L58859 33678
L58765 33678
L58728 33659
L58709 33640
" />
<path d="M59178 33284
L59215 33284
L59253 33303
L59271 33321
L59290 33359
L59309 33434
L59309 33528
L59290 33603
L59271 33640
L59253 33659
L59215 33678
L59178 33678
L59140 33659
L59121 33640
L59103 33603
L59084 33528
L59084 33434
L59103 33359
L59121 33321
L59140 33303
L59178 33284
" />
<path d="M59646 33415
L59646 33678
" />
<path d="M59553 33265
L59459 33546
L59703 33546
" />
<path d="M58334 36678
L58334 36284
L58428 36284
L58484 36303
L58521 36340
L58540 36378
L58559 36453
L58559 36509
L58540 36584
L58521 36621
L58484 36659
L58428 36678
L58334 36678
" />
<path d="M58915 36284
L58728 36284
L58709 36471
L58728 36453
L58765 36434
L58859 36434
L58896 36453
L58915 36471
L58934 36509
L58934 36603
L58915 36640
L58896 36659
L58859 36678
L58765 36678
L58728 36659
L58709 36640
" />
<path d="M59178 36284
L59215 36284
L59253 36303
L59271 36321
L59290 36359
L59309 36434
L59309 36528
L59290 36603
L59271 36640
L59253 36659
L59215 36678
L59178 36678
L59140 36659
L59121 36640
L59103 36603
L59084 36528
L59084 36434
L59103 36359
L59121 36321
L59140 36303
L59178 36284
" />
<path d="M59440 36284
L59684 36284
L59553 36434
L59609 36434
L59646 36453
L59665 36471
L59684 36509
L59684 36603
L59665 36640
L59646 36659
L59609 36678
L59496 36678
L59459 36659
L59440 36640
" />
<path d="M58334 39678
L58334 39284
L58428 39284
L58484 39303
L58521 39340
L58540 39378
L58559 39453
L58559 39509
L58540 39584
L58521 39621
L58484 39659
L58428 39678
L58334 39678
" />
<path d="M58915 39284
L58728 39284
L58709 39471
L58728 39453
L58765 39434
L58859 39434
L58896 39453
L58915 39471
L58934 39509
L58934 39603
L58915 39640
L58896 39659
L58859 39678
L58765 39678
L58728 39659
L58709 39640
" />
<path d="M59178 39284
L59215 39284
L59253 39303
L59271 39321
L59290 39359
L59309 39434
L59309 39528
L59290 39603
L59271 39640
L59253 39659
L59215 39678
L59178 39678
L59140 39659
L59121 39640
L59103 39603
L59084 39528
L59084 39434
L59103 39359
L59121 39321
L59140 39303
L59178 39284
" />
<path d="M59459 39321
L59478 39303
L59515 39284
L59609 39284
L59646 39303
L59665 39321
L59684 39359
L59684 39396
L59665 39453
L59440 39678
L59684 39678
" />
<path d="M58334 42678
L58334 42284
L58428 42284
L58484 42303
L58521 42340
L58540 42378
L58559 42453
L58559 42509
L58540 42584
L58521 42621
L58484 42659
L58428 42678
L58334 42678
" />
<path d="M58915 42284
L58728 42284
L58709 42471
L58728 42453
L58765 42434
L58859 42434
L58896 42453
L58915 42471
L58934 42509
L58934 42603
L58915 42640
L58896 42659
L58859 42678
L58765 42678
L58728 42659
L58709 42640
" />
<path d="M59178 42284
L59215 42284
L59253 42303
L59271 42321
L59290 42359
L59309 42434
L59309 42528
L59290 42603
L59271 42640
L59253 42659
L59215 42678
L59178 42678
L59140 42659
L59121 42640
L59103 42603
L59084 42528
L59084 42434
L59103 42359
L59121 42321
L59140 42303
L59178 42284
" />
<path d="M59684 42678
L59459 42678
" />
<path d="M59571 42678
L59571 42284
L59534 42340
L59496 42378
L59459 42396
" />
</g> 
</svg>
