<?xml version="1.0" standalone="no"?>
 <!DOCTYPE svg PUBLIC "-//W3C//DTD SVG 1.1//EN" 
 "http://www.w3.org/Graphics/SVG/1.1/DTD/svg11.dtd"> 
<svg xmlns="http://www.w3.org/2000/svg" version="1.1" 
    width="29.7002cm" height="21.0007cm" viewBox="0 0 116930 82680 ">
<title>SVG Picture created as u2-F.SilkS.svg date 2019/09/30 21:11:25 </title>
  <desc>Picture generated by PCBNEW </desc>
<g style="fill:#000000; fill-opacity:1;stroke:#000000; stroke-opacity:1;
stroke-linecap:round; stroke-linejoin:round; "
 transform="translate(0 0) scale(1 1)">
</g>
<g style="fill:#000000; fill-opacity:0.0; 
stroke:#000000; stroke-width:-0.000393701; stroke-opacity:1; 
stroke-linecap:round; stroke-linejoin:round;">
</g>
<g style="fill:#000000; fill-opacity:0.0; 
stroke:#000000; stroke-width:59.0551; stroke-opacity:1; 
stroke-linecap:round; stroke-linejoin:round;">
<rect x="69685.9" y="65357.2" width="42519.7" height="12598.4" rx="0" />
<rect x="3937.01" y="3937.01" width="109056" height="74806" rx="0" />
<rect x="4724.41" y="4724.41" width="107481" height="73231.2" rx="0" />
<path d="M23622 4724
L23622 3937
" />
<path d="M43307 4724
L43307 3937
" />
<path d="M62992 4724
L62992 3937
" />
<path d="M82677 4724
L82677 3937
" />
<path d="M102362 4724
L102362 3937
" />
<path d="M14169 4562
L13877 4562
" />
<path d="M14023 4562
L14023 4050
L13974 4123
L13925 4172
L13877 4196
" />
<path d="M33562 4099
L33586 4074
L33635 4050
L33757 4050
L33805 4074
L33830 4099
L33854 4147
L33854 4196
L33830 4269
L33537 4562
L33854 4562
" />
<path d="M53222 4050
L53539 4050
L53368 4245
L53442 4245
L53490 4269
L53515 4294
L53539 4342
L53539 4464
L53515 4513
L53490 4537
L53442 4562
L53295 4562
L53247 4537
L53222 4513
" />
<path d="M73175 4221
L73175 4562
" />
<path d="M73053 4026
L72932 4391
L73248 4391
" />
<path d="M92885 4050
L92641 4050
L92617 4294
L92641 4269
L92690 4245
L92812 4245
L92860 4269
L92885 4294
L92909 4342
L92909 4464
L92885 4513
L92860 4537
L92812 4562
L92690 4562
L92641 4537
L92617 4513
" />
<path d="M112545 4050
L112448 4050
L112399 4074
L112375 4099
L112326 4172
L112302 4269
L112302 4464
L112326 4513
L112350 4537
L112399 4562
L112497 4562
L112545 4537
L112570 4513
L112594 4464
L112594 4342
L112570 4294
L112545 4269
L112497 4245
L112399 4245
L112350 4269
L112326 4294
L112302 4342
" />
<path d="M23622 77955
L23622 78742
" />
<path d="M43307 77955
L43307 78742
" />
<path d="M62992 77955
L62992 78742
" />
<path d="M82677 77955
L82677 78742
" />
<path d="M102362 77955
L102362 78742
" />
<path d="M14169 78580
L13877 78580
" />
<path d="M14023 78580
L14023 78069
L13974 78142
L13925 78190
L13877 78215
" />
<path d="M33562 78117
L33586 78093
L33635 78069
L33757 78069
L33805 78093
L33830 78117
L33854 78166
L33854 78215
L33830 78288
L33537 78580
L33854 78580
" />
<path d="M53222 78069
L53539 78069
L53368 78263
L53442 78263
L53490 78288
L53515 78312
L53539 78361
L53539 78483
L53515 78532
L53490 78556
L53442 78580
L53295 78580
L53247 78556
L53222 78532
" />
<path d="M73175 78239
L73175 78580
" />
<path d="M73053 78044
L72932 78410
L73248 78410
" />
<path d="M92885 78069
L92641 78069
L92617 78312
L92641 78288
L92690 78263
L92812 78263
L92860 78288
L92885 78312
L92909 78361
L92909 78483
L92885 78532
L92860 78556
L92812 78580
L92690 78580
L92641 78556
L92617 78532
" />
<path d="M112545 78069
L112448 78069
L112399 78093
L112375 78117
L112326 78190
L112302 78288
L112302 78483
L112326 78532
L112350 78556
L112399 78580
L112497 78580
L112545 78556
L112570 78532
L112594 78483
L112594 78361
L112570 78312
L112545 78288
L112497 78263
L112399 78263
L112350 78288
L112326 78312
L112302 78361
" />
<path d="M3937 23622
L4724 23622
" />
<path d="M3937 43307
L4724 43307
" />
<path d="M3937 62992
L4724 62992
" />
<path d="M4208 13864
L4452 13864
" />
<path d="M4160 14011
L4330 13499
L4501 14011
" />
<path d="M4367 33428
L4440 33452
L4464 33476
L4489 33525
L4489 33598
L4464 33647
L4440 33671
L4391 33696
L4196 33696
L4196 33184
L4367 33184
L4416 33208
L4440 33233
L4464 33281
L4464 33330
L4440 33379
L4416 33403
L4367 33428
L4196 33428
" />
<path d="M4489 53332
L4464 53356
L4391 53381
L4342 53381
L4269 53356
L4221 53308
L4196 53259
L4172 53161
L4172 53088
L4196 52991
L4221 52942
L4269 52893
L4342 52869
L4391 52869
L4464 52893
L4489 52918
" />
<path d="M4196 73066
L4196 72554
L4318 72554
L4391 72578
L4440 72627
L4464 72676
L4489 72773
L4489 72846
L4464 72944
L4440 72993
L4391 73041
L4318 73066
L4196 73066
" />
<path d="M112992 23622
L112205 23622
" />
<path d="M112992 43307
L112205 43307
" />
<path d="M112992 62992
L112205 62992
" />
<path d="M112477 13864
L112721 13864
" />
<path d="M112428 14011
L112599 13499
L112769 14011
" />
<path d="M112635 33428
L112708 33452
L112733 33476
L112757 33525
L112757 33598
L112733 33647
L112708 33671
L112660 33696
L112465 33696
L112465 33184
L112635 33184
L112684 33208
L112708 33233
L112733 33281
L112733 33330
L112708 33379
L112684 33403
L112635 33428
L112465 33428
" />
<path d="M112757 53332
L112733 53356
L112660 53381
L112611 53381
L112538 53356
L112489 53308
L112465 53259
L112440 53161
L112440 53088
L112465 52991
L112489 52942
L112538 52893
L112611 52869
L112660 52869
L112733 52893
L112757 52918
" />
<path d="M112465 73066
L112465 72554
L112587 72554
L112660 72578
L112708 72627
L112733 72676
L112757 72773
L112757 72846
L112733 72944
L112708 72993
L112660 73041
L112587 73066
L112465 73066
" />
<path d="M78881 76293
L78881 75703
L79022 75703
L79106 75731
L79162 75787
L79190 75843
L79219 75956
L79219 76040
L79190 76153
L79162 76209
L79106 76265
L79022 76293
L78881 76293
" />
<path d="M79725 76293
L79725 75984
L79697 75928
L79640 75899
L79528 75899
L79472 75928
" />
<path d="M79725 76265
L79669 76293
L79528 76293
L79472 76265
L79444 76209
L79444 76153
L79472 76096
L79528 76068
L79669 76068
L79725 76040
" />
<path d="M79922 75899
L80147 75899
" />
<path d="M80006 75703
L80006 76209
L80034 76265
L80090 76293
L80147 76293
" />
<path d="M80568 76265
L80512 76293
L80400 76293
L80343 76265
L80315 76209
L80315 75984
L80343 75928
L80400 75899
L80512 75899
L80568 75928
L80597 75984
L80597 76040
L80315 76096
" />
<path d="M80850 76237
L80878 76265
L80850 76293
L80822 76265
L80850 76237
L80850 76293
" />
<path d="M80850 75928
L80878 75956
L80850 75984
L80822 75956
L80850 75928
L80850 75984
" />
<path d="M81553 75759
L81581 75731
L81637 75703
L81778 75703
L81834 75731
L81862 75759
L81890 75815
L81890 75871
L81862 75956
L81525 76293
L81890 76293
" />
<path d="M82256 75703
L82312 75703
L82368 75731
L82396 75759
L82424 75815
L82453 75928
L82453 76068
L82424 76181
L82396 76237
L82368 76265
L82312 76293
L82256 76293
L82199 76265
L82171 76237
L82143 76181
L82115 76068
L82115 75928
L82143 75815
L82171 75759
L82199 75731
L82256 75703
" />
<path d="M83015 76293
L82678 76293
" />
<path d="M82846 76293
L82846 75703
L82790 75787
L82734 75843
L82678 75871
" />
<path d="M83296 76293
L83409 76293
L83465 76265
L83493 76237
L83549 76153
L83577 76040
L83577 75815
L83549 75759
L83521 75731
L83465 75703
L83352 75703
L83296 75731
L83268 75759
L83240 75815
L83240 75956
L83268 76012
L83296 76040
L83352 76068
L83465 76068
L83521 76040
L83549 76012
L83577 75956
" />
<path d="M83831 76068
L84280 76068
" />
<path d="M84674 75703
L84730 75703
L84787 75731
L84815 75759
L84843 75815
L84871 75928
L84871 76068
L84843 76181
L84815 76237
L84787 76265
L84730 76293
L84674 76293
L84618 76265
L84590 76237
L84562 76181
L84534 76068
L84534 75928
L84562 75815
L84590 75759
L84618 75731
L84674 75703
" />
<path d="M85152 76293
L85265 76293
L85321 76265
L85349 76237
L85405 76153
L85433 76040
L85433 75815
L85405 75759
L85377 75731
L85321 75703
L85208 75703
L85152 75731
L85124 75759
L85096 75815
L85096 75956
L85124 76012
L85152 76040
L85208 76068
L85321 76068
L85377 76040
L85405 76012
L85433 75956
" />
<path d="M85687 76068
L86136 76068
" />
<path d="M86727 76293
L86390 76293
" />
<path d="M86558 76293
L86558 75703
L86502 75787
L86446 75843
L86390 75871
" />
<path d="M87008 76293
L87121 76293
L87177 76265
L87205 76237
L87261 76153
L87289 76040
L87289 75815
L87261 75759
L87233 75731
L87177 75703
L87064 75703
L87008 75731
L86980 75759
L86952 75815
L86952 75956
L86980 76012
L87008 76040
L87064 76068
L87177 76068
L87233 76040
L87261 76012
L87289 75956
" />
<path d="M69685 76577
L112205 76577
" />
<path d="M70220 77395
L70220 76805
" />
<path d="M70557 77395
L70304 77058
" />
<path d="M70557 76805
L70220 77142
" />
<path d="M70810 77395
L70810 77002
" />
<path d="M70810 76805
L70782 76833
L70810 76861
L70838 76833
L70810 76805
L70810 76861
" />
<path d="M71429 77339
L71401 77367
L71316 77395
L71260 77395
L71176 77367
L71120 77311
L71091 77255
L71063 77142
L71063 77058
L71091 76946
L71120 76889
L71176 76833
L71260 76805
L71316 76805
L71401 76833
L71429 76861
" />
<path d="M71935 77395
L71935 77086
L71907 77030
L71851 77002
L71738 77002
L71682 77030
" />
<path d="M71935 77367
L71879 77395
L71738 77395
L71682 77367
L71654 77311
L71654 77255
L71682 77199
L71738 77171
L71879 77171
L71935 77142
" />
<path d="M72469 77395
L72469 76805
" />
<path d="M72469 77367
L72413 77395
L72301 77395
L72244 77367
L72216 77339
L72188 77283
L72188 77114
L72216 77058
L72244 77030
L72301 77002
L72413 77002
L72469 77030
" />
<path d="M73201 77086
L73397 77086
" />
<path d="M73482 77395
L73201 77395
L73201 76805
L73482 76805
" />
<path d="M73735 77339
L73763 77367
L73735 77395
L73707 77367
L73735 77339
L73735 77395
" />
<path d="M74016 77395
L74016 76805
L74157 76805
L74241 76833
L74297 76889
L74325 76946
L74354 77058
L74354 77142
L74325 77255
L74297 77311
L74241 77367
L74157 77395
L74016 77395
" />
<path d="M74607 77339
L74635 77367
L74607 77395
L74579 77367
L74607 77339
L74607 77395
" />
<path d="M74860 77227
L75141 77227
" />
<path d="M74804 77395
L75000 76805
L75197 77395
" />
<path d="M75394 77339
L75422 77367
L75394 77395
L75366 77367
L75394 77339
L75394 77395
" />
<path d="M76575 77002
L76575 77592
" />
<path d="M76575 77030
L76631 77002
L76744 77002
L76800 77030
L76828 77058
L76856 77114
L76856 77283
L76828 77339
L76800 77367
L76744 77395
L76631 77395
L76575 77367
" />
<path d="M77363 77367
L77306 77395
L77194 77395
L77138 77367
L77109 77339
L77081 77283
L77081 77114
L77109 77058
L77138 77030
L77194 77002
L77306 77002
L77363 77030
" />
<path d="M77616 77395
L77616 76805
" />
<path d="M77616 77030
L77672 77002
L77784 77002
L77841 77030
L77869 77058
L77897 77114
L77897 77283
L77869 77339
L77841 77367
L77784 77395
L77672 77395
L77616 77367
" />
<path d="M78150 77002
L78150 77395
" />
<path d="M78150 77058
L78178 77030
L78234 77002
L78319 77002
L78375 77030
L78403 77086
L78403 77395
" />
<path d="M78909 77367
L78853 77395
L78741 77395
L78684 77367
L78656 77311
L78656 77086
L78684 77030
L78741 77002
L78853 77002
L78909 77030
L78937 77086
L78937 77142
L78656 77199
" />
<path d="M79134 77002
L79247 77395
L79359 77114
L79472 77395
L79584 77002
" />
<path d="M80512 77002
L80512 77395
" />
<path d="M80372 76777
L80231 77199
L80597 77199
" />
<path d="M80822 77339
L80850 77367
L80822 77395
L80793 77367
L80822 77339
L80822 77395
" />
<path d="M81215 76805
L81271 76805
L81328 76833
L81356 76861
L81384 76917
L81412 77030
L81412 77171
L81384 77283
L81356 77339
L81328 77367
L81271 77395
L81215 77395
L81159 77367
L81131 77339
L81103 77283
L81075 77171
L81075 77030
L81103 76917
L81131 76861
L81159 76833
L81215 76805
" />
<path d="M81665 77339
L81693 77367
L81665 77395
L81637 77367
L81665 77339
L81665 77395
" />
<path d="M82228 76805
L81946 76805
L81918 77086
L81946 77058
L82003 77030
L82143 77030
L82199 77058
L82228 77086
L82256 77142
L82256 77283
L82228 77339
L82199 77367
L82143 77395
L82003 77395
L81946 77367
L81918 77339
" />
<path d="M82509 77171
L82959 77171
" />
<path d="M82734 77395
L82734 76946
" />
<path d="M83493 77395
L83493 76805
" />
<path d="M83493 77367
L83437 77395
L83324 77395
L83268 77367
L83240 77339
L83212 77283
L83212 77114
L83240 77058
L83268 77030
L83324 77002
L83437 77002
L83493 77030
" />
<path d="M83690 77002
L83915 77002
" />
<path d="M83774 77395
L83774 76889
L83802 76833
L83859 76805
L83915 76805
" />
<path d="M84084 77367
L84140 77395
L84252 77395
L84309 77367
L84337 77311
L84337 77283
L84309 77227
L84252 77199
L84168 77199
L84112 77171
L84084 77114
L84084 77086
L84112 77030
L84168 77002
L84252 77002
L84309 77030
" />
<path d="M84843 77002
L84843 77480
L84815 77536
L84787 77564
L84730 77592
L84646 77592
L84590 77564
" />
<path d="M84843 77367
L84787 77395
L84674 77395
L84618 77367
L84590 77339
L84562 77283
L84562 77114
L84590 77058
L84618 77030
L84674 77002
L84787 77002
L84843 77030
" />
<path d="M85433 77395
L85096 77395
" />
<path d="M85265 77395
L85265 76805
L85208 76889
L85152 76946
L85096 76974
" />
<path d="M85687 77171
L86136 77171
" />
<path d="M86671 77002
L86671 77395
" />
<path d="M86530 76777
L86390 77199
L86755 77199
" />
<path d="M69685 75396
L112205 75396
" />
</g>
<g style="fill:#000000; fill-opacity:0.0; 
stroke:#000000; stroke-width:118.11; stroke-opacity:1; 
stroke-linecap:round; stroke-linejoin:round;">
<path d="M104022 76293
L103825 76012
" />
<path d="M103684 76293
L103684 75703
L103909 75703
L103965 75731
L103994 75759
L104022 75815
L104022 75899
L103994 75956
L103965 75984
L103909 76012
L103684 76012
" />
<path d="M104500 76265
L104444 76293
L104331 76293
L104275 76265
L104247 76209
L104247 75984
L104275 75928
L104331 75899
L104444 75899
L104500 75928
L104528 75984
L104528 76040
L104247 76096
" />
<path d="M104725 75899
L104865 76293
L105006 75899
" />
<path d="M105231 76237
L105259 76265
L105231 76293
L105203 76265
L105231 76237
L105231 76293
" />
<path d="M105231 75928
L105259 75956
L105231 75984
L105203 75956
L105231 75928
L105231 75984
" />
<path d="M106271 76293
L105934 76293
" />
<path d="M106103 76293
L106103 75703
L106046 75787
L105990 75843
L105934 75871
" />
<path d="M106553 76293
L106665 76293
L106721 76265
L106750 76237
L106806 76153
L106834 76040
L106834 75815
L106806 75759
L106778 75731
L106721 75703
L106609 75703
L106553 75731
L106525 75759
L106496 75815
L106496 75956
L106525 76012
L106553 76040
L106609 76068
L106721 76068
L106778 76040
L106806 76012
L106834 75956
" />
<path d="M107199 75703
L107256 75703
L107312 75731
L107340 75759
L107368 75815
L107396 75928
L107396 76068
L107368 76181
L107340 76237
L107312 76265
L107256 76293
L107199 76293
L107143 76265
L107115 76237
L107087 76181
L107059 76068
L107059 75928
L107087 75815
L107115 75759
L107143 75731
L107199 75703
" />
<path d="M107678 76293
L107790 76293
L107846 76265
L107874 76237
L107931 76153
L107959 76040
L107959 75815
L107931 75759
L107903 75731
L107846 75703
L107734 75703
L107678 75731
L107649 75759
L107621 75815
L107621 75956
L107649 76012
L107678 76040
L107734 76068
L107846 76068
L107903 76040
L107931 76012
L107959 75956
" />
<path d="M108521 76293
L108184 76293
" />
<path d="M108352 76293
L108352 75703
L108296 75787
L108240 75843
L108184 75871
" />
<path d="M108802 76293
L108915 76293
L108971 76265
L108999 76237
L109055 76153
L109084 76040
L109084 75815
L109055 75759
L109027 75731
L108971 75703
L108859 75703
L108802 75731
L108774 75759
L108746 75815
L108746 75956
L108774 76012
L108802 76040
L108859 76068
L108971 76068
L109027 76040
L109055 76012
L109084 75956
" />
</g>
<g style="fill:#000000; fill-opacity:0.0; 
stroke:#000000; stroke-width:59.0551; stroke-opacity:1; 
stroke-linecap:round; stroke-linejoin:round;">
<path d="M70192 76265
L70276 76293
L70417 76293
L70473 76265
L70501 76237
L70529 76181
L70529 76124
L70501 76068
L70473 76040
L70417 76012
L70304 75984
L70248 75956
L70220 75928
L70192 75871
L70192 75815
L70220 75759
L70248 75731
L70304 75703
L70445 75703
L70529 75731
" />
<path d="M70782 76293
L70782 75899
" />
<path d="M70782 75703
L70754 75731
L70782 75759
L70810 75731
L70782 75703
L70782 75759
" />
<path d="M71007 75899
L71316 75899
L71007 76293
L71316 76293
" />
<path d="M71766 76265
L71710 76293
L71598 76293
L71541 76265
L71513 76209
L71513 75984
L71541 75928
L71598 75899
L71710 75899
L71766 75928
L71795 75984
L71795 76040
L71513 76096
" />
<path d="M72048 76237
L72076 76265
L72048 76293
L72019 76265
L72048 76237
L72048 76293
" />
<path d="M72048 75928
L72076 75956
L72048 75984
L72019 75956
L72048 75928
L72048 75984
" />
<path d="M72751 76124
L73032 76124
" />
<path d="M72694 76293
L72891 75703
L73088 76293
" />
<path d="M73538 75899
L73538 76293
" />
<path d="M73397 75674
L73257 76096
L73622 76096
" />
<path d="M103684 77395
L103684 76805
" />
<path d="M104219 77395
L104219 76805
" />
<path d="M104219 77367
L104162 77395
L104050 77395
L103994 77367
L103965 77339
L103937 77283
L103937 77114
L103965 77058
L103994 77030
L104050 77002
L104162 77002
L104219 77030
" />
<path d="M104500 77339
L104528 77367
L104500 77395
L104472 77367
L104500 77339
L104500 77395
" />
<path d="M104500 77030
L104528 77058
L104500 77086
L104472 77058
L104500 77030
L104500 77086
" />
<path d="M105540 77395
L105203 77395
" />
<path d="M105372 77395
L105372 76805
L105315 76889
L105259 76946
L105203 76974
" />
<path d="M106215 76777
L105709 77536
" />
<path d="M106721 77395
L106384 77395
" />
<path d="M106553 77395
L106553 76805
L106496 76889
L106440 76946
L106384 76974
" />
<path d="M69685 73821
L112205 73821
" />
</g>
<g style="fill:#000000; fill-opacity:0.0; 
stroke:#000000; stroke-width:157.48; stroke-opacity:1; 
stroke-linecap:round; stroke-linejoin:round;">
<path d="M70257 74099
L70707 74099
" />
<path d="M70384 74886
L70482 74099
" />
<path d="M70871 74886
L70937 74361
" />
<path d="M70970 74099
L70927 74136
L70960 74174
L71002 74136
L70970 74099
L70960 74174
" />
<path d="M71199 74361
L71499 74361
" />
<path d="M71345 74099
L71260 74774
L71288 74849
L71359 74886
L71434 74886
" />
<path d="M71809 74886
L71738 74849
L71710 74774
L71795 74099
" />
<path d="M72413 74849
L72334 74886
L72184 74886
L72113 74849
L72085 74774
L72123 74474
L72169 74399
L72249 74361
L72399 74361
L72469 74399
L72498 74474
L72488 74549
L72104 74624
" />
<path d="M72793 74811
L72826 74849
L72783 74886
L72751 74849
L72793 74811
L72783 74886
" />
<path d="M72844 74399
L72877 74436
L72835 74474
L72802 74436
L72844 74399
L72835 74474
" />
<path d="M73758 74886
L73857 74099
L74049 74661
L74382 74099
L74283 74886
" />
<path d="M74658 74886
L74757 74099
L74949 74661
L75282 74099
L75183 74886
" />
<path d="M76031 74099
L75657 74099
L75572 74474
L75614 74436
L75694 74399
L75882 74399
L75952 74436
L75985 74474
L76013 74549
L75989 74736
L75942 74811
L75900 74849
L75821 74886
L75633 74886
L75563 74849
L75530 74811
" />
<path d="M76308 74886
L76406 74099
L76594 74099
L76702 74136
L76767 74211
L76795 74286
L76814 74436
L76800 74549
L76744 74699
L76697 74774
L76613 74849
L76495 74886
L76308 74886
" />
<path d="M78202 74136
L78131 74099
L78019 74099
L77902 74136
L77817 74211
L77770 74286
L77714 74436
L77700 74549
L77719 74699
L77747 74774
L77813 74849
L77920 74886
L77995 74886
L78112 74849
L78155 74811
L78187 74549
L78037 74549
" />
<path d="M78483 74886
L78548 74361
" />
<path d="M78530 74511
L78576 74436
L78619 74399
L78698 74361
L78773 74361
" />
<path d="M79083 74886
L79012 74849
L78980 74811
L78951 74736
L78980 74511
L79026 74436
L79069 74399
L79148 74361
L79261 74361
L79331 74399
L79364 74436
L79392 74511
L79364 74736
L79317 74811
L79275 74849
L79195 74886
L79083 74886
" />
<path d="M79673 74361
L79758 74886
L79954 74511
L80058 74886
L80273 74361
" />
<path d="M80507 74886
L80573 74361
" />
<path d="M80606 74099
L80564 74136
L80597 74174
L80639 74136
L80606 74099
L80597 74174
" />
<path d="M80948 74361
L80882 74886
" />
<path d="M80939 74436
L80981 74399
L81061 74361
L81173 74361
L81243 74399
L81271 74474
L81220 74886
" />
<path d="M81998 74361
L81918 74999
L81871 75074
L81829 75111
L81750 75149
L81637 75149
L81567 75111
" />
<path d="M81937 74849
L81857 74886
L81707 74886
L81637 74849
L81604 74811
L81576 74736
L81604 74511
L81651 74436
L81693 74399
L81773 74361
L81923 74361
L81993 74399
" />
<path d="M82907 74886
L83006 74099
" />
<path d="M83245 74886
L83296 74474
L83268 74399
L83198 74361
L83085 74361
L83006 74399
L82963 74436
" />
<path d="M83732 74886
L83662 74849
L83629 74811
L83601 74736
L83629 74511
L83676 74436
L83718 74399
L83798 74361
L83910 74361
L83980 74399
L84013 74436
L84041 74511
L84013 74736
L83966 74811
L83924 74849
L83845 74886
L83732 74886
" />
<path d="M84735 74361
L84669 74886
" />
<path d="M84398 74361
L84346 74774
L84374 74849
L84444 74886
L84557 74886
L84637 74849
L84679 74811
" />
<path d="M85012 74849
L85082 74886
L85232 74886
L85312 74849
L85358 74774
L85363 74736
L85335 74661
L85265 74624
L85152 74624
L85082 74586
L85054 74511
L85058 74474
L85105 74399
L85185 74361
L85298 74361
L85368 74399
" />
<path d="M85986 74849
L85907 74886
L85757 74886
L85687 74849
L85658 74774
L85696 74474
L85743 74399
L85822 74361
L85972 74361
L86043 74399
L86071 74474
L86061 74549
L85677 74624
" />
<path d="M87299 74849
L87219 74886
L87069 74886
L86999 74849
L86966 74811
L86938 74736
L86966 74511
L87013 74436
L87055 74399
L87135 74361
L87285 74361
L87355 74399
" />
<path d="M87744 74886
L87674 74849
L87641 74811
L87613 74736
L87641 74511
L87688 74436
L87730 74399
L87810 74361
L87922 74361
L87992 74399
L88025 74436
L88053 74511
L88025 74736
L87978 74811
L87936 74849
L87857 74886
L87744 74886
" />
<path d="M88410 74361
L88344 74886
" />
<path d="M88400 74436
L88442 74399
L88522 74361
L88635 74361
L88705 74399
L88733 74474
L88681 74886
" />
<path d="M89010 74361
L89310 74361
" />
<path d="M89155 74099
L89070 74774
L89099 74849
L89169 74886
L89244 74886
" />
<path d="M89506 74886
L89572 74361
" />
<path d="M89553 74511
L89600 74436
L89642 74399
L89722 74361
L89797 74361
" />
<path d="M90106 74886
L90036 74849
L90003 74811
L89975 74736
L90003 74511
L90050 74436
L90092 74399
L90172 74361
L90284 74361
L90355 74399
L90388 74436
L90416 74511
L90388 74736
L90341 74811
L90298 74849
L90219 74886
L90106 74886
" />
<path d="M90819 74886
L90748 74849
L90720 74774
L90805 74099
" />
<path d="M91231 74886
L91161 74849
L91133 74774
L91217 74099
" />
<path d="M91531 74886
L91597 74361
" />
<path d="M91630 74099
L91587 74136
L91620 74174
L91662 74136
L91630 74099
L91620 74174
" />
<path d="M91972 74361
L91906 74886
" />
<path d="M91962 74436
L92004 74399
L92084 74361
L92197 74361
L92267 74399
L92295 74474
L92244 74886
" />
<path d="M93022 74361
L92942 74999
L92895 75074
L92853 75111
L92773 75149
L92661 75149
L92590 75111
" />
<path d="M92961 74849
L92881 74886
L92731 74886
L92661 74849
L92628 74811
L92600 74736
L92628 74511
L92675 74436
L92717 74399
L92797 74361
L92947 74361
L93017 74399
" />
<path d="M94268 74886
L94320 74474
L94292 74399
L94221 74361
L94071 74361
L93992 74399
" />
<path d="M94273 74849
L94193 74886
L94006 74886
L93936 74849
L93907 74774
L93917 74699
L93964 74624
L94043 74586
L94231 74586
L94310 74549
" />
<path d="M94709 74361
L94643 74886
" />
<path d="M94699 74436
L94742 74399
L94821 74361
L94934 74361
L95004 74399
L95032 74474
L94981 74886
" />
<path d="M95693 74886
L95792 74099
" />
<path d="M95698 74849
L95618 74886
L95468 74886
L95398 74849
L95365 74811
L95337 74736
L95365 74511
L95412 74436
L95454 74399
L95534 74361
L95684 74361
L95754 74399
" />
<path d="M96668 74886
L96734 74361
" />
<path d="M96715 74511
L96762 74436
L96804 74399
L96884 74361
L96959 74361
" />
<path d="M97460 74849
L97380 74886
L97230 74886
L97160 74849
L97132 74774
L97169 74474
L97216 74399
L97296 74361
L97446 74361
L97516 74399
L97544 74474
L97535 74549
L97151 74624
" />
<path d="M97830 74886
L97896 74361
" />
<path d="M97887 74436
L97929 74399
L98008 74361
L98121 74361
L98191 74399
L98219 74474
L98168 74886
" />
<path d="M98219 74474
L98266 74399
L98346 74361
L98458 74361
L98529 74399
L98557 74474
L98505 74886
" />
<path d="M98993 74886
L98922 74849
L98890 74811
L98861 74736
L98890 74511
L98936 74436
L98979 74399
L99058 74361
L99171 74361
L99241 74399
L99274 74436
L99302 74511
L99274 74736
L99227 74811
L99185 74849
L99105 74886
L98993 74886
" />
<path d="M99546 74361
L99846 74361
" />
<path d="M99691 74099
L99607 74774
L99635 74849
L99705 74886
L99780 74886
" />
<path d="M100347 74849
L100268 74886
L100118 74886
L100047 74849
L100019 74774
L100057 74474
L100103 74399
L100183 74361
L100333 74361
L100403 74399
L100432 74474
L100422 74549
L100038 74624
" />
<path d="M101317 74886
L101383 74361
" />
<path d="M101374 74436
L101416 74399
L101495 74361
L101608 74361
L101678 74399
L101706 74474
L101655 74886
" />
<path d="M101706 74474
L101753 74399
L101833 74361
L101945 74361
L102016 74399
L102044 74474
L101992 74886
" />
<path d="M102480 74886
L102409 74849
L102377 74811
L102349 74736
L102377 74511
L102424 74436
L102466 74399
L102545 74361
L102658 74361
L102728 74399
L102761 74436
L102789 74511
L102761 74736
L102714 74811
L102672 74849
L102592 74886
L102480 74886
" />
<path d="M103145 74361
L103080 74886
" />
<path d="M103136 74436
L103178 74399
L103258 74361
L103370 74361
L103441 74399
L103469 74474
L103417 74886
" />
<path d="M103792 74886
L103858 74361
" />
<path d="M103891 74099
L103848 74136
L103881 74174
L103923 74136
L103891 74099
L103881 74174
" />
<path d="M104120 74361
L104420 74361
" />
<path d="M104265 74099
L104181 74774
L104209 74849
L104280 74886
L104355 74886
" />
<path d="M104729 74886
L104659 74849
L104626 74811
L104598 74736
L104626 74511
L104673 74436
L104715 74399
L104795 74361
L104908 74361
L104978 74399
L105011 74436
L105039 74511
L105011 74736
L104964 74811
L104922 74849
L104842 74886
L104729 74886
" />
<path d="M105329 74886
L105395 74361
" />
<path d="M105376 74511
L105423 74436
L105465 74399
L105545 74361
L105620 74361
" />
<path d="M105817 74886
L105882 74361
" />
<path d="M105915 74099
L105873 74136
L105906 74174
L105948 74136
L105915 74099
L105906 74174
" />
<path d="M106257 74361
L106192 74886
" />
<path d="M106248 74436
L106290 74399
L106370 74361
L106482 74361
L106553 74399
L106581 74474
L106529 74886
" />
<path d="M107307 74361
L107228 74999
L107181 75074
L107139 75111
L107059 75149
L106946 75149
L106876 75111
" />
<path d="M107246 74849
L107167 74886
L107017 74886
L106946 74849
L106914 74811
L106885 74736
L106914 74511
L106960 74436
L107003 74399
L107082 74361
L107232 74361
L107303 74399
" />
<path d="M108521 74849
L108442 74886
L108292 74886
L108221 74849
L108193 74774
L108231 74474
L108277 74399
L108357 74361
L108507 74361
L108577 74399
L108606 74474
L108596 74549
L108212 74624
" />
<path d="M109295 74361
L109196 75149
" />
<path d="M109234 74849
L109154 74886
L109004 74886
L108934 74849
L108901 74811
L108873 74736
L108901 74511
L108948 74436
L108990 74399
L109070 74361
L109220 74361
L109290 74399
" />
<path d="M110007 74361
L109941 74886
" />
<path d="M109669 74361
L109618 74774
L109646 74849
L109716 74886
L109829 74886
L109909 74849
L109951 74811
" />
<path d="M110316 74886
L110382 74361
" />
<path d="M110415 74099
L110373 74136
L110405 74174
L110448 74136
L110415 74099
L110405 74174
" />
<path d="M110757 74361
L110658 75149
" />
<path d="M110752 74399
L110832 74361
L110982 74361
L111052 74399
L111085 74436
L111113 74511
L111085 74736
L111038 74811
L110996 74849
L110916 74886
L110766 74886
L110696 74849
" />
<path d="M111413 74811
L111446 74849
L111404 74886
L111371 74849
L111413 74811
L111404 74886
" />
</g>
<g style="fill:#000000; fill-opacity:0.0; 
stroke:#000000; stroke-width:59.0551; stroke-opacity:1; 
stroke-linecap:round; stroke-linejoin:round;">
<path d="M70417 73070
L70220 73070
" />
<path d="M70220 73380
L70220 72789
L70501 72789
" />
<path d="M70726 73380
L70726 72986
" />
<path d="M70726 72789
L70698 72817
L70726 72845
L70754 72817
L70726 72789
L70726 72845
" />
<path d="M71091 73380
L71035 73352
L71007 73295
L71007 72789
" />
<path d="M71541 73352
L71485 73380
L71373 73380
L71316 73352
L71288 73295
L71288 73070
L71316 73014
L71373 72986
L71485 72986
L71541 73014
L71570 73070
L71570 73127
L71288 73183
" />
<path d="M71823 73323
L71851 73352
L71823 73380
L71795 73352
L71823 73323
L71823 73380
" />
<path d="M71823 73014
L71851 73042
L71823 73070
L71795 73042
L71823 73014
L71823 73070
" />
<path d="M72807 72986
L72807 73380
" />
<path d="M72554 72986
L72554 73295
L72582 73352
L72638 73380
L72723 73380
L72779 73352
L72807 73323
" />
<path d="M73060 72845
L73088 72817
L73144 72789
L73285 72789
L73341 72817
L73369 72845
L73397 72902
L73397 72958
L73369 73042
L73032 73380
L73397 73380
" />
<path d="M73651 73323
L73679 73352
L73651 73380
L73622 73352
L73651 73323
L73651 73380
" />
<path d="M73932 73380
L73932 72789
" />
<path d="M73988 73155
L74157 73380
" />
<path d="M74157 72986
L73932 73211
" />
<path d="M74410 73380
L74410 72986
" />
<path d="M74410 72789
L74382 72817
L74410 72845
L74438 72817
L74410 72789
L74410 72845
" />
<path d="M74944 73352
L74888 73380
L74775 73380
L74719 73352
L74691 73323
L74663 73267
L74663 73099
L74691 73042
L74719 73014
L74775 72986
L74888 72986
L74944 73014
" />
<path d="M75450 73380
L75450 73070
L75422 73014
L75366 72986
L75253 72986
L75197 73014
" />
<path d="M75450 73352
L75394 73380
L75253 73380
L75197 73352
L75169 73295
L75169 73239
L75197 73183
L75253 73155
L75394 73155
L75450 73127
" />
<path d="M75985 73380
L75985 72789
" />
<path d="M75985 73352
L75928 73380
L75816 73380
L75760 73352
L75732 73323
L75703 73267
L75703 73099
L75732 73042
L75760 73014
L75816 72986
L75928 72986
L75985 73014
" />
<path d="M76125 73436
L76575 73436
" />
<path d="M76716 72986
L76716 73577
" />
<path d="M76716 73014
L76772 72986
L76885 72986
L76941 73014
L76969 73042
L76997 73099
L76997 73267
L76969 73323
L76941 73352
L76885 73380
L76772 73380
L76716 73352
" />
<path d="M77503 73352
L77447 73380
L77334 73380
L77278 73352
L77250 73323
L77222 73267
L77222 73099
L77250 73042
L77278 73014
L77334 72986
L77447 72986
L77503 73014
" />
<path d="M77756 73380
L77756 72789
" />
<path d="M77756 73014
L77813 72986
L77925 72986
L77981 73014
L78009 73042
L78037 73099
L78037 73267
L78009 73323
L77981 73352
L77925 73380
L77813 73380
L77756 73352
" />
<path d="M69685 71459
L112205 71459
" />
<path d="M70192 72289
L70276 72317
L70417 72317
L70473 72289
L70501 72260
L70529 72204
L70529 72148
L70501 72092
L70473 72064
L70417 72036
L70304 72007
L70248 71979
L70220 71951
L70192 71895
L70192 71839
L70220 71782
L70248 71754
L70304 71726
L70445 71726
L70529 71754
" />
<path d="M70782 72317
L70782 71726
" />
<path d="M71035 72317
L71035 72007
L71007 71951
L70951 71923
L70867 71923
L70810 71951
L70782 71979
" />
<path d="M71541 72289
L71485 72317
L71373 72317
L71316 72289
L71288 72232
L71288 72007
L71316 71951
L71373 71923
L71485 71923
L71541 71951
L71570 72007
L71570 72064
L71288 72120
" />
<path d="M72048 72289
L71991 72317
L71879 72317
L71823 72289
L71795 72232
L71795 72007
L71823 71951
L71879 71923
L71991 71923
L72048 71951
L72076 72007
L72076 72064
L71795 72120
" />
<path d="M72244 71923
L72469 71923
" />
<path d="M72329 71726
L72329 72232
L72357 72289
L72413 72317
L72469 72317
" />
<path d="M72666 72260
L72694 72289
L72666 72317
L72638 72289
L72666 72260
L72666 72317
" />
<path d="M72666 71951
L72694 71979
L72666 72007
L72638 71979
L72666 71951
L72666 72007
" />
</g>
<g style="fill:#000000; fill-opacity:0.0; 
stroke:#000000; stroke-width:118.11; stroke-opacity:1; 
stroke-linecap:round; stroke-linejoin:round;">
<path d="M70220 71136
L70220 70545
L70445 70545
L70501 70573
L70529 70601
L70557 70658
L70557 70742
L70529 70798
L70501 70826
L70445 70854
L70220 70854
" />
<path d="M70895 71136
L70838 71108
L70810 71079
L70782 71023
L70782 70854
L70810 70798
L70838 70770
L70895 70742
L70979 70742
L71035 70770
L71063 70798
L71091 70854
L71091 71023
L71063 71079
L71035 71108
L70979 71136
L70895 71136
" />
<path d="M71288 70742
L71598 70742
L71288 71136
L71598 71136
" />
<path d="M71795 71108
L71851 71136
L71963 71136
L72019 71108
L72048 71051
L72048 71023
L72019 70967
L71963 70939
L71879 70939
L71823 70911
L71795 70854
L71795 70826
L71823 70770
L71879 70742
L71963 70742
L72019 70770
" />
<path d="M72554 71136
L72554 70826
L72526 70770
L72469 70742
L72357 70742
L72301 70770
" />
<path d="M72554 71108
L72498 71136
L72357 71136
L72301 71108
L72273 71051
L72273 70995
L72301 70939
L72357 70911
L72498 70911
L72554 70883
" />
<path d="M72835 71136
L72835 70742
" />
<path d="M72835 70854
L72863 70798
L72891 70770
L72947 70742
L73004 70742
" />
<path d="M73594 70545
L73988 70545
L73594 71136
L73988 71136
" />
<path d="M74185 71108
L74241 71136
L74354 71136
L74410 71108
L74438 71051
L74438 71023
L74410 70967
L74354 70939
L74269 70939
L74213 70911
L74185 70854
L74185 70826
L74213 70770
L74269 70742
L74354 70742
L74410 70770
" />
<path d="M74775 71136
L74719 71108
L74691 71079
L74663 71023
L74663 70854
L74691 70798
L74719 70770
L74775 70742
L74860 70742
L74916 70770
L74944 70798
L74972 70854
L74972 71023
L74944 71079
L74916 71108
L74860 71136
L74775 71136
" />
<path d="M75310 71136
L75253 71108
L75225 71051
L75225 70545
" />
<path d="M75450 70742
L75675 70742
" />
<path d="M75535 70545
L75535 71051
L75563 71108
L75619 71136
L75675 71136
" />
<path d="M76322 70911
L76772 70911
" />
<path d="M77503 71136
L77503 70545
" />
<path d="M77756 71136
L77756 70826
L77728 70770
L77672 70742
L77588 70742
L77531 70770
L77503 70798
" />
<path d="M77953 70742
L78178 70742
" />
<path d="M78037 70545
L78037 71051
L78066 71108
L78122 71136
L78178 71136
" />
<path d="M78291 70742
L78516 70742
" />
<path d="M78375 70545
L78375 71051
L78403 71108
L78459 71136
L78516 71136
" />
<path d="M78712 70742
L78712 71332
" />
<path d="M78712 70770
L78769 70742
L78881 70742
L78937 70770
L78965 70798
L78994 70854
L78994 71023
L78965 71079
L78937 71108
L78881 71136
L78769 71136
L78712 71108
" />
<path d="M79247 71079
L79275 71108
L79247 71136
L79219 71108
L79247 71079
L79247 71136
" />
<path d="M79247 70770
L79275 70798
L79247 70826
L79219 70798
L79247 70770
L79247 70826
" />
<path d="M79950 70517
L79444 71276
" />
<path d="M80568 70517
L80062 71276
" />
<path d="M80709 70742
L80822 71136
L80934 70854
L81046 71136
L81159 70742
" />
<path d="M81328 70742
L81440 71136
L81553 70854
L81665 71136
L81778 70742
" />
<path d="M81946 70742
L82059 71136
L82171 70854
L82284 71136
L82396 70742
" />
<path d="M82621 71079
L82649 71108
L82621 71136
L82593 71108
L82621 71079
L82621 71136
" />
<path d="M82874 71108
L82931 71136
L83043 71136
L83099 71108
L83127 71051
L83127 71023
L83099 70967
L83043 70939
L82959 70939
L82903 70911
L82874 70854
L82874 70826
L82903 70770
L82959 70742
L83043 70742
L83099 70770
" />
<path d="M83324 70742
L83634 70742
L83324 71136
L83634 71136
" />
<path d="M84084 71108
L84027 71136
L83915 71136
L83859 71108
L83831 71051
L83831 70826
L83859 70770
L83915 70742
L84027 70742
L84084 70770
L84112 70826
L84112 70883
L83831 70939
" />
<path d="M84365 71136
L84365 70742
" />
<path d="M84365 70854
L84393 70798
L84421 70770
L84477 70742
L84534 70742
" />
<path d="M84983 71136
L84983 70826
L84955 70770
L84899 70742
L84787 70742
L84730 70770
" />
<path d="M84983 71108
L84927 71136
L84787 71136
L84730 71108
L84702 71051
L84702 70995
L84730 70939
L84787 70911
L84927 70911
L84983 70883
" />
<path d="M85180 70742
L85405 70742
" />
<path d="M85265 71136
L85265 70629
L85293 70573
L85349 70545
L85405 70545
" />
<path d="M85602 71136
L85602 70742
" />
<path d="M85602 70545
L85574 70573
L85602 70601
L85630 70573
L85602 70545
L85602 70601
" />
<path d="M85883 70742
L85883 71136
" />
<path d="M85883 70798
L85912 70770
L85968 70742
L86052 70742
L86108 70770
L86136 70826
L86136 71136
" />
<path d="M86671 70742
L86671 71220
L86643 71276
L86615 71304
L86558 71332
L86474 71332
L86418 71304
" />
<path d="M86671 71108
L86615 71136
L86502 71136
L86446 71108
L86418 71079
L86390 71023
L86390 70854
L86418 70798
L86446 70770
L86502 70742
L86615 70742
L86671 70770
" />
<path d="M87036 71136
L86980 71108
L86952 71079
L86924 71023
L86924 70854
L86952 70798
L86980 70770
L87036 70742
L87121 70742
L87177 70770
L87205 70798
L87233 70854
L87233 71023
L87205 71079
L87177 71108
L87121 71136
L87036 71136
" />
<path d="M87486 71136
L87486 70742
" />
<path d="M87486 70798
L87514 70770
L87571 70742
L87655 70742
L87711 70770
L87739 70826
L87739 71136
" />
<path d="M87739 70826
L87768 70770
L87824 70742
L87908 70742
L87964 70770
L87992 70826
L87992 71136
" />
<path d="M88274 71136
L88274 70545
" />
<path d="M88274 70770
L88330 70742
L88442 70742
L88499 70770
L88527 70798
L88555 70854
L88555 71023
L88527 71079
L88499 71108
L88442 71136
L88330 71136
L88274 71108
" />
<path d="M89061 71136
L89061 70826
L89033 70770
L88977 70742
L88864 70742
L88808 70770
" />
<path d="M89061 71108
L89005 71136
L88864 71136
L88808 71108
L88780 71051
L88780 70995
L88808 70939
L88864 70911
L89005 70911
L89061 70883
" />
<path d="M89342 71079
L89370 71108
L89342 71136
L89314 71108
L89342 71079
L89342 71136
" />
<path d="M89624 71136
L89624 70545
" />
<path d="M89877 71136
L89877 70826
L89849 70770
L89792 70742
L89708 70742
L89652 70770
L89624 70798
" />
<path d="M90411 70742
L90411 71136
" />
<path d="M90158 70742
L90158 71051
L90186 71108
L90242 71136
L90327 71136
L90383 71108
L90411 71079
" />
</g>
<g style="fill:#000000; fill-opacity:0.0; 
stroke:#000000; stroke-width:59.0551; stroke-opacity:1; 
stroke-linecap:round; stroke-linejoin:round;">
<path d="M70220 69364
L70220 69842
L70248 69898
L70276 69926
L70332 69955
L70445 69955
L70501 69926
L70529 69898
L70557 69842
L70557 69364
" />
<path d="M70838 69561
L70838 69955
" />
<path d="M70838 69617
L70867 69589
L70923 69561
L71007 69561
L71063 69589
L71091 69645
L71091 69955
" />
<path d="M71373 69955
L71373 69561
" />
<path d="M71373 69364
L71345 69392
L71373 69420
L71401 69392
L71373 69364
L71373 69420
" />
<path d="M71570 69561
L71795 69561
" />
<path d="M71654 69364
L71654 69870
L71682 69926
L71738 69955
L71795 69955
" />
<path d="M72441 69364
L72441 69842
L72469 69898
L72498 69926
L72554 69955
L72666 69955
L72723 69926
L72751 69898
L72779 69842
L72779 69364
" />
<path d="M73032 69420
L73060 69392
L73116 69364
L73257 69364
L73313 69392
L73341 69420
L73369 69476
L73369 69533
L73341 69617
L73004 69955
L73369 69955
" />
<path d="M70220 66411
L70220 65821
L70360 65821
L70445 65849
L70501 65905
L70529 65961
L70557 66074
L70557 66158
L70529 66271
L70501 66327
L70445 66383
L70360 66411
L70220 66411
" />
<path d="M70810 66411
L70810 66018
" />
<path d="M70810 66130
L70838 66074
L70867 66046
L70923 66018
L70979 66018
" />
<path d="M71429 66411
L71429 66102
L71401 66046
L71345 66018
L71232 66018
L71176 66046
" />
<path d="M71429 66383
L71373 66411
L71232 66411
L71176 66383
L71148 66327
L71148 66271
L71176 66214
L71232 66186
L71373 66186
L71429 66158
" />
<path d="M71654 66018
L71766 66411
L71879 66130
L71991 66411
L72104 66018
" />
<path d="M72779 66018
L72779 66411
" />
<path d="M72779 66074
L72807 66046
L72863 66018
L72947 66018
L73004 66046
L73032 66102
L73032 66411
" />
<path d="M73397 66411
L73341 66383
L73313 66355
L73285 66299
L73285 66130
L73313 66074
L73341 66046
L73397 66018
L73482 66018
L73538 66046
L73566 66074
L73594 66130
L73594 66299
L73566 66355
L73538 66383
L73482 66411
L73397 66411
" />
<path d="M73847 66355
L73876 66383
L73847 66411
L73819 66383
L73847 66355
L73847 66411
" />
<path d="M74129 66355
L74157 66383
L74129 66411
L74100 66383
L74129 66355
L74129 66411
" />
<path d="M74129 66046
L74157 66074
L74129 66102
L74100 66074
L74129 66046
L74129 66102
" />
<path d="M75141 65821
L74860 65821
L74832 66102
L74860 66074
L74916 66046
L75057 66046
L75113 66074
L75141 66102
L75169 66158
L75169 66299
L75141 66355
L75113 66383
L75057 66411
L74916 66411
L74860 66383
L74832 66355
" />
<path d="M75450 66411
L75563 66411
L75619 66383
L75647 66355
L75703 66271
L75732 66158
L75732 65933
L75703 65877
L75675 65849
L75619 65821
L75507 65821
L75450 65849
L75422 65877
L75394 65933
L75394 66074
L75422 66130
L75450 66158
L75507 66186
L75619 66186
L75675 66158
L75703 66130
L75732 66074
" />
<path d="M76406 65793
L75900 66552
" />
<path d="M76885 65821
L76603 65821
L76575 66102
L76603 66074
L76660 66046
L76800 66046
L76856 66074
L76885 66102
L76913 66158
L76913 66299
L76885 66355
L76856 66383
L76800 66411
L76660 66411
L76603 66383
L76575 66355
" />
<path d="M77588 65793
L77081 66552
" />
<path d="M77728 65821
L78122 65821
L77869 66411
" />
<path d="M77559 75396
L77559 76577
" />
<path d="M102756 75396
L102756 77955
" />
</g>
<g style="fill:#000000; fill-opacity:0.0; 
stroke:#000000; stroke-width:118.11; stroke-opacity:1; 
stroke-linecap:round; stroke-linejoin:round;">
<path d="M41994 38204
L41937 38176
L41853 38176
L41769 38204
L41712 38260
L41684 38317
L41656 38429
L41656 38514
L41684 38626
L41712 38682
L41769 38739
L41853 38767
L41909 38767
L41994 38739
L42022 38710
L42022 38514
L41909 38514
" />
<path d="M42275 38767
L42275 38176
L42500 38176
L42556 38204
L42584 38232
L42612 38289
L42612 38373
L42584 38429
L42556 38457
L42500 38485
L42275 38485
" />
<path d="M42865 38767
L42865 38176
" />
<path d="M43259 38176
L43372 38176
L43428 38204
L43484 38260
L43512 38373
L43512 38570
L43484 38682
L43428 38739
L43372 38767
L43259 38767
L43203 38739
L43147 38682
L43118 38570
L43118 38373
L43147 38260
L43203 38204
L43259 38176
" />
<path d="M43737 38232
L43765 38204
L43821 38176
L43962 38176
L44018 38204
L44046 38232
L44075 38289
L44075 38345
L44046 38429
L43709 38767
L44075 38767
" />
<path d="M44581 38373
L44581 38767
" />
<path d="M44440 38148
L44300 38570
L44665 38570
" />
<path d="M41994 39204
L41937 39176
L41853 39176
L41769 39204
L41712 39260
L41684 39317
L41656 39429
L41656 39514
L41684 39626
L41712 39682
L41769 39739
L41853 39767
L41909 39767
L41994 39739
L42022 39710
L42022 39514
L41909 39514
" />
<path d="M42275 39767
L42275 39176
L42500 39176
L42556 39204
L42584 39232
L42612 39289
L42612 39373
L42584 39429
L42556 39457
L42500 39485
L42275 39485
" />
<path d="M42865 39767
L42865 39176
" />
<path d="M43259 39176
L43372 39176
L43428 39204
L43484 39260
L43512 39373
L43512 39570
L43484 39682
L43428 39739
L43372 39767
L43259 39767
L43203 39739
L43147 39682
L43118 39570
L43118 39373
L43147 39260
L43203 39204
L43259 39176
" />
<path d="M43737 39232
L43765 39204
L43821 39176
L43962 39176
L44018 39204
L44046 39232
L44075 39289
L44075 39345
L44046 39429
L43709 39767
L44075 39767
" />
<path d="M44271 39176
L44637 39176
L44440 39401
L44525 39401
L44581 39429
L44609 39457
L44637 39514
L44637 39654
L44609 39710
L44581 39739
L44525 39767
L44356 39767
L44300 39739
L44271 39710
" />
<path d="M53390 37767
L53390 37176
L53587 37598
L53784 37176
L53784 37767
" />
<path d="M54178 37176
L54290 37176
L54346 37204
L54402 37260
L54431 37373
L54431 37570
L54402 37682
L54346 37739
L54290 37767
L54178 37767
L54121 37739
L54065 37682
L54037 37570
L54037 37373
L54065 37260
L54121 37204
L54178 37176
" />
<path d="M54656 37739
L54740 37767
L54881 37767
L54937 37739
L54965 37710
L54993 37654
L54993 37598
L54965 37542
L54937 37514
L54881 37485
L54768 37457
L54712 37429
L54684 37401
L54656 37345
L54656 37289
L54684 37232
L54712 37204
L54768 37176
L54909 37176
L54993 37204
" />
<path d="M55246 37767
L55246 37176
" />
<path d="M53699 41204
L53643 41176
L53559 41176
L53474 41204
L53418 41260
L53390 41317
L53362 41429
L53362 41514
L53390 41626
L53418 41682
L53474 41739
L53559 41767
L53615 41767
L53699 41739
L53728 41710
L53728 41514
L53615 41514
" />
<path d="M53981 41767
L53981 41176
L54206 41176
L54262 41204
L54290 41232
L54318 41289
L54318 41373
L54290 41429
L54262 41457
L54206 41485
L53981 41485
" />
<path d="M54571 41767
L54571 41176
" />
<path d="M54965 41176
L55077 41176
L55134 41204
L55190 41260
L55218 41373
L55218 41570
L55190 41682
L55134 41739
L55077 41767
L54965 41767
L54909 41739
L54852 41682
L54824 41570
L54824 41373
L54852 41260
L54909 41204
L54965 41176
" />
<path d="M55780 41767
L55443 41767
" />
<path d="M55612 41767
L55612 41176
L55555 41260
L55499 41317
L55443 41345
" />
<path d="M55977 41176
L56371 41176
L56118 41767
" />
<path d="M65449 43700
L65393 43672
L65309 43672
L65224 43700
L65168 43757
L65140 43813
L65112 43925
L65112 44010
L65140 44122
L65168 44178
L65224 44235
L65309 44263
L65365 44263
L65449 44235
L65478 44206
L65478 44010
L65365 44010
" />
<path d="M65731 44263
L65731 43672
L66068 44263
L66068 43672
" />
<path d="M66349 44263
L66349 43672
L66490 43672
L66574 43700
L66631 43757
L66659 43813
L66687 43925
L66687 44010
L66659 44122
L66631 44178
L66574 44235
L66490 44263
L66349 44263
" />
<path d="M65056 44676
L65393 44676
" />
<path d="M65224 45267
L65224 44676
" />
<path d="M65534 44676
L65928 45267
" />
<path d="M65928 44676
L65534 45267
" />
<path d="M66152 45267
L66152 44676
L66293 44676
L66377 44704
L66434 44760
L66462 44817
L66490 44929
L66490 45014
L66462 45126
L66434 45182
L66377 45239
L66293 45267
L66152 45267
" />
<path d="M65478 46271
L65281 45989
" />
<path d="M65140 46271
L65140 45680
L65365 45680
L65421 45708
L65449 45736
L65478 45793
L65478 45877
L65449 45933
L65421 45961
L65365 45989
L65140 45989
" />
<path d="M65674 45680
L66068 46271
" />
<path d="M66068 45680
L65674 46271
" />
<path d="M66293 46271
L66293 45680
L66434 45680
L66518 45708
L66574 45764
L66602 45821
L66631 45933
L66631 46017
L66602 46130
L66574 46186
L66518 46242
L66434 46271
L66293 46271
" />
</g>
<g style="fill:#000000; fill-opacity:0.0; 
stroke:#000000; stroke-width:59.0551; stroke-opacity:1; 
stroke-linecap:round; stroke-linejoin:round;">
<path d="M67500 28000
L67500 24000
" />
<path d="M39500 28000
L39500 24000
" />
</g>
<g style="fill:#000000; fill-opacity:0.0; 
stroke:#000000; stroke-width:118.11; stroke-opacity:1; 
stroke-linecap:round; stroke-linejoin:round;">
<path d="M53699 34204
L53643 34176
L53559 34176
L53474 34204
L53418 34260
L53390 34317
L53362 34429
L53362 34514
L53390 34626
L53418 34682
L53474 34739
L53559 34767
L53615 34767
L53699 34739
L53728 34710
L53728 34514
L53615 34514
" />
<path d="M53981 34767
L53981 34176
L54318 34767
L54318 34176
" />
<path d="M54599 34767
L54599 34176
L54740 34176
L54824 34204
L54881 34260
L54909 34317
L54937 34429
L54937 34514
L54909 34626
L54881 34682
L54824 34739
L54740 34767
L54599 34767
" />
<path d="M53699 27204
L53643 27176
L53559 27176
L53474 27204
L53418 27260
L53390 27317
L53362 27429
L53362 27514
L53390 27626
L53418 27682
L53474 27739
L53559 27767
L53615 27767
L53699 27739
L53728 27710
L53728 27514
L53615 27514
" />
<path d="M53981 27767
L53981 27176
L54318 27767
L54318 27176
" />
<path d="M54599 27767
L54599 27176
L54740 27176
L54824 27204
L54881 27260
L54909 27317
L54937 27429
L54937 27514
L54909 27626
L54881 27682
L54824 27739
L54740 27767
L54599 27767
" />
<path d="M53699 28204
L53643 28176
L53559 28176
L53474 28204
L53418 28260
L53390 28317
L53362 28429
L53362 28514
L53390 28626
L53418 28682
L53474 28739
L53559 28767
L53615 28767
L53699 28739
L53728 28710
L53728 28514
L53615 28514
" />
<path d="M53981 28767
L53981 28176
L54206 28176
L54262 28204
L54290 28232
L54318 28289
L54318 28373
L54290 28429
L54262 28457
L54206 28485
L53981 28485
" />
<path d="M54571 28767
L54571 28176
" />
<path d="M54965 28176
L55077 28176
L55134 28204
L55190 28260
L55218 28373
L55218 28570
L55190 28682
L55134 28739
L55077 28767
L54965 28767
L54909 28739
L54852 28682
L54824 28570
L54824 28373
L54852 28260
L54909 28204
L54965 28176
" />
<path d="M55443 28232
L55471 28204
L55527 28176
L55668 28176
L55724 28204
L55752 28232
L55780 28289
L55780 28345
L55752 28429
L55415 28767
L55780 28767
" />
<path d="M56287 28176
L56174 28176
L56118 28204
L56090 28232
L56034 28317
L56005 28429
L56005 28654
L56034 28710
L56062 28739
L56118 28767
L56230 28767
L56287 28739
L56315 28710
L56343 28654
L56343 28514
L56315 28457
L56287 28429
L56230 28401
L56118 28401
L56062 28429
L56034 28457
L56005 28514
" />
<path d="M41994 27204
L41937 27176
L41853 27176
L41769 27204
L41712 27260
L41684 27317
L41656 27429
L41656 27514
L41684 27626
L41712 27682
L41769 27739
L41853 27767
L41909 27767
L41994 27739
L42022 27710
L42022 27514
L41909 27514
" />
<path d="M42275 27767
L42275 27176
L42500 27176
L42556 27204
L42584 27232
L42612 27289
L42612 27373
L42584 27429
L42556 27457
L42500 27485
L42275 27485
" />
<path d="M42865 27767
L42865 27176
" />
<path d="M43259 27176
L43372 27176
L43428 27204
L43484 27260
L43512 27373
L43512 27570
L43484 27682
L43428 27739
L43372 27767
L43259 27767
L43203 27739
L43147 27682
L43118 27570
L43118 27373
L43147 27260
L43203 27204
L43259 27176
" />
<path d="M43737 27232
L43765 27204
L43821 27176
L43962 27176
L44018 27204
L44046 27232
L44075 27289
L44075 27345
L44046 27429
L43709 27767
L44075 27767
" />
<path d="M44637 27767
L44300 27767
" />
<path d="M44468 27767
L44468 27176
L44412 27260
L44356 27317
L44300 27345
" />
<path d="M42865 28767
L42865 28176
" />
<path d="M43259 28176
L43372 28176
L43428 28204
L43484 28260
L43512 28373
L43512 28570
L43484 28682
L43428 28739
L43372 28767
L43259 28767
L43203 28739
L43147 28682
L43118 28570
L43118 28373
L43147 28260
L43203 28204
L43259 28176
" />
<path d="M43737 28232
L43765 28204
L43821 28176
L43962 28176
L44018 28204
L44046 28232
L44075 28289
L44075 28345
L44046 28429
L43709 28767
L44075 28767
" />
<path d="M44440 28176
L44496 28176
L44553 28204
L44581 28232
L44609 28289
L44637 28401
L44637 28542
L44609 28654
L44581 28710
L44553 28739
L44496 28767
L44440 28767
L44384 28739
L44356 28710
L44328 28654
L44300 28542
L44300 28401
L44328 28289
L44356 28232
L44384 28204
L44440 28176
" />
<path d="M42865 29767
L42865 29176
" />
<path d="M43259 29176
L43372 29176
L43428 29204
L43484 29260
L43512 29373
L43512 29570
L43484 29682
L43428 29739
L43372 29767
L43259 29767
L43203 29739
L43147 29682
L43118 29570
L43118 29373
L43147 29260
L43203 29204
L43259 29176
" />
<path d="M44075 29767
L43737 29767
" />
<path d="M43906 29767
L43906 29176
L43850 29260
L43793 29317
L43737 29345
" />
<path d="M44581 29176
L44468 29176
L44412 29204
L44384 29232
L44328 29317
L44300 29429
L44300 29654
L44328 29710
L44356 29739
L44412 29767
L44525 29767
L44581 29739
L44609 29710
L44637 29654
L44637 29514
L44609 29457
L44581 29429
L44525 29401
L44412 29401
L44356 29429
L44328 29457
L44300 29514
" />
<path d="M41994 31204
L41937 31176
L41853 31176
L41769 31204
L41712 31260
L41684 31317
L41656 31429
L41656 31514
L41684 31626
L41712 31682
L41769 31739
L41853 31767
L41909 31767
L41994 31739
L42022 31710
L42022 31514
L41909 31514
" />
<path d="M42275 31767
L42275 31176
L42500 31176
L42556 31204
L42584 31232
L42612 31289
L42612 31373
L42584 31429
L42556 31457
L42500 31485
L42275 31485
" />
<path d="M42865 31767
L42865 31176
" />
<path d="M43259 31176
L43372 31176
L43428 31204
L43484 31260
L43512 31373
L43512 31570
L43484 31682
L43428 31739
L43372 31767
L43259 31767
L43203 31739
L43147 31682
L43118 31570
L43118 31373
L43147 31260
L43203 31204
L43259 31176
" />
<path d="M44075 31767
L43737 31767
" />
<path d="M43906 31767
L43906 31176
L43850 31260
L43793 31317
L43737 31345
" />
<path d="M44300 31232
L44328 31204
L44384 31176
L44525 31176
L44581 31204
L44609 31232
L44637 31289
L44637 31345
L44609 31429
L44271 31767
L44637 31767
" />
<path d="M43540 35710
L43512 35739
L43428 35767
L43372 35767
L43287 35739
L43231 35682
L43203 35626
L43175 35514
L43175 35429
L43203 35317
L43231 35260
L43287 35204
L43372 35176
L43428 35176
L43512 35204
L43540 35232
" />
<path d="M43793 35457
L43990 35457
" />
<path d="M44075 35767
L43793 35767
L43793 35176
L44075 35176
" />
<path d="M44440 35176
L44496 35176
L44553 35204
L44581 35232
L44609 35289
L44637 35401
L44637 35542
L44609 35654
L44581 35710
L44553 35739
L44496 35767
L44440 35767
L44384 35739
L44356 35710
L44328 35654
L44300 35542
L44300 35401
L44328 35289
L44356 35232
L44384 35204
L44440 35176
" />
<path d="M41994 36204
L41937 36176
L41853 36176
L41769 36204
L41712 36260
L41684 36317
L41656 36429
L41656 36514
L41684 36626
L41712 36682
L41769 36739
L41853 36767
L41909 36767
L41994 36739
L42022 36710
L42022 36514
L41909 36514
" />
<path d="M42275 36767
L42275 36176
L42500 36176
L42556 36204
L42584 36232
L42612 36289
L42612 36373
L42584 36429
L42556 36457
L42500 36485
L42275 36485
" />
<path d="M42865 36767
L42865 36176
" />
<path d="M43259 36176
L43372 36176
L43428 36204
L43484 36260
L43512 36373
L43512 36570
L43484 36682
L43428 36739
L43372 36767
L43259 36767
L43203 36739
L43147 36682
L43118 36570
L43118 36373
L43147 36260
L43203 36204
L43259 36176
" />
<path d="M43737 36232
L43765 36204
L43821 36176
L43962 36176
L44018 36204
L44046 36232
L44075 36289
L44075 36345
L44046 36429
L43709 36767
L44075 36767
" />
<path d="M44609 36176
L44328 36176
L44300 36457
L44328 36429
L44384 36401
L44525 36401
L44581 36429
L44609 36457
L44637 36514
L44637 36654
L44609 36710
L44581 36739
L44525 36767
L44384 36767
L44328 36739
L44300 36710
" />
<path d="M43400 30204
L43343 30176
L43259 30176
L43175 30204
L43118 30260
L43090 30317
L43062 30429
L43062 30514
L43090 30626
L43118 30682
L43175 30739
L43259 30767
L43315 30767
L43400 30739
L43428 30710
L43428 30514
L43315 30514
" />
<path d="M43681 30767
L43681 30176
L44018 30767
L44018 30176
" />
<path d="M44300 30767
L44300 30176
L44440 30176
L44525 30204
L44581 30260
L44609 30317
L44637 30429
L44637 30514
L44609 30626
L44581 30682
L44525 30739
L44440 30767
L44300 30767
" />
<path d="M43400 32204
L43343 32176
L43259 32176
L43175 32204
L43118 32260
L43090 32317
L43062 32429
L43062 32514
L43090 32626
L43118 32682
L43175 32739
L43259 32767
L43315 32767
L43400 32739
L43428 32710
L43428 32514
L43315 32514
" />
<path d="M43681 32767
L43681 32176
L44018 32767
L44018 32176
" />
<path d="M44300 32767
L44300 32176
L44440 32176
L44525 32204
L44581 32260
L44609 32317
L44637 32429
L44637 32514
L44609 32626
L44581 32682
L44525 32739
L44440 32767
L44300 32767
" />
<path d="M43400 44204
L43343 44176
L43259 44176
L43175 44204
L43118 44260
L43090 44317
L43062 44429
L43062 44514
L43090 44626
L43118 44682
L43175 44739
L43259 44767
L43315 44767
L43400 44739
L43428 44710
L43428 44514
L43315 44514
" />
<path d="M43681 44767
L43681 44176
L44018 44767
L44018 44176
" />
<path d="M44300 44767
L44300 44176
L44440 44176
L44525 44204
L44581 44260
L44609 44317
L44637 44429
L44637 44514
L44609 44626
L44581 44682
L44525 44739
L44440 44767
L44300 44767
" />
<path d="M43400 37204
L43343 37176
L43259 37176
L43175 37204
L43118 37260
L43090 37317
L43062 37429
L43062 37514
L43090 37626
L43118 37682
L43175 37739
L43259 37767
L43315 37767
L43400 37739
L43428 37710
L43428 37514
L43315 37514
" />
<path d="M43681 37767
L43681 37176
L44018 37767
L44018 37176
" />
<path d="M44300 37767
L44300 37176
L44440 37176
L44525 37204
L44581 37260
L44609 37317
L44637 37429
L44637 37514
L44609 37626
L44581 37682
L44525 37739
L44440 37767
L44300 37767
" />
<path d="M41994 41204
L41937 41176
L41853 41176
L41769 41204
L41712 41260
L41684 41317
L41656 41429
L41656 41514
L41684 41626
L41712 41682
L41769 41739
L41853 41767
L41909 41767
L41994 41739
L42022 41710
L42022 41514
L41909 41514
" />
<path d="M42275 41767
L42275 41176
L42500 41176
L42556 41204
L42584 41232
L42612 41289
L42612 41373
L42584 41429
L42556 41457
L42500 41485
L42275 41485
" />
<path d="M42865 41767
L42865 41176
" />
<path d="M43259 41176
L43372 41176
L43428 41204
L43484 41260
L43512 41373
L43512 41570
L43484 41682
L43428 41739
L43372 41767
L43259 41767
L43203 41739
L43147 41682
L43118 41570
L43118 41373
L43147 41260
L43203 41204
L43259 41176
" />
<path d="M44075 41767
L43737 41767
" />
<path d="M43906 41767
L43906 41176
L43850 41260
L43793 41317
L43737 41345
" />
<path d="M44412 41429
L44356 41401
L44328 41373
L44300 41317
L44300 41289
L44328 41232
L44356 41204
L44412 41176
L44525 41176
L44581 41204
L44609 41232
L44637 41289
L44637 41317
L44609 41373
L44581 41401
L44525 41429
L44412 41429
L44356 41457
L44328 41485
L44300 41542
L44300 41654
L44328 41710
L44356 41739
L44412 41767
L44525 41767
L44581 41739
L44609 41710
L44637 41654
L44637 41542
L44609 41485
L44581 41457
L44525 41429
" />
<path d="M43400 40204
L43343 40176
L43259 40176
L43175 40204
L43118 40260
L43090 40317
L43062 40429
L43062 40514
L43090 40626
L43118 40682
L43175 40739
L43259 40767
L43315 40767
L43400 40739
L43428 40710
L43428 40514
L43315 40514
" />
<path d="M43681 40767
L43681 40176
L44018 40767
L44018 40176
" />
<path d="M44300 40767
L44300 40176
L44440 40176
L44525 40204
L44581 40260
L44609 40317
L44637 40429
L44637 40514
L44609 40626
L44581 40682
L44525 40739
L44440 40767
L44300 40767
" />
<path d="M43090 45542
L43540 45542
" />
<path d="M43315 45767
L43315 45317
" />
<path d="M44103 45176
L43821 45176
L43793 45457
L43821 45429
L43878 45401
L44018 45401
L44075 45429
L44103 45457
L44131 45514
L44131 45654
L44103 45710
L44075 45739
L44018 45767
L43878 45767
L43821 45739
L43793 45710
" />
<path d="M44300 45176
L44496 45767
L44693 45176
" />
<path d="M43090 46542
L43540 46542
" />
<path d="M43315 46767
L43315 46317
" />
<path d="M44103 46176
L43821 46176
L43793 46457
L43821 46429
L43878 46401
L44018 46401
L44075 46429
L44103 46457
L44131 46514
L44131 46654
L44103 46710
L44075 46739
L44018 46767
L43878 46767
L43821 46739
L43793 46710
" />
<path d="M44300 46176
L44496 46767
L44693 46176
" />
<path d="M53362 35739
L53446 35767
L53587 35767
L53643 35739
L53671 35710
L53699 35654
L53699 35598
L53671 35542
L53643 35514
L53587 35485
L53474 35457
L53418 35429
L53390 35401
L53362 35345
L53362 35289
L53390 35232
L53418 35204
L53474 35176
L53615 35176
L53699 35204
" />
<path d="M54290 35710
L54262 35739
L54178 35767
L54121 35767
L54037 35739
L53981 35682
L53953 35626
L53924 35514
L53924 35429
L53953 35317
L53981 35260
L54037 35204
L54121 35176
L54178 35176
L54262 35204
L54290 35232
" />
<path d="M54824 35767
L54543 35767
L54543 35176
" />
<path d="M55021 35767
L55021 35176
" />
<path d="M55359 35767
L55106 35429
" />
<path d="M55359 35176
L55021 35514
" />
<path d="M53390 38542
L53840 38542
" />
<path d="M53615 38767
L53615 38317
" />
<path d="M54065 38176
L54431 38176
L54234 38401
L54318 38401
L54374 38429
L54402 38457
L54431 38514
L54431 38654
L54402 38710
L54374 38739
L54318 38767
L54149 38767
L54093 38739
L54065 38710
" />
<path d="M54684 38710
L54712 38739
L54684 38767
L54656 38739
L54684 38710
L54684 38767
" />
<path d="M54909 38176
L55274 38176
L55077 38401
L55162 38401
L55218 38429
L55246 38457
L55274 38514
L55274 38654
L55246 38710
L55218 38739
L55162 38767
L54993 38767
L54937 38739
L54909 38710
" />
<path d="M55443 38176
L55640 38767
L55837 38176
" />
<path d="M53699 39204
L53643 39176
L53559 39176
L53474 39204
L53418 39260
L53390 39317
L53362 39429
L53362 39514
L53390 39626
L53418 39682
L53474 39739
L53559 39767
L53615 39767
L53699 39739
L53728 39710
L53728 39514
L53615 39514
" />
<path d="M53981 39767
L53981 39176
L54206 39176
L54262 39204
L54290 39232
L54318 39289
L54318 39373
L54290 39429
L54262 39457
L54206 39485
L53981 39485
" />
<path d="M54571 39767
L54571 39176
" />
<path d="M54965 39176
L55077 39176
L55134 39204
L55190 39260
L55218 39373
L55218 39570
L55190 39682
L55134 39739
L55077 39767
L54965 39767
L54909 39739
L54852 39682
L54824 39570
L54824 39373
L54852 39260
L54909 39204
L54965 39176
" />
<path d="M55443 39232
L55471 39204
L55527 39176
L55668 39176
L55724 39204
L55752 39232
L55780 39289
L55780 39345
L55752 39429
L55415 39767
L55780 39767
" />
<path d="M56005 39232
L56034 39204
L56090 39176
L56230 39176
L56287 39204
L56315 39232
L56343 39289
L56343 39345
L56315 39429
L55977 39767
L56343 39767
" />
<path d="M53699 40204
L53643 40176
L53559 40176
L53474 40204
L53418 40260
L53390 40317
L53362 40429
L53362 40514
L53390 40626
L53418 40682
L53474 40739
L53559 40767
L53615 40767
L53699 40739
L53728 40710
L53728 40514
L53615 40514
" />
<path d="M53981 40767
L53981 40176
L54206 40176
L54262 40204
L54290 40232
L54318 40289
L54318 40373
L54290 40429
L54262 40457
L54206 40485
L53981 40485
" />
<path d="M54571 40767
L54571 40176
" />
<path d="M54965 40176
L55077 40176
L55134 40204
L55190 40260
L55218 40373
L55218 40570
L55190 40682
L55134 40739
L55077 40767
L54965 40767
L54909 40739
L54852 40682
L54824 40570
L54824 40373
L54852 40260
L54909 40204
L54965 40176
" />
<path d="M55443 40232
L55471 40204
L55527 40176
L55668 40176
L55724 40204
L55752 40232
L55780 40289
L55780 40345
L55752 40429
L55415 40767
L55780 40767
" />
<path d="M55977 40176
L56371 40176
L56118 40767
" />
<path d="M53699 42204
L53643 42176
L53559 42176
L53474 42204
L53418 42260
L53390 42317
L53362 42429
L53362 42514
L53390 42626
L53418 42682
L53474 42739
L53559 42767
L53615 42767
L53699 42739
L53728 42710
L53728 42514
L53615 42514
" />
<path d="M53981 42767
L53981 42176
L54318 42767
L54318 42176
" />
<path d="M54599 42767
L54599 42176
L54740 42176
L54824 42204
L54881 42260
L54909 42317
L54937 42429
L54937 42514
L54909 42626
L54881 42682
L54824 42739
L54740 42767
L54599 42767
" />
<path d="M53390 46542
L53840 46542
" />
<path d="M53615 46767
L53615 46317
" />
<path d="M54065 46176
L54431 46176
L54234 46401
L54318 46401
L54374 46429
L54402 46457
L54431 46514
L54431 46654
L54402 46710
L54374 46739
L54318 46767
L54149 46767
L54093 46739
L54065 46710
" />
<path d="M54684 46710
L54712 46739
L54684 46767
L54656 46739
L54684 46710
L54684 46767
" />
<path d="M54909 46176
L55274 46176
L55077 46401
L55162 46401
L55218 46429
L55246 46457
L55274 46514
L55274 46654
L55246 46710
L55218 46739
L55162 46767
L54993 46767
L54937 46739
L54909 46710
" />
<path d="M55443 46176
L55640 46767
L55837 46176
" />
<path d="M49556 43204
L49500 43176
L49415 43176
L49331 43204
L49275 43260
L49247 43317
L49219 43429
L49219 43514
L49247 43626
L49275 43682
L49331 43739
L49415 43767
L49472 43767
L49556 43739
L49584 43710
L49584 43514
L49472 43514
" />
<path d="M49837 43767
L49837 43176
L50062 43176
L50118 43204
L50147 43232
L50175 43289
L50175 43373
L50147 43429
L50118 43457
L50062 43485
L49837 43485
" />
<path d="M50428 43767
L50428 43176
" />
<path d="M50821 43176
L50934 43176
L50990 43204
L51046 43260
L51075 43373
L51075 43570
L51046 43682
L50990 43739
L50934 43767
L50821 43767
L50765 43739
L50709 43682
L50681 43570
L50681 43373
L50709 43260
L50765 43204
L50821 43176
" />
<path d="M51581 43373
L51581 43767
" />
<path d="M51440 43148
L51300 43570
L51665 43570
" />
<path d="M49556 44204
L49500 44176
L49415 44176
L49331 44204
L49275 44260
L49247 44317
L49219 44429
L49219 44514
L49247 44626
L49275 44682
L49331 44739
L49415 44767
L49472 44767
L49556 44739
L49584 44710
L49584 44514
L49472 44514
" />
<path d="M49837 44767
L49837 44176
L50062 44176
L50118 44204
L50147 44232
L50175 44289
L50175 44373
L50147 44429
L50118 44457
L50062 44485
L49837 44485
" />
<path d="M50428 44767
L50428 44176
" />
<path d="M50821 44176
L50934 44176
L50990 44204
L51046 44260
L51075 44373
L51075 44570
L51046 44682
L50990 44739
L50934 44767
L50821 44767
L50765 44739
L50709 44682
L50681 44570
L50681 44373
L50709 44260
L50765 44204
L50821 44176
" />
<path d="M51271 44176
L51637 44176
L51440 44401
L51525 44401
L51581 44429
L51609 44457
L51637 44514
L51637 44654
L51609 44710
L51581 44739
L51525 44767
L51356 44767
L51300 44739
L51271 44710
" />
<path d="M49556 45204
L49500 45176
L49415 45176
L49331 45204
L49275 45260
L49247 45317
L49219 45429
L49219 45514
L49247 45626
L49275 45682
L49331 45739
L49415 45767
L49472 45767
L49556 45739
L49584 45710
L49584 45514
L49472 45514
" />
<path d="M49837 45767
L49837 45176
L50062 45176
L50118 45204
L50147 45232
L50175 45289
L50175 45373
L50147 45429
L50118 45457
L50062 45485
L49837 45485
" />
<path d="M50428 45767
L50428 45176
" />
<path d="M50821 45176
L50934 45176
L50990 45204
L51046 45260
L51075 45373
L51075 45570
L51046 45682
L50990 45739
L50934 45767
L50821 45767
L50765 45739
L50709 45682
L50681 45570
L50681 45373
L50709 45260
L50765 45204
L50821 45176
" />
<path d="M51300 45232
L51328 45204
L51384 45176
L51525 45176
L51581 45204
L51609 45232
L51637 45289
L51637 45345
L51609 45429
L51271 45767
L51637 45767
" />
<path d="M53699 29204
L53643 29176
L53559 29176
L53474 29204
L53418 29260
L53390 29317
L53362 29429
L53362 29514
L53390 29626
L53418 29682
L53474 29739
L53559 29767
L53615 29767
L53699 29739
L53728 29710
L53728 29514
L53615 29514
" />
<path d="M53981 29767
L53981 29176
L54206 29176
L54262 29204
L54290 29232
L54318 29289
L54318 29373
L54290 29429
L54262 29457
L54206 29485
L53981 29485
" />
<path d="M54571 29767
L54571 29176
" />
<path d="M54965 29176
L55077 29176
L55134 29204
L55190 29260
L55218 29373
L55218 29570
L55190 29682
L55134 29739
L55077 29767
L54965 29767
L54909 29739
L54852 29682
L54824 29570
L54824 29373
L54852 29260
L54909 29204
L54965 29176
" />
<path d="M55780 29767
L55443 29767
" />
<path d="M55612 29767
L55612 29176
L55555 29260
L55499 29317
L55443 29345
" />
<path d="M56062 29767
L56174 29767
L56230 29739
L56258 29710
L56315 29626
L56343 29514
L56343 29289
L56315 29232
L56287 29204
L56230 29176
L56118 29176
L56062 29204
L56034 29232
L56005 29289
L56005 29429
L56034 29485
L56062 29514
L56118 29542
L56230 29542
L56287 29514
L56315 29485
L56343 29429
" />
<path d="M53699 30204
L53643 30176
L53559 30176
L53474 30204
L53418 30260
L53390 30317
L53362 30429
L53362 30514
L53390 30626
L53418 30682
L53474 30739
L53559 30767
L53615 30767
L53699 30739
L53728 30710
L53728 30514
L53615 30514
" />
<path d="M53981 30767
L53981 30176
L54206 30176
L54262 30204
L54290 30232
L54318 30289
L54318 30373
L54290 30429
L54262 30457
L54206 30485
L53981 30485
" />
<path d="M54571 30767
L54571 30176
" />
<path d="M54965 30176
L55077 30176
L55134 30204
L55190 30260
L55218 30373
L55218 30570
L55190 30682
L55134 30739
L55077 30767
L54965 30767
L54909 30739
L54852 30682
L54824 30570
L54824 30373
L54852 30260
L54909 30204
L54965 30176
" />
<path d="M55780 30767
L55443 30767
" />
<path d="M55612 30767
L55612 30176
L55555 30260
L55499 30317
L55443 30345
" />
<path d="M55977 30176
L56343 30176
L56146 30401
L56230 30401
L56287 30429
L56315 30457
L56343 30514
L56343 30654
L56315 30710
L56287 30739
L56230 30767
L56062 30767
L56005 30739
L55977 30710
" />
<path d="M53699 31204
L53643 31176
L53559 31176
L53474 31204
L53418 31260
L53390 31317
L53362 31429
L53362 31514
L53390 31626
L53418 31682
L53474 31739
L53559 31767
L53615 31767
L53699 31739
L53728 31710
L53728 31514
L53615 31514
" />
<path d="M53981 31767
L53981 31176
L54206 31176
L54262 31204
L54290 31232
L54318 31289
L54318 31373
L54290 31429
L54262 31457
L54206 31485
L53981 31485
" />
<path d="M54571 31767
L54571 31176
" />
<path d="M54965 31176
L55077 31176
L55134 31204
L55190 31260
L55218 31373
L55218 31570
L55190 31682
L55134 31739
L55077 31767
L54965 31767
L54909 31739
L54852 31682
L54824 31570
L54824 31373
L54852 31260
L54909 31204
L54965 31176
" />
<path d="M55724 31176
L55612 31176
L55555 31204
L55527 31232
L55471 31317
L55443 31429
L55443 31654
L55471 31710
L55499 31739
L55555 31767
L55668 31767
L55724 31739
L55752 31710
L55780 31654
L55780 31514
L55752 31457
L55724 31429
L55668 31401
L55555 31401
L55499 31429
L55471 31457
L55443 31514
" />
<path d="M53699 32204
L53643 32176
L53559 32176
L53474 32204
L53418 32260
L53390 32317
L53362 32429
L53362 32514
L53390 32626
L53418 32682
L53474 32739
L53559 32767
L53615 32767
L53699 32739
L53728 32710
L53728 32514
L53615 32514
" />
<path d="M53981 32767
L53981 32176
L54206 32176
L54262 32204
L54290 32232
L54318 32289
L54318 32373
L54290 32429
L54262 32457
L54206 32485
L53981 32485
" />
<path d="M54571 32767
L54571 32176
" />
<path d="M54965 32176
L55077 32176
L55134 32204
L55190 32260
L55218 32373
L55218 32570
L55190 32682
L55134 32739
L55077 32767
L54965 32767
L54909 32739
L54852 32682
L54824 32570
L54824 32373
L54852 32260
L54909 32204
L54965 32176
" />
<path d="M55752 32176
L55471 32176
L55443 32457
L55471 32429
L55527 32401
L55668 32401
L55724 32429
L55752 32457
L55780 32514
L55780 32654
L55752 32710
L55724 32739
L55668 32767
L55527 32767
L55471 32739
L55443 32710
" />
</g>
<g style="fill:#000000; fill-opacity:0.0; 
stroke:#000000; stroke-width:59.0551; stroke-opacity:1; 
stroke-linecap:round; stroke-linejoin:round;">
<path d="M67500 24000
L39500 24000
" />
<path d="M67500 50500
L67500 28000
" />
<path d="M39500 50500
L67500 50500
" />
<path d="M39500 28000
L39500 50500
" />
</g>
<g style="fill:#000000; fill-opacity:0.0; 
stroke:#000000; stroke-width:120; stroke-opacity:1; 
stroke-linecap:round; stroke-linejoin:round;">
<path d="M49000 27000
L49000 47000
" />
<path d="M47000 27000
L47000 47000
" />
<path d="M47000 27000
L49000 27000
" />
<path d="M47000 47000
L49000 47000
" />
</g>
<g style="fill:#000000; fill-opacity:0.0; 
stroke:#000000; stroke-width:59.0551; stroke-opacity:1; 
stroke-linecap:round; stroke-linejoin:round;">
<path d="M45000 46000
L45000 27000
" />
<path d="M45000 27000
L46000 27000
" />
<path d="M46000 27000
L46000 46000
" />
<path d="M44889 47110
L44889 46500
" />
<path d="M45000 46000
L46000 46000
" />
<path d="M46110 46500
L46110 47110
" />
<path d="M46110 47110
L44889 47110
" />
<path d="M52000 46000
L52000 27000
" />
<path d="M52000 27000
L53000 27000
" />
<path d="M53000 27000
L53000 46000
" />
<path d="M51889 47110
L51889 46500
" />
<path d="M52000 46000
L53000 46000
" />
<path d="M53110 46500
L53110 47110
" />
<path d="M53110 47110
L51889 47110
" />
<path d="M51000 32000
L51000 29000
" />
<path d="M50000 32000
L50000 29000
" />
<path d="M49889 33110
L49889 32500
" />
<path d="M51000 29000
L50000 29000
" />
<path d="M50000 32000
L51000 32000
" />
<path d="M51110 32500
L51110 33110
" />
<path d="M51110 33110
L49889 33110
" />
<path d="M60553 38596
L60553 39096
" />
<path d="M63446 38596
L63446 39096
" />
<path d="M63446 47403
L63446 46903
" />
<path d="M60553 47403
L60553 46903
" />
<path d="M60553 38596
L63446 38596
" />
<path d="M60553 47403
L63446 47403
" />
<path d="M60553 39096
L60047 39096
" />
<path d="M73021 45024
L73021 47975
" />
<path d="M73076 45025
L73076 47974
" />
<path d="M73131 45030
L73131 46324
" />
<path d="M73131 46675
L73131 47969
" />
<path d="M73187 45036
L73187 46241
" />
<path d="M73187 46758
L73187 47963
" />
<path d="M73242 45044
L73242 46189
" />
<path d="M73242 46810
L73242 47955
" />
<path d="M73297 45055
L73297 46153
" />
<path d="M73297 46846
L73297 47944
" />
<path d="M73352 45068
L73352 46129
" />
<path d="M73352 46870
L73352 47931
" />
<path d="M73407 45083
L73407 46113
" />
<path d="M73407 46886
L73407 47916
" />
<path d="M73462 45100
L73462 46107
" />
<path d="M73462 46892
L73462 47899
" />
<path d="M73517 45120
L73517 46107
" />
<path d="M73517 46892
L73517 47879
" />
<path d="M73572 45142
L73572 46116
" />
<path d="M73572 46883
L73572 47857
" />
<path d="M73627 45167
L73627 46133
" />
<path d="M73627 46866
L73627 47832
" />
<path d="M73683 45195
L73683 46160
" />
<path d="M73683 46839
L73683 47804
" />
<path d="M73738 45225
L73738 46199
" />
<path d="M73738 46800
L73738 47774
" />
<path d="M73793 45259
L73793 46256
" />
<path d="M73793 46743
L73793 47740
" />
<path d="M73848 45297
L73848 46350
" />
<path d="M73848 46649
L73848 47702
" />
<path d="M73903 45338
L73903 47661
" />
<path d="M73958 45383
L73958 47616
" />
<path d="M74013 45434
L74013 47565
" />
<path d="M74068 45489
L74068 47510
" />
<path d="M74124 45551
L74124 47448
" />
<path d="M74179 45622
L74179 47377
" />
<path d="M74234 45701
L74234 47298
" />
<path d="M74289 45795
L74289 47204
" />
<path d="M74344 45907
L74344 47092
" />
<path d="M74399 46054
L74399 46945
" />
<path d="M74454 46298
L74454 46701
" />
<circle cx="73484.3" cy="46500" r="393.701" /> 
<circle cx="72992.1" cy="46500" r="1491.14" /> 
<path d="M57704 39007
L59279 39007
" />
<path d="M57704 39992
L59279 39992
" />
<path d="M61204 37007
L62779 37007
" />
<path d="M61204 37992
L62779 37992
" />
<path d="M57704 43007
L59279 43007
" />
<path d="M57704 43992
L59279 43992
" />
<path d="M57704 44007
L59279 44007
" />
<path d="M57704 44992
L59279 44992
" />
<path d="M57704 40007
L59279 40007
" />
<path d="M57704 40992
L59279 40992
" />
<path d="M65500 41000
L65500 43000
" />
<path d="M65500 43000
L66500 43000
" />
<path d="M66500 43000
L66500 41000
" />
<path d="M66610 39889
L66610 40500
" />
<path d="M66500 41000
L65500 41000
" />
<path d="M65389 40500
L65389 39889
" />
<path d="M65389 39889
L66610 39889
" />
<path d="M57500 29000
L57500 36000
" />
<path d="M59500 35000
L59500 29000
" />
<path d="M57500 29000
L59500 29000
" />
<path d="M57500 36000
L58500 36000
" />
<path d="M59000 36110
L59610 36110
" />
<path d="M58500 36000
L58500 35000
" />
<path d="M58500 35000
L59500 35000
" />
<path d="M59610 36110
L59610 35500
" />
<path d="M47323 47680
L47323 47280
L47476 47280
L47514 47300
L47533 47319
L47552 47357
L47552 47414
L47533 47452
L47514 47471
L47476 47490
L47323 47490
" />
<path d="M47704 47319
L47723 47300
L47761 47280
L47857 47280
L47895 47300
L47914 47319
L47933 47357
L47933 47395
L47914 47452
L47685 47680
L47933 47680
" />
<path d="M48180 47280
L48219 47280
L48257 47300
L48276 47319
L48295 47357
L48314 47433
L48314 47528
L48295 47604
L48276 47642
L48257 47661
L48219 47680
L48180 47680
L48142 47661
L48123 47642
L48104 47604
L48085 47528
L48085 47433
L48104 47357
L48123 47319
L48142 47300
L48180 47280
" />
<path d="M48695 47680
L48466 47680
" />
<path d="M48580 47680
L48580 47280
L48542 47338
L48504 47376
L48466 47395
" />
<path d="M61325 47784
L61325 48103
L61343 48140
L61362 48159
L61400 48178
L61475 48178
L61512 48159
L61531 48140
L61550 48103
L61550 47784
" />
<path d="M61718 47821
L61737 47803
L61775 47784
L61868 47784
L61906 47803
L61925 47821
L61943 47859
L61943 47896
L61925 47953
L61700 48178
L61943 48178
" />
<path d="M62187 47784
L62224 47784
L62262 47803
L62281 47821
L62299 47859
L62318 47934
L62318 48028
L62299 48103
L62281 48140
L62262 48159
L62224 48178
L62187 48178
L62149 48159
L62131 48140
L62112 48103
L62093 48028
L62093 47934
L62112 47859
L62131 47821
L62149 47803
L62187 47784
" />
<path d="M62693 48178
L62468 48178
" />
<path d="M62581 48178
L62581 47784
L62543 47840
L62506 47878
L62468 47896
" />
<path d="M72551 44632
L72532 44651
L72476 44670
L72439 44670
L72382 44651
L72345 44613
L72326 44576
L72307 44501
L72307 44445
L72326 44370
L72345 44332
L72382 44295
L72439 44276
L72476 44276
L72532 44295
L72551 44314
" />
<path d="M72701 44314
L72720 44295
L72757 44276
L72851 44276
L72889 44295
L72907 44314
L72926 44351
L72926 44389
L72907 44445
L72682 44670
L72926 44670
" />
<path d="M73170 44276
L73207 44276
L73245 44295
L73263 44314
L73282 44351
L73301 44426
L73301 44520
L73282 44595
L73263 44632
L73245 44651
L73207 44670
L73170 44670
L73132 44651
L73113 44632
L73095 44595
L73076 44520
L73076 44426
L73095 44351
L73113 44314
L73132 44295
L73170 44276
" />
<path d="M73676 44670
L73451 44670
" />
<path d="M73563 44670
L73563 44276
L73526 44332
L73488 44370
L73451 44389
" />
<path d="M58051 38656
L58032 38675
L57976 38693
L57939 38693
L57882 38675
L57845 38637
L57826 38600
L57807 38525
L57807 38468
L57826 38393
L57845 38356
L57882 38318
L57939 38300
L57976 38300
L58032 38318
L58051 38337
" />
<path d="M58201 38337
L58220 38318
L58257 38300
L58351 38300
L58389 38318
L58407 38337
L58426 38375
L58426 38412
L58407 38468
L58182 38693
L58426 38693
" />
<path d="M58670 38300
L58707 38300
L58745 38318
L58763 38337
L58782 38375
L58801 38450
L58801 38543
L58782 38618
L58763 38656
L58745 38675
L58707 38693
L58670 38693
L58632 38675
L58613 38656
L58595 38618
L58576 38543
L58576 38450
L58595 38375
L58613 38337
L58632 38318
L58670 38300
" />
<path d="M58932 38300
L59176 38300
L59045 38450
L59101 38450
L59138 38468
L59157 38487
L59176 38525
L59176 38618
L59157 38656
L59138 38675
L59101 38693
L58988 38693
L58951 38675
L58932 38656
" />
<path d="M61559 36640
L61540 36659
L61484 36678
L61446 36678
L61390 36659
L61353 36621
L61334 36584
L61315 36509
L61315 36453
L61334 36378
L61353 36340
L61390 36303
L61446 36284
L61484 36284
L61540 36303
L61559 36321
" />
<path d="M61709 36321
L61728 36303
L61765 36284
L61859 36284
L61896 36303
L61915 36321
L61934 36359
L61934 36396
L61915 36453
L61690 36678
L61934 36678
" />
<path d="M62178 36284
L62215 36284
L62253 36303
L62271 36321
L62290 36359
L62309 36434
L62309 36528
L62290 36603
L62271 36640
L62253 36659
L62215 36678
L62178 36678
L62140 36659
L62121 36640
L62103 36603
L62084 36528
L62084 36434
L62103 36359
L62121 36321
L62140 36303
L62178 36284
" />
<path d="M62459 36321
L62478 36303
L62515 36284
L62609 36284
L62646 36303
L62665 36321
L62684 36359
L62684 36396
L62665 36453
L62440 36678
L62684 36678
" />
<path d="M58051 42656
L58032 42675
L57976 42693
L57939 42693
L57882 42675
L57845 42637
L57826 42600
L57807 42525
L57807 42468
L57826 42393
L57845 42356
L57882 42318
L57939 42300
L57976 42300
L58032 42318
L58051 42337
" />
<path d="M58201 42337
L58220 42318
L58257 42300
L58351 42300
L58389 42318
L58407 42337
L58426 42375
L58426 42412
L58407 42468
L58182 42693
L58426 42693
" />
<path d="M58670 42300
L58707 42300
L58745 42318
L58763 42337
L58782 42375
L58801 42450
L58801 42543
L58782 42618
L58763 42656
L58745 42675
L58707 42693
L58670 42693
L58632 42675
L58613 42656
L58595 42618
L58576 42543
L58576 42450
L58595 42375
L58613 42337
L58632 42318
L58670 42300
" />
<path d="M59138 42431
L59138 42693
" />
<path d="M59045 42281
L58951 42562
L59195 42562
" />
<path d="M58059 45640
L58040 45659
L57984 45678
L57946 45678
L57890 45659
L57853 45621
L57834 45584
L57815 45509
L57815 45453
L57834 45378
L57853 45340
L57890 45303
L57946 45284
L57984 45284
L58040 45303
L58059 45321
" />
<path d="M58209 45321
L58228 45303
L58265 45284
L58359 45284
L58396 45303
L58415 45321
L58434 45359
L58434 45396
L58415 45453
L58190 45678
L58434 45678
" />
<path d="M58678 45284
L58715 45284
L58753 45303
L58771 45321
L58790 45359
L58809 45434
L58809 45528
L58790 45603
L58771 45640
L58753 45659
L58715 45678
L58678 45678
L58640 45659
L58621 45640
L58603 45603
L58584 45528
L58584 45434
L58603 45359
L58621 45321
L58640 45303
L58678 45284
" />
<path d="M59146 45284
L59071 45284
L59034 45303
L59015 45321
L58978 45378
L58959 45453
L58959 45603
L58978 45640
L58996 45659
L59034 45678
L59109 45678
L59146 45659
L59165 45640
L59184 45603
L59184 45509
L59165 45471
L59146 45453
L59109 45434
L59034 45434
L58996 45453
L58978 45471
L58959 45509
" />
<path d="M58059 41640
L58040 41659
L57984 41678
L57946 41678
L57890 41659
L57853 41621
L57834 41584
L57815 41509
L57815 41453
L57834 41378
L57853 41340
L57890 41303
L57946 41284
L57984 41284
L58040 41303
L58059 41321
" />
<path d="M58209 41321
L58228 41303
L58265 41284
L58359 41284
L58396 41303
L58415 41321
L58434 41359
L58434 41396
L58415 41453
L58190 41678
L58434 41678
" />
<path d="M58678 41284
L58715 41284
L58753 41303
L58771 41321
L58790 41359
L58809 41434
L58809 41528
L58790 41603
L58771 41640
L58753 41659
L58715 41678
L58678 41678
L58640 41659
L58621 41640
L58603 41603
L58584 41528
L58584 41434
L58603 41359
L58621 41321
L58640 41303
L58678 41284
" />
<path d="M59165 41284
L58978 41284
L58959 41471
L58978 41453
L59015 41434
L59109 41434
L59146 41453
L59165 41471
L59184 41509
L59184 41603
L59165 41640
L59146 41659
L59109 41678
L59015 41678
L58978 41659
L58959 41640
" />
<path d="M57796 28284
L57796 28565
L57778 28621
L57740 28659
L57684 28678
L57646 28678
" />
<path d="M57984 28678
L57984 28284
L58134 28284
L58171 28303
L58190 28321
L58209 28359
L58209 28415
L58190 28453
L58171 28471
L58134 28490
L57984 28490
" />
<path d="M58359 28321
L58378 28303
L58415 28284
L58509 28284
L58546 28303
L58565 28321
L58584 28359
L58584 28396
L58565 28453
L58340 28678
L58584 28678
" />
<path d="M58828 28284
L58865 28284
L58903 28303
L58921 28321
L58940 28359
L58959 28434
L58959 28528
L58940 28603
L58921 28640
L58903 28659
L58865 28678
L58828 28678
L58790 28659
L58771 28640
L58753 28603
L58734 28528
L58734 28434
L58753 28359
L58771 28321
L58790 28303
L58828 28284
" />
<path d="M59334 28678
L59109 28678
" />
<path d="M59221 28678
L59221 28284
L59184 28340
L59146 28378
L59109 28396
" />
</g> 
</svg>
