<?xml version="1.0" standalone="no"?>
 <!DOCTYPE svg PUBLIC "-//W3C//DTD SVG 1.1//EN" 
 "http://www.w3.org/Graphics/SVG/1.1/DTD/svg11.dtd"> 
<svg xmlns="http://www.w3.org/2000/svg" version="1.1" 
    width="29.7002cm" height="21.0007cm" viewBox="0 0 116930 82680 ">
<title>SVG Picture created as mm5d-B.Cu.svg date 2020/02/24 09:40:41 </title>
  <desc>Picture generated by PCBNEW </desc>
<g style="fill:#000000; fill-opacity:1;stroke:#000000; stroke-opacity:1;
stroke-linecap:round; stroke-linejoin:round; "
 transform="translate(0 0) scale(1 1)">
</g>
<g style="fill:#000000; fill-opacity:0.0; 
stroke:#000000; stroke-width:-0.000393701; stroke-opacity:1; 
stroke-linecap:round; stroke-linejoin:round;">
</g>
<g style="fill:#000000; fill-opacity:0.0; 
stroke:#000000; stroke-width:59.0551; stroke-opacity:1; 
stroke-linecap:round; stroke-linejoin:round;">
<rect x="69685.9" y="65357.2" width="42519.7" height="12598.4" rx="0" />
<rect x="3937.01" y="3937.01" width="109056" height="74806" rx="0" />
<rect x="4724.41" y="4724.41" width="107481" height="73231.2" rx="0" />
<path d="M23622 4724
L23622 3937
" />
<path d="M43307 4724
L43307 3937
" />
<path d="M62992 4724
L62992 3937
" />
<path d="M82677 4724
L82677 3937
" />
<path d="M102362 4724
L102362 3937
" />
<path d="M14169 4562
L13877 4562
" />
<path d="M14023 4562
L14023 4050
L13974 4123
L13925 4172
L13877 4196
" />
<path d="M33562 4099
L33586 4074
L33635 4050
L33757 4050
L33805 4074
L33830 4099
L33854 4147
L33854 4196
L33830 4269
L33537 4562
L33854 4562
" />
<path d="M53222 4050
L53539 4050
L53368 4245
L53442 4245
L53490 4269
L53515 4294
L53539 4342
L53539 4464
L53515 4513
L53490 4537
L53442 4562
L53295 4562
L53247 4537
L53222 4513
" />
<path d="M73175 4221
L73175 4562
" />
<path d="M73053 4026
L72932 4391
L73248 4391
" />
<path d="M92885 4050
L92641 4050
L92617 4294
L92641 4269
L92690 4245
L92812 4245
L92860 4269
L92885 4294
L92909 4342
L92909 4464
L92885 4513
L92860 4537
L92812 4562
L92690 4562
L92641 4537
L92617 4513
" />
<path d="M112545 4050
L112448 4050
L112399 4074
L112375 4099
L112326 4172
L112302 4269
L112302 4464
L112326 4513
L112350 4537
L112399 4562
L112497 4562
L112545 4537
L112570 4513
L112594 4464
L112594 4342
L112570 4294
L112545 4269
L112497 4245
L112399 4245
L112350 4269
L112326 4294
L112302 4342
" />
<path d="M23622 77955
L23622 78742
" />
<path d="M43307 77955
L43307 78742
" />
<path d="M62992 77955
L62992 78742
" />
<path d="M82677 77955
L82677 78742
" />
<path d="M102362 77955
L102362 78742
" />
<path d="M14169 78580
L13877 78580
" />
<path d="M14023 78580
L14023 78069
L13974 78142
L13925 78190
L13877 78215
" />
<path d="M33562 78117
L33586 78093
L33635 78069
L33757 78069
L33805 78093
L33830 78117
L33854 78166
L33854 78215
L33830 78288
L33537 78580
L33854 78580
" />
<path d="M53222 78069
L53539 78069
L53368 78263
L53442 78263
L53490 78288
L53515 78312
L53539 78361
L53539 78483
L53515 78532
L53490 78556
L53442 78580
L53295 78580
L53247 78556
L53222 78532
" />
<path d="M73175 78239
L73175 78580
" />
<path d="M73053 78044
L72932 78410
L73248 78410
" />
<path d="M92885 78069
L92641 78069
L92617 78312
L92641 78288
L92690 78263
L92812 78263
L92860 78288
L92885 78312
L92909 78361
L92909 78483
L92885 78532
L92860 78556
L92812 78580
L92690 78580
L92641 78556
L92617 78532
" />
<path d="M112545 78069
L112448 78069
L112399 78093
L112375 78117
L112326 78190
L112302 78288
L112302 78483
L112326 78532
L112350 78556
L112399 78580
L112497 78580
L112545 78556
L112570 78532
L112594 78483
L112594 78361
L112570 78312
L112545 78288
L112497 78263
L112399 78263
L112350 78288
L112326 78312
L112302 78361
" />
<path d="M3937 23622
L4724 23622
" />
<path d="M3937 43307
L4724 43307
" />
<path d="M3937 62992
L4724 62992
" />
<path d="M4208 13864
L4452 13864
" />
<path d="M4160 14011
L4330 13499
L4501 14011
" />
<path d="M4367 33428
L4440 33452
L4464 33476
L4489 33525
L4489 33598
L4464 33647
L4440 33671
L4391 33696
L4196 33696
L4196 33184
L4367 33184
L4416 33208
L4440 33233
L4464 33281
L4464 33330
L4440 33379
L4416 33403
L4367 33428
L4196 33428
" />
<path d="M4489 53332
L4464 53356
L4391 53381
L4342 53381
L4269 53356
L4221 53308
L4196 53259
L4172 53161
L4172 53088
L4196 52991
L4221 52942
L4269 52893
L4342 52869
L4391 52869
L4464 52893
L4489 52918
" />
<path d="M4196 73066
L4196 72554
L4318 72554
L4391 72578
L4440 72627
L4464 72676
L4489 72773
L4489 72846
L4464 72944
L4440 72993
L4391 73041
L4318 73066
L4196 73066
" />
<path d="M112992 23622
L112205 23622
" />
<path d="M112992 43307
L112205 43307
" />
<path d="M112992 62992
L112205 62992
" />
<path d="M112477 13864
L112721 13864
" />
<path d="M112428 14011
L112599 13499
L112769 14011
" />
<path d="M112635 33428
L112708 33452
L112733 33476
L112757 33525
L112757 33598
L112733 33647
L112708 33671
L112660 33696
L112465 33696
L112465 33184
L112635 33184
L112684 33208
L112708 33233
L112733 33281
L112733 33330
L112708 33379
L112684 33403
L112635 33428
L112465 33428
" />
<path d="M112757 53332
L112733 53356
L112660 53381
L112611 53381
L112538 53356
L112489 53308
L112465 53259
L112440 53161
L112440 53088
L112465 52991
L112489 52942
L112538 52893
L112611 52869
L112660 52869
L112733 52893
L112757 52918
" />
<path d="M112465 73066
L112465 72554
L112587 72554
L112660 72578
L112708 72627
L112733 72676
L112757 72773
L112757 72846
L112733 72944
L112708 72993
L112660 73041
L112587 73066
L112465 73066
" />
<path d="M78881 76293
L78881 75703
L79022 75703
L79106 75731
L79162 75787
L79190 75843
L79219 75956
L79219 76040
L79190 76153
L79162 76209
L79106 76265
L79022 76293
L78881 76293
" />
<path d="M79725 76293
L79725 75984
L79697 75928
L79640 75899
L79528 75899
L79472 75928
" />
<path d="M79725 76265
L79669 76293
L79528 76293
L79472 76265
L79444 76209
L79444 76153
L79472 76096
L79528 76068
L79669 76068
L79725 76040
" />
<path d="M79922 75899
L80147 75899
" />
<path d="M80006 75703
L80006 76209
L80034 76265
L80090 76293
L80147 76293
" />
<path d="M80568 76265
L80512 76293
L80400 76293
L80343 76265
L80315 76209
L80315 75984
L80343 75928
L80400 75899
L80512 75899
L80568 75928
L80597 75984
L80597 76040
L80315 76096
" />
<path d="M80850 76237
L80878 76265
L80850 76293
L80822 76265
L80850 76237
L80850 76293
" />
<path d="M80850 75928
L80878 75956
L80850 75984
L80822 75956
L80850 75928
L80850 75984
" />
<path d="M81553 75759
L81581 75731
L81637 75703
L81778 75703
L81834 75731
L81862 75759
L81890 75815
L81890 75871
L81862 75956
L81525 76293
L81890 76293
" />
<path d="M82256 75703
L82312 75703
L82368 75731
L82396 75759
L82424 75815
L82453 75928
L82453 76068
L82424 76181
L82396 76237
L82368 76265
L82312 76293
L82256 76293
L82199 76265
L82171 76237
L82143 76181
L82115 76068
L82115 75928
L82143 75815
L82171 75759
L82199 75731
L82256 75703
" />
<path d="M83015 76293
L82678 76293
" />
<path d="M82846 76293
L82846 75703
L82790 75787
L82734 75843
L82678 75871
" />
<path d="M83296 76293
L83409 76293
L83465 76265
L83493 76237
L83549 76153
L83577 76040
L83577 75815
L83549 75759
L83521 75731
L83465 75703
L83352 75703
L83296 75731
L83268 75759
L83240 75815
L83240 75956
L83268 76012
L83296 76040
L83352 76068
L83465 76068
L83521 76040
L83549 76012
L83577 75956
" />
<path d="M83831 76068
L84280 76068
" />
<path d="M84871 76293
L84534 76293
" />
<path d="M84702 76293
L84702 75703
L84646 75787
L84590 75843
L84534 75871
" />
<path d="M85433 76293
L85096 76293
" />
<path d="M85265 76293
L85265 75703
L85208 75787
L85152 75843
L85096 75871
" />
<path d="M85687 76068
L86136 76068
" />
<path d="M86530 75703
L86586 75703
L86643 75731
L86671 75759
L86699 75815
L86727 75928
L86727 76068
L86699 76181
L86671 76237
L86643 76265
L86586 76293
L86530 76293
L86474 76265
L86446 76237
L86418 76181
L86390 76068
L86390 75928
L86418 75815
L86446 75759
L86474 75731
L86530 75703
" />
<path d="M87289 76293
L86952 76293
" />
<path d="M87121 76293
L87121 75703
L87064 75787
L87008 75843
L86952 75871
" />
<path d="M69685 76577
L112205 76577
" />
<path d="M70220 77395
L70220 76805
" />
<path d="M70557 77395
L70304 77058
" />
<path d="M70557 76805
L70220 77142
" />
<path d="M70810 77395
L70810 77002
" />
<path d="M70810 76805
L70782 76833
L70810 76861
L70838 76833
L70810 76805
L70810 76861
" />
<path d="M71429 77339
L71401 77367
L71316 77395
L71260 77395
L71176 77367
L71120 77311
L71091 77255
L71063 77142
L71063 77058
L71091 76946
L71120 76889
L71176 76833
L71260 76805
L71316 76805
L71401 76833
L71429 76861
" />
<path d="M71935 77395
L71935 77086
L71907 77030
L71851 77002
L71738 77002
L71682 77030
" />
<path d="M71935 77367
L71879 77395
L71738 77395
L71682 77367
L71654 77311
L71654 77255
L71682 77199
L71738 77171
L71879 77171
L71935 77142
" />
<path d="M72469 77395
L72469 76805
" />
<path d="M72469 77367
L72413 77395
L72301 77395
L72244 77367
L72216 77339
L72188 77283
L72188 77114
L72216 77058
L72244 77030
L72301 77002
L72413 77002
L72469 77030
" />
<path d="M73201 77086
L73397 77086
" />
<path d="M73482 77395
L73201 77395
L73201 76805
L73482 76805
" />
<path d="M73735 77339
L73763 77367
L73735 77395
L73707 77367
L73735 77339
L73735 77395
" />
<path d="M74016 77395
L74016 76805
L74157 76805
L74241 76833
L74297 76889
L74325 76946
L74354 77058
L74354 77142
L74325 77255
L74297 77311
L74241 77367
L74157 77395
L74016 77395
" />
<path d="M74607 77339
L74635 77367
L74607 77395
L74579 77367
L74607 77339
L74607 77395
" />
<path d="M74860 77227
L75141 77227
" />
<path d="M74804 77395
L75000 76805
L75197 77395
" />
<path d="M75394 77339
L75422 77367
L75394 77395
L75366 77367
L75394 77339
L75394 77395
" />
<path d="M76575 77395
L76575 76805
" />
<path d="M76631 77171
L76800 77395
" />
<path d="M76800 77002
L76575 77227
" />
<path d="M77053 77395
L77053 77002
" />
<path d="M77053 76805
L77025 76833
L77053 76861
L77081 76833
L77053 76805
L77053 76861
" />
<path d="M77588 77367
L77531 77395
L77419 77395
L77363 77367
L77334 77339
L77306 77283
L77306 77114
L77334 77058
L77363 77030
L77419 77002
L77531 77002
L77588 77030
" />
<path d="M78094 77395
L78094 77086
L78066 77030
L78009 77002
L77897 77002
L77841 77030
" />
<path d="M78094 77367
L78037 77395
L77897 77395
L77841 77367
L77813 77311
L77813 77255
L77841 77199
L77897 77171
L78037 77171
L78094 77142
" />
<path d="M78628 77395
L78628 76805
" />
<path d="M78628 77367
L78572 77395
L78459 77395
L78403 77367
L78375 77339
L78347 77283
L78347 77114
L78375 77058
L78403 77030
L78459 77002
L78572 77002
L78628 77030
" />
<path d="M79612 77002
L79612 77395
" />
<path d="M79472 76777
L79331 77199
L79697 77199
" />
<path d="M79922 77339
L79950 77367
L79922 77395
L79894 77367
L79922 77339
L79922 77395
" />
<path d="M80315 76805
L80372 76805
L80428 76833
L80456 76861
L80484 76917
L80512 77030
L80512 77171
L80484 77283
L80456 77339
L80428 77367
L80372 77395
L80315 77395
L80259 77367
L80231 77339
L80203 77283
L80175 77171
L80175 77030
L80203 76917
L80231 76861
L80259 76833
L80315 76805
" />
<path d="M80765 77339
L80793 77367
L80765 77395
L80737 77367
L80765 77339
L80765 77395
" />
<path d="M81328 76805
L81046 76805
L81018 77086
L81046 77058
L81103 77030
L81243 77030
L81300 77058
L81328 77086
L81356 77142
L81356 77283
L81328 77339
L81300 77367
L81243 77395
L81103 77395
L81046 77367
L81018 77339
" />
<path d="M81609 77171
L82059 77171
" />
<path d="M81834 77395
L81834 76946
" />
<path d="M82593 77395
L82593 76805
" />
<path d="M82593 77367
L82537 77395
L82424 77395
L82368 77367
L82340 77339
L82312 77283
L82312 77114
L82340 77058
L82368 77030
L82424 77002
L82537 77002
L82593 77030
" />
<path d="M82790 77002
L83015 77002
" />
<path d="M82874 77395
L82874 76889
L82903 76833
L82959 76805
L83015 76805
" />
<path d="M83184 77367
L83240 77395
L83352 77395
L83409 77367
L83437 77311
L83437 77283
L83409 77227
L83352 77199
L83268 77199
L83212 77171
L83184 77114
L83184 77086
L83212 77030
L83268 77002
L83352 77002
L83409 77030
" />
<path d="M83943 77002
L83943 77480
L83915 77536
L83887 77564
L83831 77592
L83746 77592
L83690 77564
" />
<path d="M83943 77367
L83887 77395
L83774 77395
L83718 77367
L83690 77339
L83662 77283
L83662 77114
L83690 77058
L83718 77030
L83774 77002
L83887 77002
L83943 77030
" />
<path d="M84534 77395
L84196 77395
" />
<path d="M84365 77395
L84365 76805
L84309 76889
L84252 76946
L84196 76974
" />
<path d="M84787 77171
L85237 77171
" />
<path d="M85771 77002
L85771 77395
" />
<path d="M85630 76777
L85490 77199
L85855 77199
" />
<path d="M69685 75396
L112205 75396
" />
</g>
<g style="fill:#000000; fill-opacity:0.0; 
stroke:#000000; stroke-width:118.11; stroke-opacity:1; 
stroke-linecap:round; stroke-linejoin:round;">
<path d="M104022 76293
L103825 76012
" />
<path d="M103684 76293
L103684 75703
L103909 75703
L103965 75731
L103994 75759
L104022 75815
L104022 75899
L103994 75956
L103965 75984
L103909 76012
L103684 76012
" />
<path d="M104500 76265
L104444 76293
L104331 76293
L104275 76265
L104247 76209
L104247 75984
L104275 75928
L104331 75899
L104444 75899
L104500 75928
L104528 75984
L104528 76040
L104247 76096
" />
<path d="M104725 75899
L104865 76293
L105006 75899
" />
<path d="M105231 76237
L105259 76265
L105231 76293
L105203 76265
L105231 76237
L105231 76293
" />
<path d="M105231 75928
L105259 75956
L105231 75984
L105203 75956
L105231 75928
L105231 75984
" />
<path d="M106271 76293
L105934 76293
" />
<path d="M106103 76293
L106103 75703
L106046 75787
L105990 75843
L105934 75871
" />
<path d="M106553 76293
L106665 76293
L106721 76265
L106750 76237
L106806 76153
L106834 76040
L106834 75815
L106806 75759
L106778 75731
L106721 75703
L106609 75703
L106553 75731
L106525 75759
L106496 75815
L106496 75956
L106525 76012
L106553 76040
L106609 76068
L106721 76068
L106778 76040
L106806 76012
L106834 75956
" />
<path d="M107396 76293
L107059 76293
" />
<path d="M107228 76293
L107228 75703
L107171 75787
L107115 75843
L107059 75871
" />
<path d="M107959 76293
L107621 76293
" />
<path d="M107790 76293
L107790 75703
L107734 75787
L107678 75843
L107621 75871
" />
<path d="M108324 75703
L108381 75703
L108437 75731
L108465 75759
L108493 75815
L108521 75928
L108521 76068
L108493 76181
L108465 76237
L108437 76265
L108381 76293
L108324 76293
L108268 76265
L108240 76237
L108212 76181
L108184 76068
L108184 75928
L108212 75815
L108240 75759
L108268 75731
L108324 75703
" />
<path d="M109084 76293
L108746 76293
" />
<path d="M108915 76293
L108915 75703
L108859 75787
L108802 75843
L108746 75871
" />
</g>
<g style="fill:#000000; fill-opacity:0.0; 
stroke:#000000; stroke-width:59.0551; stroke-opacity:1; 
stroke-linecap:round; stroke-linejoin:round;">
<path d="M70192 76265
L70276 76293
L70417 76293
L70473 76265
L70501 76237
L70529 76181
L70529 76124
L70501 76068
L70473 76040
L70417 76012
L70304 75984
L70248 75956
L70220 75928
L70192 75871
L70192 75815
L70220 75759
L70248 75731
L70304 75703
L70445 75703
L70529 75731
" />
<path d="M70782 76293
L70782 75899
" />
<path d="M70782 75703
L70754 75731
L70782 75759
L70810 75731
L70782 75703
L70782 75759
" />
<path d="M71007 75899
L71316 75899
L71007 76293
L71316 76293
" />
<path d="M71766 76265
L71710 76293
L71598 76293
L71541 76265
L71513 76209
L71513 75984
L71541 75928
L71598 75899
L71710 75899
L71766 75928
L71795 75984
L71795 76040
L71513 76096
" />
<path d="M72048 76237
L72076 76265
L72048 76293
L72019 76265
L72048 76237
L72048 76293
" />
<path d="M72048 75928
L72076 75956
L72048 75984
L72019 75956
L72048 75928
L72048 75984
" />
<path d="M72751 76124
L73032 76124
" />
<path d="M72694 76293
L72891 75703
L73088 76293
" />
<path d="M73538 75899
L73538 76293
" />
<path d="M73397 75674
L73257 76096
L73622 76096
" />
<path d="M103684 77395
L103684 76805
" />
<path d="M104219 77395
L104219 76805
" />
<path d="M104219 77367
L104162 77395
L104050 77395
L103994 77367
L103965 77339
L103937 77283
L103937 77114
L103965 77058
L103994 77030
L104050 77002
L104162 77002
L104219 77030
" />
<path d="M104500 77339
L104528 77367
L104500 77395
L104472 77367
L104500 77339
L104500 77395
" />
<path d="M104500 77030
L104528 77058
L104500 77086
L104472 77058
L104500 77030
L104500 77086
" />
<path d="M105540 77395
L105203 77395
" />
<path d="M105372 77395
L105372 76805
L105315 76889
L105259 76946
L105203 76974
" />
<path d="M106215 76777
L105709 77536
" />
<path d="M106721 77395
L106384 77395
" />
<path d="M106553 77395
L106553 76805
L106496 76889
L106440 76946
L106384 76974
" />
<path d="M69685 73821
L112205 73821
" />
</g>
<g style="fill:#000000; fill-opacity:0.0; 
stroke:#000000; stroke-width:157.48; stroke-opacity:1; 
stroke-linecap:round; stroke-linejoin:round;">
<path d="M70257 74099
L70707 74099
" />
<path d="M70384 74886
L70482 74099
" />
<path d="M70871 74886
L70937 74361
" />
<path d="M70970 74099
L70927 74136
L70960 74174
L71002 74136
L70970 74099
L70960 74174
" />
<path d="M71199 74361
L71499 74361
" />
<path d="M71345 74099
L71260 74774
L71288 74849
L71359 74886
L71434 74886
" />
<path d="M71809 74886
L71738 74849
L71710 74774
L71795 74099
" />
<path d="M72413 74849
L72334 74886
L72184 74886
L72113 74849
L72085 74774
L72123 74474
L72169 74399
L72249 74361
L72399 74361
L72469 74399
L72498 74474
L72488 74549
L72104 74624
" />
<path d="M72793 74811
L72826 74849
L72783 74886
L72751 74849
L72793 74811
L72783 74886
" />
<path d="M72844 74399
L72877 74436
L72835 74474
L72802 74436
L72844 74399
L72835 74474
" />
<path d="M73758 74886
L73857 74099
L74049 74661
L74382 74099
L74283 74886
" />
<path d="M74658 74886
L74757 74099
L74949 74661
L75282 74099
L75183 74886
" />
<path d="M76031 74099
L75657 74099
L75572 74474
L75614 74436
L75694 74399
L75882 74399
L75952 74436
L75985 74474
L76013 74549
L75989 74736
L75942 74811
L75900 74849
L75821 74886
L75633 74886
L75563 74849
L75530 74811
" />
<path d="M76308 74886
L76406 74099
L76594 74099
L76702 74136
L76767 74211
L76795 74286
L76814 74436
L76800 74549
L76744 74699
L76697 74774
L76613 74849
L76495 74886
L76308 74886
" />
<path d="M78037 74849
L77958 74886
L77808 74886
L77738 74849
L77705 74811
L77677 74736
L77705 74511
L77752 74436
L77794 74399
L77873 74361
L78023 74361
L78094 74399
" />
<path d="M78483 74886
L78412 74849
L78380 74811
L78352 74736
L78380 74511
L78427 74436
L78469 74399
L78548 74361
L78661 74361
L78731 74399
L78764 74436
L78792 74511
L78764 74736
L78717 74811
L78675 74849
L78595 74886
L78483 74886
" />
<path d="M79148 74361
L79083 74886
" />
<path d="M79139 74436
L79181 74399
L79261 74361
L79373 74361
L79444 74399
L79472 74474
L79420 74886
" />
<path d="M79748 74361
L80048 74361
" />
<path d="M79894 74099
L79809 74774
L79837 74849
L79908 74886
L79983 74886
" />
<path d="M80245 74886
L80311 74361
" />
<path d="M80292 74511
L80339 74436
L80381 74399
L80461 74361
L80536 74361
" />
<path d="M80845 74886
L80775 74849
L80742 74811
L80714 74736
L80742 74511
L80789 74436
L80831 74399
L80911 74361
L81023 74361
L81093 74399
L81126 74436
L81154 74511
L81126 74736
L81079 74811
L81037 74849
L80957 74886
L80845 74886
" />
<path d="M81557 74886
L81487 74849
L81459 74774
L81543 74099
" />
<path d="M81970 74886
L81900 74849
L81871 74774
L81956 74099
" />
<path d="M82270 74886
L82335 74361
" />
<path d="M82368 74099
L82326 74136
L82359 74174
L82401 74136
L82368 74099
L82359 74174
" />
<path d="M82710 74361
L82645 74886
" />
<path d="M82701 74436
L82743 74399
L82823 74361
L82935 74361
L83006 74399
L83034 74474
L82982 74886
" />
<path d="M83760 74361
L83681 74999
L83634 75074
L83591 75111
L83512 75149
L83399 75149
L83329 75111
" />
<path d="M83699 74849
L83620 74886
L83470 74886
L83399 74849
L83367 74811
L83338 74736
L83367 74511
L83413 74436
L83456 74399
L83535 74361
L83685 74361
L83756 74399
" />
<path d="M85007 74886
L85058 74474
L85030 74399
L84960 74361
L84810 74361
L84730 74399
" />
<path d="M85012 74849
L84932 74886
L84744 74886
L84674 74849
L84646 74774
L84655 74699
L84702 74624
L84782 74586
L84969 74586
L85049 74549
" />
<path d="M85447 74361
L85382 74886
" />
<path d="M85438 74436
L85480 74399
L85560 74361
L85672 74361
L85743 74399
L85771 74474
L85719 74886
" />
<path d="M86432 74886
L86530 74099
" />
<path d="M86436 74849
L86357 74886
L86207 74886
L86136 74849
L86104 74811
L86076 74736
L86104 74511
L86151 74436
L86193 74399
L86272 74361
L86422 74361
L86493 74399
" />
<path d="M87407 74886
L87472 74361
" />
<path d="M87453 74511
L87500 74436
L87543 74399
L87622 74361
L87697 74361
" />
<path d="M88199 74849
L88119 74886
L87969 74886
L87899 74849
L87871 74774
L87908 74474
L87955 74399
L88035 74361
L88185 74361
L88255 74399
L88283 74474
L88274 74549
L87889 74624
" />
<path d="M88569 74886
L88635 74361
" />
<path d="M88625 74436
L88667 74399
L88747 74361
L88860 74361
L88930 74399
L88958 74474
L88906 74886
" />
<path d="M88958 74474
L89005 74399
L89085 74361
L89197 74361
L89267 74399
L89295 74474
L89244 74886
" />
<path d="M89731 74886
L89661 74849
L89628 74811
L89600 74736
L89628 74511
L89675 74436
L89717 74399
L89797 74361
L89909 74361
L89980 74399
L90013 74436
L90041 74511
L90013 74736
L89966 74811
L89924 74849
L89844 74886
L89731 74886
" />
<path d="M90284 74361
L90584 74361
" />
<path d="M90430 74099
L90345 74774
L90373 74849
L90444 74886
L90519 74886
" />
<path d="M91086 74849
L91006 74886
L90856 74886
L90786 74849
L90758 74774
L90795 74474
L90842 74399
L90922 74361
L91072 74361
L91142 74399
L91170 74474
L91161 74549
L90777 74624
" />
<path d="M92056 74886
L92122 74361
" />
<path d="M92112 74436
L92154 74399
L92234 74361
L92347 74361
L92417 74399
L92445 74474
L92394 74886
" />
<path d="M92445 74474
L92492 74399
L92572 74361
L92684 74361
L92754 74399
L92783 74474
L92731 74886
" />
<path d="M93218 74886
L93148 74849
L93115 74811
L93087 74736
L93115 74511
L93162 74436
L93204 74399
L93284 74361
L93397 74361
L93467 74399
L93500 74436
L93528 74511
L93500 74736
L93453 74811
L93411 74849
L93331 74886
L93218 74886
" />
<path d="M93884 74361
L93818 74886
" />
<path d="M93875 74436
L93917 74399
L93996 74361
L94109 74361
L94179 74399
L94207 74474
L94156 74886
" />
<path d="M94531 74886
L94596 74361
" />
<path d="M94629 74099
L94587 74136
L94620 74174
L94662 74136
L94629 74099
L94620 74174
" />
<path d="M94859 74361
L95159 74361
" />
<path d="M95004 74099
L94920 74774
L94948 74849
L95018 74886
L95093 74886
" />
<path d="M95468 74886
L95398 74849
L95365 74811
L95337 74736
L95365 74511
L95412 74436
L95454 74399
L95534 74361
L95646 74361
L95717 74399
L95749 74436
L95777 74511
L95749 74736
L95702 74811
L95660 74849
L95581 74886
L95468 74886
" />
<path d="M96068 74886
L96134 74361
" />
<path d="M96115 74511
L96162 74436
L96204 74399
L96284 74361
L96359 74361
" />
<path d="M96555 74886
L96621 74361
" />
<path d="M96654 74099
L96612 74136
L96645 74174
L96687 74136
L96654 74099
L96645 74174
" />
<path d="M96996 74361
L96930 74886
" />
<path d="M96987 74436
L97029 74399
L97109 74361
L97221 74361
L97291 74399
L97319 74474
L97268 74886
" />
<path d="M98046 74361
L97966 74999
L97919 75074
L97877 75111
L97798 75149
L97685 75149
L97615 75111
" />
<path d="M97985 74849
L97905 74886
L97755 74886
L97685 74849
L97652 74811
L97624 74736
L97652 74511
L97699 74436
L97741 74399
L97821 74361
L97971 74361
L98041 74399
" />
<path d="M99260 74849
L99180 74886
L99030 74886
L98960 74849
L98932 74774
L98969 74474
L99016 74399
L99096 74361
L99246 74361
L99316 74399
L99344 74474
L99335 74549
L98950 74624
" />
<path d="M100033 74361
L99935 75149
" />
<path d="M99972 74849
L99893 74886
L99743 74886
L99672 74849
L99639 74811
L99611 74736
L99639 74511
L99686 74436
L99729 74399
L99808 74361
L99958 74361
L100028 74399
" />
<path d="M100746 74361
L100680 74886
" />
<path d="M100408 74361
L100357 74774
L100385 74849
L100455 74886
L100567 74886
L100647 74849
L100689 74811
" />
<path d="M101055 74886
L101121 74361
" />
<path d="M101153 74099
L101111 74136
L101144 74174
L101186 74136
L101153 74099
L101144 74174
" />
<path d="M101495 74361
L101397 75149
" />
<path d="M101491 74399
L101570 74361
L101720 74361
L101791 74399
L101824 74436
L101852 74511
L101824 74736
L101777 74811
L101735 74849
L101655 74886
L101505 74886
L101435 74849
" />
<path d="M102142 74886
L102208 74361
" />
<path d="M102199 74436
L102241 74399
L102320 74361
L102433 74361
L102503 74399
L102531 74474
L102480 74886
" />
<path d="M102531 74474
L102578 74399
L102658 74361
L102770 74361
L102841 74399
L102869 74474
L102817 74886
" />
<path d="M103497 74849
L103417 74886
L103267 74886
L103197 74849
L103169 74774
L103206 74474
L103253 74399
L103333 74361
L103483 74361
L103553 74399
L103581 74474
L103572 74549
L103187 74624
" />
<path d="M103933 74361
L103867 74886
" />
<path d="M103923 74436
L103965 74399
L104045 74361
L104158 74361
L104228 74399
L104256 74474
L104205 74886
" />
<path d="M104533 74361
L104833 74361
" />
<path d="M104678 74099
L104594 74774
L104622 74849
L104692 74886
L104767 74886
" />
</g>
<g style="fill:#000000; fill-opacity:0.0; 
stroke:#000000; stroke-width:59.0551; stroke-opacity:1; 
stroke-linecap:round; stroke-linejoin:round;">
<path d="M70417 73070
L70220 73070
" />
<path d="M70220 73380
L70220 72789
L70501 72789
" />
<path d="M70726 73380
L70726 72986
" />
<path d="M70726 72789
L70698 72817
L70726 72845
L70754 72817
L70726 72789
L70726 72845
" />
<path d="M71091 73380
L71035 73352
L71007 73295
L71007 72789
" />
<path d="M71541 73352
L71485 73380
L71373 73380
L71316 73352
L71288 73295
L71288 73070
L71316 73014
L71373 72986
L71485 72986
L71541 73014
L71570 73070
L71570 73127
L71288 73183
" />
<path d="M71823 73323
L71851 73352
L71823 73380
L71795 73352
L71823 73323
L71823 73380
" />
<path d="M71823 73014
L71851 73042
L71823 73070
L71795 73042
L71823 73014
L71823 73070
" />
<path d="M72554 73380
L72554 72986
" />
<path d="M72554 73042
L72582 73014
L72638 72986
L72723 72986
L72779 73014
L72807 73070
L72807 73380
" />
<path d="M72807 73070
L72835 73014
L72891 72986
L72976 72986
L73032 73014
L73060 73070
L73060 73380
" />
<path d="M73341 73380
L73341 72986
" />
<path d="M73341 73042
L73369 73014
L73426 72986
L73510 72986
L73566 73014
L73594 73070
L73594 73380
" />
<path d="M73594 73070
L73622 73014
L73679 72986
L73763 72986
L73819 73014
L73847 73070
L73847 73380
" />
<path d="M74410 72789
L74129 72789
L74100 73070
L74129 73042
L74185 73014
L74325 73014
L74382 73042
L74410 73070
L74438 73127
L74438 73267
L74410 73323
L74382 73352
L74325 73380
L74185 73380
L74129 73352
L74100 73323
" />
<path d="M74944 73380
L74944 72789
" />
<path d="M74944 73352
L74888 73380
L74775 73380
L74719 73352
L74691 73323
L74663 73267
L74663 73099
L74691 73042
L74719 73014
L74775 72986
L74888 72986
L74944 73014
" />
<path d="M75225 73323
L75253 73352
L75225 73380
L75197 73352
L75225 73323
L75225 73380
" />
<path d="M75507 73380
L75507 72789
" />
<path d="M75563 73155
L75732 73380
" />
<path d="M75732 72986
L75507 73211
" />
<path d="M75985 73380
L75985 72986
" />
<path d="M75985 72789
L75956 72817
L75985 72845
L76013 72817
L75985 72789
L75985 72845
" />
<path d="M76519 73352
L76463 73380
L76350 73380
L76294 73352
L76266 73323
L76238 73267
L76238 73099
L76266 73042
L76294 73014
L76350 72986
L76463 72986
L76519 73014
" />
<path d="M77025 73380
L77025 73070
L76997 73014
L76941 72986
L76828 72986
L76772 73014
" />
<path d="M77025 73352
L76969 73380
L76828 73380
L76772 73352
L76744 73295
L76744 73239
L76772 73183
L76828 73155
L76969 73155
L77025 73127
" />
<path d="M77559 73380
L77559 72789
" />
<path d="M77559 73352
L77503 73380
L77391 73380
L77334 73352
L77306 73323
L77278 73267
L77278 73099
L77306 73042
L77334 73014
L77391 72986
L77503 72986
L77559 73014
" />
<path d="M77700 73436
L78150 73436
" />
<path d="M78291 72986
L78291 73577
" />
<path d="M78291 73014
L78347 72986
L78459 72986
L78516 73014
L78544 73042
L78572 73099
L78572 73267
L78544 73323
L78516 73352
L78459 73380
L78347 73380
L78291 73352
" />
<path d="M79078 73352
L79022 73380
L78909 73380
L78853 73352
L78825 73323
L78797 73267
L78797 73099
L78825 73042
L78853 73014
L78909 72986
L79022 72986
L79078 73014
" />
<path d="M79331 73380
L79331 72789
" />
<path d="M79331 73014
L79387 72986
L79500 72986
L79556 73014
L79584 73042
L79612 73099
L79612 73267
L79584 73323
L79556 73352
L79500 73380
L79387 73380
L79331 73352
" />
<path d="M69685 71459
L112205 71459
" />
<path d="M70192 72289
L70276 72317
L70417 72317
L70473 72289
L70501 72260
L70529 72204
L70529 72148
L70501 72092
L70473 72064
L70417 72036
L70304 72007
L70248 71979
L70220 71951
L70192 71895
L70192 71839
L70220 71782
L70248 71754
L70304 71726
L70445 71726
L70529 71754
" />
<path d="M70782 72317
L70782 71726
" />
<path d="M71035 72317
L71035 72007
L71007 71951
L70951 71923
L70867 71923
L70810 71951
L70782 71979
" />
<path d="M71541 72289
L71485 72317
L71373 72317
L71316 72289
L71288 72232
L71288 72007
L71316 71951
L71373 71923
L71485 71923
L71541 71951
L71570 72007
L71570 72064
L71288 72120
" />
<path d="M72048 72289
L71991 72317
L71879 72317
L71823 72289
L71795 72232
L71795 72007
L71823 71951
L71879 71923
L71991 71923
L72048 71951
L72076 72007
L72076 72064
L71795 72120
" />
<path d="M72244 71923
L72469 71923
" />
<path d="M72329 71726
L72329 72232
L72357 72289
L72413 72317
L72469 72317
" />
<path d="M72666 72260
L72694 72289
L72666 72317
L72638 72289
L72666 72260
L72666 72317
" />
<path d="M72666 71951
L72694 71979
L72666 72007
L72638 71979
L72666 71951
L72666 72007
" />
</g>
<g style="fill:#000000; fill-opacity:0.0; 
stroke:#000000; stroke-width:118.11; stroke-opacity:1; 
stroke-linecap:round; stroke-linejoin:round;">
<path d="M70220 71136
L70220 70545
L70445 70545
L70501 70573
L70529 70601
L70557 70658
L70557 70742
L70529 70798
L70501 70826
L70445 70854
L70220 70854
" />
<path d="M70895 71136
L70838 71108
L70810 71079
L70782 71023
L70782 70854
L70810 70798
L70838 70770
L70895 70742
L70979 70742
L71035 70770
L71063 70798
L71091 70854
L71091 71023
L71063 71079
L71035 71108
L70979 71136
L70895 71136
" />
<path d="M71288 70742
L71598 70742
L71288 71136
L71598 71136
" />
<path d="M71795 71108
L71851 71136
L71963 71136
L72019 71108
L72048 71051
L72048 71023
L72019 70967
L71963 70939
L71879 70939
L71823 70911
L71795 70854
L71795 70826
L71823 70770
L71879 70742
L71963 70742
L72019 70770
" />
<path d="M72554 71136
L72554 70826
L72526 70770
L72469 70742
L72357 70742
L72301 70770
" />
<path d="M72554 71108
L72498 71136
L72357 71136
L72301 71108
L72273 71051
L72273 70995
L72301 70939
L72357 70911
L72498 70911
L72554 70883
" />
<path d="M72835 71136
L72835 70742
" />
<path d="M72835 70854
L72863 70798
L72891 70770
L72947 70742
L73004 70742
" />
<path d="M73594 70545
L73988 70545
L73594 71136
L73988 71136
" />
<path d="M74185 71108
L74241 71136
L74354 71136
L74410 71108
L74438 71051
L74438 71023
L74410 70967
L74354 70939
L74269 70939
L74213 70911
L74185 70854
L74185 70826
L74213 70770
L74269 70742
L74354 70742
L74410 70770
" />
<path d="M74775 71136
L74719 71108
L74691 71079
L74663 71023
L74663 70854
L74691 70798
L74719 70770
L74775 70742
L74860 70742
L74916 70770
L74944 70798
L74972 70854
L74972 71023
L74944 71079
L74916 71108
L74860 71136
L74775 71136
" />
<path d="M75310 71136
L75253 71108
L75225 71051
L75225 70545
" />
<path d="M75450 70742
L75675 70742
" />
<path d="M75535 70545
L75535 71051
L75563 71108
L75619 71136
L75675 71136
" />
<path d="M76322 70911
L76772 70911
" />
<path d="M77503 71136
L77503 70545
" />
<path d="M77756 71136
L77756 70826
L77728 70770
L77672 70742
L77588 70742
L77531 70770
L77503 70798
" />
<path d="M77953 70742
L78178 70742
" />
<path d="M78037 70545
L78037 71051
L78066 71108
L78122 71136
L78178 71136
" />
<path d="M78291 70742
L78516 70742
" />
<path d="M78375 70545
L78375 71051
L78403 71108
L78459 71136
L78516 71136
" />
<path d="M78712 70742
L78712 71332
" />
<path d="M78712 70770
L78769 70742
L78881 70742
L78937 70770
L78965 70798
L78994 70854
L78994 71023
L78965 71079
L78937 71108
L78881 71136
L78769 71136
L78712 71108
" />
<path d="M79247 71079
L79275 71108
L79247 71136
L79219 71108
L79247 71079
L79247 71136
" />
<path d="M79247 70770
L79275 70798
L79247 70826
L79219 70798
L79247 70770
L79247 70826
" />
<path d="M79950 70517
L79444 71276
" />
<path d="M80568 70517
L80062 71276
" />
<path d="M80709 70742
L80822 71136
L80934 70854
L81046 71136
L81159 70742
" />
<path d="M81328 70742
L81440 71136
L81553 70854
L81665 71136
L81778 70742
" />
<path d="M81946 70742
L82059 71136
L82171 70854
L82284 71136
L82396 70742
" />
<path d="M82621 71079
L82649 71108
L82621 71136
L82593 71108
L82621 71079
L82621 71136
" />
<path d="M82874 71108
L82931 71136
L83043 71136
L83099 71108
L83127 71051
L83127 71023
L83099 70967
L83043 70939
L82959 70939
L82903 70911
L82874 70854
L82874 70826
L82903 70770
L82959 70742
L83043 70742
L83099 70770
" />
<path d="M83324 70742
L83634 70742
L83324 71136
L83634 71136
" />
<path d="M84084 71108
L84027 71136
L83915 71136
L83859 71108
L83831 71051
L83831 70826
L83859 70770
L83915 70742
L84027 70742
L84084 70770
L84112 70826
L84112 70883
L83831 70939
" />
<path d="M84365 71136
L84365 70742
" />
<path d="M84365 70854
L84393 70798
L84421 70770
L84477 70742
L84534 70742
" />
<path d="M84983 71136
L84983 70826
L84955 70770
L84899 70742
L84787 70742
L84730 70770
" />
<path d="M84983 71108
L84927 71136
L84787 71136
L84730 71108
L84702 71051
L84702 70995
L84730 70939
L84787 70911
L84927 70911
L84983 70883
" />
<path d="M85180 70742
L85405 70742
" />
<path d="M85265 71136
L85265 70629
L85293 70573
L85349 70545
L85405 70545
" />
<path d="M85602 71136
L85602 70742
" />
<path d="M85602 70545
L85574 70573
L85602 70601
L85630 70573
L85602 70545
L85602 70601
" />
<path d="M85883 70742
L85883 71136
" />
<path d="M85883 70798
L85912 70770
L85968 70742
L86052 70742
L86108 70770
L86136 70826
L86136 71136
" />
<path d="M86671 70742
L86671 71220
L86643 71276
L86615 71304
L86558 71332
L86474 71332
L86418 71304
" />
<path d="M86671 71108
L86615 71136
L86502 71136
L86446 71108
L86418 71079
L86390 71023
L86390 70854
L86418 70798
L86446 70770
L86502 70742
L86615 70742
L86671 70770
" />
<path d="M87036 71136
L86980 71108
L86952 71079
L86924 71023
L86924 70854
L86952 70798
L86980 70770
L87036 70742
L87121 70742
L87177 70770
L87205 70798
L87233 70854
L87233 71023
L87205 71079
L87177 71108
L87121 71136
L87036 71136
" />
<path d="M87486 71136
L87486 70742
" />
<path d="M87486 70798
L87514 70770
L87571 70742
L87655 70742
L87711 70770
L87739 70826
L87739 71136
" />
<path d="M87739 70826
L87768 70770
L87824 70742
L87908 70742
L87964 70770
L87992 70826
L87992 71136
" />
<path d="M88274 71136
L88274 70545
" />
<path d="M88274 70770
L88330 70742
L88442 70742
L88499 70770
L88527 70798
L88555 70854
L88555 71023
L88527 71079
L88499 71108
L88442 71136
L88330 71136
L88274 71108
" />
<path d="M89061 71136
L89061 70826
L89033 70770
L88977 70742
L88864 70742
L88808 70770
" />
<path d="M89061 71108
L89005 71136
L88864 71136
L88808 71108
L88780 71051
L88780 70995
L88808 70939
L88864 70911
L89005 70911
L89061 70883
" />
<path d="M89342 71079
L89370 71108
L89342 71136
L89314 71108
L89342 71079
L89342 71136
" />
<path d="M89624 71136
L89624 70545
" />
<path d="M89877 71136
L89877 70826
L89849 70770
L89792 70742
L89708 70742
L89652 70770
L89624 70798
" />
<path d="M90411 70742
L90411 71136
" />
<path d="M90158 70742
L90158 71051
L90186 71108
L90242 71136
L90327 71136
L90383 71108
L90411 71079
" />
</g>
<g style="fill:#000000; fill-opacity:0.0; 
stroke:#000000; stroke-width:59.0551; stroke-opacity:1; 
stroke-linecap:round; stroke-linejoin:round;">
<path d="M70220 66411
L70220 65821
L70360 65821
L70445 65849
L70501 65905
L70529 65961
L70557 66074
L70557 66158
L70529 66271
L70501 66327
L70445 66383
L70360 66411
L70220 66411
" />
<path d="M70810 66411
L70810 66018
" />
<path d="M70810 66130
L70838 66074
L70867 66046
L70923 66018
L70979 66018
" />
<path d="M71429 66411
L71429 66102
L71401 66046
L71345 66018
L71232 66018
L71176 66046
" />
<path d="M71429 66383
L71373 66411
L71232 66411
L71176 66383
L71148 66327
L71148 66271
L71176 66214
L71232 66186
L71373 66186
L71429 66158
" />
<path d="M71654 66018
L71766 66411
L71879 66130
L71991 66411
L72104 66018
" />
<path d="M72779 66018
L72779 66411
" />
<path d="M72779 66074
L72807 66046
L72863 66018
L72947 66018
L73004 66046
L73032 66102
L73032 66411
" />
<path d="M73397 66411
L73341 66383
L73313 66355
L73285 66299
L73285 66130
L73313 66074
L73341 66046
L73397 66018
L73482 66018
L73538 66046
L73566 66074
L73594 66130
L73594 66299
L73566 66355
L73538 66383
L73482 66411
L73397 66411
" />
<path d="M73847 66355
L73876 66383
L73847 66411
L73819 66383
L73847 66355
L73847 66411
" />
<path d="M74129 66355
L74157 66383
L74129 66411
L74100 66383
L74129 66355
L74129 66411
" />
<path d="M74129 66046
L74157 66074
L74129 66102
L74100 66074
L74129 66046
L74129 66102
" />
<path d="M75141 65821
L74860 65821
L74832 66102
L74860 66074
L74916 66046
L75057 66046
L75113 66074
L75141 66102
L75169 66158
L75169 66299
L75141 66355
L75113 66383
L75057 66411
L74916 66411
L74860 66383
L74832 66355
" />
<path d="M75450 66411
L75563 66411
L75619 66383
L75647 66355
L75703 66271
L75732 66158
L75732 65933
L75703 65877
L75675 65849
L75619 65821
L75507 65821
L75450 65849
L75422 65877
L75394 65933
L75394 66074
L75422 66130
L75450 66158
L75507 66186
L75619 66186
L75675 66158
L75703 66130
L75732 66074
" />
<path d="M76406 65793
L75900 66552
" />
<path d="M76885 65821
L76603 65821
L76575 66102
L76603 66074
L76660 66046
L76800 66046
L76856 66074
L76885 66102
L76913 66158
L76913 66299
L76885 66355
L76856 66383
L76800 66411
L76660 66411
L76603 66383
L76575 66355
" />
<path d="M77588 65793
L77081 66552
" />
<path d="M78037 65821
L77925 65821
L77869 65849
L77841 65877
L77784 65961
L77756 66074
L77756 66299
L77784 66355
L77813 66383
L77869 66411
L77981 66411
L78037 66383
L78066 66355
L78094 66299
L78094 66158
L78066 66102
L78037 66074
L77981 66046
L77869 66046
L77813 66074
L77784 66102
L77756 66158
" />
<path d="M77559 75396
L77559 76577
" />
<path d="M102756 75396
L102756 77955
" />
</g>
<g style="fill:#000000; fill-opacity:0.0; 
stroke:#000000; stroke-width:118.11; stroke-opacity:1; 
stroke-linecap:round; stroke-linejoin:round;">
<path d="M55319 44517
L55319 43926
L55516 44348
L55712 43926
L55712 44517
" />
<path d="M55994 44517
L55994 43926
L56190 44348
L56387 43926
L56387 44517
" />
<path d="M56950 43926
L56669 43926
L56640 44207
L56669 44179
L56725 44151
L56865 44151
L56922 44179
L56950 44207
L56978 44264
L56978 44404
L56950 44460
L56922 44489
L56865 44517
L56725 44517
L56669 44489
L56640 44460
" />
<path d="M57231 44517
L57231 43926
L57372 43926
L57456 43954
L57512 44010
L57540 44067
L57568 44179
L57568 44264
L57540 44376
L57512 44432
L57456 44489
L57372 44517
L57231 44517
" />
<path d="M56508 31017
L56508 30426
L56649 30426
L56733 30454
L56789 30510
L56817 30567
L56845 30679
L56845 30764
L56817 30876
L56789 30932
L56733 30989
L56649 31017
L56508 31017
" />
<path d="M57099 30623
L57099 31017
" />
<path d="M57099 30679
L57127 30651
L57183 30623
L57267 30623
L57323 30651
L57352 30707
L57352 31017
" />
<path d="M57633 30960
L57661 30989
L57633 31017
L57605 30989
L57633 30960
L57633 31017
" />
<path d="M57914 30960
L57942 30989
L57914 31017
L57886 30989
L57914 30960
L57914 31017
" />
<path d="M57914 30651
L57942 30679
L57914 30707
L57886 30679
L57914 30651
L57914 30707
" />
<path d="M58926 30426
L58645 30426
L58617 30707
L58645 30679
L58701 30651
L58842 30651
L58898 30679
L58926 30707
L58955 30764
L58955 30904
L58926 30960
L58898 30989
L58842 31017
L58701 31017
L58645 30989
L58617 30960
" />
<path d="M59236 31017
L59348 31017
L59404 30989
L59433 30960
L59489 30876
L59517 30764
L59517 30539
L59489 30482
L59461 30454
L59404 30426
L59292 30426
L59236 30454
L59208 30482
L59180 30539
L59180 30679
L59208 30735
L59236 30764
L59292 30792
L59404 30792
L59461 30764
L59489 30735
L59517 30679
" />
<path d="M60192 30398
L59686 31157
" />
<path d="M60670 30426
L60389 30426
L60361 30707
L60389 30679
L60445 30651
L60586 30651
L60642 30679
L60670 30707
L60698 30764
L60698 30904
L60670 30960
L60642 30989
L60586 31017
L60445 31017
L60389 30989
L60361 30960
" />
<path d="M61373 30398
L60867 31157
" />
<path d="M61823 30426
L61710 30426
L61654 30454
L61626 30482
L61570 30567
L61542 30679
L61542 30904
L61570 30960
L61598 30989
L61654 31017
L61767 31017
L61823 30989
L61851 30960
L61879 30904
L61879 30764
L61851 30707
L61823 30679
L61767 30651
L61654 30651
L61598 30679
L61570 30707
L61542 30764
" />
<path d="M54167 37482
L54195 37454
L54251 37426
L54392 37426
L54448 37454
L54476 37482
L54505 37539
L54505 37595
L54476 37679
L54139 38017
L54505 38017
" />
<path d="M54870 37426
L54926 37426
L54983 37454
L55011 37482
L55039 37539
L55067 37651
L55067 37792
L55039 37904
L55011 37960
L54983 37989
L54926 38017
L54870 38017
L54814 37989
L54786 37960
L54758 37904
L54730 37792
L54730 37651
L54758 37539
L54786 37482
L54814 37454
L54870 37426
" />
<path d="M55629 38017
L55292 38017
" />
<path d="M55461 38017
L55461 37426
L55404 37510
L55348 37567
L55292 37595
" />
<path d="M55911 38017
L56023 38017
L56079 37989
L56108 37960
L56164 37876
L56192 37764
L56192 37539
L56164 37482
L56136 37454
L56079 37426
L55967 37426
L55911 37454
L55883 37482
L55854 37539
L55854 37679
L55883 37735
L55911 37764
L55967 37792
L56079 37792
L56136 37764
L56164 37735
L56192 37679
" />
</g>
<g style="fill:#000000; fill-opacity:0.0; 
stroke:#000000; stroke-width:59.0551; stroke-opacity:1; 
stroke-linecap:round; stroke-linejoin:round;">
<path d="M70430 27000
L53930 27000
" />
<path d="M70430 49500
L70430 27000
" />
<path d="M54680 49500
L70430 49500
" />
<path d="M51430 49500
L54680 49500
" />
<path d="M51430 27000
L51430 49500
" />
<path d="M53930 27000
L51430 27000
" />
<path d="M51930 49500
L51430 49500
" />
<path d="M54680 49500
L51930 49500
" />
</g>
<g style="fill:#000000; fill-opacity:1.0; 
stroke:#000000; stroke-width:0; stroke-opacity:1; 
stroke-linecap:round; stroke-linejoin:round;">
<circle cx="57930" cy="47000" r="492" /> 
</g>
<g style="fill:#000000; fill-opacity:1.0; 
stroke:#000000; stroke-width:59.0551; stroke-opacity:1; 
stroke-linecap:round; stroke-linejoin:round;">
</g>
<g style="fill:#000000; fill-opacity:1.0; 
stroke:#000000; stroke-width:0; stroke-opacity:1; 
stroke-linecap:round; stroke-linejoin:round;">
<circle cx="59930" cy="47000" r="492" /> 
</g>
<g style="fill:#000000; fill-opacity:1.0; 
stroke:#000000; stroke-width:59.0551; stroke-opacity:1; 
stroke-linecap:round; stroke-linejoin:round;">
</g>
<g style="fill:#000000; fill-opacity:1.0; 
stroke:#000000; stroke-width:0; stroke-opacity:1; 
stroke-linecap:round; stroke-linejoin:round;">
<circle cx="55930" cy="47000" r="492" /> 
</g>
<g style="fill:#000000; fill-opacity:1.0; 
stroke:#000000; stroke-width:59.0551; stroke-opacity:1; 
stroke-linecap:round; stroke-linejoin:round;">
</g>
<g style="fill:#000000; fill-opacity:1.0; 
stroke:#000000; stroke-width:0; stroke-opacity:1; 
stroke-linecap:round; stroke-linejoin:round;">
<circle cx="61930" cy="47000" r="492" /> 
</g>
<g style="fill:#000000; fill-opacity:1.0; 
stroke:#000000; stroke-width:59.0551; stroke-opacity:1; 
stroke-linecap:round; stroke-linejoin:round;">
</g>
<g style="fill:#000000; fill-opacity:1.0; 
stroke:#000000; stroke-width:0; stroke-opacity:1; 
stroke-linecap:round; stroke-linejoin:round;">
<circle cx="63930" cy="47000" r="492" /> 
</g>
<g style="fill:#000000; fill-opacity:1.0; 
stroke:#000000; stroke-width:59.0551; stroke-opacity:1; 
stroke-linecap:round; stroke-linejoin:round;">
</g>
<g style="fill:#000000; fill-opacity:1.0; 
stroke:#000000; stroke-width:0; stroke-opacity:1; 
stroke-linecap:round; stroke-linejoin:round;">
<polyline style="fill-rule:evenodd;"
points="57330,29100
56530,29100
56530,29900
57330,29900
57330,29100
" /> 
</g>
<g style="fill:#000000; fill-opacity:1.0; 
stroke:#000000; stroke-width:800; stroke-opacity:1; 
stroke-linecap:round; stroke-linejoin:round;">
</g>
<g style="fill:#000000; fill-opacity:0.0; 
stroke:#000000; stroke-width:800; stroke-opacity:1; 
stroke-linecap:round; stroke-linejoin:round;">
<path d="M57930 29500
L57930 29500
" />
</g>
<g style="fill:#000000; fill-opacity:0.0; 
stroke:#000000; stroke-width:0; stroke-opacity:1; 
stroke-linecap:round; stroke-linejoin:round;">
</g>
<g style="fill:#000000; fill-opacity:1.0; 
stroke:#000000; stroke-width:0; stroke-opacity:1; 
stroke-linecap:round; stroke-linejoin:round;">
<polyline style="fill-rule:evenodd;"
points="61030,29900
61830,29900
61830,29100
61030,29100
61030,29900
" /> 
</g>
<g style="fill:#000000; fill-opacity:1.0; 
stroke:#000000; stroke-width:800; stroke-opacity:1; 
stroke-linecap:round; stroke-linejoin:round;">
</g>
<g style="fill:#000000; fill-opacity:0.0; 
stroke:#000000; stroke-width:800; stroke-opacity:1; 
stroke-linecap:round; stroke-linejoin:round;">
<path d="M60430 29500
L60430 29500
" />
</g>
<g style="fill:#000000; fill-opacity:1.0; 
stroke:#000000; stroke-width:0; stroke-opacity:1; 
stroke-linecap:round; stroke-linejoin:round;">
<circle cx="68930" cy="48000" r="1062.99" /> 
</g>
<g style="fill:#000000; fill-opacity:1.0; 
stroke:#000000; stroke-width:59.0551; stroke-opacity:1; 
stroke-linecap:round; stroke-linejoin:round;">
</g>
<g style="fill:#000000; fill-opacity:1.0; 
stroke:#000000; stroke-width:0; stroke-opacity:1; 
stroke-linecap:round; stroke-linejoin:round;">
<circle cx="53180" cy="48000" r="1062.99" /> 
</g>
<g style="fill:#000000; fill-opacity:1.0; 
stroke:#000000; stroke-width:59.0551; stroke-opacity:1; 
stroke-linecap:round; stroke-linejoin:round;">
</g>
<g style="fill:#000000; fill-opacity:1.0; 
stroke:#000000; stroke-width:0; stroke-opacity:1; 
stroke-linecap:round; stroke-linejoin:round;">
<circle cx="53180" cy="28500" r="1062.99" /> 
</g>
<g style="fill:#000000; fill-opacity:1.0; 
stroke:#000000; stroke-width:59.0551; stroke-opacity:1; 
stroke-linecap:round; stroke-linejoin:round;">
</g>
<g style="fill:#000000; fill-opacity:1.0; 
stroke:#000000; stroke-width:0; stroke-opacity:1; 
stroke-linecap:round; stroke-linejoin:round;">
<circle cx="68930" cy="28500" r="1062.99" /> 
</g>
<g style="fill:#000000; fill-opacity:1.0; 
stroke:#000000; stroke-width:59.0551; stroke-opacity:1; 
stroke-linecap:round; stroke-linejoin:round;">
</g>
<g style="fill:#000000; fill-opacity:1.0; 
stroke:#000000; stroke-width:0; stroke-opacity:1; 
stroke-linecap:round; stroke-linejoin:round;">
<polyline style="fill-rule:evenodd;"
points="64330,29100
63530,29100
63530,29900
64330,29900
64330,29100
" /> 
</g>
<g style="fill:#000000; fill-opacity:1.0; 
stroke:#000000; stroke-width:800; stroke-opacity:1; 
stroke-linecap:round; stroke-linejoin:round;">
</g>
<g style="fill:#000000; fill-opacity:0.0; 
stroke:#000000; stroke-width:800; stroke-opacity:1; 
stroke-linecap:round; stroke-linejoin:round;">
<path d="M64930 29500
L64930 29500
" />
</g>
<g style="fill:#000000; fill-opacity:1.0; 
stroke:#000000; stroke-width:0; stroke-opacity:1; 
stroke-linecap:round; stroke-linejoin:round;">
<circle cx="58680" cy="31750" r="300" /> 
</g>
<g style="fill:#000000; fill-opacity:1.0; 
stroke:#000000; stroke-width:59.0551; stroke-opacity:1; 
stroke-linecap:round; stroke-linejoin:round;">
</g>
<g style="fill:#000000; fill-opacity:1.0; 
stroke:#000000; stroke-width:0; stroke-opacity:1; 
stroke-linecap:round; stroke-linejoin:round;">
<circle cx="54680" cy="31750" r="300" /> 
</g>
<g style="fill:#000000; fill-opacity:1.0; 
stroke:#000000; stroke-width:59.0551; stroke-opacity:1; 
stroke-linecap:round; stroke-linejoin:round;">
</g>
<g style="fill:#000000; fill-opacity:1.0; 
stroke:#000000; stroke-width:0; stroke-opacity:1; 
stroke-linecap:round; stroke-linejoin:round;">
<circle cx="67430" cy="31500" r="300" /> 
</g>
<g style="fill:#000000; fill-opacity:1.0; 
stroke:#000000; stroke-width:59.0551; stroke-opacity:1; 
stroke-linecap:round; stroke-linejoin:round;">
</g>
<g style="fill:#000000; fill-opacity:1.0; 
stroke:#000000; stroke-width:0; stroke-opacity:1; 
stroke-linecap:round; stroke-linejoin:round;">
<circle cx="63430" cy="31500" r="300" /> 
</g>
<g style="fill:#000000; fill-opacity:1.0; 
stroke:#000000; stroke-width:59.0551; stroke-opacity:1; 
stroke-linecap:round; stroke-linejoin:round;">
</g>
<g style="fill:#000000; fill-opacity:1.0; 
stroke:#000000; stroke-width:0; stroke-opacity:1; 
stroke-linecap:round; stroke-linejoin:round;">
<circle cx="67430" cy="33500" r="300" /> 
</g>
<g style="fill:#000000; fill-opacity:1.0; 
stroke:#000000; stroke-width:59.0551; stroke-opacity:1; 
stroke-linecap:round; stroke-linejoin:round;">
</g>
<g style="fill:#000000; fill-opacity:1.0; 
stroke:#000000; stroke-width:0; stroke-opacity:1; 
stroke-linecap:round; stroke-linejoin:round;">
<circle cx="63430" cy="33500" r="300" /> 
</g>
<g style="fill:#000000; fill-opacity:1.0; 
stroke:#000000; stroke-width:59.0551; stroke-opacity:1; 
stroke-linecap:round; stroke-linejoin:round;">
</g>
<g style="fill:#000000; fill-opacity:1.0; 
stroke:#000000; stroke-width:0; stroke-opacity:1; 
stroke-linecap:round; stroke-linejoin:round;">
<circle cx="58680" cy="33500" r="300" /> 
</g>
<g style="fill:#000000; fill-opacity:1.0; 
stroke:#000000; stroke-width:59.0551; stroke-opacity:1; 
stroke-linecap:round; stroke-linejoin:round;">
</g>
<g style="fill:#000000; fill-opacity:1.0; 
stroke:#000000; stroke-width:0; stroke-opacity:1; 
stroke-linecap:round; stroke-linejoin:round;">
<circle cx="54680" cy="33500" r="300" /> 
</g>
<g style="fill:#000000; fill-opacity:1.0; 
stroke:#000000; stroke-width:59.0551; stroke-opacity:1; 
stroke-linecap:round; stroke-linejoin:round;">
</g>
<g style="fill:#000000; fill-opacity:1.0; 
stroke:#000000; stroke-width:0; stroke-opacity:1; 
stroke-linecap:round; stroke-linejoin:round;">
<polyline style="fill-rule:evenodd;"
points="66185,36255
66185,35744
65674,35744
65674,36255
66185,36255
" /> 
<circle cx="64945.7" cy="36000" r="255.906" /> 
</g>
<g style="fill:#000000; fill-opacity:1.0; 
stroke:#000000; stroke-width:59.0551; stroke-opacity:1; 
stroke-linecap:round; stroke-linejoin:round;">
</g>
<g style="fill:#000000; fill-opacity:1.0; 
stroke:#000000; stroke-width:0; stroke-opacity:1; 
stroke-linecap:round; stroke-linejoin:round;">
<polyline style="fill-rule:evenodd;"
points="57185,36255
57185,35744
56674,35744
56674,36255
57185,36255
" /> 
<circle cx="55945.7" cy="36000" r="255.906" /> 
</g>
<g style="fill:#000000; fill-opacity:1.0; 
stroke:#000000; stroke-width:59.0551; stroke-opacity:1; 
stroke-linecap:round; stroke-linejoin:round;">
</g>
<g style="fill:#000000; fill-opacity:1.0; 
stroke:#000000; stroke-width:0; stroke-opacity:1; 
stroke-linecap:round; stroke-linejoin:round;">
<circle cx="61180" cy="31750" r="325" /> 
</g>
<g style="fill:#000000; fill-opacity:1.0; 
stroke:#000000; stroke-width:59.0551; stroke-opacity:1; 
stroke-linecap:round; stroke-linejoin:round;">
</g>
<g style="fill:#000000; fill-opacity:1.0; 
stroke:#000000; stroke-width:0; stroke-opacity:1; 
stroke-linecap:round; stroke-linejoin:round;">
<circle cx="60180" cy="32750" r="325" /> 
</g>
<g style="fill:#000000; fill-opacity:1.0; 
stroke:#000000; stroke-width:59.0551; stroke-opacity:1; 
stroke-linecap:round; stroke-linejoin:round;">
</g>
<g style="fill:#000000; fill-opacity:1.0; 
stroke:#000000; stroke-width:0; stroke-opacity:1; 
stroke-linecap:round; stroke-linejoin:round;">
<polyline style="fill-rule:evenodd;"
points="60855,34075
61505,34075
61505,33425
60855,33425
60855,34075
" /> 
<polyline style="fill-rule:evenodd;"
points="56674,41755
57185,41755
57185,41244
56674,41244
56674,41755
" /> 
<circle cx="56930" cy="39531.5" r="255.906" /> 
</g>
<g style="fill:#000000; fill-opacity:1.0; 
stroke:#000000; stroke-width:59.0551; stroke-opacity:1; 
stroke-linecap:round; stroke-linejoin:round;">
</g>
<g style="fill:#000000; fill-opacity:1.0; 
stroke:#000000; stroke-width:0; stroke-opacity:1; 
stroke-linecap:round; stroke-linejoin:round;">
<circle cx="59180" cy="44250" r="500" /> 
</g>
<g style="fill:#000000; fill-opacity:1.0; 
stroke:#000000; stroke-width:59.0551; stroke-opacity:1; 
stroke-linecap:round; stroke-linejoin:round;">
</g>
<g style="fill:#000000; fill-opacity:1.0; 
stroke:#000000; stroke-width:0; stroke-opacity:1; 
stroke-linecap:round; stroke-linejoin:round;">
<polyline style="fill-rule:evenodd;"
points="53680,44750
53680,43750
52680,43750
52680,44750
53680,44750
" /> 
<polyline style="fill-rule:evenodd;"
points="61685,36255
61685,35744
61174,35744
61174,36255
61685,36255
" /> 
<circle cx="60445.7" cy="36000" r="255.906" /> 
</g>
<g style="fill:#000000; fill-opacity:1.0; 
stroke:#000000; stroke-width:59.0551; stroke-opacity:1; 
stroke-linecap:round; stroke-linejoin:round;">
</g>
<g style="fill:#000000; fill-opacity:1.0; 
stroke:#000000; stroke-width:0; stroke-opacity:1; 
stroke-linecap:round; stroke-linejoin:round;">
<circle cx="64430" cy="40500" r="3000" /> 
</g>
<g style="fill:#000000; fill-opacity:1.0; 
stroke:#000000; stroke-width:59.0551; stroke-opacity:1; 
stroke-linecap:round; stroke-linejoin:round;">
</g>
<g style="fill:#000000; fill-opacity:1.0; 
stroke:#000000; stroke-width:0; stroke-opacity:1; 
stroke-linecap:round; stroke-linejoin:round;">
<circle cx="67930" cy="38000" r="500" /> 
</g>
<g style="fill:#000000; fill-opacity:1.0; 
stroke:#000000; stroke-width:59.0551; stroke-opacity:1; 
stroke-linecap:round; stroke-linejoin:round;">
</g>
<g style="fill:#000000; fill-opacity:1.0; 
stroke:#000000; stroke-width:0; stroke-opacity:1; 
stroke-linecap:round; stroke-linejoin:round;">
<circle cx="67930" cy="43000" r="500" /> 
</g>
<g style="fill:#000000; fill-opacity:1.0; 
stroke:#000000; stroke-width:59.0551; stroke-opacity:1; 
stroke-linecap:round; stroke-linejoin:round;">
</g>
<g style="fill:#000000; fill-opacity:1.0; 
stroke:#000000; stroke-width:0; stroke-opacity:1; 
stroke-linecap:round; stroke-linejoin:round;">
<polyline style="fill-rule:evenodd;"
points="61430,38500
61430,37500
60430,37500
60430,38500
61430,38500
" /> 
<polyline style="fill-rule:evenodd;"
points="61430,43500
61430,42500
60430,42500
60430,43500
61430,43500
" /> 
<circle cx="65930" cy="47000" r="492" /> 
</g>
<g style="fill:#000000; fill-opacity:1.0; 
stroke:#000000; stroke-width:59.0551; stroke-opacity:1; 
stroke-linecap:round; stroke-linejoin:round;">
</g>
<g style="fill:#000000; fill-opacity:1.0; 
stroke:#000000; stroke-width:984.252; stroke-opacity:1; 
stroke-linecap:round; stroke-linejoin:round;">
</g>
<g style="fill:#000000; fill-opacity:0.0; 
stroke:#000000; stroke-width:984.252; stroke-opacity:1; 
stroke-linecap:round; stroke-linejoin:round;">
<path d="M63930 47000
L61930 47000
" />
<path d="M64430 40500
L64430 44250
" />
<path d="M64430 40500
L68930 40500
" />
<path d="M67930 43000
L67930 44250
" />
<path d="M67930 43000
L68930 43000
" />
<path d="M67930 38000
L68930 38000
" />
</g>
<g style="fill:#000000; fill-opacity:0.0; 
stroke:#000000; stroke-width:393.701; stroke-opacity:1; 
stroke-linecap:round; stroke-linejoin:round;">
<path d="M63930 47000
L63930 47500
" />
</g>
<g style="fill:#000000; fill-opacity:0.0; 
stroke:#000000; stroke-width:984.252; stroke-opacity:1; 
stroke-linecap:round; stroke-linejoin:round;">
<path d="M67180 47750
L67180 44500
" />
<path d="M66680 48250
L67180 47750
" />
<path d="M64680 48250
L66680 48250
" />
<path d="M63930 47500
L64680 48250
" />
</g>
<g style="fill:#000000; fill-opacity:0.0; 
stroke:#000000; stroke-width:393.701; stroke-opacity:1; 
stroke-linecap:round; stroke-linejoin:round;">
<path d="M57930 47000
L57930 46500
" />
</g>
<g style="fill:#000000; fill-opacity:0.0; 
stroke:#000000; stroke-width:984.252; stroke-opacity:1; 
stroke-linecap:round; stroke-linejoin:round;">
<path d="M65930 46250
L65930 47000
" />
<path d="M65430 45750
L65930 46250
" />
<path d="M58680 45750
L65430 45750
" />
<path d="M57930 46500
L58680 45750
" />
<path d="M55930 47000
L53180 44250
" />
<path d="M60930 43000
L53680 43000
" />
<path d="M53180 43500
L53180 44250
" />
<path d="M53680 43000
L53180 43500
" />
<path d="M61930 47000
L59930 47000
" />
</g>
<g style="fill:#000000; fill-opacity:0.0; 
stroke:#000000; stroke-width:393.701; stroke-opacity:1; 
stroke-linecap:round; stroke-linejoin:round;">
<path d="M60930 38000
L60430 38000
" />
</g>
<g style="fill:#000000; fill-opacity:0.0; 
stroke:#000000; stroke-width:984.252; stroke-opacity:1; 
stroke-linecap:round; stroke-linejoin:round;">
<path d="M60430 38000
L56930 41500
" />
</g>
<g style="fill:#000000; fill-opacity:0.0; 
stroke:#000000; stroke-width:393.701; stroke-opacity:1; 
stroke-linecap:round; stroke-linejoin:round;">
<path d="M56930 37000
L56930 39531
" />
</g>
<g style="fill:#000000; fill-opacity:0.0; 
stroke:#000000; stroke-width:984.252; stroke-opacity:1; 
stroke-linecap:round; stroke-linejoin:round;">
<path d="M56930 41500
L53180 41500
" />
<path d="M59180 44250
L64430 44250
" />
<path d="M64430 44250
L65930 44250
" />
<path d="M65930 44250
L67930 44250
" />
<path d="M67930 44250
L68930 44250
" />
<path d="M68930 44250
L68930 43000
" />
<path d="M68930 42500
L68930 40500
" />
<path d="M68930 40500
L68930 38000
" />
<path d="M68930 38000
L68930 37000
" />
<path d="M68930 43000
L68930 42500
" />
<path d="M53180 34000
L53180 41000
" />
<path d="M53180 34000
L53180 33500
" />
<path d="M53180 41500
L53180 41000
" />
</g>
<g style="fill:#000000; fill-opacity:0.0; 
stroke:#000000; stroke-width:393.701; stroke-opacity:1; 
stroke-linecap:round; stroke-linejoin:round;">
<path d="M55945 36000
L53430 36000
" />
<path d="M68930 37000
L56930 37000
" />
<path d="M56930 37000
L56930 36000
" />
<path d="M65930 36000
L68930 36000
" />
<path d="M63430 36000
L61430 36000
" />
<path d="M60445 36000
L60430 36000
" />
<path d="M60430 36000
L58680 33500
" />
<path d="M63430 33500
L63430 36000
" />
<path d="M64945 36000
L63430 36000
" />
<path d="M61180 33750
L61680 33750
" />
<path d="M62430 33000
L62430 29500
" />
<path d="M61680 33750
L62430 33000
" />
<path d="M60180 32750
L59430 32750
" />
<path d="M59430 32750
L58680 33500
" />
<path d="M61180 31750
L58680 31750
" />
<path d="M63430 31500
L63430 33500
" />
<path d="M67430 31500
L66930 31500
" />
<path d="M66930 31500
L64930 29500
" />
<path d="M67430 33500
L68930 33500
" />
<path d="M56930 29500
L54680 31750
" />
<path d="M54680 33500
L53180 33500
" />
<path d="M63930 29500
L63930 29000
" />
</g>
<g style="fill:#000000; fill-opacity:0.0; 
stroke:#000000; stroke-width:984.252; stroke-opacity:1; 
stroke-linecap:round; stroke-linejoin:round;">
<path d="M68930 31500
L68930 33500
" />
<path d="M68930 33500
L68930 35500
" />
<path d="M68930 35500
L68930 36000
" />
<path d="M68930 36000
L68930 37000
" />
</g>
<g style="fill:#000000; fill-opacity:0.0; 
stroke:#000000; stroke-width:393.701; stroke-opacity:1; 
stroke-linecap:round; stroke-linejoin:round;">
<path d="M68930 37000
L68930 37000
" />
<path d="M65930 28500
L68930 31500
" />
<path d="M64430 28500
L65930 28500
" />
<path d="M63930 29000
L64430 28500
" />
<path d="M57930 29500
L57930 29000
" />
</g>
<g style="fill:#000000; fill-opacity:0.0; 
stroke:#000000; stroke-width:984.252; stroke-opacity:1; 
stroke-linecap:round; stroke-linejoin:round;">
<path d="M53180 31500
L53180 33500
" />
</g>
<g style="fill:#000000; fill-opacity:0.0; 
stroke:#000000; stroke-width:393.701; stroke-opacity:1; 
stroke-linecap:round; stroke-linejoin:round;">
<path d="M55930 28500
L53180 31500
" />
<path d="M57430 28500
L55930 28500
" />
<path d="M57930 29000
L57430 28500
" />
<path d="M60430 29500
L57930 29500
" />
<path d="M61430 29500
L62430 29500
" />
<path d="M62430 29500
L63930 29500
" />
</g>
<g style="fill:#FFFFFF; fill-opacity:0.0; 
stroke:#FFFFFF; stroke-width:393.701; stroke-opacity:1; 
stroke-linecap:round; stroke-linejoin:round;">
</g>
<g style="fill:#FFFFFF; fill-opacity:1.0; 
stroke:#FFFFFF; stroke-width:0; stroke-opacity:1; 
stroke-linecap:round; stroke-linejoin:round;">
<circle cx="57930" cy="47000" r="68.8976" /> 
</g>
<g style="fill:#FFFFFF; fill-opacity:1.0; 
stroke:#FFFFFF; stroke-width:59.0551; stroke-opacity:1; 
stroke-linecap:round; stroke-linejoin:round;">
</g>
<g style="fill:#FFFFFF; fill-opacity:1.0; 
stroke:#FFFFFF; stroke-width:0; stroke-opacity:1; 
stroke-linecap:round; stroke-linejoin:round;">
<circle cx="59930" cy="47000" r="68.8976" /> 
</g>
<g style="fill:#FFFFFF; fill-opacity:1.0; 
stroke:#FFFFFF; stroke-width:59.0551; stroke-opacity:1; 
stroke-linecap:round; stroke-linejoin:round;">
</g>
<g style="fill:#FFFFFF; fill-opacity:1.0; 
stroke:#FFFFFF; stroke-width:0; stroke-opacity:1; 
stroke-linecap:round; stroke-linejoin:round;">
<circle cx="55930" cy="47000" r="68.8976" /> 
</g>
<g style="fill:#FFFFFF; fill-opacity:1.0; 
stroke:#FFFFFF; stroke-width:59.0551; stroke-opacity:1; 
stroke-linecap:round; stroke-linejoin:round;">
</g>
<g style="fill:#FFFFFF; fill-opacity:1.0; 
stroke:#FFFFFF; stroke-width:0; stroke-opacity:1; 
stroke-linecap:round; stroke-linejoin:round;">
<circle cx="61930" cy="47000" r="68.8976" /> 
</g>
<g style="fill:#FFFFFF; fill-opacity:1.0; 
stroke:#FFFFFF; stroke-width:59.0551; stroke-opacity:1; 
stroke-linecap:round; stroke-linejoin:round;">
</g>
<g style="fill:#FFFFFF; fill-opacity:1.0; 
stroke:#FFFFFF; stroke-width:0; stroke-opacity:1; 
stroke-linecap:round; stroke-linejoin:round;">
<circle cx="63930" cy="47000" r="68.8976" /> 
</g>
<g style="fill:#FFFFFF; fill-opacity:1.0; 
stroke:#FFFFFF; stroke-width:59.0551; stroke-opacity:1; 
stroke-linecap:round; stroke-linejoin:round;">
</g>
<g style="fill:#FFFFFF; fill-opacity:1.0; 
stroke:#FFFFFF; stroke-width:0; stroke-opacity:1; 
stroke-linecap:round; stroke-linejoin:round;">
<circle cx="56930" cy="29500" r="68.8976" /> 
</g>
<g style="fill:#FFFFFF; fill-opacity:1.0; 
stroke:#FFFFFF; stroke-width:59.0551; stroke-opacity:1; 
stroke-linecap:round; stroke-linejoin:round;">
</g>
<g style="fill:#FFFFFF; fill-opacity:1.0; 
stroke:#FFFFFF; stroke-width:0; stroke-opacity:1; 
stroke-linecap:round; stroke-linejoin:round;">
<circle cx="57930" cy="29500" r="68.8976" /> 
</g>
<g style="fill:#FFFFFF; fill-opacity:1.0; 
stroke:#FFFFFF; stroke-width:59.0551; stroke-opacity:1; 
stroke-linecap:round; stroke-linejoin:round;">
</g>
<g style="fill:#FFFFFF; fill-opacity:1.0; 
stroke:#FFFFFF; stroke-width:0; stroke-opacity:1; 
stroke-linecap:round; stroke-linejoin:round;">
<circle cx="61430" cy="29500" r="68.8976" /> 
</g>
<g style="fill:#FFFFFF; fill-opacity:1.0; 
stroke:#FFFFFF; stroke-width:59.0551; stroke-opacity:1; 
stroke-linecap:round; stroke-linejoin:round;">
</g>
<g style="fill:#FFFFFF; fill-opacity:1.0; 
stroke:#FFFFFF; stroke-width:0; stroke-opacity:1; 
stroke-linecap:round; stroke-linejoin:round;">
<circle cx="60430" cy="29500" r="68.8976" /> 
</g>
<g style="fill:#FFFFFF; fill-opacity:1.0; 
stroke:#FFFFFF; stroke-width:59.0551; stroke-opacity:1; 
stroke-linecap:round; stroke-linejoin:round;">
</g>
<g style="fill:#FFFFFF; fill-opacity:1.0; 
stroke:#FFFFFF; stroke-width:0; stroke-opacity:1; 
stroke-linecap:round; stroke-linejoin:round;">
<circle cx="68930" cy="48000" r="68.8976" /> 
</g>
<g style="fill:#FFFFFF; fill-opacity:1.0; 
stroke:#FFFFFF; stroke-width:59.0551; stroke-opacity:1; 
stroke-linecap:round; stroke-linejoin:round;">
</g>
<g style="fill:#FFFFFF; fill-opacity:1.0; 
stroke:#FFFFFF; stroke-width:0; stroke-opacity:1; 
stroke-linecap:round; stroke-linejoin:round;">
<circle cx="53180" cy="48000" r="68.8976" /> 
</g>
<g style="fill:#FFFFFF; fill-opacity:1.0; 
stroke:#FFFFFF; stroke-width:59.0551; stroke-opacity:1; 
stroke-linecap:round; stroke-linejoin:round;">
</g>
<g style="fill:#FFFFFF; fill-opacity:1.0; 
stroke:#FFFFFF; stroke-width:0; stroke-opacity:1; 
stroke-linecap:round; stroke-linejoin:round;">
<circle cx="53180" cy="28500" r="68.8976" /> 
</g>
<g style="fill:#FFFFFF; fill-opacity:1.0; 
stroke:#FFFFFF; stroke-width:59.0551; stroke-opacity:1; 
stroke-linecap:round; stroke-linejoin:round;">
</g>
<g style="fill:#FFFFFF; fill-opacity:1.0; 
stroke:#FFFFFF; stroke-width:0; stroke-opacity:1; 
stroke-linecap:round; stroke-linejoin:round;">
<circle cx="68930" cy="28500" r="68.8976" /> 
</g>
<g style="fill:#FFFFFF; fill-opacity:1.0; 
stroke:#FFFFFF; stroke-width:59.0551; stroke-opacity:1; 
stroke-linecap:round; stroke-linejoin:round;">
</g>
<g style="fill:#FFFFFF; fill-opacity:1.0; 
stroke:#FFFFFF; stroke-width:0; stroke-opacity:1; 
stroke-linecap:round; stroke-linejoin:round;">
<circle cx="63930" cy="29500" r="68.8976" /> 
</g>
<g style="fill:#FFFFFF; fill-opacity:1.0; 
stroke:#FFFFFF; stroke-width:59.0551; stroke-opacity:1; 
stroke-linecap:round; stroke-linejoin:round;">
</g>
<g style="fill:#FFFFFF; fill-opacity:1.0; 
stroke:#FFFFFF; stroke-width:0; stroke-opacity:1; 
stroke-linecap:round; stroke-linejoin:round;">
<circle cx="64930" cy="29500" r="68.8976" /> 
</g>
<g style="fill:#FFFFFF; fill-opacity:1.0; 
stroke:#FFFFFF; stroke-width:59.0551; stroke-opacity:1; 
stroke-linecap:round; stroke-linejoin:round;">
</g>
<g style="fill:#FFFFFF; fill-opacity:1.0; 
stroke:#FFFFFF; stroke-width:0; stroke-opacity:1; 
stroke-linecap:round; stroke-linejoin:round;">
<circle cx="58680" cy="31750" r="68.8976" /> 
</g>
<g style="fill:#FFFFFF; fill-opacity:1.0; 
stroke:#FFFFFF; stroke-width:59.0551; stroke-opacity:1; 
stroke-linecap:round; stroke-linejoin:round;">
</g>
<g style="fill:#FFFFFF; fill-opacity:1.0; 
stroke:#FFFFFF; stroke-width:0; stroke-opacity:1; 
stroke-linecap:round; stroke-linejoin:round;">
<circle cx="54680" cy="31750" r="68.8976" /> 
</g>
<g style="fill:#FFFFFF; fill-opacity:1.0; 
stroke:#FFFFFF; stroke-width:59.0551; stroke-opacity:1; 
stroke-linecap:round; stroke-linejoin:round;">
</g>
<g style="fill:#FFFFFF; fill-opacity:1.0; 
stroke:#FFFFFF; stroke-width:0; stroke-opacity:1; 
stroke-linecap:round; stroke-linejoin:round;">
<circle cx="67430" cy="31500" r="68.8976" /> 
</g>
<g style="fill:#FFFFFF; fill-opacity:1.0; 
stroke:#FFFFFF; stroke-width:59.0551; stroke-opacity:1; 
stroke-linecap:round; stroke-linejoin:round;">
</g>
<g style="fill:#FFFFFF; fill-opacity:1.0; 
stroke:#FFFFFF; stroke-width:0; stroke-opacity:1; 
stroke-linecap:round; stroke-linejoin:round;">
<circle cx="63430" cy="31500" r="68.8976" /> 
</g>
<g style="fill:#FFFFFF; fill-opacity:1.0; 
stroke:#FFFFFF; stroke-width:59.0551; stroke-opacity:1; 
stroke-linecap:round; stroke-linejoin:round;">
</g>
<g style="fill:#FFFFFF; fill-opacity:1.0; 
stroke:#FFFFFF; stroke-width:0; stroke-opacity:1; 
stroke-linecap:round; stroke-linejoin:round;">
<circle cx="67430" cy="33500" r="68.8976" /> 
</g>
<g style="fill:#FFFFFF; fill-opacity:1.0; 
stroke:#FFFFFF; stroke-width:59.0551; stroke-opacity:1; 
stroke-linecap:round; stroke-linejoin:round;">
</g>
<g style="fill:#FFFFFF; fill-opacity:1.0; 
stroke:#FFFFFF; stroke-width:0; stroke-opacity:1; 
stroke-linecap:round; stroke-linejoin:round;">
<circle cx="63430" cy="33500" r="68.8976" /> 
</g>
<g style="fill:#FFFFFF; fill-opacity:1.0; 
stroke:#FFFFFF; stroke-width:59.0551; stroke-opacity:1; 
stroke-linecap:round; stroke-linejoin:round;">
</g>
<g style="fill:#FFFFFF; fill-opacity:1.0; 
stroke:#FFFFFF; stroke-width:0; stroke-opacity:1; 
stroke-linecap:round; stroke-linejoin:round;">
<circle cx="58680" cy="33500" r="68.8976" /> 
</g>
<g style="fill:#FFFFFF; fill-opacity:1.0; 
stroke:#FFFFFF; stroke-width:59.0551; stroke-opacity:1; 
stroke-linecap:round; stroke-linejoin:round;">
</g>
<g style="fill:#FFFFFF; fill-opacity:1.0; 
stroke:#FFFFFF; stroke-width:0; stroke-opacity:1; 
stroke-linecap:round; stroke-linejoin:round;">
<circle cx="54680" cy="33500" r="68.8976" /> 
</g>
<g style="fill:#FFFFFF; fill-opacity:1.0; 
stroke:#FFFFFF; stroke-width:59.0551; stroke-opacity:1; 
stroke-linecap:round; stroke-linejoin:round;">
</g>
<g style="fill:#FFFFFF; fill-opacity:1.0; 
stroke:#FFFFFF; stroke-width:0; stroke-opacity:1; 
stroke-linecap:round; stroke-linejoin:round;">
<circle cx="65930" cy="36000" r="68.8976" /> 
</g>
<g style="fill:#FFFFFF; fill-opacity:1.0; 
stroke:#FFFFFF; stroke-width:59.0551; stroke-opacity:1; 
stroke-linecap:round; stroke-linejoin:round;">
</g>
<g style="fill:#FFFFFF; fill-opacity:1.0; 
stroke:#FFFFFF; stroke-width:0; stroke-opacity:1; 
stroke-linecap:round; stroke-linejoin:round;">
<circle cx="64945.7" cy="36000" r="68.8976" /> 
</g>
<g style="fill:#FFFFFF; fill-opacity:1.0; 
stroke:#FFFFFF; stroke-width:59.0551; stroke-opacity:1; 
stroke-linecap:round; stroke-linejoin:round;">
</g>
<g style="fill:#FFFFFF; fill-opacity:1.0; 
stroke:#FFFFFF; stroke-width:0; stroke-opacity:1; 
stroke-linecap:round; stroke-linejoin:round;">
<circle cx="56930" cy="36000" r="68.8976" /> 
</g>
<g style="fill:#FFFFFF; fill-opacity:1.0; 
stroke:#FFFFFF; stroke-width:59.0551; stroke-opacity:1; 
stroke-linecap:round; stroke-linejoin:round;">
</g>
<g style="fill:#FFFFFF; fill-opacity:1.0; 
stroke:#FFFFFF; stroke-width:0; stroke-opacity:1; 
stroke-linecap:round; stroke-linejoin:round;">
<circle cx="55945.7" cy="36000" r="68.8976" /> 
</g>
<g style="fill:#FFFFFF; fill-opacity:1.0; 
stroke:#FFFFFF; stroke-width:59.0551; stroke-opacity:1; 
stroke-linecap:round; stroke-linejoin:round;">
</g>
<g style="fill:#FFFFFF; fill-opacity:1.0; 
stroke:#FFFFFF; stroke-width:0; stroke-opacity:1; 
stroke-linecap:round; stroke-linejoin:round;">
<circle cx="61180" cy="31750" r="68.8976" /> 
</g>
<g style="fill:#FFFFFF; fill-opacity:1.0; 
stroke:#FFFFFF; stroke-width:59.0551; stroke-opacity:1; 
stroke-linecap:round; stroke-linejoin:round;">
</g>
<g style="fill:#FFFFFF; fill-opacity:1.0; 
stroke:#FFFFFF; stroke-width:0; stroke-opacity:1; 
stroke-linecap:round; stroke-linejoin:round;">
<circle cx="60180" cy="32750" r="68.8976" /> 
</g>
<g style="fill:#FFFFFF; fill-opacity:1.0; 
stroke:#FFFFFF; stroke-width:59.0551; stroke-opacity:1; 
stroke-linecap:round; stroke-linejoin:round;">
</g>
<g style="fill:#FFFFFF; fill-opacity:1.0; 
stroke:#FFFFFF; stroke-width:0; stroke-opacity:1; 
stroke-linecap:round; stroke-linejoin:round;">
<circle cx="61180" cy="33750" r="68.8976" /> 
</g>
<g style="fill:#FFFFFF; fill-opacity:1.0; 
stroke:#FFFFFF; stroke-width:59.0551; stroke-opacity:1; 
stroke-linecap:round; stroke-linejoin:round;">
</g>
<g style="fill:#FFFFFF; fill-opacity:1.0; 
stroke:#FFFFFF; stroke-width:0; stroke-opacity:1; 
stroke-linecap:round; stroke-linejoin:round;">
<circle cx="56930" cy="41500" r="68.8976" /> 
</g>
<g style="fill:#FFFFFF; fill-opacity:1.0; 
stroke:#FFFFFF; stroke-width:59.0551; stroke-opacity:1; 
stroke-linecap:round; stroke-linejoin:round;">
</g>
<g style="fill:#FFFFFF; fill-opacity:1.0; 
stroke:#FFFFFF; stroke-width:0; stroke-opacity:1; 
stroke-linecap:round; stroke-linejoin:round;">
<circle cx="56930" cy="39531.5" r="68.8976" /> 
</g>
<g style="fill:#FFFFFF; fill-opacity:1.0; 
stroke:#FFFFFF; stroke-width:59.0551; stroke-opacity:1; 
stroke-linecap:round; stroke-linejoin:round;">
</g>
<g style="fill:#FFFFFF; fill-opacity:1.0; 
stroke:#FFFFFF; stroke-width:0; stroke-opacity:1; 
stroke-linecap:round; stroke-linejoin:round;">
<circle cx="59180" cy="44250" r="68.8976" /> 
</g>
<g style="fill:#FFFFFF; fill-opacity:1.0; 
stroke:#FFFFFF; stroke-width:59.0551; stroke-opacity:1; 
stroke-linecap:round; stroke-linejoin:round;">
</g>
<g style="fill:#FFFFFF; fill-opacity:1.0; 
stroke:#FFFFFF; stroke-width:0; stroke-opacity:1; 
stroke-linecap:round; stroke-linejoin:round;">
<circle cx="53180" cy="44250" r="68.8976" /> 
</g>
<g style="fill:#FFFFFF; fill-opacity:1.0; 
stroke:#FFFFFF; stroke-width:59.0551; stroke-opacity:1; 
stroke-linecap:round; stroke-linejoin:round;">
</g>
<g style="fill:#FFFFFF; fill-opacity:1.0; 
stroke:#FFFFFF; stroke-width:0; stroke-opacity:1; 
stroke-linecap:round; stroke-linejoin:round;">
<circle cx="61430" cy="36000" r="68.8976" /> 
</g>
<g style="fill:#FFFFFF; fill-opacity:1.0; 
stroke:#FFFFFF; stroke-width:59.0551; stroke-opacity:1; 
stroke-linecap:round; stroke-linejoin:round;">
</g>
<g style="fill:#FFFFFF; fill-opacity:1.0; 
stroke:#FFFFFF; stroke-width:0; stroke-opacity:1; 
stroke-linecap:round; stroke-linejoin:round;">
<circle cx="60445.7" cy="36000" r="68.8976" /> 
</g>
<g style="fill:#FFFFFF; fill-opacity:1.0; 
stroke:#FFFFFF; stroke-width:59.0551; stroke-opacity:1; 
stroke-linecap:round; stroke-linejoin:round;">
</g>
<g style="fill:#FFFFFF; fill-opacity:1.0; 
stroke:#FFFFFF; stroke-width:0; stroke-opacity:1; 
stroke-linecap:round; stroke-linejoin:round;">
<circle cx="64430" cy="40500" r="68.8976" /> 
</g>
<g style="fill:#FFFFFF; fill-opacity:1.0; 
stroke:#FFFFFF; stroke-width:59.0551; stroke-opacity:1; 
stroke-linecap:round; stroke-linejoin:round;">
</g>
<g style="fill:#FFFFFF; fill-opacity:1.0; 
stroke:#FFFFFF; stroke-width:0; stroke-opacity:1; 
stroke-linecap:round; stroke-linejoin:round;">
<circle cx="67930" cy="38000" r="68.8976" /> 
</g>
<g style="fill:#FFFFFF; fill-opacity:1.0; 
stroke:#FFFFFF; stroke-width:59.0551; stroke-opacity:1; 
stroke-linecap:round; stroke-linejoin:round;">
</g>
<g style="fill:#FFFFFF; fill-opacity:1.0; 
stroke:#FFFFFF; stroke-width:0; stroke-opacity:1; 
stroke-linecap:round; stroke-linejoin:round;">
<circle cx="67930" cy="43000" r="68.8976" /> 
</g>
<g style="fill:#FFFFFF; fill-opacity:1.0; 
stroke:#FFFFFF; stroke-width:59.0551; stroke-opacity:1; 
stroke-linecap:round; stroke-linejoin:round;">
</g>
<g style="fill:#FFFFFF; fill-opacity:1.0; 
stroke:#FFFFFF; stroke-width:0; stroke-opacity:1; 
stroke-linecap:round; stroke-linejoin:round;">
<circle cx="60930" cy="38000" r="68.8976" /> 
</g>
<g style="fill:#FFFFFF; fill-opacity:1.0; 
stroke:#FFFFFF; stroke-width:59.0551; stroke-opacity:1; 
stroke-linecap:round; stroke-linejoin:round;">
</g>
<g style="fill:#FFFFFF; fill-opacity:1.0; 
stroke:#FFFFFF; stroke-width:0; stroke-opacity:1; 
stroke-linecap:round; stroke-linejoin:round;">
<circle cx="60930" cy="43000" r="68.8976" /> 
</g>
<g style="fill:#FFFFFF; fill-opacity:1.0; 
stroke:#FFFFFF; stroke-width:59.0551; stroke-opacity:1; 
stroke-linecap:round; stroke-linejoin:round;">
</g>
<g style="fill:#FFFFFF; fill-opacity:1.0; 
stroke:#FFFFFF; stroke-width:0; stroke-opacity:1; 
stroke-linecap:round; stroke-linejoin:round;">
<circle cx="65930" cy="47000" r="68.8976" /> 
</g>
<g style="fill:#FFFFFF; fill-opacity:1.0; 
stroke:#FFFFFF; stroke-width:59.0551; stroke-opacity:1; 
stroke-linecap:round; stroke-linejoin:round;">
</g>
<g style="fill:#000000; fill-opacity:1.0; 
stroke:#000000; stroke-width:59.0551; stroke-opacity:1; 
stroke-linecap:round; stroke-linejoin:round;">
</g> 
</svg>
