<?xml version="1.0" standalone="no"?>
 <!DOCTYPE svg PUBLIC "-//W3C//DTD SVG 1.1//EN" 
 "http://www.w3.org/Graphics/SVG/1.1/DTD/svg11.dtd"> 
<svg xmlns="http://www.w3.org/2000/svg" version="1.1" 
    width="29.7002cm" height="21.0007cm" viewBox="0 0 116930 82680 ">
<title>SVG Picture created as u4-F.SilkS.svg date 2020/02/15 14:31:04 </title>
  <desc>Picture generated by PCBNEW </desc>
<g style="fill:#000000; fill-opacity:1;stroke:#000000; stroke-opacity:1;
stroke-linecap:round; stroke-linejoin:round; "
 transform="translate(0 0) scale(1 1)">
</g>
<g style="fill:#000000; fill-opacity:0.0; 
stroke:#000000; stroke-width:-0.000393701; stroke-opacity:1; 
stroke-linecap:round; stroke-linejoin:round;">
</g>
<g style="fill:#000000; fill-opacity:0.0; 
stroke:#000000; stroke-width:59.0551; stroke-opacity:1; 
stroke-linecap:round; stroke-linejoin:round;">
<rect x="69685.9" y="65357.2" width="42519.7" height="12598.4" rx="0" />
<rect x="3937.01" y="3937.01" width="109056" height="74806" rx="0" />
<rect x="4724.41" y="4724.41" width="107481" height="73231.2" rx="0" />
<path d="M23622 4724
L23622 3937
" />
<path d="M43307 4724
L43307 3937
" />
<path d="M62992 4724
L62992 3937
" />
<path d="M82677 4724
L82677 3937
" />
<path d="M102362 4724
L102362 3937
" />
<path d="M14169 4562
L13877 4562
" />
<path d="M14023 4562
L14023 4050
L13974 4123
L13925 4172
L13877 4196
" />
<path d="M33562 4099
L33586 4074
L33635 4050
L33757 4050
L33805 4074
L33830 4099
L33854 4147
L33854 4196
L33830 4269
L33537 4562
L33854 4562
" />
<path d="M53222 4050
L53539 4050
L53368 4245
L53442 4245
L53490 4269
L53515 4294
L53539 4342
L53539 4464
L53515 4513
L53490 4537
L53442 4562
L53295 4562
L53247 4537
L53222 4513
" />
<path d="M73175 4221
L73175 4562
" />
<path d="M73053 4026
L72932 4391
L73248 4391
" />
<path d="M92885 4050
L92641 4050
L92617 4294
L92641 4269
L92690 4245
L92812 4245
L92860 4269
L92885 4294
L92909 4342
L92909 4464
L92885 4513
L92860 4537
L92812 4562
L92690 4562
L92641 4537
L92617 4513
" />
<path d="M112545 4050
L112448 4050
L112399 4074
L112375 4099
L112326 4172
L112302 4269
L112302 4464
L112326 4513
L112350 4537
L112399 4562
L112497 4562
L112545 4537
L112570 4513
L112594 4464
L112594 4342
L112570 4294
L112545 4269
L112497 4245
L112399 4245
L112350 4269
L112326 4294
L112302 4342
" />
<path d="M23622 77955
L23622 78742
" />
<path d="M43307 77955
L43307 78742
" />
<path d="M62992 77955
L62992 78742
" />
<path d="M82677 77955
L82677 78742
" />
<path d="M102362 77955
L102362 78742
" />
<path d="M14169 78580
L13877 78580
" />
<path d="M14023 78580
L14023 78069
L13974 78142
L13925 78190
L13877 78215
" />
<path d="M33562 78117
L33586 78093
L33635 78069
L33757 78069
L33805 78093
L33830 78117
L33854 78166
L33854 78215
L33830 78288
L33537 78580
L33854 78580
" />
<path d="M53222 78069
L53539 78069
L53368 78263
L53442 78263
L53490 78288
L53515 78312
L53539 78361
L53539 78483
L53515 78532
L53490 78556
L53442 78580
L53295 78580
L53247 78556
L53222 78532
" />
<path d="M73175 78239
L73175 78580
" />
<path d="M73053 78044
L72932 78410
L73248 78410
" />
<path d="M92885 78069
L92641 78069
L92617 78312
L92641 78288
L92690 78263
L92812 78263
L92860 78288
L92885 78312
L92909 78361
L92909 78483
L92885 78532
L92860 78556
L92812 78580
L92690 78580
L92641 78556
L92617 78532
" />
<path d="M112545 78069
L112448 78069
L112399 78093
L112375 78117
L112326 78190
L112302 78288
L112302 78483
L112326 78532
L112350 78556
L112399 78580
L112497 78580
L112545 78556
L112570 78532
L112594 78483
L112594 78361
L112570 78312
L112545 78288
L112497 78263
L112399 78263
L112350 78288
L112326 78312
L112302 78361
" />
<path d="M3937 23622
L4724 23622
" />
<path d="M3937 43307
L4724 43307
" />
<path d="M3937 62992
L4724 62992
" />
<path d="M4208 13864
L4452 13864
" />
<path d="M4160 14011
L4330 13499
L4501 14011
" />
<path d="M4367 33428
L4440 33452
L4464 33476
L4489 33525
L4489 33598
L4464 33647
L4440 33671
L4391 33696
L4196 33696
L4196 33184
L4367 33184
L4416 33208
L4440 33233
L4464 33281
L4464 33330
L4440 33379
L4416 33403
L4367 33428
L4196 33428
" />
<path d="M4489 53332
L4464 53356
L4391 53381
L4342 53381
L4269 53356
L4221 53308
L4196 53259
L4172 53161
L4172 53088
L4196 52991
L4221 52942
L4269 52893
L4342 52869
L4391 52869
L4464 52893
L4489 52918
" />
<path d="M4196 73066
L4196 72554
L4318 72554
L4391 72578
L4440 72627
L4464 72676
L4489 72773
L4489 72846
L4464 72944
L4440 72993
L4391 73041
L4318 73066
L4196 73066
" />
<path d="M112992 23622
L112205 23622
" />
<path d="M112992 43307
L112205 43307
" />
<path d="M112992 62992
L112205 62992
" />
<path d="M112477 13864
L112721 13864
" />
<path d="M112428 14011
L112599 13499
L112769 14011
" />
<path d="M112635 33428
L112708 33452
L112733 33476
L112757 33525
L112757 33598
L112733 33647
L112708 33671
L112660 33696
L112465 33696
L112465 33184
L112635 33184
L112684 33208
L112708 33233
L112733 33281
L112733 33330
L112708 33379
L112684 33403
L112635 33428
L112465 33428
" />
<path d="M112757 53332
L112733 53356
L112660 53381
L112611 53381
L112538 53356
L112489 53308
L112465 53259
L112440 53161
L112440 53088
L112465 52991
L112489 52942
L112538 52893
L112611 52869
L112660 52869
L112733 52893
L112757 52918
" />
<path d="M112465 73066
L112465 72554
L112587 72554
L112660 72578
L112708 72627
L112733 72676
L112757 72773
L112757 72846
L112733 72944
L112708 72993
L112660 73041
L112587 73066
L112465 73066
" />
<path d="M78881 76293
L78881 75703
L79022 75703
L79106 75731
L79162 75787
L79190 75843
L79219 75956
L79219 76040
L79190 76153
L79162 76209
L79106 76265
L79022 76293
L78881 76293
" />
<path d="M79725 76293
L79725 75984
L79697 75928
L79640 75899
L79528 75899
L79472 75928
" />
<path d="M79725 76265
L79669 76293
L79528 76293
L79472 76265
L79444 76209
L79444 76153
L79472 76096
L79528 76068
L79669 76068
L79725 76040
" />
<path d="M79922 75899
L80147 75899
" />
<path d="M80006 75703
L80006 76209
L80034 76265
L80090 76293
L80147 76293
" />
<path d="M80568 76265
L80512 76293
L80400 76293
L80343 76265
L80315 76209
L80315 75984
L80343 75928
L80400 75899
L80512 75899
L80568 75928
L80597 75984
L80597 76040
L80315 76096
" />
<path d="M80850 76237
L80878 76265
L80850 76293
L80822 76265
L80850 76237
L80850 76293
" />
<path d="M80850 75928
L80878 75956
L80850 75984
L80822 75956
L80850 75928
L80850 75984
" />
<path d="M81553 75759
L81581 75731
L81637 75703
L81778 75703
L81834 75731
L81862 75759
L81890 75815
L81890 75871
L81862 75956
L81525 76293
L81890 76293
" />
<path d="M82256 75703
L82312 75703
L82368 75731
L82396 75759
L82424 75815
L82453 75928
L82453 76068
L82424 76181
L82396 76237
L82368 76265
L82312 76293
L82256 76293
L82199 76265
L82171 76237
L82143 76181
L82115 76068
L82115 75928
L82143 75815
L82171 75759
L82199 75731
L82256 75703
" />
<path d="M83015 76293
L82678 76293
" />
<path d="M82846 76293
L82846 75703
L82790 75787
L82734 75843
L82678 75871
" />
<path d="M83296 76293
L83409 76293
L83465 76265
L83493 76237
L83549 76153
L83577 76040
L83577 75815
L83549 75759
L83521 75731
L83465 75703
L83352 75703
L83296 75731
L83268 75759
L83240 75815
L83240 75956
L83268 76012
L83296 76040
L83352 76068
L83465 76068
L83521 76040
L83549 76012
L83577 75956
" />
<path d="M83831 76068
L84280 76068
" />
<path d="M84871 76293
L84534 76293
" />
<path d="M84702 76293
L84702 75703
L84646 75787
L84590 75843
L84534 75871
" />
<path d="M85433 76293
L85096 76293
" />
<path d="M85265 76293
L85265 75703
L85208 75787
L85152 75843
L85096 75871
" />
<path d="M85687 76068
L86136 76068
" />
<path d="M86530 75703
L86586 75703
L86643 75731
L86671 75759
L86699 75815
L86727 75928
L86727 76068
L86699 76181
L86671 76237
L86643 76265
L86586 76293
L86530 76293
L86474 76265
L86446 76237
L86418 76181
L86390 76068
L86390 75928
L86418 75815
L86446 75759
L86474 75731
L86530 75703
" />
<path d="M87289 76293
L86952 76293
" />
<path d="M87121 76293
L87121 75703
L87064 75787
L87008 75843
L86952 75871
" />
<path d="M69685 76577
L112205 76577
" />
<path d="M70220 77395
L70220 76805
" />
<path d="M70557 77395
L70304 77058
" />
<path d="M70557 76805
L70220 77142
" />
<path d="M70810 77395
L70810 77002
" />
<path d="M70810 76805
L70782 76833
L70810 76861
L70838 76833
L70810 76805
L70810 76861
" />
<path d="M71429 77339
L71401 77367
L71316 77395
L71260 77395
L71176 77367
L71120 77311
L71091 77255
L71063 77142
L71063 77058
L71091 76946
L71120 76889
L71176 76833
L71260 76805
L71316 76805
L71401 76833
L71429 76861
" />
<path d="M71935 77395
L71935 77086
L71907 77030
L71851 77002
L71738 77002
L71682 77030
" />
<path d="M71935 77367
L71879 77395
L71738 77395
L71682 77367
L71654 77311
L71654 77255
L71682 77199
L71738 77171
L71879 77171
L71935 77142
" />
<path d="M72469 77395
L72469 76805
" />
<path d="M72469 77367
L72413 77395
L72301 77395
L72244 77367
L72216 77339
L72188 77283
L72188 77114
L72216 77058
L72244 77030
L72301 77002
L72413 77002
L72469 77030
" />
<path d="M73201 77086
L73397 77086
" />
<path d="M73482 77395
L73201 77395
L73201 76805
L73482 76805
" />
<path d="M73735 77339
L73763 77367
L73735 77395
L73707 77367
L73735 77339
L73735 77395
" />
<path d="M74016 77395
L74016 76805
L74157 76805
L74241 76833
L74297 76889
L74325 76946
L74354 77058
L74354 77142
L74325 77255
L74297 77311
L74241 77367
L74157 77395
L74016 77395
" />
<path d="M74607 77339
L74635 77367
L74607 77395
L74579 77367
L74607 77339
L74607 77395
" />
<path d="M74860 77227
L75141 77227
" />
<path d="M74804 77395
L75000 76805
L75197 77395
" />
<path d="M75394 77339
L75422 77367
L75394 77395
L75366 77367
L75394 77339
L75394 77395
" />
<path d="M76575 77395
L76575 76805
" />
<path d="M76631 77171
L76800 77395
" />
<path d="M76800 77002
L76575 77227
" />
<path d="M77053 77395
L77053 77002
" />
<path d="M77053 76805
L77025 76833
L77053 76861
L77081 76833
L77053 76805
L77053 76861
" />
<path d="M77588 77367
L77531 77395
L77419 77395
L77363 77367
L77334 77339
L77306 77283
L77306 77114
L77334 77058
L77363 77030
L77419 77002
L77531 77002
L77588 77030
" />
<path d="M78094 77395
L78094 77086
L78066 77030
L78009 77002
L77897 77002
L77841 77030
" />
<path d="M78094 77367
L78037 77395
L77897 77395
L77841 77367
L77813 77311
L77813 77255
L77841 77199
L77897 77171
L78037 77171
L78094 77142
" />
<path d="M78628 77395
L78628 76805
" />
<path d="M78628 77367
L78572 77395
L78459 77395
L78403 77367
L78375 77339
L78347 77283
L78347 77114
L78375 77058
L78403 77030
L78459 77002
L78572 77002
L78628 77030
" />
<path d="M79612 77002
L79612 77395
" />
<path d="M79472 76777
L79331 77199
L79697 77199
" />
<path d="M79922 77339
L79950 77367
L79922 77395
L79894 77367
L79922 77339
L79922 77395
" />
<path d="M80315 76805
L80372 76805
L80428 76833
L80456 76861
L80484 76917
L80512 77030
L80512 77171
L80484 77283
L80456 77339
L80428 77367
L80372 77395
L80315 77395
L80259 77367
L80231 77339
L80203 77283
L80175 77171
L80175 77030
L80203 76917
L80231 76861
L80259 76833
L80315 76805
" />
<path d="M80765 77339
L80793 77367
L80765 77395
L80737 77367
L80765 77339
L80765 77395
" />
<path d="M81328 76805
L81046 76805
L81018 77086
L81046 77058
L81103 77030
L81243 77030
L81300 77058
L81328 77086
L81356 77142
L81356 77283
L81328 77339
L81300 77367
L81243 77395
L81103 77395
L81046 77367
L81018 77339
" />
<path d="M81609 77171
L82059 77171
" />
<path d="M81834 77395
L81834 76946
" />
<path d="M82593 77395
L82593 76805
" />
<path d="M82593 77367
L82537 77395
L82424 77395
L82368 77367
L82340 77339
L82312 77283
L82312 77114
L82340 77058
L82368 77030
L82424 77002
L82537 77002
L82593 77030
" />
<path d="M82790 77002
L83015 77002
" />
<path d="M82874 77395
L82874 76889
L82903 76833
L82959 76805
L83015 76805
" />
<path d="M83184 77367
L83240 77395
L83352 77395
L83409 77367
L83437 77311
L83437 77283
L83409 77227
L83352 77199
L83268 77199
L83212 77171
L83184 77114
L83184 77086
L83212 77030
L83268 77002
L83352 77002
L83409 77030
" />
<path d="M83943 77002
L83943 77480
L83915 77536
L83887 77564
L83831 77592
L83746 77592
L83690 77564
" />
<path d="M83943 77367
L83887 77395
L83774 77395
L83718 77367
L83690 77339
L83662 77283
L83662 77114
L83690 77058
L83718 77030
L83774 77002
L83887 77002
L83943 77030
" />
<path d="M84534 77395
L84196 77395
" />
<path d="M84365 77395
L84365 76805
L84309 76889
L84252 76946
L84196 76974
" />
<path d="M84787 77171
L85237 77171
" />
<path d="M85771 77002
L85771 77395
" />
<path d="M85630 76777
L85490 77199
L85855 77199
" />
<path d="M69685 75396
L112205 75396
" />
</g>
<g style="fill:#000000; fill-opacity:0.0; 
stroke:#000000; stroke-width:118.11; stroke-opacity:1; 
stroke-linecap:round; stroke-linejoin:round;">
<path d="M104022 76293
L103825 76012
" />
<path d="M103684 76293
L103684 75703
L103909 75703
L103965 75731
L103994 75759
L104022 75815
L104022 75899
L103994 75956
L103965 75984
L103909 76012
L103684 76012
" />
<path d="M104500 76265
L104444 76293
L104331 76293
L104275 76265
L104247 76209
L104247 75984
L104275 75928
L104331 75899
L104444 75899
L104500 75928
L104528 75984
L104528 76040
L104247 76096
" />
<path d="M104725 75899
L104865 76293
L105006 75899
" />
<path d="M105231 76237
L105259 76265
L105231 76293
L105203 76265
L105231 76237
L105231 76293
" />
<path d="M105231 75928
L105259 75956
L105231 75984
L105203 75956
L105231 75928
L105231 75984
" />
<path d="M106271 76293
L105934 76293
" />
<path d="M106103 76293
L106103 75703
L106046 75787
L105990 75843
L105934 75871
" />
<path d="M106553 76293
L106665 76293
L106721 76265
L106750 76237
L106806 76153
L106834 76040
L106834 75815
L106806 75759
L106778 75731
L106721 75703
L106609 75703
L106553 75731
L106525 75759
L106496 75815
L106496 75956
L106525 76012
L106553 76040
L106609 76068
L106721 76068
L106778 76040
L106806 76012
L106834 75956
" />
<path d="M107396 76293
L107059 76293
" />
<path d="M107228 76293
L107228 75703
L107171 75787
L107115 75843
L107059 75871
" />
<path d="M107959 76293
L107621 76293
" />
<path d="M107790 76293
L107790 75703
L107734 75787
L107678 75843
L107621 75871
" />
<path d="M108324 75703
L108381 75703
L108437 75731
L108465 75759
L108493 75815
L108521 75928
L108521 76068
L108493 76181
L108465 76237
L108437 76265
L108381 76293
L108324 76293
L108268 76265
L108240 76237
L108212 76181
L108184 76068
L108184 75928
L108212 75815
L108240 75759
L108268 75731
L108324 75703
" />
<path d="M109084 76293
L108746 76293
" />
<path d="M108915 76293
L108915 75703
L108859 75787
L108802 75843
L108746 75871
" />
</g>
<g style="fill:#000000; fill-opacity:0.0; 
stroke:#000000; stroke-width:59.0551; stroke-opacity:1; 
stroke-linecap:round; stroke-linejoin:round;">
<path d="M70192 76265
L70276 76293
L70417 76293
L70473 76265
L70501 76237
L70529 76181
L70529 76124
L70501 76068
L70473 76040
L70417 76012
L70304 75984
L70248 75956
L70220 75928
L70192 75871
L70192 75815
L70220 75759
L70248 75731
L70304 75703
L70445 75703
L70529 75731
" />
<path d="M70782 76293
L70782 75899
" />
<path d="M70782 75703
L70754 75731
L70782 75759
L70810 75731
L70782 75703
L70782 75759
" />
<path d="M71007 75899
L71316 75899
L71007 76293
L71316 76293
" />
<path d="M71766 76265
L71710 76293
L71598 76293
L71541 76265
L71513 76209
L71513 75984
L71541 75928
L71598 75899
L71710 75899
L71766 75928
L71795 75984
L71795 76040
L71513 76096
" />
<path d="M72048 76237
L72076 76265
L72048 76293
L72019 76265
L72048 76237
L72048 76293
" />
<path d="M72048 75928
L72076 75956
L72048 75984
L72019 75956
L72048 75928
L72048 75984
" />
<path d="M72751 76124
L73032 76124
" />
<path d="M72694 76293
L72891 75703
L73088 76293
" />
<path d="M73538 75899
L73538 76293
" />
<path d="M73397 75674
L73257 76096
L73622 76096
" />
<path d="M103684 77395
L103684 76805
" />
<path d="M104219 77395
L104219 76805
" />
<path d="M104219 77367
L104162 77395
L104050 77395
L103994 77367
L103965 77339
L103937 77283
L103937 77114
L103965 77058
L103994 77030
L104050 77002
L104162 77002
L104219 77030
" />
<path d="M104500 77339
L104528 77367
L104500 77395
L104472 77367
L104500 77339
L104500 77395
" />
<path d="M104500 77030
L104528 77058
L104500 77086
L104472 77058
L104500 77030
L104500 77086
" />
<path d="M105540 77395
L105203 77395
" />
<path d="M105372 77395
L105372 76805
L105315 76889
L105259 76946
L105203 76974
" />
<path d="M106215 76777
L105709 77536
" />
<path d="M106721 77395
L106384 77395
" />
<path d="M106553 77395
L106553 76805
L106496 76889
L106440 76946
L106384 76974
" />
<path d="M69685 73821
L112205 73821
" />
</g>
<g style="fill:#000000; fill-opacity:0.0; 
stroke:#000000; stroke-width:157.48; stroke-opacity:1; 
stroke-linecap:round; stroke-linejoin:round;">
<path d="M70257 74099
L70707 74099
" />
<path d="M70384 74886
L70482 74099
" />
<path d="M70871 74886
L70937 74361
" />
<path d="M70970 74099
L70927 74136
L70960 74174
L71002 74136
L70970 74099
L70960 74174
" />
<path d="M71199 74361
L71499 74361
" />
<path d="M71345 74099
L71260 74774
L71288 74849
L71359 74886
L71434 74886
" />
<path d="M71809 74886
L71738 74849
L71710 74774
L71795 74099
" />
<path d="M72413 74849
L72334 74886
L72184 74886
L72113 74849
L72085 74774
L72123 74474
L72169 74399
L72249 74361
L72399 74361
L72469 74399
L72498 74474
L72488 74549
L72104 74624
" />
<path d="M72793 74811
L72826 74849
L72783 74886
L72751 74849
L72793 74811
L72783 74886
" />
<path d="M72844 74399
L72877 74436
L72835 74474
L72802 74436
L72844 74399
L72835 74474
" />
<path d="M73758 74886
L73857 74099
L74049 74661
L74382 74099
L74283 74886
" />
<path d="M74658 74886
L74757 74099
L74949 74661
L75282 74099
L75183 74886
" />
<path d="M76031 74099
L75657 74099
L75572 74474
L75614 74436
L75694 74399
L75882 74399
L75952 74436
L75985 74474
L76013 74549
L75989 74736
L75942 74811
L75900 74849
L75821 74886
L75633 74886
L75563 74849
L75530 74811
" />
<path d="M76308 74886
L76406 74099
L76594 74099
L76702 74136
L76767 74211
L76795 74286
L76814 74436
L76800 74549
L76744 74699
L76697 74774
L76613 74849
L76495 74886
L76308 74886
" />
<path d="M78037 74849
L77958 74886
L77808 74886
L77738 74849
L77705 74811
L77677 74736
L77705 74511
L77752 74436
L77794 74399
L77873 74361
L78023 74361
L78094 74399
" />
<path d="M78483 74886
L78412 74849
L78380 74811
L78352 74736
L78380 74511
L78427 74436
L78469 74399
L78548 74361
L78661 74361
L78731 74399
L78764 74436
L78792 74511
L78764 74736
L78717 74811
L78675 74849
L78595 74886
L78483 74886
" />
<path d="M79148 74361
L79083 74886
" />
<path d="M79139 74436
L79181 74399
L79261 74361
L79373 74361
L79444 74399
L79472 74474
L79420 74886
" />
<path d="M79748 74361
L80048 74361
" />
<path d="M79894 74099
L79809 74774
L79837 74849
L79908 74886
L79983 74886
" />
<path d="M80245 74886
L80311 74361
" />
<path d="M80292 74511
L80339 74436
L80381 74399
L80461 74361
L80536 74361
" />
<path d="M80845 74886
L80775 74849
L80742 74811
L80714 74736
L80742 74511
L80789 74436
L80831 74399
L80911 74361
L81023 74361
L81093 74399
L81126 74436
L81154 74511
L81126 74736
L81079 74811
L81037 74849
L80957 74886
L80845 74886
" />
<path d="M81557 74886
L81487 74849
L81459 74774
L81543 74099
" />
<path d="M81970 74886
L81900 74849
L81871 74774
L81956 74099
" />
<path d="M82270 74886
L82335 74361
" />
<path d="M82368 74099
L82326 74136
L82359 74174
L82401 74136
L82368 74099
L82359 74174
" />
<path d="M82710 74361
L82645 74886
" />
<path d="M82701 74436
L82743 74399
L82823 74361
L82935 74361
L83006 74399
L83034 74474
L82982 74886
" />
<path d="M83760 74361
L83681 74999
L83634 75074
L83591 75111
L83512 75149
L83399 75149
L83329 75111
" />
<path d="M83699 74849
L83620 74886
L83470 74886
L83399 74849
L83367 74811
L83338 74736
L83367 74511
L83413 74436
L83456 74399
L83535 74361
L83685 74361
L83756 74399
" />
<path d="M85007 74886
L85058 74474
L85030 74399
L84960 74361
L84810 74361
L84730 74399
" />
<path d="M85012 74849
L84932 74886
L84744 74886
L84674 74849
L84646 74774
L84655 74699
L84702 74624
L84782 74586
L84969 74586
L85049 74549
" />
<path d="M85447 74361
L85382 74886
" />
<path d="M85438 74436
L85480 74399
L85560 74361
L85672 74361
L85743 74399
L85771 74474
L85719 74886
" />
<path d="M86432 74886
L86530 74099
" />
<path d="M86436 74849
L86357 74886
L86207 74886
L86136 74849
L86104 74811
L86076 74736
L86104 74511
L86151 74436
L86193 74399
L86272 74361
L86422 74361
L86493 74399
" />
<path d="M87407 74886
L87472 74361
" />
<path d="M87453 74511
L87500 74436
L87543 74399
L87622 74361
L87697 74361
" />
<path d="M88199 74849
L88119 74886
L87969 74886
L87899 74849
L87871 74774
L87908 74474
L87955 74399
L88035 74361
L88185 74361
L88255 74399
L88283 74474
L88274 74549
L87889 74624
" />
<path d="M88569 74886
L88635 74361
" />
<path d="M88625 74436
L88667 74399
L88747 74361
L88860 74361
L88930 74399
L88958 74474
L88906 74886
" />
<path d="M88958 74474
L89005 74399
L89085 74361
L89197 74361
L89267 74399
L89295 74474
L89244 74886
" />
<path d="M89731 74886
L89661 74849
L89628 74811
L89600 74736
L89628 74511
L89675 74436
L89717 74399
L89797 74361
L89909 74361
L89980 74399
L90013 74436
L90041 74511
L90013 74736
L89966 74811
L89924 74849
L89844 74886
L89731 74886
" />
<path d="M90284 74361
L90584 74361
" />
<path d="M90430 74099
L90345 74774
L90373 74849
L90444 74886
L90519 74886
" />
<path d="M91086 74849
L91006 74886
L90856 74886
L90786 74849
L90758 74774
L90795 74474
L90842 74399
L90922 74361
L91072 74361
L91142 74399
L91170 74474
L91161 74549
L90777 74624
" />
<path d="M92056 74886
L92122 74361
" />
<path d="M92112 74436
L92154 74399
L92234 74361
L92347 74361
L92417 74399
L92445 74474
L92394 74886
" />
<path d="M92445 74474
L92492 74399
L92572 74361
L92684 74361
L92754 74399
L92783 74474
L92731 74886
" />
<path d="M93218 74886
L93148 74849
L93115 74811
L93087 74736
L93115 74511
L93162 74436
L93204 74399
L93284 74361
L93397 74361
L93467 74399
L93500 74436
L93528 74511
L93500 74736
L93453 74811
L93411 74849
L93331 74886
L93218 74886
" />
<path d="M93884 74361
L93818 74886
" />
<path d="M93875 74436
L93917 74399
L93996 74361
L94109 74361
L94179 74399
L94207 74474
L94156 74886
" />
<path d="M94531 74886
L94596 74361
" />
<path d="M94629 74099
L94587 74136
L94620 74174
L94662 74136
L94629 74099
L94620 74174
" />
<path d="M94859 74361
L95159 74361
" />
<path d="M95004 74099
L94920 74774
L94948 74849
L95018 74886
L95093 74886
" />
<path d="M95468 74886
L95398 74849
L95365 74811
L95337 74736
L95365 74511
L95412 74436
L95454 74399
L95534 74361
L95646 74361
L95717 74399
L95749 74436
L95777 74511
L95749 74736
L95702 74811
L95660 74849
L95581 74886
L95468 74886
" />
<path d="M96068 74886
L96134 74361
" />
<path d="M96115 74511
L96162 74436
L96204 74399
L96284 74361
L96359 74361
" />
<path d="M96555 74886
L96621 74361
" />
<path d="M96654 74099
L96612 74136
L96645 74174
L96687 74136
L96654 74099
L96645 74174
" />
<path d="M96996 74361
L96930 74886
" />
<path d="M96987 74436
L97029 74399
L97109 74361
L97221 74361
L97291 74399
L97319 74474
L97268 74886
" />
<path d="M98046 74361
L97966 74999
L97919 75074
L97877 75111
L97798 75149
L97685 75149
L97615 75111
" />
<path d="M97985 74849
L97905 74886
L97755 74886
L97685 74849
L97652 74811
L97624 74736
L97652 74511
L97699 74436
L97741 74399
L97821 74361
L97971 74361
L98041 74399
" />
<path d="M99260 74849
L99180 74886
L99030 74886
L98960 74849
L98932 74774
L98969 74474
L99016 74399
L99096 74361
L99246 74361
L99316 74399
L99344 74474
L99335 74549
L98950 74624
" />
<path d="M100033 74361
L99935 75149
" />
<path d="M99972 74849
L99893 74886
L99743 74886
L99672 74849
L99639 74811
L99611 74736
L99639 74511
L99686 74436
L99729 74399
L99808 74361
L99958 74361
L100028 74399
" />
<path d="M100746 74361
L100680 74886
" />
<path d="M100408 74361
L100357 74774
L100385 74849
L100455 74886
L100567 74886
L100647 74849
L100689 74811
" />
<path d="M101055 74886
L101121 74361
" />
<path d="M101153 74099
L101111 74136
L101144 74174
L101186 74136
L101153 74099
L101144 74174
" />
<path d="M101495 74361
L101397 75149
" />
<path d="M101491 74399
L101570 74361
L101720 74361
L101791 74399
L101824 74436
L101852 74511
L101824 74736
L101777 74811
L101735 74849
L101655 74886
L101505 74886
L101435 74849
" />
<path d="M102142 74886
L102208 74361
" />
<path d="M102199 74436
L102241 74399
L102320 74361
L102433 74361
L102503 74399
L102531 74474
L102480 74886
" />
<path d="M102531 74474
L102578 74399
L102658 74361
L102770 74361
L102841 74399
L102869 74474
L102817 74886
" />
<path d="M103497 74849
L103417 74886
L103267 74886
L103197 74849
L103169 74774
L103206 74474
L103253 74399
L103333 74361
L103483 74361
L103553 74399
L103581 74474
L103572 74549
L103187 74624
" />
<path d="M103933 74361
L103867 74886
" />
<path d="M103923 74436
L103965 74399
L104045 74361
L104158 74361
L104228 74399
L104256 74474
L104205 74886
" />
<path d="M104533 74361
L104833 74361
" />
<path d="M104678 74099
L104594 74774
L104622 74849
L104692 74886
L104767 74886
" />
</g>
<g style="fill:#000000; fill-opacity:0.0; 
stroke:#000000; stroke-width:59.0551; stroke-opacity:1; 
stroke-linecap:round; stroke-linejoin:round;">
<path d="M70417 73070
L70220 73070
" />
<path d="M70220 73380
L70220 72789
L70501 72789
" />
<path d="M70726 73380
L70726 72986
" />
<path d="M70726 72789
L70698 72817
L70726 72845
L70754 72817
L70726 72789
L70726 72845
" />
<path d="M71091 73380
L71035 73352
L71007 73295
L71007 72789
" />
<path d="M71541 73352
L71485 73380
L71373 73380
L71316 73352
L71288 73295
L71288 73070
L71316 73014
L71373 72986
L71485 72986
L71541 73014
L71570 73070
L71570 73127
L71288 73183
" />
<path d="M71823 73323
L71851 73352
L71823 73380
L71795 73352
L71823 73323
L71823 73380
" />
<path d="M71823 73014
L71851 73042
L71823 73070
L71795 73042
L71823 73014
L71823 73070
" />
<path d="M72807 72986
L72807 73380
" />
<path d="M72554 72986
L72554 73295
L72582 73352
L72638 73380
L72723 73380
L72779 73352
L72807 73323
" />
<path d="M73341 72986
L73341 73380
" />
<path d="M73201 72761
L73060 73183
L73426 73183
" />
<path d="M73651 73323
L73679 73352
L73651 73380
L73622 73352
L73651 73323
L73651 73380
" />
<path d="M73932 73380
L73932 72789
" />
<path d="M73988 73155
L74157 73380
" />
<path d="M74157 72986
L73932 73211
" />
<path d="M74410 73380
L74410 72986
" />
<path d="M74410 72789
L74382 72817
L74410 72845
L74438 72817
L74410 72789
L74410 72845
" />
<path d="M74944 73352
L74888 73380
L74775 73380
L74719 73352
L74691 73323
L74663 73267
L74663 73099
L74691 73042
L74719 73014
L74775 72986
L74888 72986
L74944 73014
" />
<path d="M75450 73380
L75450 73070
L75422 73014
L75366 72986
L75253 72986
L75197 73014
" />
<path d="M75450 73352
L75394 73380
L75253 73380
L75197 73352
L75169 73295
L75169 73239
L75197 73183
L75253 73155
L75394 73155
L75450 73127
" />
<path d="M75985 73380
L75985 72789
" />
<path d="M75985 73352
L75928 73380
L75816 73380
L75760 73352
L75732 73323
L75703 73267
L75703 73099
L75732 73042
L75760 73014
L75816 72986
L75928 72986
L75985 73014
" />
<path d="M76125 73436
L76575 73436
" />
<path d="M76716 72986
L76716 73577
" />
<path d="M76716 73014
L76772 72986
L76885 72986
L76941 73014
L76969 73042
L76997 73099
L76997 73267
L76969 73323
L76941 73352
L76885 73380
L76772 73380
L76716 73352
" />
<path d="M77503 73352
L77447 73380
L77334 73380
L77278 73352
L77250 73323
L77222 73267
L77222 73099
L77250 73042
L77278 73014
L77334 72986
L77447 72986
L77503 73014
" />
<path d="M77756 73380
L77756 72789
" />
<path d="M77756 73014
L77813 72986
L77925 72986
L77981 73014
L78009 73042
L78037 73099
L78037 73267
L78009 73323
L77981 73352
L77925 73380
L77813 73380
L77756 73352
" />
<path d="M69685 71459
L112205 71459
" />
<path d="M70192 72289
L70276 72317
L70417 72317
L70473 72289
L70501 72260
L70529 72204
L70529 72148
L70501 72092
L70473 72064
L70417 72036
L70304 72007
L70248 71979
L70220 71951
L70192 71895
L70192 71839
L70220 71782
L70248 71754
L70304 71726
L70445 71726
L70529 71754
" />
<path d="M70782 72317
L70782 71726
" />
<path d="M71035 72317
L71035 72007
L71007 71951
L70951 71923
L70867 71923
L70810 71951
L70782 71979
" />
<path d="M71541 72289
L71485 72317
L71373 72317
L71316 72289
L71288 72232
L71288 72007
L71316 71951
L71373 71923
L71485 71923
L71541 71951
L71570 72007
L71570 72064
L71288 72120
" />
<path d="M72048 72289
L71991 72317
L71879 72317
L71823 72289
L71795 72232
L71795 72007
L71823 71951
L71879 71923
L71991 71923
L72048 71951
L72076 72007
L72076 72064
L71795 72120
" />
<path d="M72244 71923
L72469 71923
" />
<path d="M72329 71726
L72329 72232
L72357 72289
L72413 72317
L72469 72317
" />
<path d="M72666 72260
L72694 72289
L72666 72317
L72638 72289
L72666 72260
L72666 72317
" />
<path d="M72666 71951
L72694 71979
L72666 72007
L72638 71979
L72666 71951
L72666 72007
" />
</g>
<g style="fill:#000000; fill-opacity:0.0; 
stroke:#000000; stroke-width:118.11; stroke-opacity:1; 
stroke-linecap:round; stroke-linejoin:round;">
<path d="M70220 71136
L70220 70545
L70445 70545
L70501 70573
L70529 70601
L70557 70658
L70557 70742
L70529 70798
L70501 70826
L70445 70854
L70220 70854
" />
<path d="M70895 71136
L70838 71108
L70810 71079
L70782 71023
L70782 70854
L70810 70798
L70838 70770
L70895 70742
L70979 70742
L71035 70770
L71063 70798
L71091 70854
L71091 71023
L71063 71079
L71035 71108
L70979 71136
L70895 71136
" />
<path d="M71288 70742
L71598 70742
L71288 71136
L71598 71136
" />
<path d="M71795 71108
L71851 71136
L71963 71136
L72019 71108
L72048 71051
L72048 71023
L72019 70967
L71963 70939
L71879 70939
L71823 70911
L71795 70854
L71795 70826
L71823 70770
L71879 70742
L71963 70742
L72019 70770
" />
<path d="M72554 71136
L72554 70826
L72526 70770
L72469 70742
L72357 70742
L72301 70770
" />
<path d="M72554 71108
L72498 71136
L72357 71136
L72301 71108
L72273 71051
L72273 70995
L72301 70939
L72357 70911
L72498 70911
L72554 70883
" />
<path d="M72835 71136
L72835 70742
" />
<path d="M72835 70854
L72863 70798
L72891 70770
L72947 70742
L73004 70742
" />
<path d="M73594 70545
L73988 70545
L73594 71136
L73988 71136
" />
<path d="M74185 71108
L74241 71136
L74354 71136
L74410 71108
L74438 71051
L74438 71023
L74410 70967
L74354 70939
L74269 70939
L74213 70911
L74185 70854
L74185 70826
L74213 70770
L74269 70742
L74354 70742
L74410 70770
" />
<path d="M74775 71136
L74719 71108
L74691 71079
L74663 71023
L74663 70854
L74691 70798
L74719 70770
L74775 70742
L74860 70742
L74916 70770
L74944 70798
L74972 70854
L74972 71023
L74944 71079
L74916 71108
L74860 71136
L74775 71136
" />
<path d="M75310 71136
L75253 71108
L75225 71051
L75225 70545
" />
<path d="M75450 70742
L75675 70742
" />
<path d="M75535 70545
L75535 71051
L75563 71108
L75619 71136
L75675 71136
" />
<path d="M76322 70911
L76772 70911
" />
<path d="M77503 71136
L77503 70545
" />
<path d="M77756 71136
L77756 70826
L77728 70770
L77672 70742
L77588 70742
L77531 70770
L77503 70798
" />
<path d="M77953 70742
L78178 70742
" />
<path d="M78037 70545
L78037 71051
L78066 71108
L78122 71136
L78178 71136
" />
<path d="M78291 70742
L78516 70742
" />
<path d="M78375 70545
L78375 71051
L78403 71108
L78459 71136
L78516 71136
" />
<path d="M78712 70742
L78712 71332
" />
<path d="M78712 70770
L78769 70742
L78881 70742
L78937 70770
L78965 70798
L78994 70854
L78994 71023
L78965 71079
L78937 71108
L78881 71136
L78769 71136
L78712 71108
" />
<path d="M79247 71079
L79275 71108
L79247 71136
L79219 71108
L79247 71079
L79247 71136
" />
<path d="M79247 70770
L79275 70798
L79247 70826
L79219 70798
L79247 70770
L79247 70826
" />
<path d="M79950 70517
L79444 71276
" />
<path d="M80568 70517
L80062 71276
" />
<path d="M80709 70742
L80822 71136
L80934 70854
L81046 71136
L81159 70742
" />
<path d="M81328 70742
L81440 71136
L81553 70854
L81665 71136
L81778 70742
" />
<path d="M81946 70742
L82059 71136
L82171 70854
L82284 71136
L82396 70742
" />
<path d="M82621 71079
L82649 71108
L82621 71136
L82593 71108
L82621 71079
L82621 71136
" />
<path d="M82874 71108
L82931 71136
L83043 71136
L83099 71108
L83127 71051
L83127 71023
L83099 70967
L83043 70939
L82959 70939
L82903 70911
L82874 70854
L82874 70826
L82903 70770
L82959 70742
L83043 70742
L83099 70770
" />
<path d="M83324 70742
L83634 70742
L83324 71136
L83634 71136
" />
<path d="M84084 71108
L84027 71136
L83915 71136
L83859 71108
L83831 71051
L83831 70826
L83859 70770
L83915 70742
L84027 70742
L84084 70770
L84112 70826
L84112 70883
L83831 70939
" />
<path d="M84365 71136
L84365 70742
" />
<path d="M84365 70854
L84393 70798
L84421 70770
L84477 70742
L84534 70742
" />
<path d="M84983 71136
L84983 70826
L84955 70770
L84899 70742
L84787 70742
L84730 70770
" />
<path d="M84983 71108
L84927 71136
L84787 71136
L84730 71108
L84702 71051
L84702 70995
L84730 70939
L84787 70911
L84927 70911
L84983 70883
" />
<path d="M85180 70742
L85405 70742
" />
<path d="M85265 71136
L85265 70629
L85293 70573
L85349 70545
L85405 70545
" />
<path d="M85602 71136
L85602 70742
" />
<path d="M85602 70545
L85574 70573
L85602 70601
L85630 70573
L85602 70545
L85602 70601
" />
<path d="M85883 70742
L85883 71136
" />
<path d="M85883 70798
L85912 70770
L85968 70742
L86052 70742
L86108 70770
L86136 70826
L86136 71136
" />
<path d="M86671 70742
L86671 71220
L86643 71276
L86615 71304
L86558 71332
L86474 71332
L86418 71304
" />
<path d="M86671 71108
L86615 71136
L86502 71136
L86446 71108
L86418 71079
L86390 71023
L86390 70854
L86418 70798
L86446 70770
L86502 70742
L86615 70742
L86671 70770
" />
<path d="M87036 71136
L86980 71108
L86952 71079
L86924 71023
L86924 70854
L86952 70798
L86980 70770
L87036 70742
L87121 70742
L87177 70770
L87205 70798
L87233 70854
L87233 71023
L87205 71079
L87177 71108
L87121 71136
L87036 71136
" />
<path d="M87486 71136
L87486 70742
" />
<path d="M87486 70798
L87514 70770
L87571 70742
L87655 70742
L87711 70770
L87739 70826
L87739 71136
" />
<path d="M87739 70826
L87768 70770
L87824 70742
L87908 70742
L87964 70770
L87992 70826
L87992 71136
" />
<path d="M88274 71136
L88274 70545
" />
<path d="M88274 70770
L88330 70742
L88442 70742
L88499 70770
L88527 70798
L88555 70854
L88555 71023
L88527 71079
L88499 71108
L88442 71136
L88330 71136
L88274 71108
" />
<path d="M89061 71136
L89061 70826
L89033 70770
L88977 70742
L88864 70742
L88808 70770
" />
<path d="M89061 71108
L89005 71136
L88864 71136
L88808 71108
L88780 71051
L88780 70995
L88808 70939
L88864 70911
L89005 70911
L89061 70883
" />
<path d="M89342 71079
L89370 71108
L89342 71136
L89314 71108
L89342 71079
L89342 71136
" />
<path d="M89624 71136
L89624 70545
" />
<path d="M89877 71136
L89877 70826
L89849 70770
L89792 70742
L89708 70742
L89652 70770
L89624 70798
" />
<path d="M90411 70742
L90411 71136
" />
<path d="M90158 70742
L90158 71051
L90186 71108
L90242 71136
L90327 71136
L90383 71108
L90411 71079
" />
</g>
<g style="fill:#000000; fill-opacity:0.0; 
stroke:#000000; stroke-width:59.0551; stroke-opacity:1; 
stroke-linecap:round; stroke-linejoin:round;">
<path d="M70220 69364
L70220 69842
L70248 69898
L70276 69926
L70332 69955
L70445 69955
L70501 69926
L70529 69898
L70557 69842
L70557 69364
" />
<path d="M70838 69561
L70838 69955
" />
<path d="M70838 69617
L70867 69589
L70923 69561
L71007 69561
L71063 69589
L71091 69645
L71091 69955
" />
<path d="M71373 69955
L71373 69561
" />
<path d="M71373 69364
L71345 69392
L71373 69420
L71401 69392
L71373 69364
L71373 69420
" />
<path d="M71570 69561
L71795 69561
" />
<path d="M71654 69364
L71654 69870
L71682 69926
L71738 69955
L71795 69955
" />
<path d="M72441 69364
L72441 69842
L72469 69898
L72498 69926
L72554 69955
L72666 69955
L72723 69926
L72751 69898
L72779 69842
L72779 69364
" />
<path d="M73313 69561
L73313 69955
" />
<path d="M73172 69336
L73032 69758
L73397 69758
" />
<path d="M70501 68773
L70220 68773
L70220 68183
" />
<path d="M70698 68464
L70895 68464
" />
<path d="M70979 68773
L70698 68773
L70698 68183
L70979 68183
" />
<path d="M71232 68773
L71232 68183
L71373 68183
L71457 68211
L71513 68267
L71541 68323
L71570 68436
L71570 68520
L71541 68633
L71513 68689
L71457 68745
L71373 68773
L71232 68773
" />
<path d="M71795 68745
L71851 68773
L71963 68773
L72019 68745
L72048 68689
L72048 68661
L72019 68605
L71963 68577
L71879 68577
L71823 68548
L71795 68492
L71795 68464
L71823 68408
L71879 68380
L71963 68380
L72019 68408
" />
<path d="M70220 66411
L70220 65821
L70360 65821
L70445 65849
L70501 65905
L70529 65961
L70557 66074
L70557 66158
L70529 66271
L70501 66327
L70445 66383
L70360 66411
L70220 66411
" />
<path d="M70810 66411
L70810 66018
" />
<path d="M70810 66130
L70838 66074
L70867 66046
L70923 66018
L70979 66018
" />
<path d="M71429 66411
L71429 66102
L71401 66046
L71345 66018
L71232 66018
L71176 66046
" />
<path d="M71429 66383
L71373 66411
L71232 66411
L71176 66383
L71148 66327
L71148 66271
L71176 66214
L71232 66186
L71373 66186
L71429 66158
" />
<path d="M71654 66018
L71766 66411
L71879 66130
L71991 66411
L72104 66018
" />
<path d="M72779 66018
L72779 66411
" />
<path d="M72779 66074
L72807 66046
L72863 66018
L72947 66018
L73004 66046
L73032 66102
L73032 66411
" />
<path d="M73397 66411
L73341 66383
L73313 66355
L73285 66299
L73285 66130
L73313 66074
L73341 66046
L73397 66018
L73482 66018
L73538 66046
L73566 66074
L73594 66130
L73594 66299
L73566 66355
L73538 66383
L73482 66411
L73397 66411
" />
<path d="M73847 66355
L73876 66383
L73847 66411
L73819 66383
L73847 66355
L73847 66411
" />
<path d="M74129 66355
L74157 66383
L74129 66411
L74100 66383
L74129 66355
L74129 66411
" />
<path d="M74129 66046
L74157 66074
L74129 66102
L74100 66074
L74129 66046
L74129 66102
" />
<path d="M75141 65821
L74860 65821
L74832 66102
L74860 66074
L74916 66046
L75057 66046
L75113 66074
L75141 66102
L75169 66158
L75169 66299
L75141 66355
L75113 66383
L75057 66411
L74916 66411
L74860 66383
L74832 66355
" />
<path d="M75450 66411
L75563 66411
L75619 66383
L75647 66355
L75703 66271
L75732 66158
L75732 65933
L75703 65877
L75675 65849
L75619 65821
L75507 65821
L75450 65849
L75422 65877
L75394 65933
L75394 66074
L75422 66130
L75450 66158
L75507 66186
L75619 66186
L75675 66158
L75703 66130
L75732 66074
" />
<path d="M76406 65793
L75900 66552
" />
<path d="M76885 65821
L76603 65821
L76575 66102
L76603 66074
L76660 66046
L76800 66046
L76856 66074
L76885 66102
L76913 66158
L76913 66299
L76885 66355
L76856 66383
L76800 66411
L76660 66411
L76603 66383
L76575 66355
" />
<path d="M77588 65793
L77081 66552
" />
<path d="M77728 65821
L78122 65821
L77869 66411
" />
<path d="M77559 75396
L77559 76577
" />
<path d="M102756 75396
L102756 77955
" />
<path d="M40500 45500
L40500 45000
" />
<path d="M75000 45500
L40500 45500
" />
<path d="M75000 45000
L75000 45500
" />
<path d="M59178 44412
L59178 44599
L58784 44599
" />
<path d="M58971 44281
L58971 44149
" />
<path d="M59178 44093
L59178 44281
L58784 44281
L58784 44093
" />
<path d="M59178 43924
L58784 43924
L58784 43831
L58803 43774
L58840 43737
L58878 43718
L58953 43699
L59009 43699
L59084 43718
L59121 43737
L59159 43774
L59178 43831
L59178 43924
" />
<path d="M59178 43512
L59178 43437
L59159 43399
L59140 43381
L59084 43343
L59009 43324
L58859 43324
L58821 43343
L58803 43362
L58784 43399
L58784 43474
L58803 43512
L58821 43531
L58859 43549
L58953 43549
L58990 43531
L59009 43512
L59028 43474
L59028 43399
L59009 43362
L58990 43343
L58953 43324
" />
<path d="M58178 44412
L58178 44599
L57784 44599
" />
<path d="M57971 44281
L57971 44149
" />
<path d="M58178 44093
L58178 44281
L57784 44281
L57784 44093
" />
<path d="M58178 43924
L57784 43924
L57784 43831
L57803 43774
L57840 43737
L57878 43718
L57953 43699
L58009 43699
L58084 43718
L58121 43737
L58159 43774
L58178 43831
L58178 43924
" />
<path d="M57953 43474
L57934 43512
L57915 43531
L57878 43549
L57859 43549
L57821 43531
L57803 43512
L57784 43474
L57784 43399
L57803 43362
L57821 43343
L57859 43324
L57878 43324
L57915 43343
L57934 43362
L57953 43399
L57953 43474
L57971 43512
L57990 43531
L58028 43549
L58103 43549
L58140 43531
L58159 43512
L58178 43474
L58178 43399
L58159 43362
L58140 43343
L58103 43324
L58028 43324
L57990 43343
L57971 43362
L57953 43399
" />
<path d="M57178 44412
L57178 44599
L56784 44599
" />
<path d="M56971 44281
L56971 44149
" />
<path d="M57178 44093
L57178 44281
L56784 44281
L56784 44093
" />
<path d="M57178 43924
L56784 43924
L56784 43831
L56803 43774
L56840 43737
L56878 43718
L56953 43699
L57009 43699
L57084 43718
L57121 43737
L57159 43774
L57178 43831
L57178 43924
" />
<path d="M56784 43568
L56784 43306
L57178 43474
" />
<path d="M56178 44412
L56178 44599
L55784 44599
" />
<path d="M55971 44281
L55971 44149
" />
<path d="M56178 44093
L56178 44281
L55784 44281
L55784 44093
" />
<path d="M56178 43924
L55784 43924
L55784 43831
L55803 43774
L55840 43737
L55878 43718
L55953 43699
L56009 43699
L56084 43718
L56121 43737
L56159 43774
L56178 43831
L56178 43924
" />
<path d="M55784 43362
L55784 43437
L55803 43474
L55821 43493
L55878 43531
L55953 43549
L56103 43549
L56140 43531
L56159 43512
L56178 43474
L56178 43399
L56159 43362
L56140 43343
L56103 43324
L56009 43324
L55971 43343
L55953 43362
L55934 43399
L55934 43474
L55953 43512
L55971 43531
L56009 43549
" />
<path d="M55178 44412
L55178 44599
L54784 44599
" />
<path d="M54971 44281
L54971 44149
" />
<path d="M55178 44093
L55178 44281
L54784 44281
L54784 44093
" />
<path d="M55178 43924
L54784 43924
L54784 43831
L54803 43774
L54840 43737
L54878 43718
L54953 43699
L55009 43699
L55084 43718
L55121 43737
L55159 43774
L55178 43831
L55178 43924
" />
<path d="M54784 43343
L54784 43531
L54971 43549
L54953 43531
L54934 43493
L54934 43399
L54953 43362
L54971 43343
L55009 43324
L55103 43324
L55140 43343
L55159 43362
L55178 43399
L55178 43493
L55159 43531
L55140 43549
" />
<path d="M54178 44412
L54178 44599
L53784 44599
" />
<path d="M53971 44281
L53971 44149
" />
<path d="M54178 44093
L54178 44281
L53784 44281
L53784 44093
" />
<path d="M54178 43924
L53784 43924
L53784 43831
L53803 43774
L53840 43737
L53878 43718
L53953 43699
L54009 43699
L54084 43718
L54121 43737
L54159 43774
L54178 43831
L54178 43924
" />
<path d="M53915 43362
L54178 43362
" />
<path d="M53765 43456
L54046 43549
L54046 43306
" />
<path d="M53178 44412
L53178 44599
L52784 44599
" />
<path d="M52971 44281
L52971 44149
" />
<path d="M53178 44093
L53178 44281
L52784 44281
L52784 44093
" />
<path d="M53178 43924
L52784 43924
L52784 43831
L52803 43774
L52840 43737
L52878 43718
L52953 43699
L53009 43699
L53084 43718
L53121 43737
L53159 43774
L53178 43831
L53178 43924
" />
<path d="M52784 43568
L52784 43324
L52934 43456
L52934 43399
L52953 43362
L52971 43343
L53009 43324
L53103 43324
L53140 43343
L53159 43362
L53178 43399
L53178 43512
L53159 43549
L53140 43568
" />
<path d="M52178 44412
L52178 44599
L51784 44599
" />
<path d="M51971 44281
L51971 44149
" />
<path d="M52178 44093
L52178 44281
L51784 44281
L51784 44093
" />
<path d="M52178 43924
L51784 43924
L51784 43831
L51803 43774
L51840 43737
L51878 43718
L51953 43699
L52009 43699
L52084 43718
L52121 43737
L52159 43774
L52178 43831
L52178 43924
" />
<path d="M51821 43549
L51803 43531
L51784 43493
L51784 43399
L51803 43362
L51821 43343
L51859 43324
L51896 43324
L51953 43343
L52178 43568
L52178 43324
" />
<path d="M51178 44412
L51178 44599
L50784 44599
" />
<path d="M50971 44281
L50971 44149
" />
<path d="M51178 44093
L51178 44281
L50784 44281
L50784 44093
" />
<path d="M51178 43924
L50784 43924
L50784 43831
L50803 43774
L50840 43737
L50878 43718
L50953 43699
L51009 43699
L51084 43718
L51121 43737
L51159 43774
L51178 43831
L51178 43924
" />
<path d="M51178 43324
L51178 43549
" />
<path d="M51178 43437
L50784 43437
L50840 43474
L50878 43512
L50896 43549
" />
<path d="M60178 44787
L60178 44974
L59784 44974
" />
<path d="M59971 44656
L59971 44524
" />
<path d="M60178 44468
L60178 44656
L59784 44656
L59784 44468
" />
<path d="M60178 44299
L59784 44299
L59784 44206
L59803 44149
L59840 44112
L59878 44093
L59953 44074
L60009 44074
L60084 44093
L60121 44112
L60159 44149
L60178 44206
L60178 44299
" />
<path d="M60178 43699
L60178 43924
" />
<path d="M60178 43812
L59784 43812
L59840 43849
L59878 43887
L59896 43924
" />
<path d="M59784 43456
L59784 43418
L59803 43381
L59821 43362
L59859 43343
L59934 43324
L60028 43324
L60103 43343
L60140 43362
L60159 43381
L60178 43418
L60178 43456
L60159 43493
L60140 43512
L60103 43531
L60028 43549
L59934 43549
L59859 43531
L59821 43512
L59803 43493
L59784 43456
" />
<path d="M61178 44787
L61178 44974
L60784 44974
" />
<path d="M60971 44656
L60971 44524
" />
<path d="M61178 44468
L61178 44656
L60784 44656
L60784 44468
" />
<path d="M61178 44299
L60784 44299
L60784 44206
L60803 44149
L60840 44112
L60878 44093
L60953 44074
L61009 44074
L61084 44093
L61121 44112
L61159 44149
L61178 44206
L61178 44299
" />
<path d="M61178 43699
L61178 43924
" />
<path d="M61178 43812
L60784 43812
L60840 43849
L60878 43887
L60896 43924
" />
<path d="M61178 43324
L61178 43549
" />
<path d="M61178 43437
L60784 43437
L60840 43474
L60878 43512
L60896 43549
" />
<path d="M62178 44787
L62178 44974
L61784 44974
" />
<path d="M61971 44656
L61971 44524
" />
<path d="M62178 44468
L62178 44656
L61784 44656
L61784 44468
" />
<path d="M62178 44299
L61784 44299
L61784 44206
L61803 44149
L61840 44112
L61878 44093
L61953 44074
L62009 44074
L62084 44093
L62121 44112
L62159 44149
L62178 44206
L62178 44299
" />
<path d="M62178 43699
L62178 43924
" />
<path d="M62178 43812
L61784 43812
L61840 43849
L61878 43887
L61896 43924
" />
<path d="M61821 43549
L61803 43531
L61784 43493
L61784 43399
L61803 43362
L61821 43343
L61859 43324
L61896 43324
L61953 43343
L62178 43568
L62178 43324
" />
<path d="M64159 43999
L64178 43943
L64178 43849
L64159 43812
L64140 43793
L64103 43774
L64065 43774
L64028 43793
L64009 43812
L63990 43849
L63971 43924
L63953 43962
L63934 43981
L63896 43999
L63859 43999
L63821 43981
L63803 43962
L63784 43924
L63784 43831
L63803 43774
" />
<path d="M63784 43643
L64178 43549
L63896 43474
L64178 43399
L63784 43306
" />
</g>
<g style="fill:#000000; fill-opacity:0.0; 
stroke:#000000; stroke-width:118.11; stroke-opacity:1; 
stroke-linecap:round; stroke-linejoin:round;">
<path d="M53478 41284
L53478 40103
L53872 40946
L54266 40103
L54266 41284
" />
<path d="M54828 41284
L54828 40103
L55222 40946
L55615 40103
L55615 41284
" />
<path d="M56740 40103
L56178 40103
L56122 40665
L56178 40609
L56290 40553
L56571 40553
L56684 40609
L56740 40665
L56796 40778
L56796 41059
L56740 41171
L56684 41228
L56571 41284
L56290 41284
L56178 41228
L56122 41171
" />
<path d="M57303 41284
L57303 40103
L57584 40103
L57753 40159
L57865 40271
L57921 40384
L57978 40609
L57978 40778
L57921 41003
L57865 41115
L57753 41228
L57584 41284
L57303 41284
" />
<path d="M59327 40046
L58315 41565
" />
<path d="M59721 40103
L59721 41059
L59777 41171
L59834 41228
L59946 41284
L60171 41284
L60284 41228
L60340 41171
L60396 41059
L60396 40103
" />
<path d="M61521 40103
L60958 40103
L60902 40665
L60958 40609
L61071 40553
L61352 40553
L61465 40609
L61521 40665
L61577 40778
L61577 41059
L61521 41171
L61465 41228
L61352 41284
L61071 41284
L60958 41228
L60902 41171
" />
</g>
<g style="fill:#000000; fill-opacity:0.0; 
stroke:#000000; stroke-width:59.0551; stroke-opacity:1; 
stroke-linecap:round; stroke-linejoin:round;">
<path d="M63178 44787
L63178 44974
L62784 44974
" />
<path d="M62971 44656
L62971 44524
" />
<path d="M63178 44468
L63178 44656
L62784 44656
L62784 44468
" />
<path d="M63178 44299
L62784 44299
L62784 44206
L62803 44149
L62840 44112
L62878 44093
L62953 44074
L63009 44074
L63084 44093
L63121 44112
L63159 44149
L63178 44206
L63178 44299
" />
<path d="M63178 43699
L63178 43924
" />
<path d="M63178 43812
L62784 43812
L62840 43849
L62878 43887
L62896 43924
" />
<path d="M62784 43568
L62784 43324
L62934 43456
L62934 43399
L62953 43362
L62971 43343
L63009 43324
L63103 43324
L63140 43343
L63159 43362
L63178 43399
L63178 43512
L63159 43549
L63140 43568
" />
<path d="M64784 44712
L65178 44581
L64784 44449
" />
<path d="M65140 44093
L65159 44112
L65178 44168
L65178 44206
L65159 44262
L65121 44299
L65084 44318
L65009 44337
L64953 44337
L64878 44318
L64840 44299
L64803 44262
L64784 44206
L64784 44168
L64803 44112
L64821 44093
" />
<path d="M65140 43699
L65159 43718
L65178 43774
L65178 43812
L65159 43868
L65121 43906
L65084 43924
L65009 43943
L64953 43943
L64878 43924
L64840 43906
L64803 43868
L64784 43812
L64784 43774
L64803 43718
L64821 43699
" />
<path d="M64784 43568
L64784 43324
L64934 43456
L64934 43399
L64953 43362
L64971 43343
L65009 43324
L65103 43324
L65140 43343
L65159 43362
L65178 43399
L65178 43512
L65159 43549
L65140 43568
" />
<path d="M75000 45000
L75000 44500
" />
<path d="M40500 29500
L40500 45000
" />
<path d="M75000 29500
L40500 29500
" />
<path d="M75000 44500
L75000 29500
" />
</g>
<g style="fill:#000000; fill-opacity:0.0; 
stroke:#000000; stroke-width:78.7402; stroke-opacity:1; 
stroke-linecap:round; stroke-linejoin:round;">
<path d="M70000 35000
L70000 39000
" />
</g>
<g style="fill:#000000; fill-opacity:0.0; 
stroke:#000000; stroke-width:59.0551; stroke-opacity:1; 
stroke-linecap:round; stroke-linejoin:round;">
<path d="M65803 44149
L65784 44187
L65784 44243
L65803 44299
L65840 44337
L65878 44356
L65953 44374
L66009 44374
L66084 44356
L66121 44337
L66159 44299
L66178 44243
L66178 44206
L66159 44149
L66140 44131
L66009 44131
L66009 44206
" />
<path d="M66178 43962
L65784 43962
L66178 43737
L65784 43737
" />
<path d="M66178 43549
L65784 43549
L65784 43456
L65803 43399
L65840 43362
L65878 43343
L65953 43324
L66009 43324
L66084 43343
L66121 43362
L66159 43399
L66178 43456
L66178 43549
" />
<path d="M59000 39000
L59000 38600
" />
<path d="M59000 38600
L58600 38600
" />
<path d="M58600 38600
L58600 35400
" />
<path d="M58600 35400
L59400 35400
" />
<path d="M59400 35400
L59400 38600
" />
<path d="M59400 38600
L59000 38600
" />
<path d="M58800 38600
L58600 38400
" />
<path d="M59000 35000
L59000 35400
" />
<path d="M59000 33610
L58389 33610
" />
<path d="M58389 33000
L58389 33610
" />
<path d="M59500 33500
L59500 32500
" />
<path d="M58500 31500
L58500 32500
" />
<path d="M58500 32500
L59500 32500
" />
<path d="M59500 32500
L59500 31500
" />
<path d="M59500 31500
L58500 31500
" />
<path d="M60500 33610
L59889 33610
" />
<path d="M59889 33000
L59889 33610
" />
<path d="M61000 33500
L61000 32500
" />
<path d="M60000 31500
L60000 32500
" />
<path d="M60000 32500
L61000 32500
" />
<path d="M61000 32500
L61000 31500
" />
<path d="M61000 31500
L60000 31500
" />
<path d="M60500 39000
L60500 38600
" />
<path d="M60500 38600
L60100 38600
" />
<path d="M60100 38600
L60100 35400
" />
<path d="M60100 35400
L60900 35400
" />
<path d="M60900 35400
L60900 38600
" />
<path d="M60900 38600
L60500 38600
" />
<path d="M60300 38600
L60100 38400
" />
<path d="M60500 35000
L60500 35400
" />
<path d="M63500 39000
L63500 38600
" />
<path d="M63500 38600
L63100 38600
" />
<path d="M63100 38600
L63100 35400
" />
<path d="M63100 35400
L63900 35400
" />
<path d="M63900 35400
L63900 38600
" />
<path d="M63900 38600
L63500 38600
" />
<path d="M63300 38600
L63100 38400
" />
<path d="M63500 35000
L63500 35400
" />
<path d="M63500 33610
L62889 33610
" />
<path d="M62889 33000
L62889 33610
" />
<path d="M64000 33500
L64000 32500
" />
<path d="M63000 31500
L63000 32500
" />
<path d="M63000 32500
L64000 32500
" />
<path d="M64000 32500
L64000 31500
" />
<path d="M64000 31500
L63000 31500
" />
<path d="M62000 33610
L61389 33610
" />
<path d="M61389 33000
L61389 33610
" />
<path d="M62500 33500
L62500 32500
" />
<path d="M61500 31500
L61500 32500
" />
<path d="M61500 32500
L62500 32500
" />
<path d="M62500 32500
L62500 31500
" />
<path d="M62500 31500
L61500 31500
" />
<path d="M62000 39000
L62000 38600
" />
<path d="M62000 38600
L61600 38600
" />
<path d="M61600 38600
L61600 35400
" />
<path d="M61600 35400
L62400 35400
" />
<path d="M62400 35400
L62400 38600
" />
<path d="M62400 38600
L62000 38600
" />
<path d="M61800 38600
L61600 38400
" />
<path d="M62000 35000
L62000 35400
" />
<path d="M68000 39000
L68000 38600
" />
<path d="M68000 38600
L67600 38600
" />
<path d="M67600 38600
L67600 35400
" />
<path d="M67600 35400
L68400 35400
" />
<path d="M68400 35400
L68400 38600
" />
<path d="M68400 38600
L68000 38600
" />
<path d="M67800 38600
L67600 38400
" />
<path d="M68000 35000
L68000 35400
" />
<path d="M68000 33610
L67389 33610
" />
<path d="M67389 33000
L67389 33610
" />
<path d="M68500 33500
L68500 32500
" />
<path d="M67500 31500
L67500 32500
" />
<path d="M67500 32500
L68500 32500
" />
<path d="M68500 32500
L68500 31500
" />
<path d="M68500 31500
L67500 31500
" />
<path d="M66500 39000
L66500 38600
" />
<path d="M66500 38600
L66100 38600
" />
<path d="M66100 38600
L66100 35400
" />
<path d="M66100 35400
L66900 35400
" />
<path d="M66900 35400
L66900 38600
" />
<path d="M66900 38600
L66500 38600
" />
<path d="M66300 38600
L66100 38400
" />
<path d="M66500 35000
L66500 35400
" />
<path d="M66500 31389
L67110 31389
" />
<path d="M67110 32000
L67110 31389
" />
<path d="M66000 31500
L66000 32500
" />
<path d="M67000 33500
L67000 32500
" />
<path d="M67000 32500
L66000 32500
" />
<path d="M66000 32500
L66000 33500
" />
<path d="M66000 33500
L67000 33500
" />
<path d="M65000 33610
L64389 33610
" />
<path d="M64389 33000
L64389 33610
" />
<path d="M65500 33500
L65500 32500
" />
<path d="M64500 31500
L64500 32500
" />
<path d="M64500 32500
L65500 32500
" />
<path d="M65500 32500
L65500 31500
" />
<path d="M65500 31500
L64500 31500
" />
<path d="M65000 39000
L65000 38600
" />
<path d="M65000 38600
L64600 38600
" />
<path d="M64600 38600
L64600 35400
" />
<path d="M64600 35400
L65400 35400
" />
<path d="M65400 35400
L65400 38600
" />
<path d="M65400 38600
L65000 38600
" />
<path d="M64800 38600
L64600 38400
" />
<path d="M65000 35000
L65000 35400
" />
<path d="M53000 39000
L53000 38600
" />
<path d="M53000 38600
L52600 38600
" />
<path d="M52600 38600
L52600 35400
" />
<path d="M52600 35400
L53400 35400
" />
<path d="M53400 35400
L53400 38600
" />
<path d="M53400 38600
L53000 38600
" />
<path d="M52800 38600
L52600 38400
" />
<path d="M53000 35000
L53000 35400
" />
<path d="M53000 33610
L52389 33610
" />
<path d="M52389 33000
L52389 33610
" />
<path d="M53500 33500
L53500 32500
" />
<path d="M52500 31500
L52500 32500
" />
<path d="M52500 32500
L53500 32500
" />
<path d="M53500 32500
L53500 31500
" />
<path d="M53500 31500
L52500 31500
" />
<path d="M54500 33610
L53889 33610
" />
<path d="M53889 33000
L53889 33610
" />
<path d="M55000 33500
L55000 32500
" />
<path d="M54000 31500
L54000 32500
" />
<path d="M54000 32500
L55000 32500
" />
<path d="M55000 32500
L55000 31500
" />
<path d="M55000 31500
L54000 31500
" />
<path d="M54500 39000
L54500 38600
" />
<path d="M54500 38600
L54100 38600
" />
<path d="M54100 38600
L54100 35400
" />
<path d="M54100 35400
L54900 35400
" />
<path d="M54900 35400
L54900 38600
" />
<path d="M54900 38600
L54500 38600
" />
<path d="M54300 38600
L54100 38400
" />
<path d="M54500 35000
L54500 35400
" />
<path d="M57500 39000
L57500 38600
" />
<path d="M57500 38600
L57100 38600
" />
<path d="M57100 38600
L57100 35400
" />
<path d="M57100 35400
L57900 35400
" />
<path d="M57900 35400
L57900 38600
" />
<path d="M57900 38600
L57500 38600
" />
<path d="M57300 38600
L57100 38400
" />
<path d="M57500 35000
L57500 35400
" />
<path d="M57500 33610
L56889 33610
" />
<path d="M56889 33000
L56889 33610
" />
<path d="M58000 33500
L58000 32500
" />
<path d="M57000 31500
L57000 32500
" />
<path d="M57000 32500
L58000 32500
" />
<path d="M58000 32500
L58000 31500
" />
<path d="M58000 31500
L57000 31500
" />
<path d="M56000 33610
L55389 33610
" />
<path d="M55389 33000
L55389 33610
" />
<path d="M56500 33500
L56500 32500
" />
<path d="M55500 31500
L55500 32500
" />
<path d="M55500 32500
L56500 32500
" />
<path d="M56500 32500
L56500 31500
" />
<path d="M56500 31500
L55500 31500
" />
<path d="M56000 39000
L56000 38600
" />
<path d="M56000 38600
L55600 38600
" />
<path d="M55600 38600
L55600 35400
" />
<path d="M55600 35400
L56400 35400
" />
<path d="M56400 35400
L56400 38600
" />
<path d="M56400 38600
L56000 38600
" />
<path d="M55800 38600
L55600 38400
" />
<path d="M56000 35000
L56000 35400
" />
<path d="M50000 39000
L50000 38600
" />
<path d="M50000 38600
L49600 38600
" />
<path d="M49600 38600
L49600 35400
" />
<path d="M49600 35400
L50400 35400
" />
<path d="M50400 35400
L50400 38600
" />
<path d="M50400 38600
L50000 38600
" />
<path d="M49800 38600
L49600 38400
" />
<path d="M50000 35000
L50000 35400
" />
<path d="M50000 33610
L49389 33610
" />
<path d="M49389 33000
L49389 33610
" />
<path d="M50500 33500
L50500 32500
" />
<path d="M49500 31500
L49500 32500
" />
<path d="M49500 32500
L50500 32500
" />
<path d="M50500 32500
L50500 31500
" />
<path d="M50500 31500
L49500 31500
" />
<path d="M51500 33610
L50889 33610
" />
<path d="M50889 33000
L50889 33610
" />
<path d="M52000 33500
L52000 32500
" />
<path d="M51000 31500
L51000 32500
" />
<path d="M51000 32500
L52000 32500
" />
<path d="M52000 32500
L52000 31500
" />
<path d="M52000 31500
L51000 31500
" />
<path d="M51500 39000
L51500 38600
" />
<path d="M51500 38600
L51100 38600
" />
<path d="M51100 38600
L51100 35400
" />
<path d="M51100 35400
L51900 35400
" />
<path d="M51900 35400
L51900 38600
" />
<path d="M51900 38600
L51500 38600
" />
<path d="M51300 38600
L51100 38400
" />
<path d="M51500 35000
L51500 35400
" />
<path d="M48500 39000
L48500 38600
" />
<path d="M48500 38600
L48100 38600
" />
<path d="M48100 38600
L48100 35400
" />
<path d="M48100 35400
L48900 35400
" />
<path d="M48900 35400
L48900 38600
" />
<path d="M48900 38600
L48500 38600
" />
<path d="M48300 38600
L48100 38400
" />
<path d="M48500 35000
L48500 35400
" />
<path d="M48500 33610
L47889 33610
" />
<path d="M47889 33000
L47889 33610
" />
<path d="M49000 33500
L49000 32500
" />
<path d="M48000 31500
L48000 32500
" />
<path d="M48000 32500
L49000 32500
" />
<path d="M49000 32500
L49000 31500
" />
<path d="M49000 31500
L48000 31500
" />
<path d="M47000 33610
L46389 33610
" />
<path d="M46389 33000
L46389 33610
" />
<path d="M47500 33500
L47500 32500
" />
<path d="M46500 31500
L46500 32500
" />
<path d="M46500 32500
L47500 32500
" />
<path d="M47500 32500
L47500 31500
" />
<path d="M47500 31500
L46500 31500
" />
<path d="M47000 39000
L47000 38600
" />
<path d="M47000 38600
L46600 38600
" />
<path d="M46600 38600
L46600 35400
" />
<path d="M46600 35400
L47400 35400
" />
<path d="M47400 35400
L47400 38600
" />
<path d="M47400 38600
L47000 38600
" />
<path d="M46800 38600
L46600 38400
" />
<path d="M47000 35000
L47000 35400
" />
<path d="M51500 43000
L66500 43000
" />
<path d="M66500 43000
L66500 42000
" />
<path d="M66500 42000
L51500 42000
" />
<path d="M50389 41889
L51000 41889
" />
<path d="M51500 42000
L51500 43000
" />
<path d="M51000 43110
L50389 43110
" />
<path d="M50389 43110
L50389 41889
" />
<path d="M59178 37440
L58990 37571
" />
<path d="M59178 37665
L58784 37665
L58784 37515
L58803 37478
L58821 37459
L58859 37440
L58915 37440
L58953 37459
L58971 37478
L58990 37515
L58990 37665
" />
<path d="M58915 37103
L59178 37103
" />
<path d="M58765 37196
L59046 37290
L59046 37046
" />
<path d="M58784 36821
L58784 36784
L58803 36746
L58821 36728
L58859 36709
L58934 36690
L59028 36690
L59103 36709
L59140 36728
L59159 36746
L59178 36784
L59178 36821
L59159 36859
L59140 36878
L59103 36896
L59028 36915
L58934 36915
L58859 36896
L58821 36878
L58803 36859
L58784 36821
" />
<path d="M59178 36503
L59178 36428
L59159 36390
L59140 36371
L59084 36334
L59009 36315
L58859 36315
L58821 36334
L58803 36353
L58784 36390
L58784 36465
L58803 36503
L58821 36521
L58859 36540
L58953 36540
L58990 36521
L59009 36503
L59028 36465
L59028 36390
L59009 36353
L58990 36334
L58953 36315
" />
<path d="M59178 31165
L58784 31165
L58784 31071
L58803 31015
L58840 30978
L58878 30959
L58953 30940
L59009 30940
L59084 30959
L59121 30978
L59159 31015
L59178 31071
L59178 31165
" />
<path d="M58915 30603
L59178 30603
" />
<path d="M58765 30696
L59046 30790
L59046 30546
" />
<path d="M58784 30321
L58784 30284
L58803 30246
L58821 30228
L58859 30209
L58934 30190
L59028 30190
L59103 30209
L59140 30228
L59159 30246
L59178 30284
L59178 30321
L59159 30359
L59140 30378
L59103 30396
L59028 30415
L58934 30415
L58859 30396
L58821 30378
L58803 30359
L58784 30321
" />
<path d="M59178 30003
L59178 29928
L59159 29890
L59140 29871
L59084 29834
L59009 29815
L58859 29815
L58821 29834
L58803 29853
L58784 29890
L58784 29965
L58803 30003
L58821 30021
L58859 30040
L58953 30040
L58990 30021
L59009 30003
L59028 29965
L59028 29890
L59009 29853
L58990 29834
L58953 29815
" />
<path d="M60678 31165
L60284 31165
L60284 31071
L60303 31015
L60340 30978
L60378 30959
L60453 30940
L60509 30940
L60584 30959
L60621 30978
L60659 31015
L60678 31071
L60678 31165
" />
<path d="M60415 30603
L60678 30603
" />
<path d="M60265 30696
L60546 30790
L60546 30546
" />
<path d="M60678 30190
L60678 30415
" />
<path d="M60678 30303
L60284 30303
L60340 30340
L60378 30378
L60396 30415
" />
<path d="M60284 29946
L60284 29909
L60303 29871
L60321 29853
L60359 29834
L60434 29815
L60528 29815
L60603 29834
L60640 29853
L60659 29871
L60678 29909
L60678 29946
L60659 29984
L60640 30003
L60603 30021
L60528 30040
L60434 30040
L60359 30021
L60321 30003
L60303 29984
L60284 29946
" />
<path d="M60678 37440
L60490 37571
" />
<path d="M60678 37665
L60284 37665
L60284 37515
L60303 37478
L60321 37459
L60359 37440
L60415 37440
L60453 37459
L60471 37478
L60490 37515
L60490 37665
" />
<path d="M60415 37103
L60678 37103
" />
<path d="M60265 37196
L60546 37290
L60546 37046
" />
<path d="M60678 36690
L60678 36915
" />
<path d="M60678 36803
L60284 36803
L60340 36840
L60378 36878
L60396 36915
" />
<path d="M60284 36446
L60284 36409
L60303 36371
L60321 36353
L60359 36334
L60434 36315
L60528 36315
L60603 36334
L60640 36353
L60659 36371
L60678 36409
L60678 36446
L60659 36484
L60640 36503
L60603 36521
L60528 36540
L60434 36540
L60359 36521
L60321 36503
L60303 36484
L60284 36446
" />
<path d="M63678 37440
L63490 37571
" />
<path d="M63678 37665
L63284 37665
L63284 37515
L63303 37478
L63321 37459
L63359 37440
L63415 37440
L63453 37459
L63471 37478
L63490 37515
L63490 37665
" />
<path d="M63415 37103
L63678 37103
" />
<path d="M63265 37196
L63546 37290
L63546 37046
" />
<path d="M63678 36690
L63678 36915
" />
<path d="M63678 36803
L63284 36803
L63340 36840
L63378 36878
L63396 36915
" />
<path d="M63321 36540
L63303 36521
L63284 36484
L63284 36390
L63303 36353
L63321 36334
L63359 36315
L63396 36315
L63453 36334
L63678 36559
L63678 36315
" />
<path d="M63678 31165
L63284 31165
L63284 31071
L63303 31015
L63340 30978
L63378 30959
L63453 30940
L63509 30940
L63584 30959
L63621 30978
L63659 31015
L63678 31071
L63678 31165
" />
<path d="M63415 30603
L63678 30603
" />
<path d="M63265 30696
L63546 30790
L63546 30546
" />
<path d="M63678 30190
L63678 30415
" />
<path d="M63678 30303
L63284 30303
L63340 30340
L63378 30378
L63396 30415
" />
<path d="M63321 30040
L63303 30021
L63284 29984
L63284 29890
L63303 29853
L63321 29834
L63359 29815
L63396 29815
L63453 29834
L63678 30059
L63678 29815
" />
<path d="M62178 31165
L61784 31165
L61784 31071
L61803 31015
L61840 30978
L61878 30959
L61953 30940
L62009 30940
L62084 30959
L62121 30978
L62159 31015
L62178 31071
L62178 31165
" />
<path d="M61915 30603
L62178 30603
" />
<path d="M61765 30696
L62046 30790
L62046 30546
" />
<path d="M62178 30190
L62178 30415
" />
<path d="M62178 30303
L61784 30303
L61840 30340
L61878 30378
L61896 30415
" />
<path d="M62178 29815
L62178 30040
" />
<path d="M62178 29928
L61784 29928
L61840 29965
L61878 30003
L61896 30040
" />
<path d="M62178 37440
L61990 37571
" />
<path d="M62178 37665
L61784 37665
L61784 37515
L61803 37478
L61821 37459
L61859 37440
L61915 37440
L61953 37459
L61971 37478
L61990 37515
L61990 37665
" />
<path d="M61915 37103
L62178 37103
" />
<path d="M61765 37196
L62046 37290
L62046 37046
" />
<path d="M62178 36690
L62178 36915
" />
<path d="M62178 36803
L61784 36803
L61840 36840
L61878 36878
L61896 36915
" />
<path d="M62178 36315
L62178 36540
" />
<path d="M62178 36428
L61784 36428
L61840 36465
L61878 36503
L61896 36540
" />
<path d="M68178 37440
L67990 37571
" />
<path d="M68178 37665
L67784 37665
L67784 37515
L67803 37478
L67821 37459
L67859 37440
L67915 37440
L67953 37459
L67971 37478
L67990 37515
L67990 37665
" />
<path d="M67915 37103
L68178 37103
" />
<path d="M67765 37196
L68046 37290
L68046 37046
" />
<path d="M68178 36690
L68178 36915
" />
<path d="M68178 36803
L67784 36803
L67840 36840
L67878 36878
L67896 36915
" />
<path d="M67784 36334
L67784 36521
L67971 36540
L67953 36521
L67934 36484
L67934 36390
L67953 36353
L67971 36334
L68009 36315
L68103 36315
L68140 36334
L68159 36353
L68178 36390
L68178 36484
L68159 36521
L68140 36540
" />
<path d="M68127 31219
L68142 31174
L68142 31099
L68127 31069
L68112 31054
L68082 31039
L68052 31039
L68022 31054
L68007 31069
L67992 31099
L67977 31159
L67962 31189
L67947 31204
L67917 31219
L67887 31219
L67857 31204
L67842 31189
L67827 31159
L67827 31084
L67842 31039
" />
<path d="M67827 30934
L68142 30859
L67917 30799
L68142 30739
L67827 30664
" />
<path d="M67932 30410
L68142 30410
" />
<path d="M67812 30485
L68037 30559
L68037 30365
" />
<path d="M67827 30185
L67827 30155
L67842 30125
L67857 30110
L67887 30095
L67947 30080
L68022 30080
L68082 30095
L68112 30110
L68127 30125
L68142 30155
L68142 30185
L68127 30215
L68112 30230
L68082 30245
L68022 30260
L67947 30260
L67887 30245
L67857 30230
L67842 30215
L67827 30185
" />
<path d="M68142 29780
L68142 29960
" />
<path d="M68142 29870
L67827 29870
L67872 29900
L67902 29930
L67917 29960
" />
<path d="M66678 37440
L66490 37571
" />
<path d="M66678 37665
L66284 37665
L66284 37515
L66303 37478
L66321 37459
L66359 37440
L66415 37440
L66453 37459
L66471 37478
L66490 37515
L66490 37665
" />
<path d="M66415 37103
L66678 37103
" />
<path d="M66265 37196
L66546 37290
L66546 37046
" />
<path d="M66678 36690
L66678 36915
" />
<path d="M66678 36803
L66284 36803
L66340 36840
L66378 36878
L66396 36915
" />
<path d="M66415 36353
L66678 36353
" />
<path d="M66265 36446
L66546 36540
L66546 36296
" />
<path d="M66678 31165
L66284 31165
L66284 31071
L66303 31015
L66340 30978
L66378 30959
L66453 30940
L66509 30940
L66584 30959
L66621 30978
L66659 31015
L66678 31071
L66678 31165
" />
<path d="M66415 30603
L66678 30603
" />
<path d="M66265 30696
L66546 30790
L66546 30546
" />
<path d="M66678 30190
L66678 30415
" />
<path d="M66678 30303
L66284 30303
L66340 30340
L66378 30378
L66396 30415
" />
<path d="M66415 29853
L66678 29853
" />
<path d="M66265 29946
L66546 30040
L66546 29796
" />
<path d="M65178 31165
L64784 31165
L64784 31071
L64803 31015
L64840 30978
L64878 30959
L64953 30940
L65009 30940
L65084 30959
L65121 30978
L65159 31015
L65178 31071
L65178 31165
" />
<path d="M64915 30603
L65178 30603
" />
<path d="M64765 30696
L65046 30790
L65046 30546
" />
<path d="M65178 30190
L65178 30415
" />
<path d="M65178 30303
L64784 30303
L64840 30340
L64878 30378
L64896 30415
" />
<path d="M64784 30059
L64784 29815
L64934 29946
L64934 29890
L64953 29853
L64971 29834
L65009 29815
L65103 29815
L65140 29834
L65159 29853
L65178 29890
L65178 30003
L65159 30040
L65140 30059
" />
<path d="M65178 37440
L64990 37571
" />
<path d="M65178 37665
L64784 37665
L64784 37515
L64803 37478
L64821 37459
L64859 37440
L64915 37440
L64953 37459
L64971 37478
L64990 37515
L64990 37665
" />
<path d="M64915 37103
L65178 37103
" />
<path d="M64765 37196
L65046 37290
L65046 37046
" />
<path d="M65178 36690
L65178 36915
" />
<path d="M65178 36803
L64784 36803
L64840 36840
L64878 36878
L64896 36915
" />
<path d="M64784 36559
L64784 36315
L64934 36446
L64934 36390
L64953 36353
L64971 36334
L65009 36315
L65103 36315
L65140 36334
L65159 36353
L65178 36390
L65178 36503
L65159 36540
L65140 36559
" />
<path d="M53178 37440
L52990 37571
" />
<path d="M53178 37665
L52784 37665
L52784 37515
L52803 37478
L52821 37459
L52859 37440
L52915 37440
L52953 37459
L52971 37478
L52990 37515
L52990 37665
" />
<path d="M52915 37103
L53178 37103
" />
<path d="M52765 37196
L53046 37290
L53046 37046
" />
<path d="M52784 36821
L52784 36784
L52803 36746
L52821 36728
L52859 36709
L52934 36690
L53028 36690
L53103 36709
L53140 36728
L53159 36746
L53178 36784
L53178 36821
L53159 36859
L53140 36878
L53103 36896
L53028 36915
L52934 36915
L52859 36896
L52821 36878
L52803 36859
L52784 36821
" />
<path d="M52784 36334
L52784 36521
L52971 36540
L52953 36521
L52934 36484
L52934 36390
L52953 36353
L52971 36334
L53009 36315
L53103 36315
L53140 36334
L53159 36353
L53178 36390
L53178 36484
L53159 36521
L53140 36540
" />
<path d="M53178 31165
L52784 31165
L52784 31071
L52803 31015
L52840 30978
L52878 30959
L52953 30940
L53009 30940
L53084 30959
L53121 30978
L53159 31015
L53178 31071
L53178 31165
" />
<path d="M52915 30603
L53178 30603
" />
<path d="M52765 30696
L53046 30790
L53046 30546
" />
<path d="M52784 30321
L52784 30284
L52803 30246
L52821 30228
L52859 30209
L52934 30190
L53028 30190
L53103 30209
L53140 30228
L53159 30246
L53178 30284
L53178 30321
L53159 30359
L53140 30378
L53103 30396
L53028 30415
L52934 30415
L52859 30396
L52821 30378
L52803 30359
L52784 30321
" />
<path d="M52784 29834
L52784 30021
L52971 30040
L52953 30021
L52934 29984
L52934 29890
L52953 29853
L52971 29834
L53009 29815
L53103 29815
L53140 29834
L53159 29853
L53178 29890
L53178 29984
L53159 30021
L53140 30040
" />
<path d="M54678 31165
L54284 31165
L54284 31071
L54303 31015
L54340 30978
L54378 30959
L54453 30940
L54509 30940
L54584 30959
L54621 30978
L54659 31015
L54678 31071
L54678 31165
" />
<path d="M54415 30603
L54678 30603
" />
<path d="M54265 30696
L54546 30790
L54546 30546
" />
<path d="M54284 30321
L54284 30284
L54303 30246
L54321 30228
L54359 30209
L54434 30190
L54528 30190
L54603 30209
L54640 30228
L54659 30246
L54678 30284
L54678 30321
L54659 30359
L54640 30378
L54603 30396
L54528 30415
L54434 30415
L54359 30396
L54321 30378
L54303 30359
L54284 30321
" />
<path d="M54284 29853
L54284 29928
L54303 29965
L54321 29984
L54378 30021
L54453 30040
L54603 30040
L54640 30021
L54659 30003
L54678 29965
L54678 29890
L54659 29853
L54640 29834
L54603 29815
L54509 29815
L54471 29834
L54453 29853
L54434 29890
L54434 29965
L54453 30003
L54471 30021
L54509 30040
" />
<path d="M54678 37440
L54490 37571
" />
<path d="M54678 37665
L54284 37665
L54284 37515
L54303 37478
L54321 37459
L54359 37440
L54415 37440
L54453 37459
L54471 37478
L54490 37515
L54490 37665
" />
<path d="M54415 37103
L54678 37103
" />
<path d="M54265 37196
L54546 37290
L54546 37046
" />
<path d="M54284 36821
L54284 36784
L54303 36746
L54321 36728
L54359 36709
L54434 36690
L54528 36690
L54603 36709
L54640 36728
L54659 36746
L54678 36784
L54678 36821
L54659 36859
L54640 36878
L54603 36896
L54528 36915
L54434 36915
L54359 36896
L54321 36878
L54303 36859
L54284 36821
" />
<path d="M54284 36353
L54284 36428
L54303 36465
L54321 36484
L54378 36521
L54453 36540
L54603 36540
L54640 36521
L54659 36503
L54678 36465
L54678 36390
L54659 36353
L54640 36334
L54603 36315
L54509 36315
L54471 36334
L54453 36353
L54434 36390
L54434 36465
L54453 36503
L54471 36521
L54509 36540
" />
<path d="M57678 37440
L57490 37571
" />
<path d="M57678 37665
L57284 37665
L57284 37515
L57303 37478
L57321 37459
L57359 37440
L57415 37440
L57453 37459
L57471 37478
L57490 37515
L57490 37665
" />
<path d="M57415 37103
L57678 37103
" />
<path d="M57265 37196
L57546 37290
L57546 37046
" />
<path d="M57284 36821
L57284 36784
L57303 36746
L57321 36728
L57359 36709
L57434 36690
L57528 36690
L57603 36709
L57640 36728
L57659 36746
L57678 36784
L57678 36821
L57659 36859
L57640 36878
L57603 36896
L57528 36915
L57434 36915
L57359 36896
L57321 36878
L57303 36859
L57284 36821
" />
<path d="M57453 36465
L57434 36503
L57415 36521
L57378 36540
L57359 36540
L57321 36521
L57303 36503
L57284 36465
L57284 36390
L57303 36353
L57321 36334
L57359 36315
L57378 36315
L57415 36334
L57434 36353
L57453 36390
L57453 36465
L57471 36503
L57490 36521
L57528 36540
L57603 36540
L57640 36521
L57659 36503
L57678 36465
L57678 36390
L57659 36353
L57640 36334
L57603 36315
L57528 36315
L57490 36334
L57471 36353
L57453 36390
" />
<path d="M57678 31165
L57284 31165
L57284 31071
L57303 31015
L57340 30978
L57378 30959
L57453 30940
L57509 30940
L57584 30959
L57621 30978
L57659 31015
L57678 31071
L57678 31165
" />
<path d="M57415 30603
L57678 30603
" />
<path d="M57265 30696
L57546 30790
L57546 30546
" />
<path d="M57284 30321
L57284 30284
L57303 30246
L57321 30228
L57359 30209
L57434 30190
L57528 30190
L57603 30209
L57640 30228
L57659 30246
L57678 30284
L57678 30321
L57659 30359
L57640 30378
L57603 30396
L57528 30415
L57434 30415
L57359 30396
L57321 30378
L57303 30359
L57284 30321
" />
<path d="M57453 29965
L57434 30003
L57415 30021
L57378 30040
L57359 30040
L57321 30021
L57303 30003
L57284 29965
L57284 29890
L57303 29853
L57321 29834
L57359 29815
L57378 29815
L57415 29834
L57434 29853
L57453 29890
L57453 29965
L57471 30003
L57490 30021
L57528 30040
L57603 30040
L57640 30021
L57659 30003
L57678 29965
L57678 29890
L57659 29853
L57640 29834
L57603 29815
L57528 29815
L57490 29834
L57471 29853
L57453 29890
" />
<path d="M56178 31165
L55784 31165
L55784 31071
L55803 31015
L55840 30978
L55878 30959
L55953 30940
L56009 30940
L56084 30959
L56121 30978
L56159 31015
L56178 31071
L56178 31165
" />
<path d="M55915 30603
L56178 30603
" />
<path d="M55765 30696
L56046 30790
L56046 30546
" />
<path d="M55784 30321
L55784 30284
L55803 30246
L55821 30228
L55859 30209
L55934 30190
L56028 30190
L56103 30209
L56140 30228
L56159 30246
L56178 30284
L56178 30321
L56159 30359
L56140 30378
L56103 30396
L56028 30415
L55934 30415
L55859 30396
L55821 30378
L55803 30359
L55784 30321
" />
<path d="M55784 30059
L55784 29796
L56178 29965
" />
<path d="M56178 37440
L55990 37571
" />
<path d="M56178 37665
L55784 37665
L55784 37515
L55803 37478
L55821 37459
L55859 37440
L55915 37440
L55953 37459
L55971 37478
L55990 37515
L55990 37665
" />
<path d="M55915 37103
L56178 37103
" />
<path d="M55765 37196
L56046 37290
L56046 37046
" />
<path d="M55784 36821
L55784 36784
L55803 36746
L55821 36728
L55859 36709
L55934 36690
L56028 36690
L56103 36709
L56140 36728
L56159 36746
L56178 36784
L56178 36821
L56159 36859
L56140 36878
L56103 36896
L56028 36915
L55934 36915
L55859 36896
L55821 36878
L55803 36859
L55784 36821
" />
<path d="M55784 36559
L55784 36296
L56178 36465
" />
<path d="M50178 37440
L49990 37571
" />
<path d="M50178 37665
L49784 37665
L49784 37515
L49803 37478
L49821 37459
L49859 37440
L49915 37440
L49953 37459
L49971 37478
L49990 37515
L49990 37665
" />
<path d="M49915 37103
L50178 37103
" />
<path d="M49765 37196
L50046 37290
L50046 37046
" />
<path d="M49784 36821
L49784 36784
L49803 36746
L49821 36728
L49859 36709
L49934 36690
L50028 36690
L50103 36709
L50140 36728
L50159 36746
L50178 36784
L50178 36821
L50159 36859
L50140 36878
L50103 36896
L50028 36915
L49934 36915
L49859 36896
L49821 36878
L49803 36859
L49784 36821
" />
<path d="M49784 36559
L49784 36315
L49934 36446
L49934 36390
L49953 36353
L49971 36334
L50009 36315
L50103 36315
L50140 36334
L50159 36353
L50178 36390
L50178 36503
L50159 36540
L50140 36559
" />
<path d="M50178 31165
L49784 31165
L49784 31071
L49803 31015
L49840 30978
L49878 30959
L49953 30940
L50009 30940
L50084 30959
L50121 30978
L50159 31015
L50178 31071
L50178 31165
" />
<path d="M49915 30603
L50178 30603
" />
<path d="M49765 30696
L50046 30790
L50046 30546
" />
<path d="M49784 30321
L49784 30284
L49803 30246
L49821 30228
L49859 30209
L49934 30190
L50028 30190
L50103 30209
L50140 30228
L50159 30246
L50178 30284
L50178 30321
L50159 30359
L50140 30378
L50103 30396
L50028 30415
L49934 30415
L49859 30396
L49821 30378
L49803 30359
L49784 30321
" />
<path d="M49784 30059
L49784 29815
L49934 29946
L49934 29890
L49953 29853
L49971 29834
L50009 29815
L50103 29815
L50140 29834
L50159 29853
L50178 29890
L50178 30003
L50159 30040
L50140 30059
" />
<path d="M51678 31165
L51284 31165
L51284 31071
L51303 31015
L51340 30978
L51378 30959
L51453 30940
L51509 30940
L51584 30959
L51621 30978
L51659 31015
L51678 31071
L51678 31165
" />
<path d="M51415 30603
L51678 30603
" />
<path d="M51265 30696
L51546 30790
L51546 30546
" />
<path d="M51284 30321
L51284 30284
L51303 30246
L51321 30228
L51359 30209
L51434 30190
L51528 30190
L51603 30209
L51640 30228
L51659 30246
L51678 30284
L51678 30321
L51659 30359
L51640 30378
L51603 30396
L51528 30415
L51434 30415
L51359 30396
L51321 30378
L51303 30359
L51284 30321
" />
<path d="M51415 29853
L51678 29853
" />
<path d="M51265 29946
L51546 30040
L51546 29796
" />
<path d="M51678 37440
L51490 37571
" />
<path d="M51678 37665
L51284 37665
L51284 37515
L51303 37478
L51321 37459
L51359 37440
L51415 37440
L51453 37459
L51471 37478
L51490 37515
L51490 37665
" />
<path d="M51415 37103
L51678 37103
" />
<path d="M51265 37196
L51546 37290
L51546 37046
" />
<path d="M51284 36821
L51284 36784
L51303 36746
L51321 36728
L51359 36709
L51434 36690
L51528 36690
L51603 36709
L51640 36728
L51659 36746
L51678 36784
L51678 36821
L51659 36859
L51640 36878
L51603 36896
L51528 36915
L51434 36915
L51359 36896
L51321 36878
L51303 36859
L51284 36821
" />
<path d="M51415 36353
L51678 36353
" />
<path d="M51265 36446
L51546 36540
L51546 36296
" />
<path d="M48678 37440
L48490 37571
" />
<path d="M48678 37665
L48284 37665
L48284 37515
L48303 37478
L48321 37459
L48359 37440
L48415 37440
L48453 37459
L48471 37478
L48490 37515
L48490 37665
" />
<path d="M48415 37103
L48678 37103
" />
<path d="M48265 37196
L48546 37290
L48546 37046
" />
<path d="M48284 36821
L48284 36784
L48303 36746
L48321 36728
L48359 36709
L48434 36690
L48528 36690
L48603 36709
L48640 36728
L48659 36746
L48678 36784
L48678 36821
L48659 36859
L48640 36878
L48603 36896
L48528 36915
L48434 36915
L48359 36896
L48321 36878
L48303 36859
L48284 36821
" />
<path d="M48321 36540
L48303 36521
L48284 36484
L48284 36390
L48303 36353
L48321 36334
L48359 36315
L48396 36315
L48453 36334
L48678 36559
L48678 36315
" />
<path d="M48678 31165
L48284 31165
L48284 31071
L48303 31015
L48340 30978
L48378 30959
L48453 30940
L48509 30940
L48584 30959
L48621 30978
L48659 31015
L48678 31071
L48678 31165
" />
<path d="M48415 30603
L48678 30603
" />
<path d="M48265 30696
L48546 30790
L48546 30546
" />
<path d="M48284 30321
L48284 30284
L48303 30246
L48321 30228
L48359 30209
L48434 30190
L48528 30190
L48603 30209
L48640 30228
L48659 30246
L48678 30284
L48678 30321
L48659 30359
L48640 30378
L48603 30396
L48528 30415
L48434 30415
L48359 30396
L48321 30378
L48303 30359
L48284 30321
" />
<path d="M48321 30040
L48303 30021
L48284 29984
L48284 29890
L48303 29853
L48321 29834
L48359 29815
L48396 29815
L48453 29834
L48678 30059
L48678 29815
" />
<path d="M47178 31165
L46784 31165
L46784 31071
L46803 31015
L46840 30978
L46878 30959
L46953 30940
L47009 30940
L47084 30959
L47121 30978
L47159 31015
L47178 31071
L47178 31165
" />
<path d="M46915 30603
L47178 30603
" />
<path d="M46765 30696
L47046 30790
L47046 30546
" />
<path d="M46784 30321
L46784 30284
L46803 30246
L46821 30228
L46859 30209
L46934 30190
L47028 30190
L47103 30209
L47140 30228
L47159 30246
L47178 30284
L47178 30321
L47159 30359
L47140 30378
L47103 30396
L47028 30415
L46934 30415
L46859 30396
L46821 30378
L46803 30359
L46784 30321
" />
<path d="M47178 29815
L47178 30040
" />
<path d="M47178 29928
L46784 29928
L46840 29965
L46878 30003
L46896 30040
" />
<path d="M47178 37440
L46990 37571
" />
<path d="M47178 37665
L46784 37665
L46784 37515
L46803 37478
L46821 37459
L46859 37440
L46915 37440
L46953 37459
L46971 37478
L46990 37515
L46990 37665
" />
<path d="M46915 37103
L47178 37103
" />
<path d="M46765 37196
L47046 37290
L47046 37046
" />
<path d="M46784 36821
L46784 36784
L46803 36746
L46821 36728
L46859 36709
L46934 36690
L47028 36690
L47103 36709
L47140 36728
L47159 36746
L47178 36784
L47178 36821
L47159 36859
L47140 36878
L47103 36896
L47028 36915
L46934 36915
L46859 36896
L46821 36878
L46803 36859
L46784 36821
" />
<path d="M47178 36315
L47178 36540
" />
<path d="M47178 36428
L46784 36428
L46840 36465
L46878 36503
L46896 36540
" />
</g> 
</svg>
