<?xml version="1.0" standalone="no"?>
 <!DOCTYPE svg PUBLIC "-//W3C//DTD SVG 1.1//EN" 
 "http://www.w3.org/Graphics/SVG/1.1/DTD/svg11.dtd"> 
<svg xmlns="http://www.w3.org/2000/svg" version="1.1" 
    width="29.7002cm" height="21.0007cm" viewBox="0 0 116930 82680 ">
<title>SVG Picture created as u5-B.Cu.svg date 2020/02/14 20:20:25 </title>
  <desc>Picture generated by PCBNEW </desc>
<g style="fill:#000000; fill-opacity:1;stroke:#000000; stroke-opacity:1;
stroke-linecap:round; stroke-linejoin:round; "
 transform="translate(0 0) scale(1 1)">
</g>
<g style="fill:#000000; fill-opacity:0.0; 
stroke:#000000; stroke-width:-0.000393701; stroke-opacity:1; 
stroke-linecap:round; stroke-linejoin:round;">
</g>
<g style="fill:#000000; fill-opacity:0.0; 
stroke:#000000; stroke-width:59.0551; stroke-opacity:1; 
stroke-linecap:round; stroke-linejoin:round;">
<rect x="69685.9" y="65357.2" width="42519.7" height="12598.4" rx="0" />
<rect x="3937.01" y="3937.01" width="109056" height="74806" rx="0" />
<rect x="4724.41" y="4724.41" width="107481" height="73231.2" rx="0" />
<path d="M23622 4724
L23622 3937
" />
<path d="M43307 4724
L43307 3937
" />
<path d="M62992 4724
L62992 3937
" />
<path d="M82677 4724
L82677 3937
" />
<path d="M102362 4724
L102362 3937
" />
<path d="M14169 4562
L13877 4562
" />
<path d="M14023 4562
L14023 4050
L13974 4123
L13925 4172
L13877 4196
" />
<path d="M33562 4099
L33586 4074
L33635 4050
L33757 4050
L33805 4074
L33830 4099
L33854 4147
L33854 4196
L33830 4269
L33537 4562
L33854 4562
" />
<path d="M53222 4050
L53539 4050
L53368 4245
L53442 4245
L53490 4269
L53515 4294
L53539 4342
L53539 4464
L53515 4513
L53490 4537
L53442 4562
L53295 4562
L53247 4537
L53222 4513
" />
<path d="M73175 4221
L73175 4562
" />
<path d="M73053 4026
L72932 4391
L73248 4391
" />
<path d="M92885 4050
L92641 4050
L92617 4294
L92641 4269
L92690 4245
L92812 4245
L92860 4269
L92885 4294
L92909 4342
L92909 4464
L92885 4513
L92860 4537
L92812 4562
L92690 4562
L92641 4537
L92617 4513
" />
<path d="M112545 4050
L112448 4050
L112399 4074
L112375 4099
L112326 4172
L112302 4269
L112302 4464
L112326 4513
L112350 4537
L112399 4562
L112497 4562
L112545 4537
L112570 4513
L112594 4464
L112594 4342
L112570 4294
L112545 4269
L112497 4245
L112399 4245
L112350 4269
L112326 4294
L112302 4342
" />
<path d="M23622 77955
L23622 78742
" />
<path d="M43307 77955
L43307 78742
" />
<path d="M62992 77955
L62992 78742
" />
<path d="M82677 77955
L82677 78742
" />
<path d="M102362 77955
L102362 78742
" />
<path d="M14169 78580
L13877 78580
" />
<path d="M14023 78580
L14023 78069
L13974 78142
L13925 78190
L13877 78215
" />
<path d="M33562 78117
L33586 78093
L33635 78069
L33757 78069
L33805 78093
L33830 78117
L33854 78166
L33854 78215
L33830 78288
L33537 78580
L33854 78580
" />
<path d="M53222 78069
L53539 78069
L53368 78263
L53442 78263
L53490 78288
L53515 78312
L53539 78361
L53539 78483
L53515 78532
L53490 78556
L53442 78580
L53295 78580
L53247 78556
L53222 78532
" />
<path d="M73175 78239
L73175 78580
" />
<path d="M73053 78044
L72932 78410
L73248 78410
" />
<path d="M92885 78069
L92641 78069
L92617 78312
L92641 78288
L92690 78263
L92812 78263
L92860 78288
L92885 78312
L92909 78361
L92909 78483
L92885 78532
L92860 78556
L92812 78580
L92690 78580
L92641 78556
L92617 78532
" />
<path d="M112545 78069
L112448 78069
L112399 78093
L112375 78117
L112326 78190
L112302 78288
L112302 78483
L112326 78532
L112350 78556
L112399 78580
L112497 78580
L112545 78556
L112570 78532
L112594 78483
L112594 78361
L112570 78312
L112545 78288
L112497 78263
L112399 78263
L112350 78288
L112326 78312
L112302 78361
" />
<path d="M3937 23622
L4724 23622
" />
<path d="M3937 43307
L4724 43307
" />
<path d="M3937 62992
L4724 62992
" />
<path d="M4208 13864
L4452 13864
" />
<path d="M4160 14011
L4330 13499
L4501 14011
" />
<path d="M4367 33428
L4440 33452
L4464 33476
L4489 33525
L4489 33598
L4464 33647
L4440 33671
L4391 33696
L4196 33696
L4196 33184
L4367 33184
L4416 33208
L4440 33233
L4464 33281
L4464 33330
L4440 33379
L4416 33403
L4367 33428
L4196 33428
" />
<path d="M4489 53332
L4464 53356
L4391 53381
L4342 53381
L4269 53356
L4221 53308
L4196 53259
L4172 53161
L4172 53088
L4196 52991
L4221 52942
L4269 52893
L4342 52869
L4391 52869
L4464 52893
L4489 52918
" />
<path d="M4196 73066
L4196 72554
L4318 72554
L4391 72578
L4440 72627
L4464 72676
L4489 72773
L4489 72846
L4464 72944
L4440 72993
L4391 73041
L4318 73066
L4196 73066
" />
<path d="M112992 23622
L112205 23622
" />
<path d="M112992 43307
L112205 43307
" />
<path d="M112992 62992
L112205 62992
" />
<path d="M112477 13864
L112721 13864
" />
<path d="M112428 14011
L112599 13499
L112769 14011
" />
<path d="M112635 33428
L112708 33452
L112733 33476
L112757 33525
L112757 33598
L112733 33647
L112708 33671
L112660 33696
L112465 33696
L112465 33184
L112635 33184
L112684 33208
L112708 33233
L112733 33281
L112733 33330
L112708 33379
L112684 33403
L112635 33428
L112465 33428
" />
<path d="M112757 53332
L112733 53356
L112660 53381
L112611 53381
L112538 53356
L112489 53308
L112465 53259
L112440 53161
L112440 53088
L112465 52991
L112489 52942
L112538 52893
L112611 52869
L112660 52869
L112733 52893
L112757 52918
" />
<path d="M112465 73066
L112465 72554
L112587 72554
L112660 72578
L112708 72627
L112733 72676
L112757 72773
L112757 72846
L112733 72944
L112708 72993
L112660 73041
L112587 73066
L112465 73066
" />
<path d="M78881 76293
L78881 75703
L79022 75703
L79106 75731
L79162 75787
L79190 75843
L79219 75956
L79219 76040
L79190 76153
L79162 76209
L79106 76265
L79022 76293
L78881 76293
" />
<path d="M79725 76293
L79725 75984
L79697 75928
L79640 75899
L79528 75899
L79472 75928
" />
<path d="M79725 76265
L79669 76293
L79528 76293
L79472 76265
L79444 76209
L79444 76153
L79472 76096
L79528 76068
L79669 76068
L79725 76040
" />
<path d="M79922 75899
L80147 75899
" />
<path d="M80006 75703
L80006 76209
L80034 76265
L80090 76293
L80147 76293
" />
<path d="M80568 76265
L80512 76293
L80400 76293
L80343 76265
L80315 76209
L80315 75984
L80343 75928
L80400 75899
L80512 75899
L80568 75928
L80597 75984
L80597 76040
L80315 76096
" />
<path d="M80850 76237
L80878 76265
L80850 76293
L80822 76265
L80850 76237
L80850 76293
" />
<path d="M80850 75928
L80878 75956
L80850 75984
L80822 75956
L80850 75928
L80850 75984
" />
<path d="M81553 75759
L81581 75731
L81637 75703
L81778 75703
L81834 75731
L81862 75759
L81890 75815
L81890 75871
L81862 75956
L81525 76293
L81890 76293
" />
<path d="M82256 75703
L82312 75703
L82368 75731
L82396 75759
L82424 75815
L82453 75928
L82453 76068
L82424 76181
L82396 76237
L82368 76265
L82312 76293
L82256 76293
L82199 76265
L82171 76237
L82143 76181
L82115 76068
L82115 75928
L82143 75815
L82171 75759
L82199 75731
L82256 75703
" />
<path d="M83015 76293
L82678 76293
" />
<path d="M82846 76293
L82846 75703
L82790 75787
L82734 75843
L82678 75871
" />
<path d="M83296 76293
L83409 76293
L83465 76265
L83493 76237
L83549 76153
L83577 76040
L83577 75815
L83549 75759
L83521 75731
L83465 75703
L83352 75703
L83296 75731
L83268 75759
L83240 75815
L83240 75956
L83268 76012
L83296 76040
L83352 76068
L83465 76068
L83521 76040
L83549 76012
L83577 75956
" />
<path d="M83831 76068
L84280 76068
" />
<path d="M84871 76293
L84534 76293
" />
<path d="M84702 76293
L84702 75703
L84646 75787
L84590 75843
L84534 75871
" />
<path d="M85433 76293
L85096 76293
" />
<path d="M85265 76293
L85265 75703
L85208 75787
L85152 75843
L85096 75871
" />
<path d="M85687 76068
L86136 76068
" />
<path d="M86530 75703
L86586 75703
L86643 75731
L86671 75759
L86699 75815
L86727 75928
L86727 76068
L86699 76181
L86671 76237
L86643 76265
L86586 76293
L86530 76293
L86474 76265
L86446 76237
L86418 76181
L86390 76068
L86390 75928
L86418 75815
L86446 75759
L86474 75731
L86530 75703
" />
<path d="M87289 76293
L86952 76293
" />
<path d="M87121 76293
L87121 75703
L87064 75787
L87008 75843
L86952 75871
" />
<path d="M69685 76577
L112205 76577
" />
<path d="M70220 77395
L70220 76805
" />
<path d="M70557 77395
L70304 77058
" />
<path d="M70557 76805
L70220 77142
" />
<path d="M70810 77395
L70810 77002
" />
<path d="M70810 76805
L70782 76833
L70810 76861
L70838 76833
L70810 76805
L70810 76861
" />
<path d="M71429 77339
L71401 77367
L71316 77395
L71260 77395
L71176 77367
L71120 77311
L71091 77255
L71063 77142
L71063 77058
L71091 76946
L71120 76889
L71176 76833
L71260 76805
L71316 76805
L71401 76833
L71429 76861
" />
<path d="M71935 77395
L71935 77086
L71907 77030
L71851 77002
L71738 77002
L71682 77030
" />
<path d="M71935 77367
L71879 77395
L71738 77395
L71682 77367
L71654 77311
L71654 77255
L71682 77199
L71738 77171
L71879 77171
L71935 77142
" />
<path d="M72469 77395
L72469 76805
" />
<path d="M72469 77367
L72413 77395
L72301 77395
L72244 77367
L72216 77339
L72188 77283
L72188 77114
L72216 77058
L72244 77030
L72301 77002
L72413 77002
L72469 77030
" />
<path d="M73201 77086
L73397 77086
" />
<path d="M73482 77395
L73201 77395
L73201 76805
L73482 76805
" />
<path d="M73735 77339
L73763 77367
L73735 77395
L73707 77367
L73735 77339
L73735 77395
" />
<path d="M74016 77395
L74016 76805
L74157 76805
L74241 76833
L74297 76889
L74325 76946
L74354 77058
L74354 77142
L74325 77255
L74297 77311
L74241 77367
L74157 77395
L74016 77395
" />
<path d="M74607 77339
L74635 77367
L74607 77395
L74579 77367
L74607 77339
L74607 77395
" />
<path d="M74860 77227
L75141 77227
" />
<path d="M74804 77395
L75000 76805
L75197 77395
" />
<path d="M75394 77339
L75422 77367
L75394 77395
L75366 77367
L75394 77339
L75394 77395
" />
<path d="M76575 77395
L76575 76805
" />
<path d="M76631 77171
L76800 77395
" />
<path d="M76800 77002
L76575 77227
" />
<path d="M77053 77395
L77053 77002
" />
<path d="M77053 76805
L77025 76833
L77053 76861
L77081 76833
L77053 76805
L77053 76861
" />
<path d="M77588 77367
L77531 77395
L77419 77395
L77363 77367
L77334 77339
L77306 77283
L77306 77114
L77334 77058
L77363 77030
L77419 77002
L77531 77002
L77588 77030
" />
<path d="M78094 77395
L78094 77086
L78066 77030
L78009 77002
L77897 77002
L77841 77030
" />
<path d="M78094 77367
L78037 77395
L77897 77395
L77841 77367
L77813 77311
L77813 77255
L77841 77199
L77897 77171
L78037 77171
L78094 77142
" />
<path d="M78628 77395
L78628 76805
" />
<path d="M78628 77367
L78572 77395
L78459 77395
L78403 77367
L78375 77339
L78347 77283
L78347 77114
L78375 77058
L78403 77030
L78459 77002
L78572 77002
L78628 77030
" />
<path d="M79612 77002
L79612 77395
" />
<path d="M79472 76777
L79331 77199
L79697 77199
" />
<path d="M79922 77339
L79950 77367
L79922 77395
L79894 77367
L79922 77339
L79922 77395
" />
<path d="M80315 76805
L80372 76805
L80428 76833
L80456 76861
L80484 76917
L80512 77030
L80512 77171
L80484 77283
L80456 77339
L80428 77367
L80372 77395
L80315 77395
L80259 77367
L80231 77339
L80203 77283
L80175 77171
L80175 77030
L80203 76917
L80231 76861
L80259 76833
L80315 76805
" />
<path d="M80765 77339
L80793 77367
L80765 77395
L80737 77367
L80765 77339
L80765 77395
" />
<path d="M81328 76805
L81046 76805
L81018 77086
L81046 77058
L81103 77030
L81243 77030
L81300 77058
L81328 77086
L81356 77142
L81356 77283
L81328 77339
L81300 77367
L81243 77395
L81103 77395
L81046 77367
L81018 77339
" />
<path d="M81609 77171
L82059 77171
" />
<path d="M81834 77395
L81834 76946
" />
<path d="M82593 77395
L82593 76805
" />
<path d="M82593 77367
L82537 77395
L82424 77395
L82368 77367
L82340 77339
L82312 77283
L82312 77114
L82340 77058
L82368 77030
L82424 77002
L82537 77002
L82593 77030
" />
<path d="M82790 77002
L83015 77002
" />
<path d="M82874 77395
L82874 76889
L82903 76833
L82959 76805
L83015 76805
" />
<path d="M83184 77367
L83240 77395
L83352 77395
L83409 77367
L83437 77311
L83437 77283
L83409 77227
L83352 77199
L83268 77199
L83212 77171
L83184 77114
L83184 77086
L83212 77030
L83268 77002
L83352 77002
L83409 77030
" />
<path d="M83943 77002
L83943 77480
L83915 77536
L83887 77564
L83831 77592
L83746 77592
L83690 77564
" />
<path d="M83943 77367
L83887 77395
L83774 77395
L83718 77367
L83690 77339
L83662 77283
L83662 77114
L83690 77058
L83718 77030
L83774 77002
L83887 77002
L83943 77030
" />
<path d="M84534 77395
L84196 77395
" />
<path d="M84365 77395
L84365 76805
L84309 76889
L84252 76946
L84196 76974
" />
<path d="M84787 77171
L85237 77171
" />
<path d="M85771 77002
L85771 77395
" />
<path d="M85630 76777
L85490 77199
L85855 77199
" />
<path d="M69685 75396
L112205 75396
" />
</g>
<g style="fill:#000000; fill-opacity:0.0; 
stroke:#000000; stroke-width:118.11; stroke-opacity:1; 
stroke-linecap:round; stroke-linejoin:round;">
<path d="M104022 76293
L103825 76012
" />
<path d="M103684 76293
L103684 75703
L103909 75703
L103965 75731
L103994 75759
L104022 75815
L104022 75899
L103994 75956
L103965 75984
L103909 76012
L103684 76012
" />
<path d="M104500 76265
L104444 76293
L104331 76293
L104275 76265
L104247 76209
L104247 75984
L104275 75928
L104331 75899
L104444 75899
L104500 75928
L104528 75984
L104528 76040
L104247 76096
" />
<path d="M104725 75899
L104865 76293
L105006 75899
" />
<path d="M105231 76237
L105259 76265
L105231 76293
L105203 76265
L105231 76237
L105231 76293
" />
<path d="M105231 75928
L105259 75956
L105231 75984
L105203 75956
L105231 75928
L105231 75984
" />
<path d="M106271 76293
L105934 76293
" />
<path d="M106103 76293
L106103 75703
L106046 75787
L105990 75843
L105934 75871
" />
<path d="M106553 76293
L106665 76293
L106721 76265
L106750 76237
L106806 76153
L106834 76040
L106834 75815
L106806 75759
L106778 75731
L106721 75703
L106609 75703
L106553 75731
L106525 75759
L106496 75815
L106496 75956
L106525 76012
L106553 76040
L106609 76068
L106721 76068
L106778 76040
L106806 76012
L106834 75956
" />
<path d="M107396 76293
L107059 76293
" />
<path d="M107228 76293
L107228 75703
L107171 75787
L107115 75843
L107059 75871
" />
<path d="M107959 76293
L107621 76293
" />
<path d="M107790 76293
L107790 75703
L107734 75787
L107678 75843
L107621 75871
" />
<path d="M108324 75703
L108381 75703
L108437 75731
L108465 75759
L108493 75815
L108521 75928
L108521 76068
L108493 76181
L108465 76237
L108437 76265
L108381 76293
L108324 76293
L108268 76265
L108240 76237
L108212 76181
L108184 76068
L108184 75928
L108212 75815
L108240 75759
L108268 75731
L108324 75703
" />
<path d="M109084 76293
L108746 76293
" />
<path d="M108915 76293
L108915 75703
L108859 75787
L108802 75843
L108746 75871
" />
</g>
<g style="fill:#000000; fill-opacity:0.0; 
stroke:#000000; stroke-width:59.0551; stroke-opacity:1; 
stroke-linecap:round; stroke-linejoin:round;">
<path d="M70192 76265
L70276 76293
L70417 76293
L70473 76265
L70501 76237
L70529 76181
L70529 76124
L70501 76068
L70473 76040
L70417 76012
L70304 75984
L70248 75956
L70220 75928
L70192 75871
L70192 75815
L70220 75759
L70248 75731
L70304 75703
L70445 75703
L70529 75731
" />
<path d="M70782 76293
L70782 75899
" />
<path d="M70782 75703
L70754 75731
L70782 75759
L70810 75731
L70782 75703
L70782 75759
" />
<path d="M71007 75899
L71316 75899
L71007 76293
L71316 76293
" />
<path d="M71766 76265
L71710 76293
L71598 76293
L71541 76265
L71513 76209
L71513 75984
L71541 75928
L71598 75899
L71710 75899
L71766 75928
L71795 75984
L71795 76040
L71513 76096
" />
<path d="M72048 76237
L72076 76265
L72048 76293
L72019 76265
L72048 76237
L72048 76293
" />
<path d="M72048 75928
L72076 75956
L72048 75984
L72019 75956
L72048 75928
L72048 75984
" />
<path d="M72751 76124
L73032 76124
" />
<path d="M72694 76293
L72891 75703
L73088 76293
" />
<path d="M73538 75899
L73538 76293
" />
<path d="M73397 75674
L73257 76096
L73622 76096
" />
<path d="M103684 77395
L103684 76805
" />
<path d="M104219 77395
L104219 76805
" />
<path d="M104219 77367
L104162 77395
L104050 77395
L103994 77367
L103965 77339
L103937 77283
L103937 77114
L103965 77058
L103994 77030
L104050 77002
L104162 77002
L104219 77030
" />
<path d="M104500 77339
L104528 77367
L104500 77395
L104472 77367
L104500 77339
L104500 77395
" />
<path d="M104500 77030
L104528 77058
L104500 77086
L104472 77058
L104500 77030
L104500 77086
" />
<path d="M105540 77395
L105203 77395
" />
<path d="M105372 77395
L105372 76805
L105315 76889
L105259 76946
L105203 76974
" />
<path d="M106215 76777
L105709 77536
" />
<path d="M106721 77395
L106384 77395
" />
<path d="M106553 77395
L106553 76805
L106496 76889
L106440 76946
L106384 76974
" />
<path d="M69685 73821
L112205 73821
" />
</g>
<g style="fill:#000000; fill-opacity:0.0; 
stroke:#000000; stroke-width:157.48; stroke-opacity:1; 
stroke-linecap:round; stroke-linejoin:round;">
<path d="M70257 74099
L70707 74099
" />
<path d="M70384 74886
L70482 74099
" />
<path d="M70871 74886
L70937 74361
" />
<path d="M70970 74099
L70927 74136
L70960 74174
L71002 74136
L70970 74099
L70960 74174
" />
<path d="M71199 74361
L71499 74361
" />
<path d="M71345 74099
L71260 74774
L71288 74849
L71359 74886
L71434 74886
" />
<path d="M71809 74886
L71738 74849
L71710 74774
L71795 74099
" />
<path d="M72413 74849
L72334 74886
L72184 74886
L72113 74849
L72085 74774
L72123 74474
L72169 74399
L72249 74361
L72399 74361
L72469 74399
L72498 74474
L72488 74549
L72104 74624
" />
<path d="M72793 74811
L72826 74849
L72783 74886
L72751 74849
L72793 74811
L72783 74886
" />
<path d="M72844 74399
L72877 74436
L72835 74474
L72802 74436
L72844 74399
L72835 74474
" />
<path d="M73758 74886
L73857 74099
L74049 74661
L74382 74099
L74283 74886
" />
<path d="M74658 74886
L74757 74099
L74949 74661
L75282 74099
L75183 74886
" />
<path d="M76031 74099
L75657 74099
L75572 74474
L75614 74436
L75694 74399
L75882 74399
L75952 74436
L75985 74474
L76013 74549
L75989 74736
L75942 74811
L75900 74849
L75821 74886
L75633 74886
L75563 74849
L75530 74811
" />
<path d="M76308 74886
L76406 74099
L76594 74099
L76702 74136
L76767 74211
L76795 74286
L76814 74436
L76800 74549
L76744 74699
L76697 74774
L76613 74849
L76495 74886
L76308 74886
" />
<path d="M78155 74811
L78112 74849
L77995 74886
L77920 74886
L77813 74849
L77747 74774
L77719 74699
L77700 74549
L77714 74436
L77770 74286
L77817 74211
L77902 74136
L78019 74099
L78094 74099
L78202 74136
L78234 74174
" />
<path d="M78595 74886
L78525 74849
L78492 74811
L78464 74736
L78492 74511
L78539 74436
L78581 74399
L78661 74361
L78773 74361
L78844 74399
L78876 74436
L78905 74511
L78876 74736
L78830 74811
L78787 74849
L78708 74886
L78595 74886
" />
<path d="M79261 74361
L79195 74886
" />
<path d="M79251 74436
L79294 74399
L79373 74361
L79486 74361
L79556 74399
L79584 74474
L79533 74886
" />
<path d="M79861 74361
L80161 74361
" />
<path d="M80006 74099
L79922 74774
L79950 74849
L80020 74886
L80095 74886
" />
<path d="M80358 74886
L80423 74361
" />
<path d="M80404 74511
L80451 74436
L80493 74399
L80573 74361
L80648 74361
" />
<path d="M80957 74886
L80887 74849
L80854 74811
L80826 74736
L80854 74511
L80901 74436
L80943 74399
L81023 74361
L81136 74361
L81206 74399
L81239 74436
L81267 74511
L81239 74736
L81192 74811
L81150 74849
L81070 74886
L80957 74886
" />
<path d="M81670 74886
L81600 74849
L81571 74774
L81656 74099
" />
<path d="M82082 74886
L82012 74849
L81984 74774
L82068 74099
" />
<path d="M82382 74886
L82448 74361
" />
<path d="M82481 74099
L82438 74136
L82471 74174
L82513 74136
L82481 74099
L82471 74174
" />
<path d="M82823 74361
L82757 74886
" />
<path d="M82813 74436
L82856 74399
L82935 74361
L83048 74361
L83118 74399
L83146 74474
L83095 74886
" />
<path d="M83873 74361
L83793 74999
L83746 75074
L83704 75111
L83624 75149
L83512 75149
L83441 75111
" />
<path d="M83812 74849
L83732 74886
L83582 74886
L83512 74849
L83479 74811
L83451 74736
L83479 74511
L83526 74436
L83568 74399
L83648 74361
L83798 74361
L83868 74399
" />
<path d="M85119 74886
L85171 74474
L85143 74399
L85073 74361
L84923 74361
L84843 74399
" />
<path d="M85124 74849
L85044 74886
L84857 74886
L84787 74849
L84759 74774
L84768 74699
L84815 74624
L84894 74586
L85082 74586
L85162 74549
" />
<path d="M85560 74361
L85494 74886
" />
<path d="M85551 74436
L85593 74399
L85672 74361
L85785 74361
L85855 74399
L85883 74474
L85832 74886
" />
<path d="M86544 74886
L86643 74099
" />
<path d="M86549 74849
L86469 74886
L86319 74886
L86249 74849
L86216 74811
L86188 74736
L86216 74511
L86263 74436
L86305 74399
L86385 74361
L86535 74361
L86605 74399
" />
<path d="M87519 74886
L87585 74361
" />
<path d="M87566 74511
L87613 74436
L87655 74399
L87735 74361
L87810 74361
" />
<path d="M88311 74849
L88232 74886
L88082 74886
L88011 74849
L87983 74774
L88021 74474
L88067 74399
L88147 74361
L88297 74361
L88367 74399
L88396 74474
L88386 74549
L88002 74624
" />
<path d="M88681 74886
L88747 74361
" />
<path d="M88738 74436
L88780 74399
L88860 74361
L88972 74361
L89042 74399
L89070 74474
L89019 74886
" />
<path d="M89070 74474
L89117 74399
L89197 74361
L89310 74361
L89380 74399
L89408 74474
L89356 74886
" />
<path d="M89844 74886
L89774 74849
L89741 74811
L89713 74736
L89741 74511
L89788 74436
L89830 74399
L89909 74361
L90022 74361
L90092 74399
L90125 74436
L90153 74511
L90125 74736
L90078 74811
L90036 74849
L89956 74886
L89844 74886
" />
<path d="M90397 74361
L90697 74361
" />
<path d="M90542 74099
L90458 74774
L90486 74849
L90556 74886
L90631 74886
" />
<path d="M91198 74849
L91119 74886
L90969 74886
L90898 74849
L90870 74774
L90908 74474
L90955 74399
L91034 74361
L91184 74361
L91255 74399
L91283 74474
L91273 74549
L90889 74624
" />
<path d="M92169 74886
L92234 74361
" />
<path d="M92225 74436
L92267 74399
L92347 74361
L92459 74361
L92529 74399
L92558 74474
L92506 74886
" />
<path d="M92558 74474
L92604 74399
L92684 74361
L92797 74361
L92867 74399
L92895 74474
L92843 74886
" />
<path d="M93331 74886
L93261 74849
L93228 74811
L93200 74736
L93228 74511
L93275 74436
L93317 74399
L93397 74361
L93509 74361
L93579 74399
L93612 74436
L93640 74511
L93612 74736
L93565 74811
L93523 74849
L93443 74886
L93331 74886
" />
<path d="M93996 74361
L93931 74886
" />
<path d="M93987 74436
L94029 74399
L94109 74361
L94221 74361
L94292 74399
L94320 74474
L94268 74886
" />
<path d="M94643 74886
L94709 74361
" />
<path d="M94742 74099
L94699 74136
L94732 74174
L94774 74136
L94742 74099
L94732 74174
" />
<path d="M94971 74361
L95271 74361
" />
<path d="M95117 74099
L95032 74774
L95060 74849
L95131 74886
L95206 74886
" />
<path d="M95581 74886
L95510 74849
L95477 74811
L95449 74736
L95477 74511
L95524 74436
L95567 74399
L95646 74361
L95759 74361
L95829 74399
L95862 74436
L95890 74511
L95862 74736
L95815 74811
L95773 74849
L95693 74886
L95581 74886
" />
<path d="M96181 74886
L96246 74361
" />
<path d="M96227 74511
L96274 74436
L96316 74399
L96396 74361
L96471 74361
" />
<path d="M96668 74886
L96734 74361
" />
<path d="M96766 74099
L96724 74136
L96757 74174
L96799 74136
L96766 74099
L96757 74174
" />
<path d="M97109 74361
L97043 74886
" />
<path d="M97099 74436
L97141 74399
L97221 74361
L97334 74361
L97404 74399
L97432 74474
L97380 74886
" />
<path d="M98158 74361
L98079 74999
L98032 75074
L97990 75111
L97910 75149
L97798 75149
L97727 75111
" />
<path d="M98097 74849
L98018 74886
L97868 74886
L97798 74849
L97765 74811
L97737 74736
L97765 74511
L97812 74436
L97854 74399
L97933 74361
L98083 74361
L98154 74399
" />
<path d="M99372 74849
L99293 74886
L99143 74886
L99072 74849
L99044 74774
L99082 74474
L99129 74399
L99208 74361
L99358 74361
L99429 74399
L99457 74474
L99447 74549
L99063 74624
" />
<path d="M100146 74361
L100047 75149
" />
<path d="M100085 74849
L100005 74886
L99855 74886
L99785 74849
L99752 74811
L99724 74736
L99752 74511
L99799 74436
L99841 74399
L99921 74361
L100071 74361
L100141 74399
" />
<path d="M100858 74361
L100792 74886
" />
<path d="M100521 74361
L100469 74774
L100497 74849
L100567 74886
L100680 74886
L100760 74849
L100802 74811
" />
<path d="M101167 74886
L101233 74361
" />
<path d="M101266 74099
L101224 74136
L101256 74174
L101299 74136
L101266 74099
L101256 74174
" />
<path d="M101608 74361
L101510 75149
" />
<path d="M101603 74399
L101683 74361
L101833 74361
L101903 74399
L101936 74436
L101964 74511
L101936 74736
L101889 74811
L101847 74849
L101767 74886
L101617 74886
L101547 74849
" />
<path d="M102255 74886
L102320 74361
" />
<path d="M102311 74436
L102353 74399
L102433 74361
L102545 74361
L102616 74399
L102644 74474
L102592 74886
" />
<path d="M102644 74474
L102691 74399
L102770 74361
L102883 74361
L102953 74399
L102981 74474
L102930 74886
" />
<path d="M103609 74849
L103530 74886
L103380 74886
L103309 74849
L103281 74774
L103319 74474
L103366 74399
L103445 74361
L103595 74361
L103666 74399
L103694 74474
L103684 74549
L103300 74624
" />
<path d="M104045 74361
L103980 74886
" />
<path d="M104036 74436
L104078 74399
L104158 74361
L104270 74361
L104340 74399
L104369 74474
L104317 74886
" />
<path d="M104645 74361
L104945 74361
" />
<path d="M104790 74099
L104706 74774
L104734 74849
L104804 74886
L104879 74886
" />
</g>
<g style="fill:#000000; fill-opacity:0.0; 
stroke:#000000; stroke-width:59.0551; stroke-opacity:1; 
stroke-linecap:round; stroke-linejoin:round;">
<path d="M70417 73070
L70220 73070
" />
<path d="M70220 73380
L70220 72789
L70501 72789
" />
<path d="M70726 73380
L70726 72986
" />
<path d="M70726 72789
L70698 72817
L70726 72845
L70754 72817
L70726 72789
L70726 72845
" />
<path d="M71091 73380
L71035 73352
L71007 73295
L71007 72789
" />
<path d="M71541 73352
L71485 73380
L71373 73380
L71316 73352
L71288 73295
L71288 73070
L71316 73014
L71373 72986
L71485 72986
L71541 73014
L71570 73070
L71570 73127
L71288 73183
" />
<path d="M71823 73323
L71851 73352
L71823 73380
L71795 73352
L71823 73323
L71823 73380
" />
<path d="M71823 73014
L71851 73042
L71823 73070
L71795 73042
L71823 73014
L71823 73070
" />
<path d="M72807 72986
L72807 73380
" />
<path d="M72554 72986
L72554 73295
L72582 73352
L72638 73380
L72723 73380
L72779 73352
L72807 73323
" />
<path d="M73369 72789
L73088 72789
L73060 73070
L73088 73042
L73144 73014
L73285 73014
L73341 73042
L73369 73070
L73397 73127
L73397 73267
L73369 73323
L73341 73352
L73285 73380
L73144 73380
L73088 73352
L73060 73323
" />
<path d="M73651 73323
L73679 73352
L73651 73380
L73622 73352
L73651 73323
L73651 73380
" />
<path d="M73932 73380
L73932 72789
" />
<path d="M73988 73155
L74157 73380
" />
<path d="M74157 72986
L73932 73211
" />
<path d="M74410 73380
L74410 72986
" />
<path d="M74410 72789
L74382 72817
L74410 72845
L74438 72817
L74410 72789
L74410 72845
" />
<path d="M74944 73352
L74888 73380
L74775 73380
L74719 73352
L74691 73323
L74663 73267
L74663 73099
L74691 73042
L74719 73014
L74775 72986
L74888 72986
L74944 73014
" />
<path d="M75450 73380
L75450 73070
L75422 73014
L75366 72986
L75253 72986
L75197 73014
" />
<path d="M75450 73352
L75394 73380
L75253 73380
L75197 73352
L75169 73295
L75169 73239
L75197 73183
L75253 73155
L75394 73155
L75450 73127
" />
<path d="M75985 73380
L75985 72789
" />
<path d="M75985 73352
L75928 73380
L75816 73380
L75760 73352
L75732 73323
L75703 73267
L75703 73099
L75732 73042
L75760 73014
L75816 72986
L75928 72986
L75985 73014
" />
<path d="M76125 73436
L76575 73436
" />
<path d="M76716 72986
L76716 73577
" />
<path d="M76716 73014
L76772 72986
L76885 72986
L76941 73014
L76969 73042
L76997 73099
L76997 73267
L76969 73323
L76941 73352
L76885 73380
L76772 73380
L76716 73352
" />
<path d="M77503 73352
L77447 73380
L77334 73380
L77278 73352
L77250 73323
L77222 73267
L77222 73099
L77250 73042
L77278 73014
L77334 72986
L77447 72986
L77503 73014
" />
<path d="M77756 73380
L77756 72789
" />
<path d="M77756 73014
L77813 72986
L77925 72986
L77981 73014
L78009 73042
L78037 73099
L78037 73267
L78009 73323
L77981 73352
L77925 73380
L77813 73380
L77756 73352
" />
<path d="M69685 71459
L112205 71459
" />
<path d="M70192 72289
L70276 72317
L70417 72317
L70473 72289
L70501 72260
L70529 72204
L70529 72148
L70501 72092
L70473 72064
L70417 72036
L70304 72007
L70248 71979
L70220 71951
L70192 71895
L70192 71839
L70220 71782
L70248 71754
L70304 71726
L70445 71726
L70529 71754
" />
<path d="M70782 72317
L70782 71726
" />
<path d="M71035 72317
L71035 72007
L71007 71951
L70951 71923
L70867 71923
L70810 71951
L70782 71979
" />
<path d="M71541 72289
L71485 72317
L71373 72317
L71316 72289
L71288 72232
L71288 72007
L71316 71951
L71373 71923
L71485 71923
L71541 71951
L71570 72007
L71570 72064
L71288 72120
" />
<path d="M72048 72289
L71991 72317
L71879 72317
L71823 72289
L71795 72232
L71795 72007
L71823 71951
L71879 71923
L71991 71923
L72048 71951
L72076 72007
L72076 72064
L71795 72120
" />
<path d="M72244 71923
L72469 71923
" />
<path d="M72329 71726
L72329 72232
L72357 72289
L72413 72317
L72469 72317
" />
<path d="M72666 72260
L72694 72289
L72666 72317
L72638 72289
L72666 72260
L72666 72317
" />
<path d="M72666 71951
L72694 71979
L72666 72007
L72638 71979
L72666 71951
L72666 72007
" />
</g>
<g style="fill:#000000; fill-opacity:0.0; 
stroke:#000000; stroke-width:118.11; stroke-opacity:1; 
stroke-linecap:round; stroke-linejoin:round;">
<path d="M70220 71136
L70220 70545
L70445 70545
L70501 70573
L70529 70601
L70557 70658
L70557 70742
L70529 70798
L70501 70826
L70445 70854
L70220 70854
" />
<path d="M70895 71136
L70838 71108
L70810 71079
L70782 71023
L70782 70854
L70810 70798
L70838 70770
L70895 70742
L70979 70742
L71035 70770
L71063 70798
L71091 70854
L71091 71023
L71063 71079
L71035 71108
L70979 71136
L70895 71136
" />
<path d="M71288 70742
L71598 70742
L71288 71136
L71598 71136
" />
<path d="M71795 71108
L71851 71136
L71963 71136
L72019 71108
L72048 71051
L72048 71023
L72019 70967
L71963 70939
L71879 70939
L71823 70911
L71795 70854
L71795 70826
L71823 70770
L71879 70742
L71963 70742
L72019 70770
" />
<path d="M72554 71136
L72554 70826
L72526 70770
L72469 70742
L72357 70742
L72301 70770
" />
<path d="M72554 71108
L72498 71136
L72357 71136
L72301 71108
L72273 71051
L72273 70995
L72301 70939
L72357 70911
L72498 70911
L72554 70883
" />
<path d="M72835 71136
L72835 70742
" />
<path d="M72835 70854
L72863 70798
L72891 70770
L72947 70742
L73004 70742
" />
<path d="M73594 70545
L73988 70545
L73594 71136
L73988 71136
" />
<path d="M74185 71108
L74241 71136
L74354 71136
L74410 71108
L74438 71051
L74438 71023
L74410 70967
L74354 70939
L74269 70939
L74213 70911
L74185 70854
L74185 70826
L74213 70770
L74269 70742
L74354 70742
L74410 70770
" />
<path d="M74775 71136
L74719 71108
L74691 71079
L74663 71023
L74663 70854
L74691 70798
L74719 70770
L74775 70742
L74860 70742
L74916 70770
L74944 70798
L74972 70854
L74972 71023
L74944 71079
L74916 71108
L74860 71136
L74775 71136
" />
<path d="M75310 71136
L75253 71108
L75225 71051
L75225 70545
" />
<path d="M75450 70742
L75675 70742
" />
<path d="M75535 70545
L75535 71051
L75563 71108
L75619 71136
L75675 71136
" />
<path d="M76322 70911
L76772 70911
" />
<path d="M77503 71136
L77503 70545
" />
<path d="M77756 71136
L77756 70826
L77728 70770
L77672 70742
L77588 70742
L77531 70770
L77503 70798
" />
<path d="M77953 70742
L78178 70742
" />
<path d="M78037 70545
L78037 71051
L78066 71108
L78122 71136
L78178 71136
" />
<path d="M78291 70742
L78516 70742
" />
<path d="M78375 70545
L78375 71051
L78403 71108
L78459 71136
L78516 71136
" />
<path d="M78712 70742
L78712 71332
" />
<path d="M78712 70770
L78769 70742
L78881 70742
L78937 70770
L78965 70798
L78994 70854
L78994 71023
L78965 71079
L78937 71108
L78881 71136
L78769 71136
L78712 71108
" />
<path d="M79247 71079
L79275 71108
L79247 71136
L79219 71108
L79247 71079
L79247 71136
" />
<path d="M79247 70770
L79275 70798
L79247 70826
L79219 70798
L79247 70770
L79247 70826
" />
<path d="M79950 70517
L79444 71276
" />
<path d="M80568 70517
L80062 71276
" />
<path d="M80709 70742
L80822 71136
L80934 70854
L81046 71136
L81159 70742
" />
<path d="M81328 70742
L81440 71136
L81553 70854
L81665 71136
L81778 70742
" />
<path d="M81946 70742
L82059 71136
L82171 70854
L82284 71136
L82396 70742
" />
<path d="M82621 71079
L82649 71108
L82621 71136
L82593 71108
L82621 71079
L82621 71136
" />
<path d="M82874 71108
L82931 71136
L83043 71136
L83099 71108
L83127 71051
L83127 71023
L83099 70967
L83043 70939
L82959 70939
L82903 70911
L82874 70854
L82874 70826
L82903 70770
L82959 70742
L83043 70742
L83099 70770
" />
<path d="M83324 70742
L83634 70742
L83324 71136
L83634 71136
" />
<path d="M84084 71108
L84027 71136
L83915 71136
L83859 71108
L83831 71051
L83831 70826
L83859 70770
L83915 70742
L84027 70742
L84084 70770
L84112 70826
L84112 70883
L83831 70939
" />
<path d="M84365 71136
L84365 70742
" />
<path d="M84365 70854
L84393 70798
L84421 70770
L84477 70742
L84534 70742
" />
<path d="M84983 71136
L84983 70826
L84955 70770
L84899 70742
L84787 70742
L84730 70770
" />
<path d="M84983 71108
L84927 71136
L84787 71136
L84730 71108
L84702 71051
L84702 70995
L84730 70939
L84787 70911
L84927 70911
L84983 70883
" />
<path d="M85180 70742
L85405 70742
" />
<path d="M85265 71136
L85265 70629
L85293 70573
L85349 70545
L85405 70545
" />
<path d="M85602 71136
L85602 70742
" />
<path d="M85602 70545
L85574 70573
L85602 70601
L85630 70573
L85602 70545
L85602 70601
" />
<path d="M85883 70742
L85883 71136
" />
<path d="M85883 70798
L85912 70770
L85968 70742
L86052 70742
L86108 70770
L86136 70826
L86136 71136
" />
<path d="M86671 70742
L86671 71220
L86643 71276
L86615 71304
L86558 71332
L86474 71332
L86418 71304
" />
<path d="M86671 71108
L86615 71136
L86502 71136
L86446 71108
L86418 71079
L86390 71023
L86390 70854
L86418 70798
L86446 70770
L86502 70742
L86615 70742
L86671 70770
" />
<path d="M87036 71136
L86980 71108
L86952 71079
L86924 71023
L86924 70854
L86952 70798
L86980 70770
L87036 70742
L87121 70742
L87177 70770
L87205 70798
L87233 70854
L87233 71023
L87205 71079
L87177 71108
L87121 71136
L87036 71136
" />
<path d="M87486 71136
L87486 70742
" />
<path d="M87486 70798
L87514 70770
L87571 70742
L87655 70742
L87711 70770
L87739 70826
L87739 71136
" />
<path d="M87739 70826
L87768 70770
L87824 70742
L87908 70742
L87964 70770
L87992 70826
L87992 71136
" />
<path d="M88274 71136
L88274 70545
" />
<path d="M88274 70770
L88330 70742
L88442 70742
L88499 70770
L88527 70798
L88555 70854
L88555 71023
L88527 71079
L88499 71108
L88442 71136
L88330 71136
L88274 71108
" />
<path d="M89061 71136
L89061 70826
L89033 70770
L88977 70742
L88864 70742
L88808 70770
" />
<path d="M89061 71108
L89005 71136
L88864 71136
L88808 71108
L88780 71051
L88780 70995
L88808 70939
L88864 70911
L89005 70911
L89061 70883
" />
<path d="M89342 71079
L89370 71108
L89342 71136
L89314 71108
L89342 71079
L89342 71136
" />
<path d="M89624 71136
L89624 70545
" />
<path d="M89877 71136
L89877 70826
L89849 70770
L89792 70742
L89708 70742
L89652 70770
L89624 70798
" />
<path d="M90411 70742
L90411 71136
" />
<path d="M90158 70742
L90158 71051
L90186 71108
L90242 71136
L90327 71136
L90383 71108
L90411 71079
" />
</g>
<g style="fill:#000000; fill-opacity:0.0; 
stroke:#000000; stroke-width:59.0551; stroke-opacity:1; 
stroke-linecap:round; stroke-linejoin:round;">
<path d="M70220 69955
L70220 69364
L70417 69786
L70613 69364
L70613 69955
" />
<path d="M70979 69955
L70923 69926
L70895 69898
L70867 69842
L70867 69673
L70895 69617
L70923 69589
L70979 69561
L71063 69561
L71120 69589
L71148 69617
L71176 69673
L71176 69842
L71148 69898
L71120 69926
L71063 69955
L70979 69955
" />
<path d="M71682 69955
L71682 69364
" />
<path d="M71682 69926
L71626 69955
L71513 69955
L71457 69926
L71429 69898
L71401 69842
L71401 69673
L71429 69617
L71457 69589
L71513 69561
L71626 69561
L71682 69589
" />
<path d="M72216 69561
L72216 69955
" />
<path d="M71963 69561
L71963 69870
L71991 69926
L72048 69955
L72132 69955
L72188 69926
L72216 69898
" />
<path d="M72582 69955
L72526 69926
L72498 69870
L72498 69364
" />
<path d="M73032 69926
L72976 69955
L72863 69955
L72807 69926
L72779 69870
L72779 69645
L72807 69589
L72863 69561
L72976 69561
L73032 69589
L73060 69645
L73060 69701
L72779 69758
" />
<path d="M73763 69364
L73763 69842
L73791 69898
L73819 69926
L73876 69955
L73988 69955
L74044 69926
L74072 69898
L74100 69842
L74100 69364
" />
<path d="M74663 69364
L74382 69364
L74354 69645
L74382 69617
L74438 69589
L74579 69589
L74635 69617
L74663 69645
L74691 69701
L74691 69842
L74663 69898
L74635 69926
L74579 69955
L74438 69955
L74382 69926
L74354 69898
" />
<path d="M70220 68773
L70220 68183
" />
<path d="M70501 68380
L70501 68773
" />
<path d="M70501 68436
L70529 68408
L70585 68380
L70670 68380
L70726 68408
L70754 68464
L70754 68773
" />
<path d="M71035 68380
L71035 68970
" />
<path d="M71035 68408
L71091 68380
L71204 68380
L71260 68408
L71288 68436
L71316 68492
L71316 68661
L71288 68717
L71260 68745
L71204 68773
L71091 68773
L71035 68745
" />
<path d="M71823 68380
L71823 68773
" />
<path d="M71570 68380
L71570 68689
L71598 68745
L71654 68773
L71738 68773
L71795 68745
L71823 68717
" />
<path d="M72019 68380
L72244 68380
" />
<path d="M72104 68183
L72104 68689
L72132 68745
L72188 68773
L72244 68773
" />
<path d="M72413 68745
L72469 68773
L72582 68773
L72638 68745
L72666 68689
L72666 68661
L72638 68605
L72582 68577
L72498 68577
L72441 68548
L72413 68492
L72413 68464
L72441 68408
L72498 68380
L72582 68380
L72638 68408
" />
<path d="M70220 66411
L70220 65821
L70360 65821
L70445 65849
L70501 65905
L70529 65961
L70557 66074
L70557 66158
L70529 66271
L70501 66327
L70445 66383
L70360 66411
L70220 66411
" />
<path d="M70810 66411
L70810 66018
" />
<path d="M70810 66130
L70838 66074
L70867 66046
L70923 66018
L70979 66018
" />
<path d="M71429 66411
L71429 66102
L71401 66046
L71345 66018
L71232 66018
L71176 66046
" />
<path d="M71429 66383
L71373 66411
L71232 66411
L71176 66383
L71148 66327
L71148 66271
L71176 66214
L71232 66186
L71373 66186
L71429 66158
" />
<path d="M71654 66018
L71766 66411
L71879 66130
L71991 66411
L72104 66018
" />
<path d="M72779 66018
L72779 66411
" />
<path d="M72779 66074
L72807 66046
L72863 66018
L72947 66018
L73004 66046
L73032 66102
L73032 66411
" />
<path d="M73397 66411
L73341 66383
L73313 66355
L73285 66299
L73285 66130
L73313 66074
L73341 66046
L73397 66018
L73482 66018
L73538 66046
L73566 66074
L73594 66130
L73594 66299
L73566 66355
L73538 66383
L73482 66411
L73397 66411
" />
<path d="M73847 66355
L73876 66383
L73847 66411
L73819 66383
L73847 66355
L73847 66411
" />
<path d="M74129 66355
L74157 66383
L74129 66411
L74100 66383
L74129 66355
L74129 66411
" />
<path d="M74129 66046
L74157 66074
L74129 66102
L74100 66074
L74129 66046
L74129 66102
" />
<path d="M75141 65821
L74860 65821
L74832 66102
L74860 66074
L74916 66046
L75057 66046
L75113 66074
L75141 66102
L75169 66158
L75169 66299
L75141 66355
L75113 66383
L75057 66411
L74916 66411
L74860 66383
L74832 66355
" />
<path d="M75450 66411
L75563 66411
L75619 66383
L75647 66355
L75703 66271
L75732 66158
L75732 65933
L75703 65877
L75675 65849
L75619 65821
L75507 65821
L75450 65849
L75422 65877
L75394 65933
L75394 66074
L75422 66130
L75450 66158
L75507 66186
L75619 66186
L75675 66158
L75703 66130
L75732 66074
" />
<path d="M76406 65793
L75900 66552
" />
<path d="M76885 65821
L76603 65821
L76575 66102
L76603 66074
L76660 66046
L76800 66046
L76856 66074
L76885 66102
L76913 66158
L76913 66299
L76885 66355
L76856 66383
L76800 66411
L76660 66411
L76603 66383
L76575 66355
" />
<path d="M77588 65793
L77081 66552
" />
<path d="M77869 66074
L77813 66046
L77784 66018
L77756 65961
L77756 65933
L77784 65877
L77813 65849
L77869 65821
L77981 65821
L78037 65849
L78066 65877
L78094 65933
L78094 65961
L78066 66018
L78037 66046
L77981 66074
L77869 66074
L77813 66102
L77784 66130
L77756 66186
L77756 66299
L77784 66355
L77813 66383
L77869 66411
L77981 66411
L78037 66383
L78066 66355
L78094 66299
L78094 66186
L78066 66130
L78037 66102
L77981 66074
" />
<path d="M77559 75396
L77559 76577
" />
<path d="M102756 75396
L102756 77955
" />
</g>
<g style="fill:#000000; fill-opacity:0.0; 
stroke:#000000; stroke-width:118.11; stroke-opacity:1; 
stroke-linecap:round; stroke-linejoin:round;">
<path d="M62417 36232
L62445 36204
L62501 36176
L62642 36176
L62698 36204
L62726 36232
L62755 36289
L62755 36345
L62726 36429
L62389 36767
L62755 36767
" />
<path d="M63120 36176
L63176 36176
L63233 36204
L63261 36232
L63289 36289
L63317 36401
L63317 36542
L63289 36654
L63261 36710
L63233 36739
L63176 36767
L63120 36767
L63064 36739
L63036 36710
L63008 36654
L62980 36542
L62980 36401
L63008 36289
L63036 36232
L63064 36204
L63120 36176
" />
<path d="M63879 36767
L63542 36767
" />
<path d="M63711 36767
L63711 36176
L63654 36260
L63598 36317
L63542 36345
" />
<path d="M64161 36767
L64273 36767
L64329 36739
L64358 36710
L64414 36626
L64442 36514
L64442 36289
L64414 36232
L64386 36204
L64329 36176
L64217 36176
L64161 36204
L64133 36232
L64104 36289
L64104 36429
L64133 36485
L64161 36514
L64217 36542
L64329 36542
L64386 36514
L64414 36485
L64442 36429
" />
<path d="M69669 31267
L69669 30676
L69866 31098
L70063 30676
L70063 31267
" />
<path d="M70344 31267
L70344 30676
L70541 31098
L70737 30676
L70737 31267
" />
<path d="M71300 30676
L71019 30676
L70991 30957
L71019 30929
L71075 30901
L71215 30901
L71272 30929
L71300 30957
L71328 31014
L71328 31154
L71300 31210
L71272 31239
L71215 31267
L71075 31267
L71019 31239
L70991 31210
" />
<path d="M71581 31267
L71581 30676
L71722 30676
L71806 30704
L71862 30760
L71890 30817
L71919 30929
L71919 31014
L71890 31126
L71862 31182
L71806 31239
L71722 31267
L71581 31267
" />
<path d="M72593 30648
L72087 31407
" />
<path d="M72790 30676
L72790 31154
L72818 31210
L72847 31239
L72903 31267
L73015 31267
L73072 31239
L73100 31210
L73128 31154
L73128 30676
" />
<path d="M73690 30676
L73409 30676
L73381 30957
L73409 30929
L73465 30901
L73606 30901
L73662 30929
L73690 30957
L73718 31014
L73718 31154
L73690 31210
L73662 31239
L73606 31267
L73465 31267
L73409 31239
L73381 31210
" />
<path d="M57758 48017
L57758 47426
L57899 47426
L57983 47454
L58039 47510
L58067 47567
L58095 47679
L58095 47764
L58067 47876
L58039 47932
L57983 47989
L57899 48017
L57758 48017
" />
<path d="M58349 47623
L58349 48017
" />
<path d="M58349 47679
L58377 47651
L58433 47623
L58517 47623
L58573 47651
L58602 47707
L58602 48017
" />
<path d="M58883 47960
L58911 47989
L58883 48017
L58855 47989
L58883 47960
L58883 48017
" />
<path d="M59164 47960
L59192 47989
L59164 48017
L59136 47989
L59164 47960
L59164 48017
" />
<path d="M59164 47651
L59192 47679
L59164 47707
L59136 47679
L59164 47651
L59164 47707
" />
<path d="M60176 47426
L59895 47426
L59867 47707
L59895 47679
L59951 47651
L60092 47651
L60148 47679
L60176 47707
L60205 47764
L60205 47904
L60176 47960
L60148 47989
L60092 48017
L59951 48017
L59895 47989
L59867 47960
" />
<path d="M60486 48017
L60598 48017
L60654 47989
L60683 47960
L60739 47876
L60767 47764
L60767 47539
L60739 47482
L60711 47454
L60654 47426
L60542 47426
L60486 47454
L60458 47482
L60430 47539
L60430 47679
L60458 47735
L60486 47764
L60542 47792
L60654 47792
L60711 47764
L60739 47735
L60767 47679
" />
<path d="M61442 47398
L60936 48157
" />
<path d="M61920 47426
L61639 47426
L61611 47707
L61639 47679
L61695 47651
L61836 47651
L61892 47679
L61920 47707
L61948 47764
L61948 47904
L61920 47960
L61892 47989
L61836 48017
L61695 48017
L61639 47989
L61611 47960
" />
<path d="M62623 47398
L62117 48157
" />
<path d="M62904 47679
L62848 47651
L62820 47623
L62792 47567
L62792 47539
L62820 47482
L62848 47454
L62904 47426
L63017 47426
L63073 47454
L63101 47482
L63129 47539
L63129 47567
L63101 47623
L63073 47651
L63017 47679
L62904 47679
L62848 47707
L62820 47735
L62792 47792
L62792 47904
L62820 47960
L62848 47989
L62904 48017
L63017 48017
L63073 47989
L63101 47960
L63129 47904
L63129 47792
L63101 47735
L63073 47707
L63017 47679
" />
</g>
<g style="fill:#000000; fill-opacity:0.0; 
stroke:#000000; stroke-width:59.0551; stroke-opacity:1; 
stroke-linecap:round; stroke-linejoin:round;">
<path d="M49430 28000
L77430 28000
" />
<path d="M49430 50500
L49430 28000
" />
<path d="M77430 50500
L49430 50500
" />
<path d="M77430 28000
L77430 50500
" />
</g>
<g style="fill:#000000; fill-opacity:0.0; 
stroke:#000000; stroke-width:680; stroke-opacity:1; 
stroke-linecap:round; stroke-linejoin:round;">
<path d="M66990 43000
L66870 43000
" />
<path d="M66990 48000
L66870 48000
" />
<path d="M66990 47000
L66870 47000
" />
<path d="M66990 46000
L66870 46000
" />
<path d="M66990 45000
L66870 45000
" />
<path d="M66990 44000
L66870 44000
" />
</g>
<g style="fill:#000000; fill-opacity:0.0; 
stroke:#000000; stroke-width:0; stroke-opacity:1; 
stroke-linecap:round; stroke-linejoin:round;">
</g>
<g style="fill:#000000; fill-opacity:1.0; 
stroke:#000000; stroke-width:0; stroke-opacity:1; 
stroke-linecap:round; stroke-linejoin:round;">
<polyline style="fill-rule:evenodd;"
points="71330,43340
71330,42660
70530,42660
70530,43340
71330,43340
" /> 
</g>
<g style="fill:#000000; fill-opacity:1.0; 
stroke:#000000; stroke-width:680; stroke-opacity:1; 
stroke-linecap:round; stroke-linejoin:round;">
</g>
<g style="fill:#000000; fill-opacity:0.0; 
stroke:#000000; stroke-width:680; stroke-opacity:1; 
stroke-linecap:round; stroke-linejoin:round;">
<path d="M70990 44000
L70870 44000
" />
<path d="M70990 45000
L70870 45000
" />
<path d="M70990 46000
L70870 46000
" />
<path d="M70990 47000
L70870 47000
" />
<path d="M70990 48000
L70870 48000
" />
</g>
<g style="fill:#000000; fill-opacity:1.0; 
stroke:#000000; stroke-width:0; stroke-opacity:1; 
stroke-linecap:round; stroke-linejoin:round;">
<circle cx="63430" cy="34000" r="300" /> 
</g>
<g style="fill:#000000; fill-opacity:1.0; 
stroke:#000000; stroke-width:59.0551; stroke-opacity:1; 
stroke-linecap:round; stroke-linejoin:round;">
</g>
<g style="fill:#000000; fill-opacity:1.0; 
stroke:#000000; stroke-width:0; stroke-opacity:1; 
stroke-linecap:round; stroke-linejoin:round;">
<circle cx="63430" cy="30000" r="300" /> 
</g>
<g style="fill:#000000; fill-opacity:1.0; 
stroke:#000000; stroke-width:59.0551; stroke-opacity:1; 
stroke-linecap:round; stroke-linejoin:round;">
</g>
<g style="fill:#000000; fill-opacity:1.0; 
stroke:#000000; stroke-width:0; stroke-opacity:1; 
stroke-linecap:round; stroke-linejoin:round;">
<circle cx="59930" cy="44000" r="300" /> 
</g>
<g style="fill:#000000; fill-opacity:1.0; 
stroke:#000000; stroke-width:59.0551; stroke-opacity:1; 
stroke-linecap:round; stroke-linejoin:round;">
</g>
<g style="fill:#000000; fill-opacity:1.0; 
stroke:#000000; stroke-width:0; stroke-opacity:1; 
stroke-linecap:round; stroke-linejoin:round;">
<circle cx="55930" cy="44000" r="300" /> 
</g>
<g style="fill:#000000; fill-opacity:1.0; 
stroke:#000000; stroke-width:59.0551; stroke-opacity:1; 
stroke-linecap:round; stroke-linejoin:round;">
</g>
<g style="fill:#000000; fill-opacity:1.0; 
stroke:#000000; stroke-width:0; stroke-opacity:1; 
stroke-linecap:round; stroke-linejoin:round;">
<circle cx="63430" cy="42000" r="300" /> 
</g>
<g style="fill:#000000; fill-opacity:1.0; 
stroke:#000000; stroke-width:59.0551; stroke-opacity:1; 
stroke-linecap:round; stroke-linejoin:round;">
</g>
<g style="fill:#000000; fill-opacity:1.0; 
stroke:#000000; stroke-width:0; stroke-opacity:1; 
stroke-linecap:round; stroke-linejoin:round;">
<circle cx="63430" cy="38000" r="300" /> 
</g>
<g style="fill:#000000; fill-opacity:1.0; 
stroke:#000000; stroke-width:59.0551; stroke-opacity:1; 
stroke-linecap:round; stroke-linejoin:round;">
</g>
<g style="fill:#000000; fill-opacity:1.0; 
stroke:#000000; stroke-width:0; stroke-opacity:1; 
stroke-linecap:round; stroke-linejoin:round;">
<circle cx="61930" cy="35000" r="300" /> 
</g>
<g style="fill:#000000; fill-opacity:1.0; 
stroke:#000000; stroke-width:59.0551; stroke-opacity:1; 
stroke-linecap:round; stroke-linejoin:round;">
</g>
<g style="fill:#000000; fill-opacity:1.0; 
stroke:#000000; stroke-width:0; stroke-opacity:1; 
stroke-linecap:round; stroke-linejoin:round;">
<circle cx="61930" cy="31000" r="300" /> 
</g>
<g style="fill:#000000; fill-opacity:1.0; 
stroke:#000000; stroke-width:59.0551; stroke-opacity:1; 
stroke-linecap:round; stroke-linejoin:round;">
</g>
<g style="fill:#000000; fill-opacity:1.0; 
stroke:#000000; stroke-width:0; stroke-opacity:1; 
stroke-linecap:round; stroke-linejoin:round;">
<circle cx="59930" cy="35000" r="300" /> 
</g>
<g style="fill:#000000; fill-opacity:1.0; 
stroke:#000000; stroke-width:59.0551; stroke-opacity:1; 
stroke-linecap:round; stroke-linejoin:round;">
</g>
<g style="fill:#000000; fill-opacity:1.0; 
stroke:#000000; stroke-width:0; stroke-opacity:1; 
stroke-linecap:round; stroke-linejoin:round;">
<circle cx="55930" cy="35000" r="300" /> 
</g>
<g style="fill:#000000; fill-opacity:1.0; 
stroke:#000000; stroke-width:59.0551; stroke-opacity:1; 
stroke-linecap:round; stroke-linejoin:round;">
</g>
<g style="fill:#000000; fill-opacity:1.0; 
stroke:#000000; stroke-width:0; stroke-opacity:1; 
stroke-linecap:round; stroke-linejoin:round;">
<polyline style="fill-rule:evenodd;"
points="53922,40492
53922,39508
52938,39508
52938,40492
53922,40492
" /> 
<circle cx="53430" cy="42500" r="492" /> 
</g>
<g style="fill:#000000; fill-opacity:1.0; 
stroke:#000000; stroke-width:59.0551; stroke-opacity:1; 
stroke-linecap:round; stroke-linejoin:round;">
</g>
<g style="fill:#000000; fill-opacity:1.0; 
stroke:#000000; stroke-width:0; stroke-opacity:1; 
stroke-linecap:round; stroke-linejoin:round;">
<polyline style="fill-rule:evenodd;"
points="53922,46992
53922,46008
52938,46008
52938,46992
53922,46992
" /> 
<circle cx="53430" cy="44500" r="492" /> 
</g>
<g style="fill:#000000; fill-opacity:1.0; 
stroke:#000000; stroke-width:59.0551; stroke-opacity:1; 
stroke-linecap:round; stroke-linejoin:round;">
</g>
<g style="fill:#000000; fill-opacity:1.0; 
stroke:#000000; stroke-width:0; stroke-opacity:1; 
stroke-linecap:round; stroke-linejoin:round;">
<circle cx="53430" cy="36000" r="492" /> 
</g>
<g style="fill:#000000; fill-opacity:1.0; 
stroke:#000000; stroke-width:59.0551; stroke-opacity:1; 
stroke-linecap:round; stroke-linejoin:round;">
</g>
<g style="fill:#000000; fill-opacity:1.0; 
stroke:#000000; stroke-width:0; stroke-opacity:1; 
stroke-linecap:round; stroke-linejoin:round;">
<circle cx="53430" cy="38000" r="492" /> 
</g>
<g style="fill:#000000; fill-opacity:1.0; 
stroke:#000000; stroke-width:59.0551; stroke-opacity:1; 
stroke-linecap:round; stroke-linejoin:round;">
</g>
<g style="fill:#000000; fill-opacity:1.0; 
stroke:#000000; stroke-width:0; stroke-opacity:1; 
stroke-linecap:round; stroke-linejoin:round;">
<circle cx="53430" cy="34000" r="492" /> 
</g>
<g style="fill:#000000; fill-opacity:1.0; 
stroke:#000000; stroke-width:59.0551; stroke-opacity:1; 
stroke-linecap:round; stroke-linejoin:round;">
</g>
<g style="fill:#000000; fill-opacity:1.0; 
stroke:#000000; stroke-width:0; stroke-opacity:1; 
stroke-linecap:round; stroke-linejoin:round;">
<circle cx="75430" cy="49000" r="1062.99" /> 
</g>
<g style="fill:#000000; fill-opacity:1.0; 
stroke:#000000; stroke-width:59.0551; stroke-opacity:1; 
stroke-linecap:round; stroke-linejoin:round;">
</g>
<g style="fill:#000000; fill-opacity:1.0; 
stroke:#000000; stroke-width:0; stroke-opacity:1; 
stroke-linecap:round; stroke-linejoin:round;">
<circle cx="51430" cy="29500" r="1062.99" /> 
</g>
<g style="fill:#000000; fill-opacity:1.0; 
stroke:#000000; stroke-width:59.0551; stroke-opacity:1; 
stroke-linecap:round; stroke-linejoin:round;">
</g>
<g style="fill:#000000; fill-opacity:1.0; 
stroke:#000000; stroke-width:0; stroke-opacity:1; 
stroke-linecap:round; stroke-linejoin:round;">
<circle cx="75430" cy="29500" r="1062.99" /> 
</g>
<g style="fill:#000000; fill-opacity:1.0; 
stroke:#000000; stroke-width:59.0551; stroke-opacity:1; 
stroke-linecap:round; stroke-linejoin:round;">
</g>
<g style="fill:#000000; fill-opacity:1.0; 
stroke:#000000; stroke-width:0; stroke-opacity:1; 
stroke-linecap:round; stroke-linejoin:round;">
<circle cx="51430" cy="49000" r="1062.99" /> 
</g>
<g style="fill:#000000; fill-opacity:1.0; 
stroke:#000000; stroke-width:59.0551; stroke-opacity:1; 
stroke-linecap:round; stroke-linejoin:round;">
</g>
<g style="fill:#000000; fill-opacity:1.0; 
stroke:#000000; stroke-width:680; stroke-opacity:1; 
stroke-linecap:round; stroke-linejoin:round;">
</g>
<g style="fill:#000000; fill-opacity:0.0; 
stroke:#000000; stroke-width:680; stroke-opacity:1; 
stroke-linecap:round; stroke-linejoin:round;">
<path d="M66990 34000
L66870 34000
" />
<path d="M66990 39000
L66870 39000
" />
<path d="M66990 38000
L66870 38000
" />
<path d="M66990 37000
L66870 37000
" />
<path d="M66990 36000
L66870 36000
" />
<path d="M66990 35000
L66870 35000
" />
</g>
<g style="fill:#000000; fill-opacity:0.0; 
stroke:#000000; stroke-width:0; stroke-opacity:1; 
stroke-linecap:round; stroke-linejoin:round;">
</g>
<g style="fill:#000000; fill-opacity:1.0; 
stroke:#000000; stroke-width:0; stroke-opacity:1; 
stroke-linecap:round; stroke-linejoin:round;">
<polyline style="fill-rule:evenodd;"
points="71330,34340
71330,33660
70530,33660
70530,34340
71330,34340
" /> 
</g>
<g style="fill:#000000; fill-opacity:1.0; 
stroke:#000000; stroke-width:680; stroke-opacity:1; 
stroke-linecap:round; stroke-linejoin:round;">
</g>
<g style="fill:#000000; fill-opacity:0.0; 
stroke:#000000; stroke-width:680; stroke-opacity:1; 
stroke-linecap:round; stroke-linejoin:round;">
<path d="M70990 35000
L70870 35000
" />
<path d="M70990 36000
L70870 36000
" />
<path d="M70990 37000
L70870 37000
" />
<path d="M70990 38000
L70870 38000
" />
<path d="M70990 39000
L70870 39000
" />
</g>
<g style="fill:#000000; fill-opacity:0.0; 
stroke:#000000; stroke-width:0; stroke-opacity:1; 
stroke-linecap:round; stroke-linejoin:round;">
</g>
<g style="fill:#000000; fill-opacity:1.0; 
stroke:#000000; stroke-width:0; stroke-opacity:1; 
stroke-linecap:round; stroke-linejoin:round;">
<polyline style="fill-rule:evenodd;"
points="74330,35160
73530,35160
73530,35840
74330,35840
74330,35160
" /> 
</g>
<g style="fill:#000000; fill-opacity:1.0; 
stroke:#000000; stroke-width:680; stroke-opacity:1; 
stroke-linecap:round; stroke-linejoin:round;">
</g>
<g style="fill:#000000; fill-opacity:0.0; 
stroke:#000000; stroke-width:680; stroke-opacity:1; 
stroke-linecap:round; stroke-linejoin:round;">
<path d="M73870 36500
L73990 36500
" />
<path d="M73870 37500
L73990 37500
" />
<path d="M73870 38500
L73990 38500
" />
<path d="M73870 39500
L73990 39500
" />
<path d="M73870 40500
L73990 40500
" />
<path d="M73870 41500
L73990 41500
" />
<path d="M73870 42500
L73990 42500
" />
</g>
<g style="fill:#000000; fill-opacity:1.0; 
stroke:#000000; stroke-width:0; stroke-opacity:1; 
stroke-linecap:round; stroke-linejoin:round;">
<circle cx="53430" cy="32000" r="492" /> 
</g>
<g style="fill:#000000; fill-opacity:1.0; 
stroke:#000000; stroke-width:59.0551; stroke-opacity:1; 
stroke-linecap:round; stroke-linejoin:round;">
</g>
<g style="fill:#000000; fill-opacity:1.0; 
stroke:#000000; stroke-width:0; stroke-opacity:1; 
stroke-linecap:round; stroke-linejoin:round;">
<circle cx="59930" cy="32000" r="300" /> 
</g>
<g style="fill:#000000; fill-opacity:1.0; 
stroke:#000000; stroke-width:59.0551; stroke-opacity:1; 
stroke-linecap:round; stroke-linejoin:round;">
</g>
<g style="fill:#000000; fill-opacity:1.0; 
stroke:#000000; stroke-width:0; stroke-opacity:1; 
stroke-linecap:round; stroke-linejoin:round;">
<circle cx="55930" cy="32000" r="300" /> 
</g>
<g style="fill:#000000; fill-opacity:1.0; 
stroke:#000000; stroke-width:59.0551; stroke-opacity:1; 
stroke-linecap:round; stroke-linejoin:round;">
</g>
<g style="fill:#000000; fill-opacity:1.0; 
stroke:#000000; stroke-width:0; stroke-opacity:1; 
stroke-linecap:round; stroke-linejoin:round;">
<circle cx="59930" cy="38000" r="300" /> 
</g>
<g style="fill:#000000; fill-opacity:1.0; 
stroke:#000000; stroke-width:59.0551; stroke-opacity:1; 
stroke-linecap:round; stroke-linejoin:round;">
</g>
<g style="fill:#000000; fill-opacity:1.0; 
stroke:#000000; stroke-width:0; stroke-opacity:1; 
stroke-linecap:round; stroke-linejoin:round;">
<circle cx="55930" cy="38000" r="300" /> 
</g>
<g style="fill:#000000; fill-opacity:1.0; 
stroke:#000000; stroke-width:59.0551; stroke-opacity:1; 
stroke-linecap:round; stroke-linejoin:round;">
</g>
<g style="fill:#000000; fill-opacity:1.0; 
stroke:#000000; stroke-width:0; stroke-opacity:1; 
stroke-linecap:round; stroke-linejoin:round;">
<circle cx="59930" cy="41000" r="300" /> 
</g>
<g style="fill:#000000; fill-opacity:1.0; 
stroke:#000000; stroke-width:59.0551; stroke-opacity:1; 
stroke-linecap:round; stroke-linejoin:round;">
</g>
<g style="fill:#000000; fill-opacity:1.0; 
stroke:#000000; stroke-width:0; stroke-opacity:1; 
stroke-linecap:round; stroke-linejoin:round;">
<circle cx="55930" cy="41000" r="300" /> 
</g>
<g style="fill:#000000; fill-opacity:1.0; 
stroke:#000000; stroke-width:59.0551; stroke-opacity:1; 
stroke-linecap:round; stroke-linejoin:round;">
</g>
<g style="fill:#000000; fill-opacity:1.0; 
stroke:#000000; stroke-width:0; stroke-opacity:1; 
stroke-linecap:round; stroke-linejoin:round;">
<circle cx="61930" cy="43000" r="300" /> 
</g>
<g style="fill:#000000; fill-opacity:1.0; 
stroke:#000000; stroke-width:59.0551; stroke-opacity:1; 
stroke-linecap:round; stroke-linejoin:round;">
</g>
<g style="fill:#000000; fill-opacity:1.0; 
stroke:#000000; stroke-width:0; stroke-opacity:1; 
stroke-linecap:round; stroke-linejoin:round;">
<circle cx="61930" cy="39000" r="300" /> 
</g>
<g style="fill:#000000; fill-opacity:1.0; 
stroke:#000000; stroke-width:59.0551; stroke-opacity:1; 
stroke-linecap:round; stroke-linejoin:round;">
</g>
<g style="fill:#000000; fill-opacity:1.0; 
stroke:#000000; stroke-width:0; stroke-opacity:1; 
stroke-linecap:round; stroke-linejoin:round;">
<circle cx="55930" cy="33500" r="350" /> 
</g>
<g style="fill:#000000; fill-opacity:1.0; 
stroke:#000000; stroke-width:59.0551; stroke-opacity:1; 
stroke-linecap:round; stroke-linejoin:round;">
</g>
<g style="fill:#000000; fill-opacity:1.0; 
stroke:#000000; stroke-width:0; stroke-opacity:1; 
stroke-linecap:round; stroke-linejoin:round;">
<polyline style="fill-rule:evenodd;"
points="59580,33150
59580,33850
60280,33850
60280,33150
59580,33150
" /> 
<circle cx="55930" cy="36500" r="350" /> 
</g>
<g style="fill:#000000; fill-opacity:1.0; 
stroke:#000000; stroke-width:59.0551; stroke-opacity:1; 
stroke-linecap:round; stroke-linejoin:round;">
</g>
<g style="fill:#000000; fill-opacity:1.0; 
stroke:#000000; stroke-width:0; stroke-opacity:1; 
stroke-linecap:round; stroke-linejoin:round;">
<polyline style="fill-rule:evenodd;"
points="59580,36150
59580,36850
60280,36850
60280,36150
59580,36150
" /> 
<circle cx="55930" cy="39500" r="350" /> 
</g>
<g style="fill:#000000; fill-opacity:1.0; 
stroke:#000000; stroke-width:59.0551; stroke-opacity:1; 
stroke-linecap:round; stroke-linejoin:round;">
</g>
<g style="fill:#000000; fill-opacity:1.0; 
stroke:#000000; stroke-width:0; stroke-opacity:1; 
stroke-linecap:round; stroke-linejoin:round;">
<polyline style="fill-rule:evenodd;"
points="59580,39150
59580,39850
60280,39850
60280,39150
59580,39150
" /> 
<circle cx="55930" cy="42500" r="350" /> 
</g>
<g style="fill:#000000; fill-opacity:1.0; 
stroke:#000000; stroke-width:59.0551; stroke-opacity:1; 
stroke-linecap:round; stroke-linejoin:round;">
</g>
<g style="fill:#000000; fill-opacity:1.0; 
stroke:#000000; stroke-width:0; stroke-opacity:1; 
stroke-linecap:round; stroke-linejoin:round;">
<polyline style="fill-rule:evenodd;"
points="59580,42150
59580,42850
60280,42850
60280,42150
59580,42150
" /> 
<circle cx="64930" cy="42000" r="393.5" /> 
</g>
<g style="fill:#000000; fill-opacity:1.0; 
stroke:#000000; stroke-width:59.0551; stroke-opacity:1; 
stroke-linecap:round; stroke-linejoin:round;">
</g>
<g style="fill:#000000; fill-opacity:1.0; 
stroke:#000000; stroke-width:0; stroke-opacity:1; 
stroke-linecap:round; stroke-linejoin:round;">
<circle cx="64930" cy="45000" r="393.5" /> 
</g>
<g style="fill:#000000; fill-opacity:1.0; 
stroke:#000000; stroke-width:59.0551; stroke-opacity:1; 
stroke-linecap:round; stroke-linejoin:round;">
</g>
<g style="fill:#000000; fill-opacity:1.0; 
stroke:#000000; stroke-width:393.701; stroke-opacity:1; 
stroke-linecap:round; stroke-linejoin:round;">
</g>
<g style="fill:#000000; fill-opacity:0.0; 
stroke:#000000; stroke-width:393.701; stroke-opacity:1; 
stroke-linecap:round; stroke-linejoin:round;">
<path d="M70930 44000
L71430 44000
" />
<path d="M72430 39500
L73930 39500
" />
<path d="M71930 40000
L72430 39500
" />
<path d="M71930 43500
L71930 40000
" />
<path d="M71430 44000
L71930 43500
" />
<path d="M73930 41500
L73430 41500
" />
<path d="M72430 45000
L70930 45000
" />
<path d="M72930 44500
L72430 45000
" />
<path d="M72930 42000
L72930 44500
" />
<path d="M73430 41500
L72930 42000
" />
<path d="M73930 35500
L73930 34500
" />
<path d="M73430 34000
L70930 34000
" />
<path d="M73930 34500
L73430 34000
" />
<path d="M73930 36500
L72930 36500
" />
<path d="M71930 35000
L70930 35000
" />
<path d="M72430 35500
L71930 35000
" />
<path d="M72430 36000
L72430 35500
" />
<path d="M72930 36500
L72430 36000
" />
<path d="M62430 46500
L61930 46500
" />
<path d="M63930 45000
L62430 46500
" />
<path d="M53430 46500
L61930 46500
" />
<path d="M63930 45000
L66930 45000
" />
<path d="M53430 32000
L51930 32000
" />
<path d="M51930 32000
L51430 32500
" />
<path d="M51430 32500
L51430 42500
" />
<path d="M55930 32000
L55430 32000
" />
<path d="M55430 32000
L53430 34000
" />
<path d="M55930 35000
L55430 35000
" />
<path d="M54430 35000
L53430 36000
" />
<path d="M55430 35000
L54430 35000
" />
<path d="M55930 38000
L55430 38000
" />
<path d="M55430 38000
L53430 38000
" />
<path d="M55930 41000
L55430 41000
" />
<path d="M54430 41000
L53430 40000
" />
<path d="M55430 41000
L54430 41000
" />
<path d="M55930 44000
L55430 44000
" />
<path d="M53930 44000
L53430 44500
" />
<path d="M55430 44000
L53930 44000
" />
<path d="M61930 40500
L61930 39000
" />
<path d="M61430 41000
L61930 40500
" />
<path d="M59930 41000
L61430 41000
" />
<path d="M69430 44500
L69930 45000
" />
<path d="M69930 45000
L70430 45000
" />
<path d="M70430 45000
L70930 45000
" />
<path d="M69430 36500
L69430 44500
" />
<path d="M69930 36000
L69430 36500
" />
<path d="M70430 36000
L69930 36000
" />
<path d="M73930 40500
L75430 40500
" />
<path d="M75430 32500
L68430 32500
" />
<path d="M75930 33000
L75430 32500
" />
<path d="M75930 40000
L75930 33000
" />
<path d="M75430 40500
L75930 40000
" />
<path d="M66930 46000
L67930 46000
" />
<path d="M68430 45500
L68430 43000
" />
<path d="M67930 46000
L68430 45500
" />
<path d="M66930 48000
L66930 49000
" />
<path d="M66930 44000
L62930 44000
" />
<path d="M62930 44000
L61930 45000
" />
<path d="M61930 45000
L56930 45000
" />
<path d="M56930 45000
L55930 44000
" />
<path d="M55930 33500
L56930 33500
" />
<path d="M57430 34000
L57430 36500
" />
<path d="M56930 33500
L57430 34000
" />
<path d="M53930 42500
L51430 42500
" />
<path d="M66930 37000
L67930 37000
" />
<path d="M67930 37000
L68430 37500
" />
<path d="M68430 37500
L68430 43000
" />
<path d="M51430 42500
L51430 46500
" />
<path d="M51430 46500
L53930 49000
" />
<path d="M53930 49000
L66930 49000
" />
<path d="M66930 49000
L67930 49000
" />
<path d="M72430 49000
L73930 47500
" />
<path d="M67930 49000
L72430 49000
" />
<path d="M73930 47500
L73930 42500
" />
<path d="M73930 41500
L73930 41500
" />
<path d="M66930 43000
L68430 43000
" />
<path d="M68430 43000
L68430 43000
" />
<path d="M73930 38500
L72430 38500
" />
<path d="M71930 39000
L70930 39000
" />
<path d="M72430 38500
L71930 39000
" />
<path d="M73930 37500
L72430 37500
" />
<path d="M71930 38000
L70930 38000
" />
<path d="M72430 37500
L71930 38000
" />
<path d="M73930 36500
L73930 36500
" />
<path d="M64930 42000
L63430 42000
" />
<path d="M66930 48000
L66930 46000
" />
<path d="M57430 36500
L55930 36500
" />
<path d="M55930 39500
L57430 39500
" />
<path d="M56930 42500
L52930 42500
" />
<path d="M57430 42000
L56930 42500
" />
<path d="M57430 36500
L57430 39500
" />
<path d="M57430 39500
L57430 42000
" />
<path d="M61930 43000
L61430 43500
" />
<path d="M58930 30000
L61930 30000
" />
<path d="M58430 30500
L58930 30000
" />
<path d="M58430 43500
L58430 30500
" />
<path d="M58930 44000
L58430 43500
" />
<path d="M60930 44000
L58930 44000
" />
<path d="M61430 43500
L60930 44000
" />
<path d="M61930 43000
L62430 43000
" />
<path d="M62430 43000
L63430 42000
" />
<path d="M66930 36000
L67930 36000
" />
<path d="M67930 36000
L68430 35500
" />
<path d="M68430 35500
L68430 32500
" />
<path d="M68430 32500
L68430 30500
" />
<path d="M68430 30500
L67930 30000
" />
<path d="M67930 30000
L61930 30000
" />
<path d="M61930 30000
L61930 31000
" />
<path d="M63430 34000
L60430 34000
" />
<path d="M60430 34000
L59930 33500
" />
<path d="M66930 34000
L63430 34000
" />
<path d="M66930 35000
L59930 35000
" />
<path d="M66930 38000
L59930 38000
" />
<path d="M66930 39000
L61930 39000
" />
<path d="M59930 41000
L59930 42500
" />
<path d="M59930 38000
L59930 39500
" />
<path d="M59930 35000
L59930 36500
" />
<path d="M59930 32000
L59930 33500
" />
</g>
<g style="fill:#FFFFFF; fill-opacity:0.0; 
stroke:#FFFFFF; stroke-width:393.701; stroke-opacity:1; 
stroke-linecap:round; stroke-linejoin:round;">
</g>
<g style="fill:#FFFFFF; fill-opacity:1.0; 
stroke:#FFFFFF; stroke-width:0; stroke-opacity:1; 
stroke-linecap:round; stroke-linejoin:round;">
<circle cx="66930" cy="43000" r="68.8976" /> 
</g>
<g style="fill:#FFFFFF; fill-opacity:1.0; 
stroke:#FFFFFF; stroke-width:59.0551; stroke-opacity:1; 
stroke-linecap:round; stroke-linejoin:round;">
</g>
<g style="fill:#FFFFFF; fill-opacity:1.0; 
stroke:#FFFFFF; stroke-width:0; stroke-opacity:1; 
stroke-linecap:round; stroke-linejoin:round;">
<circle cx="66930" cy="48000" r="68.8976" /> 
</g>
<g style="fill:#FFFFFF; fill-opacity:1.0; 
stroke:#FFFFFF; stroke-width:59.0551; stroke-opacity:1; 
stroke-linecap:round; stroke-linejoin:round;">
</g>
<g style="fill:#FFFFFF; fill-opacity:1.0; 
stroke:#FFFFFF; stroke-width:0; stroke-opacity:1; 
stroke-linecap:round; stroke-linejoin:round;">
<circle cx="66930" cy="47000" r="68.8976" /> 
</g>
<g style="fill:#FFFFFF; fill-opacity:1.0; 
stroke:#FFFFFF; stroke-width:59.0551; stroke-opacity:1; 
stroke-linecap:round; stroke-linejoin:round;">
</g>
<g style="fill:#FFFFFF; fill-opacity:1.0; 
stroke:#FFFFFF; stroke-width:0; stroke-opacity:1; 
stroke-linecap:round; stroke-linejoin:round;">
<circle cx="66930" cy="46000" r="68.8976" /> 
</g>
<g style="fill:#FFFFFF; fill-opacity:1.0; 
stroke:#FFFFFF; stroke-width:59.0551; stroke-opacity:1; 
stroke-linecap:round; stroke-linejoin:round;">
</g>
<g style="fill:#FFFFFF; fill-opacity:1.0; 
stroke:#FFFFFF; stroke-width:0; stroke-opacity:1; 
stroke-linecap:round; stroke-linejoin:round;">
<circle cx="66930" cy="45000" r="68.8976" /> 
</g>
<g style="fill:#FFFFFF; fill-opacity:1.0; 
stroke:#FFFFFF; stroke-width:59.0551; stroke-opacity:1; 
stroke-linecap:round; stroke-linejoin:round;">
</g>
<g style="fill:#FFFFFF; fill-opacity:1.0; 
stroke:#FFFFFF; stroke-width:0; stroke-opacity:1; 
stroke-linecap:round; stroke-linejoin:round;">
<circle cx="66930" cy="44000" r="68.8976" /> 
</g>
<g style="fill:#FFFFFF; fill-opacity:1.0; 
stroke:#FFFFFF; stroke-width:59.0551; stroke-opacity:1; 
stroke-linecap:round; stroke-linejoin:round;">
</g>
<g style="fill:#FFFFFF; fill-opacity:1.0; 
stroke:#FFFFFF; stroke-width:0; stroke-opacity:1; 
stroke-linecap:round; stroke-linejoin:round;">
<circle cx="70930" cy="43000" r="68.8976" /> 
</g>
<g style="fill:#FFFFFF; fill-opacity:1.0; 
stroke:#FFFFFF; stroke-width:59.0551; stroke-opacity:1; 
stroke-linecap:round; stroke-linejoin:round;">
</g>
<g style="fill:#FFFFFF; fill-opacity:1.0; 
stroke:#FFFFFF; stroke-width:0; stroke-opacity:1; 
stroke-linecap:round; stroke-linejoin:round;">
<circle cx="70930" cy="44000" r="68.8976" /> 
</g>
<g style="fill:#FFFFFF; fill-opacity:1.0; 
stroke:#FFFFFF; stroke-width:59.0551; stroke-opacity:1; 
stroke-linecap:round; stroke-linejoin:round;">
</g>
<g style="fill:#FFFFFF; fill-opacity:1.0; 
stroke:#FFFFFF; stroke-width:0; stroke-opacity:1; 
stroke-linecap:round; stroke-linejoin:round;">
<circle cx="70930" cy="45000" r="68.8976" /> 
</g>
<g style="fill:#FFFFFF; fill-opacity:1.0; 
stroke:#FFFFFF; stroke-width:59.0551; stroke-opacity:1; 
stroke-linecap:round; stroke-linejoin:round;">
</g>
<g style="fill:#FFFFFF; fill-opacity:1.0; 
stroke:#FFFFFF; stroke-width:0; stroke-opacity:1; 
stroke-linecap:round; stroke-linejoin:round;">
<circle cx="70930" cy="46000" r="68.8976" /> 
</g>
<g style="fill:#FFFFFF; fill-opacity:1.0; 
stroke:#FFFFFF; stroke-width:59.0551; stroke-opacity:1; 
stroke-linecap:round; stroke-linejoin:round;">
</g>
<g style="fill:#FFFFFF; fill-opacity:1.0; 
stroke:#FFFFFF; stroke-width:0; stroke-opacity:1; 
stroke-linecap:round; stroke-linejoin:round;">
<circle cx="70930" cy="47000" r="68.8976" /> 
</g>
<g style="fill:#FFFFFF; fill-opacity:1.0; 
stroke:#FFFFFF; stroke-width:59.0551; stroke-opacity:1; 
stroke-linecap:round; stroke-linejoin:round;">
</g>
<g style="fill:#FFFFFF; fill-opacity:1.0; 
stroke:#FFFFFF; stroke-width:0; stroke-opacity:1; 
stroke-linecap:round; stroke-linejoin:round;">
<circle cx="70930" cy="48000" r="68.8976" /> 
</g>
<g style="fill:#FFFFFF; fill-opacity:1.0; 
stroke:#FFFFFF; stroke-width:59.0551; stroke-opacity:1; 
stroke-linecap:round; stroke-linejoin:round;">
</g>
<g style="fill:#FFFFFF; fill-opacity:1.0; 
stroke:#FFFFFF; stroke-width:0; stroke-opacity:1; 
stroke-linecap:round; stroke-linejoin:round;">
<circle cx="63430" cy="34000" r="68.8976" /> 
</g>
<g style="fill:#FFFFFF; fill-opacity:1.0; 
stroke:#FFFFFF; stroke-width:59.0551; stroke-opacity:1; 
stroke-linecap:round; stroke-linejoin:round;">
</g>
<g style="fill:#FFFFFF; fill-opacity:1.0; 
stroke:#FFFFFF; stroke-width:0; stroke-opacity:1; 
stroke-linecap:round; stroke-linejoin:round;">
<circle cx="63430" cy="30000" r="68.8976" /> 
</g>
<g style="fill:#FFFFFF; fill-opacity:1.0; 
stroke:#FFFFFF; stroke-width:59.0551; stroke-opacity:1; 
stroke-linecap:round; stroke-linejoin:round;">
</g>
<g style="fill:#FFFFFF; fill-opacity:1.0; 
stroke:#FFFFFF; stroke-width:0; stroke-opacity:1; 
stroke-linecap:round; stroke-linejoin:round;">
<circle cx="59930" cy="44000" r="68.8976" /> 
</g>
<g style="fill:#FFFFFF; fill-opacity:1.0; 
stroke:#FFFFFF; stroke-width:59.0551; stroke-opacity:1; 
stroke-linecap:round; stroke-linejoin:round;">
</g>
<g style="fill:#FFFFFF; fill-opacity:1.0; 
stroke:#FFFFFF; stroke-width:0; stroke-opacity:1; 
stroke-linecap:round; stroke-linejoin:round;">
<circle cx="55930" cy="44000" r="68.8976" /> 
</g>
<g style="fill:#FFFFFF; fill-opacity:1.0; 
stroke:#FFFFFF; stroke-width:59.0551; stroke-opacity:1; 
stroke-linecap:round; stroke-linejoin:round;">
</g>
<g style="fill:#FFFFFF; fill-opacity:1.0; 
stroke:#FFFFFF; stroke-width:0; stroke-opacity:1; 
stroke-linecap:round; stroke-linejoin:round;">
<circle cx="63430" cy="42000" r="68.8976" /> 
</g>
<g style="fill:#FFFFFF; fill-opacity:1.0; 
stroke:#FFFFFF; stroke-width:59.0551; stroke-opacity:1; 
stroke-linecap:round; stroke-linejoin:round;">
</g>
<g style="fill:#FFFFFF; fill-opacity:1.0; 
stroke:#FFFFFF; stroke-width:0; stroke-opacity:1; 
stroke-linecap:round; stroke-linejoin:round;">
<circle cx="63430" cy="38000" r="68.8976" /> 
</g>
<g style="fill:#FFFFFF; fill-opacity:1.0; 
stroke:#FFFFFF; stroke-width:59.0551; stroke-opacity:1; 
stroke-linecap:round; stroke-linejoin:round;">
</g>
<g style="fill:#FFFFFF; fill-opacity:1.0; 
stroke:#FFFFFF; stroke-width:0; stroke-opacity:1; 
stroke-linecap:round; stroke-linejoin:round;">
<circle cx="61930" cy="35000" r="68.8976" /> 
</g>
<g style="fill:#FFFFFF; fill-opacity:1.0; 
stroke:#FFFFFF; stroke-width:59.0551; stroke-opacity:1; 
stroke-linecap:round; stroke-linejoin:round;">
</g>
<g style="fill:#FFFFFF; fill-opacity:1.0; 
stroke:#FFFFFF; stroke-width:0; stroke-opacity:1; 
stroke-linecap:round; stroke-linejoin:round;">
<circle cx="61930" cy="31000" r="68.8976" /> 
</g>
<g style="fill:#FFFFFF; fill-opacity:1.0; 
stroke:#FFFFFF; stroke-width:59.0551; stroke-opacity:1; 
stroke-linecap:round; stroke-linejoin:round;">
</g>
<g style="fill:#FFFFFF; fill-opacity:1.0; 
stroke:#FFFFFF; stroke-width:0; stroke-opacity:1; 
stroke-linecap:round; stroke-linejoin:round;">
<circle cx="59930" cy="35000" r="68.8976" /> 
</g>
<g style="fill:#FFFFFF; fill-opacity:1.0; 
stroke:#FFFFFF; stroke-width:59.0551; stroke-opacity:1; 
stroke-linecap:round; stroke-linejoin:round;">
</g>
<g style="fill:#FFFFFF; fill-opacity:1.0; 
stroke:#FFFFFF; stroke-width:0; stroke-opacity:1; 
stroke-linecap:round; stroke-linejoin:round;">
<circle cx="55930" cy="35000" r="68.8976" /> 
</g>
<g style="fill:#FFFFFF; fill-opacity:1.0; 
stroke:#FFFFFF; stroke-width:59.0551; stroke-opacity:1; 
stroke-linecap:round; stroke-linejoin:round;">
</g>
<g style="fill:#FFFFFF; fill-opacity:1.0; 
stroke:#FFFFFF; stroke-width:0; stroke-opacity:1; 
stroke-linecap:round; stroke-linejoin:round;">
<circle cx="53430" cy="40000" r="68.8976" /> 
</g>
<g style="fill:#FFFFFF; fill-opacity:1.0; 
stroke:#FFFFFF; stroke-width:59.0551; stroke-opacity:1; 
stroke-linecap:round; stroke-linejoin:round;">
</g>
<g style="fill:#FFFFFF; fill-opacity:1.0; 
stroke:#FFFFFF; stroke-width:0; stroke-opacity:1; 
stroke-linecap:round; stroke-linejoin:round;">
<circle cx="53430" cy="42500" r="68.8976" /> 
</g>
<g style="fill:#FFFFFF; fill-opacity:1.0; 
stroke:#FFFFFF; stroke-width:59.0551; stroke-opacity:1; 
stroke-linecap:round; stroke-linejoin:round;">
</g>
<g style="fill:#FFFFFF; fill-opacity:1.0; 
stroke:#FFFFFF; stroke-width:0; stroke-opacity:1; 
stroke-linecap:round; stroke-linejoin:round;">
<circle cx="53430" cy="46500" r="68.8976" /> 
</g>
<g style="fill:#FFFFFF; fill-opacity:1.0; 
stroke:#FFFFFF; stroke-width:59.0551; stroke-opacity:1; 
stroke-linecap:round; stroke-linejoin:round;">
</g>
<g style="fill:#FFFFFF; fill-opacity:1.0; 
stroke:#FFFFFF; stroke-width:0; stroke-opacity:1; 
stroke-linecap:round; stroke-linejoin:round;">
<circle cx="53430" cy="44500" r="68.8976" /> 
</g>
<g style="fill:#FFFFFF; fill-opacity:1.0; 
stroke:#FFFFFF; stroke-width:59.0551; stroke-opacity:1; 
stroke-linecap:round; stroke-linejoin:round;">
</g>
<g style="fill:#FFFFFF; fill-opacity:1.0; 
stroke:#FFFFFF; stroke-width:0; stroke-opacity:1; 
stroke-linecap:round; stroke-linejoin:round;">
<circle cx="53430" cy="36000" r="68.8976" /> 
</g>
<g style="fill:#FFFFFF; fill-opacity:1.0; 
stroke:#FFFFFF; stroke-width:59.0551; stroke-opacity:1; 
stroke-linecap:round; stroke-linejoin:round;">
</g>
<g style="fill:#FFFFFF; fill-opacity:1.0; 
stroke:#FFFFFF; stroke-width:0; stroke-opacity:1; 
stroke-linecap:round; stroke-linejoin:round;">
<circle cx="53430" cy="38000" r="68.8976" /> 
</g>
<g style="fill:#FFFFFF; fill-opacity:1.0; 
stroke:#FFFFFF; stroke-width:59.0551; stroke-opacity:1; 
stroke-linecap:round; stroke-linejoin:round;">
</g>
<g style="fill:#FFFFFF; fill-opacity:1.0; 
stroke:#FFFFFF; stroke-width:0; stroke-opacity:1; 
stroke-linecap:round; stroke-linejoin:round;">
<circle cx="53430" cy="34000" r="68.8976" /> 
</g>
<g style="fill:#FFFFFF; fill-opacity:1.0; 
stroke:#FFFFFF; stroke-width:59.0551; stroke-opacity:1; 
stroke-linecap:round; stroke-linejoin:round;">
</g>
<g style="fill:#FFFFFF; fill-opacity:1.0; 
stroke:#FFFFFF; stroke-width:0; stroke-opacity:1; 
stroke-linecap:round; stroke-linejoin:round;">
<circle cx="75430" cy="49000" r="68.8976" /> 
</g>
<g style="fill:#FFFFFF; fill-opacity:1.0; 
stroke:#FFFFFF; stroke-width:59.0551; stroke-opacity:1; 
stroke-linecap:round; stroke-linejoin:round;">
</g>
<g style="fill:#FFFFFF; fill-opacity:1.0; 
stroke:#FFFFFF; stroke-width:0; stroke-opacity:1; 
stroke-linecap:round; stroke-linejoin:round;">
<circle cx="51430" cy="29500" r="68.8976" /> 
</g>
<g style="fill:#FFFFFF; fill-opacity:1.0; 
stroke:#FFFFFF; stroke-width:59.0551; stroke-opacity:1; 
stroke-linecap:round; stroke-linejoin:round;">
</g>
<g style="fill:#FFFFFF; fill-opacity:1.0; 
stroke:#FFFFFF; stroke-width:0; stroke-opacity:1; 
stroke-linecap:round; stroke-linejoin:round;">
<circle cx="75430" cy="29500" r="68.8976" /> 
</g>
<g style="fill:#FFFFFF; fill-opacity:1.0; 
stroke:#FFFFFF; stroke-width:59.0551; stroke-opacity:1; 
stroke-linecap:round; stroke-linejoin:round;">
</g>
<g style="fill:#FFFFFF; fill-opacity:1.0; 
stroke:#FFFFFF; stroke-width:0; stroke-opacity:1; 
stroke-linecap:round; stroke-linejoin:round;">
<circle cx="51430" cy="49000" r="68.8976" /> 
</g>
<g style="fill:#FFFFFF; fill-opacity:1.0; 
stroke:#FFFFFF; stroke-width:59.0551; stroke-opacity:1; 
stroke-linecap:round; stroke-linejoin:round;">
</g>
<g style="fill:#FFFFFF; fill-opacity:1.0; 
stroke:#FFFFFF; stroke-width:0; stroke-opacity:1; 
stroke-linecap:round; stroke-linejoin:round;">
<circle cx="66930" cy="34000" r="68.8976" /> 
</g>
<g style="fill:#FFFFFF; fill-opacity:1.0; 
stroke:#FFFFFF; stroke-width:59.0551; stroke-opacity:1; 
stroke-linecap:round; stroke-linejoin:round;">
</g>
<g style="fill:#FFFFFF; fill-opacity:1.0; 
stroke:#FFFFFF; stroke-width:0; stroke-opacity:1; 
stroke-linecap:round; stroke-linejoin:round;">
<circle cx="66930" cy="39000" r="68.8976" /> 
</g>
<g style="fill:#FFFFFF; fill-opacity:1.0; 
stroke:#FFFFFF; stroke-width:59.0551; stroke-opacity:1; 
stroke-linecap:round; stroke-linejoin:round;">
</g>
<g style="fill:#FFFFFF; fill-opacity:1.0; 
stroke:#FFFFFF; stroke-width:0; stroke-opacity:1; 
stroke-linecap:round; stroke-linejoin:round;">
<circle cx="66930" cy="38000" r="68.8976" /> 
</g>
<g style="fill:#FFFFFF; fill-opacity:1.0; 
stroke:#FFFFFF; stroke-width:59.0551; stroke-opacity:1; 
stroke-linecap:round; stroke-linejoin:round;">
</g>
<g style="fill:#FFFFFF; fill-opacity:1.0; 
stroke:#FFFFFF; stroke-width:0; stroke-opacity:1; 
stroke-linecap:round; stroke-linejoin:round;">
<circle cx="66930" cy="37000" r="68.8976" /> 
</g>
<g style="fill:#FFFFFF; fill-opacity:1.0; 
stroke:#FFFFFF; stroke-width:59.0551; stroke-opacity:1; 
stroke-linecap:round; stroke-linejoin:round;">
</g>
<g style="fill:#FFFFFF; fill-opacity:1.0; 
stroke:#FFFFFF; stroke-width:0; stroke-opacity:1; 
stroke-linecap:round; stroke-linejoin:round;">
<circle cx="66930" cy="36000" r="68.8976" /> 
</g>
<g style="fill:#FFFFFF; fill-opacity:1.0; 
stroke:#FFFFFF; stroke-width:59.0551; stroke-opacity:1; 
stroke-linecap:round; stroke-linejoin:round;">
</g>
<g style="fill:#FFFFFF; fill-opacity:1.0; 
stroke:#FFFFFF; stroke-width:0; stroke-opacity:1; 
stroke-linecap:round; stroke-linejoin:round;">
<circle cx="66930" cy="35000" r="68.8976" /> 
</g>
<g style="fill:#FFFFFF; fill-opacity:1.0; 
stroke:#FFFFFF; stroke-width:59.0551; stroke-opacity:1; 
stroke-linecap:round; stroke-linejoin:round;">
</g>
<g style="fill:#FFFFFF; fill-opacity:1.0; 
stroke:#FFFFFF; stroke-width:0; stroke-opacity:1; 
stroke-linecap:round; stroke-linejoin:round;">
<circle cx="70930" cy="34000" r="68.8976" /> 
</g>
<g style="fill:#FFFFFF; fill-opacity:1.0; 
stroke:#FFFFFF; stroke-width:59.0551; stroke-opacity:1; 
stroke-linecap:round; stroke-linejoin:round;">
</g>
<g style="fill:#FFFFFF; fill-opacity:1.0; 
stroke:#FFFFFF; stroke-width:0; stroke-opacity:1; 
stroke-linecap:round; stroke-linejoin:round;">
<circle cx="70930" cy="35000" r="68.8976" /> 
</g>
<g style="fill:#FFFFFF; fill-opacity:1.0; 
stroke:#FFFFFF; stroke-width:59.0551; stroke-opacity:1; 
stroke-linecap:round; stroke-linejoin:round;">
</g>
<g style="fill:#FFFFFF; fill-opacity:1.0; 
stroke:#FFFFFF; stroke-width:0; stroke-opacity:1; 
stroke-linecap:round; stroke-linejoin:round;">
<circle cx="70930" cy="36000" r="68.8976" /> 
</g>
<g style="fill:#FFFFFF; fill-opacity:1.0; 
stroke:#FFFFFF; stroke-width:59.0551; stroke-opacity:1; 
stroke-linecap:round; stroke-linejoin:round;">
</g>
<g style="fill:#FFFFFF; fill-opacity:1.0; 
stroke:#FFFFFF; stroke-width:0; stroke-opacity:1; 
stroke-linecap:round; stroke-linejoin:round;">
<circle cx="70930" cy="37000" r="68.8976" /> 
</g>
<g style="fill:#FFFFFF; fill-opacity:1.0; 
stroke:#FFFFFF; stroke-width:59.0551; stroke-opacity:1; 
stroke-linecap:round; stroke-linejoin:round;">
</g>
<g style="fill:#FFFFFF; fill-opacity:1.0; 
stroke:#FFFFFF; stroke-width:0; stroke-opacity:1; 
stroke-linecap:round; stroke-linejoin:round;">
<circle cx="70930" cy="38000" r="68.8976" /> 
</g>
<g style="fill:#FFFFFF; fill-opacity:1.0; 
stroke:#FFFFFF; stroke-width:59.0551; stroke-opacity:1; 
stroke-linecap:round; stroke-linejoin:round;">
</g>
<g style="fill:#FFFFFF; fill-opacity:1.0; 
stroke:#FFFFFF; stroke-width:0; stroke-opacity:1; 
stroke-linecap:round; stroke-linejoin:round;">
<circle cx="70930" cy="39000" r="68.8976" /> 
</g>
<g style="fill:#FFFFFF; fill-opacity:1.0; 
stroke:#FFFFFF; stroke-width:59.0551; stroke-opacity:1; 
stroke-linecap:round; stroke-linejoin:round;">
</g>
<g style="fill:#FFFFFF; fill-opacity:1.0; 
stroke:#FFFFFF; stroke-width:0; stroke-opacity:1; 
stroke-linecap:round; stroke-linejoin:round;">
<circle cx="73930" cy="35500" r="68.8976" /> 
</g>
<g style="fill:#FFFFFF; fill-opacity:1.0; 
stroke:#FFFFFF; stroke-width:59.0551; stroke-opacity:1; 
stroke-linecap:round; stroke-linejoin:round;">
</g>
<g style="fill:#FFFFFF; fill-opacity:1.0; 
stroke:#FFFFFF; stroke-width:0; stroke-opacity:1; 
stroke-linecap:round; stroke-linejoin:round;">
<circle cx="73930" cy="36500" r="68.8976" /> 
</g>
<g style="fill:#FFFFFF; fill-opacity:1.0; 
stroke:#FFFFFF; stroke-width:59.0551; stroke-opacity:1; 
stroke-linecap:round; stroke-linejoin:round;">
</g>
<g style="fill:#FFFFFF; fill-opacity:1.0; 
stroke:#FFFFFF; stroke-width:0; stroke-opacity:1; 
stroke-linecap:round; stroke-linejoin:round;">
<circle cx="73930" cy="37500" r="68.8976" /> 
</g>
<g style="fill:#FFFFFF; fill-opacity:1.0; 
stroke:#FFFFFF; stroke-width:59.0551; stroke-opacity:1; 
stroke-linecap:round; stroke-linejoin:round;">
</g>
<g style="fill:#FFFFFF; fill-opacity:1.0; 
stroke:#FFFFFF; stroke-width:0; stroke-opacity:1; 
stroke-linecap:round; stroke-linejoin:round;">
<circle cx="73930" cy="38500" r="68.8976" /> 
</g>
<g style="fill:#FFFFFF; fill-opacity:1.0; 
stroke:#FFFFFF; stroke-width:59.0551; stroke-opacity:1; 
stroke-linecap:round; stroke-linejoin:round;">
</g>
<g style="fill:#FFFFFF; fill-opacity:1.0; 
stroke:#FFFFFF; stroke-width:0; stroke-opacity:1; 
stroke-linecap:round; stroke-linejoin:round;">
<circle cx="73930" cy="39500" r="68.8976" /> 
</g>
<g style="fill:#FFFFFF; fill-opacity:1.0; 
stroke:#FFFFFF; stroke-width:59.0551; stroke-opacity:1; 
stroke-linecap:round; stroke-linejoin:round;">
</g>
<g style="fill:#FFFFFF; fill-opacity:1.0; 
stroke:#FFFFFF; stroke-width:0; stroke-opacity:1; 
stroke-linecap:round; stroke-linejoin:round;">
<circle cx="73930" cy="40500" r="68.8976" /> 
</g>
<g style="fill:#FFFFFF; fill-opacity:1.0; 
stroke:#FFFFFF; stroke-width:59.0551; stroke-opacity:1; 
stroke-linecap:round; stroke-linejoin:round;">
</g>
<g style="fill:#FFFFFF; fill-opacity:1.0; 
stroke:#FFFFFF; stroke-width:0; stroke-opacity:1; 
stroke-linecap:round; stroke-linejoin:round;">
<circle cx="73930" cy="41500" r="68.8976" /> 
</g>
<g style="fill:#FFFFFF; fill-opacity:1.0; 
stroke:#FFFFFF; stroke-width:59.0551; stroke-opacity:1; 
stroke-linecap:round; stroke-linejoin:round;">
</g>
<g style="fill:#FFFFFF; fill-opacity:1.0; 
stroke:#FFFFFF; stroke-width:0; stroke-opacity:1; 
stroke-linecap:round; stroke-linejoin:round;">
<circle cx="73930" cy="42500" r="68.8976" /> 
</g>
<g style="fill:#FFFFFF; fill-opacity:1.0; 
stroke:#FFFFFF; stroke-width:59.0551; stroke-opacity:1; 
stroke-linecap:round; stroke-linejoin:round;">
</g>
<g style="fill:#FFFFFF; fill-opacity:1.0; 
stroke:#FFFFFF; stroke-width:0; stroke-opacity:1; 
stroke-linecap:round; stroke-linejoin:round;">
<circle cx="53430" cy="32000" r="68.8976" /> 
</g>
<g style="fill:#FFFFFF; fill-opacity:1.0; 
stroke:#FFFFFF; stroke-width:59.0551; stroke-opacity:1; 
stroke-linecap:round; stroke-linejoin:round;">
</g>
<g style="fill:#FFFFFF; fill-opacity:1.0; 
stroke:#FFFFFF; stroke-width:0; stroke-opacity:1; 
stroke-linecap:round; stroke-linejoin:round;">
<circle cx="59930" cy="32000" r="68.8976" /> 
</g>
<g style="fill:#FFFFFF; fill-opacity:1.0; 
stroke:#FFFFFF; stroke-width:59.0551; stroke-opacity:1; 
stroke-linecap:round; stroke-linejoin:round;">
</g>
<g style="fill:#FFFFFF; fill-opacity:1.0; 
stroke:#FFFFFF; stroke-width:0; stroke-opacity:1; 
stroke-linecap:round; stroke-linejoin:round;">
<circle cx="55930" cy="32000" r="68.8976" /> 
</g>
<g style="fill:#FFFFFF; fill-opacity:1.0; 
stroke:#FFFFFF; stroke-width:59.0551; stroke-opacity:1; 
stroke-linecap:round; stroke-linejoin:round;">
</g>
<g style="fill:#FFFFFF; fill-opacity:1.0; 
stroke:#FFFFFF; stroke-width:0; stroke-opacity:1; 
stroke-linecap:round; stroke-linejoin:round;">
<circle cx="59930" cy="38000" r="68.8976" /> 
</g>
<g style="fill:#FFFFFF; fill-opacity:1.0; 
stroke:#FFFFFF; stroke-width:59.0551; stroke-opacity:1; 
stroke-linecap:round; stroke-linejoin:round;">
</g>
<g style="fill:#FFFFFF; fill-opacity:1.0; 
stroke:#FFFFFF; stroke-width:0; stroke-opacity:1; 
stroke-linecap:round; stroke-linejoin:round;">
<circle cx="55930" cy="38000" r="68.8976" /> 
</g>
<g style="fill:#FFFFFF; fill-opacity:1.0; 
stroke:#FFFFFF; stroke-width:59.0551; stroke-opacity:1; 
stroke-linecap:round; stroke-linejoin:round;">
</g>
<g style="fill:#FFFFFF; fill-opacity:1.0; 
stroke:#FFFFFF; stroke-width:0; stroke-opacity:1; 
stroke-linecap:round; stroke-linejoin:round;">
<circle cx="59930" cy="41000" r="68.8976" /> 
</g>
<g style="fill:#FFFFFF; fill-opacity:1.0; 
stroke:#FFFFFF; stroke-width:59.0551; stroke-opacity:1; 
stroke-linecap:round; stroke-linejoin:round;">
</g>
<g style="fill:#FFFFFF; fill-opacity:1.0; 
stroke:#FFFFFF; stroke-width:0; stroke-opacity:1; 
stroke-linecap:round; stroke-linejoin:round;">
<circle cx="55930" cy="41000" r="68.8976" /> 
</g>
<g style="fill:#FFFFFF; fill-opacity:1.0; 
stroke:#FFFFFF; stroke-width:59.0551; stroke-opacity:1; 
stroke-linecap:round; stroke-linejoin:round;">
</g>
<g style="fill:#FFFFFF; fill-opacity:1.0; 
stroke:#FFFFFF; stroke-width:0; stroke-opacity:1; 
stroke-linecap:round; stroke-linejoin:round;">
<circle cx="61930" cy="43000" r="68.8976" /> 
</g>
<g style="fill:#FFFFFF; fill-opacity:1.0; 
stroke:#FFFFFF; stroke-width:59.0551; stroke-opacity:1; 
stroke-linecap:round; stroke-linejoin:round;">
</g>
<g style="fill:#FFFFFF; fill-opacity:1.0; 
stroke:#FFFFFF; stroke-width:0; stroke-opacity:1; 
stroke-linecap:round; stroke-linejoin:round;">
<circle cx="61930" cy="39000" r="68.8976" /> 
</g>
<g style="fill:#FFFFFF; fill-opacity:1.0; 
stroke:#FFFFFF; stroke-width:59.0551; stroke-opacity:1; 
stroke-linecap:round; stroke-linejoin:round;">
</g>
<g style="fill:#FFFFFF; fill-opacity:1.0; 
stroke:#FFFFFF; stroke-width:0; stroke-opacity:1; 
stroke-linecap:round; stroke-linejoin:round;">
<circle cx="55930" cy="33500" r="68.8976" /> 
</g>
<g style="fill:#FFFFFF; fill-opacity:1.0; 
stroke:#FFFFFF; stroke-width:59.0551; stroke-opacity:1; 
stroke-linecap:round; stroke-linejoin:round;">
</g>
<g style="fill:#FFFFFF; fill-opacity:1.0; 
stroke:#FFFFFF; stroke-width:0; stroke-opacity:1; 
stroke-linecap:round; stroke-linejoin:round;">
<circle cx="59930" cy="33500" r="68.8976" /> 
</g>
<g style="fill:#FFFFFF; fill-opacity:1.0; 
stroke:#FFFFFF; stroke-width:59.0551; stroke-opacity:1; 
stroke-linecap:round; stroke-linejoin:round;">
</g>
<g style="fill:#FFFFFF; fill-opacity:1.0; 
stroke:#FFFFFF; stroke-width:0; stroke-opacity:1; 
stroke-linecap:round; stroke-linejoin:round;">
<circle cx="55930" cy="36500" r="68.8976" /> 
</g>
<g style="fill:#FFFFFF; fill-opacity:1.0; 
stroke:#FFFFFF; stroke-width:59.0551; stroke-opacity:1; 
stroke-linecap:round; stroke-linejoin:round;">
</g>
<g style="fill:#FFFFFF; fill-opacity:1.0; 
stroke:#FFFFFF; stroke-width:0; stroke-opacity:1; 
stroke-linecap:round; stroke-linejoin:round;">
<circle cx="59930" cy="36500" r="68.8976" /> 
</g>
<g style="fill:#FFFFFF; fill-opacity:1.0; 
stroke:#FFFFFF; stroke-width:59.0551; stroke-opacity:1; 
stroke-linecap:round; stroke-linejoin:round;">
</g>
<g style="fill:#FFFFFF; fill-opacity:1.0; 
stroke:#FFFFFF; stroke-width:0; stroke-opacity:1; 
stroke-linecap:round; stroke-linejoin:round;">
<circle cx="55930" cy="39500" r="68.8976" /> 
</g>
<g style="fill:#FFFFFF; fill-opacity:1.0; 
stroke:#FFFFFF; stroke-width:59.0551; stroke-opacity:1; 
stroke-linecap:round; stroke-linejoin:round;">
</g>
<g style="fill:#FFFFFF; fill-opacity:1.0; 
stroke:#FFFFFF; stroke-width:0; stroke-opacity:1; 
stroke-linecap:round; stroke-linejoin:round;">
<circle cx="59930" cy="39500" r="68.8976" /> 
</g>
<g style="fill:#FFFFFF; fill-opacity:1.0; 
stroke:#FFFFFF; stroke-width:59.0551; stroke-opacity:1; 
stroke-linecap:round; stroke-linejoin:round;">
</g>
<g style="fill:#FFFFFF; fill-opacity:1.0; 
stroke:#FFFFFF; stroke-width:0; stroke-opacity:1; 
stroke-linecap:round; stroke-linejoin:round;">
<circle cx="55930" cy="42500" r="68.8976" /> 
</g>
<g style="fill:#FFFFFF; fill-opacity:1.0; 
stroke:#FFFFFF; stroke-width:59.0551; stroke-opacity:1; 
stroke-linecap:round; stroke-linejoin:round;">
</g>
<g style="fill:#FFFFFF; fill-opacity:1.0; 
stroke:#FFFFFF; stroke-width:0; stroke-opacity:1; 
stroke-linecap:round; stroke-linejoin:round;">
<circle cx="59930" cy="42500" r="68.8976" /> 
</g>
<g style="fill:#FFFFFF; fill-opacity:1.0; 
stroke:#FFFFFF; stroke-width:59.0551; stroke-opacity:1; 
stroke-linecap:round; stroke-linejoin:round;">
</g>
<g style="fill:#FFFFFF; fill-opacity:1.0; 
stroke:#FFFFFF; stroke-width:0; stroke-opacity:1; 
stroke-linecap:round; stroke-linejoin:round;">
<circle cx="64930" cy="42000" r="68.8976" /> 
</g>
<g style="fill:#FFFFFF; fill-opacity:1.0; 
stroke:#FFFFFF; stroke-width:59.0551; stroke-opacity:1; 
stroke-linecap:round; stroke-linejoin:round;">
</g>
<g style="fill:#FFFFFF; fill-opacity:1.0; 
stroke:#FFFFFF; stroke-width:0; stroke-opacity:1; 
stroke-linecap:round; stroke-linejoin:round;">
<circle cx="64930" cy="45000" r="68.8976" /> 
</g>
<g style="fill:#FFFFFF; fill-opacity:1.0; 
stroke:#FFFFFF; stroke-width:59.0551; stroke-opacity:1; 
stroke-linecap:round; stroke-linejoin:round;">
</g>
<g style="fill:#000000; fill-opacity:1.0; 
stroke:#000000; stroke-width:59.0551; stroke-opacity:1; 
stroke-linecap:round; stroke-linejoin:round;">
</g> 
</svg>
