G04 #@! TF.FileFunction,Copper,L2,Bot,Signal*
%FSLAX46Y46*%
G04 Gerber Fmt 4.6, Leading zero omitted, Abs format (unit mm)*
G04 Created by KiCad (PCBNEW 4.0.5+dfsg1-4) date Sat Oct  5 12:17:33 2019*
%MOMM*%
%LPD*%
G01*
G04 APERTURE LIST*
%ADD10C,0.150000*%
%ADD11C,5.400000*%
%ADD12R,1.524000X1.524000*%
%ADD13C,1.524000*%
%ADD14R,2.032000X1.727200*%
%ADD15O,2.032000X1.727200*%
%ADD16O,2.300000X1.600000*%
%ADD17C,1.300000*%
%ADD18R,1.300000X1.300000*%
%ADD19R,1.200000X1.200000*%
%ADD20C,1.200000*%
%ADD21R,1.727200X1.727200*%
%ADD22O,1.727200X1.727200*%
%ADD23R,2.235200X2.235200*%
%ADD24R,2.032000X2.032000*%
%ADD25O,2.032000X2.032000*%
%ADD26C,0.600000*%
%ADD27C,1.000000*%
%ADD28C,0.250000*%
%ADD29C,0.500000*%
G04 APERTURE END LIST*
D10*
X171450000Y-71120000D02*
X100330000Y-71120000D01*
X171450000Y-128270000D02*
X171450000Y-71120000D01*
X100330000Y-128270000D02*
X171450000Y-128270000D01*
X100330000Y-71120000D02*
X100330000Y-128270000D01*
D11*
X167640000Y-74930000D03*
X104140000Y-74930000D03*
X167640000Y-124460000D03*
X104140000Y-124460000D03*
D12*
X120650000Y-123190000D03*
D13*
X118110000Y-123190000D03*
X120650000Y-110490000D03*
X118110000Y-120650000D03*
X120650000Y-107950000D03*
X118110000Y-118110000D03*
X120650000Y-105410000D03*
X118110000Y-115570000D03*
X120650000Y-102870000D03*
X118110000Y-113030000D03*
X120650000Y-100330000D03*
X118110000Y-110490000D03*
X120650000Y-97790000D03*
X118110000Y-107950000D03*
X120650000Y-95250000D03*
X118110000Y-105410000D03*
X120650000Y-92710000D03*
X118110000Y-102870000D03*
X120650000Y-90170000D03*
X118110000Y-100330000D03*
X120650000Y-87630000D03*
X118110000Y-97790000D03*
X120650000Y-85090000D03*
X118110000Y-95250000D03*
X118110000Y-92710000D03*
X120650000Y-82550000D03*
X118110000Y-90170000D03*
X118110000Y-85090000D03*
X118110000Y-82550000D03*
X118110000Y-80010000D03*
X118110000Y-77470000D03*
X120650000Y-80010000D03*
X120650000Y-77470000D03*
X120650000Y-120650000D03*
X120650000Y-118110000D03*
X120650000Y-115570000D03*
X120650000Y-113030000D03*
X120650000Y-74930000D03*
X118110000Y-74930000D03*
X118110000Y-87630000D03*
D14*
X113030000Y-123190000D03*
D15*
X113030000Y-120650000D03*
X113030000Y-118110000D03*
X113030000Y-115570000D03*
X113030000Y-113030000D03*
X113030000Y-110490000D03*
X113030000Y-107950000D03*
X113030000Y-105410000D03*
X113030000Y-102870000D03*
X113030000Y-100330000D03*
X113030000Y-97790000D03*
X113030000Y-95250000D03*
X113030000Y-92710000D03*
X113030000Y-90170000D03*
X113030000Y-87630000D03*
X113030000Y-85090000D03*
X113030000Y-82550000D03*
X113030000Y-80010000D03*
X113030000Y-77470000D03*
X113030000Y-74930000D03*
D14*
X130810000Y-123190000D03*
D15*
X130810000Y-120650000D03*
X130810000Y-118110000D03*
X130810000Y-115570000D03*
X130810000Y-113030000D03*
X130810000Y-110490000D03*
X130810000Y-107950000D03*
X130810000Y-105410000D03*
X130810000Y-102870000D03*
X130810000Y-100330000D03*
X130810000Y-97790000D03*
X130810000Y-95250000D03*
X130810000Y-92710000D03*
X130810000Y-90170000D03*
X130810000Y-87630000D03*
X130810000Y-85090000D03*
X130810000Y-82550000D03*
X130810000Y-80010000D03*
X130810000Y-77470000D03*
X130810000Y-74930000D03*
D14*
X125730000Y-87630000D03*
D15*
X125730000Y-85090000D03*
X125730000Y-82550000D03*
X125730000Y-80010000D03*
D16*
X151130000Y-105410000D03*
X151130000Y-107950000D03*
X151130000Y-110490000D03*
X151130000Y-113030000D03*
X151130000Y-115570000D03*
X151130000Y-118110000D03*
X151130000Y-120650000D03*
X151130000Y-123190000D03*
X158750000Y-123190000D03*
X158750000Y-120650000D03*
X158750000Y-118110000D03*
X158750000Y-115570000D03*
X158750000Y-113030000D03*
X158750000Y-110490000D03*
X158750000Y-107950000D03*
X158750000Y-105410000D03*
D17*
X154940000Y-83860000D03*
D18*
X154940000Y-86360000D03*
D19*
X144780000Y-105410000D03*
D20*
X147280000Y-105410000D03*
D19*
X153670000Y-100330000D03*
D20*
X156170000Y-100330000D03*
D19*
X144780000Y-115570000D03*
D20*
X147280000Y-115570000D03*
D19*
X144780000Y-118110000D03*
D20*
X147280000Y-118110000D03*
D19*
X144780000Y-107950000D03*
D20*
X147280000Y-107950000D03*
D14*
X165100000Y-113030000D03*
D15*
X165100000Y-110490000D03*
X165100000Y-107950000D03*
D21*
X147320000Y-95250000D03*
D22*
X144780000Y-95250000D03*
X147320000Y-92710000D03*
X144780000Y-92710000D03*
X147320000Y-90170000D03*
X144780000Y-90170000D03*
X147320000Y-87630000D03*
X144780000Y-87630000D03*
X147320000Y-85090000D03*
X144780000Y-85090000D03*
X147320000Y-82550000D03*
X144780000Y-82550000D03*
X147320000Y-80010000D03*
X144780000Y-80010000D03*
D21*
X165100000Y-91440000D03*
D22*
X162560000Y-91440000D03*
X165100000Y-88900000D03*
X162560000Y-88900000D03*
X165100000Y-86360000D03*
X162560000Y-86360000D03*
X165100000Y-83820000D03*
X162560000Y-83820000D03*
X165100000Y-81280000D03*
X162560000Y-81280000D03*
D23*
X147320000Y-74930000D03*
D24*
X165100000Y-96520000D03*
D25*
X162560000Y-96520000D03*
D26*
X151130000Y-86360000D03*
X109220000Y-120650000D03*
X137160000Y-74930000D03*
X138430000Y-102870000D03*
X138430000Y-123190000D03*
X137160000Y-92710000D03*
X137160000Y-107315000D03*
X127000000Y-127000000D03*
X127000000Y-114300000D03*
X124460000Y-116840000D03*
X124460000Y-125730000D03*
X142240000Y-120650000D03*
X142240000Y-95250000D03*
X140970000Y-92710000D03*
X140970000Y-118110000D03*
X139700000Y-90170000D03*
X139700000Y-115570000D03*
D27*
X113030000Y-120650000D02*
X109220000Y-120650000D01*
X151130000Y-86360000D02*
X154940000Y-86360000D01*
X156170000Y-100330000D02*
X158750000Y-100330000D01*
X158750000Y-101600000D02*
X158750000Y-100330000D01*
X158750000Y-100330000D02*
X158750000Y-97790000D01*
X154940000Y-97790000D02*
X158750000Y-97790000D01*
X158750000Y-97790000D02*
X161290000Y-97790000D01*
X161290000Y-97790000D02*
X162560000Y-96520000D01*
X165100000Y-91440000D02*
X165100000Y-96520000D01*
X154940000Y-83860000D02*
X154940000Y-72390000D01*
X162560000Y-86360000D02*
X162560000Y-91440000D01*
X154940000Y-86360000D02*
X162560000Y-86360000D01*
X162560000Y-86360000D02*
X162560000Y-81280000D01*
X165100000Y-91440000D02*
X165100000Y-77470000D01*
X165100000Y-77470000D02*
X167640000Y-74930000D01*
D28*
X165100000Y-113030000D02*
X158750000Y-113030000D01*
X158750000Y-110490000D02*
X165100000Y-110490000D01*
D27*
X130810000Y-113030000D02*
X136525000Y-113030000D01*
X137160000Y-112395000D02*
X137160000Y-107315000D01*
X136525000Y-113030000D02*
X137160000Y-112395000D01*
X153670000Y-100330000D02*
X144145000Y-100330000D01*
X144145000Y-100330000D02*
X137160000Y-107315000D01*
X137160000Y-107315000D02*
X137160000Y-107315000D01*
X137160000Y-74930000D02*
X137160000Y-72390000D01*
X130810000Y-123190000D02*
X138430000Y-123190000D01*
X137160000Y-92710000D02*
X130810000Y-92710000D01*
X130810000Y-74930000D02*
X130810000Y-72390000D01*
X120650000Y-74930000D02*
X120650000Y-72390000D01*
X113030000Y-87630000D02*
X101600000Y-87630000D01*
X113030000Y-82550000D02*
X101600000Y-82550000D01*
X118110000Y-118110000D02*
X101600000Y-118110000D01*
X118110000Y-123190000D02*
X113030000Y-123190000D01*
X113030000Y-100330000D02*
X101600000Y-100330000D01*
X113030000Y-107950000D02*
X101600000Y-107950000D01*
X104140000Y-74930000D02*
X104140000Y-75565000D01*
X104140000Y-75565000D02*
X101600000Y-78105000D01*
X101600000Y-78105000D02*
X101600000Y-82550000D01*
X101600000Y-82550000D02*
X101600000Y-87630000D01*
X101600000Y-87630000D02*
X101600000Y-100330000D01*
X101600000Y-100330000D02*
X101600000Y-107950000D01*
X101600000Y-121920000D02*
X104140000Y-124460000D01*
X101600000Y-107950000D02*
X101600000Y-118110000D01*
X101600000Y-118110000D02*
X101600000Y-121920000D01*
X104140000Y-74930000D02*
X104775000Y-74930000D01*
X104775000Y-74930000D02*
X107315000Y-72390000D01*
X165100000Y-72390000D02*
X167640000Y-74930000D01*
X163830000Y-72390000D02*
X165100000Y-72390000D01*
X137160000Y-72390000D02*
X154940000Y-72390000D01*
X154940000Y-72390000D02*
X163830000Y-72390000D01*
X107315000Y-72390000D02*
X120650000Y-72390000D01*
X120650000Y-72390000D02*
X130810000Y-72390000D01*
X130810000Y-72390000D02*
X137160000Y-72390000D01*
D28*
X147320000Y-80010000D02*
X147320000Y-74930000D01*
X158750000Y-120650000D02*
X157480000Y-120650000D01*
X156210000Y-121920000D02*
X157480000Y-120650000D01*
X156210000Y-125730000D02*
X156210000Y-121920000D01*
X154940000Y-127000000D02*
X156210000Y-125730000D01*
X154940000Y-127000000D02*
X127000000Y-127000000D01*
D27*
X130810000Y-102870000D02*
X138430000Y-102870000D01*
X143510000Y-97790000D02*
X154940000Y-97790000D01*
X138430000Y-102870000D02*
X143510000Y-97790000D01*
X120650000Y-113030000D02*
X123190000Y-113030000D01*
X129540000Y-113030000D02*
X130810000Y-113030000D01*
X128270000Y-111760000D02*
X129540000Y-113030000D01*
X124460000Y-111760000D02*
X128270000Y-111760000D01*
X123190000Y-113030000D02*
X124460000Y-111760000D01*
D28*
X119380000Y-114300000D02*
X118110000Y-113030000D01*
X127000000Y-114300000D02*
X119380000Y-114300000D01*
X118110000Y-115570000D02*
X119380000Y-116840000D01*
X119380000Y-116840000D02*
X124460000Y-116840000D01*
X124460000Y-125730000D02*
X153670000Y-125730000D01*
X153670000Y-125730000D02*
X154940000Y-124460000D01*
X154940000Y-124460000D02*
X154940000Y-119380000D01*
X154940000Y-119380000D02*
X156210000Y-118110000D01*
X156210000Y-118110000D02*
X158750000Y-118110000D01*
D27*
X158750000Y-107950000D02*
X156210000Y-107950000D01*
X153670000Y-106680000D02*
X153670000Y-100330000D01*
X154940000Y-107950000D02*
X153670000Y-106680000D01*
X156210000Y-107950000D02*
X154940000Y-107950000D01*
X158750000Y-101600000D02*
X158750000Y-105410000D01*
X158750000Y-107950000D02*
X164465000Y-107950000D01*
D28*
X147320000Y-95250000D02*
X147320000Y-80010000D01*
X144780000Y-95250000D02*
X142240000Y-95250000D01*
X142240000Y-120650000D02*
X130810000Y-120650000D01*
X130810000Y-118110000D02*
X140970000Y-118110000D01*
X140970000Y-92710000D02*
X144780000Y-92710000D01*
X130810000Y-115570000D02*
X139700000Y-115570000D01*
X139700000Y-90170000D02*
X144780000Y-90170000D01*
X130810000Y-87630000D02*
X144780000Y-87630000D01*
X144780000Y-85090000D02*
X130810000Y-85090000D01*
X130810000Y-82550000D02*
X144780000Y-82550000D01*
X130810000Y-80010000D02*
X144780000Y-80010000D01*
D29*
X164425000Y-112990000D02*
X164465000Y-113030000D01*
D28*
X144780000Y-105410000D02*
X146050000Y-106680000D01*
X147320000Y-110490000D02*
X151130000Y-110490000D01*
X146050000Y-109220000D02*
X147320000Y-110490000D01*
X146050000Y-106680000D02*
X146050000Y-109220000D01*
X151130000Y-118110000D02*
X147280000Y-118110000D01*
X147280000Y-107950000D02*
X151130000Y-107950000D01*
X147280000Y-115570000D02*
X151130000Y-115570000D01*
X144780000Y-115570000D02*
X144780000Y-114300000D01*
X146050000Y-113030000D02*
X151130000Y-113030000D01*
X144780000Y-114300000D02*
X146050000Y-113030000D01*
X147280000Y-105410000D02*
X151130000Y-105410000D01*
D27*
X118110000Y-123190000D02*
X118110000Y-120650000D01*
X113030000Y-120650000D02*
X118110000Y-120650000D01*
D28*
X113030000Y-110490000D02*
X118110000Y-110490000D01*
D27*
X113030000Y-107950000D02*
X118110000Y-107950000D01*
D28*
X118110000Y-105410000D02*
X113030000Y-105410000D01*
D29*
X113030000Y-102870000D02*
X118110000Y-102870000D01*
D27*
X118110000Y-100330000D02*
X113030000Y-100330000D01*
D28*
X113030000Y-97790000D02*
X118110000Y-97790000D01*
X118110000Y-95250000D02*
X113030000Y-95250000D01*
D27*
X113030000Y-87630000D02*
X118110000Y-87630000D01*
X130810000Y-123190000D02*
X120650000Y-123190000D01*
D28*
X120650000Y-120650000D02*
X130810000Y-120650000D01*
X120650000Y-118110000D02*
X130810000Y-118110000D01*
D29*
X130810000Y-115570000D02*
X120650000Y-115570000D01*
D28*
X130810000Y-110490000D02*
X120650000Y-110490000D01*
X120650000Y-107950000D02*
X130810000Y-107950000D01*
X120650000Y-105410000D02*
X130810000Y-105410000D01*
D27*
X130810000Y-102870000D02*
X120650000Y-102870000D01*
D28*
X120650000Y-100330000D02*
X130810000Y-100330000D01*
X120650000Y-95250000D02*
X130810000Y-95250000D01*
D27*
X130810000Y-92710000D02*
X120650000Y-92710000D01*
D28*
X130810000Y-87630000D02*
X120650000Y-87630000D01*
X120650000Y-85090000D02*
X130810000Y-85090000D01*
X125730000Y-82550000D02*
X120650000Y-82550000D01*
X130810000Y-82550000D02*
X125730000Y-82550000D01*
X120650000Y-80010000D02*
X130810000Y-80010000D01*
X120650000Y-77470000D02*
X130810000Y-77470000D01*
X118110000Y-85090000D02*
X113030000Y-85090000D01*
D27*
X113030000Y-82550000D02*
X118110000Y-82550000D01*
D28*
X118110000Y-80010000D02*
X113030000Y-80010000D01*
X113030000Y-77470000D02*
X118110000Y-77470000D01*
X118110000Y-74930000D02*
X113030000Y-74930000D01*
M02*
