%FSLAX45Y45*%
G04 Gerber Fmt 4.5, Leading zero omitted, Abs format (unit mm)*
G04 Created by KiCad (PCBNEW 4.0.5+dfsg1-4) date Sun Oct  6 15:52:09 2019*
%MOMM*%
%LPD*%
G01*
G04 APERTURE LIST*
%ADD10C,0.127000*%
%ADD11C,0.150000*%
%ADD12C,0.200000*%
%ADD13C,0.300000*%
G04 APERTURE END LIST*
D10*
D11*
X17145000Y-7112000D02*
X10033000Y-7112000D01*
X17145000Y-12827000D02*
X17145000Y-7112000D01*
X10033000Y-12827000D02*
X17145000Y-12827000D01*
X10033000Y-7112000D02*
X10033000Y-12827000D01*
D12*
X10902000Y-12045000D02*
X10942000Y-12085000D01*
X10942000Y-12045000D02*
X10902000Y-12085000D01*
X12426000Y-11664000D02*
X12466000Y-11704000D01*
X12466000Y-11664000D02*
X12426000Y-11704000D01*
X12426000Y-12553000D02*
X12466000Y-12593000D01*
X12466000Y-12553000D02*
X12426000Y-12593000D01*
X12680000Y-11410000D02*
X12720000Y-11450000D01*
X12720000Y-11410000D02*
X12680000Y-11450000D01*
X12680000Y-12680000D02*
X12720000Y-12720000D01*
X12720000Y-12680000D02*
X12680000Y-12720000D01*
X13696000Y-7473000D02*
X13736000Y-7513000D01*
X13736000Y-7473000D02*
X13696000Y-7513000D01*
X13696000Y-9251000D02*
X13736000Y-9291000D01*
X13736000Y-9251000D02*
X13696000Y-9291000D01*
X13823000Y-10267000D02*
X13863000Y-10307000D01*
X13863000Y-10267000D02*
X13823000Y-10307000D01*
X13823000Y-12299000D02*
X13863000Y-12339000D01*
X13863000Y-12299000D02*
X13823000Y-12339000D01*
X13950000Y-8997000D02*
X13990000Y-9037000D01*
X13990000Y-8997000D02*
X13950000Y-9037000D01*
X13950000Y-11537000D02*
X13990000Y-11577000D01*
X13990000Y-11537000D02*
X13950000Y-11577000D01*
X14077000Y-9251000D02*
X14117000Y-9291000D01*
X14117000Y-9251000D02*
X14077000Y-9291000D01*
X14077000Y-11791000D02*
X14117000Y-11831000D01*
X14117000Y-11791000D02*
X14077000Y-11831000D01*
X14204000Y-9505000D02*
X14244000Y-9545000D01*
X14244000Y-9505000D02*
X14204000Y-9545000D01*
X14204000Y-12045000D02*
X14244000Y-12085000D01*
X14244000Y-12045000D02*
X14204000Y-12085000D01*
X15093000Y-8616000D02*
X15133000Y-8656000D01*
X15133000Y-8616000D02*
X15093000Y-8656000D01*
X14513000Y-10541000D02*
G75*
G03X14513000Y-10541000I-35000J0D01*
G01*
X14513000Y-10795000D02*
G75*
G03X14513000Y-10795000I-35000J0D01*
G01*
X14513000Y-11557000D02*
G75*
G03X14513000Y-11557000I-35000J0D01*
G01*
X14513000Y-11811000D02*
G75*
G03X14513000Y-11811000I-35000J0D01*
G01*
X14763000Y-10541000D02*
G75*
G03X14763000Y-10541000I-35000J0D01*
G01*
X14763000Y-10795000D02*
G75*
G03X14763000Y-10795000I-35000J0D01*
G01*
X14763000Y-11557000D02*
G75*
G03X14763000Y-11557000I-35000J0D01*
G01*
X14763000Y-11811000D02*
G75*
G03X14763000Y-11811000I-35000J0D01*
G01*
X15402000Y-10033000D02*
G75*
G03X15402000Y-10033000I-35000J0D01*
G01*
X15652000Y-10033000D02*
G75*
G03X15652000Y-10033000I-35000J0D01*
G01*
X15113000Y-10501000D02*
X15113000Y-10581000D01*
X15073000Y-10541000D02*
X15153000Y-10541000D01*
X15113000Y-10755000D02*
X15113000Y-10835000D01*
X15073000Y-10795000D02*
X15153000Y-10795000D01*
X15113000Y-11009000D02*
X15113000Y-11089000D01*
X15073000Y-11049000D02*
X15153000Y-11049000D01*
X15113000Y-11263000D02*
X15113000Y-11343000D01*
X15073000Y-11303000D02*
X15153000Y-11303000D01*
X15113000Y-11517000D02*
X15113000Y-11597000D01*
X15073000Y-11557000D02*
X15153000Y-11557000D01*
X15113000Y-11771000D02*
X15113000Y-11851000D01*
X15073000Y-11811000D02*
X15153000Y-11811000D01*
X15113000Y-12025000D02*
X15113000Y-12105000D01*
X15073000Y-12065000D02*
X15153000Y-12065000D01*
X15113000Y-12279000D02*
X15113000Y-12359000D01*
X15073000Y-12319000D02*
X15153000Y-12319000D01*
X15494000Y-8346000D02*
X15494000Y-8426000D01*
X15454000Y-8386000D02*
X15534000Y-8386000D01*
X15494000Y-8596000D02*
X15494000Y-8676000D01*
X15454000Y-8636000D02*
X15534000Y-8636000D01*
X15875000Y-10501000D02*
X15875000Y-10581000D01*
X15835000Y-10541000D02*
X15915000Y-10541000D01*
X15875000Y-10755000D02*
X15875000Y-10835000D01*
X15835000Y-10795000D02*
X15915000Y-10795000D01*
X15875000Y-11009000D02*
X15875000Y-11089000D01*
X15835000Y-11049000D02*
X15915000Y-11049000D01*
X15875000Y-11263000D02*
X15875000Y-11343000D01*
X15835000Y-11303000D02*
X15915000Y-11303000D01*
X15875000Y-11517000D02*
X15875000Y-11597000D01*
X15835000Y-11557000D02*
X15915000Y-11557000D01*
X15875000Y-11771000D02*
X15875000Y-11851000D01*
X15835000Y-11811000D02*
X15915000Y-11811000D01*
X15875000Y-12025000D02*
X15875000Y-12105000D01*
X15835000Y-12065000D02*
X15915000Y-12065000D01*
X15875000Y-12279000D02*
X15875000Y-12359000D01*
X15835000Y-12319000D02*
X15915000Y-12319000D01*
X11338921Y-7528921D02*
X11338921Y-7457079D01*
X11267079Y-7457079D01*
X11267079Y-7528921D01*
X11338921Y-7528921D01*
X11338921Y-7782921D02*
X11338921Y-7711079D01*
X11267079Y-7711079D01*
X11267079Y-7782921D01*
X11338921Y-7782921D01*
X11338921Y-8036921D02*
X11338921Y-7965079D01*
X11267079Y-7965079D01*
X11267079Y-8036921D01*
X11338921Y-8036921D01*
X11338921Y-8290921D02*
X11338921Y-8219079D01*
X11267079Y-8219079D01*
X11267079Y-8290921D01*
X11338921Y-8290921D01*
X11338921Y-8544921D02*
X11338921Y-8473079D01*
X11267079Y-8473079D01*
X11267079Y-8544921D01*
X11338921Y-8544921D01*
X11338921Y-8798921D02*
X11338921Y-8727079D01*
X11267079Y-8727079D01*
X11267079Y-8798921D01*
X11338921Y-8798921D01*
X11338921Y-9052921D02*
X11338921Y-8981079D01*
X11267079Y-8981079D01*
X11267079Y-9052921D01*
X11338921Y-9052921D01*
X11338921Y-9306921D02*
X11338921Y-9235079D01*
X11267079Y-9235079D01*
X11267079Y-9306921D01*
X11338921Y-9306921D01*
X11338921Y-9560921D02*
X11338921Y-9489079D01*
X11267079Y-9489079D01*
X11267079Y-9560921D01*
X11338921Y-9560921D01*
X11338921Y-9814921D02*
X11338921Y-9743079D01*
X11267079Y-9743079D01*
X11267079Y-9814921D01*
X11338921Y-9814921D01*
X11338921Y-10068921D02*
X11338921Y-9997079D01*
X11267079Y-9997079D01*
X11267079Y-10068921D01*
X11338921Y-10068921D01*
X11338921Y-10322921D02*
X11338921Y-10251079D01*
X11267079Y-10251079D01*
X11267079Y-10322921D01*
X11338921Y-10322921D01*
X11338921Y-10576921D02*
X11338921Y-10505079D01*
X11267079Y-10505079D01*
X11267079Y-10576921D01*
X11338921Y-10576921D01*
X11338921Y-10830921D02*
X11338921Y-10759079D01*
X11267079Y-10759079D01*
X11267079Y-10830921D01*
X11338921Y-10830921D01*
X11338921Y-11084921D02*
X11338921Y-11013079D01*
X11267079Y-11013079D01*
X11267079Y-11084921D01*
X11338921Y-11084921D01*
X11338921Y-11338921D02*
X11338921Y-11267079D01*
X11267079Y-11267079D01*
X11267079Y-11338921D01*
X11338921Y-11338921D01*
X11338921Y-11592921D02*
X11338921Y-11521079D01*
X11267079Y-11521079D01*
X11267079Y-11592921D01*
X11338921Y-11592921D01*
X11338921Y-11846921D02*
X11338921Y-11775079D01*
X11267079Y-11775079D01*
X11267079Y-11846921D01*
X11338921Y-11846921D01*
X11338921Y-12100921D02*
X11338921Y-12029079D01*
X11267079Y-12029079D01*
X11267079Y-12100921D01*
X11338921Y-12100921D01*
X11338921Y-12354921D02*
X11338921Y-12283079D01*
X11267079Y-12283079D01*
X11267079Y-12354921D01*
X11338921Y-12354921D01*
X11846921Y-7528921D02*
X11846921Y-7457079D01*
X11775079Y-7457079D01*
X11775079Y-7528921D01*
X11846921Y-7528921D01*
X11846921Y-7782921D02*
X11846921Y-7711079D01*
X11775079Y-7711079D01*
X11775079Y-7782921D01*
X11846921Y-7782921D01*
X11846921Y-8036921D02*
X11846921Y-7965079D01*
X11775079Y-7965079D01*
X11775079Y-8036921D01*
X11846921Y-8036921D01*
X11846921Y-8290921D02*
X11846921Y-8219079D01*
X11775079Y-8219079D01*
X11775079Y-8290921D01*
X11846921Y-8290921D01*
X11846921Y-8544921D02*
X11846921Y-8473079D01*
X11775079Y-8473079D01*
X11775079Y-8544921D01*
X11846921Y-8544921D01*
X11846921Y-8798921D02*
X11846921Y-8727079D01*
X11775079Y-8727079D01*
X11775079Y-8798921D01*
X11846921Y-8798921D01*
X11846921Y-9052921D02*
X11846921Y-8981079D01*
X11775079Y-8981079D01*
X11775079Y-9052921D01*
X11846921Y-9052921D01*
X11846921Y-9306921D02*
X11846921Y-9235079D01*
X11775079Y-9235079D01*
X11775079Y-9306921D01*
X11846921Y-9306921D01*
X11846921Y-9560921D02*
X11846921Y-9489079D01*
X11775079Y-9489079D01*
X11775079Y-9560921D01*
X11846921Y-9560921D01*
X11846921Y-9814921D02*
X11846921Y-9743079D01*
X11775079Y-9743079D01*
X11775079Y-9814921D01*
X11846921Y-9814921D01*
X11846921Y-10068921D02*
X11846921Y-9997079D01*
X11775079Y-9997079D01*
X11775079Y-10068921D01*
X11846921Y-10068921D01*
X11846921Y-10322921D02*
X11846921Y-10251079D01*
X11775079Y-10251079D01*
X11775079Y-10322921D01*
X11846921Y-10322921D01*
X11846921Y-10576921D02*
X11846921Y-10505079D01*
X11775079Y-10505079D01*
X11775079Y-10576921D01*
X11846921Y-10576921D01*
X11846921Y-10830921D02*
X11846921Y-10759079D01*
X11775079Y-10759079D01*
X11775079Y-10830921D01*
X11846921Y-10830921D01*
X11846921Y-11084921D02*
X11846921Y-11013079D01*
X11775079Y-11013079D01*
X11775079Y-11084921D01*
X11846921Y-11084921D01*
X11846921Y-11338921D02*
X11846921Y-11267079D01*
X11775079Y-11267079D01*
X11775079Y-11338921D01*
X11846921Y-11338921D01*
X11846921Y-11592921D02*
X11846921Y-11521079D01*
X11775079Y-11521079D01*
X11775079Y-11592921D01*
X11846921Y-11592921D01*
X11846921Y-11846921D02*
X11846921Y-11775079D01*
X11775079Y-11775079D01*
X11775079Y-11846921D01*
X11846921Y-11846921D01*
X11846921Y-12100921D02*
X11846921Y-12029079D01*
X11775079Y-12029079D01*
X11775079Y-12100921D01*
X11846921Y-12100921D01*
X11846921Y-12354921D02*
X11846921Y-12283079D01*
X11775079Y-12283079D01*
X11775079Y-12354921D01*
X11846921Y-12354921D01*
X12100921Y-7528921D02*
X12100921Y-7457079D01*
X12029079Y-7457079D01*
X12029079Y-7528921D01*
X12100921Y-7528921D01*
X12100921Y-7782921D02*
X12100921Y-7711079D01*
X12029079Y-7711079D01*
X12029079Y-7782921D01*
X12100921Y-7782921D01*
X12100921Y-8036921D02*
X12100921Y-7965079D01*
X12029079Y-7965079D01*
X12029079Y-8036921D01*
X12100921Y-8036921D01*
X12100921Y-8290921D02*
X12100921Y-8219079D01*
X12029079Y-8219079D01*
X12029079Y-8290921D01*
X12100921Y-8290921D01*
X12100921Y-8544921D02*
X12100921Y-8473079D01*
X12029079Y-8473079D01*
X12029079Y-8544921D01*
X12100921Y-8544921D01*
X12100921Y-8798921D02*
X12100921Y-8727079D01*
X12029079Y-8727079D01*
X12029079Y-8798921D01*
X12100921Y-8798921D01*
X12100921Y-9052921D02*
X12100921Y-8981079D01*
X12029079Y-8981079D01*
X12029079Y-9052921D01*
X12100921Y-9052921D01*
X12100921Y-9306921D02*
X12100921Y-9235079D01*
X12029079Y-9235079D01*
X12029079Y-9306921D01*
X12100921Y-9306921D01*
X12100921Y-9560921D02*
X12100921Y-9489079D01*
X12029079Y-9489079D01*
X12029079Y-9560921D01*
X12100921Y-9560921D01*
X12100921Y-9814921D02*
X12100921Y-9743079D01*
X12029079Y-9743079D01*
X12029079Y-9814921D01*
X12100921Y-9814921D01*
X12100921Y-10068921D02*
X12100921Y-9997079D01*
X12029079Y-9997079D01*
X12029079Y-10068921D01*
X12100921Y-10068921D01*
X12100921Y-10322921D02*
X12100921Y-10251079D01*
X12029079Y-10251079D01*
X12029079Y-10322921D01*
X12100921Y-10322921D01*
X12100921Y-10576921D02*
X12100921Y-10505079D01*
X12029079Y-10505079D01*
X12029079Y-10576921D01*
X12100921Y-10576921D01*
X12100921Y-10830921D02*
X12100921Y-10759079D01*
X12029079Y-10759079D01*
X12029079Y-10830921D01*
X12100921Y-10830921D01*
X12100921Y-11084921D02*
X12100921Y-11013079D01*
X12029079Y-11013079D01*
X12029079Y-11084921D01*
X12100921Y-11084921D01*
X12100921Y-11338921D02*
X12100921Y-11267079D01*
X12029079Y-11267079D01*
X12029079Y-11338921D01*
X12100921Y-11338921D01*
X12100921Y-11592921D02*
X12100921Y-11521079D01*
X12029079Y-11521079D01*
X12029079Y-11592921D01*
X12100921Y-11592921D01*
X12100921Y-11846921D02*
X12100921Y-11775079D01*
X12029079Y-11775079D01*
X12029079Y-11846921D01*
X12100921Y-11846921D01*
X12100921Y-12100921D02*
X12100921Y-12029079D01*
X12029079Y-12029079D01*
X12029079Y-12100921D01*
X12100921Y-12100921D01*
X12100921Y-12354921D02*
X12100921Y-12283079D01*
X12029079Y-12283079D01*
X12029079Y-12354921D01*
X12100921Y-12354921D01*
X12608921Y-8036921D02*
X12608921Y-7965079D01*
X12537079Y-7965079D01*
X12537079Y-8036921D01*
X12608921Y-8036921D01*
X12608921Y-8290921D02*
X12608921Y-8219079D01*
X12537079Y-8219079D01*
X12537079Y-8290921D01*
X12608921Y-8290921D01*
X12608921Y-8544921D02*
X12608921Y-8473079D01*
X12537079Y-8473079D01*
X12537079Y-8544921D01*
X12608921Y-8544921D01*
X12608921Y-8798921D02*
X12608921Y-8727079D01*
X12537079Y-8727079D01*
X12537079Y-8798921D01*
X12608921Y-8798921D01*
X13116921Y-7528921D02*
X13116921Y-7457079D01*
X13045079Y-7457079D01*
X13045079Y-7528921D01*
X13116921Y-7528921D01*
X13116921Y-7782921D02*
X13116921Y-7711079D01*
X13045079Y-7711079D01*
X13045079Y-7782921D01*
X13116921Y-7782921D01*
X13116921Y-8036921D02*
X13116921Y-7965079D01*
X13045079Y-7965079D01*
X13045079Y-8036921D01*
X13116921Y-8036921D01*
X13116921Y-8290921D02*
X13116921Y-8219079D01*
X13045079Y-8219079D01*
X13045079Y-8290921D01*
X13116921Y-8290921D01*
X13116921Y-8544921D02*
X13116921Y-8473079D01*
X13045079Y-8473079D01*
X13045079Y-8544921D01*
X13116921Y-8544921D01*
X13116921Y-8798921D02*
X13116921Y-8727079D01*
X13045079Y-8727079D01*
X13045079Y-8798921D01*
X13116921Y-8798921D01*
X13116921Y-9052921D02*
X13116921Y-8981079D01*
X13045079Y-8981079D01*
X13045079Y-9052921D01*
X13116921Y-9052921D01*
X13116921Y-9306921D02*
X13116921Y-9235079D01*
X13045079Y-9235079D01*
X13045079Y-9306921D01*
X13116921Y-9306921D01*
X13116921Y-9560921D02*
X13116921Y-9489079D01*
X13045079Y-9489079D01*
X13045079Y-9560921D01*
X13116921Y-9560921D01*
X13116921Y-9814921D02*
X13116921Y-9743079D01*
X13045079Y-9743079D01*
X13045079Y-9814921D01*
X13116921Y-9814921D01*
X13116921Y-10068921D02*
X13116921Y-9997079D01*
X13045079Y-9997079D01*
X13045079Y-10068921D01*
X13116921Y-10068921D01*
X13116921Y-10322921D02*
X13116921Y-10251079D01*
X13045079Y-10251079D01*
X13045079Y-10322921D01*
X13116921Y-10322921D01*
X13116921Y-10576921D02*
X13116921Y-10505079D01*
X13045079Y-10505079D01*
X13045079Y-10576921D01*
X13116921Y-10576921D01*
X13116921Y-10830921D02*
X13116921Y-10759079D01*
X13045079Y-10759079D01*
X13045079Y-10830921D01*
X13116921Y-10830921D01*
X13116921Y-11084921D02*
X13116921Y-11013079D01*
X13045079Y-11013079D01*
X13045079Y-11084921D01*
X13116921Y-11084921D01*
X13116921Y-11338921D02*
X13116921Y-11267079D01*
X13045079Y-11267079D01*
X13045079Y-11338921D01*
X13116921Y-11338921D01*
X13116921Y-11592921D02*
X13116921Y-11521079D01*
X13045079Y-11521079D01*
X13045079Y-11592921D01*
X13116921Y-11592921D01*
X13116921Y-11846921D02*
X13116921Y-11775079D01*
X13045079Y-11775079D01*
X13045079Y-11846921D01*
X13116921Y-11846921D01*
X13116921Y-12100921D02*
X13116921Y-12029079D01*
X13045079Y-12029079D01*
X13045079Y-12100921D01*
X13116921Y-12100921D01*
X13116921Y-12354921D02*
X13116921Y-12283079D01*
X13045079Y-12283079D01*
X13045079Y-12354921D01*
X13116921Y-12354921D01*
X14513921Y-8036921D02*
X14513921Y-7965079D01*
X14442079Y-7965079D01*
X14442079Y-8036921D01*
X14513921Y-8036921D01*
X14513921Y-8290921D02*
X14513921Y-8219079D01*
X14442079Y-8219079D01*
X14442079Y-8290921D01*
X14513921Y-8290921D01*
X14513921Y-8544921D02*
X14513921Y-8473079D01*
X14442079Y-8473079D01*
X14442079Y-8544921D01*
X14513921Y-8544921D01*
X14513921Y-8798921D02*
X14513921Y-8727079D01*
X14442079Y-8727079D01*
X14442079Y-8798921D01*
X14513921Y-8798921D01*
X14513921Y-9052921D02*
X14513921Y-8981079D01*
X14442079Y-8981079D01*
X14442079Y-9052921D01*
X14513921Y-9052921D01*
X14513921Y-9306921D02*
X14513921Y-9235079D01*
X14442079Y-9235079D01*
X14442079Y-9306921D01*
X14513921Y-9306921D01*
X14513921Y-9560921D02*
X14513921Y-9489079D01*
X14442079Y-9489079D01*
X14442079Y-9560921D01*
X14513921Y-9560921D01*
X14767921Y-7528921D02*
X14767921Y-7457079D01*
X14696079Y-7457079D01*
X14696079Y-7528921D01*
X14767921Y-7528921D01*
X14767921Y-8036921D02*
X14767921Y-7965079D01*
X14696079Y-7965079D01*
X14696079Y-8036921D01*
X14767921Y-8036921D01*
X14767921Y-8290921D02*
X14767921Y-8219079D01*
X14696079Y-8219079D01*
X14696079Y-8290921D01*
X14767921Y-8290921D01*
X14767921Y-8544921D02*
X14767921Y-8473079D01*
X14696079Y-8473079D01*
X14696079Y-8544921D01*
X14767921Y-8544921D01*
X14767921Y-8798921D02*
X14767921Y-8727079D01*
X14696079Y-8727079D01*
X14696079Y-8798921D01*
X14767921Y-8798921D01*
X14767921Y-9052921D02*
X14767921Y-8981079D01*
X14696079Y-8981079D01*
X14696079Y-9052921D01*
X14767921Y-9052921D01*
X14767921Y-9306921D02*
X14767921Y-9235079D01*
X14696079Y-9235079D01*
X14696079Y-9306921D01*
X14767921Y-9306921D01*
X14767921Y-9560921D02*
X14767921Y-9489079D01*
X14696079Y-9489079D01*
X14696079Y-9560921D01*
X14767921Y-9560921D01*
X16291921Y-8163921D02*
X16291921Y-8092079D01*
X16220079Y-8092079D01*
X16220079Y-8163921D01*
X16291921Y-8163921D01*
X16291921Y-8417921D02*
X16291921Y-8346079D01*
X16220079Y-8346079D01*
X16220079Y-8417921D01*
X16291921Y-8417921D01*
X16291921Y-8671921D02*
X16291921Y-8600079D01*
X16220079Y-8600079D01*
X16220079Y-8671921D01*
X16291921Y-8671921D01*
X16291921Y-8925921D02*
X16291921Y-8854079D01*
X16220079Y-8854079D01*
X16220079Y-8925921D01*
X16291921Y-8925921D01*
X16291921Y-9179921D02*
X16291921Y-9108079D01*
X16220079Y-9108079D01*
X16220079Y-9179921D01*
X16291921Y-9179921D01*
X16291921Y-9687921D02*
X16291921Y-9616079D01*
X16220079Y-9616079D01*
X16220079Y-9687921D01*
X16291921Y-9687921D01*
X16291921Y-9941921D02*
X16291921Y-9870079D01*
X16220079Y-9870079D01*
X16220079Y-9941921D01*
X16291921Y-9941921D01*
X16545921Y-8163921D02*
X16545921Y-8092079D01*
X16474079Y-8092079D01*
X16474079Y-8163921D01*
X16545921Y-8163921D01*
X16545921Y-8417921D02*
X16545921Y-8346079D01*
X16474079Y-8346079D01*
X16474079Y-8417921D01*
X16545921Y-8417921D01*
X16545921Y-8671921D02*
X16545921Y-8600079D01*
X16474079Y-8600079D01*
X16474079Y-8671921D01*
X16545921Y-8671921D01*
X16545921Y-8925921D02*
X16545921Y-8854079D01*
X16474079Y-8854079D01*
X16474079Y-8925921D01*
X16545921Y-8925921D01*
X16545921Y-9179921D02*
X16545921Y-9108079D01*
X16474079Y-9108079D01*
X16474079Y-9179921D01*
X16545921Y-9179921D01*
X16545921Y-9687921D02*
X16545921Y-9616079D01*
X16474079Y-9616079D01*
X16474079Y-9687921D01*
X16545921Y-9687921D01*
X16545921Y-9941921D02*
X16545921Y-9870079D01*
X16474079Y-9870079D01*
X16474079Y-9941921D01*
X16545921Y-9941921D01*
X16545921Y-10830921D02*
X16545921Y-10759079D01*
X16474079Y-10759079D01*
X16474079Y-10830921D01*
X16545921Y-10830921D01*
X16545921Y-11084921D02*
X16545921Y-11013079D01*
X16474079Y-11013079D01*
X16474079Y-11084921D01*
X16545921Y-11084921D01*
X16545921Y-11338921D02*
X16545921Y-11267079D01*
X16474079Y-11267079D01*
X16474079Y-11338921D01*
X16545921Y-11338921D01*
X10414000Y-7628000D02*
X10549000Y-7493000D01*
X10414000Y-7358000D01*
X10279000Y-7493000D01*
X10414000Y-7628000D01*
X10414000Y-12581000D02*
X10549000Y-12446000D01*
X10414000Y-12311000D01*
X10279000Y-12446000D01*
X10414000Y-12581000D01*
X16764000Y-7628000D02*
X16899000Y-7493000D01*
X16764000Y-7358000D01*
X16629000Y-7493000D01*
X16764000Y-7628000D01*
X16764000Y-12581000D02*
X16899000Y-12446000D01*
X16764000Y-12311000D01*
X16629000Y-12446000D01*
X16764000Y-12581000D01*
D13*
X10296929Y-13300214D02*
X10296929Y-13000214D01*
X10368357Y-13000214D01*
X10411214Y-13014500D01*
X10439786Y-13043071D01*
X10454071Y-13071643D01*
X10468357Y-13128786D01*
X10468357Y-13171643D01*
X10454071Y-13228786D01*
X10439786Y-13257357D01*
X10411214Y-13285929D01*
X10368357Y-13300214D01*
X10296929Y-13300214D01*
X10596929Y-13300214D02*
X10596929Y-13100214D01*
X10596929Y-13157357D02*
X10611214Y-13128786D01*
X10625500Y-13114500D01*
X10654071Y-13100214D01*
X10682643Y-13100214D01*
X10782643Y-13300214D02*
X10782643Y-13100214D01*
X10782643Y-13000214D02*
X10768357Y-13014500D01*
X10782643Y-13028786D01*
X10796929Y-13014500D01*
X10782643Y-13000214D01*
X10782643Y-13028786D01*
X10968357Y-13300214D02*
X10939786Y-13285929D01*
X10925500Y-13257357D01*
X10925500Y-13000214D01*
X11125500Y-13300214D02*
X11096929Y-13285929D01*
X11082643Y-13257357D01*
X11082643Y-13000214D01*
X11468357Y-13300214D02*
X11468357Y-13000214D01*
X11568357Y-13214500D01*
X11668357Y-13000214D01*
X11668357Y-13300214D01*
X11939786Y-13300214D02*
X11939786Y-13143071D01*
X11925500Y-13114500D01*
X11896928Y-13100214D01*
X11839786Y-13100214D01*
X11811214Y-13114500D01*
X11939786Y-13285929D02*
X11911214Y-13300214D01*
X11839786Y-13300214D01*
X11811214Y-13285929D01*
X11796928Y-13257357D01*
X11796928Y-13228786D01*
X11811214Y-13200214D01*
X11839786Y-13185929D01*
X11911214Y-13185929D01*
X11939786Y-13171643D01*
X12082643Y-13100214D02*
X12082643Y-13400214D01*
X12082643Y-13114500D02*
X12111214Y-13100214D01*
X12168357Y-13100214D01*
X12196928Y-13114500D01*
X12211214Y-13128786D01*
X12225500Y-13157357D01*
X12225500Y-13243071D01*
X12211214Y-13271643D01*
X12196928Y-13285929D01*
X12168357Y-13300214D01*
X12111214Y-13300214D01*
X12082643Y-13285929D01*
X12354071Y-13271643D02*
X12368357Y-13285929D01*
X12354071Y-13300214D01*
X12339786Y-13285929D01*
X12354071Y-13271643D01*
X12354071Y-13300214D01*
X12354071Y-13114500D02*
X12368357Y-13128786D01*
X12354071Y-13143071D01*
X12339786Y-13128786D01*
X12354071Y-13114500D01*
X12354071Y-13143071D01*
X9985500Y-13774500D02*
X10025500Y-13814500D01*
X10025500Y-13774500D02*
X9985500Y-13814500D01*
X10354071Y-13630214D02*
X10382643Y-13630214D01*
X10411214Y-13644500D01*
X10425500Y-13658786D01*
X10439786Y-13687357D01*
X10454071Y-13744500D01*
X10454071Y-13815929D01*
X10439786Y-13873071D01*
X10425500Y-13901643D01*
X10411214Y-13915929D01*
X10382643Y-13930214D01*
X10354071Y-13930214D01*
X10325500Y-13915929D01*
X10311214Y-13901643D01*
X10296929Y-13873071D01*
X10282643Y-13815929D01*
X10282643Y-13744500D01*
X10296929Y-13687357D01*
X10311214Y-13658786D01*
X10325500Y-13644500D01*
X10354071Y-13630214D01*
X10582643Y-13901643D02*
X10596929Y-13915929D01*
X10582643Y-13930214D01*
X10568357Y-13915929D01*
X10582643Y-13901643D01*
X10582643Y-13930214D01*
X10854071Y-13730214D02*
X10854071Y-13930214D01*
X10782643Y-13615929D02*
X10711214Y-13830214D01*
X10896928Y-13830214D01*
X11068357Y-13630214D02*
X11096929Y-13630214D01*
X11125500Y-13644500D01*
X11139786Y-13658786D01*
X11154071Y-13687357D01*
X11168357Y-13744500D01*
X11168357Y-13815929D01*
X11154071Y-13873071D01*
X11139786Y-13901643D01*
X11125500Y-13915929D01*
X11096929Y-13930214D01*
X11068357Y-13930214D01*
X11039786Y-13915929D01*
X11025500Y-13901643D01*
X11011214Y-13873071D01*
X10996929Y-13815929D01*
X10996929Y-13744500D01*
X11011214Y-13687357D01*
X11025500Y-13658786D01*
X11039786Y-13644500D01*
X11068357Y-13630214D01*
X11296928Y-13930214D02*
X11296928Y-13730214D01*
X11296928Y-13758786D02*
X11311214Y-13744500D01*
X11339786Y-13730214D01*
X11382643Y-13730214D01*
X11411214Y-13744500D01*
X11425500Y-13773071D01*
X11425500Y-13930214D01*
X11425500Y-13773071D02*
X11439786Y-13744500D01*
X11468357Y-13730214D01*
X11511214Y-13730214D01*
X11539786Y-13744500D01*
X11554071Y-13773071D01*
X11554071Y-13930214D01*
X11696928Y-13930214D02*
X11696928Y-13730214D01*
X11696928Y-13758786D02*
X11711214Y-13744500D01*
X11739786Y-13730214D01*
X11782643Y-13730214D01*
X11811214Y-13744500D01*
X11825500Y-13773071D01*
X11825500Y-13930214D01*
X11825500Y-13773071D02*
X11839786Y-13744500D01*
X11868357Y-13730214D01*
X11911214Y-13730214D01*
X11939786Y-13744500D01*
X11954071Y-13773071D01*
X11954071Y-13930214D01*
X12539786Y-13615929D02*
X12282643Y-14001643D01*
X12925500Y-13630214D02*
X12954071Y-13630214D01*
X12982643Y-13644500D01*
X12996928Y-13658786D01*
X13011214Y-13687357D01*
X13025500Y-13744500D01*
X13025500Y-13815929D01*
X13011214Y-13873071D01*
X12996928Y-13901643D01*
X12982643Y-13915929D01*
X12954071Y-13930214D01*
X12925500Y-13930214D01*
X12896928Y-13915929D01*
X12882643Y-13901643D01*
X12868357Y-13873071D01*
X12854071Y-13815929D01*
X12854071Y-13744500D01*
X12868357Y-13687357D01*
X12882643Y-13658786D01*
X12896928Y-13644500D01*
X12925500Y-13630214D01*
X13154071Y-13901643D02*
X13168357Y-13915929D01*
X13154071Y-13930214D01*
X13139786Y-13915929D01*
X13154071Y-13901643D01*
X13154071Y-13930214D01*
X13354071Y-13630214D02*
X13382643Y-13630214D01*
X13411214Y-13644500D01*
X13425500Y-13658786D01*
X13439785Y-13687357D01*
X13454071Y-13744500D01*
X13454071Y-13815929D01*
X13439785Y-13873071D01*
X13425500Y-13901643D01*
X13411214Y-13915929D01*
X13382643Y-13930214D01*
X13354071Y-13930214D01*
X13325500Y-13915929D01*
X13311214Y-13901643D01*
X13296928Y-13873071D01*
X13282643Y-13815929D01*
X13282643Y-13744500D01*
X13296928Y-13687357D01*
X13311214Y-13658786D01*
X13325500Y-13644500D01*
X13354071Y-13630214D01*
X13739785Y-13930214D02*
X13568357Y-13930214D01*
X13654071Y-13930214D02*
X13654071Y-13630214D01*
X13625500Y-13673071D01*
X13596928Y-13701643D01*
X13568357Y-13715929D01*
X13996928Y-13630214D02*
X13939785Y-13630214D01*
X13911214Y-13644500D01*
X13896928Y-13658786D01*
X13868357Y-13701643D01*
X13854071Y-13758786D01*
X13854071Y-13873071D01*
X13868357Y-13901643D01*
X13882643Y-13915929D01*
X13911214Y-13930214D01*
X13968357Y-13930214D01*
X13996928Y-13915929D01*
X14011214Y-13901643D01*
X14025500Y-13873071D01*
X14025500Y-13801643D01*
X14011214Y-13773071D01*
X13996928Y-13758786D01*
X13968357Y-13744500D01*
X13911214Y-13744500D01*
X13882643Y-13758786D01*
X13868357Y-13773071D01*
X13854071Y-13801643D01*
X14139786Y-13630214D02*
X14139786Y-13687357D01*
X14254071Y-13630214D02*
X14254071Y-13687357D01*
X14696928Y-14044500D02*
X14682643Y-14030214D01*
X14654071Y-13987357D01*
X14639785Y-13958786D01*
X14625500Y-13915929D01*
X14611214Y-13844500D01*
X14611214Y-13787357D01*
X14625500Y-13715929D01*
X14639785Y-13673071D01*
X14654071Y-13644500D01*
X14682643Y-13601643D01*
X14696928Y-13587357D01*
X14968357Y-13930214D02*
X14796928Y-13930214D01*
X14882643Y-13930214D02*
X14882643Y-13630214D01*
X14854071Y-13673071D01*
X14825500Y-13701643D01*
X14796928Y-13715929D01*
X15225500Y-13630214D02*
X15168357Y-13630214D01*
X15139785Y-13644500D01*
X15125500Y-13658786D01*
X15096928Y-13701643D01*
X15082643Y-13758786D01*
X15082643Y-13873071D01*
X15096928Y-13901643D01*
X15111214Y-13915929D01*
X15139785Y-13930214D01*
X15196928Y-13930214D01*
X15225500Y-13915929D01*
X15239785Y-13901643D01*
X15254071Y-13873071D01*
X15254071Y-13801643D01*
X15239785Y-13773071D01*
X15225500Y-13758786D01*
X15196928Y-13744500D01*
X15139785Y-13744500D01*
X15111214Y-13758786D01*
X15096928Y-13773071D01*
X15082643Y-13801643D01*
X15611214Y-13930214D02*
X15611214Y-13630214D01*
X15739785Y-13930214D02*
X15739785Y-13773071D01*
X15725500Y-13744500D01*
X15696928Y-13730214D01*
X15654071Y-13730214D01*
X15625500Y-13744500D01*
X15611214Y-13758786D01*
X15925500Y-13930214D02*
X15896928Y-13915929D01*
X15882643Y-13901643D01*
X15868357Y-13873071D01*
X15868357Y-13787357D01*
X15882643Y-13758786D01*
X15896928Y-13744500D01*
X15925500Y-13730214D01*
X15968357Y-13730214D01*
X15996928Y-13744500D01*
X16011214Y-13758786D01*
X16025500Y-13787357D01*
X16025500Y-13873071D01*
X16011214Y-13901643D01*
X15996928Y-13915929D01*
X15968357Y-13930214D01*
X15925500Y-13930214D01*
X16196928Y-13930214D02*
X16168357Y-13915929D01*
X16154071Y-13887357D01*
X16154071Y-13630214D01*
X16425500Y-13915929D02*
X16396928Y-13930214D01*
X16339786Y-13930214D01*
X16311214Y-13915929D01*
X16296928Y-13887357D01*
X16296928Y-13773071D01*
X16311214Y-13744500D01*
X16339786Y-13730214D01*
X16396928Y-13730214D01*
X16425500Y-13744500D01*
X16439786Y-13773071D01*
X16439786Y-13801643D01*
X16296928Y-13830214D01*
X16554071Y-13915929D02*
X16582643Y-13930214D01*
X16639786Y-13930214D01*
X16668357Y-13915929D01*
X16682643Y-13887357D01*
X16682643Y-13873071D01*
X16668357Y-13844500D01*
X16639786Y-13830214D01*
X16596928Y-13830214D01*
X16568357Y-13815929D01*
X16554071Y-13787357D01*
X16554071Y-13773071D01*
X16568357Y-13744500D01*
X16596928Y-13730214D01*
X16639786Y-13730214D01*
X16668357Y-13744500D01*
X16782643Y-14044500D02*
X16796929Y-14030214D01*
X16825500Y-13987357D01*
X16839786Y-13958786D01*
X16854071Y-13915929D01*
X16868357Y-13844500D01*
X16868357Y-13787357D01*
X16854071Y-13715929D01*
X16839786Y-13673071D01*
X16825500Y-13644500D01*
X16796929Y-13601643D01*
X16782643Y-13587357D01*
X10025500Y-14190500D02*
G75*
G03X10025500Y-14190500I-35000J0D01*
G01*
X10354071Y-14026214D02*
X10382643Y-14026214D01*
X10411214Y-14040500D01*
X10425500Y-14054786D01*
X10439786Y-14083357D01*
X10454071Y-14140500D01*
X10454071Y-14211929D01*
X10439786Y-14269071D01*
X10425500Y-14297643D01*
X10411214Y-14311929D01*
X10382643Y-14326214D01*
X10354071Y-14326214D01*
X10325500Y-14311929D01*
X10311214Y-14297643D01*
X10296929Y-14269071D01*
X10282643Y-14211929D01*
X10282643Y-14140500D01*
X10296929Y-14083357D01*
X10311214Y-14054786D01*
X10325500Y-14040500D01*
X10354071Y-14026214D01*
X10582643Y-14297643D02*
X10596929Y-14311929D01*
X10582643Y-14326214D01*
X10568357Y-14311929D01*
X10582643Y-14297643D01*
X10582643Y-14326214D01*
X10696928Y-14026214D02*
X10896928Y-14026214D01*
X10768357Y-14326214D01*
X11068357Y-14026214D02*
X11096929Y-14026214D01*
X11125500Y-14040500D01*
X11139786Y-14054786D01*
X11154071Y-14083357D01*
X11168357Y-14140500D01*
X11168357Y-14211929D01*
X11154071Y-14269071D01*
X11139786Y-14297643D01*
X11125500Y-14311929D01*
X11096929Y-14326214D01*
X11068357Y-14326214D01*
X11039786Y-14311929D01*
X11025500Y-14297643D01*
X11011214Y-14269071D01*
X10996929Y-14211929D01*
X10996929Y-14140500D01*
X11011214Y-14083357D01*
X11025500Y-14054786D01*
X11039786Y-14040500D01*
X11068357Y-14026214D01*
X11296928Y-14326214D02*
X11296928Y-14126214D01*
X11296928Y-14154786D02*
X11311214Y-14140500D01*
X11339786Y-14126214D01*
X11382643Y-14126214D01*
X11411214Y-14140500D01*
X11425500Y-14169071D01*
X11425500Y-14326214D01*
X11425500Y-14169071D02*
X11439786Y-14140500D01*
X11468357Y-14126214D01*
X11511214Y-14126214D01*
X11539786Y-14140500D01*
X11554071Y-14169071D01*
X11554071Y-14326214D01*
X11696928Y-14326214D02*
X11696928Y-14126214D01*
X11696928Y-14154786D02*
X11711214Y-14140500D01*
X11739786Y-14126214D01*
X11782643Y-14126214D01*
X11811214Y-14140500D01*
X11825500Y-14169071D01*
X11825500Y-14326214D01*
X11825500Y-14169071D02*
X11839786Y-14140500D01*
X11868357Y-14126214D01*
X11911214Y-14126214D01*
X11939786Y-14140500D01*
X11954071Y-14169071D01*
X11954071Y-14326214D01*
X12539786Y-14011929D02*
X12282643Y-14397643D01*
X12925500Y-14026214D02*
X12954071Y-14026214D01*
X12982643Y-14040500D01*
X12996928Y-14054786D01*
X13011214Y-14083357D01*
X13025500Y-14140500D01*
X13025500Y-14211929D01*
X13011214Y-14269071D01*
X12996928Y-14297643D01*
X12982643Y-14311929D01*
X12954071Y-14326214D01*
X12925500Y-14326214D01*
X12896928Y-14311929D01*
X12882643Y-14297643D01*
X12868357Y-14269071D01*
X12854071Y-14211929D01*
X12854071Y-14140500D01*
X12868357Y-14083357D01*
X12882643Y-14054786D01*
X12896928Y-14040500D01*
X12925500Y-14026214D01*
X13154071Y-14297643D02*
X13168357Y-14311929D01*
X13154071Y-14326214D01*
X13139786Y-14311929D01*
X13154071Y-14297643D01*
X13154071Y-14326214D01*
X13354071Y-14026214D02*
X13382643Y-14026214D01*
X13411214Y-14040500D01*
X13425500Y-14054786D01*
X13439785Y-14083357D01*
X13454071Y-14140500D01*
X13454071Y-14211929D01*
X13439785Y-14269071D01*
X13425500Y-14297643D01*
X13411214Y-14311929D01*
X13382643Y-14326214D01*
X13354071Y-14326214D01*
X13325500Y-14311929D01*
X13311214Y-14297643D01*
X13296928Y-14269071D01*
X13282643Y-14211929D01*
X13282643Y-14140500D01*
X13296928Y-14083357D01*
X13311214Y-14054786D01*
X13325500Y-14040500D01*
X13354071Y-14026214D01*
X13568357Y-14054786D02*
X13582643Y-14040500D01*
X13611214Y-14026214D01*
X13682643Y-14026214D01*
X13711214Y-14040500D01*
X13725500Y-14054786D01*
X13739785Y-14083357D01*
X13739785Y-14111929D01*
X13725500Y-14154786D01*
X13554071Y-14326214D01*
X13739785Y-14326214D01*
X13911214Y-14154786D02*
X13882643Y-14140500D01*
X13868357Y-14126214D01*
X13854071Y-14097643D01*
X13854071Y-14083357D01*
X13868357Y-14054786D01*
X13882643Y-14040500D01*
X13911214Y-14026214D01*
X13968357Y-14026214D01*
X13996928Y-14040500D01*
X14011214Y-14054786D01*
X14025500Y-14083357D01*
X14025500Y-14097643D01*
X14011214Y-14126214D01*
X13996928Y-14140500D01*
X13968357Y-14154786D01*
X13911214Y-14154786D01*
X13882643Y-14169071D01*
X13868357Y-14183357D01*
X13854071Y-14211929D01*
X13854071Y-14269071D01*
X13868357Y-14297643D01*
X13882643Y-14311929D01*
X13911214Y-14326214D01*
X13968357Y-14326214D01*
X13996928Y-14311929D01*
X14011214Y-14297643D01*
X14025500Y-14269071D01*
X14025500Y-14211929D01*
X14011214Y-14183357D01*
X13996928Y-14169071D01*
X13968357Y-14154786D01*
X14139786Y-14026214D02*
X14139786Y-14083357D01*
X14254071Y-14026214D02*
X14254071Y-14083357D01*
X14696928Y-14440500D02*
X14682643Y-14426214D01*
X14654071Y-14383357D01*
X14639785Y-14354786D01*
X14625500Y-14311929D01*
X14611214Y-14240500D01*
X14611214Y-14183357D01*
X14625500Y-14111929D01*
X14639785Y-14069071D01*
X14654071Y-14040500D01*
X14682643Y-13997643D01*
X14696928Y-13983357D01*
X14968357Y-14326214D02*
X14796928Y-14326214D01*
X14882643Y-14326214D02*
X14882643Y-14026214D01*
X14854071Y-14069071D01*
X14825500Y-14097643D01*
X14796928Y-14111929D01*
X15154071Y-14026214D02*
X15182643Y-14026214D01*
X15211214Y-14040500D01*
X15225500Y-14054786D01*
X15239785Y-14083357D01*
X15254071Y-14140500D01*
X15254071Y-14211929D01*
X15239785Y-14269071D01*
X15225500Y-14297643D01*
X15211214Y-14311929D01*
X15182643Y-14326214D01*
X15154071Y-14326214D01*
X15125500Y-14311929D01*
X15111214Y-14297643D01*
X15096928Y-14269071D01*
X15082643Y-14211929D01*
X15082643Y-14140500D01*
X15096928Y-14083357D01*
X15111214Y-14054786D01*
X15125500Y-14040500D01*
X15154071Y-14026214D01*
X15611214Y-14326214D02*
X15611214Y-14026214D01*
X15739785Y-14326214D02*
X15739785Y-14169071D01*
X15725500Y-14140500D01*
X15696928Y-14126214D01*
X15654071Y-14126214D01*
X15625500Y-14140500D01*
X15611214Y-14154786D01*
X15925500Y-14326214D02*
X15896928Y-14311929D01*
X15882643Y-14297643D01*
X15868357Y-14269071D01*
X15868357Y-14183357D01*
X15882643Y-14154786D01*
X15896928Y-14140500D01*
X15925500Y-14126214D01*
X15968357Y-14126214D01*
X15996928Y-14140500D01*
X16011214Y-14154786D01*
X16025500Y-14183357D01*
X16025500Y-14269071D01*
X16011214Y-14297643D01*
X15996928Y-14311929D01*
X15968357Y-14326214D01*
X15925500Y-14326214D01*
X16196928Y-14326214D02*
X16168357Y-14311929D01*
X16154071Y-14283357D01*
X16154071Y-14026214D01*
X16425500Y-14311929D02*
X16396928Y-14326214D01*
X16339786Y-14326214D01*
X16311214Y-14311929D01*
X16296928Y-14283357D01*
X16296928Y-14169071D01*
X16311214Y-14140500D01*
X16339786Y-14126214D01*
X16396928Y-14126214D01*
X16425500Y-14140500D01*
X16439786Y-14169071D01*
X16439786Y-14197643D01*
X16296928Y-14226214D01*
X16554071Y-14311929D02*
X16582643Y-14326214D01*
X16639786Y-14326214D01*
X16668357Y-14311929D01*
X16682643Y-14283357D01*
X16682643Y-14269071D01*
X16668357Y-14240500D01*
X16639786Y-14226214D01*
X16596928Y-14226214D01*
X16568357Y-14211929D01*
X16554071Y-14183357D01*
X16554071Y-14169071D01*
X16568357Y-14140500D01*
X16596928Y-14126214D01*
X16639786Y-14126214D01*
X16668357Y-14140500D01*
X16782643Y-14440500D02*
X16796929Y-14426214D01*
X16825500Y-14383357D01*
X16839786Y-14354786D01*
X16854071Y-14311929D01*
X16868357Y-14240500D01*
X16868357Y-14183357D01*
X16854071Y-14111929D01*
X16839786Y-14069071D01*
X16825500Y-14040500D01*
X16796929Y-13997643D01*
X16782643Y-13983357D01*
X9985500Y-14546500D02*
X9985500Y-14626500D01*
X9945500Y-14586500D02*
X10025500Y-14586500D01*
X10354071Y-14422214D02*
X10382643Y-14422214D01*
X10411214Y-14436500D01*
X10425500Y-14450786D01*
X10439786Y-14479357D01*
X10454071Y-14536500D01*
X10454071Y-14607929D01*
X10439786Y-14665071D01*
X10425500Y-14693643D01*
X10411214Y-14707929D01*
X10382643Y-14722214D01*
X10354071Y-14722214D01*
X10325500Y-14707929D01*
X10311214Y-14693643D01*
X10296929Y-14665071D01*
X10282643Y-14607929D01*
X10282643Y-14536500D01*
X10296929Y-14479357D01*
X10311214Y-14450786D01*
X10325500Y-14436500D01*
X10354071Y-14422214D01*
X10582643Y-14693643D02*
X10596929Y-14707929D01*
X10582643Y-14722214D01*
X10568357Y-14707929D01*
X10582643Y-14693643D01*
X10582643Y-14722214D01*
X10768357Y-14550786D02*
X10739786Y-14536500D01*
X10725500Y-14522214D01*
X10711214Y-14493643D01*
X10711214Y-14479357D01*
X10725500Y-14450786D01*
X10739786Y-14436500D01*
X10768357Y-14422214D01*
X10825500Y-14422214D01*
X10854071Y-14436500D01*
X10868357Y-14450786D01*
X10882643Y-14479357D01*
X10882643Y-14493643D01*
X10868357Y-14522214D01*
X10854071Y-14536500D01*
X10825500Y-14550786D01*
X10768357Y-14550786D01*
X10739786Y-14565071D01*
X10725500Y-14579357D01*
X10711214Y-14607929D01*
X10711214Y-14665071D01*
X10725500Y-14693643D01*
X10739786Y-14707929D01*
X10768357Y-14722214D01*
X10825500Y-14722214D01*
X10854071Y-14707929D01*
X10868357Y-14693643D01*
X10882643Y-14665071D01*
X10882643Y-14607929D01*
X10868357Y-14579357D01*
X10854071Y-14565071D01*
X10825500Y-14550786D01*
X11068357Y-14422214D02*
X11096929Y-14422214D01*
X11125500Y-14436500D01*
X11139786Y-14450786D01*
X11154071Y-14479357D01*
X11168357Y-14536500D01*
X11168357Y-14607929D01*
X11154071Y-14665071D01*
X11139786Y-14693643D01*
X11125500Y-14707929D01*
X11096929Y-14722214D01*
X11068357Y-14722214D01*
X11039786Y-14707929D01*
X11025500Y-14693643D01*
X11011214Y-14665071D01*
X10996929Y-14607929D01*
X10996929Y-14536500D01*
X11011214Y-14479357D01*
X11025500Y-14450786D01*
X11039786Y-14436500D01*
X11068357Y-14422214D01*
X11296928Y-14722214D02*
X11296928Y-14522214D01*
X11296928Y-14550786D02*
X11311214Y-14536500D01*
X11339786Y-14522214D01*
X11382643Y-14522214D01*
X11411214Y-14536500D01*
X11425500Y-14565071D01*
X11425500Y-14722214D01*
X11425500Y-14565071D02*
X11439786Y-14536500D01*
X11468357Y-14522214D01*
X11511214Y-14522214D01*
X11539786Y-14536500D01*
X11554071Y-14565071D01*
X11554071Y-14722214D01*
X11696928Y-14722214D02*
X11696928Y-14522214D01*
X11696928Y-14550786D02*
X11711214Y-14536500D01*
X11739786Y-14522214D01*
X11782643Y-14522214D01*
X11811214Y-14536500D01*
X11825500Y-14565071D01*
X11825500Y-14722214D01*
X11825500Y-14565071D02*
X11839786Y-14536500D01*
X11868357Y-14522214D01*
X11911214Y-14522214D01*
X11939786Y-14536500D01*
X11954071Y-14565071D01*
X11954071Y-14722214D01*
X12539786Y-14407929D02*
X12282643Y-14793643D01*
X12925500Y-14422214D02*
X12954071Y-14422214D01*
X12982643Y-14436500D01*
X12996928Y-14450786D01*
X13011214Y-14479357D01*
X13025500Y-14536500D01*
X13025500Y-14607929D01*
X13011214Y-14665071D01*
X12996928Y-14693643D01*
X12982643Y-14707929D01*
X12954071Y-14722214D01*
X12925500Y-14722214D01*
X12896928Y-14707929D01*
X12882643Y-14693643D01*
X12868357Y-14665071D01*
X12854071Y-14607929D01*
X12854071Y-14536500D01*
X12868357Y-14479357D01*
X12882643Y-14450786D01*
X12896928Y-14436500D01*
X12925500Y-14422214D01*
X13154071Y-14693643D02*
X13168357Y-14707929D01*
X13154071Y-14722214D01*
X13139786Y-14707929D01*
X13154071Y-14693643D01*
X13154071Y-14722214D01*
X13354071Y-14422214D02*
X13382643Y-14422214D01*
X13411214Y-14436500D01*
X13425500Y-14450786D01*
X13439785Y-14479357D01*
X13454071Y-14536500D01*
X13454071Y-14607929D01*
X13439785Y-14665071D01*
X13425500Y-14693643D01*
X13411214Y-14707929D01*
X13382643Y-14722214D01*
X13354071Y-14722214D01*
X13325500Y-14707929D01*
X13311214Y-14693643D01*
X13296928Y-14665071D01*
X13282643Y-14607929D01*
X13282643Y-14536500D01*
X13296928Y-14479357D01*
X13311214Y-14450786D01*
X13325500Y-14436500D01*
X13354071Y-14422214D01*
X13554071Y-14422214D02*
X13739785Y-14422214D01*
X13639785Y-14536500D01*
X13682643Y-14536500D01*
X13711214Y-14550786D01*
X13725500Y-14565071D01*
X13739785Y-14593643D01*
X13739785Y-14665071D01*
X13725500Y-14693643D01*
X13711214Y-14707929D01*
X13682643Y-14722214D01*
X13596928Y-14722214D01*
X13568357Y-14707929D01*
X13554071Y-14693643D01*
X14025500Y-14722214D02*
X13854071Y-14722214D01*
X13939785Y-14722214D02*
X13939785Y-14422214D01*
X13911214Y-14465071D01*
X13882643Y-14493643D01*
X13854071Y-14507929D01*
X14139786Y-14422214D02*
X14139786Y-14479357D01*
X14254071Y-14422214D02*
X14254071Y-14479357D01*
X14696928Y-14836500D02*
X14682643Y-14822214D01*
X14654071Y-14779357D01*
X14639785Y-14750786D01*
X14625500Y-14707929D01*
X14611214Y-14636500D01*
X14611214Y-14579357D01*
X14625500Y-14507929D01*
X14639785Y-14465071D01*
X14654071Y-14436500D01*
X14682643Y-14393643D01*
X14696928Y-14379357D01*
X14968357Y-14722214D02*
X14796928Y-14722214D01*
X14882643Y-14722214D02*
X14882643Y-14422214D01*
X14854071Y-14465071D01*
X14825500Y-14493643D01*
X14796928Y-14507929D01*
X15139785Y-14550786D02*
X15111214Y-14536500D01*
X15096928Y-14522214D01*
X15082643Y-14493643D01*
X15082643Y-14479357D01*
X15096928Y-14450786D01*
X15111214Y-14436500D01*
X15139785Y-14422214D01*
X15196928Y-14422214D01*
X15225500Y-14436500D01*
X15239785Y-14450786D01*
X15254071Y-14479357D01*
X15254071Y-14493643D01*
X15239785Y-14522214D01*
X15225500Y-14536500D01*
X15196928Y-14550786D01*
X15139785Y-14550786D01*
X15111214Y-14565071D01*
X15096928Y-14579357D01*
X15082643Y-14607929D01*
X15082643Y-14665071D01*
X15096928Y-14693643D01*
X15111214Y-14707929D01*
X15139785Y-14722214D01*
X15196928Y-14722214D01*
X15225500Y-14707929D01*
X15239785Y-14693643D01*
X15254071Y-14665071D01*
X15254071Y-14607929D01*
X15239785Y-14579357D01*
X15225500Y-14565071D01*
X15196928Y-14550786D01*
X15611214Y-14722214D02*
X15611214Y-14422214D01*
X15739785Y-14722214D02*
X15739785Y-14565071D01*
X15725500Y-14536500D01*
X15696928Y-14522214D01*
X15654071Y-14522214D01*
X15625500Y-14536500D01*
X15611214Y-14550786D01*
X15925500Y-14722214D02*
X15896928Y-14707929D01*
X15882643Y-14693643D01*
X15868357Y-14665071D01*
X15868357Y-14579357D01*
X15882643Y-14550786D01*
X15896928Y-14536500D01*
X15925500Y-14522214D01*
X15968357Y-14522214D01*
X15996928Y-14536500D01*
X16011214Y-14550786D01*
X16025500Y-14579357D01*
X16025500Y-14665071D01*
X16011214Y-14693643D01*
X15996928Y-14707929D01*
X15968357Y-14722214D01*
X15925500Y-14722214D01*
X16196928Y-14722214D02*
X16168357Y-14707929D01*
X16154071Y-14679357D01*
X16154071Y-14422214D01*
X16425500Y-14707929D02*
X16396928Y-14722214D01*
X16339786Y-14722214D01*
X16311214Y-14707929D01*
X16296928Y-14679357D01*
X16296928Y-14565071D01*
X16311214Y-14536500D01*
X16339786Y-14522214D01*
X16396928Y-14522214D01*
X16425500Y-14536500D01*
X16439786Y-14565071D01*
X16439786Y-14593643D01*
X16296928Y-14622214D01*
X16554071Y-14707929D02*
X16582643Y-14722214D01*
X16639786Y-14722214D01*
X16668357Y-14707929D01*
X16682643Y-14679357D01*
X16682643Y-14665071D01*
X16668357Y-14636500D01*
X16639786Y-14622214D01*
X16596928Y-14622214D01*
X16568357Y-14607929D01*
X16554071Y-14579357D01*
X16554071Y-14565071D01*
X16568357Y-14536500D01*
X16596928Y-14522214D01*
X16639786Y-14522214D01*
X16668357Y-14536500D01*
X16782643Y-14836500D02*
X16796929Y-14822214D01*
X16825500Y-14779357D01*
X16839786Y-14750786D01*
X16854071Y-14707929D01*
X16868357Y-14636500D01*
X16868357Y-14579357D01*
X16854071Y-14507929D01*
X16839786Y-14465071D01*
X16825500Y-14436500D01*
X16796929Y-14393643D01*
X16782643Y-14379357D01*
X10010621Y-15018421D02*
X10010621Y-14946579D01*
X9938779Y-14946579D01*
X9938779Y-15018421D01*
X10010621Y-15018421D01*
X10454071Y-15118214D02*
X10282643Y-15118214D01*
X10368357Y-15118214D02*
X10368357Y-14818214D01*
X10339786Y-14861071D01*
X10311214Y-14889643D01*
X10282643Y-14903929D01*
X10582643Y-15089643D02*
X10596929Y-15103929D01*
X10582643Y-15118214D01*
X10568357Y-15103929D01*
X10582643Y-15089643D01*
X10582643Y-15118214D01*
X10782643Y-14818214D02*
X10811214Y-14818214D01*
X10839786Y-14832500D01*
X10854071Y-14846786D01*
X10868357Y-14875357D01*
X10882643Y-14932500D01*
X10882643Y-15003929D01*
X10868357Y-15061071D01*
X10854071Y-15089643D01*
X10839786Y-15103929D01*
X10811214Y-15118214D01*
X10782643Y-15118214D01*
X10754071Y-15103929D01*
X10739786Y-15089643D01*
X10725500Y-15061071D01*
X10711214Y-15003929D01*
X10711214Y-14932500D01*
X10725500Y-14875357D01*
X10739786Y-14846786D01*
X10754071Y-14832500D01*
X10782643Y-14818214D01*
X10996929Y-14846786D02*
X11011214Y-14832500D01*
X11039786Y-14818214D01*
X11111214Y-14818214D01*
X11139786Y-14832500D01*
X11154071Y-14846786D01*
X11168357Y-14875357D01*
X11168357Y-14903929D01*
X11154071Y-14946786D01*
X10982643Y-15118214D01*
X11168357Y-15118214D01*
X11296928Y-15118214D02*
X11296928Y-14918214D01*
X11296928Y-14946786D02*
X11311214Y-14932500D01*
X11339786Y-14918214D01*
X11382643Y-14918214D01*
X11411214Y-14932500D01*
X11425500Y-14961071D01*
X11425500Y-15118214D01*
X11425500Y-14961071D02*
X11439786Y-14932500D01*
X11468357Y-14918214D01*
X11511214Y-14918214D01*
X11539786Y-14932500D01*
X11554071Y-14961071D01*
X11554071Y-15118214D01*
X11696928Y-15118214D02*
X11696928Y-14918214D01*
X11696928Y-14946786D02*
X11711214Y-14932500D01*
X11739786Y-14918214D01*
X11782643Y-14918214D01*
X11811214Y-14932500D01*
X11825500Y-14961071D01*
X11825500Y-15118214D01*
X11825500Y-14961071D02*
X11839786Y-14932500D01*
X11868357Y-14918214D01*
X11911214Y-14918214D01*
X11939786Y-14932500D01*
X11954071Y-14961071D01*
X11954071Y-15118214D01*
X12539786Y-14803929D02*
X12282643Y-15189643D01*
X12925500Y-14818214D02*
X12954071Y-14818214D01*
X12982643Y-14832500D01*
X12996928Y-14846786D01*
X13011214Y-14875357D01*
X13025500Y-14932500D01*
X13025500Y-15003929D01*
X13011214Y-15061071D01*
X12996928Y-15089643D01*
X12982643Y-15103929D01*
X12954071Y-15118214D01*
X12925500Y-15118214D01*
X12896928Y-15103929D01*
X12882643Y-15089643D01*
X12868357Y-15061071D01*
X12854071Y-15003929D01*
X12854071Y-14932500D01*
X12868357Y-14875357D01*
X12882643Y-14846786D01*
X12896928Y-14832500D01*
X12925500Y-14818214D01*
X13154071Y-15089643D02*
X13168357Y-15103929D01*
X13154071Y-15118214D01*
X13139786Y-15103929D01*
X13154071Y-15089643D01*
X13154071Y-15118214D01*
X13354071Y-14818214D02*
X13382643Y-14818214D01*
X13411214Y-14832500D01*
X13425500Y-14846786D01*
X13439785Y-14875357D01*
X13454071Y-14932500D01*
X13454071Y-15003929D01*
X13439785Y-15061071D01*
X13425500Y-15089643D01*
X13411214Y-15103929D01*
X13382643Y-15118214D01*
X13354071Y-15118214D01*
X13325500Y-15103929D01*
X13311214Y-15089643D01*
X13296928Y-15061071D01*
X13282643Y-15003929D01*
X13282643Y-14932500D01*
X13296928Y-14875357D01*
X13311214Y-14846786D01*
X13325500Y-14832500D01*
X13354071Y-14818214D01*
X13711214Y-14918214D02*
X13711214Y-15118214D01*
X13639785Y-14803929D02*
X13568357Y-15018214D01*
X13754071Y-15018214D01*
X13925500Y-14818214D02*
X13954071Y-14818214D01*
X13982643Y-14832500D01*
X13996928Y-14846786D01*
X14011214Y-14875357D01*
X14025500Y-14932500D01*
X14025500Y-15003929D01*
X14011214Y-15061071D01*
X13996928Y-15089643D01*
X13982643Y-15103929D01*
X13954071Y-15118214D01*
X13925500Y-15118214D01*
X13896928Y-15103929D01*
X13882643Y-15089643D01*
X13868357Y-15061071D01*
X13854071Y-15003929D01*
X13854071Y-14932500D01*
X13868357Y-14875357D01*
X13882643Y-14846786D01*
X13896928Y-14832500D01*
X13925500Y-14818214D01*
X14139786Y-14818214D02*
X14139786Y-14875357D01*
X14254071Y-14818214D02*
X14254071Y-14875357D01*
X14696928Y-15232500D02*
X14682643Y-15218214D01*
X14654071Y-15175357D01*
X14639785Y-15146786D01*
X14625500Y-15103929D01*
X14611214Y-15032500D01*
X14611214Y-14975357D01*
X14625500Y-14903929D01*
X14639785Y-14861071D01*
X14654071Y-14832500D01*
X14682643Y-14789643D01*
X14696928Y-14775357D01*
X14968357Y-15118214D02*
X14796928Y-15118214D01*
X14882643Y-15118214D02*
X14882643Y-14818214D01*
X14854071Y-14861071D01*
X14825500Y-14889643D01*
X14796928Y-14903929D01*
X15254071Y-15118214D02*
X15082643Y-15118214D01*
X15168357Y-15118214D02*
X15168357Y-14818214D01*
X15139785Y-14861071D01*
X15111214Y-14889643D01*
X15082643Y-14903929D01*
X15511214Y-14818214D02*
X15454071Y-14818214D01*
X15425500Y-14832500D01*
X15411214Y-14846786D01*
X15382643Y-14889643D01*
X15368357Y-14946786D01*
X15368357Y-15061071D01*
X15382643Y-15089643D01*
X15396928Y-15103929D01*
X15425500Y-15118214D01*
X15482643Y-15118214D01*
X15511214Y-15103929D01*
X15525500Y-15089643D01*
X15539785Y-15061071D01*
X15539785Y-14989643D01*
X15525500Y-14961071D01*
X15511214Y-14946786D01*
X15482643Y-14932500D01*
X15425500Y-14932500D01*
X15396928Y-14946786D01*
X15382643Y-14961071D01*
X15368357Y-14989643D01*
X15896928Y-15118214D02*
X15896928Y-14818214D01*
X16025500Y-15118214D02*
X16025500Y-14961071D01*
X16011214Y-14932500D01*
X15982643Y-14918214D01*
X15939785Y-14918214D01*
X15911214Y-14932500D01*
X15896928Y-14946786D01*
X16211214Y-15118214D02*
X16182643Y-15103929D01*
X16168357Y-15089643D01*
X16154071Y-15061071D01*
X16154071Y-14975357D01*
X16168357Y-14946786D01*
X16182643Y-14932500D01*
X16211214Y-14918214D01*
X16254071Y-14918214D01*
X16282643Y-14932500D01*
X16296928Y-14946786D01*
X16311214Y-14975357D01*
X16311214Y-15061071D01*
X16296928Y-15089643D01*
X16282643Y-15103929D01*
X16254071Y-15118214D01*
X16211214Y-15118214D01*
X16482643Y-15118214D02*
X16454071Y-15103929D01*
X16439786Y-15075357D01*
X16439786Y-14818214D01*
X16711214Y-15103929D02*
X16682643Y-15118214D01*
X16625500Y-15118214D01*
X16596928Y-15103929D01*
X16582643Y-15075357D01*
X16582643Y-14961071D01*
X16596928Y-14932500D01*
X16625500Y-14918214D01*
X16682643Y-14918214D01*
X16711214Y-14932500D01*
X16725500Y-14961071D01*
X16725500Y-14989643D01*
X16582643Y-15018214D01*
X16839786Y-15103929D02*
X16868357Y-15118214D01*
X16925500Y-15118214D01*
X16954071Y-15103929D01*
X16968357Y-15075357D01*
X16968357Y-15061071D01*
X16954071Y-15032500D01*
X16925500Y-15018214D01*
X16882643Y-15018214D01*
X16854071Y-15003929D01*
X16839786Y-14975357D01*
X16839786Y-14961071D01*
X16854071Y-14932500D01*
X16882643Y-14918214D01*
X16925500Y-14918214D01*
X16954071Y-14932500D01*
X17068357Y-15232500D02*
X17082643Y-15218214D01*
X17111214Y-15175357D01*
X17125500Y-15146786D01*
X17139786Y-15103929D01*
X17154071Y-15032500D01*
X17154071Y-14975357D01*
X17139786Y-14903929D01*
X17125500Y-14861071D01*
X17111214Y-14832500D01*
X17082643Y-14789643D01*
X17068357Y-14775357D01*
X9890500Y-15513500D02*
X10025500Y-15378500D01*
X9890500Y-15243500D01*
X9755500Y-15378500D01*
X9890500Y-15513500D01*
X10282643Y-15242786D02*
X10296929Y-15228500D01*
X10325500Y-15214214D01*
X10396929Y-15214214D01*
X10425500Y-15228500D01*
X10439786Y-15242786D01*
X10454071Y-15271357D01*
X10454071Y-15299929D01*
X10439786Y-15342786D01*
X10268357Y-15514214D01*
X10454071Y-15514214D01*
X10582643Y-15485643D02*
X10596929Y-15499929D01*
X10582643Y-15514214D01*
X10568357Y-15499929D01*
X10582643Y-15485643D01*
X10582643Y-15514214D01*
X10696928Y-15214214D02*
X10896928Y-15214214D01*
X10768357Y-15514214D01*
X11068357Y-15214214D02*
X11096929Y-15214214D01*
X11125500Y-15228500D01*
X11139786Y-15242786D01*
X11154071Y-15271357D01*
X11168357Y-15328500D01*
X11168357Y-15399929D01*
X11154071Y-15457071D01*
X11139786Y-15485643D01*
X11125500Y-15499929D01*
X11096929Y-15514214D01*
X11068357Y-15514214D01*
X11039786Y-15499929D01*
X11025500Y-15485643D01*
X11011214Y-15457071D01*
X10996929Y-15399929D01*
X10996929Y-15328500D01*
X11011214Y-15271357D01*
X11025500Y-15242786D01*
X11039786Y-15228500D01*
X11068357Y-15214214D01*
X11296928Y-15514214D02*
X11296928Y-15314214D01*
X11296928Y-15342786D02*
X11311214Y-15328500D01*
X11339786Y-15314214D01*
X11382643Y-15314214D01*
X11411214Y-15328500D01*
X11425500Y-15357071D01*
X11425500Y-15514214D01*
X11425500Y-15357071D02*
X11439786Y-15328500D01*
X11468357Y-15314214D01*
X11511214Y-15314214D01*
X11539786Y-15328500D01*
X11554071Y-15357071D01*
X11554071Y-15514214D01*
X11696928Y-15514214D02*
X11696928Y-15314214D01*
X11696928Y-15342786D02*
X11711214Y-15328500D01*
X11739786Y-15314214D01*
X11782643Y-15314214D01*
X11811214Y-15328500D01*
X11825500Y-15357071D01*
X11825500Y-15514214D01*
X11825500Y-15357071D02*
X11839786Y-15328500D01*
X11868357Y-15314214D01*
X11911214Y-15314214D01*
X11939786Y-15328500D01*
X11954071Y-15357071D01*
X11954071Y-15514214D01*
X12539786Y-15199929D02*
X12282643Y-15585643D01*
X12925500Y-15214214D02*
X12954071Y-15214214D01*
X12982643Y-15228500D01*
X12996928Y-15242786D01*
X13011214Y-15271357D01*
X13025500Y-15328500D01*
X13025500Y-15399929D01*
X13011214Y-15457071D01*
X12996928Y-15485643D01*
X12982643Y-15499929D01*
X12954071Y-15514214D01*
X12925500Y-15514214D01*
X12896928Y-15499929D01*
X12882643Y-15485643D01*
X12868357Y-15457071D01*
X12854071Y-15399929D01*
X12854071Y-15328500D01*
X12868357Y-15271357D01*
X12882643Y-15242786D01*
X12896928Y-15228500D01*
X12925500Y-15214214D01*
X13154071Y-15485643D02*
X13168357Y-15499929D01*
X13154071Y-15514214D01*
X13139786Y-15499929D01*
X13154071Y-15485643D01*
X13154071Y-15514214D01*
X13454071Y-15514214D02*
X13282643Y-15514214D01*
X13368357Y-15514214D02*
X13368357Y-15214214D01*
X13339785Y-15257071D01*
X13311214Y-15285643D01*
X13282643Y-15299929D01*
X13639785Y-15214214D02*
X13668357Y-15214214D01*
X13696928Y-15228500D01*
X13711214Y-15242786D01*
X13725500Y-15271357D01*
X13739785Y-15328500D01*
X13739785Y-15399929D01*
X13725500Y-15457071D01*
X13711214Y-15485643D01*
X13696928Y-15499929D01*
X13668357Y-15514214D01*
X13639785Y-15514214D01*
X13611214Y-15499929D01*
X13596928Y-15485643D01*
X13582643Y-15457071D01*
X13568357Y-15399929D01*
X13568357Y-15328500D01*
X13582643Y-15271357D01*
X13596928Y-15242786D01*
X13611214Y-15228500D01*
X13639785Y-15214214D01*
X13996928Y-15214214D02*
X13939785Y-15214214D01*
X13911214Y-15228500D01*
X13896928Y-15242786D01*
X13868357Y-15285643D01*
X13854071Y-15342786D01*
X13854071Y-15457071D01*
X13868357Y-15485643D01*
X13882643Y-15499929D01*
X13911214Y-15514214D01*
X13968357Y-15514214D01*
X13996928Y-15499929D01*
X14011214Y-15485643D01*
X14025500Y-15457071D01*
X14025500Y-15385643D01*
X14011214Y-15357071D01*
X13996928Y-15342786D01*
X13968357Y-15328500D01*
X13911214Y-15328500D01*
X13882643Y-15342786D01*
X13868357Y-15357071D01*
X13854071Y-15385643D01*
X14139786Y-15214214D02*
X14139786Y-15271357D01*
X14254071Y-15214214D02*
X14254071Y-15271357D01*
X14696928Y-15628500D02*
X14682643Y-15614214D01*
X14654071Y-15571357D01*
X14639785Y-15542786D01*
X14625500Y-15499929D01*
X14611214Y-15428500D01*
X14611214Y-15371357D01*
X14625500Y-15299929D01*
X14639785Y-15257071D01*
X14654071Y-15228500D01*
X14682643Y-15185643D01*
X14696928Y-15171357D01*
X14939785Y-15314214D02*
X14939785Y-15514214D01*
X14868357Y-15199929D02*
X14796928Y-15414214D01*
X14982643Y-15414214D01*
X15325500Y-15514214D02*
X15325500Y-15214214D01*
X15454071Y-15514214D02*
X15454071Y-15357071D01*
X15439785Y-15328500D01*
X15411214Y-15314214D01*
X15368357Y-15314214D01*
X15339785Y-15328500D01*
X15325500Y-15342786D01*
X15639785Y-15514214D02*
X15611214Y-15499929D01*
X15596928Y-15485643D01*
X15582643Y-15457071D01*
X15582643Y-15371357D01*
X15596928Y-15342786D01*
X15611214Y-15328500D01*
X15639785Y-15314214D01*
X15682643Y-15314214D01*
X15711214Y-15328500D01*
X15725500Y-15342786D01*
X15739785Y-15371357D01*
X15739785Y-15457071D01*
X15725500Y-15485643D01*
X15711214Y-15499929D01*
X15682643Y-15514214D01*
X15639785Y-15514214D01*
X15911214Y-15514214D02*
X15882643Y-15499929D01*
X15868357Y-15471357D01*
X15868357Y-15214214D01*
X16139786Y-15499929D02*
X16111214Y-15514214D01*
X16054071Y-15514214D01*
X16025500Y-15499929D01*
X16011214Y-15471357D01*
X16011214Y-15357071D01*
X16025500Y-15328500D01*
X16054071Y-15314214D01*
X16111214Y-15314214D01*
X16139786Y-15328500D01*
X16154071Y-15357071D01*
X16154071Y-15385643D01*
X16011214Y-15414214D01*
X16268357Y-15499929D02*
X16296928Y-15514214D01*
X16354071Y-15514214D01*
X16382643Y-15499929D01*
X16396928Y-15471357D01*
X16396928Y-15457071D01*
X16382643Y-15428500D01*
X16354071Y-15414214D01*
X16311214Y-15414214D01*
X16282643Y-15399929D01*
X16268357Y-15371357D01*
X16268357Y-15357071D01*
X16282643Y-15328500D01*
X16311214Y-15314214D01*
X16354071Y-15314214D01*
X16382643Y-15328500D01*
X16496928Y-15628500D02*
X16511214Y-15614214D01*
X16539786Y-15571357D01*
X16554071Y-15542786D01*
X16568357Y-15499929D01*
X16582643Y-15428500D01*
X16582643Y-15371357D01*
X16568357Y-15299929D01*
X16554071Y-15257071D01*
X16539786Y-15228500D01*
X16511214Y-15185643D01*
X16496928Y-15171357D01*
M02*
