G04 #@! TF.FileFunction,Copper,L1,Top,Signal*
%FSLAX46Y46*%
G04 Gerber Fmt 4.6, Leading zero omitted, Abs format (unit mm)*
G04 Created by KiCad (PCBNEW 4.0.5+dfsg1-4) date Sat Oct  5 15:21:09 2019*
%MOMM*%
%LPD*%
G01*
G04 APERTURE LIST*
%ADD10C,0.150000*%
%ADD11C,0.300000*%
%ADD12C,5.400000*%
%ADD13R,1.524000X1.524000*%
%ADD14C,1.524000*%
%ADD15R,2.032000X1.727200*%
%ADD16O,2.032000X1.727200*%
%ADD17O,2.300000X1.600000*%
%ADD18C,1.300000*%
%ADD19R,1.300000X1.300000*%
%ADD20R,1.200000X1.200000*%
%ADD21C,1.200000*%
%ADD22R,1.727200X1.727200*%
%ADD23O,1.727200X1.727200*%
%ADD24R,2.235200X2.235200*%
%ADD25C,0.600000*%
%ADD26C,1.000000*%
%ADD27C,0.250000*%
%ADD28C,0.500000*%
G04 APERTURE END LIST*
D10*
D11*
X104818571Y-116087859D02*
X103318571Y-116087859D01*
X104818571Y-115445002D02*
X104032857Y-115445002D01*
X103890000Y-115516431D01*
X103818571Y-115659288D01*
X103818571Y-115873573D01*
X103890000Y-116016431D01*
X103961429Y-116087859D01*
X103818571Y-114945002D02*
X103818571Y-114373573D01*
X103318571Y-114730716D02*
X104604286Y-114730716D01*
X104747143Y-114659288D01*
X104818571Y-114516430D01*
X104818571Y-114373573D01*
X103818571Y-114087859D02*
X103818571Y-113516430D01*
X103318571Y-113873573D02*
X104604286Y-113873573D01*
X104747143Y-113802145D01*
X104818571Y-113659287D01*
X104818571Y-113516430D01*
X103818571Y-113016430D02*
X105318571Y-113016430D01*
X103890000Y-113016430D02*
X103818571Y-112873573D01*
X103818571Y-112587859D01*
X103890000Y-112445002D01*
X103961429Y-112373573D01*
X104104286Y-112302144D01*
X104532857Y-112302144D01*
X104675714Y-112373573D01*
X104747143Y-112445002D01*
X104818571Y-112587859D01*
X104818571Y-112873573D01*
X104747143Y-113016430D01*
X104675714Y-111659287D02*
X104747143Y-111587859D01*
X104818571Y-111659287D01*
X104747143Y-111730716D01*
X104675714Y-111659287D01*
X104818571Y-111659287D01*
X103890000Y-111659287D02*
X103961429Y-111587859D01*
X104032857Y-111659287D01*
X103961429Y-111730716D01*
X103890000Y-111659287D01*
X104032857Y-111659287D01*
X103247143Y-109873573D02*
X105175714Y-111159287D01*
X103247143Y-108302144D02*
X105175714Y-109587858D01*
X103818571Y-107945000D02*
X104818571Y-107659286D01*
X104104286Y-107373572D01*
X104818571Y-107087857D01*
X103818571Y-106802143D01*
X103818571Y-106373571D02*
X104818571Y-106087857D01*
X104104286Y-105802143D01*
X104818571Y-105516428D01*
X103818571Y-105230714D01*
X103818571Y-104802142D02*
X104818571Y-104516428D01*
X104104286Y-104230714D01*
X104818571Y-103944999D01*
X103818571Y-103659285D01*
X104675714Y-103087856D02*
X104747143Y-103016428D01*
X104818571Y-103087856D01*
X104747143Y-103159285D01*
X104675714Y-103087856D01*
X104818571Y-103087856D01*
X104747143Y-102444999D02*
X104818571Y-102302142D01*
X104818571Y-102016427D01*
X104747143Y-101873570D01*
X104604286Y-101802142D01*
X104532857Y-101802142D01*
X104390000Y-101873570D01*
X104318571Y-102016427D01*
X104318571Y-102230713D01*
X104247143Y-102373570D01*
X104104286Y-102444999D01*
X104032857Y-102444999D01*
X103890000Y-102373570D01*
X103818571Y-102230713D01*
X103818571Y-102016427D01*
X103890000Y-101873570D01*
X103818571Y-101302141D02*
X103818571Y-100516427D01*
X104818571Y-101302141D01*
X104818571Y-100516427D01*
X104747143Y-99373570D02*
X104818571Y-99516427D01*
X104818571Y-99802141D01*
X104747143Y-99944998D01*
X104604286Y-100016427D01*
X104032857Y-100016427D01*
X103890000Y-99944998D01*
X103818571Y-99802141D01*
X103818571Y-99516427D01*
X103890000Y-99373570D01*
X104032857Y-99302141D01*
X104175714Y-99302141D01*
X104318571Y-100016427D01*
X104818571Y-98659284D02*
X103818571Y-98659284D01*
X104104286Y-98659284D02*
X103961429Y-98587856D01*
X103890000Y-98516427D01*
X103818571Y-98373570D01*
X103818571Y-98230713D01*
X104818571Y-97087856D02*
X104032857Y-97087856D01*
X103890000Y-97159285D01*
X103818571Y-97302142D01*
X103818571Y-97587856D01*
X103890000Y-97730713D01*
X104747143Y-97087856D02*
X104818571Y-97230713D01*
X104818571Y-97587856D01*
X104747143Y-97730713D01*
X104604286Y-97802142D01*
X104461429Y-97802142D01*
X104318571Y-97730713D01*
X104247143Y-97587856D01*
X104247143Y-97230713D01*
X104175714Y-97087856D01*
X103818571Y-96587856D02*
X103818571Y-96016427D01*
X104818571Y-96373570D02*
X103532857Y-96373570D01*
X103390000Y-96302142D01*
X103318571Y-96159284D01*
X103318571Y-96016427D01*
X104818571Y-95516427D02*
X103818571Y-95516427D01*
X103318571Y-95516427D02*
X103390000Y-95587856D01*
X103461429Y-95516427D01*
X103390000Y-95444999D01*
X103318571Y-95516427D01*
X103461429Y-95516427D01*
X103818571Y-94802141D02*
X104818571Y-94802141D01*
X103961429Y-94802141D02*
X103890000Y-94730713D01*
X103818571Y-94587855D01*
X103818571Y-94373570D01*
X103890000Y-94230713D01*
X104032857Y-94159284D01*
X104818571Y-94159284D01*
X103818571Y-92802141D02*
X105032857Y-92802141D01*
X105175714Y-92873570D01*
X105247143Y-92944998D01*
X105318571Y-93087855D01*
X105318571Y-93302141D01*
X105247143Y-93444998D01*
X104747143Y-92802141D02*
X104818571Y-92944998D01*
X104818571Y-93230712D01*
X104747143Y-93373570D01*
X104675714Y-93444998D01*
X104532857Y-93516427D01*
X104104286Y-93516427D01*
X103961429Y-93444998D01*
X103890000Y-93373570D01*
X103818571Y-93230712D01*
X103818571Y-92944998D01*
X103890000Y-92802141D01*
X104818571Y-91873569D02*
X104747143Y-92016427D01*
X104675714Y-92087855D01*
X104532857Y-92159284D01*
X104104286Y-92159284D01*
X103961429Y-92087855D01*
X103890000Y-92016427D01*
X103818571Y-91873569D01*
X103818571Y-91659284D01*
X103890000Y-91516427D01*
X103961429Y-91444998D01*
X104104286Y-91373569D01*
X104532857Y-91373569D01*
X104675714Y-91444998D01*
X104747143Y-91516427D01*
X104818571Y-91659284D01*
X104818571Y-91873569D01*
X104818571Y-90730712D02*
X103818571Y-90730712D01*
X103961429Y-90730712D02*
X103890000Y-90659284D01*
X103818571Y-90516426D01*
X103818571Y-90302141D01*
X103890000Y-90159284D01*
X104032857Y-90087855D01*
X104818571Y-90087855D01*
X104032857Y-90087855D02*
X103890000Y-90016426D01*
X103818571Y-89873569D01*
X103818571Y-89659284D01*
X103890000Y-89516426D01*
X104032857Y-89444998D01*
X104818571Y-89444998D01*
X104818571Y-88730712D02*
X103318571Y-88730712D01*
X103890000Y-88730712D02*
X103818571Y-88587855D01*
X103818571Y-88302141D01*
X103890000Y-88159284D01*
X103961429Y-88087855D01*
X104104286Y-88016426D01*
X104532857Y-88016426D01*
X104675714Y-88087855D01*
X104747143Y-88159284D01*
X104818571Y-88302141D01*
X104818571Y-88587855D01*
X104747143Y-88730712D01*
X104818571Y-86730712D02*
X104032857Y-86730712D01*
X103890000Y-86802141D01*
X103818571Y-86944998D01*
X103818571Y-87230712D01*
X103890000Y-87373569D01*
X104747143Y-86730712D02*
X104818571Y-86873569D01*
X104818571Y-87230712D01*
X104747143Y-87373569D01*
X104604286Y-87444998D01*
X104461429Y-87444998D01*
X104318571Y-87373569D01*
X104247143Y-87230712D01*
X104247143Y-86873569D01*
X104175714Y-86730712D01*
X104675714Y-86016426D02*
X104747143Y-85944998D01*
X104818571Y-86016426D01*
X104747143Y-86087855D01*
X104675714Y-86016426D01*
X104818571Y-86016426D01*
X104818571Y-85302140D02*
X103318571Y-85302140D01*
X104818571Y-84659283D02*
X104032857Y-84659283D01*
X103890000Y-84730712D01*
X103818571Y-84873569D01*
X103818571Y-85087854D01*
X103890000Y-85230712D01*
X103961429Y-85302140D01*
X103818571Y-83302140D02*
X104818571Y-83302140D01*
X103818571Y-83944997D02*
X104604286Y-83944997D01*
X104747143Y-83873569D01*
X104818571Y-83730711D01*
X104818571Y-83516426D01*
X104747143Y-83373569D01*
X104675714Y-83302140D01*
D10*
X171450000Y-71120000D02*
X100330000Y-71120000D01*
X171450000Y-128270000D02*
X171450000Y-71120000D01*
X100330000Y-128270000D02*
X171450000Y-128270000D01*
X100330000Y-71120000D02*
X100330000Y-128270000D01*
D12*
X167640000Y-74930000D03*
X104140000Y-74930000D03*
X167640000Y-124460000D03*
X104140000Y-124460000D03*
D13*
X120650000Y-123190000D03*
D14*
X118110000Y-123190000D03*
X120650000Y-110490000D03*
X118110000Y-120650000D03*
X120650000Y-107950000D03*
X118110000Y-118110000D03*
X120650000Y-105410000D03*
X118110000Y-115570000D03*
X120650000Y-102870000D03*
X118110000Y-113030000D03*
X120650000Y-100330000D03*
X118110000Y-110490000D03*
X120650000Y-97790000D03*
X118110000Y-107950000D03*
X120650000Y-95250000D03*
X118110000Y-105410000D03*
X120650000Y-92710000D03*
X118110000Y-102870000D03*
X120650000Y-90170000D03*
X118110000Y-100330000D03*
X120650000Y-87630000D03*
X118110000Y-97790000D03*
X120650000Y-85090000D03*
X118110000Y-95250000D03*
X118110000Y-92710000D03*
X120650000Y-82550000D03*
X118110000Y-90170000D03*
X118110000Y-85090000D03*
X118110000Y-82550000D03*
X118110000Y-80010000D03*
X118110000Y-77470000D03*
X120650000Y-80010000D03*
X120650000Y-77470000D03*
X120650000Y-120650000D03*
X120650000Y-118110000D03*
X120650000Y-115570000D03*
X120650000Y-113030000D03*
X120650000Y-74930000D03*
X118110000Y-74930000D03*
X118110000Y-87630000D03*
D15*
X113030000Y-123190000D03*
D16*
X113030000Y-120650000D03*
X113030000Y-118110000D03*
X113030000Y-115570000D03*
X113030000Y-113030000D03*
X113030000Y-110490000D03*
X113030000Y-107950000D03*
X113030000Y-105410000D03*
X113030000Y-102870000D03*
X113030000Y-100330000D03*
X113030000Y-97790000D03*
X113030000Y-95250000D03*
X113030000Y-92710000D03*
X113030000Y-90170000D03*
X113030000Y-87630000D03*
X113030000Y-85090000D03*
X113030000Y-82550000D03*
X113030000Y-80010000D03*
X113030000Y-77470000D03*
X113030000Y-74930000D03*
D15*
X130810000Y-123190000D03*
D16*
X130810000Y-120650000D03*
X130810000Y-118110000D03*
X130810000Y-115570000D03*
X130810000Y-113030000D03*
X130810000Y-110490000D03*
X130810000Y-107950000D03*
X130810000Y-105410000D03*
X130810000Y-102870000D03*
X130810000Y-100330000D03*
X130810000Y-97790000D03*
X130810000Y-95250000D03*
X130810000Y-92710000D03*
X130810000Y-90170000D03*
X130810000Y-87630000D03*
X130810000Y-85090000D03*
X130810000Y-82550000D03*
X130810000Y-80010000D03*
X130810000Y-77470000D03*
X130810000Y-74930000D03*
D15*
X125730000Y-87630000D03*
D16*
X125730000Y-85090000D03*
X125730000Y-82550000D03*
X125730000Y-80010000D03*
D17*
X151130000Y-105410000D03*
X151130000Y-107950000D03*
X151130000Y-110490000D03*
X151130000Y-113030000D03*
X151130000Y-115570000D03*
X151130000Y-118110000D03*
X151130000Y-120650000D03*
X151130000Y-123190000D03*
X158750000Y-123190000D03*
X158750000Y-120650000D03*
X158750000Y-118110000D03*
X158750000Y-115570000D03*
X158750000Y-113030000D03*
X158750000Y-110490000D03*
X158750000Y-107950000D03*
X158750000Y-105410000D03*
D18*
X154940000Y-83860000D03*
D19*
X154940000Y-86360000D03*
D20*
X144780000Y-105410000D03*
D21*
X147280000Y-105410000D03*
D20*
X153670000Y-100330000D03*
D21*
X156170000Y-100330000D03*
D20*
X144780000Y-115570000D03*
D21*
X147280000Y-115570000D03*
D20*
X144780000Y-118110000D03*
D21*
X147280000Y-118110000D03*
D20*
X144780000Y-107950000D03*
D21*
X147280000Y-107950000D03*
D15*
X165100000Y-113030000D03*
D16*
X165100000Y-110490000D03*
X165100000Y-107950000D03*
D22*
X147320000Y-95250000D03*
D23*
X144780000Y-95250000D03*
X147320000Y-92710000D03*
X144780000Y-92710000D03*
X147320000Y-90170000D03*
X144780000Y-90170000D03*
X147320000Y-87630000D03*
X144780000Y-87630000D03*
X147320000Y-85090000D03*
X144780000Y-85090000D03*
X147320000Y-82550000D03*
X144780000Y-82550000D03*
X147320000Y-80010000D03*
X144780000Y-80010000D03*
D22*
X165100000Y-91440000D03*
D23*
X162560000Y-91440000D03*
X165100000Y-88900000D03*
X162560000Y-88900000D03*
X165100000Y-86360000D03*
X162560000Y-86360000D03*
X165100000Y-83820000D03*
X162560000Y-83820000D03*
X165100000Y-81280000D03*
X162560000Y-81280000D03*
D24*
X147320000Y-74930000D03*
D22*
X165100000Y-99060000D03*
D23*
X162560000Y-99060000D03*
X165100000Y-96520000D03*
X162560000Y-96520000D03*
D25*
X151130000Y-86360000D03*
X109220000Y-120650000D03*
X137160000Y-74930000D03*
X138430000Y-102870000D03*
X138430000Y-123190000D03*
X137160000Y-92710000D03*
X127000000Y-127000000D03*
X127000000Y-114300000D03*
X124460000Y-116840000D03*
X124460000Y-125730000D03*
X142240000Y-120650000D03*
X142240000Y-95250000D03*
X140970000Y-92710000D03*
X140970000Y-118110000D03*
X139700000Y-90170000D03*
X139700000Y-115570000D03*
D26*
X150495000Y-72390000D02*
X151130000Y-73025000D01*
X151130000Y-73025000D02*
X151130000Y-86360000D01*
X137160000Y-72390000D02*
X110490000Y-72390000D01*
X109220000Y-73660000D02*
X109220000Y-120650000D01*
X110490000Y-72390000D02*
X109220000Y-73660000D01*
X137160000Y-72390000D02*
X150495000Y-72390000D01*
X137160000Y-92710000D02*
X137160000Y-74930000D01*
X138430000Y-121920000D02*
X138430000Y-102870000D01*
X138430000Y-123190000D02*
X138430000Y-121920000D01*
D27*
X127000000Y-127000000D02*
X127000000Y-114300000D01*
D28*
X127000000Y-127000000D02*
X127000000Y-127000000D01*
D27*
X124460000Y-116840000D02*
X124460000Y-125730000D01*
D28*
X142240000Y-95250000D02*
X142240000Y-120650000D01*
X140970000Y-118110000D02*
X140970000Y-92710000D01*
X139700000Y-115570000D02*
X139700000Y-90170000D01*
M02*
