M48
;DRILL file {KiCad 4.0.5+dfsg1-4} date Sun Oct  6 15:52:07 2019
;FORMAT={-:-/ absolute / metric / decimal}
FMAT,2
METRIC,TZ
T1C0.400
T2C0.700
T3C0.800
T4C1.016
T5C2.700
%
G90
G05
M71
T1
X109.22Y-120.65
X124.46Y-116.84
X124.46Y-125.73
X127.Y-114.3
X127.Y-127.
X137.16Y-74.93
X137.16Y-92.71
X138.43Y-102.87
X138.43Y-123.19
X139.7Y-90.17
X139.7Y-115.57
X140.97Y-92.71
X140.97Y-118.11
X142.24Y-95.25
X142.24Y-120.65
X151.13Y-86.36
T2
X144.78Y-105.41
X144.78Y-107.95
X144.78Y-115.57
X144.78Y-118.11
X147.28Y-105.41
X147.28Y-107.95
X147.28Y-115.57
X147.28Y-118.11
X153.67Y-100.33
X156.17Y-100.33
T3
X151.13Y-105.41
X151.13Y-107.95
X151.13Y-110.49
X151.13Y-113.03
X151.13Y-115.57
X151.13Y-118.11
X151.13Y-120.65
X151.13Y-123.19
X154.94Y-83.86
X154.94Y-86.36
X158.75Y-105.41
X158.75Y-107.95
X158.75Y-110.49
X158.75Y-113.03
X158.75Y-115.57
X158.75Y-118.11
X158.75Y-120.65
X158.75Y-123.19
T4
X113.03Y-74.93
X113.03Y-77.47
X113.03Y-80.01
X113.03Y-82.55
X113.03Y-85.09
X113.03Y-87.63
X113.03Y-90.17
X113.03Y-92.71
X113.03Y-95.25
X113.03Y-97.79
X113.03Y-100.33
X113.03Y-102.87
X113.03Y-105.41
X113.03Y-107.95
X113.03Y-110.49
X113.03Y-113.03
X113.03Y-115.57
X113.03Y-118.11
X113.03Y-120.65
X113.03Y-123.19
X118.11Y-74.93
X118.11Y-77.47
X118.11Y-80.01
X118.11Y-82.55
X118.11Y-85.09
X118.11Y-87.63
X118.11Y-90.17
X118.11Y-92.71
X118.11Y-95.25
X118.11Y-97.79
X118.11Y-100.33
X118.11Y-102.87
X118.11Y-105.41
X118.11Y-107.95
X118.11Y-110.49
X118.11Y-113.03
X118.11Y-115.57
X118.11Y-118.11
X118.11Y-120.65
X118.11Y-123.19
X120.65Y-74.93
X120.65Y-77.47
X120.65Y-80.01
X120.65Y-82.55
X120.65Y-85.09
X120.65Y-87.63
X120.65Y-90.17
X120.65Y-92.71
X120.65Y-95.25
X120.65Y-97.79
X120.65Y-100.33
X120.65Y-102.87
X120.65Y-105.41
X120.65Y-107.95
X120.65Y-110.49
X120.65Y-113.03
X120.65Y-115.57
X120.65Y-118.11
X120.65Y-120.65
X120.65Y-123.19
X125.73Y-80.01
X125.73Y-82.55
X125.73Y-85.09
X125.73Y-87.63
X130.81Y-74.93
X130.81Y-77.47
X130.81Y-80.01
X130.81Y-82.55
X130.81Y-85.09
X130.81Y-87.63
X130.81Y-90.17
X130.81Y-92.71
X130.81Y-95.25
X130.81Y-97.79
X130.81Y-100.33
X130.81Y-102.87
X130.81Y-105.41
X130.81Y-107.95
X130.81Y-110.49
X130.81Y-113.03
X130.81Y-115.57
X130.81Y-118.11
X130.81Y-120.65
X130.81Y-123.19
X144.78Y-80.01
X144.78Y-82.55
X144.78Y-85.09
X144.78Y-87.63
X144.78Y-90.17
X144.78Y-92.71
X144.78Y-95.25
X147.32Y-74.93
X147.32Y-80.01
X147.32Y-82.55
X147.32Y-85.09
X147.32Y-87.63
X147.32Y-90.17
X147.32Y-92.71
X147.32Y-95.25
X162.56Y-81.28
X162.56Y-83.82
X162.56Y-86.36
X162.56Y-88.9
X162.56Y-91.44
X162.56Y-96.52
X162.56Y-99.06
X165.1Y-81.28
X165.1Y-83.82
X165.1Y-86.36
X165.1Y-88.9
X165.1Y-91.44
X165.1Y-96.52
X165.1Y-99.06
X165.1Y-107.95
X165.1Y-110.49
X165.1Y-113.03
T5
X104.14Y-74.93
X104.14Y-124.46
X167.64Y-74.93
X167.64Y-124.46
T0
M30
