G04 #@! TF.FileFunction,Soldermask,Bot*
%FSLAX46Y46*%
G04 Gerber Fmt 4.6, Leading zero omitted, Abs format (unit mm)*
G04 Created by KiCad (PCBNEW 4.0.5+dfsg1-4) date Sun Oct  6 16:03:19 2019*
%MOMM*%
%LPD*%
G01*
G04 APERTURE LIST*
%ADD10C,0.150000*%
%ADD11C,1.700000*%
%ADD12R,1.700000X1.700000*%
%ADD13R,2.432000X2.127200*%
%ADD14O,2.432000X2.127200*%
%ADD15C,5.800000*%
%ADD16R,2.432000X2.432000*%
%ADD17O,2.432000X2.432000*%
G04 APERTURE END LIST*
D10*
X118110000Y-68580000D02*
X160020000Y-68580000D01*
X118110000Y-125730000D02*
X118110000Y-68580000D01*
X158115000Y-125730000D02*
X118110000Y-125730000D01*
X166370000Y-125730000D02*
X158115000Y-125730000D01*
X166370000Y-68580000D02*
X166370000Y-125730000D01*
X160020000Y-68580000D02*
X166370000Y-68580000D01*
X165100000Y-125730000D02*
X166370000Y-125730000D01*
X158115000Y-125730000D02*
X165100000Y-125730000D01*
D11*
X206375000Y-79415000D03*
D12*
X206375000Y-81915000D03*
D13*
X199390000Y-77470000D03*
D14*
X199390000Y-74930000D03*
X199390000Y-72390000D03*
X199390000Y-69850000D03*
D15*
X121920000Y-121920000D03*
X161925000Y-121920000D03*
X161925000Y-72390000D03*
X121920000Y-72390000D03*
D13*
X195580000Y-77470000D03*
D14*
X195580000Y-74930000D03*
X195580000Y-72390000D03*
X195580000Y-69850000D03*
D11*
X207645000Y-70525000D03*
D12*
X207645000Y-73025000D03*
D13*
X191770000Y-77470000D03*
D14*
X191770000Y-74930000D03*
X191770000Y-72390000D03*
D16*
X188595000Y-77470000D03*
D17*
X188595000Y-74930000D03*
D14*
X202565000Y-93980000D03*
X202565000Y-106680000D03*
X202565000Y-104140000D03*
X202565000Y-101600000D03*
X202565000Y-99060000D03*
X202565000Y-96520000D03*
D13*
X192405000Y-93980000D03*
D14*
X192405000Y-96520000D03*
X192405000Y-99060000D03*
X192405000Y-101600000D03*
X192405000Y-104140000D03*
X192405000Y-106680000D03*
X202565000Y-111760000D03*
X202565000Y-124460000D03*
X202565000Y-121920000D03*
X202565000Y-119380000D03*
X202565000Y-116840000D03*
X202565000Y-114300000D03*
D13*
X192405000Y-111760000D03*
D14*
X192405000Y-114300000D03*
X192405000Y-116840000D03*
X192405000Y-119380000D03*
X192405000Y-121920000D03*
X192405000Y-124460000D03*
M02*
