G04 #@! TF.FileFunction,Copper,L2,Bot*
%FSLAX46Y46*%
G04 Gerber Fmt 4.6, Leading zero omitted, Abs format (unit mm)*
G04 Created by KiCad (PCBNEW 4.0.5+dfsg1-4) date Sun Oct  6 16:03:19 2019*
%MOMM*%
%LPD*%
G01*
G04 APERTURE LIST*
%ADD10C,0.150000*%
%ADD11C,0.300000*%
%ADD12C,1.300000*%
%ADD13R,1.300000X1.300000*%
%ADD14R,2.032000X1.727200*%
%ADD15O,2.032000X1.727200*%
%ADD16C,5.400000*%
%ADD17R,2.032000X2.032000*%
%ADD18O,2.032000X2.032000*%
G04 APERTURE END LIST*
D10*
X118110000Y-68580000D02*
X160020000Y-68580000D01*
X118110000Y-125730000D02*
X118110000Y-68580000D01*
X158115000Y-125730000D02*
X118110000Y-125730000D01*
X166370000Y-125730000D02*
X158115000Y-125730000D01*
X166370000Y-68580000D02*
X166370000Y-125730000D01*
X160020000Y-68580000D02*
X166370000Y-68580000D01*
X165100000Y-125730000D02*
X166370000Y-125730000D01*
X158115000Y-125730000D02*
X165100000Y-125730000D01*
D11*
X180383571Y-66895716D02*
X178883571Y-66895716D01*
X179955000Y-67395716D01*
X178883571Y-67895716D01*
X180383571Y-67895716D01*
X180383571Y-68610002D02*
X178883571Y-68610002D01*
X179955000Y-69110002D01*
X178883571Y-69610002D01*
X180383571Y-69610002D01*
X178883571Y-71038574D02*
X178883571Y-70324288D01*
X179597857Y-70252859D01*
X179526429Y-70324288D01*
X179455000Y-70467145D01*
X179455000Y-70824288D01*
X179526429Y-70967145D01*
X179597857Y-71038574D01*
X179740714Y-71110002D01*
X180097857Y-71110002D01*
X180240714Y-71038574D01*
X180312143Y-70967145D01*
X180383571Y-70824288D01*
X180383571Y-70467145D01*
X180312143Y-70324288D01*
X180240714Y-70252859D01*
X180383571Y-71752859D02*
X178883571Y-71752859D01*
X178883571Y-72110002D01*
X178955000Y-72324287D01*
X179097857Y-72467145D01*
X179240714Y-72538573D01*
X179526429Y-72610002D01*
X179740714Y-72610002D01*
X180026429Y-72538573D01*
X180169286Y-72467145D01*
X180312143Y-72324287D01*
X180383571Y-72110002D01*
X180383571Y-71752859D01*
X178883571Y-74610002D02*
X179240714Y-74610002D01*
X179097857Y-74252859D02*
X179240714Y-74610002D01*
X179097857Y-74967144D01*
X179526429Y-74395716D02*
X179240714Y-74610002D01*
X179526429Y-74824287D01*
X178883571Y-76681430D02*
X180097857Y-76681430D01*
X180240714Y-76752858D01*
X180312143Y-76824287D01*
X180383571Y-76967144D01*
X180383571Y-77252858D01*
X180312143Y-77395716D01*
X180240714Y-77467144D01*
X180097857Y-77538573D01*
X178883571Y-77538573D01*
X179026429Y-78181430D02*
X178955000Y-78252859D01*
X178883571Y-78395716D01*
X178883571Y-78752859D01*
X178955000Y-78895716D01*
X179026429Y-78967145D01*
X179169286Y-79038573D01*
X179312143Y-79038573D01*
X179526429Y-78967145D01*
X180383571Y-78110002D01*
X180383571Y-79038573D01*
X178883571Y-81038573D02*
X179240714Y-81038573D01*
X179097857Y-80681430D02*
X179240714Y-81038573D01*
X179097857Y-81395715D01*
X179526429Y-80824287D02*
X179240714Y-81038573D01*
X179526429Y-81252858D01*
X180383571Y-83110001D02*
X178883571Y-83110001D01*
X178883571Y-83467144D01*
X178955000Y-83681429D01*
X179097857Y-83824287D01*
X179240714Y-83895715D01*
X179526429Y-83967144D01*
X179740714Y-83967144D01*
X180026429Y-83895715D01*
X180169286Y-83824287D01*
X180312143Y-83681429D01*
X180383571Y-83467144D01*
X180383571Y-83110001D01*
X179383571Y-84610001D02*
X180383571Y-84610001D01*
X179526429Y-84610001D02*
X179455000Y-84681429D01*
X179383571Y-84824287D01*
X179383571Y-85038572D01*
X179455000Y-85181429D01*
X179597857Y-85252858D01*
X180383571Y-85252858D01*
X180240714Y-85967144D02*
X180312143Y-86038572D01*
X180383571Y-85967144D01*
X180312143Y-85895715D01*
X180240714Y-85967144D01*
X180383571Y-85967144D01*
X180240714Y-86681430D02*
X180312143Y-86752858D01*
X180383571Y-86681430D01*
X180312143Y-86610001D01*
X180240714Y-86681430D01*
X180383571Y-86681430D01*
X179455000Y-86681430D02*
X179526429Y-86752858D01*
X179597857Y-86681430D01*
X179526429Y-86610001D01*
X179455000Y-86681430D01*
X179597857Y-86681430D01*
X178883571Y-89252859D02*
X178883571Y-88538573D01*
X179597857Y-88467144D01*
X179526429Y-88538573D01*
X179455000Y-88681430D01*
X179455000Y-89038573D01*
X179526429Y-89181430D01*
X179597857Y-89252859D01*
X179740714Y-89324287D01*
X180097857Y-89324287D01*
X180240714Y-89252859D01*
X180312143Y-89181430D01*
X180383571Y-89038573D01*
X180383571Y-88681430D01*
X180312143Y-88538573D01*
X180240714Y-88467144D01*
X180383571Y-90038572D02*
X180383571Y-90324287D01*
X180312143Y-90467144D01*
X180240714Y-90538572D01*
X180026429Y-90681430D01*
X179740714Y-90752858D01*
X179169286Y-90752858D01*
X179026429Y-90681430D01*
X178955000Y-90610001D01*
X178883571Y-90467144D01*
X178883571Y-90181430D01*
X178955000Y-90038572D01*
X179026429Y-89967144D01*
X179169286Y-89895715D01*
X179526429Y-89895715D01*
X179669286Y-89967144D01*
X179740714Y-90038572D01*
X179812143Y-90181430D01*
X179812143Y-90467144D01*
X179740714Y-90610001D01*
X179669286Y-90681430D01*
X179526429Y-90752858D01*
X178812143Y-92467143D02*
X180740714Y-91181429D01*
X178883571Y-93681430D02*
X178883571Y-92967144D01*
X179597857Y-92895715D01*
X179526429Y-92967144D01*
X179455000Y-93110001D01*
X179455000Y-93467144D01*
X179526429Y-93610001D01*
X179597857Y-93681430D01*
X179740714Y-93752858D01*
X180097857Y-93752858D01*
X180240714Y-93681430D01*
X180312143Y-93610001D01*
X180383571Y-93467144D01*
X180383571Y-93110001D01*
X180312143Y-92967144D01*
X180240714Y-92895715D01*
X178812143Y-95467143D02*
X180740714Y-94181429D01*
X178883571Y-95824287D02*
X178883571Y-96824287D01*
X180383571Y-96181430D01*
X178883571Y-98752858D02*
X179240714Y-98752858D01*
X179097857Y-98395715D02*
X179240714Y-98752858D01*
X179097857Y-99110000D01*
X179526429Y-98538572D02*
X179240714Y-98752858D01*
X179526429Y-98967143D01*
X179026429Y-100752857D02*
X178955000Y-100824286D01*
X178883571Y-100967143D01*
X178883571Y-101324286D01*
X178955000Y-101467143D01*
X179026429Y-101538572D01*
X179169286Y-101610000D01*
X179312143Y-101610000D01*
X179526429Y-101538572D01*
X180383571Y-100681429D01*
X180383571Y-101610000D01*
X178883571Y-102538571D02*
X178883571Y-102681428D01*
X178955000Y-102824285D01*
X179026429Y-102895714D01*
X179169286Y-102967143D01*
X179455000Y-103038571D01*
X179812143Y-103038571D01*
X180097857Y-102967143D01*
X180240714Y-102895714D01*
X180312143Y-102824285D01*
X180383571Y-102681428D01*
X180383571Y-102538571D01*
X180312143Y-102395714D01*
X180240714Y-102324285D01*
X180097857Y-102252857D01*
X179812143Y-102181428D01*
X179455000Y-102181428D01*
X179169286Y-102252857D01*
X179026429Y-102324285D01*
X178955000Y-102395714D01*
X178883571Y-102538571D01*
X180383571Y-104467142D02*
X180383571Y-103609999D01*
X180383571Y-104038571D02*
X178883571Y-104038571D01*
X179097857Y-103895714D01*
X179240714Y-103752856D01*
X179312143Y-103609999D01*
X180383571Y-105181427D02*
X180383571Y-105467142D01*
X180312143Y-105609999D01*
X180240714Y-105681427D01*
X180026429Y-105824285D01*
X179740714Y-105895713D01*
X179169286Y-105895713D01*
X179026429Y-105824285D01*
X178955000Y-105752856D01*
X178883571Y-105609999D01*
X178883571Y-105324285D01*
X178955000Y-105181427D01*
X179026429Y-105109999D01*
X179169286Y-105038570D01*
X179526429Y-105038570D01*
X179669286Y-105109999D01*
X179740714Y-105181427D01*
X179812143Y-105324285D01*
X179812143Y-105609999D01*
X179740714Y-105752856D01*
X179669286Y-105824285D01*
X179526429Y-105895713D01*
D12*
X206375000Y-79415000D03*
D13*
X206375000Y-81915000D03*
D14*
X199390000Y-77470000D03*
D15*
X199390000Y-74930000D03*
X199390000Y-72390000D03*
X199390000Y-69850000D03*
D16*
X121920000Y-121920000D03*
X161925000Y-121920000D03*
X161925000Y-72390000D03*
X121920000Y-72390000D03*
D14*
X195580000Y-77470000D03*
D15*
X195580000Y-74930000D03*
X195580000Y-72390000D03*
X195580000Y-69850000D03*
D12*
X207645000Y-70525000D03*
D13*
X207645000Y-73025000D03*
D14*
X191770000Y-77470000D03*
D15*
X191770000Y-74930000D03*
X191770000Y-72390000D03*
D17*
X188595000Y-77470000D03*
D18*
X188595000Y-74930000D03*
D15*
X202565000Y-93980000D03*
X202565000Y-106680000D03*
X202565000Y-104140000D03*
X202565000Y-101600000D03*
X202565000Y-99060000D03*
X202565000Y-96520000D03*
D14*
X192405000Y-93980000D03*
D15*
X192405000Y-96520000D03*
X192405000Y-99060000D03*
X192405000Y-101600000D03*
X192405000Y-104140000D03*
X192405000Y-106680000D03*
X202565000Y-111760000D03*
X202565000Y-124460000D03*
X202565000Y-121920000D03*
X202565000Y-119380000D03*
X202565000Y-116840000D03*
X202565000Y-114300000D03*
D14*
X192405000Y-111760000D03*
D15*
X192405000Y-114300000D03*
X192405000Y-116840000D03*
X192405000Y-119380000D03*
X192405000Y-121920000D03*
X192405000Y-124460000D03*
M02*
