G04 #@! TF.FileFunction,Copper,L1,Top,Signal*
%FSLAX46Y46*%
G04 Gerber Fmt 4.6, Leading zero omitted, Abs format (unit mm)*
G04 Created by KiCad (PCBNEW 4.0.5+dfsg1-4) date Sat Oct  5 18:01:52 2019*
%MOMM*%
%LPD*%
G01*
G04 APERTURE LIST*
%ADD10C,0.150000*%
%ADD11C,0.300000*%
%ADD12C,1.300000*%
%ADD13R,1.300000X1.300000*%
%ADD14R,2.032000X1.727200*%
%ADD15O,2.032000X1.727200*%
%ADD16C,5.400000*%
%ADD17R,2.032000X2.032000*%
%ADD18O,2.032000X2.032000*%
G04 APERTURE END LIST*
D10*
X118110000Y-68580000D02*
X160020000Y-68580000D01*
X118110000Y-125730000D02*
X118110000Y-68580000D01*
X158115000Y-125730000D02*
X118110000Y-125730000D01*
X166370000Y-125730000D02*
X158115000Y-125730000D01*
X166370000Y-68580000D02*
X166370000Y-125730000D01*
X160020000Y-68580000D02*
X166370000Y-68580000D01*
X165100000Y-125730000D02*
X166370000Y-125730000D01*
X158115000Y-125730000D02*
X165100000Y-125730000D01*
D11*
X185463571Y-101482859D02*
X183963571Y-101482859D01*
X185463571Y-100840002D02*
X184677857Y-100840002D01*
X184535000Y-100911431D01*
X184463571Y-101054288D01*
X184463571Y-101268573D01*
X184535000Y-101411431D01*
X184606429Y-101482859D01*
X184463571Y-100340002D02*
X184463571Y-99768573D01*
X183963571Y-100125716D02*
X185249286Y-100125716D01*
X185392143Y-100054288D01*
X185463571Y-99911430D01*
X185463571Y-99768573D01*
X184463571Y-99482859D02*
X184463571Y-98911430D01*
X183963571Y-99268573D02*
X185249286Y-99268573D01*
X185392143Y-99197145D01*
X185463571Y-99054287D01*
X185463571Y-98911430D01*
X184463571Y-98411430D02*
X185963571Y-98411430D01*
X184535000Y-98411430D02*
X184463571Y-98268573D01*
X184463571Y-97982859D01*
X184535000Y-97840002D01*
X184606429Y-97768573D01*
X184749286Y-97697144D01*
X185177857Y-97697144D01*
X185320714Y-97768573D01*
X185392143Y-97840002D01*
X185463571Y-97982859D01*
X185463571Y-98268573D01*
X185392143Y-98411430D01*
X185320714Y-97054287D02*
X185392143Y-96982859D01*
X185463571Y-97054287D01*
X185392143Y-97125716D01*
X185320714Y-97054287D01*
X185463571Y-97054287D01*
X184535000Y-97054287D02*
X184606429Y-96982859D01*
X184677857Y-97054287D01*
X184606429Y-97125716D01*
X184535000Y-97054287D01*
X184677857Y-97054287D01*
X183892143Y-95268573D02*
X185820714Y-96554287D01*
X183892143Y-93697144D02*
X185820714Y-94982858D01*
X184463571Y-93340000D02*
X185463571Y-93054286D01*
X184749286Y-92768572D01*
X185463571Y-92482857D01*
X184463571Y-92197143D01*
X184463571Y-91768571D02*
X185463571Y-91482857D01*
X184749286Y-91197143D01*
X185463571Y-90911428D01*
X184463571Y-90625714D01*
X184463571Y-90197142D02*
X185463571Y-89911428D01*
X184749286Y-89625714D01*
X185463571Y-89339999D01*
X184463571Y-89054285D01*
X185320714Y-88482856D02*
X185392143Y-88411428D01*
X185463571Y-88482856D01*
X185392143Y-88554285D01*
X185320714Y-88482856D01*
X185463571Y-88482856D01*
X185392143Y-87839999D02*
X185463571Y-87697142D01*
X185463571Y-87411427D01*
X185392143Y-87268570D01*
X185249286Y-87197142D01*
X185177857Y-87197142D01*
X185035000Y-87268570D01*
X184963571Y-87411427D01*
X184963571Y-87625713D01*
X184892143Y-87768570D01*
X184749286Y-87839999D01*
X184677857Y-87839999D01*
X184535000Y-87768570D01*
X184463571Y-87625713D01*
X184463571Y-87411427D01*
X184535000Y-87268570D01*
X184463571Y-86697141D02*
X184463571Y-85911427D01*
X185463571Y-86697141D01*
X185463571Y-85911427D01*
X185392143Y-84768570D02*
X185463571Y-84911427D01*
X185463571Y-85197141D01*
X185392143Y-85339998D01*
X185249286Y-85411427D01*
X184677857Y-85411427D01*
X184535000Y-85339998D01*
X184463571Y-85197141D01*
X184463571Y-84911427D01*
X184535000Y-84768570D01*
X184677857Y-84697141D01*
X184820714Y-84697141D01*
X184963571Y-85411427D01*
X185463571Y-84054284D02*
X184463571Y-84054284D01*
X184749286Y-84054284D02*
X184606429Y-83982856D01*
X184535000Y-83911427D01*
X184463571Y-83768570D01*
X184463571Y-83625713D01*
X185463571Y-82482856D02*
X184677857Y-82482856D01*
X184535000Y-82554285D01*
X184463571Y-82697142D01*
X184463571Y-82982856D01*
X184535000Y-83125713D01*
X185392143Y-82482856D02*
X185463571Y-82625713D01*
X185463571Y-82982856D01*
X185392143Y-83125713D01*
X185249286Y-83197142D01*
X185106429Y-83197142D01*
X184963571Y-83125713D01*
X184892143Y-82982856D01*
X184892143Y-82625713D01*
X184820714Y-82482856D01*
X184463571Y-81982856D02*
X184463571Y-81411427D01*
X185463571Y-81768570D02*
X184177857Y-81768570D01*
X184035000Y-81697142D01*
X183963571Y-81554284D01*
X183963571Y-81411427D01*
X185463571Y-80911427D02*
X184463571Y-80911427D01*
X183963571Y-80911427D02*
X184035000Y-80982856D01*
X184106429Y-80911427D01*
X184035000Y-80839999D01*
X183963571Y-80911427D01*
X184106429Y-80911427D01*
X184463571Y-80197141D02*
X185463571Y-80197141D01*
X184606429Y-80197141D02*
X184535000Y-80125713D01*
X184463571Y-79982855D01*
X184463571Y-79768570D01*
X184535000Y-79625713D01*
X184677857Y-79554284D01*
X185463571Y-79554284D01*
X184463571Y-78197141D02*
X185677857Y-78197141D01*
X185820714Y-78268570D01*
X185892143Y-78339998D01*
X185963571Y-78482855D01*
X185963571Y-78697141D01*
X185892143Y-78839998D01*
X185392143Y-78197141D02*
X185463571Y-78339998D01*
X185463571Y-78625712D01*
X185392143Y-78768570D01*
X185320714Y-78839998D01*
X185177857Y-78911427D01*
X184749286Y-78911427D01*
X184606429Y-78839998D01*
X184535000Y-78768570D01*
X184463571Y-78625712D01*
X184463571Y-78339998D01*
X184535000Y-78197141D01*
X185463571Y-77268569D02*
X185392143Y-77411427D01*
X185320714Y-77482855D01*
X185177857Y-77554284D01*
X184749286Y-77554284D01*
X184606429Y-77482855D01*
X184535000Y-77411427D01*
X184463571Y-77268569D01*
X184463571Y-77054284D01*
X184535000Y-76911427D01*
X184606429Y-76839998D01*
X184749286Y-76768569D01*
X185177857Y-76768569D01*
X185320714Y-76839998D01*
X185392143Y-76911427D01*
X185463571Y-77054284D01*
X185463571Y-77268569D01*
X185463571Y-76125712D02*
X184463571Y-76125712D01*
X184606429Y-76125712D02*
X184535000Y-76054284D01*
X184463571Y-75911426D01*
X184463571Y-75697141D01*
X184535000Y-75554284D01*
X184677857Y-75482855D01*
X185463571Y-75482855D01*
X184677857Y-75482855D02*
X184535000Y-75411426D01*
X184463571Y-75268569D01*
X184463571Y-75054284D01*
X184535000Y-74911426D01*
X184677857Y-74839998D01*
X185463571Y-74839998D01*
X185463571Y-74125712D02*
X183963571Y-74125712D01*
X184535000Y-74125712D02*
X184463571Y-73982855D01*
X184463571Y-73697141D01*
X184535000Y-73554284D01*
X184606429Y-73482855D01*
X184749286Y-73411426D01*
X185177857Y-73411426D01*
X185320714Y-73482855D01*
X185392143Y-73554284D01*
X185463571Y-73697141D01*
X185463571Y-73982855D01*
X185392143Y-74125712D01*
X185463571Y-72125712D02*
X184677857Y-72125712D01*
X184535000Y-72197141D01*
X184463571Y-72339998D01*
X184463571Y-72625712D01*
X184535000Y-72768569D01*
X185392143Y-72125712D02*
X185463571Y-72268569D01*
X185463571Y-72625712D01*
X185392143Y-72768569D01*
X185249286Y-72839998D01*
X185106429Y-72839998D01*
X184963571Y-72768569D01*
X184892143Y-72625712D01*
X184892143Y-72268569D01*
X184820714Y-72125712D01*
X185320714Y-71411426D02*
X185392143Y-71339998D01*
X185463571Y-71411426D01*
X185392143Y-71482855D01*
X185320714Y-71411426D01*
X185463571Y-71411426D01*
X185463571Y-70697140D02*
X183963571Y-70697140D01*
X185463571Y-70054283D02*
X184677857Y-70054283D01*
X184535000Y-70125712D01*
X184463571Y-70268569D01*
X184463571Y-70482854D01*
X184535000Y-70625712D01*
X184606429Y-70697140D01*
X184463571Y-68697140D02*
X185463571Y-68697140D01*
X184463571Y-69339997D02*
X185249286Y-69339997D01*
X185392143Y-69268569D01*
X185463571Y-69125711D01*
X185463571Y-68911426D01*
X185392143Y-68768569D01*
X185320714Y-68697140D01*
D12*
X206375000Y-79415000D03*
D13*
X206375000Y-81915000D03*
D14*
X199390000Y-77470000D03*
D15*
X199390000Y-74930000D03*
X199390000Y-72390000D03*
X199390000Y-69850000D03*
D16*
X121920000Y-121920000D03*
X161925000Y-121920000D03*
X161925000Y-72390000D03*
X121920000Y-72390000D03*
D14*
X195580000Y-77470000D03*
D15*
X195580000Y-74930000D03*
X195580000Y-72390000D03*
X195580000Y-69850000D03*
D12*
X207645000Y-70525000D03*
D13*
X207645000Y-73025000D03*
D14*
X191770000Y-77470000D03*
D15*
X191770000Y-74930000D03*
X191770000Y-72390000D03*
D17*
X188595000Y-77470000D03*
D18*
X188595000Y-74930000D03*
D15*
X202565000Y-93980000D03*
X202565000Y-106680000D03*
X202565000Y-104140000D03*
X202565000Y-101600000D03*
X202565000Y-99060000D03*
X202565000Y-96520000D03*
D14*
X192405000Y-93980000D03*
D15*
X192405000Y-96520000D03*
X192405000Y-99060000D03*
X192405000Y-101600000D03*
X192405000Y-104140000D03*
X192405000Y-106680000D03*
X202565000Y-111760000D03*
X202565000Y-124460000D03*
X202565000Y-121920000D03*
X202565000Y-119380000D03*
X202565000Y-116840000D03*
X202565000Y-114300000D03*
D14*
X192405000Y-111760000D03*
D15*
X192405000Y-114300000D03*
X192405000Y-116840000D03*
X192405000Y-119380000D03*
X192405000Y-121920000D03*
X192405000Y-124460000D03*
M02*
