M48
;DRILL file {KiCad 4.0.5+dfsg1-4} date Sun Oct  6 16:03:35 2019
;FORMAT={-:-/ absolute / metric / decimal}
FMAT,2
METRIC,TZ
T1C0.800
T2C1.016
T3C2.700
%
G90
G05
M71
T1
X206.375Y-79.415
X206.375Y-81.915
X207.645Y-70.525
X207.645Y-73.025
T2
X188.595Y-74.93
X188.595Y-77.47
X191.77Y-72.39
X191.77Y-74.93
X191.77Y-77.47
X192.405Y-93.98
X192.405Y-96.52
X192.405Y-99.06
X192.405Y-101.6
X192.405Y-104.14
X192.405Y-106.68
X192.405Y-111.76
X192.405Y-114.3
X192.405Y-116.84
X192.405Y-119.38
X192.405Y-121.92
X192.405Y-124.46
X195.58Y-69.85
X195.58Y-72.39
X195.58Y-74.93
X195.58Y-77.47
X199.39Y-69.85
X199.39Y-72.39
X199.39Y-74.93
X199.39Y-77.47
X202.565Y-93.98
X202.565Y-96.52
X202.565Y-99.06
X202.565Y-101.6
X202.565Y-104.14
X202.565Y-106.68
X202.565Y-111.76
X202.565Y-114.3
X202.565Y-116.84
X202.565Y-119.38
X202.565Y-121.92
X202.565Y-124.46
T3
X121.92Y-72.39
X121.92Y-121.92
X161.925Y-72.39
X161.925Y-121.92
T0
M30
