%TF.GenerationSoftware,KiCad,Pcbnew,4.0.7*%
%TF.CreationDate,2020-03-02T22:45:32+01:00*%
%TF.ProjectId,u4,75342E6B696361645F70636200000000,191101*%
%TF.FileFunction,Soldermask,Bot*%
%FSLAX46Y46*%
G04 Gerber Fmt 4.6, Leading zero omitted, Abs format (unit mm)*
G04 Created by KiCad (PCBNEW 4.0.7) date 03/02/20 22:45:32*
%MOMM*%
%LPD*%
G01*
G04 APERTURE LIST*
%ADD10C,0.150000*%
%ADD11C,1.924000*%
%ADD12R,2.127200X2.127200*%
%ADD13O,2.127200X2.127200*%
%ADD14C,5.800000*%
%ADD15R,2.127200X2.432000*%
%ADD16O,2.127200X2.432000*%
G04 APERTURE END LIST*
D10*
X102870000Y-115570000D02*
X102870000Y-114300000D01*
X190500000Y-115570000D02*
X102870000Y-115570000D01*
X190500000Y-114300000D02*
X190500000Y-115570000D01*
X190500000Y-114300000D02*
X190500000Y-113030000D01*
X102870000Y-74930000D02*
X102870000Y-114300000D01*
X190500000Y-74930000D02*
X102870000Y-74930000D01*
X190500000Y-113030000D02*
X190500000Y-74930000D01*
D11*
X149860000Y-99060000D03*
X149860000Y-88900000D03*
D12*
X149860000Y-83820000D03*
D13*
X149860000Y-81280000D03*
D12*
X153670000Y-83820000D03*
D13*
X153670000Y-81280000D03*
D11*
X153670000Y-99060000D03*
X153670000Y-88900000D03*
X161290000Y-99060000D03*
X161290000Y-88900000D03*
D12*
X161290000Y-83820000D03*
D13*
X161290000Y-81280000D03*
D12*
X157480000Y-83820000D03*
D13*
X157480000Y-81280000D03*
D11*
X157480000Y-99060000D03*
X157480000Y-88900000D03*
X172720000Y-99060000D03*
X172720000Y-88900000D03*
D12*
X172720000Y-83820000D03*
D13*
X172720000Y-81280000D03*
D11*
X168910000Y-99060000D03*
X168910000Y-88900000D03*
D12*
X168910000Y-81280000D03*
D13*
X168910000Y-83820000D03*
D12*
X165100000Y-83820000D03*
D13*
X165100000Y-81280000D03*
D11*
X165100000Y-99060000D03*
X165100000Y-88900000D03*
X134620000Y-99060000D03*
X134620000Y-88900000D03*
D12*
X134620000Y-83820000D03*
D13*
X134620000Y-81280000D03*
D12*
X138430000Y-83820000D03*
D13*
X138430000Y-81280000D03*
D11*
X138430000Y-99060000D03*
X138430000Y-88900000D03*
X146050000Y-99060000D03*
X146050000Y-88900000D03*
D12*
X146050000Y-83820000D03*
D13*
X146050000Y-81280000D03*
D12*
X142240000Y-83820000D03*
D13*
X142240000Y-81280000D03*
D11*
X142240000Y-99060000D03*
X142240000Y-88900000D03*
X127000000Y-99060000D03*
X127000000Y-88900000D03*
D12*
X127000000Y-83820000D03*
D13*
X127000000Y-81280000D03*
D12*
X130810000Y-83820000D03*
D13*
X130810000Y-81280000D03*
D11*
X130810000Y-99060000D03*
X130810000Y-88900000D03*
X123190000Y-99060000D03*
X123190000Y-88900000D03*
D12*
X123190000Y-83820000D03*
D13*
X123190000Y-81280000D03*
D14*
X107950000Y-95250000D03*
X185420000Y-95250000D03*
D12*
X119380000Y-83820000D03*
D13*
X119380000Y-81280000D03*
D11*
X119380000Y-99060000D03*
X119380000Y-88900000D03*
D15*
X129540000Y-107950000D03*
D16*
X132080000Y-107950000D03*
X134620000Y-107950000D03*
X137160000Y-107950000D03*
X139700000Y-107950000D03*
X142240000Y-107950000D03*
X144780000Y-107950000D03*
X147320000Y-107950000D03*
X149860000Y-107950000D03*
X152400000Y-107950000D03*
X154940000Y-107950000D03*
X157480000Y-107950000D03*
X160020000Y-107950000D03*
X162560000Y-107950000D03*
X165100000Y-107950000D03*
X167640000Y-107950000D03*
D11*
X177800000Y-99060000D03*
X177800000Y-88900000D03*
M02*
