G04 #@! TF.FileFunction,Legend,Top*
%FSLAX46Y46*%
G04 Gerber Fmt 4.6, Leading zero omitted, Abs format (unit mm)*
G04 Created by KiCad (PCBNEW 4.0.7) date 02/20/20 23:37:31*
%MOMM*%
%LPD*%
G01*
G04 APERTURE LIST*
%ADD10C,0.150000*%
%ADD11C,0.300000*%
%ADD12C,0.200000*%
G04 APERTURE END LIST*
D10*
X102870000Y-115570000D02*
X102870000Y-114300000D01*
X190500000Y-115570000D02*
X102870000Y-115570000D01*
X190500000Y-114300000D02*
X190500000Y-115570000D01*
X150312381Y-112807381D02*
X150312381Y-113283572D01*
X149312381Y-113283572D01*
X149788571Y-112474048D02*
X149788571Y-112140714D01*
X150312381Y-111997857D02*
X150312381Y-112474048D01*
X149312381Y-112474048D01*
X149312381Y-111997857D01*
X150312381Y-111569286D02*
X149312381Y-111569286D01*
X149312381Y-111331191D01*
X149360000Y-111188333D01*
X149455238Y-111093095D01*
X149550476Y-111045476D01*
X149740952Y-110997857D01*
X149883810Y-110997857D01*
X150074286Y-111045476D01*
X150169524Y-111093095D01*
X150264762Y-111188333D01*
X150312381Y-111331191D01*
X150312381Y-111569286D01*
X150312381Y-110521667D02*
X150312381Y-110331191D01*
X150264762Y-110235952D01*
X150217143Y-110188333D01*
X150074286Y-110093095D01*
X149883810Y-110045476D01*
X149502857Y-110045476D01*
X149407619Y-110093095D01*
X149360000Y-110140714D01*
X149312381Y-110235952D01*
X149312381Y-110426429D01*
X149360000Y-110521667D01*
X149407619Y-110569286D01*
X149502857Y-110616905D01*
X149740952Y-110616905D01*
X149836190Y-110569286D01*
X149883810Y-110521667D01*
X149931429Y-110426429D01*
X149931429Y-110235952D01*
X149883810Y-110140714D01*
X149836190Y-110093095D01*
X149740952Y-110045476D01*
X147772381Y-112807381D02*
X147772381Y-113283572D01*
X146772381Y-113283572D01*
X147248571Y-112474048D02*
X147248571Y-112140714D01*
X147772381Y-111997857D02*
X147772381Y-112474048D01*
X146772381Y-112474048D01*
X146772381Y-111997857D01*
X147772381Y-111569286D02*
X146772381Y-111569286D01*
X146772381Y-111331191D01*
X146820000Y-111188333D01*
X146915238Y-111093095D01*
X147010476Y-111045476D01*
X147200952Y-110997857D01*
X147343810Y-110997857D01*
X147534286Y-111045476D01*
X147629524Y-111093095D01*
X147724762Y-111188333D01*
X147772381Y-111331191D01*
X147772381Y-111569286D01*
X147200952Y-110426429D02*
X147153333Y-110521667D01*
X147105714Y-110569286D01*
X147010476Y-110616905D01*
X146962857Y-110616905D01*
X146867619Y-110569286D01*
X146820000Y-110521667D01*
X146772381Y-110426429D01*
X146772381Y-110235952D01*
X146820000Y-110140714D01*
X146867619Y-110093095D01*
X146962857Y-110045476D01*
X147010476Y-110045476D01*
X147105714Y-110093095D01*
X147153333Y-110140714D01*
X147200952Y-110235952D01*
X147200952Y-110426429D01*
X147248571Y-110521667D01*
X147296190Y-110569286D01*
X147391429Y-110616905D01*
X147581905Y-110616905D01*
X147677143Y-110569286D01*
X147724762Y-110521667D01*
X147772381Y-110426429D01*
X147772381Y-110235952D01*
X147724762Y-110140714D01*
X147677143Y-110093095D01*
X147581905Y-110045476D01*
X147391429Y-110045476D01*
X147296190Y-110093095D01*
X147248571Y-110140714D01*
X147200952Y-110235952D01*
X145232381Y-112807381D02*
X145232381Y-113283572D01*
X144232381Y-113283572D01*
X144708571Y-112474048D02*
X144708571Y-112140714D01*
X145232381Y-111997857D02*
X145232381Y-112474048D01*
X144232381Y-112474048D01*
X144232381Y-111997857D01*
X145232381Y-111569286D02*
X144232381Y-111569286D01*
X144232381Y-111331191D01*
X144280000Y-111188333D01*
X144375238Y-111093095D01*
X144470476Y-111045476D01*
X144660952Y-110997857D01*
X144803810Y-110997857D01*
X144994286Y-111045476D01*
X145089524Y-111093095D01*
X145184762Y-111188333D01*
X145232381Y-111331191D01*
X145232381Y-111569286D01*
X144232381Y-110664524D02*
X144232381Y-109997857D01*
X145232381Y-110426429D01*
X142692381Y-112807381D02*
X142692381Y-113283572D01*
X141692381Y-113283572D01*
X142168571Y-112474048D02*
X142168571Y-112140714D01*
X142692381Y-111997857D02*
X142692381Y-112474048D01*
X141692381Y-112474048D01*
X141692381Y-111997857D01*
X142692381Y-111569286D02*
X141692381Y-111569286D01*
X141692381Y-111331191D01*
X141740000Y-111188333D01*
X141835238Y-111093095D01*
X141930476Y-111045476D01*
X142120952Y-110997857D01*
X142263810Y-110997857D01*
X142454286Y-111045476D01*
X142549524Y-111093095D01*
X142644762Y-111188333D01*
X142692381Y-111331191D01*
X142692381Y-111569286D01*
X141692381Y-110140714D02*
X141692381Y-110331191D01*
X141740000Y-110426429D01*
X141787619Y-110474048D01*
X141930476Y-110569286D01*
X142120952Y-110616905D01*
X142501905Y-110616905D01*
X142597143Y-110569286D01*
X142644762Y-110521667D01*
X142692381Y-110426429D01*
X142692381Y-110235952D01*
X142644762Y-110140714D01*
X142597143Y-110093095D01*
X142501905Y-110045476D01*
X142263810Y-110045476D01*
X142168571Y-110093095D01*
X142120952Y-110140714D01*
X142073333Y-110235952D01*
X142073333Y-110426429D01*
X142120952Y-110521667D01*
X142168571Y-110569286D01*
X142263810Y-110616905D01*
X140152381Y-112807381D02*
X140152381Y-113283572D01*
X139152381Y-113283572D01*
X139628571Y-112474048D02*
X139628571Y-112140714D01*
X140152381Y-111997857D02*
X140152381Y-112474048D01*
X139152381Y-112474048D01*
X139152381Y-111997857D01*
X140152381Y-111569286D02*
X139152381Y-111569286D01*
X139152381Y-111331191D01*
X139200000Y-111188333D01*
X139295238Y-111093095D01*
X139390476Y-111045476D01*
X139580952Y-110997857D01*
X139723810Y-110997857D01*
X139914286Y-111045476D01*
X140009524Y-111093095D01*
X140104762Y-111188333D01*
X140152381Y-111331191D01*
X140152381Y-111569286D01*
X139152381Y-110093095D02*
X139152381Y-110569286D01*
X139628571Y-110616905D01*
X139580952Y-110569286D01*
X139533333Y-110474048D01*
X139533333Y-110235952D01*
X139580952Y-110140714D01*
X139628571Y-110093095D01*
X139723810Y-110045476D01*
X139961905Y-110045476D01*
X140057143Y-110093095D01*
X140104762Y-110140714D01*
X140152381Y-110235952D01*
X140152381Y-110474048D01*
X140104762Y-110569286D01*
X140057143Y-110616905D01*
X137612381Y-112807381D02*
X137612381Y-113283572D01*
X136612381Y-113283572D01*
X137088571Y-112474048D02*
X137088571Y-112140714D01*
X137612381Y-111997857D02*
X137612381Y-112474048D01*
X136612381Y-112474048D01*
X136612381Y-111997857D01*
X137612381Y-111569286D02*
X136612381Y-111569286D01*
X136612381Y-111331191D01*
X136660000Y-111188333D01*
X136755238Y-111093095D01*
X136850476Y-111045476D01*
X137040952Y-110997857D01*
X137183810Y-110997857D01*
X137374286Y-111045476D01*
X137469524Y-111093095D01*
X137564762Y-111188333D01*
X137612381Y-111331191D01*
X137612381Y-111569286D01*
X136945714Y-110140714D02*
X137612381Y-110140714D01*
X136564762Y-110378810D02*
X137279048Y-110616905D01*
X137279048Y-109997857D01*
X135072381Y-112807381D02*
X135072381Y-113283572D01*
X134072381Y-113283572D01*
X134548571Y-112474048D02*
X134548571Y-112140714D01*
X135072381Y-111997857D02*
X135072381Y-112474048D01*
X134072381Y-112474048D01*
X134072381Y-111997857D01*
X135072381Y-111569286D02*
X134072381Y-111569286D01*
X134072381Y-111331191D01*
X134120000Y-111188333D01*
X134215238Y-111093095D01*
X134310476Y-111045476D01*
X134500952Y-110997857D01*
X134643810Y-110997857D01*
X134834286Y-111045476D01*
X134929524Y-111093095D01*
X135024762Y-111188333D01*
X135072381Y-111331191D01*
X135072381Y-111569286D01*
X134072381Y-110664524D02*
X134072381Y-110045476D01*
X134453333Y-110378810D01*
X134453333Y-110235952D01*
X134500952Y-110140714D01*
X134548571Y-110093095D01*
X134643810Y-110045476D01*
X134881905Y-110045476D01*
X134977143Y-110093095D01*
X135024762Y-110140714D01*
X135072381Y-110235952D01*
X135072381Y-110521667D01*
X135024762Y-110616905D01*
X134977143Y-110664524D01*
X132532381Y-112807381D02*
X132532381Y-113283572D01*
X131532381Y-113283572D01*
X132008571Y-112474048D02*
X132008571Y-112140714D01*
X132532381Y-111997857D02*
X132532381Y-112474048D01*
X131532381Y-112474048D01*
X131532381Y-111997857D01*
X132532381Y-111569286D02*
X131532381Y-111569286D01*
X131532381Y-111331191D01*
X131580000Y-111188333D01*
X131675238Y-111093095D01*
X131770476Y-111045476D01*
X131960952Y-110997857D01*
X132103810Y-110997857D01*
X132294286Y-111045476D01*
X132389524Y-111093095D01*
X132484762Y-111188333D01*
X132532381Y-111331191D01*
X132532381Y-111569286D01*
X131627619Y-110616905D02*
X131580000Y-110569286D01*
X131532381Y-110474048D01*
X131532381Y-110235952D01*
X131580000Y-110140714D01*
X131627619Y-110093095D01*
X131722857Y-110045476D01*
X131818095Y-110045476D01*
X131960952Y-110093095D01*
X132532381Y-110664524D01*
X132532381Y-110045476D01*
X129992381Y-112807381D02*
X129992381Y-113283572D01*
X128992381Y-113283572D01*
X129468571Y-112474048D02*
X129468571Y-112140714D01*
X129992381Y-111997857D02*
X129992381Y-112474048D01*
X128992381Y-112474048D01*
X128992381Y-111997857D01*
X129992381Y-111569286D02*
X128992381Y-111569286D01*
X128992381Y-111331191D01*
X129040000Y-111188333D01*
X129135238Y-111093095D01*
X129230476Y-111045476D01*
X129420952Y-110997857D01*
X129563810Y-110997857D01*
X129754286Y-111045476D01*
X129849524Y-111093095D01*
X129944762Y-111188333D01*
X129992381Y-111331191D01*
X129992381Y-111569286D01*
X129992381Y-110045476D02*
X129992381Y-110616905D01*
X129992381Y-110331191D02*
X128992381Y-110331191D01*
X129135238Y-110426429D01*
X129230476Y-110521667D01*
X129278095Y-110616905D01*
X152852381Y-113759762D02*
X152852381Y-114235953D01*
X151852381Y-114235953D01*
X152328571Y-113426429D02*
X152328571Y-113093095D01*
X152852381Y-112950238D02*
X152852381Y-113426429D01*
X151852381Y-113426429D01*
X151852381Y-112950238D01*
X152852381Y-112521667D02*
X151852381Y-112521667D01*
X151852381Y-112283572D01*
X151900000Y-112140714D01*
X151995238Y-112045476D01*
X152090476Y-111997857D01*
X152280952Y-111950238D01*
X152423810Y-111950238D01*
X152614286Y-111997857D01*
X152709524Y-112045476D01*
X152804762Y-112140714D01*
X152852381Y-112283572D01*
X152852381Y-112521667D01*
X152852381Y-110997857D02*
X152852381Y-111569286D01*
X152852381Y-111283572D02*
X151852381Y-111283572D01*
X151995238Y-111378810D01*
X152090476Y-111474048D01*
X152138095Y-111569286D01*
X151852381Y-110378810D02*
X151852381Y-110283571D01*
X151900000Y-110188333D01*
X151947619Y-110140714D01*
X152042857Y-110093095D01*
X152233333Y-110045476D01*
X152471429Y-110045476D01*
X152661905Y-110093095D01*
X152757143Y-110140714D01*
X152804762Y-110188333D01*
X152852381Y-110283571D01*
X152852381Y-110378810D01*
X152804762Y-110474048D01*
X152757143Y-110521667D01*
X152661905Y-110569286D01*
X152471429Y-110616905D01*
X152233333Y-110616905D01*
X152042857Y-110569286D01*
X151947619Y-110521667D01*
X151900000Y-110474048D01*
X151852381Y-110378810D01*
X155392381Y-113759762D02*
X155392381Y-114235953D01*
X154392381Y-114235953D01*
X154868571Y-113426429D02*
X154868571Y-113093095D01*
X155392381Y-112950238D02*
X155392381Y-113426429D01*
X154392381Y-113426429D01*
X154392381Y-112950238D01*
X155392381Y-112521667D02*
X154392381Y-112521667D01*
X154392381Y-112283572D01*
X154440000Y-112140714D01*
X154535238Y-112045476D01*
X154630476Y-111997857D01*
X154820952Y-111950238D01*
X154963810Y-111950238D01*
X155154286Y-111997857D01*
X155249524Y-112045476D01*
X155344762Y-112140714D01*
X155392381Y-112283572D01*
X155392381Y-112521667D01*
X155392381Y-110997857D02*
X155392381Y-111569286D01*
X155392381Y-111283572D02*
X154392381Y-111283572D01*
X154535238Y-111378810D01*
X154630476Y-111474048D01*
X154678095Y-111569286D01*
X155392381Y-110045476D02*
X155392381Y-110616905D01*
X155392381Y-110331191D02*
X154392381Y-110331191D01*
X154535238Y-110426429D01*
X154630476Y-110521667D01*
X154678095Y-110616905D01*
X157932381Y-113759762D02*
X157932381Y-114235953D01*
X156932381Y-114235953D01*
X157408571Y-113426429D02*
X157408571Y-113093095D01*
X157932381Y-112950238D02*
X157932381Y-113426429D01*
X156932381Y-113426429D01*
X156932381Y-112950238D01*
X157932381Y-112521667D02*
X156932381Y-112521667D01*
X156932381Y-112283572D01*
X156980000Y-112140714D01*
X157075238Y-112045476D01*
X157170476Y-111997857D01*
X157360952Y-111950238D01*
X157503810Y-111950238D01*
X157694286Y-111997857D01*
X157789524Y-112045476D01*
X157884762Y-112140714D01*
X157932381Y-112283572D01*
X157932381Y-112521667D01*
X157932381Y-110997857D02*
X157932381Y-111569286D01*
X157932381Y-111283572D02*
X156932381Y-111283572D01*
X157075238Y-111378810D01*
X157170476Y-111474048D01*
X157218095Y-111569286D01*
X157027619Y-110616905D02*
X156980000Y-110569286D01*
X156932381Y-110474048D01*
X156932381Y-110235952D01*
X156980000Y-110140714D01*
X157027619Y-110093095D01*
X157122857Y-110045476D01*
X157218095Y-110045476D01*
X157360952Y-110093095D01*
X157932381Y-110664524D01*
X157932381Y-110045476D01*
X162964762Y-111759762D02*
X163012381Y-111616905D01*
X163012381Y-111378809D01*
X162964762Y-111283571D01*
X162917143Y-111235952D01*
X162821905Y-111188333D01*
X162726667Y-111188333D01*
X162631429Y-111235952D01*
X162583810Y-111283571D01*
X162536190Y-111378809D01*
X162488571Y-111569286D01*
X162440952Y-111664524D01*
X162393333Y-111712143D01*
X162298095Y-111759762D01*
X162202857Y-111759762D01*
X162107619Y-111712143D01*
X162060000Y-111664524D01*
X162012381Y-111569286D01*
X162012381Y-111331190D01*
X162060000Y-111188333D01*
X162012381Y-110855000D02*
X163012381Y-110616905D01*
X162298095Y-110426428D01*
X163012381Y-110235952D01*
X162012381Y-109997857D01*
D11*
X135835715Y-104862143D02*
X135835715Y-101862143D01*
X136835715Y-104005000D01*
X137835715Y-101862143D01*
X137835715Y-104862143D01*
X139264286Y-104862143D02*
X139264286Y-101862143D01*
X140264286Y-104005000D01*
X141264286Y-101862143D01*
X141264286Y-104862143D01*
X144121428Y-101862143D02*
X142692857Y-101862143D01*
X142550000Y-103290714D01*
X142692857Y-103147857D01*
X142978571Y-103005000D01*
X143692857Y-103005000D01*
X143978571Y-103147857D01*
X144121428Y-103290714D01*
X144264285Y-103576429D01*
X144264285Y-104290714D01*
X144121428Y-104576429D01*
X143978571Y-104719286D01*
X143692857Y-104862143D01*
X142978571Y-104862143D01*
X142692857Y-104719286D01*
X142550000Y-104576429D01*
X145550000Y-104862143D02*
X145550000Y-101862143D01*
X146264285Y-101862143D01*
X146692857Y-102005000D01*
X146978571Y-102290714D01*
X147121428Y-102576429D01*
X147264285Y-103147857D01*
X147264285Y-103576429D01*
X147121428Y-104147857D01*
X146978571Y-104433571D01*
X146692857Y-104719286D01*
X146264285Y-104862143D01*
X145550000Y-104862143D01*
X150692857Y-101719286D02*
X148121428Y-105576429D01*
X151692857Y-101862143D02*
X151692857Y-104290714D01*
X151835714Y-104576429D01*
X151978571Y-104719286D01*
X152264285Y-104862143D01*
X152835714Y-104862143D01*
X153121428Y-104719286D01*
X153264285Y-104576429D01*
X153407142Y-104290714D01*
X153407142Y-101862143D01*
X156121428Y-102862143D02*
X156121428Y-104862143D01*
X155407142Y-101719286D02*
X154692857Y-103862143D01*
X156549999Y-103862143D01*
D10*
X160472381Y-113759762D02*
X160472381Y-114235953D01*
X159472381Y-114235953D01*
X159948571Y-113426429D02*
X159948571Y-113093095D01*
X160472381Y-112950238D02*
X160472381Y-113426429D01*
X159472381Y-113426429D01*
X159472381Y-112950238D01*
X160472381Y-112521667D02*
X159472381Y-112521667D01*
X159472381Y-112283572D01*
X159520000Y-112140714D01*
X159615238Y-112045476D01*
X159710476Y-111997857D01*
X159900952Y-111950238D01*
X160043810Y-111950238D01*
X160234286Y-111997857D01*
X160329524Y-112045476D01*
X160424762Y-112140714D01*
X160472381Y-112283572D01*
X160472381Y-112521667D01*
X160472381Y-110997857D02*
X160472381Y-111569286D01*
X160472381Y-111283572D02*
X159472381Y-111283572D01*
X159615238Y-111378810D01*
X159710476Y-111474048D01*
X159758095Y-111569286D01*
X159472381Y-110664524D02*
X159472381Y-110045476D01*
X159853333Y-110378810D01*
X159853333Y-110235952D01*
X159900952Y-110140714D01*
X159948571Y-110093095D01*
X160043810Y-110045476D01*
X160281905Y-110045476D01*
X160377143Y-110093095D01*
X160424762Y-110140714D01*
X160472381Y-110235952D01*
X160472381Y-110521667D01*
X160424762Y-110616905D01*
X160377143Y-110664524D01*
X164552381Y-113569286D02*
X165552381Y-113235953D01*
X164552381Y-112902619D01*
X165457143Y-111997857D02*
X165504762Y-112045476D01*
X165552381Y-112188333D01*
X165552381Y-112283571D01*
X165504762Y-112426429D01*
X165409524Y-112521667D01*
X165314286Y-112569286D01*
X165123810Y-112616905D01*
X164980952Y-112616905D01*
X164790476Y-112569286D01*
X164695238Y-112521667D01*
X164600000Y-112426429D01*
X164552381Y-112283571D01*
X164552381Y-112188333D01*
X164600000Y-112045476D01*
X164647619Y-111997857D01*
X165457143Y-110997857D02*
X165504762Y-111045476D01*
X165552381Y-111188333D01*
X165552381Y-111283571D01*
X165504762Y-111426429D01*
X165409524Y-111521667D01*
X165314286Y-111569286D01*
X165123810Y-111616905D01*
X164980952Y-111616905D01*
X164790476Y-111569286D01*
X164695238Y-111521667D01*
X164600000Y-111426429D01*
X164552381Y-111283571D01*
X164552381Y-111188333D01*
X164600000Y-111045476D01*
X164647619Y-110997857D01*
X164552381Y-110664524D02*
X164552381Y-110045476D01*
X164933333Y-110378810D01*
X164933333Y-110235952D01*
X164980952Y-110140714D01*
X165028571Y-110093095D01*
X165123810Y-110045476D01*
X165361905Y-110045476D01*
X165457143Y-110093095D01*
X165504762Y-110140714D01*
X165552381Y-110235952D01*
X165552381Y-110521667D01*
X165504762Y-110616905D01*
X165457143Y-110664524D01*
X190500000Y-114300000D02*
X190500000Y-113030000D01*
X102870000Y-74930000D02*
X102870000Y-114300000D01*
X190500000Y-74930000D02*
X102870000Y-74930000D01*
X190500000Y-113030000D02*
X190500000Y-74930000D01*
D12*
X177800000Y-88900000D02*
X177800000Y-99060000D01*
D10*
X167140000Y-112140714D02*
X167092381Y-112235952D01*
X167092381Y-112378809D01*
X167140000Y-112521667D01*
X167235238Y-112616905D01*
X167330476Y-112664524D01*
X167520952Y-112712143D01*
X167663810Y-112712143D01*
X167854286Y-112664524D01*
X167949524Y-112616905D01*
X168044762Y-112521667D01*
X168092381Y-112378809D01*
X168092381Y-112283571D01*
X168044762Y-112140714D01*
X167997143Y-112093095D01*
X167663810Y-112093095D01*
X167663810Y-112283571D01*
X168092381Y-111664524D02*
X167092381Y-111664524D01*
X168092381Y-111093095D01*
X167092381Y-111093095D01*
X168092381Y-110616905D02*
X167092381Y-110616905D01*
X167092381Y-110378810D01*
X167140000Y-110235952D01*
X167235238Y-110140714D01*
X167330476Y-110093095D01*
X167520952Y-110045476D01*
X167663810Y-110045476D01*
X167854286Y-110093095D01*
X167949524Y-110140714D01*
X168044762Y-110235952D01*
X168092381Y-110378810D01*
X168092381Y-110616905D01*
X149860000Y-99060000D02*
X149860000Y-98044000D01*
X149860000Y-98044000D02*
X148844000Y-98044000D01*
X148844000Y-98044000D02*
X148844000Y-89916000D01*
X148844000Y-89916000D02*
X150876000Y-89916000D01*
X150876000Y-89916000D02*
X150876000Y-98044000D01*
X150876000Y-98044000D02*
X149860000Y-98044000D01*
X149352000Y-98044000D02*
X148844000Y-97536000D01*
X149860000Y-88900000D02*
X149860000Y-89916000D01*
X149860000Y-85370000D02*
X148310000Y-85370000D01*
X148310000Y-83820000D02*
X148310000Y-85370000D01*
X151130000Y-85090000D02*
X151130000Y-82550000D01*
X148590000Y-80010000D02*
X148590000Y-82550000D01*
X148590000Y-82550000D02*
X151130000Y-82550000D01*
X151130000Y-82550000D02*
X151130000Y-80010000D01*
X151130000Y-80010000D02*
X148590000Y-80010000D01*
X153670000Y-85370000D02*
X152120000Y-85370000D01*
X152120000Y-83820000D02*
X152120000Y-85370000D01*
X154940000Y-85090000D02*
X154940000Y-82550000D01*
X152400000Y-80010000D02*
X152400000Y-82550000D01*
X152400000Y-82550000D02*
X154940000Y-82550000D01*
X154940000Y-82550000D02*
X154940000Y-80010000D01*
X154940000Y-80010000D02*
X152400000Y-80010000D01*
X153670000Y-99060000D02*
X153670000Y-98044000D01*
X153670000Y-98044000D02*
X152654000Y-98044000D01*
X152654000Y-98044000D02*
X152654000Y-89916000D01*
X152654000Y-89916000D02*
X154686000Y-89916000D01*
X154686000Y-89916000D02*
X154686000Y-98044000D01*
X154686000Y-98044000D02*
X153670000Y-98044000D01*
X153162000Y-98044000D02*
X152654000Y-97536000D01*
X153670000Y-88900000D02*
X153670000Y-89916000D01*
X161290000Y-99060000D02*
X161290000Y-98044000D01*
X161290000Y-98044000D02*
X160274000Y-98044000D01*
X160274000Y-98044000D02*
X160274000Y-89916000D01*
X160274000Y-89916000D02*
X162306000Y-89916000D01*
X162306000Y-89916000D02*
X162306000Y-98044000D01*
X162306000Y-98044000D02*
X161290000Y-98044000D01*
X160782000Y-98044000D02*
X160274000Y-97536000D01*
X161290000Y-88900000D02*
X161290000Y-89916000D01*
X161290000Y-85370000D02*
X159740000Y-85370000D01*
X159740000Y-83820000D02*
X159740000Y-85370000D01*
X162560000Y-85090000D02*
X162560000Y-82550000D01*
X160020000Y-80010000D02*
X160020000Y-82550000D01*
X160020000Y-82550000D02*
X162560000Y-82550000D01*
X162560000Y-82550000D02*
X162560000Y-80010000D01*
X162560000Y-80010000D02*
X160020000Y-80010000D01*
X157480000Y-85370000D02*
X155930000Y-85370000D01*
X155930000Y-83820000D02*
X155930000Y-85370000D01*
X158750000Y-85090000D02*
X158750000Y-82550000D01*
X156210000Y-80010000D02*
X156210000Y-82550000D01*
X156210000Y-82550000D02*
X158750000Y-82550000D01*
X158750000Y-82550000D02*
X158750000Y-80010000D01*
X158750000Y-80010000D02*
X156210000Y-80010000D01*
X157480000Y-99060000D02*
X157480000Y-98044000D01*
X157480000Y-98044000D02*
X156464000Y-98044000D01*
X156464000Y-98044000D02*
X156464000Y-89916000D01*
X156464000Y-89916000D02*
X158496000Y-89916000D01*
X158496000Y-89916000D02*
X158496000Y-98044000D01*
X158496000Y-98044000D02*
X157480000Y-98044000D01*
X156972000Y-98044000D02*
X156464000Y-97536000D01*
X157480000Y-88900000D02*
X157480000Y-89916000D01*
X172720000Y-99060000D02*
X172720000Y-98044000D01*
X172720000Y-98044000D02*
X171704000Y-98044000D01*
X171704000Y-98044000D02*
X171704000Y-89916000D01*
X171704000Y-89916000D02*
X173736000Y-89916000D01*
X173736000Y-89916000D02*
X173736000Y-98044000D01*
X173736000Y-98044000D02*
X172720000Y-98044000D01*
X172212000Y-98044000D02*
X171704000Y-97536000D01*
X172720000Y-88900000D02*
X172720000Y-89916000D01*
X172720000Y-85370000D02*
X171170000Y-85370000D01*
X171170000Y-83820000D02*
X171170000Y-85370000D01*
X173990000Y-85090000D02*
X173990000Y-82550000D01*
X171450000Y-80010000D02*
X171450000Y-82550000D01*
X171450000Y-82550000D02*
X173990000Y-82550000D01*
X173990000Y-82550000D02*
X173990000Y-80010000D01*
X173990000Y-80010000D02*
X171450000Y-80010000D01*
X168910000Y-99060000D02*
X168910000Y-98044000D01*
X168910000Y-98044000D02*
X167894000Y-98044000D01*
X167894000Y-98044000D02*
X167894000Y-89916000D01*
X167894000Y-89916000D02*
X169926000Y-89916000D01*
X169926000Y-89916000D02*
X169926000Y-98044000D01*
X169926000Y-98044000D02*
X168910000Y-98044000D01*
X168402000Y-98044000D02*
X167894000Y-97536000D01*
X168910000Y-88900000D02*
X168910000Y-89916000D01*
X168910000Y-79730000D02*
X170460000Y-79730000D01*
X170460000Y-81280000D02*
X170460000Y-79730000D01*
X167640000Y-80010000D02*
X167640000Y-82550000D01*
X170180000Y-85090000D02*
X170180000Y-82550000D01*
X170180000Y-82550000D02*
X167640000Y-82550000D01*
X167640000Y-82550000D02*
X167640000Y-85090000D01*
X167640000Y-85090000D02*
X170180000Y-85090000D01*
X165100000Y-85370000D02*
X163550000Y-85370000D01*
X163550000Y-83820000D02*
X163550000Y-85370000D01*
X166370000Y-85090000D02*
X166370000Y-82550000D01*
X163830000Y-80010000D02*
X163830000Y-82550000D01*
X163830000Y-82550000D02*
X166370000Y-82550000D01*
X166370000Y-82550000D02*
X166370000Y-80010000D01*
X166370000Y-80010000D02*
X163830000Y-80010000D01*
X165100000Y-99060000D02*
X165100000Y-98044000D01*
X165100000Y-98044000D02*
X164084000Y-98044000D01*
X164084000Y-98044000D02*
X164084000Y-89916000D01*
X164084000Y-89916000D02*
X166116000Y-89916000D01*
X166116000Y-89916000D02*
X166116000Y-98044000D01*
X166116000Y-98044000D02*
X165100000Y-98044000D01*
X164592000Y-98044000D02*
X164084000Y-97536000D01*
X165100000Y-88900000D02*
X165100000Y-89916000D01*
X134620000Y-99060000D02*
X134620000Y-98044000D01*
X134620000Y-98044000D02*
X133604000Y-98044000D01*
X133604000Y-98044000D02*
X133604000Y-89916000D01*
X133604000Y-89916000D02*
X135636000Y-89916000D01*
X135636000Y-89916000D02*
X135636000Y-98044000D01*
X135636000Y-98044000D02*
X134620000Y-98044000D01*
X134112000Y-98044000D02*
X133604000Y-97536000D01*
X134620000Y-88900000D02*
X134620000Y-89916000D01*
X134620000Y-85370000D02*
X133070000Y-85370000D01*
X133070000Y-83820000D02*
X133070000Y-85370000D01*
X135890000Y-85090000D02*
X135890000Y-82550000D01*
X133350000Y-80010000D02*
X133350000Y-82550000D01*
X133350000Y-82550000D02*
X135890000Y-82550000D01*
X135890000Y-82550000D02*
X135890000Y-80010000D01*
X135890000Y-80010000D02*
X133350000Y-80010000D01*
X138430000Y-85370000D02*
X136880000Y-85370000D01*
X136880000Y-83820000D02*
X136880000Y-85370000D01*
X139700000Y-85090000D02*
X139700000Y-82550000D01*
X137160000Y-80010000D02*
X137160000Y-82550000D01*
X137160000Y-82550000D02*
X139700000Y-82550000D01*
X139700000Y-82550000D02*
X139700000Y-80010000D01*
X139700000Y-80010000D02*
X137160000Y-80010000D01*
X138430000Y-99060000D02*
X138430000Y-98044000D01*
X138430000Y-98044000D02*
X137414000Y-98044000D01*
X137414000Y-98044000D02*
X137414000Y-89916000D01*
X137414000Y-89916000D02*
X139446000Y-89916000D01*
X139446000Y-89916000D02*
X139446000Y-98044000D01*
X139446000Y-98044000D02*
X138430000Y-98044000D01*
X137922000Y-98044000D02*
X137414000Y-97536000D01*
X138430000Y-88900000D02*
X138430000Y-89916000D01*
X146050000Y-99060000D02*
X146050000Y-98044000D01*
X146050000Y-98044000D02*
X145034000Y-98044000D01*
X145034000Y-98044000D02*
X145034000Y-89916000D01*
X145034000Y-89916000D02*
X147066000Y-89916000D01*
X147066000Y-89916000D02*
X147066000Y-98044000D01*
X147066000Y-98044000D02*
X146050000Y-98044000D01*
X145542000Y-98044000D02*
X145034000Y-97536000D01*
X146050000Y-88900000D02*
X146050000Y-89916000D01*
X146050000Y-85370000D02*
X144500000Y-85370000D01*
X144500000Y-83820000D02*
X144500000Y-85370000D01*
X147320000Y-85090000D02*
X147320000Y-82550000D01*
X144780000Y-80010000D02*
X144780000Y-82550000D01*
X144780000Y-82550000D02*
X147320000Y-82550000D01*
X147320000Y-82550000D02*
X147320000Y-80010000D01*
X147320000Y-80010000D02*
X144780000Y-80010000D01*
X142240000Y-85370000D02*
X140690000Y-85370000D01*
X140690000Y-83820000D02*
X140690000Y-85370000D01*
X143510000Y-85090000D02*
X143510000Y-82550000D01*
X140970000Y-80010000D02*
X140970000Y-82550000D01*
X140970000Y-82550000D02*
X143510000Y-82550000D01*
X143510000Y-82550000D02*
X143510000Y-80010000D01*
X143510000Y-80010000D02*
X140970000Y-80010000D01*
X142240000Y-99060000D02*
X142240000Y-98044000D01*
X142240000Y-98044000D02*
X141224000Y-98044000D01*
X141224000Y-98044000D02*
X141224000Y-89916000D01*
X141224000Y-89916000D02*
X143256000Y-89916000D01*
X143256000Y-89916000D02*
X143256000Y-98044000D01*
X143256000Y-98044000D02*
X142240000Y-98044000D01*
X141732000Y-98044000D02*
X141224000Y-97536000D01*
X142240000Y-88900000D02*
X142240000Y-89916000D01*
X127000000Y-99060000D02*
X127000000Y-98044000D01*
X127000000Y-98044000D02*
X125984000Y-98044000D01*
X125984000Y-98044000D02*
X125984000Y-89916000D01*
X125984000Y-89916000D02*
X128016000Y-89916000D01*
X128016000Y-89916000D02*
X128016000Y-98044000D01*
X128016000Y-98044000D02*
X127000000Y-98044000D01*
X126492000Y-98044000D02*
X125984000Y-97536000D01*
X127000000Y-88900000D02*
X127000000Y-89916000D01*
X127000000Y-85370000D02*
X125450000Y-85370000D01*
X125450000Y-83820000D02*
X125450000Y-85370000D01*
X128270000Y-85090000D02*
X128270000Y-82550000D01*
X125730000Y-80010000D02*
X125730000Y-82550000D01*
X125730000Y-82550000D02*
X128270000Y-82550000D01*
X128270000Y-82550000D02*
X128270000Y-80010000D01*
X128270000Y-80010000D02*
X125730000Y-80010000D01*
X130810000Y-85370000D02*
X129260000Y-85370000D01*
X129260000Y-83820000D02*
X129260000Y-85370000D01*
X132080000Y-85090000D02*
X132080000Y-82550000D01*
X129540000Y-80010000D02*
X129540000Y-82550000D01*
X129540000Y-82550000D02*
X132080000Y-82550000D01*
X132080000Y-82550000D02*
X132080000Y-80010000D01*
X132080000Y-80010000D02*
X129540000Y-80010000D01*
X130810000Y-99060000D02*
X130810000Y-98044000D01*
X130810000Y-98044000D02*
X129794000Y-98044000D01*
X129794000Y-98044000D02*
X129794000Y-89916000D01*
X129794000Y-89916000D02*
X131826000Y-89916000D01*
X131826000Y-89916000D02*
X131826000Y-98044000D01*
X131826000Y-98044000D02*
X130810000Y-98044000D01*
X130302000Y-98044000D02*
X129794000Y-97536000D01*
X130810000Y-88900000D02*
X130810000Y-89916000D01*
X123190000Y-99060000D02*
X123190000Y-98044000D01*
X123190000Y-98044000D02*
X122174000Y-98044000D01*
X122174000Y-98044000D02*
X122174000Y-89916000D01*
X122174000Y-89916000D02*
X124206000Y-89916000D01*
X124206000Y-89916000D02*
X124206000Y-98044000D01*
X124206000Y-98044000D02*
X123190000Y-98044000D01*
X122682000Y-98044000D02*
X122174000Y-97536000D01*
X123190000Y-88900000D02*
X123190000Y-89916000D01*
X123190000Y-85370000D02*
X121640000Y-85370000D01*
X121640000Y-83820000D02*
X121640000Y-85370000D01*
X124460000Y-85090000D02*
X124460000Y-82550000D01*
X121920000Y-80010000D02*
X121920000Y-82550000D01*
X121920000Y-82550000D02*
X124460000Y-82550000D01*
X124460000Y-82550000D02*
X124460000Y-80010000D01*
X124460000Y-80010000D02*
X121920000Y-80010000D01*
X119380000Y-85370000D02*
X117830000Y-85370000D01*
X117830000Y-83820000D02*
X117830000Y-85370000D01*
X120650000Y-85090000D02*
X120650000Y-82550000D01*
X118110000Y-80010000D02*
X118110000Y-82550000D01*
X118110000Y-82550000D02*
X120650000Y-82550000D01*
X120650000Y-82550000D02*
X120650000Y-80010000D01*
X120650000Y-80010000D02*
X118110000Y-80010000D01*
X119380000Y-99060000D02*
X119380000Y-98044000D01*
X119380000Y-98044000D02*
X118364000Y-98044000D01*
X118364000Y-98044000D02*
X118364000Y-89916000D01*
X118364000Y-89916000D02*
X120396000Y-89916000D01*
X120396000Y-89916000D02*
X120396000Y-98044000D01*
X120396000Y-98044000D02*
X119380000Y-98044000D01*
X118872000Y-98044000D02*
X118364000Y-97536000D01*
X119380000Y-88900000D02*
X119380000Y-89916000D01*
X130810000Y-109220000D02*
X168910000Y-109220000D01*
X168910000Y-109220000D02*
X168910000Y-106680000D01*
X168910000Y-106680000D02*
X130810000Y-106680000D01*
X127990000Y-106400000D02*
X129540000Y-106400000D01*
X130810000Y-106680000D02*
X130810000Y-109220000D01*
X129540000Y-109500000D02*
X127990000Y-109500000D01*
X127990000Y-109500000D02*
X127990000Y-106400000D01*
X150312381Y-95099047D02*
X149836190Y-95432381D01*
X150312381Y-95670476D02*
X149312381Y-95670476D01*
X149312381Y-95289523D01*
X149360000Y-95194285D01*
X149407619Y-95146666D01*
X149502857Y-95099047D01*
X149645714Y-95099047D01*
X149740952Y-95146666D01*
X149788571Y-95194285D01*
X149836190Y-95289523D01*
X149836190Y-95670476D01*
X149645714Y-94241904D02*
X150312381Y-94241904D01*
X149264762Y-94480000D02*
X149979048Y-94718095D01*
X149979048Y-94099047D01*
X149312381Y-93527619D02*
X149312381Y-93432380D01*
X149360000Y-93337142D01*
X149407619Y-93289523D01*
X149502857Y-93241904D01*
X149693333Y-93194285D01*
X149931429Y-93194285D01*
X150121905Y-93241904D01*
X150217143Y-93289523D01*
X150264762Y-93337142D01*
X150312381Y-93432380D01*
X150312381Y-93527619D01*
X150264762Y-93622857D01*
X150217143Y-93670476D01*
X150121905Y-93718095D01*
X149931429Y-93765714D01*
X149693333Y-93765714D01*
X149502857Y-93718095D01*
X149407619Y-93670476D01*
X149360000Y-93622857D01*
X149312381Y-93527619D01*
X150312381Y-92718095D02*
X150312381Y-92527619D01*
X150264762Y-92432380D01*
X150217143Y-92384761D01*
X150074286Y-92289523D01*
X149883810Y-92241904D01*
X149502857Y-92241904D01*
X149407619Y-92289523D01*
X149360000Y-92337142D01*
X149312381Y-92432380D01*
X149312381Y-92622857D01*
X149360000Y-92718095D01*
X149407619Y-92765714D01*
X149502857Y-92813333D01*
X149740952Y-92813333D01*
X149836190Y-92765714D01*
X149883810Y-92718095D01*
X149931429Y-92622857D01*
X149931429Y-92432380D01*
X149883810Y-92337142D01*
X149836190Y-92289523D01*
X149740952Y-92241904D01*
X150312381Y-79160476D02*
X149312381Y-79160476D01*
X149312381Y-78922381D01*
X149360000Y-78779523D01*
X149455238Y-78684285D01*
X149550476Y-78636666D01*
X149740952Y-78589047D01*
X149883810Y-78589047D01*
X150074286Y-78636666D01*
X150169524Y-78684285D01*
X150264762Y-78779523D01*
X150312381Y-78922381D01*
X150312381Y-79160476D01*
X149645714Y-77731904D02*
X150312381Y-77731904D01*
X149264762Y-77970000D02*
X149979048Y-78208095D01*
X149979048Y-77589047D01*
X149312381Y-77017619D02*
X149312381Y-76922380D01*
X149360000Y-76827142D01*
X149407619Y-76779523D01*
X149502857Y-76731904D01*
X149693333Y-76684285D01*
X149931429Y-76684285D01*
X150121905Y-76731904D01*
X150217143Y-76779523D01*
X150264762Y-76827142D01*
X150312381Y-76922380D01*
X150312381Y-77017619D01*
X150264762Y-77112857D01*
X150217143Y-77160476D01*
X150121905Y-77208095D01*
X149931429Y-77255714D01*
X149693333Y-77255714D01*
X149502857Y-77208095D01*
X149407619Y-77160476D01*
X149360000Y-77112857D01*
X149312381Y-77017619D01*
X150312381Y-76208095D02*
X150312381Y-76017619D01*
X150264762Y-75922380D01*
X150217143Y-75874761D01*
X150074286Y-75779523D01*
X149883810Y-75731904D01*
X149502857Y-75731904D01*
X149407619Y-75779523D01*
X149360000Y-75827142D01*
X149312381Y-75922380D01*
X149312381Y-76112857D01*
X149360000Y-76208095D01*
X149407619Y-76255714D01*
X149502857Y-76303333D01*
X149740952Y-76303333D01*
X149836190Y-76255714D01*
X149883810Y-76208095D01*
X149931429Y-76112857D01*
X149931429Y-75922380D01*
X149883810Y-75827142D01*
X149836190Y-75779523D01*
X149740952Y-75731904D01*
X154122381Y-79160476D02*
X153122381Y-79160476D01*
X153122381Y-78922381D01*
X153170000Y-78779523D01*
X153265238Y-78684285D01*
X153360476Y-78636666D01*
X153550952Y-78589047D01*
X153693810Y-78589047D01*
X153884286Y-78636666D01*
X153979524Y-78684285D01*
X154074762Y-78779523D01*
X154122381Y-78922381D01*
X154122381Y-79160476D01*
X153455714Y-77731904D02*
X154122381Y-77731904D01*
X153074762Y-77970000D02*
X153789048Y-78208095D01*
X153789048Y-77589047D01*
X154122381Y-76684285D02*
X154122381Y-77255714D01*
X154122381Y-76970000D02*
X153122381Y-76970000D01*
X153265238Y-77065238D01*
X153360476Y-77160476D01*
X153408095Y-77255714D01*
X153122381Y-76065238D02*
X153122381Y-75969999D01*
X153170000Y-75874761D01*
X153217619Y-75827142D01*
X153312857Y-75779523D01*
X153503333Y-75731904D01*
X153741429Y-75731904D01*
X153931905Y-75779523D01*
X154027143Y-75827142D01*
X154074762Y-75874761D01*
X154122381Y-75969999D01*
X154122381Y-76065238D01*
X154074762Y-76160476D01*
X154027143Y-76208095D01*
X153931905Y-76255714D01*
X153741429Y-76303333D01*
X153503333Y-76303333D01*
X153312857Y-76255714D01*
X153217619Y-76208095D01*
X153170000Y-76160476D01*
X153122381Y-76065238D01*
X154122381Y-95099047D02*
X153646190Y-95432381D01*
X154122381Y-95670476D02*
X153122381Y-95670476D01*
X153122381Y-95289523D01*
X153170000Y-95194285D01*
X153217619Y-95146666D01*
X153312857Y-95099047D01*
X153455714Y-95099047D01*
X153550952Y-95146666D01*
X153598571Y-95194285D01*
X153646190Y-95289523D01*
X153646190Y-95670476D01*
X153455714Y-94241904D02*
X154122381Y-94241904D01*
X153074762Y-94480000D02*
X153789048Y-94718095D01*
X153789048Y-94099047D01*
X154122381Y-93194285D02*
X154122381Y-93765714D01*
X154122381Y-93480000D02*
X153122381Y-93480000D01*
X153265238Y-93575238D01*
X153360476Y-93670476D01*
X153408095Y-93765714D01*
X153122381Y-92575238D02*
X153122381Y-92479999D01*
X153170000Y-92384761D01*
X153217619Y-92337142D01*
X153312857Y-92289523D01*
X153503333Y-92241904D01*
X153741429Y-92241904D01*
X153931905Y-92289523D01*
X154027143Y-92337142D01*
X154074762Y-92384761D01*
X154122381Y-92479999D01*
X154122381Y-92575238D01*
X154074762Y-92670476D01*
X154027143Y-92718095D01*
X153931905Y-92765714D01*
X153741429Y-92813333D01*
X153503333Y-92813333D01*
X153312857Y-92765714D01*
X153217619Y-92718095D01*
X153170000Y-92670476D01*
X153122381Y-92575238D01*
X161742381Y-95099047D02*
X161266190Y-95432381D01*
X161742381Y-95670476D02*
X160742381Y-95670476D01*
X160742381Y-95289523D01*
X160790000Y-95194285D01*
X160837619Y-95146666D01*
X160932857Y-95099047D01*
X161075714Y-95099047D01*
X161170952Y-95146666D01*
X161218571Y-95194285D01*
X161266190Y-95289523D01*
X161266190Y-95670476D01*
X161075714Y-94241904D02*
X161742381Y-94241904D01*
X160694762Y-94480000D02*
X161409048Y-94718095D01*
X161409048Y-94099047D01*
X161742381Y-93194285D02*
X161742381Y-93765714D01*
X161742381Y-93480000D02*
X160742381Y-93480000D01*
X160885238Y-93575238D01*
X160980476Y-93670476D01*
X161028095Y-93765714D01*
X160837619Y-92813333D02*
X160790000Y-92765714D01*
X160742381Y-92670476D01*
X160742381Y-92432380D01*
X160790000Y-92337142D01*
X160837619Y-92289523D01*
X160932857Y-92241904D01*
X161028095Y-92241904D01*
X161170952Y-92289523D01*
X161742381Y-92860952D01*
X161742381Y-92241904D01*
X161742381Y-79160476D02*
X160742381Y-79160476D01*
X160742381Y-78922381D01*
X160790000Y-78779523D01*
X160885238Y-78684285D01*
X160980476Y-78636666D01*
X161170952Y-78589047D01*
X161313810Y-78589047D01*
X161504286Y-78636666D01*
X161599524Y-78684285D01*
X161694762Y-78779523D01*
X161742381Y-78922381D01*
X161742381Y-79160476D01*
X161075714Y-77731904D02*
X161742381Y-77731904D01*
X160694762Y-77970000D02*
X161409048Y-78208095D01*
X161409048Y-77589047D01*
X161742381Y-76684285D02*
X161742381Y-77255714D01*
X161742381Y-76970000D02*
X160742381Y-76970000D01*
X160885238Y-77065238D01*
X160980476Y-77160476D01*
X161028095Y-77255714D01*
X160837619Y-76303333D02*
X160790000Y-76255714D01*
X160742381Y-76160476D01*
X160742381Y-75922380D01*
X160790000Y-75827142D01*
X160837619Y-75779523D01*
X160932857Y-75731904D01*
X161028095Y-75731904D01*
X161170952Y-75779523D01*
X161742381Y-76350952D01*
X161742381Y-75731904D01*
X157932381Y-79160476D02*
X156932381Y-79160476D01*
X156932381Y-78922381D01*
X156980000Y-78779523D01*
X157075238Y-78684285D01*
X157170476Y-78636666D01*
X157360952Y-78589047D01*
X157503810Y-78589047D01*
X157694286Y-78636666D01*
X157789524Y-78684285D01*
X157884762Y-78779523D01*
X157932381Y-78922381D01*
X157932381Y-79160476D01*
X157265714Y-77731904D02*
X157932381Y-77731904D01*
X156884762Y-77970000D02*
X157599048Y-78208095D01*
X157599048Y-77589047D01*
X157932381Y-76684285D02*
X157932381Y-77255714D01*
X157932381Y-76970000D02*
X156932381Y-76970000D01*
X157075238Y-77065238D01*
X157170476Y-77160476D01*
X157218095Y-77255714D01*
X157932381Y-75731904D02*
X157932381Y-76303333D01*
X157932381Y-76017619D02*
X156932381Y-76017619D01*
X157075238Y-76112857D01*
X157170476Y-76208095D01*
X157218095Y-76303333D01*
X157932381Y-95099047D02*
X157456190Y-95432381D01*
X157932381Y-95670476D02*
X156932381Y-95670476D01*
X156932381Y-95289523D01*
X156980000Y-95194285D01*
X157027619Y-95146666D01*
X157122857Y-95099047D01*
X157265714Y-95099047D01*
X157360952Y-95146666D01*
X157408571Y-95194285D01*
X157456190Y-95289523D01*
X157456190Y-95670476D01*
X157265714Y-94241904D02*
X157932381Y-94241904D01*
X156884762Y-94480000D02*
X157599048Y-94718095D01*
X157599048Y-94099047D01*
X157932381Y-93194285D02*
X157932381Y-93765714D01*
X157932381Y-93480000D02*
X156932381Y-93480000D01*
X157075238Y-93575238D01*
X157170476Y-93670476D01*
X157218095Y-93765714D01*
X157932381Y-92241904D02*
X157932381Y-92813333D01*
X157932381Y-92527619D02*
X156932381Y-92527619D01*
X157075238Y-92622857D01*
X157170476Y-92718095D01*
X157218095Y-92813333D01*
X173172381Y-95099047D02*
X172696190Y-95432381D01*
X173172381Y-95670476D02*
X172172381Y-95670476D01*
X172172381Y-95289523D01*
X172220000Y-95194285D01*
X172267619Y-95146666D01*
X172362857Y-95099047D01*
X172505714Y-95099047D01*
X172600952Y-95146666D01*
X172648571Y-95194285D01*
X172696190Y-95289523D01*
X172696190Y-95670476D01*
X172505714Y-94241904D02*
X173172381Y-94241904D01*
X172124762Y-94480000D02*
X172839048Y-94718095D01*
X172839048Y-94099047D01*
X173172381Y-93194285D02*
X173172381Y-93765714D01*
X173172381Y-93480000D02*
X172172381Y-93480000D01*
X172315238Y-93575238D01*
X172410476Y-93670476D01*
X172458095Y-93765714D01*
X172172381Y-92289523D02*
X172172381Y-92765714D01*
X172648571Y-92813333D01*
X172600952Y-92765714D01*
X172553333Y-92670476D01*
X172553333Y-92432380D01*
X172600952Y-92337142D01*
X172648571Y-92289523D01*
X172743810Y-92241904D01*
X172981905Y-92241904D01*
X173077143Y-92289523D01*
X173124762Y-92337142D01*
X173172381Y-92432380D01*
X173172381Y-92670476D01*
X173124762Y-92765714D01*
X173077143Y-92813333D01*
X173043810Y-79298572D02*
X173081905Y-79184286D01*
X173081905Y-78993810D01*
X173043810Y-78917620D01*
X173005714Y-78879524D01*
X172929524Y-78841429D01*
X172853333Y-78841429D01*
X172777143Y-78879524D01*
X172739048Y-78917620D01*
X172700952Y-78993810D01*
X172662857Y-79146191D01*
X172624762Y-79222382D01*
X172586667Y-79260477D01*
X172510476Y-79298572D01*
X172434286Y-79298572D01*
X172358095Y-79260477D01*
X172320000Y-79222382D01*
X172281905Y-79146191D01*
X172281905Y-78955715D01*
X172320000Y-78841429D01*
X172281905Y-78574762D02*
X173081905Y-78384286D01*
X172510476Y-78231905D01*
X173081905Y-78079524D01*
X172281905Y-77889048D01*
X172548571Y-77241429D02*
X173081905Y-77241429D01*
X172243810Y-77431905D02*
X172815238Y-77622381D01*
X172815238Y-77127143D01*
X172281905Y-76670000D02*
X172281905Y-76593809D01*
X172320000Y-76517619D01*
X172358095Y-76479524D01*
X172434286Y-76441428D01*
X172586667Y-76403333D01*
X172777143Y-76403333D01*
X172929524Y-76441428D01*
X173005714Y-76479524D01*
X173043810Y-76517619D01*
X173081905Y-76593809D01*
X173081905Y-76670000D01*
X173043810Y-76746190D01*
X173005714Y-76784286D01*
X172929524Y-76822381D01*
X172777143Y-76860476D01*
X172586667Y-76860476D01*
X172434286Y-76822381D01*
X172358095Y-76784286D01*
X172320000Y-76746190D01*
X172281905Y-76670000D01*
X173081905Y-75641428D02*
X173081905Y-76098571D01*
X173081905Y-75870000D02*
X172281905Y-75870000D01*
X172396190Y-75946190D01*
X172472381Y-76022381D01*
X172510476Y-76098571D01*
X169362381Y-95099047D02*
X168886190Y-95432381D01*
X169362381Y-95670476D02*
X168362381Y-95670476D01*
X168362381Y-95289523D01*
X168410000Y-95194285D01*
X168457619Y-95146666D01*
X168552857Y-95099047D01*
X168695714Y-95099047D01*
X168790952Y-95146666D01*
X168838571Y-95194285D01*
X168886190Y-95289523D01*
X168886190Y-95670476D01*
X168695714Y-94241904D02*
X169362381Y-94241904D01*
X168314762Y-94480000D02*
X169029048Y-94718095D01*
X169029048Y-94099047D01*
X169362381Y-93194285D02*
X169362381Y-93765714D01*
X169362381Y-93480000D02*
X168362381Y-93480000D01*
X168505238Y-93575238D01*
X168600476Y-93670476D01*
X168648095Y-93765714D01*
X168695714Y-92337142D02*
X169362381Y-92337142D01*
X168314762Y-92575238D02*
X169029048Y-92813333D01*
X169029048Y-92194285D01*
X169362381Y-79160476D02*
X168362381Y-79160476D01*
X168362381Y-78922381D01*
X168410000Y-78779523D01*
X168505238Y-78684285D01*
X168600476Y-78636666D01*
X168790952Y-78589047D01*
X168933810Y-78589047D01*
X169124286Y-78636666D01*
X169219524Y-78684285D01*
X169314762Y-78779523D01*
X169362381Y-78922381D01*
X169362381Y-79160476D01*
X168695714Y-77731904D02*
X169362381Y-77731904D01*
X168314762Y-77970000D02*
X169029048Y-78208095D01*
X169029048Y-77589047D01*
X169362381Y-76684285D02*
X169362381Y-77255714D01*
X169362381Y-76970000D02*
X168362381Y-76970000D01*
X168505238Y-77065238D01*
X168600476Y-77160476D01*
X168648095Y-77255714D01*
X168695714Y-75827142D02*
X169362381Y-75827142D01*
X168314762Y-76065238D02*
X169029048Y-76303333D01*
X169029048Y-75684285D01*
X165552381Y-79160476D02*
X164552381Y-79160476D01*
X164552381Y-78922381D01*
X164600000Y-78779523D01*
X164695238Y-78684285D01*
X164790476Y-78636666D01*
X164980952Y-78589047D01*
X165123810Y-78589047D01*
X165314286Y-78636666D01*
X165409524Y-78684285D01*
X165504762Y-78779523D01*
X165552381Y-78922381D01*
X165552381Y-79160476D01*
X164885714Y-77731904D02*
X165552381Y-77731904D01*
X164504762Y-77970000D02*
X165219048Y-78208095D01*
X165219048Y-77589047D01*
X165552381Y-76684285D02*
X165552381Y-77255714D01*
X165552381Y-76970000D02*
X164552381Y-76970000D01*
X164695238Y-77065238D01*
X164790476Y-77160476D01*
X164838095Y-77255714D01*
X164552381Y-76350952D02*
X164552381Y-75731904D01*
X164933333Y-76065238D01*
X164933333Y-75922380D01*
X164980952Y-75827142D01*
X165028571Y-75779523D01*
X165123810Y-75731904D01*
X165361905Y-75731904D01*
X165457143Y-75779523D01*
X165504762Y-75827142D01*
X165552381Y-75922380D01*
X165552381Y-76208095D01*
X165504762Y-76303333D01*
X165457143Y-76350952D01*
X165552381Y-95099047D02*
X165076190Y-95432381D01*
X165552381Y-95670476D02*
X164552381Y-95670476D01*
X164552381Y-95289523D01*
X164600000Y-95194285D01*
X164647619Y-95146666D01*
X164742857Y-95099047D01*
X164885714Y-95099047D01*
X164980952Y-95146666D01*
X165028571Y-95194285D01*
X165076190Y-95289523D01*
X165076190Y-95670476D01*
X164885714Y-94241904D02*
X165552381Y-94241904D01*
X164504762Y-94480000D02*
X165219048Y-94718095D01*
X165219048Y-94099047D01*
X165552381Y-93194285D02*
X165552381Y-93765714D01*
X165552381Y-93480000D02*
X164552381Y-93480000D01*
X164695238Y-93575238D01*
X164790476Y-93670476D01*
X164838095Y-93765714D01*
X164552381Y-92860952D02*
X164552381Y-92241904D01*
X164933333Y-92575238D01*
X164933333Y-92432380D01*
X164980952Y-92337142D01*
X165028571Y-92289523D01*
X165123810Y-92241904D01*
X165361905Y-92241904D01*
X165457143Y-92289523D01*
X165504762Y-92337142D01*
X165552381Y-92432380D01*
X165552381Y-92718095D01*
X165504762Y-92813333D01*
X165457143Y-92860952D01*
X135072381Y-95099047D02*
X134596190Y-95432381D01*
X135072381Y-95670476D02*
X134072381Y-95670476D01*
X134072381Y-95289523D01*
X134120000Y-95194285D01*
X134167619Y-95146666D01*
X134262857Y-95099047D01*
X134405714Y-95099047D01*
X134500952Y-95146666D01*
X134548571Y-95194285D01*
X134596190Y-95289523D01*
X134596190Y-95670476D01*
X134405714Y-94241904D02*
X135072381Y-94241904D01*
X134024762Y-94480000D02*
X134739048Y-94718095D01*
X134739048Y-94099047D01*
X134072381Y-93527619D02*
X134072381Y-93432380D01*
X134120000Y-93337142D01*
X134167619Y-93289523D01*
X134262857Y-93241904D01*
X134453333Y-93194285D01*
X134691429Y-93194285D01*
X134881905Y-93241904D01*
X134977143Y-93289523D01*
X135024762Y-93337142D01*
X135072381Y-93432380D01*
X135072381Y-93527619D01*
X135024762Y-93622857D01*
X134977143Y-93670476D01*
X134881905Y-93718095D01*
X134691429Y-93765714D01*
X134453333Y-93765714D01*
X134262857Y-93718095D01*
X134167619Y-93670476D01*
X134120000Y-93622857D01*
X134072381Y-93527619D01*
X134072381Y-92289523D02*
X134072381Y-92765714D01*
X134548571Y-92813333D01*
X134500952Y-92765714D01*
X134453333Y-92670476D01*
X134453333Y-92432380D01*
X134500952Y-92337142D01*
X134548571Y-92289523D01*
X134643810Y-92241904D01*
X134881905Y-92241904D01*
X134977143Y-92289523D01*
X135024762Y-92337142D01*
X135072381Y-92432380D01*
X135072381Y-92670476D01*
X135024762Y-92765714D01*
X134977143Y-92813333D01*
X135072381Y-79160476D02*
X134072381Y-79160476D01*
X134072381Y-78922381D01*
X134120000Y-78779523D01*
X134215238Y-78684285D01*
X134310476Y-78636666D01*
X134500952Y-78589047D01*
X134643810Y-78589047D01*
X134834286Y-78636666D01*
X134929524Y-78684285D01*
X135024762Y-78779523D01*
X135072381Y-78922381D01*
X135072381Y-79160476D01*
X134405714Y-77731904D02*
X135072381Y-77731904D01*
X134024762Y-77970000D02*
X134739048Y-78208095D01*
X134739048Y-77589047D01*
X134072381Y-77017619D02*
X134072381Y-76922380D01*
X134120000Y-76827142D01*
X134167619Y-76779523D01*
X134262857Y-76731904D01*
X134453333Y-76684285D01*
X134691429Y-76684285D01*
X134881905Y-76731904D01*
X134977143Y-76779523D01*
X135024762Y-76827142D01*
X135072381Y-76922380D01*
X135072381Y-77017619D01*
X135024762Y-77112857D01*
X134977143Y-77160476D01*
X134881905Y-77208095D01*
X134691429Y-77255714D01*
X134453333Y-77255714D01*
X134262857Y-77208095D01*
X134167619Y-77160476D01*
X134120000Y-77112857D01*
X134072381Y-77017619D01*
X134072381Y-75779523D02*
X134072381Y-76255714D01*
X134548571Y-76303333D01*
X134500952Y-76255714D01*
X134453333Y-76160476D01*
X134453333Y-75922380D01*
X134500952Y-75827142D01*
X134548571Y-75779523D01*
X134643810Y-75731904D01*
X134881905Y-75731904D01*
X134977143Y-75779523D01*
X135024762Y-75827142D01*
X135072381Y-75922380D01*
X135072381Y-76160476D01*
X135024762Y-76255714D01*
X134977143Y-76303333D01*
X138882381Y-79160476D02*
X137882381Y-79160476D01*
X137882381Y-78922381D01*
X137930000Y-78779523D01*
X138025238Y-78684285D01*
X138120476Y-78636666D01*
X138310952Y-78589047D01*
X138453810Y-78589047D01*
X138644286Y-78636666D01*
X138739524Y-78684285D01*
X138834762Y-78779523D01*
X138882381Y-78922381D01*
X138882381Y-79160476D01*
X138215714Y-77731904D02*
X138882381Y-77731904D01*
X137834762Y-77970000D02*
X138549048Y-78208095D01*
X138549048Y-77589047D01*
X137882381Y-77017619D02*
X137882381Y-76922380D01*
X137930000Y-76827142D01*
X137977619Y-76779523D01*
X138072857Y-76731904D01*
X138263333Y-76684285D01*
X138501429Y-76684285D01*
X138691905Y-76731904D01*
X138787143Y-76779523D01*
X138834762Y-76827142D01*
X138882381Y-76922380D01*
X138882381Y-77017619D01*
X138834762Y-77112857D01*
X138787143Y-77160476D01*
X138691905Y-77208095D01*
X138501429Y-77255714D01*
X138263333Y-77255714D01*
X138072857Y-77208095D01*
X137977619Y-77160476D01*
X137930000Y-77112857D01*
X137882381Y-77017619D01*
X137882381Y-75827142D02*
X137882381Y-76017619D01*
X137930000Y-76112857D01*
X137977619Y-76160476D01*
X138120476Y-76255714D01*
X138310952Y-76303333D01*
X138691905Y-76303333D01*
X138787143Y-76255714D01*
X138834762Y-76208095D01*
X138882381Y-76112857D01*
X138882381Y-75922380D01*
X138834762Y-75827142D01*
X138787143Y-75779523D01*
X138691905Y-75731904D01*
X138453810Y-75731904D01*
X138358571Y-75779523D01*
X138310952Y-75827142D01*
X138263333Y-75922380D01*
X138263333Y-76112857D01*
X138310952Y-76208095D01*
X138358571Y-76255714D01*
X138453810Y-76303333D01*
X138882381Y-95099047D02*
X138406190Y-95432381D01*
X138882381Y-95670476D02*
X137882381Y-95670476D01*
X137882381Y-95289523D01*
X137930000Y-95194285D01*
X137977619Y-95146666D01*
X138072857Y-95099047D01*
X138215714Y-95099047D01*
X138310952Y-95146666D01*
X138358571Y-95194285D01*
X138406190Y-95289523D01*
X138406190Y-95670476D01*
X138215714Y-94241904D02*
X138882381Y-94241904D01*
X137834762Y-94480000D02*
X138549048Y-94718095D01*
X138549048Y-94099047D01*
X137882381Y-93527619D02*
X137882381Y-93432380D01*
X137930000Y-93337142D01*
X137977619Y-93289523D01*
X138072857Y-93241904D01*
X138263333Y-93194285D01*
X138501429Y-93194285D01*
X138691905Y-93241904D01*
X138787143Y-93289523D01*
X138834762Y-93337142D01*
X138882381Y-93432380D01*
X138882381Y-93527619D01*
X138834762Y-93622857D01*
X138787143Y-93670476D01*
X138691905Y-93718095D01*
X138501429Y-93765714D01*
X138263333Y-93765714D01*
X138072857Y-93718095D01*
X137977619Y-93670476D01*
X137930000Y-93622857D01*
X137882381Y-93527619D01*
X137882381Y-92337142D02*
X137882381Y-92527619D01*
X137930000Y-92622857D01*
X137977619Y-92670476D01*
X138120476Y-92765714D01*
X138310952Y-92813333D01*
X138691905Y-92813333D01*
X138787143Y-92765714D01*
X138834762Y-92718095D01*
X138882381Y-92622857D01*
X138882381Y-92432380D01*
X138834762Y-92337142D01*
X138787143Y-92289523D01*
X138691905Y-92241904D01*
X138453810Y-92241904D01*
X138358571Y-92289523D01*
X138310952Y-92337142D01*
X138263333Y-92432380D01*
X138263333Y-92622857D01*
X138310952Y-92718095D01*
X138358571Y-92765714D01*
X138453810Y-92813333D01*
X146502381Y-95099047D02*
X146026190Y-95432381D01*
X146502381Y-95670476D02*
X145502381Y-95670476D01*
X145502381Y-95289523D01*
X145550000Y-95194285D01*
X145597619Y-95146666D01*
X145692857Y-95099047D01*
X145835714Y-95099047D01*
X145930952Y-95146666D01*
X145978571Y-95194285D01*
X146026190Y-95289523D01*
X146026190Y-95670476D01*
X145835714Y-94241904D02*
X146502381Y-94241904D01*
X145454762Y-94480000D02*
X146169048Y-94718095D01*
X146169048Y-94099047D01*
X145502381Y-93527619D02*
X145502381Y-93432380D01*
X145550000Y-93337142D01*
X145597619Y-93289523D01*
X145692857Y-93241904D01*
X145883333Y-93194285D01*
X146121429Y-93194285D01*
X146311905Y-93241904D01*
X146407143Y-93289523D01*
X146454762Y-93337142D01*
X146502381Y-93432380D01*
X146502381Y-93527619D01*
X146454762Y-93622857D01*
X146407143Y-93670476D01*
X146311905Y-93718095D01*
X146121429Y-93765714D01*
X145883333Y-93765714D01*
X145692857Y-93718095D01*
X145597619Y-93670476D01*
X145550000Y-93622857D01*
X145502381Y-93527619D01*
X145930952Y-92622857D02*
X145883333Y-92718095D01*
X145835714Y-92765714D01*
X145740476Y-92813333D01*
X145692857Y-92813333D01*
X145597619Y-92765714D01*
X145550000Y-92718095D01*
X145502381Y-92622857D01*
X145502381Y-92432380D01*
X145550000Y-92337142D01*
X145597619Y-92289523D01*
X145692857Y-92241904D01*
X145740476Y-92241904D01*
X145835714Y-92289523D01*
X145883333Y-92337142D01*
X145930952Y-92432380D01*
X145930952Y-92622857D01*
X145978571Y-92718095D01*
X146026190Y-92765714D01*
X146121429Y-92813333D01*
X146311905Y-92813333D01*
X146407143Y-92765714D01*
X146454762Y-92718095D01*
X146502381Y-92622857D01*
X146502381Y-92432380D01*
X146454762Y-92337142D01*
X146407143Y-92289523D01*
X146311905Y-92241904D01*
X146121429Y-92241904D01*
X146026190Y-92289523D01*
X145978571Y-92337142D01*
X145930952Y-92432380D01*
X146502381Y-79160476D02*
X145502381Y-79160476D01*
X145502381Y-78922381D01*
X145550000Y-78779523D01*
X145645238Y-78684285D01*
X145740476Y-78636666D01*
X145930952Y-78589047D01*
X146073810Y-78589047D01*
X146264286Y-78636666D01*
X146359524Y-78684285D01*
X146454762Y-78779523D01*
X146502381Y-78922381D01*
X146502381Y-79160476D01*
X145835714Y-77731904D02*
X146502381Y-77731904D01*
X145454762Y-77970000D02*
X146169048Y-78208095D01*
X146169048Y-77589047D01*
X145502381Y-77017619D02*
X145502381Y-76922380D01*
X145550000Y-76827142D01*
X145597619Y-76779523D01*
X145692857Y-76731904D01*
X145883333Y-76684285D01*
X146121429Y-76684285D01*
X146311905Y-76731904D01*
X146407143Y-76779523D01*
X146454762Y-76827142D01*
X146502381Y-76922380D01*
X146502381Y-77017619D01*
X146454762Y-77112857D01*
X146407143Y-77160476D01*
X146311905Y-77208095D01*
X146121429Y-77255714D01*
X145883333Y-77255714D01*
X145692857Y-77208095D01*
X145597619Y-77160476D01*
X145550000Y-77112857D01*
X145502381Y-77017619D01*
X145930952Y-76112857D02*
X145883333Y-76208095D01*
X145835714Y-76255714D01*
X145740476Y-76303333D01*
X145692857Y-76303333D01*
X145597619Y-76255714D01*
X145550000Y-76208095D01*
X145502381Y-76112857D01*
X145502381Y-75922380D01*
X145550000Y-75827142D01*
X145597619Y-75779523D01*
X145692857Y-75731904D01*
X145740476Y-75731904D01*
X145835714Y-75779523D01*
X145883333Y-75827142D01*
X145930952Y-75922380D01*
X145930952Y-76112857D01*
X145978571Y-76208095D01*
X146026190Y-76255714D01*
X146121429Y-76303333D01*
X146311905Y-76303333D01*
X146407143Y-76255714D01*
X146454762Y-76208095D01*
X146502381Y-76112857D01*
X146502381Y-75922380D01*
X146454762Y-75827142D01*
X146407143Y-75779523D01*
X146311905Y-75731904D01*
X146121429Y-75731904D01*
X146026190Y-75779523D01*
X145978571Y-75827142D01*
X145930952Y-75922380D01*
X142692381Y-79160476D02*
X141692381Y-79160476D01*
X141692381Y-78922381D01*
X141740000Y-78779523D01*
X141835238Y-78684285D01*
X141930476Y-78636666D01*
X142120952Y-78589047D01*
X142263810Y-78589047D01*
X142454286Y-78636666D01*
X142549524Y-78684285D01*
X142644762Y-78779523D01*
X142692381Y-78922381D01*
X142692381Y-79160476D01*
X142025714Y-77731904D02*
X142692381Y-77731904D01*
X141644762Y-77970000D02*
X142359048Y-78208095D01*
X142359048Y-77589047D01*
X141692381Y-77017619D02*
X141692381Y-76922380D01*
X141740000Y-76827142D01*
X141787619Y-76779523D01*
X141882857Y-76731904D01*
X142073333Y-76684285D01*
X142311429Y-76684285D01*
X142501905Y-76731904D01*
X142597143Y-76779523D01*
X142644762Y-76827142D01*
X142692381Y-76922380D01*
X142692381Y-77017619D01*
X142644762Y-77112857D01*
X142597143Y-77160476D01*
X142501905Y-77208095D01*
X142311429Y-77255714D01*
X142073333Y-77255714D01*
X141882857Y-77208095D01*
X141787619Y-77160476D01*
X141740000Y-77112857D01*
X141692381Y-77017619D01*
X141692381Y-76350952D02*
X141692381Y-75684285D01*
X142692381Y-76112857D01*
X142692381Y-95099047D02*
X142216190Y-95432381D01*
X142692381Y-95670476D02*
X141692381Y-95670476D01*
X141692381Y-95289523D01*
X141740000Y-95194285D01*
X141787619Y-95146666D01*
X141882857Y-95099047D01*
X142025714Y-95099047D01*
X142120952Y-95146666D01*
X142168571Y-95194285D01*
X142216190Y-95289523D01*
X142216190Y-95670476D01*
X142025714Y-94241904D02*
X142692381Y-94241904D01*
X141644762Y-94480000D02*
X142359048Y-94718095D01*
X142359048Y-94099047D01*
X141692381Y-93527619D02*
X141692381Y-93432380D01*
X141740000Y-93337142D01*
X141787619Y-93289523D01*
X141882857Y-93241904D01*
X142073333Y-93194285D01*
X142311429Y-93194285D01*
X142501905Y-93241904D01*
X142597143Y-93289523D01*
X142644762Y-93337142D01*
X142692381Y-93432380D01*
X142692381Y-93527619D01*
X142644762Y-93622857D01*
X142597143Y-93670476D01*
X142501905Y-93718095D01*
X142311429Y-93765714D01*
X142073333Y-93765714D01*
X141882857Y-93718095D01*
X141787619Y-93670476D01*
X141740000Y-93622857D01*
X141692381Y-93527619D01*
X141692381Y-92860952D02*
X141692381Y-92194285D01*
X142692381Y-92622857D01*
X127452381Y-95099047D02*
X126976190Y-95432381D01*
X127452381Y-95670476D02*
X126452381Y-95670476D01*
X126452381Y-95289523D01*
X126500000Y-95194285D01*
X126547619Y-95146666D01*
X126642857Y-95099047D01*
X126785714Y-95099047D01*
X126880952Y-95146666D01*
X126928571Y-95194285D01*
X126976190Y-95289523D01*
X126976190Y-95670476D01*
X126785714Y-94241904D02*
X127452381Y-94241904D01*
X126404762Y-94480000D02*
X127119048Y-94718095D01*
X127119048Y-94099047D01*
X126452381Y-93527619D02*
X126452381Y-93432380D01*
X126500000Y-93337142D01*
X126547619Y-93289523D01*
X126642857Y-93241904D01*
X126833333Y-93194285D01*
X127071429Y-93194285D01*
X127261905Y-93241904D01*
X127357143Y-93289523D01*
X127404762Y-93337142D01*
X127452381Y-93432380D01*
X127452381Y-93527619D01*
X127404762Y-93622857D01*
X127357143Y-93670476D01*
X127261905Y-93718095D01*
X127071429Y-93765714D01*
X126833333Y-93765714D01*
X126642857Y-93718095D01*
X126547619Y-93670476D01*
X126500000Y-93622857D01*
X126452381Y-93527619D01*
X126452381Y-92860952D02*
X126452381Y-92241904D01*
X126833333Y-92575238D01*
X126833333Y-92432380D01*
X126880952Y-92337142D01*
X126928571Y-92289523D01*
X127023810Y-92241904D01*
X127261905Y-92241904D01*
X127357143Y-92289523D01*
X127404762Y-92337142D01*
X127452381Y-92432380D01*
X127452381Y-92718095D01*
X127404762Y-92813333D01*
X127357143Y-92860952D01*
X127452381Y-79160476D02*
X126452381Y-79160476D01*
X126452381Y-78922381D01*
X126500000Y-78779523D01*
X126595238Y-78684285D01*
X126690476Y-78636666D01*
X126880952Y-78589047D01*
X127023810Y-78589047D01*
X127214286Y-78636666D01*
X127309524Y-78684285D01*
X127404762Y-78779523D01*
X127452381Y-78922381D01*
X127452381Y-79160476D01*
X126785714Y-77731904D02*
X127452381Y-77731904D01*
X126404762Y-77970000D02*
X127119048Y-78208095D01*
X127119048Y-77589047D01*
X126452381Y-77017619D02*
X126452381Y-76922380D01*
X126500000Y-76827142D01*
X126547619Y-76779523D01*
X126642857Y-76731904D01*
X126833333Y-76684285D01*
X127071429Y-76684285D01*
X127261905Y-76731904D01*
X127357143Y-76779523D01*
X127404762Y-76827142D01*
X127452381Y-76922380D01*
X127452381Y-77017619D01*
X127404762Y-77112857D01*
X127357143Y-77160476D01*
X127261905Y-77208095D01*
X127071429Y-77255714D01*
X126833333Y-77255714D01*
X126642857Y-77208095D01*
X126547619Y-77160476D01*
X126500000Y-77112857D01*
X126452381Y-77017619D01*
X126452381Y-76350952D02*
X126452381Y-75731904D01*
X126833333Y-76065238D01*
X126833333Y-75922380D01*
X126880952Y-75827142D01*
X126928571Y-75779523D01*
X127023810Y-75731904D01*
X127261905Y-75731904D01*
X127357143Y-75779523D01*
X127404762Y-75827142D01*
X127452381Y-75922380D01*
X127452381Y-76208095D01*
X127404762Y-76303333D01*
X127357143Y-76350952D01*
X131262381Y-79160476D02*
X130262381Y-79160476D01*
X130262381Y-78922381D01*
X130310000Y-78779523D01*
X130405238Y-78684285D01*
X130500476Y-78636666D01*
X130690952Y-78589047D01*
X130833810Y-78589047D01*
X131024286Y-78636666D01*
X131119524Y-78684285D01*
X131214762Y-78779523D01*
X131262381Y-78922381D01*
X131262381Y-79160476D01*
X130595714Y-77731904D02*
X131262381Y-77731904D01*
X130214762Y-77970000D02*
X130929048Y-78208095D01*
X130929048Y-77589047D01*
X130262381Y-77017619D02*
X130262381Y-76922380D01*
X130310000Y-76827142D01*
X130357619Y-76779523D01*
X130452857Y-76731904D01*
X130643333Y-76684285D01*
X130881429Y-76684285D01*
X131071905Y-76731904D01*
X131167143Y-76779523D01*
X131214762Y-76827142D01*
X131262381Y-76922380D01*
X131262381Y-77017619D01*
X131214762Y-77112857D01*
X131167143Y-77160476D01*
X131071905Y-77208095D01*
X130881429Y-77255714D01*
X130643333Y-77255714D01*
X130452857Y-77208095D01*
X130357619Y-77160476D01*
X130310000Y-77112857D01*
X130262381Y-77017619D01*
X130595714Y-75827142D02*
X131262381Y-75827142D01*
X130214762Y-76065238D02*
X130929048Y-76303333D01*
X130929048Y-75684285D01*
X131262381Y-95099047D02*
X130786190Y-95432381D01*
X131262381Y-95670476D02*
X130262381Y-95670476D01*
X130262381Y-95289523D01*
X130310000Y-95194285D01*
X130357619Y-95146666D01*
X130452857Y-95099047D01*
X130595714Y-95099047D01*
X130690952Y-95146666D01*
X130738571Y-95194285D01*
X130786190Y-95289523D01*
X130786190Y-95670476D01*
X130595714Y-94241904D02*
X131262381Y-94241904D01*
X130214762Y-94480000D02*
X130929048Y-94718095D01*
X130929048Y-94099047D01*
X130262381Y-93527619D02*
X130262381Y-93432380D01*
X130310000Y-93337142D01*
X130357619Y-93289523D01*
X130452857Y-93241904D01*
X130643333Y-93194285D01*
X130881429Y-93194285D01*
X131071905Y-93241904D01*
X131167143Y-93289523D01*
X131214762Y-93337142D01*
X131262381Y-93432380D01*
X131262381Y-93527619D01*
X131214762Y-93622857D01*
X131167143Y-93670476D01*
X131071905Y-93718095D01*
X130881429Y-93765714D01*
X130643333Y-93765714D01*
X130452857Y-93718095D01*
X130357619Y-93670476D01*
X130310000Y-93622857D01*
X130262381Y-93527619D01*
X130595714Y-92337142D02*
X131262381Y-92337142D01*
X130214762Y-92575238D02*
X130929048Y-92813333D01*
X130929048Y-92194285D01*
X123642381Y-95099047D02*
X123166190Y-95432381D01*
X123642381Y-95670476D02*
X122642381Y-95670476D01*
X122642381Y-95289523D01*
X122690000Y-95194285D01*
X122737619Y-95146666D01*
X122832857Y-95099047D01*
X122975714Y-95099047D01*
X123070952Y-95146666D01*
X123118571Y-95194285D01*
X123166190Y-95289523D01*
X123166190Y-95670476D01*
X122975714Y-94241904D02*
X123642381Y-94241904D01*
X122594762Y-94480000D02*
X123309048Y-94718095D01*
X123309048Y-94099047D01*
X122642381Y-93527619D02*
X122642381Y-93432380D01*
X122690000Y-93337142D01*
X122737619Y-93289523D01*
X122832857Y-93241904D01*
X123023333Y-93194285D01*
X123261429Y-93194285D01*
X123451905Y-93241904D01*
X123547143Y-93289523D01*
X123594762Y-93337142D01*
X123642381Y-93432380D01*
X123642381Y-93527619D01*
X123594762Y-93622857D01*
X123547143Y-93670476D01*
X123451905Y-93718095D01*
X123261429Y-93765714D01*
X123023333Y-93765714D01*
X122832857Y-93718095D01*
X122737619Y-93670476D01*
X122690000Y-93622857D01*
X122642381Y-93527619D01*
X122737619Y-92813333D02*
X122690000Y-92765714D01*
X122642381Y-92670476D01*
X122642381Y-92432380D01*
X122690000Y-92337142D01*
X122737619Y-92289523D01*
X122832857Y-92241904D01*
X122928095Y-92241904D01*
X123070952Y-92289523D01*
X123642381Y-92860952D01*
X123642381Y-92241904D01*
X123642381Y-79160476D02*
X122642381Y-79160476D01*
X122642381Y-78922381D01*
X122690000Y-78779523D01*
X122785238Y-78684285D01*
X122880476Y-78636666D01*
X123070952Y-78589047D01*
X123213810Y-78589047D01*
X123404286Y-78636666D01*
X123499524Y-78684285D01*
X123594762Y-78779523D01*
X123642381Y-78922381D01*
X123642381Y-79160476D01*
X122975714Y-77731904D02*
X123642381Y-77731904D01*
X122594762Y-77970000D02*
X123309048Y-78208095D01*
X123309048Y-77589047D01*
X122642381Y-77017619D02*
X122642381Y-76922380D01*
X122690000Y-76827142D01*
X122737619Y-76779523D01*
X122832857Y-76731904D01*
X123023333Y-76684285D01*
X123261429Y-76684285D01*
X123451905Y-76731904D01*
X123547143Y-76779523D01*
X123594762Y-76827142D01*
X123642381Y-76922380D01*
X123642381Y-77017619D01*
X123594762Y-77112857D01*
X123547143Y-77160476D01*
X123451905Y-77208095D01*
X123261429Y-77255714D01*
X123023333Y-77255714D01*
X122832857Y-77208095D01*
X122737619Y-77160476D01*
X122690000Y-77112857D01*
X122642381Y-77017619D01*
X122737619Y-76303333D02*
X122690000Y-76255714D01*
X122642381Y-76160476D01*
X122642381Y-75922380D01*
X122690000Y-75827142D01*
X122737619Y-75779523D01*
X122832857Y-75731904D01*
X122928095Y-75731904D01*
X123070952Y-75779523D01*
X123642381Y-76350952D01*
X123642381Y-75731904D01*
X119832381Y-79160476D02*
X118832381Y-79160476D01*
X118832381Y-78922381D01*
X118880000Y-78779523D01*
X118975238Y-78684285D01*
X119070476Y-78636666D01*
X119260952Y-78589047D01*
X119403810Y-78589047D01*
X119594286Y-78636666D01*
X119689524Y-78684285D01*
X119784762Y-78779523D01*
X119832381Y-78922381D01*
X119832381Y-79160476D01*
X119165714Y-77731904D02*
X119832381Y-77731904D01*
X118784762Y-77970000D02*
X119499048Y-78208095D01*
X119499048Y-77589047D01*
X118832381Y-77017619D02*
X118832381Y-76922380D01*
X118880000Y-76827142D01*
X118927619Y-76779523D01*
X119022857Y-76731904D01*
X119213333Y-76684285D01*
X119451429Y-76684285D01*
X119641905Y-76731904D01*
X119737143Y-76779523D01*
X119784762Y-76827142D01*
X119832381Y-76922380D01*
X119832381Y-77017619D01*
X119784762Y-77112857D01*
X119737143Y-77160476D01*
X119641905Y-77208095D01*
X119451429Y-77255714D01*
X119213333Y-77255714D01*
X119022857Y-77208095D01*
X118927619Y-77160476D01*
X118880000Y-77112857D01*
X118832381Y-77017619D01*
X119832381Y-75731904D02*
X119832381Y-76303333D01*
X119832381Y-76017619D02*
X118832381Y-76017619D01*
X118975238Y-76112857D01*
X119070476Y-76208095D01*
X119118095Y-76303333D01*
X119832381Y-95099047D02*
X119356190Y-95432381D01*
X119832381Y-95670476D02*
X118832381Y-95670476D01*
X118832381Y-95289523D01*
X118880000Y-95194285D01*
X118927619Y-95146666D01*
X119022857Y-95099047D01*
X119165714Y-95099047D01*
X119260952Y-95146666D01*
X119308571Y-95194285D01*
X119356190Y-95289523D01*
X119356190Y-95670476D01*
X119165714Y-94241904D02*
X119832381Y-94241904D01*
X118784762Y-94480000D02*
X119499048Y-94718095D01*
X119499048Y-94099047D01*
X118832381Y-93527619D02*
X118832381Y-93432380D01*
X118880000Y-93337142D01*
X118927619Y-93289523D01*
X119022857Y-93241904D01*
X119213333Y-93194285D01*
X119451429Y-93194285D01*
X119641905Y-93241904D01*
X119737143Y-93289523D01*
X119784762Y-93337142D01*
X119832381Y-93432380D01*
X119832381Y-93527619D01*
X119784762Y-93622857D01*
X119737143Y-93670476D01*
X119641905Y-93718095D01*
X119451429Y-93765714D01*
X119213333Y-93765714D01*
X119022857Y-93718095D01*
X118927619Y-93670476D01*
X118880000Y-93622857D01*
X118832381Y-93527619D01*
X119832381Y-92241904D02*
X119832381Y-92813333D01*
X119832381Y-92527619D02*
X118832381Y-92527619D01*
X118975238Y-92622857D01*
X119070476Y-92718095D01*
X119118095Y-92813333D01*
M02*
