M48
;DRILL file {KiCad 4.0.7} date 02/20/20 23:37:41
;FORMAT={-:-/ absolute / metric / decimal}
FMAT,2
METRIC,TZ
T1C0.813
T2C1.016
T3C3.500
%
G90
G05
M71
T1
X119.38Y-88.9
X119.38Y-99.06
X123.19Y-88.9
X123.19Y-99.06
X127.Y-88.9
X127.Y-99.06
X130.81Y-88.9
X130.81Y-99.06
X134.62Y-88.9
X134.62Y-99.06
X138.43Y-88.9
X138.43Y-99.06
X142.24Y-88.9
X142.24Y-99.06
X146.05Y-88.9
X146.05Y-99.06
X149.86Y-88.9
X149.86Y-99.06
X153.67Y-88.9
X153.67Y-99.06
X157.48Y-88.9
X157.48Y-99.06
X161.29Y-88.9
X161.29Y-99.06
X165.1Y-88.9
X165.1Y-99.06
X168.91Y-88.9
X168.91Y-99.06
X172.72Y-88.9
X172.72Y-99.06
X177.8Y-88.9
X177.8Y-99.06
T2
X119.38Y-81.28
X119.38Y-83.82
X123.19Y-81.28
X123.19Y-83.82
X127.Y-81.28
X127.Y-83.82
X129.54Y-107.95
X130.81Y-81.28
X130.81Y-83.82
X132.08Y-107.95
X134.62Y-81.28
X134.62Y-83.82
X134.62Y-107.95
X137.16Y-107.95
X138.43Y-81.28
X138.43Y-83.82
X139.7Y-107.95
X142.24Y-81.28
X142.24Y-83.82
X142.24Y-107.95
X144.78Y-107.95
X146.05Y-81.28
X146.05Y-83.82
X147.32Y-107.95
X149.86Y-81.28
X149.86Y-83.82
X149.86Y-107.95
X152.4Y-107.95
X153.67Y-81.28
X153.67Y-83.82
X154.94Y-107.95
X157.48Y-81.28
X157.48Y-83.82
X157.48Y-107.95
X160.02Y-107.95
X161.29Y-81.28
X161.29Y-83.82
X162.56Y-107.95
X165.1Y-81.28
X165.1Y-83.82
X165.1Y-107.95
X167.64Y-107.95
X168.91Y-81.28
X168.91Y-83.82
X172.72Y-81.28
X172.72Y-83.82
T3
X107.95Y-95.25
X185.42Y-95.25
T0
M30
