M48
;DRILL file {KiCad 4.0.7} date 03/02/20 22:45:38
;FORMAT={-:-/ absolute / inch / decimal}
FMAT,2
INCH,TZ
T1C0.032
T2C0.040
T3C0.138
%
G90
G05
M72
T1
X4.7Y-3.5
X4.7Y-3.9
X4.85Y-3.5
X4.85Y-3.9
X5.Y-3.5
X5.Y-3.9
X5.15Y-3.5
X5.15Y-3.9
X5.3Y-3.5
X5.3Y-3.9
X5.45Y-3.5
X5.45Y-3.9
X5.6Y-3.5
X5.6Y-3.9
X5.75Y-3.5
X5.75Y-3.9
X5.9Y-3.5
X5.9Y-3.9
X6.05Y-3.5
X6.05Y-3.9
X6.2Y-3.5
X6.2Y-3.9
X6.35Y-3.5
X6.35Y-3.9
X6.5Y-3.5
X6.5Y-3.9
X6.65Y-3.5
X6.65Y-3.9
X6.8Y-3.5
X6.8Y-3.9
X7.Y-3.5
X7.Y-3.9
T2
X4.7Y-3.2
X4.7Y-3.3
X4.85Y-3.2
X4.85Y-3.3
X5.Y-3.2
X5.Y-3.3
X5.1Y-4.25
X5.15Y-3.2
X5.15Y-3.3
X5.2Y-4.25
X5.3Y-3.2
X5.3Y-3.3
X5.3Y-4.25
X5.4Y-4.25
X5.45Y-3.2
X5.45Y-3.3
X5.5Y-4.25
X5.6Y-3.2
X5.6Y-3.3
X5.6Y-4.25
X5.7Y-4.25
X5.75Y-3.2
X5.75Y-3.3
X5.8Y-4.25
X5.9Y-3.2
X5.9Y-3.3
X5.9Y-4.25
X6.Y-4.25
X6.05Y-3.2
X6.05Y-3.3
X6.1Y-4.25
X6.2Y-3.2
X6.2Y-3.3
X6.2Y-4.25
X6.3Y-4.25
X6.35Y-3.2
X6.35Y-3.3
X6.4Y-4.25
X6.5Y-3.2
X6.5Y-3.3
X6.5Y-4.25
X6.6Y-4.25
X6.65Y-3.2
X6.65Y-3.3
X6.8Y-3.2
X6.8Y-3.3
T3
X4.25Y-3.75
X7.3Y-3.75
T0
M30
