999
dxfrw 0.6.3
  0
SECTION
  2
HEADER
  9
$ACADVER
  1
AC1021
  9
$DWGCODEPAGE
  3
ANSI_1250
  9
$INSBASE
 10
0
 20
0
 30
0
  9
$EXTMIN
 10
-29.9924
 20
-36.995
 30
0
  9
$EXTMAX
 10
369.981
 20
239.9924
 30
0
  9
$LIMMIN
 10
0
 20
0
  9
$LIMMAX
 10
420
 20
297
  9
$ORTHOMODE
 70
    0
  9
$REGENMODE
 70
    1
  9
$FILLMODE
 70
    1
  9
$QTEXTMODE
 70
    0
  9
$MIRRTEXT
 70
    0
  9
$LTSCALE
 40
1
  9
$ATTMODE
 70
    0
  9
$TEXTSIZE
 40
2.5
  9
$TRACEWID
 40
15.68
  9
$TEXTSTYLE
  7
STANDARD
  9
$CLAYER
  8
frame
  9
$CELTYPE
  6
BYLAYER
  9
$CECOLOR
 62
  256
  9
$CELTSCALE
 40
1
  9
$DISPSILH
 70
    0
  9
$DIMSCALE
 40
1
  9
$DIMASZ
 40
2.5
  9
$DIMEXO
 40
0.625
  9
$DIMDLI
 40
3.75
  9
$DIMRND
 40
0
  9
$DIMDLE
 40
0
  9
$DIMEXE
 40
1.25
  9
$DIMTP
 40
0
  9
$DIMTM
 40
0
  9
$DIMTXT
 40
2.5
  9
$DIMCEN
 40
2.5
  9
$DIMTSZ
 40
0
  9
$DIMTOL
 70
    0
  9
$DIMLIM
 70
    0
  9
$DIMTIH
 70
    0
  9
$DIMTOH
 70
    0
  9
$DIMSE1
 70
    0
  9
$DIMSE2
 70
    0
  9
$DIMTAD
 70
    1
  9
$DIMZIN
 70
    1
  9
$DIMBLK
  1

  9
$DIMASO
 70
    1
  9
$DIMSHO
 70
    1
  9
$DIMPOST
  1

  9
$DIMAPOST
  1

  9
$DIMALT
 70
    0
  9
$DIMALTD
 70
    3
  9
$DIMALTF
 40
0.03937
  9
$DIMLFAC
 40
1
  9
$DIMTOFL
 70
    1
  9
$DIMTVP
 40
0
  9
$DIMTIX
 70
    0
  9
$DIMSOXD
 70
    0
  9
$DIMSAH
 70
    0
  9
$DIMBLK1
  1

  9
$DIMBLK2
  1

  9
$DIMSTYLE
  2
STANDARD
  9
$DIMCLRD
 70
    0
  9
$DIMCLRE
 70
    0
  9
$DIMCLRT
 70
    0
  9
$DIMTFAC
 40
1
  9
$DIMGAP
 40
0.625
  9
$DIMJUST
 70
    0
  9
$DIMSD1
 70
    0
  9
$DIMSD2
 70
    0
  9
$DIMTOLJ
 70
    0
  9
$DIMTZIN
 70
    8
  9
$DIMALTZ
 70
    0
  9
$DIMALTTZ
 70
    0
  9
$DIMUPT
 70
    0
  9
$DIMDEC
 70
    0
  9
$DIMTDEC
 70
    2
  9
$DIMALTU
 70
    2
  9
$DIMALTTD
 70
    3
  9
$DIMTXSTY
  7
standard
  9
$DIMAUNIT
 70
    0
  9
$DIMADEC
 70
    2
  9
$DIMALTRND
 40
0
  9
$DIMAZIN
 70
    0
  9
$DIMDSEP
 70
   44
  9
$DIMATFIT
 70
    3
  9
$DIMFRAC
 70
    0
  9
$DIMLDRBLK
  1
STANDARD
  9
$DIMLUNIT
 70
    2
  9
$DIMLWD
 70
   -2
  9
$DIMLWE
 70
   -2
  9
$DIMTMOVE
 70
    0
  9
$DIMFXL
 40
1
  9
$DIMFXLON
 70
    0
  9
$DIMJOGANG
 40
0.7854
  9
$DIMTFILL
 70
    0
  9
$DIMTFILLCLR
 70
    0
  9
$DIMARCSYM
 70
    0
  9
$DIMLTYPE
  6

  9
$DIMLTEX1
  6

  9
$DIMLTEX2
  6

  9
$LUNITS
 70
    2
  9
$LUPREC
 70
    4
  9
$SKETCHINC
 40
1
  9
$FILLETRAD
 40
0
  9
$AUNITS
 70
    0
  9
$AUPREC
 70
    2
  9
$MENU
  1
.
  9
$ELEVATION
 40
0
  9
$PELEVATION
 40
0
  9
$THICKNESS
 40
0
  9
$LIMCHECK
 70
    0
  9
$CHAMFERA
 40
0
  9
$CHAMFERB
 40
0
  9
$CHAMFERC
 40
0
  9
$CHAMFERD
 40
0
  9
$SKPOLY
 70
    0
  9
$USRTIMER
 70
    1
  9
$ANGBASE
 50
0
  9
$ANGDIR
 70
    0
  9
$PDMODE
 70
   34
  9
$PDSIZE
 40
0
  9
$PLINEWID
 40
0
  9
$SPLFRAME
 70
    0
  9
$SPLINETYPE
 70
    2
  9
$SPLINESEGS
 70
    8
  9
$HANDSEED
  5
20000
  9
$SURFTAB1
 70
    6
  9
$SURFTAB2
 70
    6
  9
$SURFTYPE
 70
    6
  9
$SURFU
 70
    6
  9
$SURFV
 70
    6
  9
$UCSBASE
  2

  9
$UCSNAME
  2

  9
$UCSORG
 10
0
 20
0
 30
0
  9
$UCSXDIR
 10
1
 20
0
 30
0
  9
$UCSYDIR
 10
0
 20
1
 30
0
  9
$UCSORTHOREF
  2

  9
$UCSORTHOVIEW
 70
    0
  9
$UCSORGTOP
 10
0
 20
0
 30
0
  9
$UCSORGBOTTOM
 10
0
 20
0
 30
0
  9
$UCSORGLEFT
 10
0
 20
0
 30
0
  9
$UCSORGRIGHT
 10
0
 20
0
 30
0
  9
$UCSORGFRONT
 10
0
 20
0
 30
0
  9
$UCSORGBACK
 10
0
 20
0
 30
0
  9
$PUCSBASE
  2

  9
$PUCSNAME
  2

  9
$PUCSORG
 10
0
 20
0
 30
0
  9
$PUCSXDIR
 10
1
 20
0
 30
0
  9
$PUCSYDIR
 10
0
 20
1
 30
0
  9
$PUCSORTHOREF
  2

  9
$PUCSORTHOVIEW
 70
    0
  9
$PUCSORGTOP
 10
0
 20
0
 30
0
  9
$PUCSORGBOTTOM
 10
0
 20
0
 30
0
  9
$PUCSORGLEFT
 10
0
 20
0
 30
0
  9
$PUCSORGRIGHT
 10
0
 20
0
 30
0
  9
$PUCSORGFRONT
 10
0
 20
0
 30
0
  9
$PUCSORGBACK
 10
0
 20
0
 30
0
  9
$USERI1
 70
    0
  9
$USERI2
 70
    0
  9
$USERI3
 70
    0
  9
$USERI4
 70
    0
  9
$USERI5
 70
    0
  9
$USERR1
 40
0
  9
$USERR2
 40
0
  9
$USERR3
 40
0
  9
$USERR4
 40
0
  9
$USERR5
 40
0
  9
$WORLDVIEW
 70
    1
  9
$SHADEDGE
 70
    3
  9
$SHADEDIF
 70
   70
  9
$TILEMODE
 70
    1
  9
$MAXACTVP
 70
   64
  9
$PINSBASE
 10
43.45086786114222
 20
22.73404255319149
 30
0
  9
$PLIMCHECK
 70
    0
  9
$PEXTMIN
 10
0
 20
0
 30
0
  9
$PEXTMAX
 10
0
 20
0
 30
0
  9
$GRIDMODE
 70
    1
  9
$SNAPSTYLE
 70
    0
  9
$GRIDUNIT
 10
0
 20
0
  9
$PLIMMIN
 10
0
 20
0
  9
$PLIMMAX
 10
420
 20
297
  9
$UNITMODE
 70
    0
  9
$VISRETAIN
 70
    1
  9
$PLINEGEN
 70
    0
  9
$PSLTSCALE
 70
    1
  9
$TREEDEPTH
 70
 3020
  9
$CMLSTYLE
  2
Standard
  9
$CMLJUST
 70
    0
  9
$CMLSCALE
 40
20
  9
$PROXYGRAPHICS
 70
    1
  9
$MEASUREMENT
 70
    1
  9
$CELWEIGHT
370
   -1
  9
$ENDCAPS
280
    0
  9
$JOINSTYLE
280
    0
  9
$LWDISPLAY
290
    0
  9
$INSUNITS
 70
    4
  9
$HYPERLINKBASE
  1

  9
$STYLESHEET
  1

  9
$XEDIT
290
    1
  9
$CEPSNTYPE
380
    0
  9
$PSTYLEMODE
290
    1
  9
$EXTNAMES
290
    1
  9
$PSVPSCALE
 40
0.9446795646916566
  9
$OLESTARTUP
290
    0
  9
$SORTENTS
280
  127
  9
$INDEXCTL
280
    0
  9
$HIDETEXT
280
    1
  9
$XCLIPFRAME
290
    0
  9
$HALOGAP
280
    0
  9
$OBSCOLOR
 70
  257
  9
$OBSLTYPE
280
    0
  9
$INTERSECTIONDISPLAY
280
    0
  9
$INTERSECTIONCOLOR
 70
  257
  9
$DIMASSOC
280
    1
  9
$PROJECTNAME
  1

  9
$CAMERADISPLAY
290
    0
  9
$LENSLENGTH
 40
50
  9
$CAMERAHEIGHT
 40
0
  9
$STEPSPERSEC
 40
2
  9
$STEPSIZE
 40
50
  9
$3DDWFPREC
 40
2
  9
$PSOLWIDTH
 40
5
  9
$PSOLHEIGHT
 40
80
  9
$LOFTANG1
 40
1.570796326794897
  9
$LOFTANG2
 40
1.570796326794897
  9
$LOFTMAG1
 40
0
  9
$LOFTMAG2
 40
0
  9
$LOFTPARAM
 70
    7
  9
$LOFTNORMALS
280
    1
  9
$LATITUDE
 40
1
  9
$LONGITUDE
 40
1
  9
$NORTHDIRECTION
 40
0
  9
$TIMEZONE
 70
-8000
  9
$LIGHTGLYPHDISPLAY
280
    1
  9
$TILEMODELIGHTSYNCH
280
    1
  9
$SOLIDHIST
280
    1
  9
$SHOWHIST
280
    1
  9
$DWFFRAME
280
    2
  9
$DGNFRAME
280
    0
  9
$REALWORLDSCALE
290
    1
  9
$INTERFERECOLOR
 62
    1
  9
$CSHADOW
280
    0
  9
$SHADOWPLANELOCATION
 40
0
  0
ENDSEC
  0
SECTION
  2
CLASSES
  0
ENDSEC
  0
SECTION
  2
TABLES
  0
TABLE
  2
VPORT
  5
8
330
0
100
AcDbSymbolTable
 70
    1
  0
VPORT
  5
31
330
2
100
AcDbSymbolTableRecord
100
AcDbViewportTableRecord
  2
*ACTIVE
 70
    0
 10
0
 20
0
 11
1
 21
1
 12
281.7393245150602
 22
127.7834094795082
 13
0
 23
0
 14
10
 24
10
 15
10
 25
10
 16
0
 26
0
 36
1
 17
0
 27
0
 37
0
 40
627.1137605781485
 41
1.219312602291326
 42
50
 43
0
 44
0
 50
0
 51
0
 71
    0
 72
  100
 73
    1
 74
    3
 75
    0
 76
    1
 77
    0
 78
    0
281
    0
 65
    1
110
0
120
0
130
0
111
1
121
0
131
0
112
0
122
1
132
0
 79
    0
146
0
348
10020
 60
    7
 61
    5
292
1
282
    1
141
0
142
0
 63
  250
421
3358443
  0
ENDTAB
  0
TABLE
  2
LTYPE
  5
5
330
0
100
AcDbSymbolTable
 70
    4
  0
LTYPE
  5
14
330
5
100
AcDbSymbolTableRecord
100
AcDbLinetypeTableRecord
  2
ByBlock
 70
    0
  3

 72
   65
 73
    0
 40
0
  0
LTYPE
  5
15
330
5
100
AcDbSymbolTableRecord
100
AcDbLinetypeTableRecord
  2
ByLayer
 70
    0
  3

 72
   65
 73
    0
 40
0
  0
LTYPE
  5
16
330
5
100
AcDbSymbolTableRecord
100
AcDbLinetypeTableRecord
  2
Continuous
 70
    0
  3
Solid line
 72
   65
 73
    0
 40
0
  0
LTYPE
  5
32
330
5
100
AcDbSymbolTableRecord
100
AcDbLinetypeTableRecord
  2
DOT
 70
    0
  3
Dot . . . . . . . . . . . . . . . . . . . . . .
 72
   65
 73
    2
 40
6.35
 49
0
 74
    0
 49
-6.35
 74
    0
  0
LTYPE
  5
33
330
5
100
AcDbSymbolTableRecord
100
AcDbLinetypeTableRecord
  2
DOTTINY
 70
    0
  3
Dot (.15x) .....................................
 72
   65
 73
    2
 40
0.9525
 49
0
 74
    0
 49
-0.9525
 74
    0
  0
LTYPE
  5
34
330
5
100
AcDbSymbolTableRecord
100
AcDbLinetypeTableRecord
  2
DOT2
 70
    0
  3
Dot (.5x) .....................................
 72
   65
 73
    2
 40
3.175
 49
0
 74
    0
 49
-3.175
 74
    0
  0
LTYPE
  5
35
330
5
100
AcDbSymbolTableRecord
100
AcDbLinetypeTableRecord
  2
DOTX2
 70
    0
  3
Dot (2x) .  .  .  .  .  .  .  .  .  .  .  .  .
 72
   65
 73
    2
 40
12.7
 49
0
 74
    0
 49
-12.7
 74
    0
  0
LTYPE
  5
36
330
5
100
AcDbSymbolTableRecord
100
AcDbLinetypeTableRecord
  2
DASHED
 70
    0
  3
Dashed _ _ _ _ _ _ _ _ _ _ _ _ _ _ _ _ _
 72
   65
 73
    2
 40
19.05
 49
12.7
 74
    0
 49
-6.35
 74
    0
  0
LTYPE
  5
37
330
5
100
AcDbSymbolTableRecord
100
AcDbLinetypeTableRecord
  2
DASHEDTINY
 70
    0
  3
Dashed (.15x) _ _ _ _ _ _ _ _ _ _ _ _ _ _ _ _ _
 72
   65
 73
    2
 40
2.8575
 49
1.905
 74
    0
 49
-0.9525
 74
    0
  0
LTYPE
  5
38
330
5
100
AcDbSymbolTableRecord
100
AcDbLinetypeTableRecord
  2
DASHED2
 70
    0
  3
Dashed (.5x) _ _ _ _ _ _ _ _ _ _ _ _ _ _ _ _ _
 72
   65
 73
    2
 40
9.524999999999999
 49
6.35
 74
    0
 49
-3.175
 74
    0
  0
LTYPE
  5
39
330
5
100
AcDbSymbolTableRecord
100
AcDbLinetypeTableRecord
  2
DASHEDX2
 70
    0
  3
Dashed (2x) ____  ____  ____  ____  ____  ___
 72
   65
 73
    2
 40
38.09999999999999
 49
25.4
 74
    0
 49
-12.7
 74
    0
  0
LTYPE
  5
3A
330
5
100
AcDbSymbolTableRecord
100
AcDbLinetypeTableRecord
  2
DASHDOT
 70
    0
  3
Dash dot __ . __ . __ . __ . __ . __ . __ . __
 72
   65
 73
    4
 40
25.4
 49
12.7
 74
    0
 49
-6.35
 74
    0
 49
0
 74
    0
 49
-6.35
 74
    0
  0
LTYPE
  5
3B
330
5
100
AcDbSymbolTableRecord
100
AcDbLinetypeTableRecord
  2
DASHDOTTINY
 70
    0
  3
Dash dot (.15x) _._._._._._._._._._._._._._._.
 72
   65
 73
    4
 40
3.81
 49
1.905
 74
    0
 49
-0.9525
 74
    0
 49
0
 74
    0
 49
-0.9525
 74
    0
  0
LTYPE
  5
3C
330
5
100
AcDbSymbolTableRecord
100
AcDbLinetypeTableRecord
  2
DASHDOT2
 70
    0
  3
Dash dot (.5x) _._._._._._._._._._._._._._._.
 72
   65
 73
    4
 40
12.7
 49
6.35
 74
    0
 49
-3.175
 74
    0
 49
0
 74
    0
 49
-3.175
 74
    0
  0
LTYPE
  5
3D
330
5
100
AcDbSymbolTableRecord
100
AcDbLinetypeTableRecord
  2
DASHDOTX2
 70
    0
  3
Dash dot (2x) ____  .  ____  .  ____  .  ___
 72
   65
 73
    4
 40
50.8
 49
25.4
 74
    0
 49
-12.7
 74
    0
 49
0
 74
    0
 49
-12.7
 74
    0
  0
LTYPE
  5
3E
330
5
100
AcDbSymbolTableRecord
100
AcDbLinetypeTableRecord
  2
DIVIDE
 70
    0
  3
Divide ____ . . ____ . . ____ . . ____ . . ____
 72
   65
 73
    6
 40
31.75
 49
12.7
 74
    0
 49
-6.35
 74
    0
 49
0
 74
    0
 49
-6.35
 74
    0
 49
0
 74
    0
 49
-6.35
 74
    0
  0
LTYPE
  5
3F
330
5
100
AcDbSymbolTableRecord
100
AcDbLinetypeTableRecord
  2
DIVIDETINY
 70
    0
  3
Divide (.15x) __..__..__..__..__..__..__..__.._
 72
   65
 73
    6
 40
4.7625
 49
1.905
 74
    0
 49
-0.9525
 74
    0
 49
0
 74
    0
 49
-0.9525
 74
    0
 49
0
 74
    0
 49
-0.9525
 74
    0
  0
LTYPE
  5
40
330
5
100
AcDbSymbolTableRecord
100
AcDbLinetypeTableRecord
  2
DIVIDE2
 70
    0
  3
Divide (.5x) __..__..__..__..__..__..__..__.._
 72
   65
 73
    6
 40
15.875
 49
6.35
 74
    0
 49
-3.175
 74
    0
 49
0
 74
    0
 49
-3.175
 74
    0
 49
0
 74
    0
 49
-3.175
 74
    0
  0
LTYPE
  5
41
330
5
100
AcDbSymbolTableRecord
100
AcDbLinetypeTableRecord
  2
DIVIDEX2
 70
    0
  3
Divide (2x) ________  .  .  ________  .  .  _
 72
   65
 73
    6
 40
63.5
 49
25.4
 74
    0
 49
-12.7
 74
    0
 49
0
 74
    0
 49
-12.7
 74
    0
 49
0
 74
    0
 49
-12.7
 74
    0
  0
LTYPE
  5
42
330
5
100
AcDbSymbolTableRecord
100
AcDbLinetypeTableRecord
  2
BORDER
 70
    0
  3
Border __ __ . __ __ . __ __ . __ __ . __ __ .
 72
   65
 73
    6
 40
44.45
 49
12.7
 74
    0
 49
-6.35
 74
    0
 49
12.7
 74
    0
 49
-6.35
 74
    0
 49
0
 74
    0
 49
-6.35
 74
    0
  0
LTYPE
  5
43
330
5
100
AcDbSymbolTableRecord
100
AcDbLinetypeTableRecord
  2
BORDERTINY
 70
    0
  3
Border (.15x) __.__.__.__.__.__.__.__.__.__.__.
 72
   65
 73
    6
 40
6.6675
 49
1.905
 74
    0
 49
-0.9525
 74
    0
 49
1.905
 74
    0
 49
-0.9525
 74
    0
 49
0
 74
    0
 49
-0.9525
 74
    0
  0
LTYPE
  5
44
330
5
100
AcDbSymbolTableRecord
100
AcDbLinetypeTableRecord
  2
BORDER2
 70
    0
  3
Border (.5x) __.__.__.__.__.__.__.__.__.__.__.
 72
   65
 73
    6
 40
22.225
 49
6.35
 74
    0
 49
-3.175
 74
    0
 49
6.35
 74
    0
 49
-3.175
 74
    0
 49
0
 74
    0
 49
-3.175
 74
    0
  0
LTYPE
  5
45
330
5
100
AcDbSymbolTableRecord
100
AcDbLinetypeTableRecord
  2
BORDERX2
 70
    0
  3
Border (2x) ____  ____  .  ____  ____  .  ___
 72
   65
 73
    6
 40
88.89999999999999
 49
25.4
 74
    0
 49
-12.7
 74
    0
 49
25.4
 74
    0
 49
-12.7
 74
    0
 49
0
 74
    0
 49
-12.7
 74
    0
  0
LTYPE
  5
46
330
5
100
AcDbSymbolTableRecord
100
AcDbLinetypeTableRecord
  2
CENTER
 70
    0
  3
Center ____ _ ____ _ ____ _ ____ _ ____ _ ____
 72
   65
 73
    4
 40
50.8
 49
31.75
 74
    0
 49
-6.35
 74
    0
 49
6.35
 74
    0
 49
-6.35
 74
    0
  0
LTYPE
  5
47
330
5
100
AcDbSymbolTableRecord
100
AcDbLinetypeTableRecord
  2
CENTERTINY
 70
    0
  3
Center (.15x) ___ _ ___ _ ___ _ ___ _ ___ _ ___
 72
   65
 73
    4
 40
7.62
 49
4.7625
 74
    0
 49
-0.9525
 74
    0
 49
0.9525
 74
    0
 49
-0.9525
 74
    0
  0
LTYPE
  5
48
330
5
100
AcDbSymbolTableRecord
100
AcDbLinetypeTableRecord
  2
CENTER2
 70
    0
  3
Center (.5x) ___ _ ___ _ ___ _ ___ _ ___ _ ___
 72
   65
 73
    4
 40
28.575
 49
19.05
 74
    0
 49
-3.175
 74
    0
 49
3.175
 74
    0
 49
-3.175
 74
    0
  0
LTYPE
  5
49
330
5
100
AcDbSymbolTableRecord
100
AcDbLinetypeTableRecord
  2
CENTERX2
 70
    0
  3
Center (2x) ________  __  ________  __  _____
 72
   65
 73
    4
 40
101.6
 49
63.5
 74
    0
 49
-12.7
 74
    0
 49
12.7
 74
    0
 49
-12.7
 74
    0
  0
ENDTAB
  0
TABLE
  2
LAYER
  5
2
330
0
100
AcDbSymbolTable
 70
    1
  0
LAYER
  5
10
330
2
100
AcDbSymbolTableRecord
100
AcDbLayerTableRecord
  2
0
 70
    4
 62
    7
  6
CONTINUOUS
370
    0
390
F
  0
LAYER
  5
4A
330
2
100
AcDbSymbolTableRecord
100
AcDbLayerTableRecord
  2
frame
 70
    0
 62
    7
  6
CONTINUOUS
370
   -3
390
F
  0
LAYER
  5
4B
330
2
100
AcDbSymbolTableRecord
100
AcDbLayerTableRecord
  2
text
 70
    0
 62
    7
  6
CONTINUOUS
370
    0
390
F
  0
ENDTAB
  0
TABLE
  2
STYLE
  5
3
330
0
100
AcDbSymbolTable
 70
    3
  0
STYLE
  5
4C
330
2
100
AcDbSymbolTableRecord
100
AcDbTextStyleTableRecord
  2
STANDARD
 70
    0
 40
0
 41
1
 50
0
 71
    0
 42
1
  3
STANDARD
  4

  0
ENDTAB
  0
TABLE
  2
VIEW
  5
6
330
0
100
AcDbSymbolTable
 70
    0
  0
ENDTAB
  0
TABLE
  2
UCS
  5
7
330
0
100
AcDbSymbolTable
 70
    0
  0
ENDTAB
  0
TABLE
  2
APPID
  5
9
330
0
100
AcDbSymbolTable
 70
    1
  0
APPID
  5
12
330
9
100
AcDbSymbolTableRecord
100
AcDbRegAppTableRecord
  2
ACAD
 70
    0
  0
APPID
  5
4D
330
9
100
AcDbSymbolTableRecord
100
AcDbRegAppTableRecord
  2
LibreCad
 70
    0
  0
ENDTAB
  0
TABLE
  2
DIMSTYLE
  5
A
330
0
100
AcDbSymbolTable
 70
    1
100
AcDbDimStyleTable
 71
    1
  0
DIMSTYLE
105
4E
330
A
100
AcDbSymbolTableRecord
100
AcDbDimStyleTableRecord
  2
Standard
 70
    0
 40
1
 41
2.5
 42
0.625
 43
0.38
 44
1.25
 45
0
 46
0
 47
0
 48
0
 49
1
140
2.5
141
0.09
142
0
143
25.4
144
1
145
0
146
1
147
0.625
148
0
 71
    0
 72
    0
 73
    0
 74
    1
 75
    0
 76
    0
 77
    0
 78
    1
 79
    0
170
    0
171
    2
172
    0
173
    0
174
    0
175
    0
176
    0
177
    0
178
    0
179
    2
271
    0
272
    4
273
    2
274
    2
275
    0
276
    0
277
    2
278
   44
279
    0
280
    0
281
    0
282
    0
283
    1
284
    0
285
    0
286
    0
288
    0
289
    3
340
standard
341

371
   -2
372
   -2
  0
ENDTAB
  0
TABLE
  2
BLOCK_RECORD
  5
1
330
0
100
AcDbSymbolTable
 70
    2
  0
BLOCK_RECORD
  5
1F
330
1
100
AcDbSymbolTableRecord
100
AcDbBlockTableRecord
  2
*Model_Space
 70
    0
280
    1
281
    0
  0
BLOCK_RECORD
  5
1E
330
1
100
AcDbSymbolTableRecord
100
AcDbBlockTableRecord
  2
*Paper_Space
 70
    0
280
    1
281
    0
  0
BLOCK_RECORD
  5
4F
330
1
100
AcDbSymbolTableRecord
100
AcDbBlockTableRecord
  2
*D1
 70
    0
280
    1
281
    0
  0
BLOCK_RECORD
  5
52
330
1
100
AcDbSymbolTableRecord
100
AcDbBlockTableRecord
  2
*D2
 70
    0
280
    1
281
    0
  0
ENDTAB
  0
ENDSEC
  0
SECTION
  2
BLOCKS
  0
BLOCK
  5
20
330
1F
100
AcDbEntity
  8
0
100
AcDbBlockBegin
  2
*Model_Space
 70
    0
 10
0
 20
0
 30
0
  3
*Model_Space
  1

  0
ENDBLK
  5
21
330
1F
100
AcDbEntity
  8
0
100
AcDbBlockEnd
  0
BLOCK
  5
1C
330
1B
100
AcDbEntity
  8
0
100
AcDbBlockBegin
  2
*Paper_Space
 70
    0
 10
0
 20
0
 30
0
  3
*Paper_Space
  1

  0
ENDBLK
  5
1D
330
1F
100
AcDbEntity
  8
0
100
AcDbBlockEnd
  0
BLOCK
  5
50
330
4F
100
AcDbEntity
  8
0
100
AcDbBlockBegin
  2
*D1
 70
    1
 10
0
 20
0
  3
*D1
  1

  0
LINE
  5
55
100
AcDbEntity
  8
0
  6
ByBlock
 62
    0
370
   -2
100
AcDbLine
 10
9.375
 20
7.654042494670958e-17
 11
-10.72368421052632
 21
2.537919353496159e-15
  0
LINE
  5
56
100
AcDbEntity
  8
0
  6
ByBlock
 62
    0
370
   -2
100
AcDbLine
 10
9.375
 20
185
 11
-10.72368421052632
 21
185
  0
LINE
  5
57
100
AcDbEntity
  8
0
  6
ByBlock
 62
    0
370
   -2
100
AcDbLine
 10
-9.473684210526315
 20
2.38483850360274e-15
 11
-9.473684210526315
 21
185
  0
SOLID
  5
58
100
AcDbEntity
  8
0
  6
ByBlock
 62
    0
370
   -2
100
AcDbTrace
 10
-9.473684210526315
 20
2.38483850360274e-15
 30
0
 11
-9.889968868299155
 21
2.500000000000003
 31
0
 12
-9.057399552753473
 22
2.500000000000002
 32
0
 13
-9.057399552753473
 23
2.500000000000002
 33
0
  0
SOLID
  5
59
100
AcDbEntity
  8
0
  6
ByBlock
 62
    0
370
   -2
100
AcDbTrace
 10
-9.473684210526315
 20
185
 30
0
 11
-9.057399552753475
 21
182.5
 31
0
 12
-9.889968868299155
 22
182.5
 32
0
 13
-9.889968868299155
 23
182.5
 33
0
  0
MTEXT
  5
5A
100
AcDbEntity
  8
0
  6
CONTINUOUS
 62
    0
370
   -2
100
AcDbMText
 10
-11.34868421052632
 20
92.5
 30
0
 40
2.5
 41
4.444444444444599
 71
    5
 72
    1
  1
185
  7
standard
210
0
220
0
230
1
 50
90
 73
    2
 44
1
  0
ENDBLK
  5
51
330
4F
100
AcDbEntity
  8
0
100
AcDbBlockEnd
  0
BLOCK
  5
53
330
52
100
AcDbEntity
  8
0
100
AcDbBlockBegin
  2
*D2
 70
    1
 10
0
 20
0
  3
*D2
  1

  0
LINE
  5
5B
100
AcDbEntity
  8
0
  6
ByBlock
 62
    0
370
   -2
100
AcDbLine
 10
-1.148106374200643e-16
 20
9.375
 11
-3.827021247335478e-15
 21
-10.83333333333333
  0
LINE
  5
5C
100
AcDbEntity
  8
0
  6
ByBlock
 62
    0
370
   -2
100
AcDbLine
 10
235
 20
9.375
 11
235
 21
-10.83333333333333
  0
LINE
  5
5D
100
AcDbEntity
  8
0
  6
ByBlock
 62
    0
370
   -2
100
AcDbLine
 10
-3.59739997249535e-15
 20
-9.583333333333332
 11
235
 21
-9.583333333333332
  0
SOLID
  5
5E
100
AcDbEntity
  8
0
  6
ByBlock
 62
    0
370
   -2
100
AcDbTrace
 10
-3.59739997249535e-15
 20
-9.583333333333332
 30
0
 11
2.499999999999996
 21
-9.167048675560492
 31
0
 12
2.499999999999996
 22
-9.999617991106174
 32
0
 13
2.499999999999996
 23
-9.999617991106174
 33
0
  0
SOLID
  5
5F
100
AcDbEntity
  8
0
  6
ByBlock
 62
    0
370
   -2
100
AcDbTrace
 10
235
 20
-9.583333333333332
 30
0
 11
232.5
 21
-9.999617991106172
 31
0
 12
232.5
 22
-9.167048675560492
 32
0
 13
232.5
 23
-9.167048675560492
 33
0
  0
MTEXT
  5
60
100
AcDbEntity
  8
0
  6
CONTINUOUS
 62
    0
370
   -2
100
AcDbMText
 10
117.5
 20
-7.708333333333332
 30
0
 40
2.5
 41
5.000000000000311
 71
    5
 72
    1
  1
235
  7
standard
210
0
220
0
230
1
 50
0
 73
    2
 44
1
  0
ENDBLK
  5
54
330
52
100
AcDbEntity
  8
0
100
AcDbBlockEnd
  0
ENDSEC
  0
SECTION
  2
ENTITIES
  0
ARC
  5
61
100
AcDbEntity
  8
0
  6
ByLayer
 62
  256
370
  100
100
AcDbCircle
 10
5
 20
5
 40
5
100
AcDbArc
 50
180
 51
270
  0
CIRCLE
  5
62
100
AcDbEntity
  8
0
  6
ByLayer
 62
  256
370
  100
100
AcDbCircle
 10
10
 20
10
 40
6.403124237432849
  0
CIRCLE
  5
63
100
AcDbEntity
  8
0
  6
ByLayer
 62
  256
370
  100
100
AcDbCircle
 10
10
 20
175
 40
6.5
  0
LINE
  5
64
100
AcDbEntity
  8
0
  6
ByLayer
 62
  256
370
  100
100
AcDbLine
 10
0
 20
5
 11
0
 21
175
  0
ARC
  5
65
100
AcDbEntity
  8
0
  6
ByLayer
 62
  256
370
  100
100
AcDbCircle
 10
10
 20
175
 40
10
100
AcDbArc
 50
90
 51
180
  0
DIMENSION
  5
66
100
AcDbEntity
  8
0
  6
ByLayer
 62
  256
370
   -1
100
AcDbDimension
  2
*D1
 10
-9.473684210526315
 20
185
 30
0
 11
-11.34868421052632
 21
92.5
 31
0
 70
   33
 71
    5
 72
    0
  3
Standard
 53
0
210
0
220
0
230
1
100
AcDbAlignedDimension
 13
10
 23
0
 33
0
 14
10
 24
185
 34
0
  0
CIRCLE
  5
67
100
AcDbEntity
  8
0
  6
ByLayer
 62
  256
370
  100
100
AcDbCircle
 10
225
 20
175
 40
6.5
  0
ARC
  5
68
100
AcDbEntity
  8
0
  6
ByLayer
 62
  256
370
  100
100
AcDbCircle
 10
225
 20
175
 40
10
100
AcDbArc
 50
0
 51
90
  0
LINE
  5
69
100
AcDbEntity
  8
0
  6
ByLayer
 62
  256
370
  100
100
AcDbLine
 10
10
 20
185
 11
225
 21
185
  0
ARC
  5
6A
100
AcDbEntity
  8
0
  6
ByLayer
 62
  256
370
  100
100
AcDbCircle
 10
225
 20
10
 40
10
100
AcDbArc
 50
270
 51
0
  0
CIRCLE
  5
6B
100
AcDbEntity
  8
0
  6
ByLayer
 62
  256
370
  100
100
AcDbCircle
 10
225
 20
10
 40
6.5
  0
DIMENSION
  5
6C
100
AcDbEntity
  8
0
  6
ByLayer
 62
  256
370
   -1
100
AcDbDimension
  2
*D2
 10
235
 20
-9.583333333333332
 30
0
 11
117.5
 21
-7.708333333333332
 31
0
 70
   33
 71
    5
 72
    0
  3
Standard
 53
0
210
0
220
0
230
1
100
AcDbAlignedDimension
 13
0
 23
10
 33
0
 14
235
 24
10
 34
0
  0
LINE
  5
6D
100
AcDbEntity
  8
0
  6
ByLayer
 62
  256
370
  100
100
AcDbLine
 10
5
 20
0
 11
225
 21
0
  0
LINE
  5
6E
100
AcDbEntity
  8
0
  6
ByLayer
 62
  256
370
  100
100
AcDbLine
 10
235
 20
175
 11
235
 21
10
  0
LINE
  5
6F
100
AcDbEntity
  8
frame
  6
ByLayer
 62
  256
370
   -1
100
AcDbLine
 10
259.999
 20
-3.008999999999986
 11
259.999
 21
-35.01299999999998
  0
LINE
  5
70
100
AcDbEntity
  8
frame
  6
ByLayer
 62
  256
370
   -1
100
AcDbLine
 10
259.999
 20
-35.01299999999998
 11
368
 21
-35.01299999999998
  0
LINE
  5
71
100
AcDbEntity
  8
frame
  6
ByLayer
 62
  256
370
   -1
100
AcDbLine
 10
368
 20
-35.01299999999998
 11
368
 21
-3.008999999999986
  0
LINE
  5
72
100
AcDbEntity
  8
frame
  6
ByLayer
 62
  256
370
   -1
100
AcDbLine
 10
368
 20
-3.008999999999986
 11
259.999
 21
-3.008999999999986
  0
LINE
  5
73
100
AcDbEntity
  8
frame
  6
ByLayer
 62
  256
370
   -1
100
AcDbLine
 10
-29.9924
 20
239.9924
 11
-29.9924
 21
-36.995
  0
LINE
  5
74
100
AcDbEntity
  8
frame
  6
ByLayer
 62
  256
370
   -1
100
AcDbLine
 10
-29.9924
 20
-36.995
 11
369.981
 21
-36.995
  0
LINE
  5
75
100
AcDbEntity
  8
frame
  6
ByLayer
 62
  256
370
   -1
100
AcDbLine
 10
369.981
 20
-36.995
 11
369.981
 21
239.9924
  0
LINE
  5
76
100
AcDbEntity
  8
frame
  6
ByLayer
 62
  256
370
   -1
100
AcDbLine
 10
369.981
 20
239.9924
 11
-29.9924
 21
239.9924
  0
LINE
  5
77
100
AcDbEntity
  8
frame
  6
ByLayer
 62
  256
370
   -1
100
AcDbLine
 10
-28.0112
 20
238.0112
 11
-28.0112
 21
-35.01299999999998
  0
LINE
  5
78
100
AcDbEntity
  8
frame
  6
ByLayer
 62
  256
370
   -1
100
AcDbLine
 10
-28.0112
 20
-35.01299999999998
 11
368
 21
-35.01299999999998
  0
LINE
  5
79
100
AcDbEntity
  8
frame
  6
ByLayer
 62
  256
370
   -1
100
AcDbLine
 10
368
 20
-35.01299999999998
 11
368
 21
238.0112
  0
LINE
  5
7A
100
AcDbEntity
  8
frame
  6
ByLayer
 62
  256
370
   -1
100
AcDbLine
 10
368
 20
238.0112
 11
-28.0112
 21
238.0112
  0
LINE
  5
7B
100
AcDbEntity
  8
frame
  6
ByLayer
 62
  256
370
   -1
100
AcDbLine
 10
19.9948
 20
238.0112
 11
19.9948
 21
239.9924
  0
LINE
  5
7C
100
AcDbEntity
  8
frame
  6
ByLayer
 62
  256
370
   -1
100
AcDbLine
 10
70.00700000000001
 20
238.0112
 11
70.00700000000001
 21
239.9924
  0
LINE
  5
7D
100
AcDbEntity
  8
frame
  6
ByLayer
 62
  256
370
   -1
100
AcDbLine
 10
119.995
 20
238.0112
 11
119.995
 21
239.9924
  0
LINE
  5
7E
100
AcDbEntity
  8
frame
  6
ByLayer
 62
  256
370
   -1
100
AcDbLine
 10
170.007
 20
238.0112
 11
170.007
 21
239.9924
  0
LINE
  5
7F
100
AcDbEntity
  8
frame
  6
ByLayer
 62
  256
370
   -1
100
AcDbLine
 10
219.994
 20
238.0112
 11
219.994
 21
239.9924
  0
LINE
  5
80
100
AcDbEntity
  8
frame
  6
ByLayer
 62
  256
370
   -1
100
AcDbLine
 10
270.007
 20
238.0112
 11
270.007
 21
239.9924
  0
LINE
  5
81
100
AcDbEntity
  8
frame
  6
ByLayer
 62
  256
370
   -1
100
AcDbLine
 10
319.994
 20
238.0112
 11
319.994
 21
239.9924
  0
LINE
  5
82
100
AcDbEntity
  8
frame
  6
ByLayer
 62
  256
370
   -1
100
AcDbLine
 10
-4.008200000000002
 20
238.4176
 11
-4.744799999999998
 21
238.4176
  0
LINE
  5
83
100
AcDbEntity
  8
frame
  6
ByLayer
 62
  256
370
   -1
100
AcDbLine
 10
-4.389200000000002
 20
238.4176
 11
-4.389200000000002
 21
239.713
  0
LINE
  5
84
100
AcDbEntity
  8
frame
  6
ByLayer
 62
  256
370
   -1
100
AcDbLine
 10
-4.389200000000002
 20
239.713
 11
-4.516199999999998
 21
239.5352
  0
LINE
  5
85
100
AcDbEntity
  8
frame
  6
ByLayer
 62
  256
370
   -1
100
AcDbLine
 10
-4.516199999999998
 20
239.5352
 11
-4.617800000000003
 21
239.4082
  0
LINE
  5
86
100
AcDbEntity
  8
frame
  6
ByLayer
 62
  256
370
   -1
100
AcDbLine
 10
-4.617800000000003
 20
239.4082
 11
-4.744799999999998
 21
239.3574
  0
LINE
  5
87
100
AcDbEntity
  8
frame
  6
ByLayer
 62
  256
370
   -1
100
AcDbLine
 10
45.2424
 20
239.6114
 11
45.2932
 21
239.6622
  0
LINE
  5
88
100
AcDbEntity
  8
frame
  6
ByLayer
 62
  256
370
   -1
100
AcDbLine
 10
45.2932
 20
239.6622
 11
45.42019999999999
 21
239.713
  0
LINE
  5
89
100
AcDbEntity
  8
frame
  6
ByLayer
 62
  256
370
   -1
100
AcDbLine
 10
45.42019999999999
 20
239.713
 11
45.72499999999999
 21
239.713
  0
LINE
  5
8A
100
AcDbEntity
  8
frame
  6
ByLayer
 62
  256
370
   -1
100
AcDbLine
 10
45.72499999999999
 20
239.713
 11
45.852
 21
239.6622
  0
LINE
  5
8B
100
AcDbEntity
  8
frame
  6
ByLayer
 62
  256
370
   -1
100
AcDbLine
 10
45.852
 20
239.6622
 11
45.9028
 21
239.6114
  0
LINE
  5
8C
100
AcDbEntity
  8
frame
  6
ByLayer
 62
  256
370
   -1
100
AcDbLine
 10
45.9028
 20
239.6114
 11
45.979
 21
239.4844
  0
LINE
  5
8D
100
AcDbEntity
  8
frame
  6
ByLayer
 62
  256
370
   -1
100
AcDbLine
 10
45.979
 20
239.4844
 11
45.979
 21
239.3574
  0
LINE
  5
8E
100
AcDbEntity
  8
frame
  6
ByLayer
 62
  256
370
   -1
100
AcDbLine
 10
45.979
 20
239.3574
 11
45.9028
 21
239.1796
  0
LINE
  5
8F
100
AcDbEntity
  8
frame
  6
ByLayer
 62
  256
370
   -1
100
AcDbLine
 10
45.9028
 20
239.1796
 11
45.1662
 21
238.4176
  0
LINE
  5
90
100
AcDbEntity
  8
frame
  6
ByLayer
 62
  256
370
   -1
100
AcDbLine
 10
45.1662
 20
238.4176
 11
45.979
 21
238.4176
  0
LINE
  5
91
100
AcDbEntity
  8
frame
  6
ByLayer
 62
  256
370
   -1
100
AcDbLine
 10
95.179
 20
239.713
 11
95.99199999999999
 21
239.713
  0
LINE
  5
92
100
AcDbEntity
  8
frame
  6
ByLayer
 62
  256
370
   -1
100
AcDbLine
 10
95.99199999999999
 20
239.713
 11
95.56
 21
239.2304
  0
LINE
  5
93
100
AcDbEntity
  8
frame
  6
ByLayer
 62
  256
370
   -1
100
AcDbLine
 10
95.56
 20
239.2304
 11
95.738
 21
239.2304
  0
LINE
  5
94
100
AcDbEntity
  8
frame
  6
ByLayer
 62
  256
370
   -1
100
AcDbLine
 10
95.738
 20
239.2304
 11
95.86500000000001
 21
239.1796
  0
LINE
  5
95
100
AcDbEntity
  8
frame
  6
ByLayer
 62
  256
370
   -1
100
AcDbLine
 10
95.86500000000001
 20
239.1796
 11
95.91499999999999
 21
239.1034
  0
LINE
  5
96
100
AcDbEntity
  8
frame
  6
ByLayer
 62
  256
370
   -1
100
AcDbLine
 10
95.91499999999999
 20
239.1034
 11
95.99199999999999
 21
238.9764
  0
LINE
  5
97
100
AcDbEntity
  8
frame
  6
ByLayer
 62
  256
370
   -1
100
AcDbLine
 10
95.99199999999999
 20
238.9764
 11
95.99199999999999
 21
238.6716
  0
LINE
  5
98
100
AcDbEntity
  8
frame
  6
ByLayer
 62
  256
370
   -1
100
AcDbLine
 10
95.99199999999999
 20
238.6716
 11
95.91499999999999
 21
238.5446
  0
LINE
  5
99
100
AcDbEntity
  8
frame
  6
ByLayer
 62
  256
370
   -1
100
AcDbLine
 10
95.91499999999999
 20
238.5446
 11
95.86500000000001
 21
238.4938
  0
LINE
  5
9A
100
AcDbEntity
  8
frame
  6
ByLayer
 62
  256
370
   -1
100
AcDbLine
 10
95.86500000000001
 20
238.4938
 11
95.738
 21
238.4176
  0
LINE
  5
9B
100
AcDbEntity
  8
frame
  6
ByLayer
 62
  256
370
   -1
100
AcDbLine
 10
95.738
 20
238.4176
 11
95.38200000000001
 21
238.4176
  0
LINE
  5
9C
100
AcDbEntity
  8
frame
  6
ByLayer
 62
  256
370
   -1
100
AcDbLine
 10
95.38200000000001
 20
238.4176
 11
95.255
 21
238.4938
  0
LINE
  5
9D
100
AcDbEntity
  8
frame
  6
ByLayer
 62
  256
370
   -1
100
AcDbLine
 10
95.255
 20
238.4938
 11
95.179
 21
238.5446
  0
LINE
  5
9E
100
AcDbEntity
  8
frame
  6
ByLayer
 62
  256
370
   -1
100
AcDbLine
 10
145.852
 20
239.2812
 11
145.852
 21
238.4176
  0
LINE
  5
9F
100
AcDbEntity
  8
frame
  6
ByLayer
 62
  256
370
   -1
100
AcDbLine
 10
145.547
 20
239.7892
 11
145.242
 21
238.8494
  0
LINE
  5
A0
100
AcDbEntity
  8
frame
  6
ByLayer
 62
  256
370
   -1
100
AcDbLine
 10
145.242
 20
238.8494
 11
146.03
 21
238.8494
  0
LINE
  5
A1
100
AcDbEntity
  8
frame
  6
ByLayer
 62
  256
370
   -1
100
AcDbLine
 10
195.915
 20
239.713
 11
195.306
 21
239.713
  0
LINE
  5
A2
100
AcDbEntity
  8
frame
  6
ByLayer
 62
  256
370
   -1
100
AcDbLine
 10
195.306
 20
239.713
 11
195.255
 21
239.1034
  0
LINE
  5
A3
100
AcDbEntity
  8
frame
  6
ByLayer
 62
  256
370
   -1
100
AcDbLine
 10
195.255
 20
239.1034
 11
195.306
 21
239.1796
  0
LINE
  5
A4
100
AcDbEntity
  8
frame
  6
ByLayer
 62
  256
370
   -1
100
AcDbLine
 10
195.306
 20
239.1796
 11
195.433
 21
239.2304
  0
LINE
  5
A5
100
AcDbEntity
  8
frame
  6
ByLayer
 62
  256
370
   -1
100
AcDbLine
 10
195.433
 20
239.2304
 11
195.737
 21
239.2304
  0
LINE
  5
A6
100
AcDbEntity
  8
frame
  6
ByLayer
 62
  256
370
   -1
100
AcDbLine
 10
195.737
 20
239.2304
 11
195.864
 21
239.1796
  0
LINE
  5
A7
100
AcDbEntity
  8
frame
  6
ByLayer
 62
  256
370
   -1
100
AcDbLine
 10
195.864
 20
239.1796
 11
195.915
 21
239.1034
  0
LINE
  5
A8
100
AcDbEntity
  8
frame
  6
ByLayer
 62
  256
370
   -1
100
AcDbLine
 10
195.915
 20
239.1034
 11
195.991
 21
238.9764
  0
LINE
  5
A9
100
AcDbEntity
  8
frame
  6
ByLayer
 62
  256
370
   -1
100
AcDbLine
 10
195.991
 20
238.9764
 11
195.991
 21
238.6716
  0
LINE
  5
AA
100
AcDbEntity
  8
frame
  6
ByLayer
 62
  256
370
   -1
100
AcDbLine
 10
195.991
 20
238.6716
 11
195.915
 21
238.5446
  0
LINE
  5
AB
100
AcDbEntity
  8
frame
  6
ByLayer
 62
  256
370
   -1
100
AcDbLine
 10
195.915
 20
238.5446
 11
195.864
 21
238.4938
  0
LINE
  5
AC
100
AcDbEntity
  8
frame
  6
ByLayer
 62
  256
370
   -1
100
AcDbLine
 10
195.864
 20
238.4938
 11
195.737
 21
238.4176
  0
LINE
  5
AD
100
AcDbEntity
  8
frame
  6
ByLayer
 62
  256
370
   -1
100
AcDbLine
 10
195.737
 20
238.4176
 11
195.433
 21
238.4176
  0
LINE
  5
AE
100
AcDbEntity
  8
frame
  6
ByLayer
 62
  256
370
   -1
100
AcDbLine
 10
195.433
 20
238.4176
 11
195.306
 21
238.4938
  0
LINE
  5
AF
100
AcDbEntity
  8
frame
  6
ByLayer
 62
  256
370
   -1
100
AcDbLine
 10
195.306
 20
238.4938
 11
195.255
 21
238.5446
  0
LINE
  5
B0
100
AcDbEntity
  8
frame
  6
ByLayer
 62
  256
370
   -1
100
AcDbLine
 10
245.852
 20
239.713
 11
245.598
 21
239.713
  0
LINE
  5
B1
100
AcDbEntity
  8
frame
  6
ByLayer
 62
  256
370
   -1
100
AcDbLine
 10
245.598
 20
239.713
 11
245.471
 21
239.6622
  0
LINE
  5
B2
100
AcDbEntity
  8
frame
  6
ByLayer
 62
  256
370
   -1
100
AcDbLine
 10
245.471
 20
239.6622
 11
245.42
 21
239.6114
  0
LINE
  5
B3
100
AcDbEntity
  8
frame
  6
ByLayer
 62
  256
370
   -1
100
AcDbLine
 10
245.42
 20
239.6114
 11
245.293
 21
239.4082
  0
LINE
  5
B4
100
AcDbEntity
  8
frame
  6
ByLayer
 62
  256
370
   -1
100
AcDbLine
 10
245.293
 20
239.4082
 11
245.242
 21
239.1796
  0
LINE
  5
B5
100
AcDbEntity
  8
frame
  6
ByLayer
 62
  256
370
   -1
100
AcDbLine
 10
245.242
 20
239.1796
 11
245.242
 21
238.6716
  0
LINE
  5
B6
100
AcDbEntity
  8
frame
  6
ByLayer
 62
  256
370
   -1
100
AcDbLine
 10
245.242
 20
238.6716
 11
245.293
 21
238.5446
  0
LINE
  5
B7
100
AcDbEntity
  8
frame
  6
ByLayer
 62
  256
370
   -1
100
AcDbLine
 10
245.293
 20
238.5446
 11
245.369
 21
238.4938
  0
LINE
  5
B8
100
AcDbEntity
  8
frame
  6
ByLayer
 62
  256
370
   -1
100
AcDbLine
 10
245.369
 20
238.4938
 11
245.471
 21
238.4176
  0
LINE
  5
B9
100
AcDbEntity
  8
frame
  6
ByLayer
 62
  256
370
   -1
100
AcDbLine
 10
245.471
 20
238.4176
 11
245.725
 21
238.4176
  0
LINE
  5
BA
100
AcDbEntity
  8
frame
  6
ByLayer
 62
  256
370
   -1
100
AcDbLine
 10
245.725
 20
238.4176
 11
245.852
 21
238.4938
  0
LINE
  5
BB
100
AcDbEntity
  8
frame
  6
ByLayer
 62
  256
370
   -1
100
AcDbLine
 10
245.852
 20
238.4938
 11
245.902
 21
238.5446
  0
LINE
  5
BC
100
AcDbEntity
  8
frame
  6
ByLayer
 62
  256
370
   -1
100
AcDbLine
 10
245.902
 20
238.5446
 11
245.979
 21
238.6716
  0
LINE
  5
BD
100
AcDbEntity
  8
frame
  6
ByLayer
 62
  256
370
   -1
100
AcDbLine
 10
245.979
 20
238.6716
 11
245.979
 21
238.9764
  0
LINE
  5
BE
100
AcDbEntity
  8
frame
  6
ByLayer
 62
  256
370
   -1
100
AcDbLine
 10
245.979
 20
238.9764
 11
245.902
 21
239.1034
  0
LINE
  5
BF
100
AcDbEntity
  8
frame
  6
ByLayer
 62
  256
370
   -1
100
AcDbLine
 10
245.902
 20
239.1034
 11
245.852
 21
239.1796
  0
LINE
  5
C0
100
AcDbEntity
  8
frame
  6
ByLayer
 62
  256
370
   -1
100
AcDbLine
 10
245.852
 20
239.1796
 11
245.725
 21
239.2304
  0
LINE
  5
C1
100
AcDbEntity
  8
frame
  6
ByLayer
 62
  256
370
   -1
100
AcDbLine
 10
245.725
 20
239.2304
 11
245.471
 21
239.2304
  0
LINE
  5
C2
100
AcDbEntity
  8
frame
  6
ByLayer
 62
  256
370
   -1
100
AcDbLine
 10
245.471
 20
239.2304
 11
245.369
 21
239.1796
  0
LINE
  5
C3
100
AcDbEntity
  8
frame
  6
ByLayer
 62
  256
370
   -1
100
AcDbLine
 10
245.369
 20
239.1796
 11
245.293
 21
239.1034
  0
LINE
  5
C4
100
AcDbEntity
  8
frame
  6
ByLayer
 62
  256
370
   -1
100
AcDbLine
 10
245.293
 20
239.1034
 11
245.242
 21
238.9764
  0
LINE
  5
C5
100
AcDbEntity
  8
frame
  6
ByLayer
 62
  256
370
   -1
100
AcDbLine
 10
295.178
 20
239.713
 11
296.042
 21
239.713
  0
LINE
  5
C6
100
AcDbEntity
  8
frame
  6
ByLayer
 62
  256
370
   -1
100
AcDbLine
 10
296.042
 20
239.713
 11
295.483
 21
238.4176
  0
LINE
  5
C7
100
AcDbEntity
  8
frame
  6
ByLayer
 62
  256
370
   -1
100
AcDbLine
 10
345.47
 20
239.1796
 11
345.369
 21
239.2304
  0
LINE
  5
C8
100
AcDbEntity
  8
frame
  6
ByLayer
 62
  256
370
   -1
100
AcDbLine
 10
345.369
 20
239.2304
 11
345.293
 21
239.2812
  0
LINE
  5
C9
100
AcDbEntity
  8
frame
  6
ByLayer
 62
  256
370
   -1
100
AcDbLine
 10
345.293
 20
239.2812
 11
345.242
 21
239.4082
  0
LINE
  5
CA
100
AcDbEntity
  8
frame
  6
ByLayer
 62
  256
370
   -1
100
AcDbLine
 10
345.242
 20
239.4082
 11
345.242
 21
239.4844
  0
LINE
  5
CB
100
AcDbEntity
  8
frame
  6
ByLayer
 62
  256
370
   -1
100
AcDbLine
 10
345.242
 20
239.4844
 11
345.293
 21
239.6114
  0
LINE
  5
CC
100
AcDbEntity
  8
frame
  6
ByLayer
 62
  256
370
   -1
100
AcDbLine
 10
345.293
 20
239.6114
 11
345.369
 21
239.6622
  0
LINE
  5
CD
100
AcDbEntity
  8
frame
  6
ByLayer
 62
  256
370
   -1
100
AcDbLine
 10
345.369
 20
239.6622
 11
345.47
 21
239.713
  0
LINE
  5
CE
100
AcDbEntity
  8
frame
  6
ByLayer
 62
  256
370
   -1
100
AcDbLine
 10
345.47
 20
239.713
 11
345.724
 21
239.713
  0
LINE
  5
CF
100
AcDbEntity
  8
frame
  6
ByLayer
 62
  256
370
   -1
100
AcDbLine
 10
345.724
 20
239.713
 11
345.851
 21
239.6622
  0
LINE
  5
D0
100
AcDbEntity
  8
frame
  6
ByLayer
 62
  256
370
   -1
100
AcDbLine
 10
345.851
 20
239.6622
 11
345.902
 21
239.6114
  0
LINE
  5
D1
100
AcDbEntity
  8
frame
  6
ByLayer
 62
  256
370
   -1
100
AcDbLine
 10
345.902
 20
239.6114
 11
345.978
 21
239.4844
  0
LINE
  5
D2
100
AcDbEntity
  8
frame
  6
ByLayer
 62
  256
370
   -1
100
AcDbLine
 10
345.978
 20
239.4844
 11
345.978
 21
239.4082
  0
LINE
  5
D3
100
AcDbEntity
  8
frame
  6
ByLayer
 62
  256
370
   -1
100
AcDbLine
 10
345.978
 20
239.4082
 11
345.902
 21
239.2812
  0
LINE
  5
D4
100
AcDbEntity
  8
frame
  6
ByLayer
 62
  256
370
   -1
100
AcDbLine
 10
345.902
 20
239.2812
 11
345.851
 21
239.2304
  0
LINE
  5
D5
100
AcDbEntity
  8
frame
  6
ByLayer
 62
  256
370
   -1
100
AcDbLine
 10
345.851
 20
239.2304
 11
345.724
 21
239.1796
  0
LINE
  5
D6
100
AcDbEntity
  8
frame
  6
ByLayer
 62
  256
370
   -1
100
AcDbLine
 10
345.724
 20
239.1796
 11
345.47
 21
239.1796
  0
LINE
  5
D7
100
AcDbEntity
  8
frame
  6
ByLayer
 62
  256
370
   -1
100
AcDbLine
 10
345.47
 20
239.1796
 11
345.369
 21
239.1034
  0
LINE
  5
D8
100
AcDbEntity
  8
frame
  6
ByLayer
 62
  256
370
   -1
100
AcDbLine
 10
345.369
 20
239.1034
 11
345.293
 21
239.0526
  0
LINE
  5
D9
100
AcDbEntity
  8
frame
  6
ByLayer
 62
  256
370
   -1
100
AcDbLine
 10
345.293
 20
239.0526
 11
345.242
 21
238.9256
  0
LINE
  5
DA
100
AcDbEntity
  8
frame
  6
ByLayer
 62
  256
370
   -1
100
AcDbLine
 10
345.242
 20
238.9256
 11
345.242
 21
238.6716
  0
LINE
  5
DB
100
AcDbEntity
  8
frame
  6
ByLayer
 62
  256
370
   -1
100
AcDbLine
 10
345.242
 20
238.6716
 11
345.293
 21
238.5446
  0
LINE
  5
DC
100
AcDbEntity
  8
frame
  6
ByLayer
 62
  256
370
   -1
100
AcDbLine
 10
345.293
 20
238.5446
 11
345.369
 21
238.4938
  0
LINE
  5
DD
100
AcDbEntity
  8
frame
  6
ByLayer
 62
  256
370
   -1
100
AcDbLine
 10
345.369
 20
238.4938
 11
345.47
 21
238.4176
  0
LINE
  5
DE
100
AcDbEntity
  8
frame
  6
ByLayer
 62
  256
370
   -1
100
AcDbLine
 10
345.47
 20
238.4176
 11
345.724
 21
238.4176
  0
LINE
  5
DF
100
AcDbEntity
  8
frame
  6
ByLayer
 62
  256
370
   -1
100
AcDbLine
 10
345.724
 20
238.4176
 11
345.851
 21
238.4938
  0
LINE
  5
E0
100
AcDbEntity
  8
frame
  6
ByLayer
 62
  256
370
   -1
100
AcDbLine
 10
345.851
 20
238.4938
 11
345.902
 21
238.5446
  0
LINE
  5
E1
100
AcDbEntity
  8
frame
  6
ByLayer
 62
  256
370
   -1
100
AcDbLine
 10
345.902
 20
238.5446
 11
345.978
 21
238.6716
  0
LINE
  5
E2
100
AcDbEntity
  8
frame
  6
ByLayer
 62
  256
370
   -1
100
AcDbLine
 10
345.978
 20
238.6716
 11
345.978
 21
238.9256
  0
LINE
  5
E3
100
AcDbEntity
  8
frame
  6
ByLayer
 62
  256
370
   -1
100
AcDbLine
 10
345.978
 20
238.9256
 11
345.902
 21
239.0526
  0
LINE
  5
E4
100
AcDbEntity
  8
frame
  6
ByLayer
 62
  256
370
   -1
100
AcDbLine
 10
345.902
 20
239.0526
 11
345.851
 21
239.1034
  0
LINE
  5
E5
100
AcDbEntity
  8
frame
  6
ByLayer
 62
  256
370
   -1
100
AcDbLine
 10
345.851
 20
239.1034
 11
345.724
 21
239.1796
  0
LINE
  5
E6
100
AcDbEntity
  8
frame
  6
ByLayer
 62
  256
370
   -1
100
AcDbLine
 10
19.9948
 20
-35.01299999999998
 11
19.9948
 21
-36.995
  0
LINE
  5
E7
100
AcDbEntity
  8
frame
  6
ByLayer
 62
  256
370
   -1
100
AcDbLine
 10
70.00700000000001
 20
-35.01299999999998
 11
70.00700000000001
 21
-36.995
  0
LINE
  5
E8
100
AcDbEntity
  8
frame
  6
ByLayer
 62
  256
370
   -1
100
AcDbLine
 10
119.995
 20
-35.01299999999998
 11
119.995
 21
-36.995
  0
LINE
  5
E9
100
AcDbEntity
  8
frame
  6
ByLayer
 62
  256
370
   -1
100
AcDbLine
 10
170.007
 20
-35.01299999999998
 11
170.007
 21
-36.995
  0
LINE
  5
EA
100
AcDbEntity
  8
frame
  6
ByLayer
 62
  256
370
   -1
100
AcDbLine
 10
219.994
 20
-35.01299999999998
 11
219.994
 21
-36.995
  0
LINE
  5
EB
100
AcDbEntity
  8
frame
  6
ByLayer
 62
  256
370
   -1
100
AcDbLine
 10
270.007
 20
-35.01299999999998
 11
270.007
 21
-36.995
  0
LINE
  5
EC
100
AcDbEntity
  8
frame
  6
ByLayer
 62
  256
370
   -1
100
AcDbLine
 10
319.994
 20
-35.01299999999998
 11
319.994
 21
-36.995
  0
LINE
  5
ED
100
AcDbEntity
  8
frame
  6
ByLayer
 62
  256
370
   -1
100
AcDbLine
 10
-4.008200000000002
 20
-36.58800000000002
 11
-4.744799999999998
 21
-36.58800000000002
  0
LINE
  5
EE
100
AcDbEntity
  8
frame
  6
ByLayer
 62
  256
370
   -1
100
AcDbLine
 10
-4.389200000000002
 20
-36.58800000000002
 11
-4.389200000000002
 21
-35.29300000000001
  0
LINE
  5
EF
100
AcDbEntity
  8
frame
  6
ByLayer
 62
  256
370
   -1
100
AcDbLine
 10
-4.389200000000002
 20
-35.29300000000001
 11
-4.516199999999998
 21
-35.471
  0
LINE
  5
F0
100
AcDbEntity
  8
frame
  6
ByLayer
 62
  256
370
   -1
100
AcDbLine
 10
-4.516199999999998
 20
-35.471
 11
-4.617800000000003
 21
-35.59800000000001
  0
LINE
  5
F1
100
AcDbEntity
  8
frame
  6
ByLayer
 62
  256
370
   -1
100
AcDbLine
 10
-4.617800000000003
 20
-35.59800000000001
 11
-4.744799999999998
 21
-35.64800000000002
  0
LINE
  5
F2
100
AcDbEntity
  8
frame
  6
ByLayer
 62
  256
370
   -1
100
AcDbLine
 10
45.2424
 20
-35.39400000000001
 11
45.2932
 21
-35.34399999999999
  0
LINE
  5
F3
100
AcDbEntity
  8
frame
  6
ByLayer
 62
  256
370
   -1
100
AcDbLine
 10
45.2932
 20
-35.34399999999999
 11
45.42019999999999
 21
-35.29300000000001
  0
LINE
  5
F4
100
AcDbEntity
  8
frame
  6
ByLayer
 62
  256
370
   -1
100
AcDbLine
 10
45.42019999999999
 20
-35.29300000000001
 11
45.72499999999999
 21
-35.29300000000001
  0
LINE
  5
F5
100
AcDbEntity
  8
frame
  6
ByLayer
 62
  256
370
   -1
100
AcDbLine
 10
45.72499999999999
 20
-35.29300000000001
 11
45.852
 21
-35.34399999999999
  0
LINE
  5
F6
100
AcDbEntity
  8
frame
  6
ByLayer
 62
  256
370
   -1
100
AcDbLine
 10
45.852
 20
-35.34399999999999
 11
45.9028
 21
-35.39400000000001
  0
LINE
  5
F7
100
AcDbEntity
  8
frame
  6
ByLayer
 62
  256
370
   -1
100
AcDbLine
 10
45.9028
 20
-35.39400000000001
 11
45.979
 21
-35.52100000000002
  0
LINE
  5
F8
100
AcDbEntity
  8
frame
  6
ByLayer
 62
  256
370
   -1
100
AcDbLine
 10
45.979
 20
-35.52100000000002
 11
45.979
 21
-35.64800000000002
  0
LINE
  5
F9
100
AcDbEntity
  8
frame
  6
ByLayer
 62
  256
370
   -1
100
AcDbLine
 10
45.979
 20
-35.64800000000002
 11
45.9028
 21
-35.82600000000002
  0
LINE
  5
FA
100
AcDbEntity
  8
frame
  6
ByLayer
 62
  256
370
   -1
100
AcDbLine
 10
45.9028
 20
-35.82600000000002
 11
45.1662
 21
-36.58800000000002
  0
LINE
  5
FB
100
AcDbEntity
  8
frame
  6
ByLayer
 62
  256
370
   -1
100
AcDbLine
 10
45.1662
 20
-36.58800000000002
 11
45.979
 21
-36.58800000000002
  0
LINE
  5
FC
100
AcDbEntity
  8
frame
  6
ByLayer
 62
  256
370
   -1
100
AcDbLine
 10
95.179
 20
-35.29300000000001
 11
95.99199999999999
 21
-35.29300000000001
  0
LINE
  5
FD
100
AcDbEntity
  8
frame
  6
ByLayer
 62
  256
370
   -1
100
AcDbLine
 10
95.99199999999999
 20
-35.29300000000001
 11
95.56
 21
-35.77499999999998
  0
LINE
  5
FE
100
AcDbEntity
  8
frame
  6
ByLayer
 62
  256
370
   -1
100
AcDbLine
 10
95.56
 20
-35.77499999999998
 11
95.738
 21
-35.77499999999998
  0
LINE
  5
FF
100
AcDbEntity
  8
frame
  6
ByLayer
 62
  256
370
   -1
100
AcDbLine
 10
95.738
 20
-35.77499999999998
 11
95.86500000000001
 21
-35.82600000000002
  0
LINE
  5
100
100
AcDbEntity
  8
frame
  6
ByLayer
 62
  256
370
   -1
100
AcDbLine
 10
95.86500000000001
 20
-35.82600000000002
 11
95.91499999999999
 21
-35.90199999999999
  0
LINE
  5
101
100
AcDbEntity
  8
frame
  6
ByLayer
 62
  256
370
   -1
100
AcDbLine
 10
95.91499999999999
 20
-35.90199999999999
 11
95.99199999999999
 21
-36.029
  0
LINE
  5
102
100
AcDbEntity
  8
frame
  6
ByLayer
 62
  256
370
   -1
100
AcDbLine
 10
95.99199999999999
 20
-36.029
 11
95.99199999999999
 21
-36.334
  0
LINE
  5
103
100
AcDbEntity
  8
frame
  6
ByLayer
 62
  256
370
   -1
100
AcDbLine
 10
95.99199999999999
 20
-36.334
 11
95.91499999999999
 21
-36.46100000000001
  0
LINE
  5
104
100
AcDbEntity
  8
frame
  6
ByLayer
 62
  256
370
   -1
100
AcDbLine
 10
95.91499999999999
 20
-36.46100000000001
 11
95.86500000000001
 21
-36.512
  0
LINE
  5
105
100
AcDbEntity
  8
frame
  6
ByLayer
 62
  256
370
   -1
100
AcDbLine
 10
95.86500000000001
 20
-36.512
 11
95.738
 21
-36.58800000000002
  0
LINE
  5
106
100
AcDbEntity
  8
frame
  6
ByLayer
 62
  256
370
   -1
100
AcDbLine
 10
95.738
 20
-36.58800000000002
 11
95.38200000000001
 21
-36.58800000000002
  0
LINE
  5
107
100
AcDbEntity
  8
frame
  6
ByLayer
 62
  256
370
   -1
100
AcDbLine
 10
95.38200000000001
 20
-36.58800000000002
 11
95.255
 21
-36.512
  0
LINE
  5
108
100
AcDbEntity
  8
frame
  6
ByLayer
 62
  256
370
   -1
100
AcDbLine
 10
95.255
 20
-36.512
 11
95.179
 21
-36.46100000000001
  0
LINE
  5
109
100
AcDbEntity
  8
frame
  6
ByLayer
 62
  256
370
   -1
100
AcDbLine
 10
145.852
 20
-35.72500000000002
 11
145.852
 21
-36.58800000000002
  0
LINE
  5
10A
100
AcDbEntity
  8
frame
  6
ByLayer
 62
  256
370
   -1
100
AcDbLine
 10
145.547
 20
-35.21699999999998
 11
145.242
 21
-36.15600000000001
  0
LINE
  5
10B
100
AcDbEntity
  8
frame
  6
ByLayer
 62
  256
370
   -1
100
AcDbLine
 10
145.242
 20
-36.15600000000001
 11
146.03
 21
-36.15600000000001
  0
LINE
  5
10C
100
AcDbEntity
  8
frame
  6
ByLayer
 62
  256
370
   -1
100
AcDbLine
 10
195.915
 20
-35.29300000000001
 11
195.306
 21
-35.29300000000001
  0
LINE
  5
10D
100
AcDbEntity
  8
frame
  6
ByLayer
 62
  256
370
   -1
100
AcDbLine
 10
195.306
 20
-35.29300000000001
 11
195.255
 21
-35.90199999999999
  0
LINE
  5
10E
100
AcDbEntity
  8
frame
  6
ByLayer
 62
  256
370
   -1
100
AcDbLine
 10
195.255
 20
-35.90199999999999
 11
195.306
 21
-35.82600000000002
  0
LINE
  5
10F
100
AcDbEntity
  8
frame
  6
ByLayer
 62
  256
370
   -1
100
AcDbLine
 10
195.306
 20
-35.82600000000002
 11
195.433
 21
-35.77499999999998
  0
LINE
  5
110
100
AcDbEntity
  8
frame
  6
ByLayer
 62
  256
370
   -1
100
AcDbLine
 10
195.433
 20
-35.77499999999998
 11
195.737
 21
-35.77499999999998
  0
LINE
  5
111
100
AcDbEntity
  8
frame
  6
ByLayer
 62
  256
370
   -1
100
AcDbLine
 10
195.737
 20
-35.77499999999998
 11
195.864
 21
-35.82600000000002
  0
LINE
  5
112
100
AcDbEntity
  8
frame
  6
ByLayer
 62
  256
370
   -1
100
AcDbLine
 10
195.864
 20
-35.82600000000002
 11
195.915
 21
-35.90199999999999
  0
LINE
  5
113
100
AcDbEntity
  8
frame
  6
ByLayer
 62
  256
370
   -1
100
AcDbLine
 10
195.915
 20
-35.90199999999999
 11
195.991
 21
-36.029
  0
LINE
  5
114
100
AcDbEntity
  8
frame
  6
ByLayer
 62
  256
370
   -1
100
AcDbLine
 10
195.991
 20
-36.029
 11
195.991
 21
-36.334
  0
LINE
  5
115
100
AcDbEntity
  8
frame
  6
ByLayer
 62
  256
370
   -1
100
AcDbLine
 10
195.991
 20
-36.334
 11
195.915
 21
-36.46100000000001
  0
LINE
  5
116
100
AcDbEntity
  8
frame
  6
ByLayer
 62
  256
370
   -1
100
AcDbLine
 10
195.915
 20
-36.46100000000001
 11
195.864
 21
-36.512
  0
LINE
  5
117
100
AcDbEntity
  8
frame
  6
ByLayer
 62
  256
370
   -1
100
AcDbLine
 10
195.864
 20
-36.512
 11
195.737
 21
-36.58800000000002
  0
LINE
  5
118
100
AcDbEntity
  8
frame
  6
ByLayer
 62
  256
370
   -1
100
AcDbLine
 10
195.737
 20
-36.58800000000002
 11
195.433
 21
-36.58800000000002
  0
LINE
  5
119
100
AcDbEntity
  8
frame
  6
ByLayer
 62
  256
370
   -1
100
AcDbLine
 10
195.433
 20
-36.58800000000002
 11
195.306
 21
-36.512
  0
LINE
  5
11A
100
AcDbEntity
  8
frame
  6
ByLayer
 62
  256
370
   -1
100
AcDbLine
 10
195.306
 20
-36.512
 11
195.255
 21
-36.46100000000001
  0
LINE
  5
11B
100
AcDbEntity
  8
frame
  6
ByLayer
 62
  256
370
   -1
100
AcDbLine
 10
245.852
 20
-35.29300000000001
 11
245.598
 21
-35.29300000000001
  0
LINE
  5
11C
100
AcDbEntity
  8
frame
  6
ByLayer
 62
  256
370
   -1
100
AcDbLine
 10
245.598
 20
-35.29300000000001
 11
245.471
 21
-35.34399999999999
  0
LINE
  5
11D
100
AcDbEntity
  8
frame
  6
ByLayer
 62
  256
370
   -1
100
AcDbLine
 10
245.471
 20
-35.34399999999999
 11
245.42
 21
-35.39400000000001
  0
LINE
  5
11E
100
AcDbEntity
  8
frame
  6
ByLayer
 62
  256
370
   -1
100
AcDbLine
 10
245.42
 20
-35.39400000000001
 11
245.293
 21
-35.59800000000001
  0
LINE
  5
11F
100
AcDbEntity
  8
frame
  6
ByLayer
 62
  256
370
   -1
100
AcDbLine
 10
245.293
 20
-35.59800000000001
 11
245.242
 21
-35.82600000000002
  0
LINE
  5
120
100
AcDbEntity
  8
frame
  6
ByLayer
 62
  256
370
   -1
100
AcDbLine
 10
245.242
 20
-35.82600000000002
 11
245.242
 21
-36.334
  0
LINE
  5
121
100
AcDbEntity
  8
frame
  6
ByLayer
 62
  256
370
   -1
100
AcDbLine
 10
245.242
 20
-36.334
 11
245.293
 21
-36.46100000000001
  0
LINE
  5
122
100
AcDbEntity
  8
frame
  6
ByLayer
 62
  256
370
   -1
100
AcDbLine
 10
245.293
 20
-36.46100000000001
 11
245.369
 21
-36.512
  0
LINE
  5
123
100
AcDbEntity
  8
frame
  6
ByLayer
 62
  256
370
   -1
100
AcDbLine
 10
245.369
 20
-36.512
 11
245.471
 21
-36.58800000000002
  0
LINE
  5
124
100
AcDbEntity
  8
frame
  6
ByLayer
 62
  256
370
   -1
100
AcDbLine
 10
245.471
 20
-36.58800000000002
 11
245.725
 21
-36.58800000000002
  0
LINE
  5
125
100
AcDbEntity
  8
frame
  6
ByLayer
 62
  256
370
   -1
100
AcDbLine
 10
245.725
 20
-36.58800000000002
 11
245.852
 21
-36.512
  0
LINE
  5
126
100
AcDbEntity
  8
frame
  6
ByLayer
 62
  256
370
   -1
100
AcDbLine
 10
245.852
 20
-36.512
 11
245.902
 21
-36.46100000000001
  0
LINE
  5
127
100
AcDbEntity
  8
frame
  6
ByLayer
 62
  256
370
   -1
100
AcDbLine
 10
245.902
 20
-36.46100000000001
 11
245.979
 21
-36.334
  0
LINE
  5
128
100
AcDbEntity
  8
frame
  6
ByLayer
 62
  256
370
   -1
100
AcDbLine
 10
245.979
 20
-36.334
 11
245.979
 21
-36.029
  0
LINE
  5
129
100
AcDbEntity
  8
frame
  6
ByLayer
 62
  256
370
   -1
100
AcDbLine
 10
245.979
 20
-36.029
 11
245.902
 21
-35.90199999999999
  0
LINE
  5
12A
100
AcDbEntity
  8
frame
  6
ByLayer
 62
  256
370
   -1
100
AcDbLine
 10
245.902
 20
-35.90199999999999
 11
245.852
 21
-35.82600000000002
  0
LINE
  5
12B
100
AcDbEntity
  8
frame
  6
ByLayer
 62
  256
370
   -1
100
AcDbLine
 10
245.852
 20
-35.82600000000002
 11
245.725
 21
-35.77499999999998
  0
LINE
  5
12C
100
AcDbEntity
  8
frame
  6
ByLayer
 62
  256
370
   -1
100
AcDbLine
 10
245.725
 20
-35.77499999999998
 11
245.471
 21
-35.77499999999998
  0
LINE
  5
12D
100
AcDbEntity
  8
frame
  6
ByLayer
 62
  256
370
   -1
100
AcDbLine
 10
245.471
 20
-35.77499999999998
 11
245.369
 21
-35.82600000000002
  0
LINE
  5
12E
100
AcDbEntity
  8
frame
  6
ByLayer
 62
  256
370
   -1
100
AcDbLine
 10
245.369
 20
-35.82600000000002
 11
245.293
 21
-35.90199999999999
  0
LINE
  5
12F
100
AcDbEntity
  8
frame
  6
ByLayer
 62
  256
370
   -1
100
AcDbLine
 10
245.293
 20
-35.90199999999999
 11
245.242
 21
-36.029
  0
LINE
  5
130
100
AcDbEntity
  8
frame
  6
ByLayer
 62
  256
370
   -1
100
AcDbLine
 10
295.178
 20
-35.29300000000001
 11
296.042
 21
-35.29300000000001
  0
LINE
  5
131
100
AcDbEntity
  8
frame
  6
ByLayer
 62
  256
370
   -1
100
AcDbLine
 10
296.042
 20
-35.29300000000001
 11
295.483
 21
-36.58800000000002
  0
LINE
  5
132
100
AcDbEntity
  8
frame
  6
ByLayer
 62
  256
370
   -1
100
AcDbLine
 10
345.47
 20
-35.82600000000002
 11
345.369
 21
-35.77499999999998
  0
LINE
  5
133
100
AcDbEntity
  8
frame
  6
ByLayer
 62
  256
370
   -1
100
AcDbLine
 10
345.369
 20
-35.77499999999998
 11
345.293
 21
-35.72500000000002
  0
LINE
  5
134
100
AcDbEntity
  8
frame
  6
ByLayer
 62
  256
370
   -1
100
AcDbLine
 10
345.293
 20
-35.72500000000002
 11
345.242
 21
-35.59800000000001
  0
LINE
  5
135
100
AcDbEntity
  8
frame
  6
ByLayer
 62
  256
370
   -1
100
AcDbLine
 10
345.242
 20
-35.59800000000001
 11
345.242
 21
-35.52100000000002
  0
LINE
  5
136
100
AcDbEntity
  8
frame
  6
ByLayer
 62
  256
370
   -1
100
AcDbLine
 10
345.242
 20
-35.52100000000002
 11
345.293
 21
-35.39400000000001
  0
LINE
  5
137
100
AcDbEntity
  8
frame
  6
ByLayer
 62
  256
370
   -1
100
AcDbLine
 10
345.293
 20
-35.39400000000001
 11
345.369
 21
-35.34399999999999
  0
LINE
  5
138
100
AcDbEntity
  8
frame
  6
ByLayer
 62
  256
370
   -1
100
AcDbLine
 10
345.369
 20
-35.34399999999999
 11
345.47
 21
-35.29300000000001
  0
LINE
  5
139
100
AcDbEntity
  8
frame
  6
ByLayer
 62
  256
370
   -1
100
AcDbLine
 10
345.47
 20
-35.29300000000001
 11
345.724
 21
-35.29300000000001
  0
LINE
  5
13A
100
AcDbEntity
  8
frame
  6
ByLayer
 62
  256
370
   -1
100
AcDbLine
 10
345.724
 20
-35.29300000000001
 11
345.851
 21
-35.34399999999999
  0
LINE
  5
13B
100
AcDbEntity
  8
frame
  6
ByLayer
 62
  256
370
   -1
100
AcDbLine
 10
345.851
 20
-35.34399999999999
 11
345.902
 21
-35.39400000000001
  0
LINE
  5
13C
100
AcDbEntity
  8
frame
  6
ByLayer
 62
  256
370
   -1
100
AcDbLine
 10
345.902
 20
-35.39400000000001
 11
345.978
 21
-35.52100000000002
  0
LINE
  5
13D
100
AcDbEntity
  8
frame
  6
ByLayer
 62
  256
370
   -1
100
AcDbLine
 10
345.978
 20
-35.52100000000002
 11
345.978
 21
-35.59800000000001
  0
LINE
  5
13E
100
AcDbEntity
  8
frame
  6
ByLayer
 62
  256
370
   -1
100
AcDbLine
 10
345.978
 20
-35.59800000000001
 11
345.902
 21
-35.72500000000002
  0
LINE
  5
13F
100
AcDbEntity
  8
frame
  6
ByLayer
 62
  256
370
   -1
100
AcDbLine
 10
345.902
 20
-35.72500000000002
 11
345.851
 21
-35.77499999999998
  0
LINE
  5
140
100
AcDbEntity
  8
frame
  6
ByLayer
 62
  256
370
   -1
100
AcDbLine
 10
345.851
 20
-35.77499999999998
 11
345.724
 21
-35.82600000000002
  0
LINE
  5
141
100
AcDbEntity
  8
frame
  6
ByLayer
 62
  256
370
   -1
100
AcDbLine
 10
345.724
 20
-35.82600000000002
 11
345.47
 21
-35.82600000000002
  0
LINE
  5
142
100
AcDbEntity
  8
frame
  6
ByLayer
 62
  256
370
   -1
100
AcDbLine
 10
345.47
 20
-35.82600000000002
 11
345.369
 21
-35.90199999999999
  0
LINE
  5
143
100
AcDbEntity
  8
frame
  6
ByLayer
 62
  256
370
   -1
100
AcDbLine
 10
345.369
 20
-35.90199999999999
 11
345.293
 21
-35.95299999999997
  0
LINE
  5
144
100
AcDbEntity
  8
frame
  6
ByLayer
 62
  256
370
   -1
100
AcDbLine
 10
345.293
 20
-35.95299999999997
 11
345.242
 21
-36.07999999999998
  0
LINE
  5
145
100
AcDbEntity
  8
frame
  6
ByLayer
 62
  256
370
   -1
100
AcDbLine
 10
345.242
 20
-36.07999999999998
 11
345.242
 21
-36.334
  0
LINE
  5
146
100
AcDbEntity
  8
frame
  6
ByLayer
 62
  256
370
   -1
100
AcDbLine
 10
345.242
 20
-36.334
 11
345.293
 21
-36.46100000000001
  0
LINE
  5
147
100
AcDbEntity
  8
frame
  6
ByLayer
 62
  256
370
   -1
100
AcDbLine
 10
345.293
 20
-36.46100000000001
 11
345.369
 21
-36.512
  0
LINE
  5
148
100
AcDbEntity
  8
frame
  6
ByLayer
 62
  256
370
   -1
100
AcDbLine
 10
345.369
 20
-36.512
 11
345.47
 21
-36.58800000000002
  0
LINE
  5
149
100
AcDbEntity
  8
frame
  6
ByLayer
 62
  256
370
   -1
100
AcDbLine
 10
345.47
 20
-36.58800000000002
 11
345.724
 21
-36.58800000000002
  0
LINE
  5
14A
100
AcDbEntity
  8
frame
  6
ByLayer
 62
  256
370
   -1
100
AcDbLine
 10
345.724
 20
-36.58800000000002
 11
345.851
 21
-36.512
  0
LINE
  5
14B
100
AcDbEntity
  8
frame
  6
ByLayer
 62
  256
370
   -1
100
AcDbLine
 10
345.851
 20
-36.512
 11
345.902
 21
-36.46100000000001
  0
LINE
  5
14C
100
AcDbEntity
  8
frame
  6
ByLayer
 62
  256
370
   -1
100
AcDbLine
 10
345.902
 20
-36.46100000000001
 11
345.978
 21
-36.334
  0
LINE
  5
14D
100
AcDbEntity
  8
frame
  6
ByLayer
 62
  256
370
   -1
100
AcDbLine
 10
345.978
 20
-36.334
 11
345.978
 21
-36.07999999999998
  0
LINE
  5
14E
100
AcDbEntity
  8
frame
  6
ByLayer
 62
  256
370
   -1
100
AcDbLine
 10
345.978
 20
-36.07999999999998
 11
345.902
 21
-35.95299999999997
  0
LINE
  5
14F
100
AcDbEntity
  8
frame
  6
ByLayer
 62
  256
370
   -1
100
AcDbLine
 10
345.902
 20
-35.95299999999997
 11
345.851
 21
-35.90199999999999
  0
LINE
  5
150
100
AcDbEntity
  8
frame
  6
ByLayer
 62
  256
370
   -1
100
AcDbLine
 10
345.851
 20
-35.90199999999999
 11
345.724
 21
-35.82600000000002
  0
LINE
  5
151
100
AcDbEntity
  8
frame
  6
ByLayer
 62
  256
370
   -1
100
AcDbLine
 10
-29.9924
 20
190.0052
 11
-28.0112
 21
190.0052
  0
LINE
  5
152
100
AcDbEntity
  8
frame
  6
ByLayer
 62
  256
370
   -1
100
AcDbLine
 10
-29.9924
 20
139.993
 11
-28.0112
 21
139.993
  0
LINE
  5
153
100
AcDbEntity
  8
frame
  6
ByLayer
 62
  256
370
   -1
100
AcDbLine
 10
-29.9924
 20
90.005
 11
-28.0112
 21
90.005
  0
LINE
  5
154
100
AcDbEntity
  8
frame
  6
ByLayer
 62
  256
370
   -1
100
AcDbLine
 10
-29.9924
 20
39.99299999999999
 11
-28.0112
 21
39.99299999999999
  0
LINE
  5
155
100
AcDbEntity
  8
frame
  6
ByLayer
 62
  256
370
   -1
100
AcDbLine
 10
-29.9924
 20
-9.994000000000028
 11
-28.0112
 21
-9.994000000000028
  0
LINE
  5
156
100
AcDbEntity
  8
frame
  6
ByLayer
 62
  256
370
   -1
100
AcDbLine
 10
-29.3066
 20
214.7956
 11
-28.697
 21
214.7956
  0
LINE
  5
157
100
AcDbEntity
  8
frame
  6
ByLayer
 62
  256
370
   -1
100
AcDbLine
 10
-29.4336
 20
214.4146
 11
-29.0018
 21
215.71
  0
LINE
  5
158
100
AcDbEntity
  8
frame
  6
ByLayer
 62
  256
370
   -1
100
AcDbLine
 10
-29.0018
 20
215.71
 11
-28.57
 21
214.4146
  0
LINE
  5
159
100
AcDbEntity
  8
frame
  6
ByLayer
 62
  256
370
   -1
100
AcDbLine
 10
-28.9002
 20
165.1132
 11
-28.7224
 21
165.0624
  0
LINE
  5
15A
100
AcDbEntity
  8
frame
  6
ByLayer
 62
  256
370
   -1
100
AcDbLine
 10
-28.7224
 20
165.0624
 11
-28.6462
 21
164.9862
  0
LINE
  5
15B
100
AcDbEntity
  8
frame
  6
ByLayer
 62
  256
370
   -1
100
AcDbLine
 10
-28.6462
 20
164.9862
 11
-28.5954
 21
164.8592
  0
LINE
  5
15C
100
AcDbEntity
  8
frame
  6
ByLayer
 62
  256
370
   -1
100
AcDbLine
 10
-28.5954
 20
164.8592
 11
-28.5954
 21
164.6814
  0
LINE
  5
15D
100
AcDbEntity
  8
frame
  6
ByLayer
 62
  256
370
   -1
100
AcDbLine
 10
-28.5954
 20
164.6814
 11
-28.6462
 21
164.5544
  0
LINE
  5
15E
100
AcDbEntity
  8
frame
  6
ByLayer
 62
  256
370
   -1
100
AcDbLine
 10
-28.6462
 20
164.5544
 11
-28.7224
 21
164.5036
  0
LINE
  5
15F
100
AcDbEntity
  8
frame
  6
ByLayer
 62
  256
370
   -1
100
AcDbLine
 10
-28.7224
 20
164.5036
 11
-28.824
 21
164.4274
  0
LINE
  5
160
100
AcDbEntity
  8
frame
  6
ByLayer
 62
  256
370
   -1
100
AcDbLine
 10
-28.824
 20
164.4274
 11
-29.332
 21
164.4274
  0
LINE
  5
161
100
AcDbEntity
  8
frame
  6
ByLayer
 62
  256
370
   -1
100
AcDbLine
 10
-29.332
 20
164.4274
 11
-29.332
 21
165.7228
  0
LINE
  5
162
100
AcDbEntity
  8
frame
  6
ByLayer
 62
  256
370
   -1
100
AcDbLine
 10
-29.332
 20
165.7228
 11
-28.9002
 21
165.7228
  0
LINE
  5
163
100
AcDbEntity
  8
frame
  6
ByLayer
 62
  256
370
   -1
100
AcDbLine
 10
-28.9002
 20
165.7228
 11
-28.7732
 21
165.672
  0
LINE
  5
164
100
AcDbEntity
  8
frame
  6
ByLayer
 62
  256
370
   -1
100
AcDbLine
 10
-28.7732
 20
165.672
 11
-28.7224
 21
165.6212
  0
LINE
  5
165
100
AcDbEntity
  8
frame
  6
ByLayer
 62
  256
370
   -1
100
AcDbLine
 10
-28.7224
 20
165.6212
 11
-28.6462
 21
165.4942
  0
LINE
  5
166
100
AcDbEntity
  8
frame
  6
ByLayer
 62
  256
370
   -1
100
AcDbLine
 10
-28.6462
 20
165.4942
 11
-28.6462
 21
165.3672
  0
LINE
  5
167
100
AcDbEntity
  8
frame
  6
ByLayer
 62
  256
370
   -1
100
AcDbLine
 10
-28.6462
 20
165.3672
 11
-28.7224
 21
165.2402
  0
LINE
  5
168
100
AcDbEntity
  8
frame
  6
ByLayer
 62
  256
370
   -1
100
AcDbLine
 10
-28.7224
 20
165.2402
 11
-28.7732
 21
165.1894
  0
LINE
  5
169
100
AcDbEntity
  8
frame
  6
ByLayer
 62
  256
370
   -1
100
AcDbLine
 10
-28.7732
 20
165.1894
 11
-28.9002
 21
165.1132
  0
LINE
  5
16A
100
AcDbEntity
  8
frame
  6
ByLayer
 62
  256
370
   -1
100
AcDbLine
 10
-28.9002
 20
165.1132
 11
-29.332
 21
165.1132
  0
LINE
  5
16B
100
AcDbEntity
  8
frame
  6
ByLayer
 62
  256
370
   -1
100
AcDbLine
 10
-28.5954
 20
114.542
 11
-28.6462
 21
114.491
  0
LINE
  5
16C
100
AcDbEntity
  8
frame
  6
ByLayer
 62
  256
370
   -1
100
AcDbLine
 10
-28.6462
 20
114.491
 11
-28.824
 21
114.415
  0
LINE
  5
16D
100
AcDbEntity
  8
frame
  6
ByLayer
 62
  256
370
   -1
100
AcDbLine
 10
-28.824
 20
114.415
 11
-28.951
 21
114.415
  0
LINE
  5
16E
100
AcDbEntity
  8
frame
  6
ByLayer
 62
  256
370
   -1
100
AcDbLine
 10
-28.951
 20
114.415
 11
-29.1542
 21
114.491
  0
LINE
  5
16F
100
AcDbEntity
  8
frame
  6
ByLayer
 62
  256
370
   -1
100
AcDbLine
 10
-29.1542
 20
114.491
 11
-29.2558
 21
114.618
  0
LINE
  5
170
100
AcDbEntity
  8
frame
  6
ByLayer
 62
  256
370
   -1
100
AcDbLine
 10
-29.2558
 20
114.618
 11
-29.332
 21
114.745
  0
LINE
  5
171
100
AcDbEntity
  8
frame
  6
ByLayer
 62
  256
370
   -1
100
AcDbLine
 10
-29.332
 20
114.745
 11
-29.3828
 21
114.974
  0
LINE
  5
172
100
AcDbEntity
  8
frame
  6
ByLayer
 62
  256
370
   -1
100
AcDbLine
 10
-29.3828
 20
114.974
 11
-29.3828
 21
115.177
  0
LINE
  5
173
100
AcDbEntity
  8
frame
  6
ByLayer
 62
  256
370
   -1
100
AcDbLine
 10
-29.3828
 20
115.177
 11
-29.332
 21
115.405
  0
LINE
  5
174
100
AcDbEntity
  8
frame
  6
ByLayer
 62
  256
370
   -1
100
AcDbLine
 10
-29.332
 20
115.405
 11
-29.2558
 21
115.532
  0
LINE
  5
175
100
AcDbEntity
  8
frame
  6
ByLayer
 62
  256
370
   -1
100
AcDbLine
 10
-29.2558
 20
115.532
 11
-29.1542
 21
115.659
  0
LINE
  5
176
100
AcDbEntity
  8
frame
  6
ByLayer
 62
  256
370
   -1
100
AcDbLine
 10
-29.1542
 20
115.659
 11
-28.951
 21
115.71
  0
LINE
  5
177
100
AcDbEntity
  8
frame
  6
ByLayer
 62
  256
370
   -1
100
AcDbLine
 10
-28.951
 20
115.71
 11
-28.824
 21
115.71
  0
LINE
  5
178
100
AcDbEntity
  8
frame
  6
ByLayer
 62
  256
370
   -1
100
AcDbLine
 10
-28.824
 20
115.71
 11
-28.6462
 21
115.659
  0
LINE
  5
179
100
AcDbEntity
  8
frame
  6
ByLayer
 62
  256
370
   -1
100
AcDbLine
 10
-28.6462
 20
115.659
 11
-28.5954
 21
115.609
  0
LINE
  5
17A
100
AcDbEntity
  8
frame
  6
ByLayer
 62
  256
370
   -1
100
AcDbLine
 10
-29.332
 20
64.428
 11
-29.332
 21
65.72300000000001
  0
LINE
  5
17B
100
AcDbEntity
  8
frame
  6
ByLayer
 62
  256
370
   -1
100
AcDbLine
 10
-29.332
 20
65.72300000000001
 11
-29.0272
 21
65.72300000000001
  0
LINE
  5
17C
100
AcDbEntity
  8
frame
  6
ByLayer
 62
  256
370
   -1
100
AcDbLine
 10
-29.0272
 20
65.72300000000001
 11
-28.824
 21
65.672
  0
LINE
  5
17D
100
AcDbEntity
  8
frame
  6
ByLayer
 62
  256
370
   -1
100
AcDbLine
 10
-28.824
 20
65.672
 11
-28.7224
 21
65.54499999999999
  0
LINE
  5
17E
100
AcDbEntity
  8
frame
  6
ByLayer
 62
  256
370
   -1
100
AcDbLine
 10
-28.7224
 20
65.54499999999999
 11
-28.6462
 21
65.41800000000001
  0
LINE
  5
17F
100
AcDbEntity
  8
frame
  6
ByLayer
 62
  256
370
   -1
100
AcDbLine
 10
-28.6462
 20
65.41800000000001
 11
-28.5954
 21
65.19
  0
LINE
  5
180
100
AcDbEntity
  8
frame
  6
ByLayer
 62
  256
370
   -1
100
AcDbLine
 10
-28.5954
 20
65.19
 11
-28.5954
 21
64.98599999999999
  0
LINE
  5
181
100
AcDbEntity
  8
frame
  6
ByLayer
 62
  256
370
   -1
100
AcDbLine
 10
-28.5954
 20
64.98599999999999
 11
-28.6462
 21
64.75800000000001
  0
LINE
  5
182
100
AcDbEntity
  8
frame
  6
ByLayer
 62
  256
370
   -1
100
AcDbLine
 10
-28.6462
 20
64.75800000000001
 11
-28.7224
 21
64.631
  0
LINE
  5
183
100
AcDbEntity
  8
frame
  6
ByLayer
 62
  256
370
   -1
100
AcDbLine
 10
-28.7224
 20
64.631
 11
-28.824
 21
64.50399999999999
  0
LINE
  5
184
100
AcDbEntity
  8
frame
  6
ByLayer
 62
  256
370
   -1
100
AcDbLine
 10
-28.824
 20
64.50399999999999
 11
-29.0272
 21
64.428
  0
LINE
  5
185
100
AcDbEntity
  8
frame
  6
ByLayer
 62
  256
370
   -1
100
AcDbLine
 10
-29.0272
 20
64.428
 11
-29.332
 21
64.428
  0
LINE
  5
186
100
AcDbEntity
  8
frame
  6
ByLayer
 62
  256
370
   -1
100
AcDbLine
 10
-29.2812
 20
15.101
 11
-28.8494
 21
15.101
  0
LINE
  5
187
100
AcDbEntity
  8
frame
  6
ByLayer
 62
  256
370
   -1
100
AcDbLine
 10
-28.6716
 20
14.41499999999999
 11
-29.2812
 21
14.41499999999999
  0
LINE
  5
188
100
AcDbEntity
  8
frame
  6
ByLayer
 62
  256
370
   -1
100
AcDbLine
 10
-29.2812
 20
14.41499999999999
 11
-29.2812
 21
15.71000000000001
  0
LINE
  5
189
100
AcDbEntity
  8
frame
  6
ByLayer
 62
  256
370
   -1
100
AcDbLine
 10
-29.2812
 20
15.71000000000001
 11
-28.6716
 21
15.71000000000001
  0
LINE
  5
18A
100
AcDbEntity
  8
frame
  6
ByLayer
 62
  256
370
   -1
100
AcDbLine
 10
-28.824
 20
-34.88600000000002
 11
-29.2558
 21
-34.88600000000002
  0
LINE
  5
18B
100
AcDbEntity
  8
frame
  6
ByLayer
 62
  256
370
   -1
100
AcDbLine
 10
-29.2558
 20
-35.572
 11
-29.2558
 21
-34.27699999999999
  0
LINE
  5
18C
100
AcDbEntity
  8
frame
  6
ByLayer
 62
  256
370
   -1
100
AcDbLine
 10
-29.2558
 20
-34.27699999999999
 11
-28.6462
 21
-34.27699999999999
  0
LINE
  5
18D
100
AcDbEntity
  8
frame
  6
ByLayer
 62
  256
370
   -1
100
AcDbLine
 10
369.981
 20
190.0052
 11
368
 21
190.0052
  0
LINE
  5
18E
100
AcDbEntity
  8
frame
  6
ByLayer
 62
  256
370
   -1
100
AcDbLine
 10
369.981
 20
139.993
 11
368
 21
139.993
  0
LINE
  5
18F
100
AcDbEntity
  8
frame
  6
ByLayer
 62
  256
370
   -1
100
AcDbLine
 10
369.981
 20
90.005
 11
368
 21
90.005
  0
LINE
  5
190
100
AcDbEntity
  8
frame
  6
ByLayer
 62
  256
370
   -1
100
AcDbLine
 10
369.981
 20
39.99299999999999
 11
368
 21
39.99299999999999
  0
LINE
  5
191
100
AcDbEntity
  8
frame
  6
ByLayer
 62
  256
370
   -1
100
AcDbLine
 10
369.981
 20
-9.994000000000028
 11
368
 21
-9.994000000000028
  0
LINE
  5
192
100
AcDbEntity
  8
frame
  6
ByLayer
 62
  256
370
   -1
100
AcDbLine
 10
368.686
 20
214.7956
 11
369.296
 21
214.7956
  0
LINE
  5
193
100
AcDbEntity
  8
frame
  6
ByLayer
 62
  256
370
   -1
100
AcDbLine
 10
368.559
 20
214.4146
 11
368.991
 21
215.71
  0
LINE
  5
194
100
AcDbEntity
  8
frame
  6
ByLayer
 62
  256
370
   -1
100
AcDbLine
 10
368.991
 20
215.71
 11
369.423
 21
214.4146
  0
LINE
  5
195
100
AcDbEntity
  8
frame
  6
ByLayer
 62
  256
370
   -1
100
AcDbLine
 10
369.092
 20
165.1132
 11
369.27
 21
165.0624
  0
LINE
  5
196
100
AcDbEntity
  8
frame
  6
ByLayer
 62
  256
370
   -1
100
AcDbLine
 10
369.27
 20
165.0624
 11
369.346
 21
164.9862
  0
LINE
  5
197
100
AcDbEntity
  8
frame
  6
ByLayer
 62
  256
370
   -1
100
AcDbLine
 10
369.346
 20
164.9862
 11
369.397
 21
164.8592
  0
LINE
  5
198
100
AcDbEntity
  8
frame
  6
ByLayer
 62
  256
370
   -1
100
AcDbLine
 10
369.397
 20
164.8592
 11
369.397
 21
164.6814
  0
LINE
  5
199
100
AcDbEntity
  8
frame
  6
ByLayer
 62
  256
370
   -1
100
AcDbLine
 10
369.397
 20
164.6814
 11
369.346
 21
164.5544
  0
LINE
  5
19A
100
AcDbEntity
  8
frame
  6
ByLayer
 62
  256
370
   -1
100
AcDbLine
 10
369.346
 20
164.5544
 11
369.27
 21
164.5036
  0
LINE
  5
19B
100
AcDbEntity
  8
frame
  6
ByLayer
 62
  256
370
   -1
100
AcDbLine
 10
369.27
 20
164.5036
 11
369.169
 21
164.4274
  0
LINE
  5
19C
100
AcDbEntity
  8
frame
  6
ByLayer
 62
  256
370
   -1
100
AcDbLine
 10
369.169
 20
164.4274
 11
368.661
 21
164.4274
  0
LINE
  5
19D
100
AcDbEntity
  8
frame
  6
ByLayer
 62
  256
370
   -1
100
AcDbLine
 10
368.661
 20
164.4274
 11
368.661
 21
165.7228
  0
LINE
  5
19E
100
AcDbEntity
  8
frame
  6
ByLayer
 62
  256
370
   -1
100
AcDbLine
 10
368.661
 20
165.7228
 11
369.092
 21
165.7228
  0
LINE
  5
19F
100
AcDbEntity
  8
frame
  6
ByLayer
 62
  256
370
   -1
100
AcDbLine
 10
369.092
 20
165.7228
 11
369.219
 21
165.672
  0
LINE
  5
1A0
100
AcDbEntity
  8
frame
  6
ByLayer
 62
  256
370
   -1
100
AcDbLine
 10
369.219
 20
165.672
 11
369.27
 21
165.6212
  0
LINE
  5
1A1
100
AcDbEntity
  8
frame
  6
ByLayer
 62
  256
370
   -1
100
AcDbLine
 10
369.27
 20
165.6212
 11
369.346
 21
165.4942
  0
LINE
  5
1A2
100
AcDbEntity
  8
frame
  6
ByLayer
 62
  256
370
   -1
100
AcDbLine
 10
369.346
 20
165.4942
 11
369.346
 21
165.3672
  0
LINE
  5
1A3
100
AcDbEntity
  8
frame
  6
ByLayer
 62
  256
370
   -1
100
AcDbLine
 10
369.346
 20
165.3672
 11
369.27
 21
165.2402
  0
LINE
  5
1A4
100
AcDbEntity
  8
frame
  6
ByLayer
 62
  256
370
   -1
100
AcDbLine
 10
369.27
 20
165.2402
 11
369.219
 21
165.1894
  0
LINE
  5
1A5
100
AcDbEntity
  8
frame
  6
ByLayer
 62
  256
370
   -1
100
AcDbLine
 10
369.219
 20
165.1894
 11
369.092
 21
165.1132
  0
LINE
  5
1A6
100
AcDbEntity
  8
frame
  6
ByLayer
 62
  256
370
   -1
100
AcDbLine
 10
369.092
 20
165.1132
 11
368.661
 21
165.1132
  0
LINE
  5
1A7
100
AcDbEntity
  8
frame
  6
ByLayer
 62
  256
370
   -1
100
AcDbLine
 10
369.397
 20
114.542
 11
369.346
 21
114.491
  0
LINE
  5
1A8
100
AcDbEntity
  8
frame
  6
ByLayer
 62
  256
370
   -1
100
AcDbLine
 10
369.346
 20
114.491
 11
369.169
 21
114.415
  0
LINE
  5
1A9
100
AcDbEntity
  8
frame
  6
ByLayer
 62
  256
370
   -1
100
AcDbLine
 10
369.169
 20
114.415
 11
369.042
 21
114.415
  0
LINE
  5
1AA
100
AcDbEntity
  8
frame
  6
ByLayer
 62
  256
370
   -1
100
AcDbLine
 10
369.042
 20
114.415
 11
368.838
 21
114.491
  0
LINE
  5
1AB
100
AcDbEntity
  8
frame
  6
ByLayer
 62
  256
370
   -1
100
AcDbLine
 10
368.838
 20
114.491
 11
368.737
 21
114.618
  0
LINE
  5
1AC
100
AcDbEntity
  8
frame
  6
ByLayer
 62
  256
370
   -1
100
AcDbLine
 10
368.737
 20
114.618
 11
368.661
 21
114.745
  0
LINE
  5
1AD
100
AcDbEntity
  8
frame
  6
ByLayer
 62
  256
370
   -1
100
AcDbLine
 10
368.661
 20
114.745
 11
368.61
 21
114.974
  0
LINE
  5
1AE
100
AcDbEntity
  8
frame
  6
ByLayer
 62
  256
370
   -1
100
AcDbLine
 10
368.61
 20
114.974
 11
368.61
 21
115.177
  0
LINE
  5
1AF
100
AcDbEntity
  8
frame
  6
ByLayer
 62
  256
370
   -1
100
AcDbLine
 10
368.61
 20
115.177
 11
368.661
 21
115.405
  0
LINE
  5
1B0
100
AcDbEntity
  8
frame
  6
ByLayer
 62
  256
370
   -1
100
AcDbLine
 10
368.661
 20
115.405
 11
368.737
 21
115.532
  0
LINE
  5
1B1
100
AcDbEntity
  8
frame
  6
ByLayer
 62
  256
370
   -1
100
AcDbLine
 10
368.737
 20
115.532
 11
368.838
 21
115.659
  0
LINE
  5
1B2
100
AcDbEntity
  8
frame
  6
ByLayer
 62
  256
370
   -1
100
AcDbLine
 10
368.838
 20
115.659
 11
369.042
 21
115.71
  0
LINE
  5
1B3
100
AcDbEntity
  8
frame
  6
ByLayer
 62
  256
370
   -1
100
AcDbLine
 10
369.042
 20
115.71
 11
369.169
 21
115.71
  0
LINE
  5
1B4
100
AcDbEntity
  8
frame
  6
ByLayer
 62
  256
370
   -1
100
AcDbLine
 10
369.169
 20
115.71
 11
369.346
 21
115.659
  0
LINE
  5
1B5
100
AcDbEntity
  8
frame
  6
ByLayer
 62
  256
370
   -1
100
AcDbLine
 10
369.346
 20
115.659
 11
369.397
 21
115.609
  0
LINE
  5
1B6
100
AcDbEntity
  8
frame
  6
ByLayer
 62
  256
370
   -1
100
AcDbLine
 10
368.661
 20
64.428
 11
368.661
 21
65.72300000000001
  0
LINE
  5
1B7
100
AcDbEntity
  8
frame
  6
ByLayer
 62
  256
370
   -1
100
AcDbLine
 10
368.661
 20
65.72300000000001
 11
368.965
 21
65.72300000000001
  0
LINE
  5
1B8
100
AcDbEntity
  8
frame
  6
ByLayer
 62
  256
370
   -1
100
AcDbLine
 10
368.965
 20
65.72300000000001
 11
369.169
 21
65.672
  0
LINE
  5
1B9
100
AcDbEntity
  8
frame
  6
ByLayer
 62
  256
370
   -1
100
AcDbLine
 10
369.169
 20
65.672
 11
369.27
 21
65.54499999999999
  0
LINE
  5
1BA
100
AcDbEntity
  8
frame
  6
ByLayer
 62
  256
370
   -1
100
AcDbLine
 10
369.27
 20
65.54499999999999
 11
369.346
 21
65.41800000000001
  0
LINE
  5
1BB
100
AcDbEntity
  8
frame
  6
ByLayer
 62
  256
370
   -1
100
AcDbLine
 10
369.346
 20
65.41800000000001
 11
369.397
 21
65.19
  0
LINE
  5
1BC
100
AcDbEntity
  8
frame
  6
ByLayer
 62
  256
370
   -1
100
AcDbLine
 10
369.397
 20
65.19
 11
369.397
 21
64.98599999999999
  0
LINE
  5
1BD
100
AcDbEntity
  8
frame
  6
ByLayer
 62
  256
370
   -1
100
AcDbLine
 10
369.397
 20
64.98599999999999
 11
369.346
 21
64.75800000000001
  0
LINE
  5
1BE
100
AcDbEntity
  8
frame
  6
ByLayer
 62
  256
370
   -1
100
AcDbLine
 10
369.346
 20
64.75800000000001
 11
369.27
 21
64.631
  0
LINE
  5
1BF
100
AcDbEntity
  8
frame
  6
ByLayer
 62
  256
370
   -1
100
AcDbLine
 10
369.27
 20
64.631
 11
369.169
 21
64.50399999999999
  0
LINE
  5
1C0
100
AcDbEntity
  8
frame
  6
ByLayer
 62
  256
370
   -1
100
AcDbLine
 10
369.169
 20
64.50399999999999
 11
368.965
 21
64.428
  0
LINE
  5
1C1
100
AcDbEntity
  8
frame
  6
ByLayer
 62
  256
370
   -1
100
AcDbLine
 10
368.965
 20
64.428
 11
368.661
 21
64.428
  0
LINE
  5
1C2
100
AcDbEntity
  8
frame
  6
ByLayer
 62
  256
370
   -1
100
AcDbLine
 10
368.711
 20
15.101
 11
369.143
 21
15.101
  0
LINE
  5
1C3
100
AcDbEntity
  8
frame
  6
ByLayer
 62
  256
370
   -1
100
AcDbLine
 10
369.321
 20
14.41499999999999
 11
368.711
 21
14.41499999999999
  0
LINE
  5
1C4
100
AcDbEntity
  8
frame
  6
ByLayer
 62
  256
370
   -1
100
AcDbLine
 10
368.711
 20
14.41499999999999
 11
368.711
 21
15.71000000000001
  0
LINE
  5
1C5
100
AcDbEntity
  8
frame
  6
ByLayer
 62
  256
370
   -1
100
AcDbLine
 10
368.711
 20
15.71000000000001
 11
369.321
 21
15.71000000000001
  0
LINE
  5
1C6
100
AcDbEntity
  8
frame
  6
ByLayer
 62
  256
370
   -1
100
AcDbLine
 10
369.169
 20
-34.88600000000002
 11
368.737
 21
-34.88600000000002
  0
LINE
  5
1C7
100
AcDbEntity
  8
frame
  6
ByLayer
 62
  256
370
   -1
100
AcDbLine
 10
368.737
 20
-35.572
 11
368.737
 21
-34.27699999999999
  0
LINE
  5
1C8
100
AcDbEntity
  8
frame
  6
ByLayer
 62
  256
370
   -1
100
AcDbLine
 10
368.737
 20
-34.27699999999999
 11
369.346
 21
-34.27699999999999
  0
LINE
  5
1C9
100
AcDbEntity
  8
frame
  6
ByLayer
 62
  256
370
   -1
100
AcDbLine
 10
259.999
 20
-31.50799999999998
 11
368
 21
-31.50799999999998
  0
LINE
  5
1CA
100
AcDbEntity
  8
frame
  6
ByLayer
 62
  256
370
   -1
100
AcDbLine
 10
259.999
 20
-28.51100000000002
 11
368
 21
-28.51100000000002
  0
LINE
  5
1CB
100
AcDbEntity
  8
frame
  6
ByLayer
 62
  256
370
   -1
100
AcDbLine
 10
259.999
 20
-24.49799999999999
 11
368
 21
-24.49799999999999
  0
LINE
  5
1CC
100
AcDbEntity
  8
frame
  6
ByLayer
 62
  256
370
   -1
100
AcDbLine
 10
259.999
 20
-18.50299999999999
 11
368
 21
-18.50299999999999
  0
LINE
  5
1CD
100
AcDbEntity
  8
frame
  6
ByLayer
 62
  256
370
   -1
100
AcDbLine
 10
279.989
 20
-28.51100000000002
 11
279.989
 21
-31.50799999999998
  0
LINE
  5
1CE
100
AcDbEntity
  8
frame
  6
ByLayer
 62
  256
370
   -1
100
AcDbLine
 10
343.997
 20
-28.51100000000002
 11
343.997
 21
-35.01299999999998
  0
MTEXT
  5
1CF
100
AcDbEntity
  8
text
  6
ByLayer
 62
  256
370
   -1
100
AcDbMText
 10
261
 20
-32
 30
0
 40
2
 41
19.94444444444466
 71
    1
 72
    1
  1
LibreCAD v2.1.2
  7
STANDARD
210
0
220
0
230
1
 50
0
 73
    2
 44
1
  0
MTEXT
  5
1D0
100
AcDbEntity
  8
text
  6
ByLayer
 62
  256
370
   -1
100
AcDbMText
 10
261
 20
-19
 30
0
 40
2
 41
10.83333290932913
 71
    1
 72
    1
  1
Sheet: /
  7
STANDARD
210
0
220
0
230
1
 50
0
 73
    2
 44
1
  0
MTEXT
  5
1D1
100
AcDbEntity
  8
text
  6
ByLayer
 62
  256
370
   -1
100
AcDbMText
 10
281
 20
-29
 30
0
 40
2
 41
24.72222222222244
 71
    1
 72
    1
  1
Date: 2019. 09. 29.
  7
STANDARD
210
0
220
0
230
1
 50
0
 73
    2
 44
1
  0
MTEXT
  5
1D2
100
AcDbEntity
  8
text
  6
ByLayer
 62
  256
370
   -1
100
AcDbMText
 10
345
 20
-29
 30
0
 40
2
 41
14.83333333333333
 71
    1
 72
    1
  1
Rev: 190919
  7
STANDARD
210
0
220
0
230
1
 50
0
 73
    2
 44
1
  0
MTEXT
  5
1D3
100
AcDbEntity
  8
text
  6
ByLayer
 62
  256
370
   -1
100
AcDbMText
 10
345
 20
-32
 30
0
 40
2
 41
7.5
 71
    1
 72
    1
  1
Id: 1/1
  7
STANDARD
210
0
220
0
230
1
 50
0
 73
    2
 44
1
  0
MTEXT
  5
1D4
100
AcDbEntity
  8
text
  6
ByLayer
 62
  256
370
   -1
100
AcDbMText
 10
261
 20
-15
 30
0
 40
2
 41
61.16666975239068
 71
    1
 72
    1
  1
Pozsar Zsolt - http://www.szerafingomba.hu
  7
STANDARD
210
0
220
0
230
1
 50
0
 73
    2
 44
1
  0
MTEXT
  5
1D5
100
AcDbEntity
  8
text
  6
ByLayer
 62
  256
370
   -1
100
AcDbMText
 10
261
 20
-25
 30
0
 40
2
 41
78.11111111111248
 71
    1
 72
    1
  1
Title: MM5D Controlling and remote monitoring equipment
  7
STANDARD
210
0
220
0
230
1
 50
0
 73
    2
 44
1
  0
MTEXT
  5
1D6
100
AcDbEntity
  8
text
  6
ByLayer
 62
  256
370
   -1
100
AcDbMText
 10
261
 20
-9
 30
0
 40
2
 41
5.722222222222222
 71
    1
 72
    1
  1
M 1:1
  7
STANDARD
210
0
220
0
230
1
 50
0
 73
    2
 44
1
  0
MTEXT
  5
1D7
100
AcDbEntity
  8
frame
  6
ByLayer
 62
  256
370
   -1
100
AcDbMText
 10
261
 20
-22
 30
0
 40
2
 41
18.38888888888898
 71
    1
 72
    1
  1
File: front.dxf
  7

210
0
220
0
230
1
 50
0
 73
    2
 44
1
  0
MTEXT
  5
1D8
100
AcDbEntity
  8
frame
  6
ByLayer
 62
  256
370
   -1
100
AcDbMText
 10
261
 20
-29
 30
0
 40
2
 41
12.16666624266249
 71
    1
 72
    1
  1
Size: A/3
  7

210
0
220
0
230
1
 50
0
 73
    2
 44
1
  0
MTEXT
  5
1D9
100
AcDbEntity
  8
frame
  6
ByLayer
 62
  256
370
   -1
100
AcDbMText
 10
261
 20
-12
 30
0
 40
2
 41
41.50000000000059
 71
    1
 72
    1
  1
Drilling draw for front of box
  7

210
0
220
0
230
1
 50
0
 73
    2
 44
1
  0
MTEXT
  5
1DA
100
AcDbEntity
  8
frame
  6
ByLayer
 62
  256
370
   -1
100
AcDbMText
 10
261
 20
-4
 30
0
 40
2
 41
23.444444444445
 71
    1
 72
    1
  1
Draw no.: 59/5/11
  7

210
0
220
0
230
1
 50
0
 73
    2
 44
1
  0
ENDSEC
  0
SECTION
  2
OBJECTS
  0
DICTIONARY
  5
C
330
0
100
AcDbDictionary
281
    1
  3
ACAD_GROUP
350
D
  0
DICTIONARY
  5
D
330
C
100
AcDbDictionary
281
    1
  0
ENDSEC
  0
EOF
