999
dxfrw 0.6.3
  0
SECTION
  2
HEADER
  9
$ACADVER
  1
AC1021
  9
$DWGCODEPAGE
  3
ANSI_1250
  9
$INSBASE
 10
0
 20
0
 30
0
  9
$EXTMIN
 10
-84.9924
 20
-221.995
 30
0
  9
$EXTMAX
 10
314.981
 20
54.9924
 30
0
  9
$LIMMIN
 10
0
 20
0
  9
$LIMMAX
 10
420
 20
297
  9
$ORTHOMODE
 70
    0
  9
$REGENMODE
 70
    1
  9
$FILLMODE
 70
    1
  9
$QTEXTMODE
 70
    0
  9
$MIRRTEXT
 70
    0
  9
$LTSCALE
 40
1
  9
$ATTMODE
 70
    0
  9
$TEXTSIZE
 40
2.5
  9
$TRACEWID
 40
15.68
  9
$TEXTSTYLE
  7
STANDARD
  9
$CLAYER
  8
frame
  9
$CELTYPE
  6
BYLAYER
  9
$CECOLOR
 62
  256
  9
$CELTSCALE
 40
1
  9
$DISPSILH
 70
    0
  9
$DIMSCALE
 40
1
  9
$DIMASZ
 40
2.5
  9
$DIMEXO
 40
0.625
  9
$DIMDLI
 40
3.75
  9
$DIMRND
 40
0
  9
$DIMDLE
 40
0
  9
$DIMEXE
 40
1.25
  9
$DIMTP
 40
0
  9
$DIMTM
 40
0
  9
$DIMTXT
 40
2.5
  9
$DIMCEN
 40
2.5
  9
$DIMTSZ
 40
0
  9
$DIMTOL
 70
    0
  9
$DIMLIM
 70
    0
  9
$DIMTIH
 70
    0
  9
$DIMTOH
 70
    0
  9
$DIMSE1
 70
    0
  9
$DIMSE2
 70
    0
  9
$DIMTAD
 70
    1
  9
$DIMZIN
 70
    1
  9
$DIMBLK
  1

  9
$DIMASO
 70
    1
  9
$DIMSHO
 70
    1
  9
$DIMPOST
  1

  9
$DIMAPOST
  1

  9
$DIMALT
 70
    0
  9
$DIMALTD
 70
    3
  9
$DIMALTF
 40
0.03937
  9
$DIMLFAC
 40
1
  9
$DIMTOFL
 70
    1
  9
$DIMTVP
 40
0
  9
$DIMTIX
 70
    0
  9
$DIMSOXD
 70
    0
  9
$DIMSAH
 70
    0
  9
$DIMBLK1
  1

  9
$DIMBLK2
  1

  9
$DIMSTYLE
  2
STANDARD
  9
$DIMCLRD
 70
    0
  9
$DIMCLRE
 70
    0
  9
$DIMCLRT
 70
    0
  9
$DIMTFAC
 40
1
  9
$DIMGAP
 40
0.625
  9
$DIMJUST
 70
    0
  9
$DIMSD1
 70
    0
  9
$DIMSD2
 70
    0
  9
$DIMTOLJ
 70
    0
  9
$DIMTZIN
 70
    8
  9
$DIMALTZ
 70
    0
  9
$DIMALTTZ
 70
    0
  9
$DIMUPT
 70
    0
  9
$DIMDEC
 70
    1
  9
$DIMTDEC
 70
    2
  9
$DIMALTU
 70
    2
  9
$DIMALTTD
 70
    3
  9
$DIMTXSTY
  7
standard
  9
$DIMAUNIT
 70
    0
  9
$DIMADEC
 70
    2
  9
$DIMALTRND
 40
0
  9
$DIMAZIN
 70
    0
  9
$DIMDSEP
 70
   44
  9
$DIMATFIT
 70
    3
  9
$DIMFRAC
 70
    0
  9
$DIMLDRBLK
  1
STANDARD
  9
$DIMLUNIT
 70
    2
  9
$DIMLWD
 70
   -2
  9
$DIMLWE
 70
   -2
  9
$DIMTMOVE
 70
    0
  9
$DIMFXL
 40
1
  9
$DIMFXLON
 70
    0
  9
$DIMJOGANG
 40
0.7854
  9
$DIMTFILL
 70
    0
  9
$DIMTFILLCLR
 70
    0
  9
$DIMARCSYM
 70
    0
  9
$DIMLTYPE
  6

  9
$DIMLTEX1
  6

  9
$DIMLTEX2
  6

  9
$LUNITS
 70
    2
  9
$LUPREC
 70
    4
  9
$SKETCHINC
 40
1
  9
$FILLETRAD
 40
0
  9
$AUNITS
 70
    0
  9
$AUPREC
 70
    2
  9
$MENU
  1
.
  9
$ELEVATION
 40
0
  9
$PELEVATION
 40
0
  9
$THICKNESS
 40
0
  9
$LIMCHECK
 70
    0
  9
$CHAMFERA
 40
0
  9
$CHAMFERB
 40
0
  9
$CHAMFERC
 40
0
  9
$CHAMFERD
 40
0
  9
$SKPOLY
 70
    0
  9
$USRTIMER
 70
    1
  9
$ANGBASE
 50
0
  9
$ANGDIR
 70
    0
  9
$PDMODE
 70
   34
  9
$PDSIZE
 40
0
  9
$PLINEWID
 40
0
  9
$SPLFRAME
 70
    0
  9
$SPLINETYPE
 70
    2
  9
$SPLINESEGS
 70
    8
  9
$HANDSEED
  5
20000
  9
$SURFTAB1
 70
    6
  9
$SURFTAB2
 70
    6
  9
$SURFTYPE
 70
    6
  9
$SURFU
 70
    6
  9
$SURFV
 70
    6
  9
$UCSBASE
  2

  9
$UCSNAME
  2

  9
$UCSORG
 10
0
 20
0
 30
0
  9
$UCSXDIR
 10
1
 20
0
 30
0
  9
$UCSYDIR
 10
0
 20
1
 30
0
  9
$UCSORTHOREF
  2

  9
$UCSORTHOVIEW
 70
    0
  9
$UCSORGTOP
 10
0
 20
0
 30
0
  9
$UCSORGBOTTOM
 10
0
 20
0
 30
0
  9
$UCSORGLEFT
 10
0
 20
0
 30
0
  9
$UCSORGRIGHT
 10
0
 20
0
 30
0
  9
$UCSORGFRONT
 10
0
 20
0
 30
0
  9
$UCSORGBACK
 10
0
 20
0
 30
0
  9
$PUCSBASE
  2

  9
$PUCSNAME
  2

  9
$PUCSORG
 10
0
 20
0
 30
0
  9
$PUCSXDIR
 10
1
 20
0
 30
0
  9
$PUCSYDIR
 10
0
 20
1
 30
0
  9
$PUCSORTHOREF
  2

  9
$PUCSORTHOVIEW
 70
    0
  9
$PUCSORGTOP
 10
0
 20
0
 30
0
  9
$PUCSORGBOTTOM
 10
0
 20
0
 30
0
  9
$PUCSORGLEFT
 10
0
 20
0
 30
0
  9
$PUCSORGRIGHT
 10
0
 20
0
 30
0
  9
$PUCSORGFRONT
 10
0
 20
0
 30
0
  9
$PUCSORGBACK
 10
0
 20
0
 30
0
  9
$USERI1
 70
    0
  9
$USERI2
 70
    0
  9
$USERI3
 70
    0
  9
$USERI4
 70
    0
  9
$USERI5
 70
    0
  9
$USERR1
 40
0
  9
$USERR2
 40
0
  9
$USERR3
 40
0
  9
$USERR4
 40
0
  9
$USERR5
 40
0
  9
$WORLDVIEW
 70
    1
  9
$SHADEDGE
 70
    3
  9
$SHADEDIF
 70
   70
  9
$TILEMODE
 70
    1
  9
$MAXACTVP
 70
   64
  9
$PINSBASE
 10
97.07627278352734
 20
230.4977861808877
 30
0
  9
$PLIMCHECK
 70
    0
  9
$PEXTMIN
 10
0
 20
0
 30
0
  9
$PEXTMAX
 10
0
 20
0
 30
0
  9
$GRIDMODE
 70
    1
  9
$SNAPSTYLE
 70
    0
  9
$GRIDUNIT
 10
0
 20
0
  9
$PLIMMIN
 10
0
 20
0
  9
$PLIMMAX
 10
420
 20
297
  9
$UNITMODE
 70
    0
  9
$VISRETAIN
 70
    1
  9
$PLINEGEN
 70
    0
  9
$PSLTSCALE
 70
    1
  9
$TREEDEPTH
 70
 3020
  9
$CMLSTYLE
  2
Standard
  9
$CMLJUST
 70
    0
  9
$CMLSCALE
 40
20
  9
$PROXYGRAPHICS
 70
    1
  9
$MEASUREMENT
 70
    1
  9
$CELWEIGHT
370
   -1
  9
$ENDCAPS
280
    0
  9
$JOINSTYLE
280
    0
  9
$LWDISPLAY
290
    0
  9
$INSUNITS
 70
    4
  9
$HYPERLINKBASE
  1

  9
$STYLESHEET
  1

  9
$XEDIT
290
    1
  9
$CEPSNTYPE
380
    0
  9
$PSTYLEMODE
290
    1
  9
$EXTNAMES
290
    1
  9
$PSVPSCALE
 40
0.9819902979358563
  9
$OLESTARTUP
290
    0
  9
$SORTENTS
280
  127
  9
$INDEXCTL
280
    0
  9
$HIDETEXT
280
    1
  9
$XCLIPFRAME
290
    0
  9
$HALOGAP
280
    0
  9
$OBSCOLOR
 70
  257
  9
$OBSLTYPE
280
    0
  9
$INTERSECTIONDISPLAY
280
    0
  9
$INTERSECTIONCOLOR
 70
  257
  9
$DIMASSOC
280
    1
  9
$PROJECTNAME
  1

  9
$CAMERADISPLAY
290
    0
  9
$LENSLENGTH
 40
50
  9
$CAMERAHEIGHT
 40
0
  9
$STEPSPERSEC
 40
2
  9
$STEPSIZE
 40
50
  9
$3DDWFPREC
 40
2
  9
$PSOLWIDTH
 40
5
  9
$PSOLHEIGHT
 40
80
  9
$LOFTANG1
 40
1.570796326794897
  9
$LOFTANG2
 40
1.570796326794897
  9
$LOFTMAG1
 40
0
  9
$LOFTMAG2
 40
0
  9
$LOFTPARAM
 70
    7
  9
$LOFTNORMALS
280
    1
  9
$LATITUDE
 40
1
  9
$LONGITUDE
 40
1
  9
$NORTHDIRECTION
 40
0
  9
$TIMEZONE
 70
-8000
  9
$LIGHTGLYPHDISPLAY
280
    1
  9
$TILEMODELIGHTSYNCH
280
    1
  9
$SOLIDHIST
280
    1
  9
$SHOWHIST
280
    1
  9
$DWFFRAME
280
    2
  9
$DGNFRAME
280
    0
  9
$REALWORLDSCALE
290
    1
  9
$INTERFERECOLOR
 62
    1
  9
$CSHADOW
280
    0
  9
$SHADOWPLANELOCATION
 40
0
  0
ENDSEC
  0
SECTION
  2
CLASSES
  0
ENDSEC
  0
SECTION
  2
TABLES
  0
TABLE
  2
VPORT
  5
8
330
0
100
AcDbSymbolTable
 70
    1
  0
VPORT
  5
31
330
2
100
AcDbSymbolTableRecord
100
AcDbViewportTableRecord
  2
*ACTIVE
 70
    0
 10
0
 20
0
 11
1
 21
1
 12
-26.19657626799602
 22
-95.87406778493387
 13
0
 23
0
 14
10
 24
10
 15
10
 25
10
 16
0
 26
0
 36
1
 17
0
 27
0
 37
0
 40
21.06528813302772
 41
1.897435897435897
 42
50
 43
0
 44
0
 50
0
 51
0
 71
    0
 72
  100
 73
    1
 74
    3
 75
    0
 76
    1
 77
    0
 78
    0
281
    0
 65
    1
110
0
120
0
130
0
111
1
121
0
131
0
112
0
122
1
132
0
 79
    0
146
0
348
10020
 60
    7
 61
    5
292
1
282
    1
141
0
142
0
 63
  250
421
3358443
  0
ENDTAB
  0
TABLE
  2
LTYPE
  5
5
330
0
100
AcDbSymbolTable
 70
    4
  0
LTYPE
  5
14
330
5
100
AcDbSymbolTableRecord
100
AcDbLinetypeTableRecord
  2
ByBlock
 70
    0
  3

 72
   65
 73
    0
 40
0
  0
LTYPE
  5
15
330
5
100
AcDbSymbolTableRecord
100
AcDbLinetypeTableRecord
  2
ByLayer
 70
    0
  3

 72
   65
 73
    0
 40
0
  0
LTYPE
  5
16
330
5
100
AcDbSymbolTableRecord
100
AcDbLinetypeTableRecord
  2
Continuous
 70
    0
  3
Solid line
 72
   65
 73
    0
 40
0
  0
LTYPE
  5
32
330
5
100
AcDbSymbolTableRecord
100
AcDbLinetypeTableRecord
  2
DOT
 70
    0
  3
Dot . . . . . . . . . . . . . . . . . . . . . .
 72
   65
 73
    2
 40
6.35
 49
0
 74
    0
 49
-6.35
 74
    0
  0
LTYPE
  5
33
330
5
100
AcDbSymbolTableRecord
100
AcDbLinetypeTableRecord
  2
DOTTINY
 70
    0
  3
Dot (.15x) .....................................
 72
   65
 73
    2
 40
0.9525
 49
0
 74
    0
 49
-0.9525
 74
    0
  0
LTYPE
  5
34
330
5
100
AcDbSymbolTableRecord
100
AcDbLinetypeTableRecord
  2
DOT2
 70
    0
  3
Dot (.5x) .....................................
 72
   65
 73
    2
 40
3.175
 49
0
 74
    0
 49
-3.175
 74
    0
  0
LTYPE
  5
35
330
5
100
AcDbSymbolTableRecord
100
AcDbLinetypeTableRecord
  2
DOTX2
 70
    0
  3
Dot (2x) .  .  .  .  .  .  .  .  .  .  .  .  .
 72
   65
 73
    2
 40
12.7
 49
0
 74
    0
 49
-12.7
 74
    0
  0
LTYPE
  5
36
330
5
100
AcDbSymbolTableRecord
100
AcDbLinetypeTableRecord
  2
DASHED
 70
    0
  3
Dashed _ _ _ _ _ _ _ _ _ _ _ _ _ _ _ _ _
 72
   65
 73
    2
 40
19.05
 49
12.7
 74
    0
 49
-6.35
 74
    0
  0
LTYPE
  5
37
330
5
100
AcDbSymbolTableRecord
100
AcDbLinetypeTableRecord
  2
DASHEDTINY
 70
    0
  3
Dashed (.15x) _ _ _ _ _ _ _ _ _ _ _ _ _ _ _ _ _
 72
   65
 73
    2
 40
2.8575
 49
1.905
 74
    0
 49
-0.9525
 74
    0
  0
LTYPE
  5
38
330
5
100
AcDbSymbolTableRecord
100
AcDbLinetypeTableRecord
  2
DASHED2
 70
    0
  3
Dashed (.5x) _ _ _ _ _ _ _ _ _ _ _ _ _ _ _ _ _
 72
   65
 73
    2
 40
9.524999999999999
 49
6.35
 74
    0
 49
-3.175
 74
    0
  0
LTYPE
  5
39
330
5
100
AcDbSymbolTableRecord
100
AcDbLinetypeTableRecord
  2
DASHEDX2
 70
    0
  3
Dashed (2x) ____  ____  ____  ____  ____  ___
 72
   65
 73
    2
 40
38.09999999999999
 49
25.4
 74
    0
 49
-12.7
 74
    0
  0
LTYPE
  5
3A
330
5
100
AcDbSymbolTableRecord
100
AcDbLinetypeTableRecord
  2
DASHDOT
 70
    0
  3
Dash dot __ . __ . __ . __ . __ . __ . __ . __
 72
   65
 73
    4
 40
25.4
 49
12.7
 74
    0
 49
-6.35
 74
    0
 49
0
 74
    0
 49
-6.35
 74
    0
  0
LTYPE
  5
3B
330
5
100
AcDbSymbolTableRecord
100
AcDbLinetypeTableRecord
  2
DASHDOTTINY
 70
    0
  3
Dash dot (.15x) _._._._._._._._._._._._._._._.
 72
   65
 73
    4
 40
3.81
 49
1.905
 74
    0
 49
-0.9525
 74
    0
 49
0
 74
    0
 49
-0.9525
 74
    0
  0
LTYPE
  5
3C
330
5
100
AcDbSymbolTableRecord
100
AcDbLinetypeTableRecord
  2
DASHDOT2
 70
    0
  3
Dash dot (.5x) _._._._._._._._._._._._._._._.
 72
   65
 73
    4
 40
12.7
 49
6.35
 74
    0
 49
-3.175
 74
    0
 49
0
 74
    0
 49
-3.175
 74
    0
  0
LTYPE
  5
3D
330
5
100
AcDbSymbolTableRecord
100
AcDbLinetypeTableRecord
  2
DASHDOTX2
 70
    0
  3
Dash dot (2x) ____  .  ____  .  ____  .  ___
 72
   65
 73
    4
 40
50.8
 49
25.4
 74
    0
 49
-12.7
 74
    0
 49
0
 74
    0
 49
-12.7
 74
    0
  0
LTYPE
  5
3E
330
5
100
AcDbSymbolTableRecord
100
AcDbLinetypeTableRecord
  2
DIVIDE
 70
    0
  3
Divide ____ . . ____ . . ____ . . ____ . . ____
 72
   65
 73
    6
 40
31.75
 49
12.7
 74
    0
 49
-6.35
 74
    0
 49
0
 74
    0
 49
-6.35
 74
    0
 49
0
 74
    0
 49
-6.35
 74
    0
  0
LTYPE
  5
3F
330
5
100
AcDbSymbolTableRecord
100
AcDbLinetypeTableRecord
  2
DIVIDETINY
 70
    0
  3
Divide (.15x) __..__..__..__..__..__..__..__.._
 72
   65
 73
    6
 40
4.7625
 49
1.905
 74
    0
 49
-0.9525
 74
    0
 49
0
 74
    0
 49
-0.9525
 74
    0
 49
0
 74
    0
 49
-0.9525
 74
    0
  0
LTYPE
  5
40
330
5
100
AcDbSymbolTableRecord
100
AcDbLinetypeTableRecord
  2
DIVIDE2
 70
    0
  3
Divide (.5x) __..__..__..__..__..__..__..__.._
 72
   65
 73
    6
 40
15.875
 49
6.35
 74
    0
 49
-3.175
 74
    0
 49
0
 74
    0
 49
-3.175
 74
    0
 49
0
 74
    0
 49
-3.175
 74
    0
  0
LTYPE
  5
41
330
5
100
AcDbSymbolTableRecord
100
AcDbLinetypeTableRecord
  2
DIVIDEX2
 70
    0
  3
Divide (2x) ________  .  .  ________  .  .  _
 72
   65
 73
    6
 40
63.5
 49
25.4
 74
    0
 49
-12.7
 74
    0
 49
0
 74
    0
 49
-12.7
 74
    0
 49
0
 74
    0
 49
-12.7
 74
    0
  0
LTYPE
  5
42
330
5
100
AcDbSymbolTableRecord
100
AcDbLinetypeTableRecord
  2
BORDER
 70
    0
  3
Border __ __ . __ __ . __ __ . __ __ . __ __ .
 72
   65
 73
    6
 40
44.45
 49
12.7
 74
    0
 49
-6.35
 74
    0
 49
12.7
 74
    0
 49
-6.35
 74
    0
 49
0
 74
    0
 49
-6.35
 74
    0
  0
LTYPE
  5
43
330
5
100
AcDbSymbolTableRecord
100
AcDbLinetypeTableRecord
  2
BORDERTINY
 70
    0
  3
Border (.15x) __.__.__.__.__.__.__.__.__.__.__.
 72
   65
 73
    6
 40
6.6675
 49
1.905
 74
    0
 49
-0.9525
 74
    0
 49
1.905
 74
    0
 49
-0.9525
 74
    0
 49
0
 74
    0
 49
-0.9525
 74
    0
  0
LTYPE
  5
44
330
5
100
AcDbSymbolTableRecord
100
AcDbLinetypeTableRecord
  2
BORDER2
 70
    0
  3
Border (.5x) __.__.__.__.__.__.__.__.__.__.__.
 72
   65
 73
    6
 40
22.225
 49
6.35
 74
    0
 49
-3.175
 74
    0
 49
6.35
 74
    0
 49
-3.175
 74
    0
 49
0
 74
    0
 49
-3.175
 74
    0
  0
LTYPE
  5
45
330
5
100
AcDbSymbolTableRecord
100
AcDbLinetypeTableRecord
  2
BORDERX2
 70
    0
  3
Border (2x) ____  ____  .  ____  ____  .  ___
 72
   65
 73
    6
 40
88.89999999999999
 49
25.4
 74
    0
 49
-12.7
 74
    0
 49
25.4
 74
    0
 49
-12.7
 74
    0
 49
0
 74
    0
 49
-12.7
 74
    0
  0
LTYPE
  5
46
330
5
100
AcDbSymbolTableRecord
100
AcDbLinetypeTableRecord
  2
CENTER
 70
    0
  3
Center ____ _ ____ _ ____ _ ____ _ ____ _ ____
 72
   65
 73
    4
 40
50.8
 49
31.75
 74
    0
 49
-6.35
 74
    0
 49
6.35
 74
    0
 49
-6.35
 74
    0
  0
LTYPE
  5
47
330
5
100
AcDbSymbolTableRecord
100
AcDbLinetypeTableRecord
  2
CENTERTINY
 70
    0
  3
Center (.15x) ___ _ ___ _ ___ _ ___ _ ___ _ ___
 72
   65
 73
    4
 40
7.62
 49
4.7625
 74
    0
 49
-0.9525
 74
    0
 49
0.9525
 74
    0
 49
-0.9525
 74
    0
  0
LTYPE
  5
48
330
5
100
AcDbSymbolTableRecord
100
AcDbLinetypeTableRecord
  2
CENTER2
 70
    0
  3
Center (.5x) ___ _ ___ _ ___ _ ___ _ ___ _ ___
 72
   65
 73
    4
 40
28.575
 49
19.05
 74
    0
 49
-3.175
 74
    0
 49
3.175
 74
    0
 49
-3.175
 74
    0
  0
LTYPE
  5
49
330
5
100
AcDbSymbolTableRecord
100
AcDbLinetypeTableRecord
  2
CENTERX2
 70
    0
  3
Center (2x) ________  __  ________  __  _____
 72
   65
 73
    4
 40
101.6
 49
63.5
 74
    0
 49
-12.7
 74
    0
 49
12.7
 74
    0
 49
-12.7
 74
    0
  0
ENDTAB
  0
TABLE
  2
LAYER
  5
2
330
0
100
AcDbSymbolTable
 70
    1
  0
LAYER
  5
10
330
2
100
AcDbSymbolTableRecord
100
AcDbLayerTableRecord
  2
0
 70
    0
 62
    7
  6
CONTINUOUS
370
   50
390
F
  0
LAYER
  5
4A
330
2
100
AcDbSymbolTableRecord
100
AcDbLayerTableRecord
  2
frame
 70
    0
 62
    7
  6
CONTINUOUS
370
   -3
390
F
  0
LAYER
  5
4B
330
2
100
AcDbSymbolTableRecord
100
AcDbLayerTableRecord
  2
text
 70
    0
 62
    7
  6
CONTINUOUS
370
    0
390
F
  0
ENDTAB
  0
TABLE
  2
STYLE
  5
3
330
0
100
AcDbSymbolTable
 70
    3
  0
STYLE
  5
4C
330
2
100
AcDbSymbolTableRecord
100
AcDbTextStyleTableRecord
  2
STANDARD
 70
    0
 40
0
 41
1
 50
0
 71
    0
 42
1
  3
STANDARD
  4

  0
STYLE
  5
4D
330
2
100
AcDbSymbolTableRecord
100
AcDbTextStyleTableRecord
  2
standard
 70
    0
 40
0
 41
1
 50
0
 71
    0
 42
1
  3
standard
  4

  0
ENDTAB
  0
TABLE
  2
VIEW
  5
6
330
0
100
AcDbSymbolTable
 70
    0
  0
ENDTAB
  0
TABLE
  2
UCS
  5
7
330
0
100
AcDbSymbolTable
 70
    0
  0
ENDTAB
  0
TABLE
  2
APPID
  5
9
330
0
100
AcDbSymbolTable
 70
    1
  0
APPID
  5
12
330
9
100
AcDbSymbolTableRecord
100
AcDbRegAppTableRecord
  2
ACAD
 70
    0
  0
APPID
  5
4E
330
9
100
AcDbSymbolTableRecord
100
AcDbRegAppTableRecord
  2
LibreCad
 70
    0
  0
ENDTAB
  0
TABLE
  2
DIMSTYLE
  5
A
330
0
100
AcDbSymbolTable
 70
    1
100
AcDbDimStyleTable
 71
    1
  0
DIMSTYLE
105
4F
330
A
100
AcDbSymbolTableRecord
100
AcDbDimStyleTableRecord
  2
Standard
 70
    0
 40
1
 41
2.5
 42
0.625
 43
0.38
 44
1.25
 45
0
 46
0
 47
0
 48
0
 49
1
140
2.5
141
0.09
142
0
143
25.4
144
1
145
0
146
1
147
0.625
148
0
 71
    0
 72
    0
 73
    0
 74
    1
 75
    0
 76
    0
 77
    0
 78
    1
 79
    0
170
    0
171
    2
172
    0
173
    0
174
    0
175
    0
176
    0
177
    0
178
    0
179
    2
271
    1
272
    4
273
    2
274
    2
275
    0
276
    0
277
    2
278
   44
279
    0
280
    0
281
    0
282
    0
283
    1
284
    0
285
    0
286
    0
288
    0
289
    3
340
standard
341

371
   -2
372
   -2
  0
ENDTAB
  0
TABLE
  2
BLOCK_RECORD
  5
1
330
0
100
AcDbSymbolTable
 70
    2
  0
BLOCK_RECORD
  5
1F
330
1
100
AcDbSymbolTableRecord
100
AcDbBlockTableRecord
  2
*Model_Space
 70
    0
280
    1
281
    0
  0
BLOCK_RECORD
  5
1E
330
1
100
AcDbSymbolTableRecord
100
AcDbBlockTableRecord
  2
*Paper_Space
 70
    0
280
    1
281
    0
  0
BLOCK_RECORD
  5
50
330
1
100
AcDbSymbolTableRecord
100
AcDbBlockTableRecord
  2
*D19
 70
    0
280
    1
281
    0
  0
BLOCK_RECORD
  5
53
330
1
100
AcDbSymbolTableRecord
100
AcDbBlockTableRecord
  2
*D2
 70
    0
280
    1
281
    0
  0
BLOCK_RECORD
  5
56
330
1
100
AcDbSymbolTableRecord
100
AcDbBlockTableRecord
  2
*D9
 70
    0
280
    1
281
    0
  0
BLOCK_RECORD
  5
59
330
1
100
AcDbSymbolTableRecord
100
AcDbBlockTableRecord
  2
*D15
 70
    0
280
    1
281
    0
  0
BLOCK_RECORD
  5
5C
330
1
100
AcDbSymbolTableRecord
100
AcDbBlockTableRecord
  2
*D3
 70
    0
280
    1
281
    0
  0
BLOCK_RECORD
  5
5F
330
1
100
AcDbSymbolTableRecord
100
AcDbBlockTableRecord
  2
*D10
 70
    0
280
    1
281
    0
  0
BLOCK_RECORD
  5
62
330
1
100
AcDbSymbolTableRecord
100
AcDbBlockTableRecord
  2
*D6
 70
    0
280
    1
281
    0
  0
BLOCK_RECORD
  5
65
330
1
100
AcDbSymbolTableRecord
100
AcDbBlockTableRecord
  2
*D7
 70
    0
280
    1
281
    0
  0
BLOCK_RECORD
  5
68
330
1
100
AcDbSymbolTableRecord
100
AcDbBlockTableRecord
  2
*D5
 70
    0
280
    1
281
    0
  0
BLOCK_RECORD
  5
6B
330
1
100
AcDbSymbolTableRecord
100
AcDbBlockTableRecord
  2
*D18
 70
    0
280
    1
281
    0
  0
BLOCK_RECORD
  5
6E
330
1
100
AcDbSymbolTableRecord
100
AcDbBlockTableRecord
  2
*D1
 70
    0
280
    1
281
    0
  0
BLOCK_RECORD
  5
71
330
1
100
AcDbSymbolTableRecord
100
AcDbBlockTableRecord
  2
*D4
 70
    0
280
    1
281
    0
  0
BLOCK_RECORD
  5
74
330
1
100
AcDbSymbolTableRecord
100
AcDbBlockTableRecord
  2
*D13
 70
    0
280
    1
281
    0
  0
BLOCK_RECORD
  5
77
330
1
100
AcDbSymbolTableRecord
100
AcDbBlockTableRecord
  2
*D14
 70
    0
280
    1
281
    0
  0
BLOCK_RECORD
  5
7A
330
1
100
AcDbSymbolTableRecord
100
AcDbBlockTableRecord
  2
*D16
 70
    0
280
    1
281
    0
  0
BLOCK_RECORD
  5
7D
330
1
100
AcDbSymbolTableRecord
100
AcDbBlockTableRecord
  2
*D17
 70
    0
280
    1
281
    0
  0
BLOCK_RECORD
  5
80
330
1
100
AcDbSymbolTableRecord
100
AcDbBlockTableRecord
  2
*D12
 70
    0
280
    1
281
    0
  0
BLOCK_RECORD
  5
83
330
1
100
AcDbSymbolTableRecord
100
AcDbBlockTableRecord
  2
*D8
 70
    0
280
    1
281
    0
  0
BLOCK_RECORD
  5
86
330
1
100
AcDbSymbolTableRecord
100
AcDbBlockTableRecord
  2
*D11
 70
    0
280
    1
281
    0
  0
ENDTAB
  0
ENDSEC
  0
SECTION
  2
BLOCKS
  0
BLOCK
  5
20
330
1F
100
AcDbEntity
  8
0
100
AcDbBlockBegin
  2
*Model_Space
 70
    0
 10
0
 20
0
 30
0
  3
*Model_Space
  1

  0
ENDBLK
  5
21
330
1F
100
AcDbEntity
  8
0
100
AcDbBlockEnd
  0
BLOCK
  5
1C
330
1B
100
AcDbEntity
  8
0
100
AcDbBlockBegin
  2
*Paper_Space
 70
    0
 10
0
 20
0
 30
0
  3
*Paper_Space
  1

  0
ENDBLK
  5
1D
330
1F
100
AcDbEntity
  8
0
100
AcDbBlockEnd
  0
BLOCK
  5
51
330
50
100
AcDbEntity
  8
0
100
AcDbBlockBegin
  2
*D19
 70
    1
 10
0
 20
0
  3
*D19
  1

  0
LINE
  5
89
100
AcDbEntity
  8
0
  6
ByBlock
 62
    0
370
   -2
100
AcDbLine
 10
240.625
 20
20
 11
251.25
 21
20
  0
LINE
  5
8A
100
AcDbEntity
  8
0
  6
ByBlock
 62
    0
370
   -2
100
AcDbLine
 10
240.625
 20
-165
 11
251.25
 21
-165
  0
LINE
  5
8B
100
AcDbEntity
  8
0
  6
ByBlock
 62
    0
370
   -2
100
AcDbLine
 10
250
 20
20
 11
250
 21
-165
  0
SOLID
  5
8C
100
AcDbEntity
  8
0
  6
ByBlock
 62
    0
370
   -2
100
AcDbTrace
 10
250
 20
20
 30
0
 11
250.4162846577728
 21
17.5
 31
0
 12
249.5837153422272
 22
17.5
 32
0
 13
249.5837153422272
 23
17.5
 33
0
  0
SOLID
  5
8D
100
AcDbEntity
  8
0
  6
ByBlock
 62
    0
370
   -2
100
AcDbTrace
 10
250
 20
-165
 30
0
 11
249.5837153422272
 21
-162.5
 31
0
 12
250.4162846577728
 22
-162.5
 32
0
 13
250.4162846577728
 23
-162.5
 33
0
  0
MTEXT
  5
8E
100
AcDbEntity
  8
0
  6
CONTINUOUS
 62
    0
370
   -2
100
AcDbMText
 10
248.125
 20
-72.5
 30
0
 40
2.5
 41
7.361111111111266
 71
    5
 72
    1
  1
185,0
  7
standard
210
0
220
0
230
1
 50
90
 73
    2
 44
1
  0
ENDBLK
  5
52
330
50
100
AcDbEntity
  8
0
100
AcDbBlockEnd
  0
BLOCK
  5
54
330
53
100
AcDbEntity
  8
0
100
AcDbBlockBegin
  2
*D2
 70
    1
 10
0
 20
0
  3
*D2
  1

  0
LINE
  5
8F
100
AcDbEntity
  8
0
  6
ByBlock
 62
    0
370
   -2
100
AcDbLine
 10
-1.148106374200643e-16
 20
-175.625
 11
-7.807123344564377e-16
 21
-179.25
  0
LINE
  5
90
100
AcDbEntity
  8
0
  6
ByBlock
 62
    0
370
   -2
100
AcDbLine
 10
20
 20
-175.625
 11
20
 21
-179.25
  0
LINE
  5
91
100
AcDbEntity
  8
0
  6
ByBlock
 62
    0
370
   -2
100
AcDbLine
 10
-5.51091059616309e-16
 20
-178
 11
20
 21
-178
  0
SOLID
  5
92
100
AcDbEntity
  8
0
  6
ByBlock
 62
    0
370
   -2
100
AcDbTrace
 10
-5.51091059616309e-16
 20
-178
 30
0
 11
2.5
 21
-177.5837153422272
 31
0
 12
2.5
 22
-178.4162846577728
 32
0
 13
2.5
 23
-178.4162846577728
 33
0
  0
SOLID
  5
93
100
AcDbEntity
  8
0
  6
ByBlock
 62
    0
370
   -2
100
AcDbTrace
 10
20
 20
-178
 30
0
 11
17.5
 21
-178.4162846577728
 31
0
 12
17.5
 22
-177.5837153422272
 32
0
 13
17.5
 23
-177.5837153422272
 33
0
  0
MTEXT
  5
94
100
AcDbEntity
  8
0
  6
CONTINUOUS
 62
    0
370
   -2
100
AcDbMText
 10
10
 20
-176.125
 30
0
 40
2.5
 41
5.972222222222222
 71
    5
 72
    1
  1
20,0
  7
standard
210
0
220
0
230
1
 50
0
 73
    2
 44
1
  0
ENDBLK
  5
55
330
53
100
AcDbEntity
  8
0
100
AcDbBlockEnd
  0
BLOCK
  5
57
330
56
100
AcDbEntity
  8
0
100
AcDbBlockBegin
  2
*D9
 70
    1
 10
0
 20
0
  3
*D9
  1

  0
LINE
  5
95
100
AcDbEntity
  8
0
  6
ByBlock
 62
    0
370
   -2
100
AcDbLine
 10
240.625
 20
0
 11
241.25
 21
0
  0
LINE
  5
96
100
AcDbEntity
  8
0
  6
ByBlock
 62
    0
370
   -2
100
AcDbLine
 10
240.625
 20
-45
 11
241.25
 21
-45
  0
LINE
  5
97
100
AcDbEntity
  8
0
  6
ByBlock
 62
    0
370
   -2
100
AcDbLine
 10
240
 20
0
 11
240
 21
-45
  0
SOLID
  5
98
100
AcDbEntity
  8
0
  6
ByBlock
 62
    0
370
   -2
100
AcDbTrace
 10
240
 20
0
 30
0
 11
240.4162846577728
 21
-2.5
 31
0
 12
239.5837153422272
 22
-2.5
 32
0
 13
239.5837153422272
 23
-2.5
 33
0
  0
SOLID
  5
99
100
AcDbEntity
  8
0
  6
ByBlock
 62
    0
370
   -2
100
AcDbTrace
 10
240
 20
-45
 30
0
 11
239.5837153422272
 21
-42.5
 31
0
 12
240.4162846577728
 22
-42.5
 32
0
 13
240.4162846577728
 23
-42.5
 33
0
  0
MTEXT
  5
9A
100
AcDbEntity
  8
0
  6
CONTINUOUS
 62
    0
370
   -2
100
AcDbMText
 10
238.125
 20
-22.5
 30
0
 40
2.5
 41
6.250000000000156
 71
    5
 72
    1
  1
45,0
  7
standard
210
0
220
0
230
1
 50
90
 73
    2
 44
1
  0
ENDBLK
  5
58
330
56
100
AcDbEntity
  8
0
100
AcDbBlockEnd
  0
BLOCK
  5
5A
330
59
100
AcDbEntity
  8
0
100
AcDbBlockBegin
  2
*D15
 70
    1
 10
0
 20
0
  3
*D15
  1

  0
LINE
  5
9B
100
AcDbEntity
  8
0
  6
ByBlock
 62
    0
370
   -2
100
AcDbLine
 10
-19.375
 20
20
 11
-18.75
 21
20
  0
LINE
  5
9C
100
AcDbEntity
  8
0
  6
ByBlock
 62
    0
370
   -2
100
AcDbLine
 10
-19.375
 20
-25
 11
-18.75
 21
-25
  0
LINE
  5
9D
100
AcDbEntity
  8
0
  6
ByBlock
 62
    0
370
   -2
100
AcDbLine
 10
-20
 20
20
 11
-20
 21
-25
  0
SOLID
  5
9E
100
AcDbEntity
  8
0
  6
ByBlock
 62
    0
370
   -2
100
AcDbTrace
 10
-20
 20
20
 30
0
 11
-19.58371534222716
 21
17.5
 31
0
 12
-20.41628465777284
 22
17.5
 32
0
 13
-20.41628465777284
 23
17.5
 33
0
  0
SOLID
  5
9F
100
AcDbEntity
  8
0
  6
ByBlock
 62
    0
370
   -2
100
AcDbTrace
 10
-20
 20
-25
 30
0
 11
-20.41628465777284
 21
-22.5
 31
0
 12
-19.58371534222716
 22
-22.5
 32
0
 13
-19.58371534222716
 23
-22.5
 33
0
  0
MTEXT
  5
A0
100
AcDbEntity
  8
0
  6
CONTINUOUS
 62
    0
370
   -2
100
AcDbMText
 10
-21.875
 20
-2.5
 30
0
 40
2.5
 41
6.250000000000156
 71
    5
 72
    1
  1
45,0
  7
standard
210
0
220
0
230
1
 50
90
 73
    2
 44
1
  0
ENDBLK
  5
5B
330
59
100
AcDbEntity
  8
0
100
AcDbBlockEnd
  0
BLOCK
  5
5D
330
5C
100
AcDbEntity
  8
0
100
AcDbBlockBegin
  2
*D3
 70
    1
 10
0
 20
0
  3
*D3
  1

  0
LINE
  5
A1
100
AcDbEntity
  8
0
  6
ByBlock
 62
    0
370
   -2
100
AcDbLine
 10
20
 20
-175.625
 11
20
 21
-179.25
  0
LINE
  5
A2
100
AcDbEntity
  8
0
  6
ByBlock
 62
    0
370
   -2
100
AcDbLine
 10
43
 20
-175.625
 11
43
 21
-179.25
  0
LINE
  5
A3
100
AcDbEntity
  8
0
  6
ByBlock
 62
    0
370
   -2
100
AcDbLine
 10
20
 20
-178
 11
43
 21
-178
  0
SOLID
  5
A4
100
AcDbEntity
  8
0
  6
ByBlock
 62
    0
370
   -2
100
AcDbTrace
 10
20
 20
-178
 30
0
 11
22.5
 21
-177.5837153422272
 31
0
 12
22.5
 22
-178.4162846577728
 32
0
 13
22.5
 23
-178.4162846577728
 33
0
  0
SOLID
  5
A5
100
AcDbEntity
  8
0
  6
ByBlock
 62
    0
370
   -2
100
AcDbTrace
 10
43
 20
-178
 30
0
 11
40.5
 21
-178.4162846577728
 31
0
 12
40.5
 22
-177.5837153422272
 32
0
 13
40.5
 23
-177.5837153422272
 33
0
  0
MTEXT
  5
A6
100
AcDbEntity
  8
0
  6
CONTINUOUS
 62
    0
370
   -2
100
AcDbMText
 10
31.5
 20
-176.125
 30
0
 40
2.5
 41
5.972222222222378
 71
    5
 72
    1
  1
23,0
  7
standard
210
0
220
0
230
1
 50
0
 73
    2
 44
1
  0
ENDBLK
  5
5E
330
5C
100
AcDbEntity
  8
0
100
AcDbBlockEnd
  0
BLOCK
  5
60
330
5F
100
AcDbEntity
  8
0
100
AcDbBlockBegin
  2
*D10
 70
    1
 10
0
 20
0
  3
*D10
  1

  0
LINE
  5
A7
100
AcDbEntity
  8
0
  6
ByBlock
 62
    0
370
   -2
100
AcDbLine
 10
240.625
 20
-45
 11
241.25
 21
-45
  0
LINE
  5
A8
100
AcDbEntity
  8
0
  6
ByBlock
 62
    0
370
   -2
100
AcDbLine
 10
240.625
 20
-91
 11
241.25
 21
-91
  0
LINE
  5
A9
100
AcDbEntity
  8
0
  6
ByBlock
 62
    0
370
   -2
100
AcDbLine
 10
240
 20
-45
 11
240
 21
-91
  0
SOLID
  5
AA
100
AcDbEntity
  8
0
  6
ByBlock
 62
    0
370
   -2
100
AcDbTrace
 10
240
 20
-45
 30
0
 11
240.4162846577728
 21
-47.5
 31
0
 12
239.5837153422272
 22
-47.5
 32
0
 13
239.5837153422272
 23
-47.5
 33
0
  0
SOLID
  5
AB
100
AcDbEntity
  8
0
  6
ByBlock
 62
    0
370
   -2
100
AcDbTrace
 10
240
 20
-91
 30
0
 11
239.5837153422272
 21
-88.5
 31
0
 12
240.4162846577728
 22
-88.5
 32
0
 13
240.4162846577728
 23
-88.5
 33
0
  0
MTEXT
  5
AC
100
AcDbEntity
  8
0
  6
CONTINUOUS
 62
    0
370
   -2
100
AcDbMText
 10
238.125
 20
-68
 30
0
 40
2.5
 41
6.250000000000156
 71
    5
 72
    1
  1
46,0
  7
standard
210
0
220
0
230
1
 50
90
 73
    2
 44
1
  0
ENDBLK
  5
61
330
5F
100
AcDbEntity
  8
0
100
AcDbBlockEnd
  0
BLOCK
  5
63
330
62
100
AcDbEntity
  8
0
100
AcDbBlockBegin
  2
*D6
 70
    1
 10
0
 20
0
  3
*D6
  1

  0
LINE
  5
AD
100
AcDbEntity
  8
0
  6
ByBlock
 62
    0
370
   -2
100
AcDbLine
 10
150
 20
-176.625
 11
150
 21
-179.25
  0
LINE
  5
AE
100
AcDbEntity
  8
0
  6
ByBlock
 62
    0
370
   -2
100
AcDbLine
 10
183
 20
-176.625
 11
183
 21
-179.25
  0
LINE
  5
AF
100
AcDbEntity
  8
0
  6
ByBlock
 62
    0
370
   -2
100
AcDbLine
 10
150
 20
-178
 11
183
 21
-178
  0
SOLID
  5
B0
100
AcDbEntity
  8
0
  6
ByBlock
 62
    0
370
   -2
100
AcDbTrace
 10
150
 20
-178
 30
0
 11
152.5
 21
-177.5837153422272
 31
0
 12
152.5
 22
-178.4162846577728
 32
0
 13
152.5
 23
-178.4162846577728
 33
0
  0
SOLID
  5
B1
100
AcDbEntity
  8
0
  6
ByBlock
 62
    0
370
   -2
100
AcDbTrace
 10
183
 20
-178
 30
0
 11
180.5
 21
-178.4162846577728
 31
0
 12
180.5
 22
-177.5837153422272
 32
0
 13
180.5
 23
-177.5837153422272
 33
0
  0
MTEXT
  5
B2
100
AcDbEntity
  8
0
  6
CONTINUOUS
 62
    0
370
   -2
100
AcDbMText
 10
166.5
 20
-176.125
 30
0
 40
2.5
 41
5.972222222222532
 71
    5
 72
    1
  1
33,0
  7
standard
210
0
220
0
230
1
 50
0
 73
    2
 44
1
  0
ENDBLK
  5
64
330
62
100
AcDbEntity
  8
0
100
AcDbBlockEnd
  0
BLOCK
  5
66
330
65
100
AcDbEntity
  8
0
100
AcDbBlockBegin
  2
*D7
 70
    1
 10
0
 20
0
  3
*D7
  1

  0
LINE
  5
B3
100
AcDbEntity
  8
0
  6
ByBlock
 62
    0
370
   -2
100
AcDbLine
 10
183
 20
-176.625
 11
183
 21
-179.25
  0
LINE
  5
B4
100
AcDbEntity
  8
0
  6
ByBlock
 62
    0
370
   -2
100
AcDbLine
 10
200
 20
-176.625
 11
200
 21
-179.25
  0
LINE
  5
B5
100
AcDbEntity
  8
0
  6
ByBlock
 62
    0
370
   -2
100
AcDbLine
 10
183
 20
-178
 11
200
 21
-178
  0
SOLID
  5
B6
100
AcDbEntity
  8
0
  6
ByBlock
 62
    0
370
   -2
100
AcDbTrace
 10
183
 20
-178
 30
0
 11
185.5
 21
-177.5837153422272
 31
0
 12
185.5
 22
-178.4162846577728
 32
0
 13
185.5
 23
-178.4162846577728
 33
0
  0
SOLID
  5
B7
100
AcDbEntity
  8
0
  6
ByBlock
 62
    0
370
   -2
100
AcDbTrace
 10
200
 20
-178
 30
0
 11
197.5
 21
-178.4162846577728
 31
0
 12
197.5
 22
-177.5837153422272
 32
0
 13
197.5
 23
-177.5837153422272
 33
0
  0
MTEXT
  5
B8
100
AcDbEntity
  8
0
  6
CONTINUOUS
 62
    0
370
   -2
100
AcDbMText
 10
191.5
 20
-176.125
 30
0
 40
2.5
 41
5.416666666666667
 71
    5
 72
    1
  1
17,0
  7
standard
210
0
220
0
230
1
 50
0
 73
    2
 44
1
  0
ENDBLK
  5
67
330
65
100
AcDbEntity
  8
0
100
AcDbBlockEnd
  0
BLOCK
  5
69
330
68
100
AcDbEntity
  8
0
100
AcDbBlockBegin
  2
*D5
 70
    1
 10
0
 20
0
  3
*D5
  1

  0
LINE
  5
B9
100
AcDbEntity
  8
0
  6
ByBlock
 62
    0
370
   -2
100
AcDbLine
 10
85
 20
-176.625
 11
85
 21
-179.25
  0
LINE
  5
BA
100
AcDbEntity
  8
0
  6
ByBlock
 62
    0
370
   -2
100
AcDbLine
 10
150
 20
-176.625
 11
150
 21
-179.25
  0
LINE
  5
BB
100
AcDbEntity
  8
0
  6
ByBlock
 62
    0
370
   -2
100
AcDbLine
 10
85
 20
-178
 11
150
 21
-178
  0
SOLID
  5
BC
100
AcDbEntity
  8
0
  6
ByBlock
 62
    0
370
   -2
100
AcDbTrace
 10
85
 20
-178
 30
0
 11
87.5
 21
-177.5837153422272
 31
0
 12
87.5
 22
-178.4162846577728
 32
0
 13
87.5
 23
-178.4162846577728
 33
0
  0
SOLID
  5
BD
100
AcDbEntity
  8
0
  6
ByBlock
 62
    0
370
   -2
100
AcDbTrace
 10
150
 20
-178
 30
0
 11
147.5
 21
-178.4162846577728
 31
0
 12
147.5
 22
-177.5837153422272
 32
0
 13
147.5
 23
-177.5837153422272
 33
0
  0
MTEXT
  5
BE
100
AcDbEntity
  8
0
  6
CONTINUOUS
 62
    0
370
   -2
100
AcDbMText
 10
117.5
 20
-176.125
 30
0
 40
2.5
 41
5.972222222222532
 71
    5
 72
    1
  1
65,0
  7
standard
210
0
220
0
230
1
 50
0
 73
    2
 44
1
  0
ENDBLK
  5
6A
330
68
100
AcDbEntity
  8
0
100
AcDbBlockEnd
  0
BLOCK
  5
6C
330
6B
100
AcDbEntity
  8
0
100
AcDbBlockBegin
  2
*D18
 70
    1
 10
0
 20
0
  3
*D18
  1

  0
LINE
  5
BF
100
AcDbEntity
  8
0
  6
ByBlock
 62
    0
370
   -2
100
AcDbLine
 10
-19.375
 20
-53
 11
-18.75
 21
-53
  0
LINE
  5
C0
100
AcDbEntity
  8
0
  6
ByBlock
 62
    0
370
   -2
100
AcDbLine
 10
-19.375
 20
-65
 11
-18.75
 21
-65
  0
LINE
  5
C1
100
AcDbEntity
  8
0
  6
ByBlock
 62
    0
370
   -2
100
AcDbLine
 10
-20
 20
-53
 11
-20
 21
-65
  0
SOLID
  5
C2
100
AcDbEntity
  8
0
  6
ByBlock
 62
    0
370
   -2
100
AcDbTrace
 10
-20
 20
-53
 30
0
 11
-19.58371534222716
 21
-55.5
 31
0
 12
-20.41628465777284
 22
-55.5
 32
0
 13
-20.41628465777284
 23
-55.5
 33
0
  0
SOLID
  5
C3
100
AcDbEntity
  8
0
  6
ByBlock
 62
    0
370
   -2
100
AcDbTrace
 10
-20
 20
-65
 30
0
 11
-20.41628465777284
 21
-62.5
 31
0
 12
-19.58371534222716
 22
-62.5
 32
0
 13
-19.58371534222716
 23
-62.5
 33
0
  0
MTEXT
  5
C4
100
AcDbEntity
  8
0
  6
CONTINUOUS
 62
    0
370
   -2
100
AcDbMText
 10
-21.875
 20
-59
 30
0
 40
2.5
 41
5.416666666666667
 71
    5
 72
    1
  1
12,0
  7
standard
210
0
220
0
230
1
 50
90
 73
    2
 44
1
  0
ENDBLK
  5
6D
330
6B
100
AcDbEntity
  8
0
100
AcDbBlockEnd
  0
BLOCK
  5
6F
330
6E
100
AcDbEntity
  8
0
100
AcDbBlockBegin
  2
*D1
 70
    1
 10
0
 20
0
  3
*D1
  1

  0
LINE
  5
C5
100
AcDbEntity
  8
0
  6
ByBlock
 62
    0
370
   -2
100
AcDbLine
 10
-5
 20
-177.625
 11
-5
 21
-179.25
  0
LINE
  5
C6
100
AcDbEntity
  8
0
  6
ByBlock
 62
    0
370
   -2
100
AcDbLine
 10
-1.148106374200643e-16
 20
-177.625
 11
-4.133182947122317e-16
 21
-179.25
  0
LINE
  5
C7
100
AcDbEntity
  8
0
  6
ByBlock
 62
    0
370
   -2
100
AcDbLine
 10
-10
 20
-178
 11
5
 21
-178
  0
SOLID
  5
C8
100
AcDbEntity
  8
0
  6
ByBlock
 62
    0
370
   -2
100
AcDbTrace
 10
-5
 20
-178
 30
0
 11
-7.5
 21
-178.4162846577728
 31
0
 12
-7.5
 22
-177.5837153422272
 32
0
 13
-7.5
 23
-177.5837153422272
 33
0
  0
SOLID
  5
C9
100
AcDbEntity
  8
0
  6
ByBlock
 62
    0
370
   -2
100
AcDbTrace
 10
-1.83697019872103e-16
 20
-178
 30
0
 11
2.5
 21
-177.5837153422272
 31
0
 12
2.5
 22
-178.4162846577728
 32
0
 13
2.5
 23
-178.4162846577728
 33
0
  0
MTEXT
  5
CA
100
AcDbEntity
  8
0
  6
CONTINUOUS
 62
    0
370
   -2
100
AcDbMText
 10
-2.5
 20
-176.125
 30
0
 40
2.5
 41
4.027777777777933
 71
    5
 72
    1
  1
5,0
  7
standard
210
0
220
0
230
1
 50
0
 73
    2
 44
1
  0
ENDBLK
  5
70
330
6E
100
AcDbEntity
  8
0
100
AcDbBlockEnd
  0
BLOCK
  5
72
330
71
100
AcDbEntity
  8
0
100
AcDbBlockBegin
  2
*D4
 70
    1
 10
0
 20
0
  3
*D4
  1

  0
LINE
  5
CB
100
AcDbEntity
  8
0
  6
ByBlock
 62
    0
370
   -2
100
AcDbLine
 10
43
 20
-175.625
 11
43
 21
-179.25
  0
LINE
  5
CC
100
AcDbEntity
  8
0
  6
ByBlock
 62
    0
370
   -2
100
AcDbLine
 10
85
 20
-175.625
 11
85
 21
-179.25
  0
LINE
  5
CD
100
AcDbEntity
  8
0
  6
ByBlock
 62
    0
370
   -2
100
AcDbLine
 10
43
 20
-178
 11
85
 21
-178
  0
SOLID
  5
CE
100
AcDbEntity
  8
0
  6
ByBlock
 62
    0
370
   -2
100
AcDbTrace
 10
43
 20
-178
 30
0
 11
45.5
 21
-177.5837153422272
 31
0
 12
45.5
 22
-178.4162846577728
 32
0
 13
45.5
 23
-178.4162846577728
 33
0
  0
SOLID
  5
CF
100
AcDbEntity
  8
0
  6
ByBlock
 62
    0
370
   -2
100
AcDbTrace
 10
85
 20
-178
 30
0
 11
82.5
 21
-178.4162846577728
 31
0
 12
82.5
 22
-177.5837153422272
 32
0
 13
82.5
 23
-177.5837153422272
 33
0
  0
MTEXT
  5
D0
100
AcDbEntity
  8
0
  6
CONTINUOUS
 62
    0
370
   -2
100
AcDbMText
 10
64
 20
-176.125
 30
0
 40
2.5
 41
6.25
 71
    5
 72
    1
  1
42,0
  7
standard
210
0
220
0
230
1
 50
0
 73
    2
 44
1
  0
ENDBLK
  5
73
330
71
100
AcDbEntity
  8
0
100
AcDbBlockEnd
  0
BLOCK
  5
75
330
74
100
AcDbEntity
  8
0
100
AcDbBlockBegin
  2
*D13
 70
    1
 10
0
 20
0
  3
*D13
  1

  0
LINE
  5
D1
100
AcDbEntity
  8
0
  6
ByBlock
 62
    0
370
   -2
100
AcDbLine
 10
240.625
 20
-113
 11
241.25
 21
-113
  0
LINE
  5
D2
100
AcDbEntity
  8
0
  6
ByBlock
 62
    0
370
   -2
100
AcDbLine
 10
240.625
 20
-124
 11
241.25
 21
-124
  0
LINE
  5
D3
100
AcDbEntity
  8
0
  6
ByBlock
 62
    0
370
   -2
100
AcDbLine
 10
240
 20
-113
 11
240
 21
-124
  0
SOLID
  5
D4
100
AcDbEntity
  8
0
  6
ByBlock
 62
    0
370
   -2
100
AcDbTrace
 10
240
 20
-113
 30
0
 11
240.4162846577728
 21
-115.5
 31
0
 12
239.5837153422272
 22
-115.5
 32
0
 13
239.5837153422272
 23
-115.5
 33
0
  0
SOLID
  5
D5
100
AcDbEntity
  8
0
  6
ByBlock
 62
    0
370
   -2
100
AcDbTrace
 10
240
 20
-124
 30
0
 11
239.5837153422272
 21
-121.5
 31
0
 12
240.4162846577728
 22
-121.5
 32
0
 13
240.4162846577728
 23
-121.5
 33
0
  0
MTEXT
  5
D6
100
AcDbEntity
  8
0
  6
CONTINUOUS
 62
    0
370
   -2
100
AcDbMText
 10
238.125
 20
-118.5
 30
0
 40
2.5
 41
4.861111111111111
 71
    5
 72
    1
  1
11,0
  7
standard
210
0
220
0
230
1
 50
90
 73
    2
 44
1
  0
ENDBLK
  5
76
330
74
100
AcDbEntity
  8
0
100
AcDbBlockEnd
  0
BLOCK
  5
78
330
77
100
AcDbEntity
  8
0
100
AcDbBlockBegin
  2
*D14
 70
    1
 10
0
 20
0
  3
*D14
  1

  0
LINE
  5
D7
100
AcDbEntity
  8
0
  6
ByBlock
 62
    0
370
   -2
100
AcDbLine
 10
-5
 20
0.625
 11
-4.999999999999998
 21
31.25
  0
LINE
  5
D8
100
AcDbEntity
  8
0
  6
ByBlock
 62
    0
370
   -2
100
AcDbLine
 10
230
 20
0.625
 11
230
 21
31.25
  0
LINE
  5
D9
100
AcDbEntity
  8
0
  6
ByBlock
 62
    0
370
   -2
100
AcDbLine
 10
-4.999999999999998
 20
30
 11
230
 21
30
  0
SOLID
  5
DA
100
AcDbEntity
  8
0
  6
ByBlock
 62
    0
370
   -2
100
AcDbTrace
 10
-4.999999999999998
 20
30
 30
0
 11
-2.499999999999998
 21
30.41628465777284
 31
0
 12
-2.499999999999998
 22
29.58371534222716
 32
0
 13
-2.499999999999998
 23
29.58371534222716
 33
0
  0
SOLID
  5
DB
100
AcDbEntity
  8
0
  6
ByBlock
 62
    0
370
   -2
100
AcDbTrace
 10
230
 20
30
 30
0
 11
227.5
 21
29.58371534222716
 31
0
 12
227.5
 22
30.41628465777284
 32
0
 13
227.5
 23
30.41628465777284
 33
0
  0
MTEXT
  5
DC
100
AcDbEntity
  8
0
  6
CONTINUOUS
 62
    0
370
   -2
100
AcDbMText
 10
112.5
 20
31.875
 30
0
 40
2.5
 41
7.916666666666977
 71
    5
 72
    1
  1
235,0
  7
standard
210
0
220
0
230
1
 50
0
 73
    2
 44
1
  0
ENDBLK
  5
79
330
77
100
AcDbEntity
  8
0
100
AcDbBlockEnd
  0
BLOCK
  5
7B
330
7A
100
AcDbEntity
  8
0
100
AcDbBlockBegin
  2
*D16
 70
    1
 10
0
 20
0
  3
*D16
  1

  0
LINE
  5
DD
100
AcDbEntity
  8
0
  6
ByBlock
 62
    0
370
   -2
100
AcDbLine
 10
-19.375
 20
-25
 11
-18.75
 21
-25
  0
LINE
  5
DE
100
AcDbEntity
  8
0
  6
ByBlock
 62
    0
370
   -2
100
AcDbLine
 10
-19.375
 20
-33
 11
-18.75
 21
-33
  0
LINE
  5
DF
100
AcDbEntity
  8
0
  6
ByBlock
 62
    0
370
   -2
100
AcDbLine
 10
-20
 20
-25
 11
-20
 21
-33
  0
SOLID
  5
E0
100
AcDbEntity
  8
0
  6
ByBlock
 62
    0
370
   -2
100
AcDbTrace
 10
-20
 20
-25
 30
0
 11
-19.58371534222716
 21
-27.5
 31
0
 12
-20.41628465777284
 22
-27.5
 32
0
 13
-20.41628465777284
 23
-27.5
 33
0
  0
SOLID
  5
E1
100
AcDbEntity
  8
0
  6
ByBlock
 62
    0
370
   -2
100
AcDbTrace
 10
-20
 20
-33
 30
0
 11
-20.41628465777284
 21
-30.5
 31
0
 12
-19.58371534222716
 22
-30.5
 32
0
 13
-19.58371534222716
 23
-30.5
 33
0
  0
MTEXT
  5
E2
100
AcDbEntity
  8
0
  6
CONTINUOUS
 62
    0
370
   -2
100
AcDbMText
 10
-21.875
 20
-29
 30
0
 40
2.5
 41
4.027777777777778
 71
    5
 72
    1
  1
8,0
  7
standard
210
0
220
0
230
1
 50
90
 73
    2
 44
1
  0
ENDBLK
  5
7C
330
7A
100
AcDbEntity
  8
0
100
AcDbBlockEnd
  0
BLOCK
  5
7E
330
7D
100
AcDbEntity
  8
0
100
AcDbBlockBegin
  2
*D17
 70
    1
 10
0
 20
0
  3
*D17
  1

  0
LINE
  5
E3
100
AcDbEntity
  8
0
  6
ByBlock
 62
    0
370
   -2
100
AcDbLine
 10
-19.375
 20
-33
 11
-18.75
 21
-33
  0
LINE
  5
E4
100
AcDbEntity
  8
0
  6
ByBlock
 62
    0
370
   -2
100
AcDbLine
 10
-19.375
 20
-53
 11
-18.75
 21
-53
  0
LINE
  5
E5
100
AcDbEntity
  8
0
  6
ByBlock
 62
    0
370
   -2
100
AcDbLine
 10
-20
 20
-33
 11
-20
 21
-53
  0
SOLID
  5
E6
100
AcDbEntity
  8
0
  6
ByBlock
 62
    0
370
   -2
100
AcDbTrace
 10
-20
 20
-33
 30
0
 11
-19.58371534222716
 21
-35.5
 31
0
 12
-20.41628465777284
 22
-35.5
 32
0
 13
-20.41628465777284
 23
-35.5
 33
0
  0
SOLID
  5
E7
100
AcDbEntity
  8
0
  6
ByBlock
 62
    0
370
   -2
100
AcDbTrace
 10
-20
 20
-53
 30
0
 11
-20.41628465777284
 21
-50.5
 31
0
 12
-19.58371534222716
 22
-50.5
 32
0
 13
-19.58371534222716
 23
-50.5
 33
0
  0
MTEXT
  5
E8
100
AcDbEntity
  8
0
  6
CONTINUOUS
 62
    0
370
   -2
100
AcDbMText
 10
-21.875
 20
-43
 30
0
 40
2.5
 41
5.972222222222222
 71
    5
 72
    1
  1
20,0
  7
standard
210
0
220
0
230
1
 50
90
 73
    2
 44
1
  0
ENDBLK
  5
7F
330
7D
100
AcDbEntity
  8
0
100
AcDbBlockEnd
  0
BLOCK
  5
81
330
80
100
AcDbEntity
  8
0
100
AcDbBlockBegin
  2
*D12
 70
    1
 10
0
 20
0
  3
*D12
  1

  0
LINE
  5
E9
100
AcDbEntity
  8
0
  6
ByBlock
 62
    0
370
   -2
100
AcDbLine
 10
240.625
 20
-102
 11
241.25
 21
-102
  0
LINE
  5
EA
100
AcDbEntity
  8
0
  6
ByBlock
 62
    0
370
   -2
100
AcDbLine
 10
240.625
 20
-113
 11
241.25
 21
-113
  0
LINE
  5
EB
100
AcDbEntity
  8
0
  6
ByBlock
 62
    0
370
   -2
100
AcDbLine
 10
240
 20
-102
 11
240
 21
-113
  0
SOLID
  5
EC
100
AcDbEntity
  8
0
  6
ByBlock
 62
    0
370
   -2
100
AcDbTrace
 10
240
 20
-102
 30
0
 11
240.4162846577728
 21
-104.5
 31
0
 12
239.5837153422272
 22
-104.5
 32
0
 13
239.5837153422272
 23
-104.5
 33
0
  0
SOLID
  5
ED
100
AcDbEntity
  8
0
  6
ByBlock
 62
    0
370
   -2
100
AcDbTrace
 10
240
 20
-113
 30
0
 11
239.5837153422272
 21
-110.5
 31
0
 12
240.4162846577728
 22
-110.5
 32
0
 13
240.4162846577728
 23
-110.5
 33
0
  0
MTEXT
  5
EE
100
AcDbEntity
  8
0
  6
CONTINUOUS
 62
    0
370
   -2
100
AcDbMText
 10
238.125
 20
-107.5
 30
0
 40
2.5
 41
4.861111111111111
 71
    5
 72
    1
  1
11,0
  7
standard
210
0
220
0
230
1
 50
90
 73
    2
 44
1
  0
ENDBLK
  5
82
330
80
100
AcDbEntity
  8
0
100
AcDbBlockEnd
  0
BLOCK
  5
84
330
83
100
AcDbEntity
  8
0
100
AcDbBlockBegin
  2
*D8
 70
    1
 10
0
 20
0
  3
*D8
  1

  0
LINE
  5
EF
100
AcDbEntity
  8
0
  6
ByBlock
 62
    0
370
   -2
100
AcDbLine
 10
240.625
 20
20
 11
241.25
 21
20
  0
LINE
  5
F0
100
AcDbEntity
  8
0
  6
ByBlock
 62
    0
370
   -2
100
AcDbLine
 10
240.625
 20
0
 11
241.25
 21
0
  0
LINE
  5
F1
100
AcDbEntity
  8
0
  6
ByBlock
 62
    0
370
   -2
100
AcDbLine
 10
240
 20
20
 11
240
 21
0
  0
SOLID
  5
F2
100
AcDbEntity
  8
0
  6
ByBlock
 62
    0
370
   -2
100
AcDbTrace
 10
240
 20
20
 30
0
 11
240.4162846577728
 21
17.5
 31
0
 12
239.5837153422272
 22
17.5
 32
0
 13
239.5837153422272
 23
17.5
 33
0
  0
SOLID
  5
F3
100
AcDbEntity
  8
0
  6
ByBlock
 62
    0
370
   -2
100
AcDbTrace
 10
240
 20
0
 30
0
 11
239.5837153422272
 21
2.5
 31
0
 12
240.4162846577728
 22
2.5
 32
0
 13
240.4162846577728
 23
2.5
 33
0
  0
MTEXT
  5
F4
100
AcDbEntity
  8
0
  6
CONTINUOUS
 62
    0
370
   -2
100
AcDbMText
 10
238.125
 20
10
 30
0
 40
2.5
 41
5.972222222222222
 71
    5
 72
    1
  1
20,0
  7
standard
210
0
220
0
230
1
 50
90
 73
    2
 44
1
  0
ENDBLK
  5
85
330
83
100
AcDbEntity
  8
0
100
AcDbBlockEnd
  0
BLOCK
  5
87
330
86
100
AcDbEntity
  8
0
100
AcDbBlockBegin
  2
*D11
 70
    1
 10
0
 20
0
  3
*D11
  1

  0
LINE
  5
F5
100
AcDbEntity
  8
0
  6
ByBlock
 62
    0
370
   -2
100
AcDbLine
 10
240.625
 20
-91
 11
241.25
 21
-91
  0
LINE
  5
F6
100
AcDbEntity
  8
0
  6
ByBlock
 62
    0
370
   -2
100
AcDbLine
 10
240.625
 20
-102
 11
241.25
 21
-102
  0
LINE
  5
F7
100
AcDbEntity
  8
0
  6
ByBlock
 62
    0
370
   -2
100
AcDbLine
 10
240
 20
-91
 11
240
 21
-102
  0
SOLID
  5
F8
100
AcDbEntity
  8
0
  6
ByBlock
 62
    0
370
   -2
100
AcDbTrace
 10
240
 20
-91
 30
0
 11
240.4162846577728
 21
-93.5
 31
0
 12
239.5837153422272
 22
-93.5
 32
0
 13
239.5837153422272
 23
-93.5
 33
0
  0
SOLID
  5
F9
100
AcDbEntity
  8
0
  6
ByBlock
 62
    0
370
   -2
100
AcDbTrace
 10
240
 20
-102
 30
0
 11
239.5837153422272
 21
-99.5
 31
0
 12
240.4162846577728
 22
-99.5
 32
0
 13
240.4162846577728
 23
-99.5
 33
0
  0
MTEXT
  5
FA
100
AcDbEntity
  8
0
  6
CONTINUOUS
 62
    0
370
   -2
100
AcDbMText
 10
238.125
 20
-96.5
 30
0
 40
2.5
 41
4.861111111111111
 71
    5
 72
    1
  1
11,0
  7
standard
210
0
220
0
230
1
 50
90
 73
    2
 44
1
  0
ENDBLK
  5
88
330
86
100
AcDbEntity
  8
0
100
AcDbBlockEnd
  0
ENDSEC
  0
SECTION
  2
ENTITIES
  0
ARC
  5
FB
100
AcDbEntity
  8
0
  6
ByLayer
 62
  256
370
  100
100
AcDbCircle
 10
0
 20
-160
 40
5
100
AcDbArc
 50
180
 51
270
  0
CIRCLE
  5
FC
100
AcDbEntity
  8
0
  6
ByLayer
 62
  256
370
  100
100
AcDbCircle
 10
5
 20
-155
 40
6.403124237432849
  0
CIRCLE
  5
FD
100
AcDbEntity
  8
0
  6
ByLayer
 62
  256
370
  100
100
AcDbCircle
 10
5
 20
10
 40
6.5
  0
LINE
  5
FE
100
AcDbEntity
  8
0
  6
ByLayer
 62
  256
370
  100
100
AcDbLine
 10
-5
 20
-160
 11
-5
 21
10
  0
ARC
  5
FF
100
AcDbEntity
  8
0
  6
ByLayer
 62
  256
370
  100
100
AcDbCircle
 10
5
 20
10
 40
10
100
AcDbArc
 50
90
 51
180
  0
CIRCLE
  5
100
100
AcDbEntity
  8
0
  6
ByLayer
 62
  256
370
  100
100
AcDbCircle
 10
220
 20
10
 40
6.5
  0
ARC
  5
101
100
AcDbEntity
  8
0
  6
ByLayer
 62
  256
370
  100
100
AcDbCircle
 10
220
 20
10
 40
10
100
AcDbArc
 50
0
 51
90
  0
LINE
  5
102
100
AcDbEntity
  8
0
  6
ByLayer
 62
  256
370
  100
100
AcDbLine
 10
5
 20
20
 11
220
 21
20
  0
ARC
  5
103
100
AcDbEntity
  8
0
  6
ByLayer
 62
  256
370
  100
100
AcDbCircle
 10
220
 20
-155
 40
10
100
AcDbArc
 50
270
 51
0
  0
CIRCLE
  5
104
100
AcDbEntity
  8
0
  6
ByLayer
 62
  256
370
  100
100
AcDbCircle
 10
220
 20
-155
 40
6.5
  0
LINE
  5
105
100
AcDbEntity
  8
0
  6
ByLayer
 62
  256
370
  100
100
AcDbLine
 10
0
 20
-165
 11
220
 21
-165
  0
LINE
  5
106
100
AcDbEntity
  8
0
  6
ByLayer
 62
  256
370
  100
100
AcDbLine
 10
230
 20
10
 11
230
 21
-155
  0
LWPOLYLINE
  5
107
100
AcDbEntity
  8
0
  6
ByLayer
 62
  256
370
  100
100
AcDbPolyline
 90
    4
 70
    1
 43
0
 10
70
 20
0
 10
70
 20
0
 10
70
 20
0
 10
70
 20
0
  0
LWPOLYLINE
  5
108
100
AcDbEntity
  8
0
  6
DASHEDTINY
 62
  256
370
   50
100
AcDbPolyline
 90
    4
 70
    1
 43
0
 10
0
 20
0
 10
225
 20
0
 10
225
 20
-145
 10
0
 20
-145
  0
CIRCLE
  5
109
100
AcDbEntity
  8
0
  6
ByLayer
 62
  256
370
  100
100
AcDbCircle
 10
20
 20
-33
 40
2.75
  0
CIRCLE
  5
10A
100
AcDbEntity
  8
0
  6
ByLayer
 62
  256
370
  100
100
AcDbCircle
 10
20
 20
-53
 40
2.75
  0
LWPOLYLINE
  5
10B
100
AcDbEntity
  8
0
  6
ByLayer
 62
  256
370
  100
100
AcDbPolyline
 90
    4
 70
    1
 43
0
 10
43
 20
-25
 10
183
 20
-25
 10
183
 20
-65
 10
43
 20
-65
  0
CIRCLE
  5
10C
100
AcDbEntity
  8
0
  6
ByLayer
 62
  256
370
  100
100
AcDbCircle
 10
200
 20
-45
 40
3.25
  0
CIRCLE
  5
10D
100
AcDbEntity
  8
0
  6
ByLayer
 62
  256
370
  100
100
AcDbCircle
 10
20
 20
-91
 40
2.75
  0
CIRCLE
  5
10E
100
AcDbEntity
  8
0
  6
ByLayer
 62
  256
370
  100
100
AcDbCircle
 10
20
 20
-102
 40
2.75
  0
CIRCLE
  5
10F
100
AcDbEntity
  8
0
  6
ByLayer
 62
  256
370
  100
100
AcDbCircle
 10
20
 20
-113
 40
2.75
  0
CIRCLE
  5
110
100
AcDbEntity
  8
0
  6
ByLayer
 62
  256
370
  100
100
AcDbCircle
 10
20
 20
-124
 40
2.75
  0
CIRCLE
  5
111
100
AcDbEntity
  8
0
  6
ByLayer
 62
  256
370
  100
100
AcDbCircle
 10
85
 20
-91
 40
2.75
  0
CIRCLE
  5
112
100
AcDbEntity
  8
0
  6
ByLayer
 62
  256
370
  100
100
AcDbCircle
 10
85
 20
-102
 40
2.75
  0
CIRCLE
  5
113
100
AcDbEntity
  8
0
  6
ByLayer
 62
  256
370
  100
100
AcDbCircle
 10
85
 20
-113
 40
2.75
  0
CIRCLE
  5
114
100
AcDbEntity
  8
0
  6
ByLayer
 62
  256
370
  100
100
AcDbCircle
 10
85
 20
-124
 40
2.75
  0
CIRCLE
  5
115
100
AcDbEntity
  8
0
  6
ByLayer
 62
  256
370
  100
100
AcDbCircle
 10
150
 20
-91
 40
2.75
  0
CIRCLE
  5
116
100
AcDbEntity
  8
0
  6
ByLayer
 62
  256
370
  100
100
AcDbCircle
 10
150
 20
-102
 40
2.75
  0
CIRCLE
  5
117
100
AcDbEntity
  8
0
  6
ByLayer
 62
  256
370
  100
100
AcDbCircle
 10
150
 20
-113
 40
2.75
  0
CIRCLE
  5
118
100
AcDbEntity
  8
0
  6
ByLayer
 62
  256
370
  100
100
AcDbCircle
 10
150
 20
-124
 40
2.75
  0
LINE
  5
119
100
AcDbEntity
  8
0
  6
DASHDOTTINY
 62
  256
370
   50
100
AcDbLine
 10
15
 20
-91
 11
240
 21
-91
  0
LINE
  5
11A
100
AcDbEntity
  8
0
  6
DASHDOTTINY
 62
  256
370
   50
100
AcDbLine
 10
15
 20
-102
 11
240
 21
-102
  0
LINE
  5
11B
100
AcDbEntity
  8
0
  6
DASHDOTTINY
 62
  256
370
   50
100
AcDbLine
 10
15
 20
-113
 11
240
 21
-113
  0
LINE
  5
11C
100
AcDbEntity
  8
0
  6
DASHDOTTINY
 62
  256
370
   50
100
AcDbLine
 10
15
 20
-124
 11
240
 21
-124
  0
LINE
  5
11D
100
AcDbEntity
  8
0
  6
DASHDOTTINY
 62
  256
370
   50
100
AcDbLine
 10
85
 20
-81
 11
85
 21
-180
  0
LINE
  5
11E
100
AcDbEntity
  8
0
  6
DASHDOTTINY
 62
  256
370
   50
100
AcDbLine
 10
150
 20
-81
 11
150
 21
-180
  0
LINE
  5
11F
100
AcDbEntity
  8
0
  6
DASHDOTTINY
 62
  256
370
   50
100
AcDbLine
 10
200
 20
-35
 11
200
 21
-180
  0
LINE
  5
120
100
AcDbEntity
  8
0
  6
DASHDOTTINY
 62
  256
370
   50
100
AcDbLine
 10
30
 20
-33
 11
-20
 21
-33
  0
LINE
  5
121
100
AcDbEntity
  8
0
  6
DASHDOTTINY
 62
  256
370
   50
100
AcDbLine
 10
30
 20
-53
 11
-20
 21
-53
  0
LINE
  5
122
100
AcDbEntity
  8
0
  6
DASHDOTTINY
 62
  256
370
   50
100
AcDbLine
 10
190
 20
-45
 11
240
 21
-45
  0
LINE
  5
123
100
AcDbEntity
  8
0
  6
CONTINUOUS
 62
  256
370
   50
100
AcDbLine
 10
43
 20
-60
 11
43
 21
-180
  0
LINE
  5
124
100
AcDbEntity
  8
0
  6
CONTINUOUS
 62
  256
370
   50
100
AcDbLine
 10
183
 20
-60
 11
183
 21
-180
  0
LINE
  5
125
100
AcDbEntity
  8
0
  6
CONTINUOUS
 62
  256
370
   50
100
AcDbLine
 10
-5
 20
-152
 11
-5
 21
-180
  0
LINE
  5
126
100
AcDbEntity
  8
0
  6
CONTINUOUS
 62
  256
370
   50
100
AcDbLine
 10
0
 20
-145
 11
0
 21
-180
  0
DIMENSION
  5
127
100
AcDbEntity
  8
0
  6
CONTINUOUS
 62
  256
370
   50
100
AcDbDimension
  2
*D1
 10
-6.123233995736766e-17
 20
-178
 30
0
 11
-2.5
 21
-176.125
 31
0
 70
   33
 71
    5
  3
Standard
 53
0
210
0
220
0
230
1
100
AcDbAlignedDimension
 13
-5
 23
-177
 33
0
 14
0
 24
-177
 34
0
  0
DIMENSION
  5
128
100
AcDbEntity
  8
0
  6
CONTINUOUS
 62
  256
370
   50
100
AcDbDimension
  2
*D2
 10
20
 20
-178
 30
0
 11
10
 21
-176.125
 31
0
 70
   33
 71
    5
  3
Standard
 53
0
210
0
220
0
230
1
100
AcDbAlignedDimension
 13
0
 23
-175
 33
0
 14
20
 24
-175
 34
0
  0
DIMENSION
  5
129
100
AcDbEntity
  8
0
  6
CONTINUOUS
 62
  256
370
   50
100
AcDbDimension
  2
*D3
 10
43
 20
-178
 30
0
 11
31.5
 21
-176.125
 31
0
 70
   33
 71
    5
  3
Standard
 53
0
210
0
220
0
230
1
100
AcDbAlignedDimension
 13
20
 23
-175
 33
0
 14
43
 24
-175
 34
0
  0
DIMENSION
  5
12A
100
AcDbEntity
  8
0
  6
CONTINUOUS
 62
  256
370
   50
100
AcDbDimension
  2
*D4
 10
85
 20
-178
 30
0
 11
64
 21
-176.125
 31
0
 70
   33
 71
    5
  3
Standard
 53
0
210
0
220
0
230
1
100
AcDbAlignedDimension
 13
43
 23
-175
 33
0
 14
85
 24
-175
 34
0
  0
DIMENSION
  5
12B
100
AcDbEntity
  8
0
  6
CONTINUOUS
 62
  256
370
   50
100
AcDbDimension
  2
*D5
 10
150
 20
-178
 30
0
 11
117.5
 21
-176.125
 31
0
 70
   33
 71
    5
  3
Standard
 53
0
210
0
220
0
230
1
100
AcDbAlignedDimension
 13
85
 23
-176
 33
0
 14
150
 24
-176
 34
0
  0
DIMENSION
  5
12C
100
AcDbEntity
  8
0
  6
CONTINUOUS
 62
  256
370
   50
100
AcDbDimension
  2
*D6
 10
183
 20
-178
 30
0
 11
166.5
 21
-176.125
 31
0
 70
   33
 71
    5
  3
Standard
 53
0
210
0
220
0
230
1
100
AcDbAlignedDimension
 13
150
 23
-176
 33
0
 14
183
 24
-176
 34
0
  0
DIMENSION
  5
12D
100
AcDbEntity
  8
0
  6
CONTINUOUS
 62
  256
370
   50
100
AcDbDimension
  2
*D7
 10
200
 20
-178
 30
0
 11
191.5
 21
-176.125
 31
0
 70
   33
 71
    5
  3
Standard
 53
0
210
0
220
0
230
1
100
AcDbAlignedDimension
 13
183
 23
-176
 33
0
 14
200
 24
-176
 34
0
  0
LINE
  5
12E
100
AcDbEntity
  8
0
  6
CONTINUOUS
 62
  256
370
   50
100
AcDbLine
 10
210
 20
20
 11
240
 21
20
  0
LINE
  5
12F
100
AcDbEntity
  8
0
  6
CONTINUOUS
 62
  256
370
   50
100
AcDbLine
 10
225
 20
0
 11
240
 21
0
  0
DIMENSION
  5
130
100
AcDbEntity
  8
0
  6
CONTINUOUS
 62
  256
370
   50
100
AcDbDimension
  2
*D8
 10
240
 20
0
 30
0
 11
238.125
 21
10
 31
0
 70
   33
 71
    5
  3
Standard
 53
0
210
0
220
0
230
1
100
AcDbAlignedDimension
 13
240
 23
20
 33
0
 14
240
 24
0
 34
0
  0
DIMENSION
  5
131
100
AcDbEntity
  8
0
  6
CONTINUOUS
 62
  256
370
   50
100
AcDbDimension
  2
*D9
 10
240
 20
-45
 30
0
 11
238.125
 21
-22.5
 31
0
 70
   33
 71
    5
  3
Standard
 53
0
210
0
220
0
230
1
100
AcDbAlignedDimension
 13
240
 23
0
 33
0
 14
240
 24
-45
 34
0
  0
DIMENSION
  5
132
100
AcDbEntity
  8
0
  6
CONTINUOUS
 62
  256
370
   50
100
AcDbDimension
  2
*D10
 10
240
 20
-91
 30
0
 11
238.125
 21
-68
 31
0
 70
   33
 71
    5
  3
Standard
 53
0
210
0
220
0
230
1
100
AcDbAlignedDimension
 13
240
 23
-45
 33
0
 14
240
 24
-91
 34
0
  0
DIMENSION
  5
133
100
AcDbEntity
  8
0
  6
CONTINUOUS
 62
  256
370
   50
100
AcDbDimension
  2
*D11
 10
240
 20
-102
 30
0
 11
238.125
 21
-96.5
 31
0
 70
   33
 71
    5
  3
Standard
 53
0
210
0
220
0
230
1
100
AcDbAlignedDimension
 13
240
 23
-91
 33
0
 14
240
 24
-102
 34
0
  0
DIMENSION
  5
134
100
AcDbEntity
  8
0
  6
CONTINUOUS
 62
  256
370
   50
100
AcDbDimension
  2
*D12
 10
240
 20
-113
 30
0
 11
238.125
 21
-107.5
 31
0
 70
   33
 71
    5
  3
Standard
 53
0
210
0
220
0
230
1
100
AcDbAlignedDimension
 13
240
 23
-102
 33
0
 14
240
 24
-113
 34
0
  0
DIMENSION
  5
135
100
AcDbEntity
  8
0
  6
CONTINUOUS
 62
  256
370
   50
100
AcDbDimension
  2
*D13
 10
240
 20
-124
 30
0
 11
238.125
 21
-118.5
 31
0
 70
   33
 71
    5
  3
Standard
 53
0
210
0
220
0
230
1
100
AcDbAlignedDimension
 13
240
 23
-113
 33
0
 14
240
 24
-124
 34
0
  0
DIMENSION
  5
136
100
AcDbEntity
  8
0
  6
CONTINUOUS
 62
  256
370
   50
100
AcDbDimension
  2
*D14
 10
230
 20
30
 30
0
 11
112.5
 21
31.875
 31
0
 70
   33
 71
    5
  3
Standard
 53
0
210
0
220
0
230
1
100
AcDbAlignedDimension
 13
-5
 23
0
 33
0
 14
230
 24
0
 34
0
  0
LINE
  5
137
100
AcDbEntity
  8
0
  6
CONTINUOUS
 62
  256
370
   50
100
AcDbLine
 10
10
 20
20
 11
-20
 21
20
  0
LINE
  5
138
100
AcDbEntity
  8
0
  6
CONTINUOUS
 62
  256
370
   50
100
AcDbLine
 10
43
 20
-25
 11
-20
 21
-25
  0
LINE
  5
139
100
AcDbEntity
  8
0
  6
DASHDOTTINY
 62
  256
370
   50
100
AcDbLine
 10
20
 20
-27
 11
20
 21
-180
  0
LINE
  5
13A
100
AcDbEntity
  8
0
  6
CONTINUOUS
 62
  256
370
   50
100
AcDbLine
 10
42
 20
-65
 11
43
 21
-65
  0
LINE
  5
13B
100
AcDbEntity
  8
0
  6
CONTINUOUS
 62
  256
370
   50
100
AcDbLine
 10
43
 20
-65
 11
-20
 21
-65
  0
DIMENSION
  5
13C
100
AcDbEntity
  8
0
  6
CONTINUOUS
 62
  256
370
   50
100
AcDbDimension
  2
*D15
 10
-20
 20
-25
 30
0
 11
-21.875
 21
-2.5
 31
0
 70
   33
 71
    5
  3
Standard
 53
0
210
0
220
0
230
1
100
AcDbAlignedDimension
 13
-20
 23
20
 33
0
 14
-20
 24
-25
 34
0
  0
DIMENSION
  5
13D
100
AcDbEntity
  8
0
  6
CONTINUOUS
 62
  256
370
   50
100
AcDbDimension
  2
*D16
 10
-20
 20
-33
 30
0
 11
-21.875
 21
-29
 31
0
 70
   33
 71
    5
  3
Standard
 53
0
210
0
220
0
230
1
100
AcDbAlignedDimension
 13
-20
 23
-25
 33
0
 14
-20
 24
-33
 34
0
  0
DIMENSION
  5
13E
100
AcDbEntity
  8
0
  6
CONTINUOUS
 62
  256
370
   50
100
AcDbDimension
  2
*D17
 10
-20
 20
-53
 30
0
 11
-21.875
 21
-43
 31
0
 70
   33
 71
    5
  3
Standard
 53
0
210
0
220
0
230
1
100
AcDbAlignedDimension
 13
-20
 23
-33
 33
0
 14
-20
 24
-53
 34
0
  0
DIMENSION
  5
13F
100
AcDbEntity
  8
0
  6
CONTINUOUS
 62
  256
370
   50
100
AcDbDimension
  2
*D18
 10
-20
 20
-65
 30
0
 11
-21.875
 21
-59
 31
0
 70
   33
 71
    5
  3
Standard
 53
0
210
0
220
0
230
1
100
AcDbAlignedDimension
 13
-20
 23
-53
 33
0
 14
-20
 24
-65
 34
0
  0
LINE
  5
140
100
AcDbEntity
  8
0
  6
CONTINUOUS
 62
  256
370
   50
100
AcDbLine
 10
220
 20
-165
 11
250
 21
-165
  0
DIMENSION
  5
141
100
AcDbEntity
  8
0
  6
CONTINUOUS
 62
  256
370
   50
100
AcDbDimension
  2
*D19
 10
250
 20
-165
 30
0
 11
248.125
 21
-72.5
 31
0
 70
   33
 71
    5
  3
Standard
 53
0
210
0
220
0
230
1
100
AcDbAlignedDimension
 13
240
 23
20
 33
0
 14
240
 24
-165
 34
0
  0
LINE
  5
142
100
AcDbEntity
  8
frame
  6
ByLayer
 62
  256
370
   -1
100
AcDbLine
 10
204.999
 20
-188.009
 11
204.999
 21
-220.013
  0
LINE
  5
143
100
AcDbEntity
  8
frame
  6
ByLayer
 62
  256
370
   -1
100
AcDbLine
 10
204.999
 20
-220.013
 11
313
 21
-220.013
  0
LINE
  5
144
100
AcDbEntity
  8
frame
  6
ByLayer
 62
  256
370
   -1
100
AcDbLine
 10
313
 20
-220.013
 11
313
 21
-188.009
  0
LINE
  5
145
100
AcDbEntity
  8
frame
  6
ByLayer
 62
  256
370
   -1
100
AcDbLine
 10
313
 20
-188.009
 11
204.999
 21
-188.009
  0
LINE
  5
146
100
AcDbEntity
  8
frame
  6
ByLayer
 62
  256
370
   -1
100
AcDbLine
 10
-84.9924
 20
54.9924
 11
-84.9924
 21
-221.995
  0
LINE
  5
147
100
AcDbEntity
  8
frame
  6
ByLayer
 62
  256
370
   -1
100
AcDbLine
 10
-84.9924
 20
-221.995
 11
314.981
 21
-221.995
  0
LINE
  5
148
100
AcDbEntity
  8
frame
  6
ByLayer
 62
  256
370
   -1
100
AcDbLine
 10
314.981
 20
-221.995
 11
314.981
 21
54.9924
  0
LINE
  5
149
100
AcDbEntity
  8
frame
  6
ByLayer
 62
  256
370
   -1
100
AcDbLine
 10
314.981
 20
54.9924
 11
-84.9924
 21
54.9924
  0
LINE
  5
14A
100
AcDbEntity
  8
frame
  6
ByLayer
 62
  256
370
   -1
100
AcDbLine
 10
-83.0112
 20
53.0112
 11
-83.0112
 21
-220.013
  0
LINE
  5
14B
100
AcDbEntity
  8
frame
  6
ByLayer
 62
  256
370
   -1
100
AcDbLine
 10
-83.0112
 20
-220.013
 11
313
 21
-220.013
  0
LINE
  5
14C
100
AcDbEntity
  8
frame
  6
ByLayer
 62
  256
370
   -1
100
AcDbLine
 10
313
 20
-220.013
 11
313
 21
53.0112
  0
LINE
  5
14D
100
AcDbEntity
  8
frame
  6
ByLayer
 62
  256
370
   -1
100
AcDbLine
 10
313
 20
53.0112
 11
-83.0112
 21
53.0112
  0
LINE
  5
14E
100
AcDbEntity
  8
frame
  6
ByLayer
 62
  256
370
   -1
100
AcDbLine
 10
-35.0052
 20
53.0112
 11
-35.0052
 21
54.9924
  0
LINE
  5
14F
100
AcDbEntity
  8
frame
  6
ByLayer
 62
  256
370
   -1
100
AcDbLine
 10
15.00700000000001
 20
53.0112
 11
15.00700000000001
 21
54.9924
  0
LINE
  5
150
100
AcDbEntity
  8
frame
  6
ByLayer
 62
  256
370
   -1
100
AcDbLine
 10
64.995
 20
53.0112
 11
64.995
 21
54.9924
  0
LINE
  5
151
100
AcDbEntity
  8
frame
  6
ByLayer
 62
  256
370
   -1
100
AcDbLine
 10
115.007
 20
53.0112
 11
115.007
 21
54.9924
  0
LINE
  5
152
100
AcDbEntity
  8
frame
  6
ByLayer
 62
  256
370
   -1
100
AcDbLine
 10
164.994
 20
53.0112
 11
164.994
 21
54.9924
  0
LINE
  5
153
100
AcDbEntity
  8
frame
  6
ByLayer
 62
  256
370
   -1
100
AcDbLine
 10
215.007
 20
53.0112
 11
215.007
 21
54.9924
  0
LINE
  5
154
100
AcDbEntity
  8
frame
  6
ByLayer
 62
  256
370
   -1
100
AcDbLine
 10
264.994
 20
53.0112
 11
264.994
 21
54.9924
  0
LINE
  5
155
100
AcDbEntity
  8
frame
  6
ByLayer
 62
  256
370
   -1
100
AcDbLine
 10
-59.0082
 20
53.41759999999999
 11
-59.7448
 21
53.41759999999999
  0
LINE
  5
156
100
AcDbEntity
  8
frame
  6
ByLayer
 62
  256
370
   -1
100
AcDbLine
 10
-59.3892
 20
53.41759999999999
 11
-59.3892
 21
54.71299999999999
  0
LINE
  5
157
100
AcDbEntity
  8
frame
  6
ByLayer
 62
  256
370
   -1
100
AcDbLine
 10
-59.3892
 20
54.71299999999999
 11
-59.5162
 21
54.5352
  0
LINE
  5
158
100
AcDbEntity
  8
frame
  6
ByLayer
 62
  256
370
   -1
100
AcDbLine
 10
-59.5162
 20
54.5352
 11
-59.6178
 21
54.40819999999999
  0
LINE
  5
159
100
AcDbEntity
  8
frame
  6
ByLayer
 62
  256
370
   -1
100
AcDbLine
 10
-59.6178
 20
54.40819999999999
 11
-59.7448
 21
54.35740000000001
  0
LINE
  5
15A
100
AcDbEntity
  8
frame
  6
ByLayer
 62
  256
370
   -1
100
AcDbLine
 10
-9.757599999999996
 20
54.6114
 11
-9.706800000000001
 21
54.66220000000001
  0
LINE
  5
15B
100
AcDbEntity
  8
frame
  6
ByLayer
 62
  256
370
   -1
100
AcDbLine
 10
-9.706800000000001
 20
54.66220000000001
 11
-9.579800000000013
 21
54.71299999999999
  0
LINE
  5
15C
100
AcDbEntity
  8
frame
  6
ByLayer
 62
  256
370
   -1
100
AcDbLine
 10
-9.579800000000013
 20
54.71299999999999
 11
-9.275000000000013
 21
54.71299999999999
  0
LINE
  5
15D
100
AcDbEntity
  8
frame
  6
ByLayer
 62
  256
370
   -1
100
AcDbLine
 10
-9.275000000000013
 20
54.71299999999999
 11
-9.148000000000003
 21
54.66220000000001
  0
LINE
  5
15E
100
AcDbEntity
  8
frame
  6
ByLayer
 62
  256
370
   -1
100
AcDbLine
 10
-9.148000000000003
 20
54.66220000000001
 11
-9.097200000000001
 21
54.6114
  0
LINE
  5
15F
100
AcDbEntity
  8
frame
  6
ByLayer
 62
  256
370
   -1
100
AcDbLine
 10
-9.097200000000001
 20
54.6114
 11
-9.021000000000001
 21
54.48439999999999
  0
LINE
  5
160
100
AcDbEntity
  8
frame
  6
ByLayer
 62
  256
370
   -1
100
AcDbLine
 10
-9.021000000000001
 20
54.48439999999999
 11
-9.021000000000001
 21
54.35740000000001
  0
LINE
  5
161
100
AcDbEntity
  8
frame
  6
ByLayer
 62
  256
370
   -1
100
AcDbLine
 10
-9.021000000000001
 20
54.35740000000001
 11
-9.097200000000001
 21
54.17959999999999
  0
LINE
  5
162
100
AcDbEntity
  8
frame
  6
ByLayer
 62
  256
370
   -1
100
AcDbLine
 10
-9.097200000000001
 20
54.17959999999999
 11
-9.833799999999997
 21
53.41759999999999
  0
LINE
  5
163
100
AcDbEntity
  8
frame
  6
ByLayer
 62
  256
370
   -1
100
AcDbLine
 10
-9.833799999999997
 20
53.41759999999999
 11
-9.021000000000001
 21
53.41759999999999
  0
LINE
  5
164
100
AcDbEntity
  8
frame
  6
ByLayer
 62
  256
370
   -1
100
AcDbLine
 10
40.179
 20
54.71299999999999
 11
40.99199999999999
 21
54.71299999999999
  0
LINE
  5
165
100
AcDbEntity
  8
frame
  6
ByLayer
 62
  256
370
   -1
100
AcDbLine
 10
40.99199999999999
 20
54.71299999999999
 11
40.56
 21
54.2304
  0
LINE
  5
166
100
AcDbEntity
  8
frame
  6
ByLayer
 62
  256
370
   -1
100
AcDbLine
 10
40.56
 20
54.2304
 11
40.738
 21
54.2304
  0
LINE
  5
167
100
AcDbEntity
  8
frame
  6
ByLayer
 62
  256
370
   -1
100
AcDbLine
 10
40.738
 20
54.2304
 11
40.86500000000001
 21
54.17959999999999
  0
LINE
  5
168
100
AcDbEntity
  8
frame
  6
ByLayer
 62
  256
370
   -1
100
AcDbLine
 10
40.86500000000001
 20
54.17959999999999
 11
40.91499999999999
 21
54.10339999999999
  0
LINE
  5
169
100
AcDbEntity
  8
frame
  6
ByLayer
 62
  256
370
   -1
100
AcDbLine
 10
40.91499999999999
 20
54.10339999999999
 11
40.99199999999999
 21
53.97640000000001
  0
LINE
  5
16A
100
AcDbEntity
  8
frame
  6
ByLayer
 62
  256
370
   -1
100
AcDbLine
 10
40.99199999999999
 20
53.97640000000001
 11
40.99199999999999
 21
53.67160000000001
  0
LINE
  5
16B
100
AcDbEntity
  8
frame
  6
ByLayer
 62
  256
370
   -1
100
AcDbLine
 10
40.99199999999999
 20
53.67160000000001
 11
40.91499999999999
 21
53.5446
  0
LINE
  5
16C
100
AcDbEntity
  8
frame
  6
ByLayer
 62
  256
370
   -1
100
AcDbLine
 10
40.91499999999999
 20
53.5446
 11
40.86500000000001
 21
53.49379999999999
  0
LINE
  5
16D
100
AcDbEntity
  8
frame
  6
ByLayer
 62
  256
370
   -1
100
AcDbLine
 10
40.86500000000001
 20
53.49379999999999
 11
40.738
 21
53.41759999999999
  0
LINE
  5
16E
100
AcDbEntity
  8
frame
  6
ByLayer
 62
  256
370
   -1
100
AcDbLine
 10
40.738
 20
53.41759999999999
 11
40.38200000000001
 21
53.41759999999999
  0
LINE
  5
16F
100
AcDbEntity
  8
frame
  6
ByLayer
 62
  256
370
   -1
100
AcDbLine
 10
40.38200000000001
 20
53.41759999999999
 11
40.255
 21
53.49379999999999
  0
LINE
  5
170
100
AcDbEntity
  8
frame
  6
ByLayer
 62
  256
370
   -1
100
AcDbLine
 10
40.255
 20
53.49379999999999
 11
40.179
 21
53.5446
  0
LINE
  5
171
100
AcDbEntity
  8
frame
  6
ByLayer
 62
  256
370
   -1
100
AcDbLine
 10
90.852
 20
54.28120000000001
 11
90.852
 21
53.41759999999999
  0
LINE
  5
172
100
AcDbEntity
  8
frame
  6
ByLayer
 62
  256
370
   -1
100
AcDbLine
 10
90.547
 20
54.78919999999999
 11
90.24199999999999
 21
53.8494
  0
LINE
  5
173
100
AcDbEntity
  8
frame
  6
ByLayer
 62
  256
370
   -1
100
AcDbLine
 10
90.24199999999999
 20
53.8494
 11
91.03
 21
53.8494
  0
LINE
  5
174
100
AcDbEntity
  8
frame
  6
ByLayer
 62
  256
370
   -1
100
AcDbLine
 10
140.915
 20
54.71299999999999
 11
140.306
 21
54.71299999999999
  0
LINE
  5
175
100
AcDbEntity
  8
frame
  6
ByLayer
 62
  256
370
   -1
100
AcDbLine
 10
140.306
 20
54.71299999999999
 11
140.255
 21
54.10339999999999
  0
LINE
  5
176
100
AcDbEntity
  8
frame
  6
ByLayer
 62
  256
370
   -1
100
AcDbLine
 10
140.255
 20
54.10339999999999
 11
140.306
 21
54.17959999999999
  0
LINE
  5
177
100
AcDbEntity
  8
frame
  6
ByLayer
 62
  256
370
   -1
100
AcDbLine
 10
140.306
 20
54.17959999999999
 11
140.433
 21
54.2304
  0
LINE
  5
178
100
AcDbEntity
  8
frame
  6
ByLayer
 62
  256
370
   -1
100
AcDbLine
 10
140.433
 20
54.2304
 11
140.737
 21
54.2304
  0
LINE
  5
179
100
AcDbEntity
  8
frame
  6
ByLayer
 62
  256
370
   -1
100
AcDbLine
 10
140.737
 20
54.2304
 11
140.864
 21
54.17959999999999
  0
LINE
  5
17A
100
AcDbEntity
  8
frame
  6
ByLayer
 62
  256
370
   -1
100
AcDbLine
 10
140.864
 20
54.17959999999999
 11
140.915
 21
54.10339999999999
  0
LINE
  5
17B
100
AcDbEntity
  8
frame
  6
ByLayer
 62
  256
370
   -1
100
AcDbLine
 10
140.915
 20
54.10339999999999
 11
140.991
 21
53.97640000000001
  0
LINE
  5
17C
100
AcDbEntity
  8
frame
  6
ByLayer
 62
  256
370
   -1
100
AcDbLine
 10
140.991
 20
53.97640000000001
 11
140.991
 21
53.67160000000001
  0
LINE
  5
17D
100
AcDbEntity
  8
frame
  6
ByLayer
 62
  256
370
   -1
100
AcDbLine
 10
140.991
 20
53.67160000000001
 11
140.915
 21
53.5446
  0
LINE
  5
17E
100
AcDbEntity
  8
frame
  6
ByLayer
 62
  256
370
   -1
100
AcDbLine
 10
140.915
 20
53.5446
 11
140.864
 21
53.49379999999999
  0
LINE
  5
17F
100
AcDbEntity
  8
frame
  6
ByLayer
 62
  256
370
   -1
100
AcDbLine
 10
140.864
 20
53.49379999999999
 11
140.737
 21
53.41759999999999
  0
LINE
  5
180
100
AcDbEntity
  8
frame
  6
ByLayer
 62
  256
370
   -1
100
AcDbLine
 10
140.737
 20
53.41759999999999
 11
140.433
 21
53.41759999999999
  0
LINE
  5
181
100
AcDbEntity
  8
frame
  6
ByLayer
 62
  256
370
   -1
100
AcDbLine
 10
140.433
 20
53.41759999999999
 11
140.306
 21
53.49379999999999
  0
LINE
  5
182
100
AcDbEntity
  8
frame
  6
ByLayer
 62
  256
370
   -1
100
AcDbLine
 10
140.306
 20
53.49379999999999
 11
140.255
 21
53.5446
  0
LINE
  5
183
100
AcDbEntity
  8
frame
  6
ByLayer
 62
  256
370
   -1
100
AcDbLine
 10
190.852
 20
54.71299999999999
 11
190.598
 21
54.71299999999999
  0
LINE
  5
184
100
AcDbEntity
  8
frame
  6
ByLayer
 62
  256
370
   -1
100
AcDbLine
 10
190.598
 20
54.71299999999999
 11
190.471
 21
54.66220000000001
  0
LINE
  5
185
100
AcDbEntity
  8
frame
  6
ByLayer
 62
  256
370
   -1
100
AcDbLine
 10
190.471
 20
54.66220000000001
 11
190.42
 21
54.6114
  0
LINE
  5
186
100
AcDbEntity
  8
frame
  6
ByLayer
 62
  256
370
   -1
100
AcDbLine
 10
190.42
 20
54.6114
 11
190.293
 21
54.40819999999999
  0
LINE
  5
187
100
AcDbEntity
  8
frame
  6
ByLayer
 62
  256
370
   -1
100
AcDbLine
 10
190.293
 20
54.40819999999999
 11
190.242
 21
54.17959999999999
  0
LINE
  5
188
100
AcDbEntity
  8
frame
  6
ByLayer
 62
  256
370
   -1
100
AcDbLine
 10
190.242
 20
54.17959999999999
 11
190.242
 21
53.67160000000001
  0
LINE
  5
189
100
AcDbEntity
  8
frame
  6
ByLayer
 62
  256
370
   -1
100
AcDbLine
 10
190.242
 20
53.67160000000001
 11
190.293
 21
53.5446
  0
LINE
  5
18A
100
AcDbEntity
  8
frame
  6
ByLayer
 62
  256
370
   -1
100
AcDbLine
 10
190.293
 20
53.5446
 11
190.369
 21
53.49379999999999
  0
LINE
  5
18B
100
AcDbEntity
  8
frame
  6
ByLayer
 62
  256
370
   -1
100
AcDbLine
 10
190.369
 20
53.49379999999999
 11
190.471
 21
53.41759999999999
  0
LINE
  5
18C
100
AcDbEntity
  8
frame
  6
ByLayer
 62
  256
370
   -1
100
AcDbLine
 10
190.471
 20
53.41759999999999
 11
190.725
 21
53.41759999999999
  0
LINE
  5
18D
100
AcDbEntity
  8
frame
  6
ByLayer
 62
  256
370
   -1
100
AcDbLine
 10
190.725
 20
53.41759999999999
 11
190.852
 21
53.49379999999999
  0
LINE
  5
18E
100
AcDbEntity
  8
frame
  6
ByLayer
 62
  256
370
   -1
100
AcDbLine
 10
190.852
 20
53.49379999999999
 11
190.902
 21
53.5446
  0
LINE
  5
18F
100
AcDbEntity
  8
frame
  6
ByLayer
 62
  256
370
   -1
100
AcDbLine
 10
190.902
 20
53.5446
 11
190.979
 21
53.67160000000001
  0
LINE
  5
190
100
AcDbEntity
  8
frame
  6
ByLayer
 62
  256
370
   -1
100
AcDbLine
 10
190.979
 20
53.67160000000001
 11
190.979
 21
53.97640000000001
  0
LINE
  5
191
100
AcDbEntity
  8
frame
  6
ByLayer
 62
  256
370
   -1
100
AcDbLine
 10
190.979
 20
53.97640000000001
 11
190.902
 21
54.10339999999999
  0
LINE
  5
192
100
AcDbEntity
  8
frame
  6
ByLayer
 62
  256
370
   -1
100
AcDbLine
 10
190.902
 20
54.10339999999999
 11
190.852
 21
54.17959999999999
  0
LINE
  5
193
100
AcDbEntity
  8
frame
  6
ByLayer
 62
  256
370
   -1
100
AcDbLine
 10
190.852
 20
54.17959999999999
 11
190.725
 21
54.2304
  0
LINE
  5
194
100
AcDbEntity
  8
frame
  6
ByLayer
 62
  256
370
   -1
100
AcDbLine
 10
190.725
 20
54.2304
 11
190.471
 21
54.2304
  0
LINE
  5
195
100
AcDbEntity
  8
frame
  6
ByLayer
 62
  256
370
   -1
100
AcDbLine
 10
190.471
 20
54.2304
 11
190.369
 21
54.17959999999999
  0
LINE
  5
196
100
AcDbEntity
  8
frame
  6
ByLayer
 62
  256
370
   -1
100
AcDbLine
 10
190.369
 20
54.17959999999999
 11
190.293
 21
54.10339999999999
  0
LINE
  5
197
100
AcDbEntity
  8
frame
  6
ByLayer
 62
  256
370
   -1
100
AcDbLine
 10
190.293
 20
54.10339999999999
 11
190.242
 21
53.97640000000001
  0
LINE
  5
198
100
AcDbEntity
  8
frame
  6
ByLayer
 62
  256
370
   -1
100
AcDbLine
 10
240.178
 20
54.71299999999999
 11
241.042
 21
54.71299999999999
  0
LINE
  5
199
100
AcDbEntity
  8
frame
  6
ByLayer
 62
  256
370
   -1
100
AcDbLine
 10
241.042
 20
54.71299999999999
 11
240.483
 21
53.41759999999999
  0
LINE
  5
19A
100
AcDbEntity
  8
frame
  6
ByLayer
 62
  256
370
   -1
100
AcDbLine
 10
290.47
 20
54.17959999999999
 11
290.369
 21
54.2304
  0
LINE
  5
19B
100
AcDbEntity
  8
frame
  6
ByLayer
 62
  256
370
   -1
100
AcDbLine
 10
290.369
 20
54.2304
 11
290.293
 21
54.28120000000001
  0
LINE
  5
19C
100
AcDbEntity
  8
frame
  6
ByLayer
 62
  256
370
   -1
100
AcDbLine
 10
290.293
 20
54.28120000000001
 11
290.242
 21
54.40819999999999
  0
LINE
  5
19D
100
AcDbEntity
  8
frame
  6
ByLayer
 62
  256
370
   -1
100
AcDbLine
 10
290.242
 20
54.40819999999999
 11
290.242
 21
54.48439999999999
  0
LINE
  5
19E
100
AcDbEntity
  8
frame
  6
ByLayer
 62
  256
370
   -1
100
AcDbLine
 10
290.242
 20
54.48439999999999
 11
290.293
 21
54.6114
  0
LINE
  5
19F
100
AcDbEntity
  8
frame
  6
ByLayer
 62
  256
370
   -1
100
AcDbLine
 10
290.293
 20
54.6114
 11
290.369
 21
54.66220000000001
  0
LINE
  5
1A0
100
AcDbEntity
  8
frame
  6
ByLayer
 62
  256
370
   -1
100
AcDbLine
 10
290.369
 20
54.66220000000001
 11
290.47
 21
54.71299999999999
  0
LINE
  5
1A1
100
AcDbEntity
  8
frame
  6
ByLayer
 62
  256
370
   -1
100
AcDbLine
 10
290.47
 20
54.71299999999999
 11
290.724
 21
54.71299999999999
  0
LINE
  5
1A2
100
AcDbEntity
  8
frame
  6
ByLayer
 62
  256
370
   -1
100
AcDbLine
 10
290.724
 20
54.71299999999999
 11
290.851
 21
54.66220000000001
  0
LINE
  5
1A3
100
AcDbEntity
  8
frame
  6
ByLayer
 62
  256
370
   -1
100
AcDbLine
 10
290.851
 20
54.66220000000001
 11
290.902
 21
54.6114
  0
LINE
  5
1A4
100
AcDbEntity
  8
frame
  6
ByLayer
 62
  256
370
   -1
100
AcDbLine
 10
290.902
 20
54.6114
 11
290.978
 21
54.48439999999999
  0
LINE
  5
1A5
100
AcDbEntity
  8
frame
  6
ByLayer
 62
  256
370
   -1
100
AcDbLine
 10
290.978
 20
54.48439999999999
 11
290.978
 21
54.40819999999999
  0
LINE
  5
1A6
100
AcDbEntity
  8
frame
  6
ByLayer
 62
  256
370
   -1
100
AcDbLine
 10
290.978
 20
54.40819999999999
 11
290.902
 21
54.28120000000001
  0
LINE
  5
1A7
100
AcDbEntity
  8
frame
  6
ByLayer
 62
  256
370
   -1
100
AcDbLine
 10
290.902
 20
54.28120000000001
 11
290.851
 21
54.2304
  0
LINE
  5
1A8
100
AcDbEntity
  8
frame
  6
ByLayer
 62
  256
370
   -1
100
AcDbLine
 10
290.851
 20
54.2304
 11
290.724
 21
54.17959999999999
  0
LINE
  5
1A9
100
AcDbEntity
  8
frame
  6
ByLayer
 62
  256
370
   -1
100
AcDbLine
 10
290.724
 20
54.17959999999999
 11
290.47
 21
54.17959999999999
  0
LINE
  5
1AA
100
AcDbEntity
  8
frame
  6
ByLayer
 62
  256
370
   -1
100
AcDbLine
 10
290.47
 20
54.17959999999999
 11
290.369
 21
54.10339999999999
  0
LINE
  5
1AB
100
AcDbEntity
  8
frame
  6
ByLayer
 62
  256
370
   -1
100
AcDbLine
 10
290.369
 20
54.10339999999999
 11
290.293
 21
54.05260000000001
  0
LINE
  5
1AC
100
AcDbEntity
  8
frame
  6
ByLayer
 62
  256
370
   -1
100
AcDbLine
 10
290.293
 20
54.05260000000001
 11
290.242
 21
53.9256
  0
LINE
  5
1AD
100
AcDbEntity
  8
frame
  6
ByLayer
 62
  256
370
   -1
100
AcDbLine
 10
290.242
 20
53.9256
 11
290.242
 21
53.67160000000001
  0
LINE
  5
1AE
100
AcDbEntity
  8
frame
  6
ByLayer
 62
  256
370
   -1
100
AcDbLine
 10
290.242
 20
53.67160000000001
 11
290.293
 21
53.5446
  0
LINE
  5
1AF
100
AcDbEntity
  8
frame
  6
ByLayer
 62
  256
370
   -1
100
AcDbLine
 10
290.293
 20
53.5446
 11
290.369
 21
53.49379999999999
  0
LINE
  5
1B0
100
AcDbEntity
  8
frame
  6
ByLayer
 62
  256
370
   -1
100
AcDbLine
 10
290.369
 20
53.49379999999999
 11
290.47
 21
53.41759999999999
  0
LINE
  5
1B1
100
AcDbEntity
  8
frame
  6
ByLayer
 62
  256
370
   -1
100
AcDbLine
 10
290.47
 20
53.41759999999999
 11
290.724
 21
53.41759999999999
  0
LINE
  5
1B2
100
AcDbEntity
  8
frame
  6
ByLayer
 62
  256
370
   -1
100
AcDbLine
 10
290.724
 20
53.41759999999999
 11
290.851
 21
53.49379999999999
  0
LINE
  5
1B3
100
AcDbEntity
  8
frame
  6
ByLayer
 62
  256
370
   -1
100
AcDbLine
 10
290.851
 20
53.49379999999999
 11
290.902
 21
53.5446
  0
LINE
  5
1B4
100
AcDbEntity
  8
frame
  6
ByLayer
 62
  256
370
   -1
100
AcDbLine
 10
290.902
 20
53.5446
 11
290.978
 21
53.67160000000001
  0
LINE
  5
1B5
100
AcDbEntity
  8
frame
  6
ByLayer
 62
  256
370
   -1
100
AcDbLine
 10
290.978
 20
53.67160000000001
 11
290.978
 21
53.9256
  0
LINE
  5
1B6
100
AcDbEntity
  8
frame
  6
ByLayer
 62
  256
370
   -1
100
AcDbLine
 10
290.978
 20
53.9256
 11
290.902
 21
54.05260000000001
  0
LINE
  5
1B7
100
AcDbEntity
  8
frame
  6
ByLayer
 62
  256
370
   -1
100
AcDbLine
 10
290.902
 20
54.05260000000001
 11
290.851
 21
54.10339999999999
  0
LINE
  5
1B8
100
AcDbEntity
  8
frame
  6
ByLayer
 62
  256
370
   -1
100
AcDbLine
 10
290.851
 20
54.10339999999999
 11
290.724
 21
54.17959999999999
  0
LINE
  5
1B9
100
AcDbEntity
  8
frame
  6
ByLayer
 62
  256
370
   -1
100
AcDbLine
 10
-35.0052
 20
-220.013
 11
-35.0052
 21
-221.995
  0
LINE
  5
1BA
100
AcDbEntity
  8
frame
  6
ByLayer
 62
  256
370
   -1
100
AcDbLine
 10
15.00700000000001
 20
-220.013
 11
15.00700000000001
 21
-221.995
  0
LINE
  5
1BB
100
AcDbEntity
  8
frame
  6
ByLayer
 62
  256
370
   -1
100
AcDbLine
 10
64.995
 20
-220.013
 11
64.995
 21
-221.995
  0
LINE
  5
1BC
100
AcDbEntity
  8
frame
  6
ByLayer
 62
  256
370
   -1
100
AcDbLine
 10
115.007
 20
-220.013
 11
115.007
 21
-221.995
  0
LINE
  5
1BD
100
AcDbEntity
  8
frame
  6
ByLayer
 62
  256
370
   -1
100
AcDbLine
 10
164.994
 20
-220.013
 11
164.994
 21
-221.995
  0
LINE
  5
1BE
100
AcDbEntity
  8
frame
  6
ByLayer
 62
  256
370
   -1
100
AcDbLine
 10
215.007
 20
-220.013
 11
215.007
 21
-221.995
  0
LINE
  5
1BF
100
AcDbEntity
  8
frame
  6
ByLayer
 62
  256
370
   -1
100
AcDbLine
 10
264.994
 20
-220.013
 11
264.994
 21
-221.995
  0
LINE
  5
1C0
100
AcDbEntity
  8
frame
  6
ByLayer
 62
  256
370
   -1
100
AcDbLine
 10
-59.0082
 20
-221.588
 11
-59.7448
 21
-221.588
  0
LINE
  5
1C1
100
AcDbEntity
  8
frame
  6
ByLayer
 62
  256
370
   -1
100
AcDbLine
 10
-59.3892
 20
-221.588
 11
-59.3892
 21
-220.293
  0
LINE
  5
1C2
100
AcDbEntity
  8
frame
  6
ByLayer
 62
  256
370
   -1
100
AcDbLine
 10
-59.3892
 20
-220.293
 11
-59.5162
 21
-220.471
  0
LINE
  5
1C3
100
AcDbEntity
  8
frame
  6
ByLayer
 62
  256
370
   -1
100
AcDbLine
 10
-59.5162
 20
-220.471
 11
-59.6178
 21
-220.598
  0
LINE
  5
1C4
100
AcDbEntity
  8
frame
  6
ByLayer
 62
  256
370
   -1
100
AcDbLine
 10
-59.6178
 20
-220.598
 11
-59.7448
 21
-220.648
  0
LINE
  5
1C5
100
AcDbEntity
  8
frame
  6
ByLayer
 62
  256
370
   -1
100
AcDbLine
 10
-9.757599999999996
 20
-220.394
 11
-9.706800000000001
 21
-220.344
  0
LINE
  5
1C6
100
AcDbEntity
  8
frame
  6
ByLayer
 62
  256
370
   -1
100
AcDbLine
 10
-9.706800000000001
 20
-220.344
 11
-9.579800000000013
 21
-220.293
  0
LINE
  5
1C7
100
AcDbEntity
  8
frame
  6
ByLayer
 62
  256
370
   -1
100
AcDbLine
 10
-9.579800000000013
 20
-220.293
 11
-9.275000000000013
 21
-220.293
  0
LINE
  5
1C8
100
AcDbEntity
  8
frame
  6
ByLayer
 62
  256
370
   -1
100
AcDbLine
 10
-9.275000000000013
 20
-220.293
 11
-9.148000000000003
 21
-220.344
  0
LINE
  5
1C9
100
AcDbEntity
  8
frame
  6
ByLayer
 62
  256
370
   -1
100
AcDbLine
 10
-9.148000000000003
 20
-220.344
 11
-9.097200000000001
 21
-220.394
  0
LINE
  5
1CA
100
AcDbEntity
  8
frame
  6
ByLayer
 62
  256
370
   -1
100
AcDbLine
 10
-9.097200000000001
 20
-220.394
 11
-9.021000000000001
 21
-220.521
  0
LINE
  5
1CB
100
AcDbEntity
  8
frame
  6
ByLayer
 62
  256
370
   -1
100
AcDbLine
 10
-9.021000000000001
 20
-220.521
 11
-9.021000000000001
 21
-220.648
  0
LINE
  5
1CC
100
AcDbEntity
  8
frame
  6
ByLayer
 62
  256
370
   -1
100
AcDbLine
 10
-9.021000000000001
 20
-220.648
 11
-9.097200000000001
 21
-220.826
  0
LINE
  5
1CD
100
AcDbEntity
  8
frame
  6
ByLayer
 62
  256
370
   -1
100
AcDbLine
 10
-9.097200000000001
 20
-220.826
 11
-9.833799999999997
 21
-221.588
  0
LINE
  5
1CE
100
AcDbEntity
  8
frame
  6
ByLayer
 62
  256
370
   -1
100
AcDbLine
 10
-9.833799999999997
 20
-221.588
 11
-9.021000000000001
 21
-221.588
  0
LINE
  5
1CF
100
AcDbEntity
  8
frame
  6
ByLayer
 62
  256
370
   -1
100
AcDbLine
 10
40.179
 20
-220.293
 11
40.99199999999999
 21
-220.293
  0
LINE
  5
1D0
100
AcDbEntity
  8
frame
  6
ByLayer
 62
  256
370
   -1
100
AcDbLine
 10
40.99199999999999
 20
-220.293
 11
40.56
 21
-220.775
  0
LINE
  5
1D1
100
AcDbEntity
  8
frame
  6
ByLayer
 62
  256
370
   -1
100
AcDbLine
 10
40.56
 20
-220.775
 11
40.738
 21
-220.775
  0
LINE
  5
1D2
100
AcDbEntity
  8
frame
  6
ByLayer
 62
  256
370
   -1
100
AcDbLine
 10
40.738
 20
-220.775
 11
40.86500000000001
 21
-220.826
  0
LINE
  5
1D3
100
AcDbEntity
  8
frame
  6
ByLayer
 62
  256
370
   -1
100
AcDbLine
 10
40.86500000000001
 20
-220.826
 11
40.91499999999999
 21
-220.902
  0
LINE
  5
1D4
100
AcDbEntity
  8
frame
  6
ByLayer
 62
  256
370
   -1
100
AcDbLine
 10
40.91499999999999
 20
-220.902
 11
40.99199999999999
 21
-221.029
  0
LINE
  5
1D5
100
AcDbEntity
  8
frame
  6
ByLayer
 62
  256
370
   -1
100
AcDbLine
 10
40.99199999999999
 20
-221.029
 11
40.99199999999999
 21
-221.334
  0
LINE
  5
1D6
100
AcDbEntity
  8
frame
  6
ByLayer
 62
  256
370
   -1
100
AcDbLine
 10
40.99199999999999
 20
-221.334
 11
40.91499999999999
 21
-221.461
  0
LINE
  5
1D7
100
AcDbEntity
  8
frame
  6
ByLayer
 62
  256
370
   -1
100
AcDbLine
 10
40.91499999999999
 20
-221.461
 11
40.86500000000001
 21
-221.512
  0
LINE
  5
1D8
100
AcDbEntity
  8
frame
  6
ByLayer
 62
  256
370
   -1
100
AcDbLine
 10
40.86500000000001
 20
-221.512
 11
40.738
 21
-221.588
  0
LINE
  5
1D9
100
AcDbEntity
  8
frame
  6
ByLayer
 62
  256
370
   -1
100
AcDbLine
 10
40.738
 20
-221.588
 11
40.38200000000001
 21
-221.588
  0
LINE
  5
1DA
100
AcDbEntity
  8
frame
  6
ByLayer
 62
  256
370
   -1
100
AcDbLine
 10
40.38200000000001
 20
-221.588
 11
40.255
 21
-221.512
  0
LINE
  5
1DB
100
AcDbEntity
  8
frame
  6
ByLayer
 62
  256
370
   -1
100
AcDbLine
 10
40.255
 20
-221.512
 11
40.179
 21
-221.461
  0
LINE
  5
1DC
100
AcDbEntity
  8
frame
  6
ByLayer
 62
  256
370
   -1
100
AcDbLine
 10
90.852
 20
-220.725
 11
90.852
 21
-221.588
  0
LINE
  5
1DD
100
AcDbEntity
  8
frame
  6
ByLayer
 62
  256
370
   -1
100
AcDbLine
 10
90.547
 20
-220.217
 11
90.24199999999999
 21
-221.156
  0
LINE
  5
1DE
100
AcDbEntity
  8
frame
  6
ByLayer
 62
  256
370
   -1
100
AcDbLine
 10
90.24199999999999
 20
-221.156
 11
91.03
 21
-221.156
  0
LINE
  5
1DF
100
AcDbEntity
  8
frame
  6
ByLayer
 62
  256
370
   -1
100
AcDbLine
 10
140.915
 20
-220.293
 11
140.306
 21
-220.293
  0
LINE
  5
1E0
100
AcDbEntity
  8
frame
  6
ByLayer
 62
  256
370
   -1
100
AcDbLine
 10
140.306
 20
-220.293
 11
140.255
 21
-220.902
  0
LINE
  5
1E1
100
AcDbEntity
  8
frame
  6
ByLayer
 62
  256
370
   -1
100
AcDbLine
 10
140.255
 20
-220.902
 11
140.306
 21
-220.826
  0
LINE
  5
1E2
100
AcDbEntity
  8
frame
  6
ByLayer
 62
  256
370
   -1
100
AcDbLine
 10
140.306
 20
-220.826
 11
140.433
 21
-220.775
  0
LINE
  5
1E3
100
AcDbEntity
  8
frame
  6
ByLayer
 62
  256
370
   -1
100
AcDbLine
 10
140.433
 20
-220.775
 11
140.737
 21
-220.775
  0
LINE
  5
1E4
100
AcDbEntity
  8
frame
  6
ByLayer
 62
  256
370
   -1
100
AcDbLine
 10
140.737
 20
-220.775
 11
140.864
 21
-220.826
  0
LINE
  5
1E5
100
AcDbEntity
  8
frame
  6
ByLayer
 62
  256
370
   -1
100
AcDbLine
 10
140.864
 20
-220.826
 11
140.915
 21
-220.902
  0
LINE
  5
1E6
100
AcDbEntity
  8
frame
  6
ByLayer
 62
  256
370
   -1
100
AcDbLine
 10
140.915
 20
-220.902
 11
140.991
 21
-221.029
  0
LINE
  5
1E7
100
AcDbEntity
  8
frame
  6
ByLayer
 62
  256
370
   -1
100
AcDbLine
 10
140.991
 20
-221.029
 11
140.991
 21
-221.334
  0
LINE
  5
1E8
100
AcDbEntity
  8
frame
  6
ByLayer
 62
  256
370
   -1
100
AcDbLine
 10
140.991
 20
-221.334
 11
140.915
 21
-221.461
  0
LINE
  5
1E9
100
AcDbEntity
  8
frame
  6
ByLayer
 62
  256
370
   -1
100
AcDbLine
 10
140.915
 20
-221.461
 11
140.864
 21
-221.512
  0
LINE
  5
1EA
100
AcDbEntity
  8
frame
  6
ByLayer
 62
  256
370
   -1
100
AcDbLine
 10
140.864
 20
-221.512
 11
140.737
 21
-221.588
  0
LINE
  5
1EB
100
AcDbEntity
  8
frame
  6
ByLayer
 62
  256
370
   -1
100
AcDbLine
 10
140.737
 20
-221.588
 11
140.433
 21
-221.588
  0
LINE
  5
1EC
100
AcDbEntity
  8
frame
  6
ByLayer
 62
  256
370
   -1
100
AcDbLine
 10
140.433
 20
-221.588
 11
140.306
 21
-221.512
  0
LINE
  5
1ED
100
AcDbEntity
  8
frame
  6
ByLayer
 62
  256
370
   -1
100
AcDbLine
 10
140.306
 20
-221.512
 11
140.255
 21
-221.461
  0
LINE
  5
1EE
100
AcDbEntity
  8
frame
  6
ByLayer
 62
  256
370
   -1
100
AcDbLine
 10
190.852
 20
-220.293
 11
190.598
 21
-220.293
  0
LINE
  5
1EF
100
AcDbEntity
  8
frame
  6
ByLayer
 62
  256
370
   -1
100
AcDbLine
 10
190.598
 20
-220.293
 11
190.471
 21
-220.344
  0
LINE
  5
1F0
100
AcDbEntity
  8
frame
  6
ByLayer
 62
  256
370
   -1
100
AcDbLine
 10
190.471
 20
-220.344
 11
190.42
 21
-220.394
  0
LINE
  5
1F1
100
AcDbEntity
  8
frame
  6
ByLayer
 62
  256
370
   -1
100
AcDbLine
 10
190.42
 20
-220.394
 11
190.293
 21
-220.598
  0
LINE
  5
1F2
100
AcDbEntity
  8
frame
  6
ByLayer
 62
  256
370
   -1
100
AcDbLine
 10
190.293
 20
-220.598
 11
190.242
 21
-220.826
  0
LINE
  5
1F3
100
AcDbEntity
  8
frame
  6
ByLayer
 62
  256
370
   -1
100
AcDbLine
 10
190.242
 20
-220.826
 11
190.242
 21
-221.334
  0
LINE
  5
1F4
100
AcDbEntity
  8
frame
  6
ByLayer
 62
  256
370
   -1
100
AcDbLine
 10
190.242
 20
-221.334
 11
190.293
 21
-221.461
  0
LINE
  5
1F5
100
AcDbEntity
  8
frame
  6
ByLayer
 62
  256
370
   -1
100
AcDbLine
 10
190.293
 20
-221.461
 11
190.369
 21
-221.512
  0
LINE
  5
1F6
100
AcDbEntity
  8
frame
  6
ByLayer
 62
  256
370
   -1
100
AcDbLine
 10
190.369
 20
-221.512
 11
190.471
 21
-221.588
  0
LINE
  5
1F7
100
AcDbEntity
  8
frame
  6
ByLayer
 62
  256
370
   -1
100
AcDbLine
 10
190.471
 20
-221.588
 11
190.725
 21
-221.588
  0
LINE
  5
1F8
100
AcDbEntity
  8
frame
  6
ByLayer
 62
  256
370
   -1
100
AcDbLine
 10
190.725
 20
-221.588
 11
190.852
 21
-221.512
  0
LINE
  5
1F9
100
AcDbEntity
  8
frame
  6
ByLayer
 62
  256
370
   -1
100
AcDbLine
 10
190.852
 20
-221.512
 11
190.902
 21
-221.461
  0
LINE
  5
1FA
100
AcDbEntity
  8
frame
  6
ByLayer
 62
  256
370
   -1
100
AcDbLine
 10
190.902
 20
-221.461
 11
190.979
 21
-221.334
  0
LINE
  5
1FB
100
AcDbEntity
  8
frame
  6
ByLayer
 62
  256
370
   -1
100
AcDbLine
 10
190.979
 20
-221.334
 11
190.979
 21
-221.029
  0
LINE
  5
1FC
100
AcDbEntity
  8
frame
  6
ByLayer
 62
  256
370
   -1
100
AcDbLine
 10
190.979
 20
-221.029
 11
190.902
 21
-220.902
  0
LINE
  5
1FD
100
AcDbEntity
  8
frame
  6
ByLayer
 62
  256
370
   -1
100
AcDbLine
 10
190.902
 20
-220.902
 11
190.852
 21
-220.826
  0
LINE
  5
1FE
100
AcDbEntity
  8
frame
  6
ByLayer
 62
  256
370
   -1
100
AcDbLine
 10
190.852
 20
-220.826
 11
190.725
 21
-220.775
  0
LINE
  5
1FF
100
AcDbEntity
  8
frame
  6
ByLayer
 62
  256
370
   -1
100
AcDbLine
 10
190.725
 20
-220.775
 11
190.471
 21
-220.775
  0
LINE
  5
200
100
AcDbEntity
  8
frame
  6
ByLayer
 62
  256
370
   -1
100
AcDbLine
 10
190.471
 20
-220.775
 11
190.369
 21
-220.826
  0
LINE
  5
201
100
AcDbEntity
  8
frame
  6
ByLayer
 62
  256
370
   -1
100
AcDbLine
 10
190.369
 20
-220.826
 11
190.293
 21
-220.902
  0
LINE
  5
202
100
AcDbEntity
  8
frame
  6
ByLayer
 62
  256
370
   -1
100
AcDbLine
 10
190.293
 20
-220.902
 11
190.242
 21
-221.029
  0
LINE
  5
203
100
AcDbEntity
  8
frame
  6
ByLayer
 62
  256
370
   -1
100
AcDbLine
 10
240.178
 20
-220.293
 11
241.042
 21
-220.293
  0
LINE
  5
204
100
AcDbEntity
  8
frame
  6
ByLayer
 62
  256
370
   -1
100
AcDbLine
 10
241.042
 20
-220.293
 11
240.483
 21
-221.588
  0
LINE
  5
205
100
AcDbEntity
  8
frame
  6
ByLayer
 62
  256
370
   -1
100
AcDbLine
 10
290.47
 20
-220.826
 11
290.369
 21
-220.775
  0
LINE
  5
206
100
AcDbEntity
  8
frame
  6
ByLayer
 62
  256
370
   -1
100
AcDbLine
 10
290.369
 20
-220.775
 11
290.293
 21
-220.725
  0
LINE
  5
207
100
AcDbEntity
  8
frame
  6
ByLayer
 62
  256
370
   -1
100
AcDbLine
 10
290.293
 20
-220.725
 11
290.242
 21
-220.598
  0
LINE
  5
208
100
AcDbEntity
  8
frame
  6
ByLayer
 62
  256
370
   -1
100
AcDbLine
 10
290.242
 20
-220.598
 11
290.242
 21
-220.521
  0
LINE
  5
209
100
AcDbEntity
  8
frame
  6
ByLayer
 62
  256
370
   -1
100
AcDbLine
 10
290.242
 20
-220.521
 11
290.293
 21
-220.394
  0
LINE
  5
20A
100
AcDbEntity
  8
frame
  6
ByLayer
 62
  256
370
   -1
100
AcDbLine
 10
290.293
 20
-220.394
 11
290.369
 21
-220.344
  0
LINE
  5
20B
100
AcDbEntity
  8
frame
  6
ByLayer
 62
  256
370
   -1
100
AcDbLine
 10
290.369
 20
-220.344
 11
290.47
 21
-220.293
  0
LINE
  5
20C
100
AcDbEntity
  8
frame
  6
ByLayer
 62
  256
370
   -1
100
AcDbLine
 10
290.47
 20
-220.293
 11
290.724
 21
-220.293
  0
LINE
  5
20D
100
AcDbEntity
  8
frame
  6
ByLayer
 62
  256
370
   -1
100
AcDbLine
 10
290.724
 20
-220.293
 11
290.851
 21
-220.344
  0
LINE
  5
20E
100
AcDbEntity
  8
frame
  6
ByLayer
 62
  256
370
   -1
100
AcDbLine
 10
290.851
 20
-220.344
 11
290.902
 21
-220.394
  0
LINE
  5
20F
100
AcDbEntity
  8
frame
  6
ByLayer
 62
  256
370
   -1
100
AcDbLine
 10
290.902
 20
-220.394
 11
290.978
 21
-220.521
  0
LINE
  5
210
100
AcDbEntity
  8
frame
  6
ByLayer
 62
  256
370
   -1
100
AcDbLine
 10
290.978
 20
-220.521
 11
290.978
 21
-220.598
  0
LINE
  5
211
100
AcDbEntity
  8
frame
  6
ByLayer
 62
  256
370
   -1
100
AcDbLine
 10
290.978
 20
-220.598
 11
290.902
 21
-220.725
  0
LINE
  5
212
100
AcDbEntity
  8
frame
  6
ByLayer
 62
  256
370
   -1
100
AcDbLine
 10
290.902
 20
-220.725
 11
290.851
 21
-220.775
  0
LINE
  5
213
100
AcDbEntity
  8
frame
  6
ByLayer
 62
  256
370
   -1
100
AcDbLine
 10
290.851
 20
-220.775
 11
290.724
 21
-220.826
  0
LINE
  5
214
100
AcDbEntity
  8
frame
  6
ByLayer
 62
  256
370
   -1
100
AcDbLine
 10
290.724
 20
-220.826
 11
290.47
 21
-220.826
  0
LINE
  5
215
100
AcDbEntity
  8
frame
  6
ByLayer
 62
  256
370
   -1
100
AcDbLine
 10
290.47
 20
-220.826
 11
290.369
 21
-220.902
  0
LINE
  5
216
100
AcDbEntity
  8
frame
  6
ByLayer
 62
  256
370
   -1
100
AcDbLine
 10
290.369
 20
-220.902
 11
290.293
 21
-220.953
  0
LINE
  5
217
100
AcDbEntity
  8
frame
  6
ByLayer
 62
  256
370
   -1
100
AcDbLine
 10
290.293
 20
-220.953
 11
290.242
 21
-221.08
  0
LINE
  5
218
100
AcDbEntity
  8
frame
  6
ByLayer
 62
  256
370
   -1
100
AcDbLine
 10
290.242
 20
-221.08
 11
290.242
 21
-221.334
  0
LINE
  5
219
100
AcDbEntity
  8
frame
  6
ByLayer
 62
  256
370
   -1
100
AcDbLine
 10
290.242
 20
-221.334
 11
290.293
 21
-221.461
  0
LINE
  5
21A
100
AcDbEntity
  8
frame
  6
ByLayer
 62
  256
370
   -1
100
AcDbLine
 10
290.293
 20
-221.461
 11
290.369
 21
-221.512
  0
LINE
  5
21B
100
AcDbEntity
  8
frame
  6
ByLayer
 62
  256
370
   -1
100
AcDbLine
 10
290.369
 20
-221.512
 11
290.47
 21
-221.588
  0
LINE
  5
21C
100
AcDbEntity
  8
frame
  6
ByLayer
 62
  256
370
   -1
100
AcDbLine
 10
290.47
 20
-221.588
 11
290.724
 21
-221.588
  0
LINE
  5
21D
100
AcDbEntity
  8
frame
  6
ByLayer
 62
  256
370
   -1
100
AcDbLine
 10
290.724
 20
-221.588
 11
290.851
 21
-221.512
  0
LINE
  5
21E
100
AcDbEntity
  8
frame
  6
ByLayer
 62
  256
370
   -1
100
AcDbLine
 10
290.851
 20
-221.512
 11
290.902
 21
-221.461
  0
LINE
  5
21F
100
AcDbEntity
  8
frame
  6
ByLayer
 62
  256
370
   -1
100
AcDbLine
 10
290.902
 20
-221.461
 11
290.978
 21
-221.334
  0
LINE
  5
220
100
AcDbEntity
  8
frame
  6
ByLayer
 62
  256
370
   -1
100
AcDbLine
 10
290.978
 20
-221.334
 11
290.978
 21
-221.08
  0
LINE
  5
221
100
AcDbEntity
  8
frame
  6
ByLayer
 62
  256
370
   -1
100
AcDbLine
 10
290.978
 20
-221.08
 11
290.902
 21
-220.953
  0
LINE
  5
222
100
AcDbEntity
  8
frame
  6
ByLayer
 62
  256
370
   -1
100
AcDbLine
 10
290.902
 20
-220.953
 11
290.851
 21
-220.902
  0
LINE
  5
223
100
AcDbEntity
  8
frame
  6
ByLayer
 62
  256
370
   -1
100
AcDbLine
 10
290.851
 20
-220.902
 11
290.724
 21
-220.826
  0
LINE
  5
224
100
AcDbEntity
  8
frame
  6
ByLayer
 62
  256
370
   -1
100
AcDbLine
 10
-84.9924
 20
5.005200000000002
 11
-83.0112
 21
5.005200000000002
  0
LINE
  5
225
100
AcDbEntity
  8
frame
  6
ByLayer
 62
  256
370
   -1
100
AcDbLine
 10
-84.9924
 20
-45.00700000000001
 11
-83.0112
 21
-45.00700000000001
  0
LINE
  5
226
100
AcDbEntity
  8
frame
  6
ByLayer
 62
  256
370
   -1
100
AcDbLine
 10
-84.9924
 20
-94.995
 11
-83.0112
 21
-94.995
  0
LINE
  5
227
100
AcDbEntity
  8
frame
  6
ByLayer
 62
  256
370
   -1
100
AcDbLine
 10
-84.9924
 20
-145.007
 11
-83.0112
 21
-145.007
  0
LINE
  5
228
100
AcDbEntity
  8
frame
  6
ByLayer
 62
  256
370
   -1
100
AcDbLine
 10
-84.9924
 20
-194.994
 11
-83.0112
 21
-194.994
  0
LINE
  5
229
100
AcDbEntity
  8
frame
  6
ByLayer
 62
  256
370
   -1
100
AcDbLine
 10
-84.3066
 20
29.79560000000001
 11
-83.697
 21
29.79560000000001
  0
LINE
  5
22A
100
AcDbEntity
  8
frame
  6
ByLayer
 62
  256
370
   -1
100
AcDbLine
 10
-84.4336
 20
29.41460000000001
 11
-84.0018
 21
30.71000000000001
  0
LINE
  5
22B
100
AcDbEntity
  8
frame
  6
ByLayer
 62
  256
370
   -1
100
AcDbLine
 10
-84.0018
 20
30.71000000000001
 11
-83.56999999999999
 21
29.41460000000001
  0
LINE
  5
22C
100
AcDbEntity
  8
frame
  6
ByLayer
 62
  256
370
   -1
100
AcDbLine
 10
-83.9002
 20
-19.88679999999999
 11
-83.72239999999999
 21
-19.9376
  0
LINE
  5
22D
100
AcDbEntity
  8
frame
  6
ByLayer
 62
  256
370
   -1
100
AcDbLine
 10
-83.72239999999999
 20
-19.9376
 11
-83.64619999999999
 21
-20.0138
  0
LINE
  5
22E
100
AcDbEntity
  8
frame
  6
ByLayer
 62
  256
370
   -1
100
AcDbLine
 10
-83.64619999999999
 20
-20.0138
 11
-83.5954
 21
-20.14080000000001
  0
LINE
  5
22F
100
AcDbEntity
  8
frame
  6
ByLayer
 62
  256
370
   -1
100
AcDbLine
 10
-83.5954
 20
-20.14080000000001
 11
-83.5954
 21
-20.3186
  0
LINE
  5
230
100
AcDbEntity
  8
frame
  6
ByLayer
 62
  256
370
   -1
100
AcDbLine
 10
-83.5954
 20
-20.3186
 11
-83.64619999999999
 21
-20.44560000000001
  0
LINE
  5
231
100
AcDbEntity
  8
frame
  6
ByLayer
 62
  256
370
   -1
100
AcDbLine
 10
-83.64619999999999
 20
-20.44560000000001
 11
-83.72239999999999
 21
-20.49639999999999
  0
LINE
  5
232
100
AcDbEntity
  8
frame
  6
ByLayer
 62
  256
370
   -1
100
AcDbLine
 10
-83.72239999999999
 20
-20.49639999999999
 11
-83.824
 21
-20.57259999999999
  0
LINE
  5
233
100
AcDbEntity
  8
frame
  6
ByLayer
 62
  256
370
   -1
100
AcDbLine
 10
-83.824
 20
-20.57259999999999
 11
-84.33199999999999
 21
-20.57259999999999
  0
LINE
  5
234
100
AcDbEntity
  8
frame
  6
ByLayer
 62
  256
370
   -1
100
AcDbLine
 10
-84.33199999999999
 20
-20.57259999999999
 11
-84.33199999999999
 21
-19.27719999999999
  0
LINE
  5
235
100
AcDbEntity
  8
frame
  6
ByLayer
 62
  256
370
   -1
100
AcDbLine
 10
-84.33199999999999
 20
-19.27719999999999
 11
-83.9002
 21
-19.27719999999999
  0
LINE
  5
236
100
AcDbEntity
  8
frame
  6
ByLayer
 62
  256
370
   -1
100
AcDbLine
 10
-83.9002
 20
-19.27719999999999
 11
-83.7732
 21
-19.328
  0
LINE
  5
237
100
AcDbEntity
  8
frame
  6
ByLayer
 62
  256
370
   -1
100
AcDbLine
 10
-83.7732
 20
-19.328
 11
-83.72239999999999
 21
-19.37880000000001
  0
LINE
  5
238
100
AcDbEntity
  8
frame
  6
ByLayer
 62
  256
370
   -1
100
AcDbLine
 10
-83.72239999999999
 20
-19.37880000000001
 11
-83.64619999999999
 21
-19.50579999999999
  0
LINE
  5
239
100
AcDbEntity
  8
frame
  6
ByLayer
 62
  256
370
   -1
100
AcDbLine
 10
-83.64619999999999
 20
-19.50579999999999
 11
-83.64619999999999
 21
-19.6328
  0
LINE
  5
23A
100
AcDbEntity
  8
frame
  6
ByLayer
 62
  256
370
   -1
100
AcDbLine
 10
-83.64619999999999
 20
-19.6328
 11
-83.72239999999999
 21
-19.75980000000001
  0
LINE
  5
23B
100
AcDbEntity
  8
frame
  6
ByLayer
 62
  256
370
   -1
100
AcDbLine
 10
-83.72239999999999
 20
-19.75980000000001
 11
-83.7732
 21
-19.81059999999999
  0
LINE
  5
23C
100
AcDbEntity
  8
frame
  6
ByLayer
 62
  256
370
   -1
100
AcDbLine
 10
-83.7732
 20
-19.81059999999999
 11
-83.9002
 21
-19.88679999999999
  0
LINE
  5
23D
100
AcDbEntity
  8
frame
  6
ByLayer
 62
  256
370
   -1
100
AcDbLine
 10
-83.9002
 20
-19.88679999999999
 11
-84.33199999999999
 21
-19.88679999999999
  0
LINE
  5
23E
100
AcDbEntity
  8
frame
  6
ByLayer
 62
  256
370
   -1
100
AcDbLine
 10
-83.5954
 20
-70.458
 11
-83.64619999999999
 21
-70.509
  0
LINE
  5
23F
100
AcDbEntity
  8
frame
  6
ByLayer
 62
  256
370
   -1
100
AcDbLine
 10
-83.64619999999999
 20
-70.509
 11
-83.824
 21
-70.58499999999999
  0
LINE
  5
240
100
AcDbEntity
  8
frame
  6
ByLayer
 62
  256
370
   -1
100
AcDbLine
 10
-83.824
 20
-70.58499999999999
 11
-83.95099999999999
 21
-70.58499999999999
  0
LINE
  5
241
100
AcDbEntity
  8
frame
  6
ByLayer
 62
  256
370
   -1
100
AcDbLine
 10
-83.95099999999999
 20
-70.58499999999999
 11
-84.1542
 21
-70.509
  0
LINE
  5
242
100
AcDbEntity
  8
frame
  6
ByLayer
 62
  256
370
   -1
100
AcDbLine
 10
-84.1542
 20
-70.509
 11
-84.25579999999999
 21
-70.38200000000001
  0
LINE
  5
243
100
AcDbEntity
  8
frame
  6
ByLayer
 62
  256
370
   -1
100
AcDbLine
 10
-84.25579999999999
 20
-70.38200000000001
 11
-84.33199999999999
 21
-70.255
  0
LINE
  5
244
100
AcDbEntity
  8
frame
  6
ByLayer
 62
  256
370
   -1
100
AcDbLine
 10
-84.33199999999999
 20
-70.255
 11
-84.3828
 21
-70.026
  0
LINE
  5
245
100
AcDbEntity
  8
frame
  6
ByLayer
 62
  256
370
   -1
100
AcDbLine
 10
-84.3828
 20
-70.026
 11
-84.3828
 21
-69.82299999999999
  0
LINE
  5
246
100
AcDbEntity
  8
frame
  6
ByLayer
 62
  256
370
   -1
100
AcDbLine
 10
-84.3828
 20
-69.82299999999999
 11
-84.33199999999999
 21
-69.595
  0
LINE
  5
247
100
AcDbEntity
  8
frame
  6
ByLayer
 62
  256
370
   -1
100
AcDbLine
 10
-84.33199999999999
 20
-69.595
 11
-84.25579999999999
 21
-69.468
  0
LINE
  5
248
100
AcDbEntity
  8
frame
  6
ByLayer
 62
  256
370
   -1
100
AcDbLine
 10
-84.25579999999999
 20
-69.468
 11
-84.1542
 21
-69.34099999999999
  0
LINE
  5
249
100
AcDbEntity
  8
frame
  6
ByLayer
 62
  256
370
   -1
100
AcDbLine
 10
-84.1542
 20
-69.34099999999999
 11
-83.95099999999999
 21
-69.29000000000001
  0
LINE
  5
24A
100
AcDbEntity
  8
frame
  6
ByLayer
 62
  256
370
   -1
100
AcDbLine
 10
-83.95099999999999
 20
-69.29000000000001
 11
-83.824
 21
-69.29000000000001
  0
LINE
  5
24B
100
AcDbEntity
  8
frame
  6
ByLayer
 62
  256
370
   -1
100
AcDbLine
 10
-83.824
 20
-69.29000000000001
 11
-83.64619999999999
 21
-69.34099999999999
  0
LINE
  5
24C
100
AcDbEntity
  8
frame
  6
ByLayer
 62
  256
370
   -1
100
AcDbLine
 10
-83.64619999999999
 20
-69.34099999999999
 11
-83.5954
 21
-69.39100000000001
  0
LINE
  5
24D
100
AcDbEntity
  8
frame
  6
ByLayer
 62
  256
370
   -1
100
AcDbLine
 10
-84.33199999999999
 20
-120.572
 11
-84.33199999999999
 21
-119.277
  0
LINE
  5
24E
100
AcDbEntity
  8
frame
  6
ByLayer
 62
  256
370
   -1
100
AcDbLine
 10
-84.33199999999999
 20
-119.277
 11
-84.02719999999999
 21
-119.277
  0
LINE
  5
24F
100
AcDbEntity
  8
frame
  6
ByLayer
 62
  256
370
   -1
100
AcDbLine
 10
-84.02719999999999
 20
-119.277
 11
-83.824
 21
-119.328
  0
LINE
  5
250
100
AcDbEntity
  8
frame
  6
ByLayer
 62
  256
370
   -1
100
AcDbLine
 10
-83.824
 20
-119.328
 11
-83.72239999999999
 21
-119.455
  0
LINE
  5
251
100
AcDbEntity
  8
frame
  6
ByLayer
 62
  256
370
   -1
100
AcDbLine
 10
-83.72239999999999
 20
-119.455
 11
-83.64619999999999
 21
-119.582
  0
LINE
  5
252
100
AcDbEntity
  8
frame
  6
ByLayer
 62
  256
370
   -1
100
AcDbLine
 10
-83.64619999999999
 20
-119.582
 11
-83.5954
 21
-119.81
  0
LINE
  5
253
100
AcDbEntity
  8
frame
  6
ByLayer
 62
  256
370
   -1
100
AcDbLine
 10
-83.5954
 20
-119.81
 11
-83.5954
 21
-120.014
  0
LINE
  5
254
100
AcDbEntity
  8
frame
  6
ByLayer
 62
  256
370
   -1
100
AcDbLine
 10
-83.5954
 20
-120.014
 11
-83.64619999999999
 21
-120.242
  0
LINE
  5
255
100
AcDbEntity
  8
frame
  6
ByLayer
 62
  256
370
   -1
100
AcDbLine
 10
-83.64619999999999
 20
-120.242
 11
-83.72239999999999
 21
-120.369
  0
LINE
  5
256
100
AcDbEntity
  8
frame
  6
ByLayer
 62
  256
370
   -1
100
AcDbLine
 10
-83.72239999999999
 20
-120.369
 11
-83.824
 21
-120.496
  0
LINE
  5
257
100
AcDbEntity
  8
frame
  6
ByLayer
 62
  256
370
   -1
100
AcDbLine
 10
-83.824
 20
-120.496
 11
-84.02719999999999
 21
-120.572
  0
LINE
  5
258
100
AcDbEntity
  8
frame
  6
ByLayer
 62
  256
370
   -1
100
AcDbLine
 10
-84.02719999999999
 20
-120.572
 11
-84.33199999999999
 21
-120.572
  0
LINE
  5
259
100
AcDbEntity
  8
frame
  6
ByLayer
 62
  256
370
   -1
100
AcDbLine
 10
-84.2812
 20
-169.899
 11
-83.8494
 21
-169.899
  0
LINE
  5
25A
100
AcDbEntity
  8
frame
  6
ByLayer
 62
  256
370
   -1
100
AcDbLine
 10
-83.6716
 20
-170.585
 11
-84.2812
 21
-170.585
  0
LINE
  5
25B
100
AcDbEntity
  8
frame
  6
ByLayer
 62
  256
370
   -1
100
AcDbLine
 10
-84.2812
 20
-170.585
 11
-84.2812
 21
-169.29
  0
LINE
  5
25C
100
AcDbEntity
  8
frame
  6
ByLayer
 62
  256
370
   -1
100
AcDbLine
 10
-84.2812
 20
-169.29
 11
-83.6716
 21
-169.29
  0
LINE
  5
25D
100
AcDbEntity
  8
frame
  6
ByLayer
 62
  256
370
   -1
100
AcDbLine
 10
-83.824
 20
-219.886
 11
-84.25579999999999
 21
-219.886
  0
LINE
  5
25E
100
AcDbEntity
  8
frame
  6
ByLayer
 62
  256
370
   -1
100
AcDbLine
 10
-84.25579999999999
 20
-220.572
 11
-84.25579999999999
 21
-219.277
  0
LINE
  5
25F
100
AcDbEntity
  8
frame
  6
ByLayer
 62
  256
370
   -1
100
AcDbLine
 10
-84.25579999999999
 20
-219.277
 11
-83.64619999999999
 21
-219.277
  0
LINE
  5
260
100
AcDbEntity
  8
frame
  6
ByLayer
 62
  256
370
   -1
100
AcDbLine
 10
314.981
 20
5.005200000000002
 11
313
 21
5.005200000000002
  0
LINE
  5
261
100
AcDbEntity
  8
frame
  6
ByLayer
 62
  256
370
   -1
100
AcDbLine
 10
314.981
 20
-45.00700000000001
 11
313
 21
-45.00700000000001
  0
LINE
  5
262
100
AcDbEntity
  8
frame
  6
ByLayer
 62
  256
370
   -1
100
AcDbLine
 10
314.981
 20
-94.995
 11
313
 21
-94.995
  0
LINE
  5
263
100
AcDbEntity
  8
frame
  6
ByLayer
 62
  256
370
   -1
100
AcDbLine
 10
314.981
 20
-145.007
 11
313
 21
-145.007
  0
LINE
  5
264
100
AcDbEntity
  8
frame
  6
ByLayer
 62
  256
370
   -1
100
AcDbLine
 10
314.981
 20
-194.994
 11
313
 21
-194.994
  0
LINE
  5
265
100
AcDbEntity
  8
frame
  6
ByLayer
 62
  256
370
   -1
100
AcDbLine
 10
313.686
 20
29.79560000000001
 11
314.296
 21
29.79560000000001
  0
LINE
  5
266
100
AcDbEntity
  8
frame
  6
ByLayer
 62
  256
370
   -1
100
AcDbLine
 10
313.559
 20
29.41460000000001
 11
313.991
 21
30.71000000000001
  0
LINE
  5
267
100
AcDbEntity
  8
frame
  6
ByLayer
 62
  256
370
   -1
100
AcDbLine
 10
313.991
 20
30.71000000000001
 11
314.423
 21
29.41460000000001
  0
LINE
  5
268
100
AcDbEntity
  8
frame
  6
ByLayer
 62
  256
370
   -1
100
AcDbLine
 10
314.092
 20
-19.88679999999999
 11
314.27
 21
-19.9376
  0
LINE
  5
269
100
AcDbEntity
  8
frame
  6
ByLayer
 62
  256
370
   -1
100
AcDbLine
 10
314.27
 20
-19.9376
 11
314.346
 21
-20.0138
  0
LINE
  5
26A
100
AcDbEntity
  8
frame
  6
ByLayer
 62
  256
370
   -1
100
AcDbLine
 10
314.346
 20
-20.0138
 11
314.397
 21
-20.14080000000001
  0
LINE
  5
26B
100
AcDbEntity
  8
frame
  6
ByLayer
 62
  256
370
   -1
100
AcDbLine
 10
314.397
 20
-20.14080000000001
 11
314.397
 21
-20.3186
  0
LINE
  5
26C
100
AcDbEntity
  8
frame
  6
ByLayer
 62
  256
370
   -1
100
AcDbLine
 10
314.397
 20
-20.3186
 11
314.346
 21
-20.44560000000001
  0
LINE
  5
26D
100
AcDbEntity
  8
frame
  6
ByLayer
 62
  256
370
   -1
100
AcDbLine
 10
314.346
 20
-20.44560000000001
 11
314.27
 21
-20.49639999999999
  0
LINE
  5
26E
100
AcDbEntity
  8
frame
  6
ByLayer
 62
  256
370
   -1
100
AcDbLine
 10
314.27
 20
-20.49639999999999
 11
314.169
 21
-20.57259999999999
  0
LINE
  5
26F
100
AcDbEntity
  8
frame
  6
ByLayer
 62
  256
370
   -1
100
AcDbLine
 10
314.169
 20
-20.57259999999999
 11
313.661
 21
-20.57259999999999
  0
LINE
  5
270
100
AcDbEntity
  8
frame
  6
ByLayer
 62
  256
370
   -1
100
AcDbLine
 10
313.661
 20
-20.57259999999999
 11
313.661
 21
-19.27719999999999
  0
LINE
  5
271
100
AcDbEntity
  8
frame
  6
ByLayer
 62
  256
370
   -1
100
AcDbLine
 10
313.661
 20
-19.27719999999999
 11
314.092
 21
-19.27719999999999
  0
LINE
  5
272
100
AcDbEntity
  8
frame
  6
ByLayer
 62
  256
370
   -1
100
AcDbLine
 10
314.092
 20
-19.27719999999999
 11
314.219
 21
-19.328
  0
LINE
  5
273
100
AcDbEntity
  8
frame
  6
ByLayer
 62
  256
370
   -1
100
AcDbLine
 10
314.219
 20
-19.328
 11
314.27
 21
-19.37880000000001
  0
LINE
  5
274
100
AcDbEntity
  8
frame
  6
ByLayer
 62
  256
370
   -1
100
AcDbLine
 10
314.27
 20
-19.37880000000001
 11
314.346
 21
-19.50579999999999
  0
LINE
  5
275
100
AcDbEntity
  8
frame
  6
ByLayer
 62
  256
370
   -1
100
AcDbLine
 10
314.346
 20
-19.50579999999999
 11
314.346
 21
-19.6328
  0
LINE
  5
276
100
AcDbEntity
  8
frame
  6
ByLayer
 62
  256
370
   -1
100
AcDbLine
 10
314.346
 20
-19.6328
 11
314.27
 21
-19.75980000000001
  0
LINE
  5
277
100
AcDbEntity
  8
frame
  6
ByLayer
 62
  256
370
   -1
100
AcDbLine
 10
314.27
 20
-19.75980000000001
 11
314.219
 21
-19.81059999999999
  0
LINE
  5
278
100
AcDbEntity
  8
frame
  6
ByLayer
 62
  256
370
   -1
100
AcDbLine
 10
314.219
 20
-19.81059999999999
 11
314.092
 21
-19.88679999999999
  0
LINE
  5
279
100
AcDbEntity
  8
frame
  6
ByLayer
 62
  256
370
   -1
100
AcDbLine
 10
314.092
 20
-19.88679999999999
 11
313.661
 21
-19.88679999999999
  0
LINE
  5
27A
100
AcDbEntity
  8
frame
  6
ByLayer
 62
  256
370
   -1
100
AcDbLine
 10
314.397
 20
-70.458
 11
314.346
 21
-70.509
  0
LINE
  5
27B
100
AcDbEntity
  8
frame
  6
ByLayer
 62
  256
370
   -1
100
AcDbLine
 10
314.346
 20
-70.509
 11
314.169
 21
-70.58499999999999
  0
LINE
  5
27C
100
AcDbEntity
  8
frame
  6
ByLayer
 62
  256
370
   -1
100
AcDbLine
 10
314.169
 20
-70.58499999999999
 11
314.042
 21
-70.58499999999999
  0
LINE
  5
27D
100
AcDbEntity
  8
frame
  6
ByLayer
 62
  256
370
   -1
100
AcDbLine
 10
314.042
 20
-70.58499999999999
 11
313.838
 21
-70.509
  0
LINE
  5
27E
100
AcDbEntity
  8
frame
  6
ByLayer
 62
  256
370
   -1
100
AcDbLine
 10
313.838
 20
-70.509
 11
313.737
 21
-70.38200000000001
  0
LINE
  5
27F
100
AcDbEntity
  8
frame
  6
ByLayer
 62
  256
370
   -1
100
AcDbLine
 10
313.737
 20
-70.38200000000001
 11
313.661
 21
-70.255
  0
LINE
  5
280
100
AcDbEntity
  8
frame
  6
ByLayer
 62
  256
370
   -1
100
AcDbLine
 10
313.661
 20
-70.255
 11
313.61
 21
-70.026
  0
LINE
  5
281
100
AcDbEntity
  8
frame
  6
ByLayer
 62
  256
370
   -1
100
AcDbLine
 10
313.61
 20
-70.026
 11
313.61
 21
-69.82299999999999
  0
LINE
  5
282
100
AcDbEntity
  8
frame
  6
ByLayer
 62
  256
370
   -1
100
AcDbLine
 10
313.61
 20
-69.82299999999999
 11
313.661
 21
-69.595
  0
LINE
  5
283
100
AcDbEntity
  8
frame
  6
ByLayer
 62
  256
370
   -1
100
AcDbLine
 10
313.661
 20
-69.595
 11
313.737
 21
-69.468
  0
LINE
  5
284
100
AcDbEntity
  8
frame
  6
ByLayer
 62
  256
370
   -1
100
AcDbLine
 10
313.737
 20
-69.468
 11
313.838
 21
-69.34099999999999
  0
LINE
  5
285
100
AcDbEntity
  8
frame
  6
ByLayer
 62
  256
370
   -1
100
AcDbLine
 10
313.838
 20
-69.34099999999999
 11
314.042
 21
-69.29000000000001
  0
LINE
  5
286
100
AcDbEntity
  8
frame
  6
ByLayer
 62
  256
370
   -1
100
AcDbLine
 10
314.042
 20
-69.29000000000001
 11
314.169
 21
-69.29000000000001
  0
LINE
  5
287
100
AcDbEntity
  8
frame
  6
ByLayer
 62
  256
370
   -1
100
AcDbLine
 10
314.169
 20
-69.29000000000001
 11
314.346
 21
-69.34099999999999
  0
LINE
  5
288
100
AcDbEntity
  8
frame
  6
ByLayer
 62
  256
370
   -1
100
AcDbLine
 10
314.346
 20
-69.34099999999999
 11
314.397
 21
-69.39100000000001
  0
LINE
  5
289
100
AcDbEntity
  8
frame
  6
ByLayer
 62
  256
370
   -1
100
AcDbLine
 10
313.661
 20
-120.572
 11
313.661
 21
-119.277
  0
LINE
  5
28A
100
AcDbEntity
  8
frame
  6
ByLayer
 62
  256
370
   -1
100
AcDbLine
 10
313.661
 20
-119.277
 11
313.965
 21
-119.277
  0
LINE
  5
28B
100
AcDbEntity
  8
frame
  6
ByLayer
 62
  256
370
   -1
100
AcDbLine
 10
313.965
 20
-119.277
 11
314.169
 21
-119.328
  0
LINE
  5
28C
100
AcDbEntity
  8
frame
  6
ByLayer
 62
  256
370
   -1
100
AcDbLine
 10
314.169
 20
-119.328
 11
314.27
 21
-119.455
  0
LINE
  5
28D
100
AcDbEntity
  8
frame
  6
ByLayer
 62
  256
370
   -1
100
AcDbLine
 10
314.27
 20
-119.455
 11
314.346
 21
-119.582
  0
LINE
  5
28E
100
AcDbEntity
  8
frame
  6
ByLayer
 62
  256
370
   -1
100
AcDbLine
 10
314.346
 20
-119.582
 11
314.397
 21
-119.81
  0
LINE
  5
28F
100
AcDbEntity
  8
frame
  6
ByLayer
 62
  256
370
   -1
100
AcDbLine
 10
314.397
 20
-119.81
 11
314.397
 21
-120.014
  0
LINE
  5
290
100
AcDbEntity
  8
frame
  6
ByLayer
 62
  256
370
   -1
100
AcDbLine
 10
314.397
 20
-120.014
 11
314.346
 21
-120.242
  0
LINE
  5
291
100
AcDbEntity
  8
frame
  6
ByLayer
 62
  256
370
   -1
100
AcDbLine
 10
314.346
 20
-120.242
 11
314.27
 21
-120.369
  0
LINE
  5
292
100
AcDbEntity
  8
frame
  6
ByLayer
 62
  256
370
   -1
100
AcDbLine
 10
314.27
 20
-120.369
 11
314.169
 21
-120.496
  0
LINE
  5
293
100
AcDbEntity
  8
frame
  6
ByLayer
 62
  256
370
   -1
100
AcDbLine
 10
314.169
 20
-120.496
 11
313.965
 21
-120.572
  0
LINE
  5
294
100
AcDbEntity
  8
frame
  6
ByLayer
 62
  256
370
   -1
100
AcDbLine
 10
313.965
 20
-120.572
 11
313.661
 21
-120.572
  0
LINE
  5
295
100
AcDbEntity
  8
frame
  6
ByLayer
 62
  256
370
   -1
100
AcDbLine
 10
313.711
 20
-169.899
 11
314.143
 21
-169.899
  0
LINE
  5
296
100
AcDbEntity
  8
frame
  6
ByLayer
 62
  256
370
   -1
100
AcDbLine
 10
314.321
 20
-170.585
 11
313.711
 21
-170.585
  0
LINE
  5
297
100
AcDbEntity
  8
frame
  6
ByLayer
 62
  256
370
   -1
100
AcDbLine
 10
313.711
 20
-170.585
 11
313.711
 21
-169.29
  0
LINE
  5
298
100
AcDbEntity
  8
frame
  6
ByLayer
 62
  256
370
   -1
100
AcDbLine
 10
313.711
 20
-169.29
 11
314.321
 21
-169.29
  0
LINE
  5
299
100
AcDbEntity
  8
frame
  6
ByLayer
 62
  256
370
   -1
100
AcDbLine
 10
314.169
 20
-219.886
 11
313.737
 21
-219.886
  0
LINE
  5
29A
100
AcDbEntity
  8
frame
  6
ByLayer
 62
  256
370
   -1
100
AcDbLine
 10
313.737
 20
-220.572
 11
313.737
 21
-219.277
  0
LINE
  5
29B
100
AcDbEntity
  8
frame
  6
ByLayer
 62
  256
370
   -1
100
AcDbLine
 10
313.737
 20
-219.277
 11
314.346
 21
-219.277
  0
LINE
  5
29C
100
AcDbEntity
  8
frame
  6
ByLayer
 62
  256
370
   -1
100
AcDbLine
 10
204.999
 20
-216.508
 11
313
 21
-216.508
  0
LINE
  5
29D
100
AcDbEntity
  8
frame
  6
ByLayer
 62
  256
370
   -1
100
AcDbLine
 10
204.999
 20
-213.511
 11
313
 21
-213.511
  0
LINE
  5
29E
100
AcDbEntity
  8
frame
  6
ByLayer
 62
  256
370
   -1
100
AcDbLine
 10
204.999
 20
-209.498
 11
313
 21
-209.498
  0
LINE
  5
29F
100
AcDbEntity
  8
frame
  6
ByLayer
 62
  256
370
   -1
100
AcDbLine
 10
204.999
 20
-203.503
 11
313
 21
-203.503
  0
LINE
  5
2A0
100
AcDbEntity
  8
frame
  6
ByLayer
 62
  256
370
   -1
100
AcDbLine
 10
224.989
 20
-213.511
 11
224.989
 21
-216.508
  0
LINE
  5
2A1
100
AcDbEntity
  8
frame
  6
ByLayer
 62
  256
370
   -1
100
AcDbLine
 10
288.997
 20
-213.511
 11
288.997
 21
-220.013
  0
MTEXT
  5
2A2
100
AcDbEntity
  8
text
  6
ByLayer
 62
  256
370
   -1
100
AcDbMText
 10
206
 20
-217
 30
0
 40
2
 41
19.94444444444466
 71
    1
 72
    1
  1
LibreCAD v2.1.2
  7
standard
210
0
220
0
230
1
 50
0
 73
    2
 44
1
  0
MTEXT
  5
2A3
100
AcDbEntity
  8
text
  6
ByLayer
 62
  256
370
   -1
100
AcDbMText
 10
206
 20
-204
 30
0
 40
2
 41
10.83333290932913
 71
    1
 72
    1
  1
Sheet: /
  7
standard
210
0
220
0
230
1
 50
0
 73
    2
 44
1
  0
MTEXT
  5
2A4
100
AcDbEntity
  8
text
  6
ByLayer
 62
  256
370
   -1
100
AcDbMText
 10
226
 20
-214
 30
0
 40
2
 41
24.72222222222244
 71
    1
 72
    1
  1
Date: 2019. 09. 29.
  7
standard
210
0
220
0
230
1
 50
0
 73
    2
 44
1
  0
MTEXT
  5
2A5
100
AcDbEntity
  8
text
  6
ByLayer
 62
  256
370
   -1
100
AcDbMText
 10
290
 20
-214
 30
0
 40
2
 41
14.83333333333333
 71
    1
 72
    1
  1
Rev: 190919
  7
standard
210
0
220
0
230
1
 50
0
 73
    2
 44
1
  0
MTEXT
  5
2A6
100
AcDbEntity
  8
text
  6
ByLayer
 62
  256
370
   -1
100
AcDbMText
 10
290
 20
-217
 30
0
 40
2
 41
7.5
 71
    1
 72
    1
  1
Id: 1/1
  7
standard
210
0
220
0
230
1
 50
0
 73
    2
 44
1
  0
MTEXT
  5
2A7
100
AcDbEntity
  8
text
  6
ByLayer
 62
  256
370
   -1
100
AcDbMText
 10
206
 20
-200
 30
0
 40
2
 41
61.16666975239068
 71
    1
 72
    1
  1
Pozsar Zsolt - http://www.szerafingomba.hu
  7
standard
210
0
220
0
230
1
 50
0
 73
    2
 44
1
  0
MTEXT
  5
2A8
100
AcDbEntity
  8
text
  6
ByLayer
 62
  256
370
   -1
100
AcDbMText
 10
206
 20
-210
 30
0
 40
2
 41
78.11111111111248
 71
    1
 72
    1
  1
Title: MM5D Controlling and remote monitoring equipment
  7
standard
210
0
220
0
230
1
 50
0
 73
    2
 44
1
  0
MTEXT
  5
2A9
100
AcDbEntity
  8
text
  6
ByLayer
 62
  256
370
   -1
100
AcDbMText
 10
206
 20
-194
 30
0
 40
2
 41
5.722222222222222
 71
    1
 72
    1
  1
M 1:1
  7
standard
210
0
220
0
230
1
 50
0
 73
    2
 44
1
  0
MTEXT
  5
2AA
100
AcDbEntity
  8
frame
  6
ByLayer
 62
  256
370
   -1
100
AcDbMText
 10
206
 20
-207
 30
0
 40
2
 41
18.38888888888898
 71
    1
 72
    1
  1
File: front.dxf
  7
STANDARD
210
0
220
0
230
1
 50
0
 73
    2
 44
1
  0
MTEXT
  5
2AB
100
AcDbEntity
  8
frame
  6
ByLayer
 62
  256
370
   -1
100
AcDbMText
 10
206
 20
-214
 30
0
 40
2
 41
12.16666624266249
 71
    1
 72
    1
  1
Size: A/3
  7
STANDARD
210
0
220
0
230
1
 50
0
 73
    2
 44
1
  0
MTEXT
  5
2AC
100
AcDbEntity
  8
frame
  6
ByLayer
 62
  256
370
   -1
100
AcDbMText
 10
206
 20
-197
 30
0
 40
2
 41
41.50000000000059
 71
    1
 72
    1
  1
Drilling draw for front of box
  7
STANDARD
210
0
220
0
230
1
 50
0
 73
    2
 44
1
  0
MTEXT
  5
2AD
100
AcDbEntity
  8
frame
  6
ByLayer
 62
  256
370
   -1
100
AcDbMText
 10
206
 20
-189
 30
0
 40
2
 41
23.444444444445
 71
    1
 72
    1
  1
Draw no.: 59/5/11
  7
STANDARD
210
0
220
0
230
1
 50
0
 73
    2
 44
1
  0
MTEXT
  5
2AE
100
AcDbEntity
  8
frame
  6
CONTINUOUS
 62
  256
370
   50
100
AcDbMText
 10
192
 20
-38
 30
0
 40
3
 41
4.33333333333352
 71
    1
 72
    1
  1
%%C6
  7

210
0
220
0
230
1
 50
0
 73
    2
 44
1
  0
MTEXT
  5
2AF
100
AcDbEntity
  8
frame
  6
CONTINUOUS
 62
  256
370
   50
100
AcDbMText
 10
49.83550947153093
 20
-73.45976469677407
 30
0
 40
3
 41
66.16666975239124
 71
    1
 72
    1
  1
Diameter of all holes is 5.5 mm.
  7

210
0
220
0
230
1
 50
0
 73
    2
 44
1
  0
ENDSEC
  0
SECTION
  2
OBJECTS
  0
DICTIONARY
  5
C
330
0
100
AcDbDictionary
281
    1
  3
ACAD_GROUP
350
D
  0
DICTIONARY
  5
D
330
C
100
AcDbDictionary
281
    1
  0
ENDSEC
  0
EOF
