999
dxfrw 0.6.3
  0
SECTION
  2
HEADER
  9
$ACADVER
  1
AC1021
  9
$DWGCODEPAGE
  3
ANSI_1250
  9
$INSBASE
 10
0
 20
0
 30
0
  9
$EXTMIN
 10
-49.9924
 20
-56.995
 30
0
  9
$EXTMAX
 10
349.981
 20
219.9924
 30
0
  9
$LIMMIN
 10
0
 20
0
  9
$LIMMAX
 10
420
 20
297
  9
$ORTHOMODE
 70
    0
  9
$REGENMODE
 70
    1
  9
$FILLMODE
 70
    1
  9
$QTEXTMODE
 70
    0
  9
$MIRRTEXT
 70
    0
  9
$LTSCALE
 40
1
  9
$ATTMODE
 70
    0
  9
$TEXTSIZE
 40
2.5
  9
$TRACEWID
 40
15.68
  9
$TEXTSTYLE
  7
STANDARD
  9
$CLAYER
  8
text
  9
$CELTYPE
  6
BYLAYER
  9
$CECOLOR
 62
  256
  9
$CELTSCALE
 40
1
  9
$DISPSILH
 70
    0
  9
$DIMSCALE
 40
1
  9
$DIMASZ
 40
2.5
  9
$DIMEXO
 40
0.625
  9
$DIMDLI
 40
3.75
  9
$DIMRND
 40
0
  9
$DIMDLE
 40
0
  9
$DIMEXE
 40
1.25
  9
$DIMTP
 40
0
  9
$DIMTM
 40
0
  9
$DIMTXT
 40
5
  9
$DIMCEN
 40
2.5
  9
$DIMTSZ
 40
0
  9
$DIMTOL
 70
    0
  9
$DIMLIM
 70
    0
  9
$DIMTIH
 70
    0
  9
$DIMTOH
 70
    0
  9
$DIMSE1
 70
    0
  9
$DIMSE2
 70
    0
  9
$DIMTAD
 70
    1
  9
$DIMZIN
 70
    1
  9
$DIMBLK
  1

  9
$DIMASO
 70
    1
  9
$DIMSHO
 70
    1
  9
$DIMPOST
  1

  9
$DIMAPOST
  1

  9
$DIMALT
 70
    0
  9
$DIMALTD
 70
    3
  9
$DIMALTF
 40
0.03937
  9
$DIMLFAC
 40
1
  9
$DIMTOFL
 70
    1
  9
$DIMTVP
 40
0
  9
$DIMTIX
 70
    0
  9
$DIMSOXD
 70
    0
  9
$DIMSAH
 70
    0
  9
$DIMBLK1
  1

  9
$DIMBLK2
  1

  9
$DIMSTYLE
  2
STANDARD
  9
$DIMCLRD
 70
    0
  9
$DIMCLRE
 70
    0
  9
$DIMCLRT
 70
    0
  9
$DIMTFAC
 40
1
  9
$DIMGAP
 40
0.625
  9
$DIMJUST
 70
    0
  9
$DIMSD1
 70
    0
  9
$DIMSD2
 70
    0
  9
$DIMTOLJ
 70
    0
  9
$DIMTZIN
 70
    8
  9
$DIMALTZ
 70
    0
  9
$DIMALTTZ
 70
    0
  9
$DIMUPT
 70
    0
  9
$DIMDEC
 70
    0
  9
$DIMTDEC
 70
    2
  9
$DIMALTU
 70
    2
  9
$DIMALTTD
 70
    3
  9
$DIMTXSTY
  7
standard
  9
$DIMAUNIT
 70
    0
  9
$DIMADEC
 70
    2
  9
$DIMALTRND
 40
0
  9
$DIMAZIN
 70
    0
  9
$DIMDSEP
 70
    0
  9
$DIMATFIT
 70
    3
  9
$DIMFRAC
 70
    0
  9
$DIMLDRBLK
  1
STANDARD
  9
$DIMLUNIT
 70
    2
  9
$DIMLWD
 70
   -2
  9
$DIMLWE
 70
   -2
  9
$DIMTMOVE
 70
    0
  9
$DIMFXL
 40
1
  9
$DIMFXLON
 70
    0
  9
$DIMJOGANG
 40
0.7854
  9
$DIMTFILL
 70
    0
  9
$DIMTFILLCLR
 70
    0
  9
$DIMARCSYM
 70
    0
  9
$DIMLTYPE
  6

  9
$DIMLTEX1
  6

  9
$DIMLTEX2
  6

  9
$LUNITS
 70
    2
  9
$LUPREC
 70
    2
  9
$SKETCHINC
 40
1
  9
$FILLETRAD
 40
0
  9
$AUNITS
 70
    0
  9
$AUPREC
 70
    2
  9
$MENU
  1
.
  9
$ELEVATION
 40
0
  9
$PELEVATION
 40
0
  9
$THICKNESS
 40
0
  9
$LIMCHECK
 70
    0
  9
$CHAMFERA
 40
0
  9
$CHAMFERB
 40
0
  9
$CHAMFERC
 40
0
  9
$CHAMFERD
 40
0
  9
$SKPOLY
 70
    0
  9
$USRTIMER
 70
    1
  9
$ANGBASE
 50
0
  9
$ANGDIR
 70
    0
  9
$PDMODE
 70
   34
  9
$PDSIZE
 40
0
  9
$PLINEWID
 40
0
  9
$SPLFRAME
 70
    0
  9
$SPLINETYPE
 70
    2
  9
$SPLINESEGS
 70
    8
  9
$HANDSEED
  5
20000
  9
$SURFTAB1
 70
    6
  9
$SURFTAB2
 70
    6
  9
$SURFTYPE
 70
    6
  9
$SURFU
 70
    6
  9
$SURFV
 70
    6
  9
$UCSBASE
  2

  9
$UCSNAME
  2

  9
$UCSORG
 10
0
 20
0
 30
0
  9
$UCSXDIR
 10
1
 20
0
 30
0
  9
$UCSYDIR
 10
0
 20
1
 30
0
  9
$UCSORTHOREF
  2

  9
$UCSORTHOVIEW
 70
    0
  9
$UCSORGTOP
 10
0
 20
0
 30
0
  9
$UCSORGBOTTOM
 10
0
 20
0
 30
0
  9
$UCSORGLEFT
 10
0
 20
0
 30
0
  9
$UCSORGRIGHT
 10
0
 20
0
 30
0
  9
$UCSORGFRONT
 10
0
 20
0
 30
0
  9
$UCSORGBACK
 10
0
 20
0
 30
0
  9
$PUCSBASE
  2

  9
$PUCSNAME
  2

  9
$PUCSORG
 10
0
 20
0
 30
0
  9
$PUCSXDIR
 10
1
 20
0
 30
0
  9
$PUCSYDIR
 10
0
 20
1
 30
0
  9
$PUCSORTHOREF
  2

  9
$PUCSORTHOVIEW
 70
    0
  9
$PUCSORGTOP
 10
0
 20
0
 30
0
  9
$PUCSORGBOTTOM
 10
0
 20
0
 30
0
  9
$PUCSORGLEFT
 10
0
 20
0
 30
0
  9
$PUCSORGRIGHT
 10
0
 20
0
 30
0
  9
$PUCSORGFRONT
 10
0
 20
0
 30
0
  9
$PUCSORGBACK
 10
0
 20
0
 30
0
  9
$USERI1
 70
    0
  9
$USERI2
 70
    0
  9
$USERI3
 70
    0
  9
$USERI4
 70
    0
  9
$USERI5
 70
    0
  9
$USERR1
 40
0
  9
$USERR2
 40
0
  9
$USERR3
 40
0
  9
$USERR4
 40
0
  9
$USERR5
 40
0
  9
$WORLDVIEW
 70
    1
  9
$SHADEDGE
 70
    3
  9
$SHADEDIF
 70
   70
  9
$TILEMODE
 70
    1
  9
$MAXACTVP
 70
   64
  9
$PINSBASE
 10
62.70647834522437
 20
68.46875525745938
 30
0
  9
$PLIMCHECK
 70
    0
  9
$PEXTMIN
 10
0
 20
0
 30
0
  9
$PEXTMAX
 10
0
 20
0
 30
0
  9
$GRIDMODE
 70
    1
  9
$SNAPSTYLE
 70
    0
  9
$GRIDUNIT
 10
0
 20
0
  9
$PLIMMIN
 10
0
 20
0
  9
$PLIMMAX
 10
420
 20
297
  9
$UNITMODE
 70
    0
  9
$VISRETAIN
 70
    1
  9
$PLINEGEN
 70
    0
  9
$PSLTSCALE
 70
    1
  9
$TREEDEPTH
 70
 3020
  9
$CMLSTYLE
  2
Standard
  9
$CMLJUST
 70
    0
  9
$CMLSCALE
 40
20
  9
$PROXYGRAPHICS
 70
    1
  9
$MEASUREMENT
 70
    1
  9
$CELWEIGHT
370
   -1
  9
$ENDCAPS
280
    0
  9
$JOINSTYLE
280
    0
  9
$LWDISPLAY
290
    0
  9
$INSUNITS
 70
    4
  9
$HYPERLINKBASE
  1

  9
$STYLESHEET
  1

  9
$XEDIT
290
    1
  9
$CEPSNTYPE
380
    0
  9
$PSTYLEMODE
290
    1
  9
$EXTNAMES
290
    1
  9
$PSVPSCALE
 40
0.9819902979358563
  9
$OLESTARTUP
290
    0
  9
$SORTENTS
280
  127
  9
$INDEXCTL
280
    0
  9
$HIDETEXT
280
    1
  9
$XCLIPFRAME
290
    0
  9
$HALOGAP
280
    0
  9
$OBSCOLOR
 70
  257
  9
$OBSLTYPE
280
    0
  9
$INTERSECTIONDISPLAY
280
    0
  9
$INTERSECTIONCOLOR
 70
  257
  9
$DIMASSOC
280
    1
  9
$PROJECTNAME
  1

  9
$CAMERADISPLAY
290
    0
  9
$LENSLENGTH
 40
50
  9
$CAMERAHEIGHT
 40
0
  9
$STEPSPERSEC
 40
2
  9
$STEPSIZE
 40
50
  9
$3DDWFPREC
 40
2
  9
$PSOLWIDTH
 40
5
  9
$PSOLHEIGHT
 40
80
  9
$LOFTANG1
 40
1.570796326794897
  9
$LOFTANG2
 40
1.570796326794897
  9
$LOFTMAG1
 40
0
  9
$LOFTMAG2
 40
0
  9
$LOFTPARAM
 70
    7
  9
$LOFTNORMALS
280
    1
  9
$LATITUDE
 40
1
  9
$LONGITUDE
 40
1
  9
$NORTHDIRECTION
 40
0
  9
$TIMEZONE
 70
-8000
  9
$LIGHTGLYPHDISPLAY
280
    1
  9
$TILEMODELIGHTSYNCH
280
    1
  9
$SOLIDHIST
280
    1
  9
$SHOWHIST
280
    1
  9
$DWFFRAME
280
    2
  9
$DGNFRAME
280
    0
  9
$REALWORLDSCALE
290
    1
  9
$INTERFERECOLOR
 62
    1
  9
$CSHADOW
280
    0
  9
$SHADOWPLANELOCATION
 40
0
  0
ENDSEC
  0
SECTION
  2
CLASSES
  0
ENDSEC
  0
SECTION
  2
TABLES
  0
TABLE
  2
VPORT
  5
8
330
0
100
AcDbSymbolTable
 70
    1
  0
VPORT
  5
31
330
2
100
AcDbSymbolTableRecord
100
AcDbViewportTableRecord
  2
*ACTIVE
 70
    0
 10
0
 20
0
 11
1
 21
1
 12
192.7226719730163
 22
139.6541101253741
 13
0
 23
0
 14
10
 24
10
 15
10
 25
10
 16
0
 26
0
 36
1
 17
0
 27
0
 37
0
 40
428.0398475342717
 41
1.215334420880914
 42
50
 43
0
 44
0
 50
0
 51
0
 71
    0
 72
  100
 73
    1
 74
    3
 75
    0
 76
    1
 77
    0
 78
    0
281
    0
 65
    1
110
0
120
0
130
0
111
1
121
0
131
0
112
0
122
1
132
0
 79
    0
146
0
348
10020
 60
    7
 61
    5
292
1
282
    1
141
0
142
0
 63
  250
421
3358443
  0
ENDTAB
  0
TABLE
  2
LTYPE
  5
5
330
0
100
AcDbSymbolTable
 70
    4
  0
LTYPE
  5
14
330
5
100
AcDbSymbolTableRecord
100
AcDbLinetypeTableRecord
  2
ByBlock
 70
    0
  3

 72
   65
 73
    0
 40
0
  0
LTYPE
  5
15
330
5
100
AcDbSymbolTableRecord
100
AcDbLinetypeTableRecord
  2
ByLayer
 70
    0
  3

 72
   65
 73
    0
 40
0
  0
LTYPE
  5
16
330
5
100
AcDbSymbolTableRecord
100
AcDbLinetypeTableRecord
  2
Continuous
 70
    0
  3
Solid line
 72
   65
 73
    0
 40
0
  0
LTYPE
  5
32
330
5
100
AcDbSymbolTableRecord
100
AcDbLinetypeTableRecord
  2
DOT
 70
    0
  3
Dot . . . . . . . . . . . . . . . . . . . . . .
 72
   65
 73
    2
 40
6.35
 49
0
 74
    0
 49
-6.35
 74
    0
  0
LTYPE
  5
33
330
5
100
AcDbSymbolTableRecord
100
AcDbLinetypeTableRecord
  2
DOTTINY
 70
    0
  3
Dot (.15x) .....................................
 72
   65
 73
    2
 40
0.9525
 49
0
 74
    0
 49
-0.9525
 74
    0
  0
LTYPE
  5
34
330
5
100
AcDbSymbolTableRecord
100
AcDbLinetypeTableRecord
  2
DOT2
 70
    0
  3
Dot (.5x) .....................................
 72
   65
 73
    2
 40
3.175
 49
0
 74
    0
 49
-3.175
 74
    0
  0
LTYPE
  5
35
330
5
100
AcDbSymbolTableRecord
100
AcDbLinetypeTableRecord
  2
DOTX2
 70
    0
  3
Dot (2x) .  .  .  .  .  .  .  .  .  .  .  .  .
 72
   65
 73
    2
 40
12.7
 49
0
 74
    0
 49
-12.7
 74
    0
  0
LTYPE
  5
36
330
5
100
AcDbSymbolTableRecord
100
AcDbLinetypeTableRecord
  2
DASHED
 70
    0
  3
Dashed _ _ _ _ _ _ _ _ _ _ _ _ _ _ _ _ _
 72
   65
 73
    2
 40
19.05
 49
12.7
 74
    0
 49
-6.35
 74
    0
  0
LTYPE
  5
37
330
5
100
AcDbSymbolTableRecord
100
AcDbLinetypeTableRecord
  2
DASHEDTINY
 70
    0
  3
Dashed (.15x) _ _ _ _ _ _ _ _ _ _ _ _ _ _ _ _ _
 72
   65
 73
    2
 40
2.8575
 49
1.905
 74
    0
 49
-0.9525
 74
    0
  0
LTYPE
  5
38
330
5
100
AcDbSymbolTableRecord
100
AcDbLinetypeTableRecord
  2
DASHED2
 70
    0
  3
Dashed (.5x) _ _ _ _ _ _ _ _ _ _ _ _ _ _ _ _ _
 72
   65
 73
    2
 40
9.524999999999999
 49
6.35
 74
    0
 49
-3.175
 74
    0
  0
LTYPE
  5
39
330
5
100
AcDbSymbolTableRecord
100
AcDbLinetypeTableRecord
  2
DASHEDX2
 70
    0
  3
Dashed (2x) ____  ____  ____  ____  ____  ___
 72
   65
 73
    2
 40
38.09999999999999
 49
25.4
 74
    0
 49
-12.7
 74
    0
  0
LTYPE
  5
3A
330
5
100
AcDbSymbolTableRecord
100
AcDbLinetypeTableRecord
  2
DASHDOT
 70
    0
  3
Dash dot __ . __ . __ . __ . __ . __ . __ . __
 72
   65
 73
    4
 40
25.4
 49
12.7
 74
    0
 49
-6.35
 74
    0
 49
0
 74
    0
 49
-6.35
 74
    0
  0
LTYPE
  5
3B
330
5
100
AcDbSymbolTableRecord
100
AcDbLinetypeTableRecord
  2
DASHDOTTINY
 70
    0
  3
Dash dot (.15x) _._._._._._._._._._._._._._._.
 72
   65
 73
    4
 40
3.81
 49
1.905
 74
    0
 49
-0.9525
 74
    0
 49
0
 74
    0
 49
-0.9525
 74
    0
  0
LTYPE
  5
3C
330
5
100
AcDbSymbolTableRecord
100
AcDbLinetypeTableRecord
  2
DASHDOT2
 70
    0
  3
Dash dot (.5x) _._._._._._._._._._._._._._._.
 72
   65
 73
    4
 40
12.7
 49
6.35
 74
    0
 49
-3.175
 74
    0
 49
0
 74
    0
 49
-3.175
 74
    0
  0
LTYPE
  5
3D
330
5
100
AcDbSymbolTableRecord
100
AcDbLinetypeTableRecord
  2
DASHDOTX2
 70
    0
  3
Dash dot (2x) ____  .  ____  .  ____  .  ___
 72
   65
 73
    4
 40
50.8
 49
25.4
 74
    0
 49
-12.7
 74
    0
 49
0
 74
    0
 49
-12.7
 74
    0
  0
LTYPE
  5
3E
330
5
100
AcDbSymbolTableRecord
100
AcDbLinetypeTableRecord
  2
DIVIDE
 70
    0
  3
Divide ____ . . ____ . . ____ . . ____ . . ____
 72
   65
 73
    6
 40
31.75
 49
12.7
 74
    0
 49
-6.35
 74
    0
 49
0
 74
    0
 49
-6.35
 74
    0
 49
0
 74
    0
 49
-6.35
 74
    0
  0
LTYPE
  5
3F
330
5
100
AcDbSymbolTableRecord
100
AcDbLinetypeTableRecord
  2
DIVIDETINY
 70
    0
  3
Divide (.15x) __..__..__..__..__..__..__..__.._
 72
   65
 73
    6
 40
4.7625
 49
1.905
 74
    0
 49
-0.9525
 74
    0
 49
0
 74
    0
 49
-0.9525
 74
    0
 49
0
 74
    0
 49
-0.9525
 74
    0
  0
LTYPE
  5
40
330
5
100
AcDbSymbolTableRecord
100
AcDbLinetypeTableRecord
  2
DIVIDE2
 70
    0
  3
Divide (.5x) __..__..__..__..__..__..__..__.._
 72
   65
 73
    6
 40
15.875
 49
6.35
 74
    0
 49
-3.175
 74
    0
 49
0
 74
    0
 49
-3.175
 74
    0
 49
0
 74
    0
 49
-3.175
 74
    0
  0
LTYPE
  5
41
330
5
100
AcDbSymbolTableRecord
100
AcDbLinetypeTableRecord
  2
DIVIDEX2
 70
    0
  3
Divide (2x) ________  .  .  ________  .  .  _
 72
   65
 73
    6
 40
63.5
 49
25.4
 74
    0
 49
-12.7
 74
    0
 49
0
 74
    0
 49
-12.7
 74
    0
 49
0
 74
    0
 49
-12.7
 74
    0
  0
LTYPE
  5
42
330
5
100
AcDbSymbolTableRecord
100
AcDbLinetypeTableRecord
  2
BORDER
 70
    0
  3
Border __ __ . __ __ . __ __ . __ __ . __ __ .
 72
   65
 73
    6
 40
44.45
 49
12.7
 74
    0
 49
-6.35
 74
    0
 49
12.7
 74
    0
 49
-6.35
 74
    0
 49
0
 74
    0
 49
-6.35
 74
    0
  0
LTYPE
  5
43
330
5
100
AcDbSymbolTableRecord
100
AcDbLinetypeTableRecord
  2
BORDERTINY
 70
    0
  3
Border (.15x) __.__.__.__.__.__.__.__.__.__.__.
 72
   65
 73
    6
 40
6.6675
 49
1.905
 74
    0
 49
-0.9525
 74
    0
 49
1.905
 74
    0
 49
-0.9525
 74
    0
 49
0
 74
    0
 49
-0.9525
 74
    0
  0
LTYPE
  5
44
330
5
100
AcDbSymbolTableRecord
100
AcDbLinetypeTableRecord
  2
BORDER2
 70
    0
  3
Border (.5x) __.__.__.__.__.__.__.__.__.__.__.
 72
   65
 73
    6
 40
22.225
 49
6.35
 74
    0
 49
-3.175
 74
    0
 49
6.35
 74
    0
 49
-3.175
 74
    0
 49
0
 74
    0
 49
-3.175
 74
    0
  0
LTYPE
  5
45
330
5
100
AcDbSymbolTableRecord
100
AcDbLinetypeTableRecord
  2
BORDERX2
 70
    0
  3
Border (2x) ____  ____  .  ____  ____  .  ___
 72
   65
 73
    6
 40
88.89999999999999
 49
25.4
 74
    0
 49
-12.7
 74
    0
 49
25.4
 74
    0
 49
-12.7
 74
    0
 49
0
 74
    0
 49
-12.7
 74
    0
  0
LTYPE
  5
46
330
5
100
AcDbSymbolTableRecord
100
AcDbLinetypeTableRecord
  2
CENTER
 70
    0
  3
Center ____ _ ____ _ ____ _ ____ _ ____ _ ____
 72
   65
 73
    4
 40
50.8
 49
31.75
 74
    0
 49
-6.35
 74
    0
 49
6.35
 74
    0
 49
-6.35
 74
    0
  0
LTYPE
  5
47
330
5
100
AcDbSymbolTableRecord
100
AcDbLinetypeTableRecord
  2
CENTERTINY
 70
    0
  3
Center (.15x) ___ _ ___ _ ___ _ ___ _ ___ _ ___
 72
   65
 73
    4
 40
7.62
 49
4.7625
 74
    0
 49
-0.9525
 74
    0
 49
0.9525
 74
    0
 49
-0.9525
 74
    0
  0
LTYPE
  5
48
330
5
100
AcDbSymbolTableRecord
100
AcDbLinetypeTableRecord
  2
CENTER2
 70
    0
  3
Center (.5x) ___ _ ___ _ ___ _ ___ _ ___ _ ___
 72
   65
 73
    4
 40
28.575
 49
19.05
 74
    0
 49
-3.175
 74
    0
 49
3.175
 74
    0
 49
-3.175
 74
    0
  0
LTYPE
  5
49
330
5
100
AcDbSymbolTableRecord
100
AcDbLinetypeTableRecord
  2
CENTERX2
 70
    0
  3
Center (2x) ________  __  ________  __  _____
 72
   65
 73
    4
 40
101.6
 49
63.5
 74
    0
 49
-12.7
 74
    0
 49
12.7
 74
    0
 49
-12.7
 74
    0
  0
ENDTAB
  0
TABLE
  2
LAYER
  5
2
330
0
100
AcDbSymbolTable
 70
    1
  0
LAYER
  5
10
330
2
100
AcDbSymbolTableRecord
100
AcDbLayerTableRecord
  2
0
 70
    4
 62
    7
  6
CONTINUOUS
370
    0
390
F
  0
LAYER
  5
4A
330
2
100
AcDbSymbolTableRecord
100
AcDbLayerTableRecord
  2
frame
 70
    4
 62
    7
  6
CONTINUOUS
370
   -3
390
F
  0
LAYER
  5
4B
330
2
100
AcDbSymbolTableRecord
100
AcDbLayerTableRecord
  2
text
 70
    4
 62
    7
  6
CONTINUOUS
370
    0
390
F
  0
LAYER
  5
4C
330
2
100
AcDbSymbolTableRecord
100
AcDbLayerTableRecord
  2
holes
 70
    4
 62
    7
  6
CONTINUOUS
370
   -3
390
F
  0
ENDTAB
  0
TABLE
  2
STYLE
  5
3
330
0
100
AcDbSymbolTable
 70
    3
  0
STYLE
  5
4D
330
2
100
AcDbSymbolTableRecord
100
AcDbTextStyleTableRecord
  2
STANDARD
 70
    0
 40
0
 41
1
 50
0
 71
    0
 42
1
  3
STANDARD
  4

  0
STYLE
  5
4E
330
2
100
AcDbSymbolTableRecord
100
AcDbTextStyleTableRecord
  2
standard
 70
    0
 40
0
 41
1
 50
0
 71
    0
 42
1
  3
standard
  4

  0
ENDTAB
  0
TABLE
  2
VIEW
  5
6
330
0
100
AcDbSymbolTable
 70
    0
  0
ENDTAB
  0
TABLE
  2
UCS
  5
7
330
0
100
AcDbSymbolTable
 70
    0
  0
ENDTAB
  0
TABLE
  2
APPID
  5
9
330
0
100
AcDbSymbolTable
 70
    1
  0
APPID
  5
12
330
9
100
AcDbSymbolTableRecord
100
AcDbRegAppTableRecord
  2
ACAD
 70
    0
  0
APPID
  5
4F
330
9
100
AcDbSymbolTableRecord
100
AcDbRegAppTableRecord
  2
LibreCad
 70
    0
  0
ENDTAB
  0
TABLE
  2
DIMSTYLE
  5
A
330
0
100
AcDbSymbolTable
 70
    1
100
AcDbDimStyleTable
 71
    1
  0
DIMSTYLE
105
50
330
A
100
AcDbSymbolTableRecord
100
AcDbDimStyleTableRecord
  2
Standard
 70
    0
 40
1
 41
2.5
 42
0.625
 43
0.38
 44
1.25
 45
0
 46
0
 47
0
 48
0
 49
1
140
5
141
0.09
142
0
143
25.4
144
1
145
0
146
1
147
0.625
148
0
 71
    0
 72
    0
 73
    0
 74
    1
 75
    0
 76
    0
 77
    0
 78
    1
 79
    0
170
    0
171
    2
172
    0
173
    0
174
    0
175
    0
176
    0
177
    0
178
    0
179
    2
271
    0
272
    4
273
    2
274
    2
275
    0
276
    0
277
    2
278
    0
279
    0
280
    0
281
    0
282
    0
283
    1
284
    0
285
    0
286
    0
288
    0
289
    3
340
standard
341

371
   -2
372
   -2
  0
ENDTAB
  0
TABLE
  2
BLOCK_RECORD
  5
1
330
0
100
AcDbSymbolTable
 70
    2
  0
BLOCK_RECORD
  5
1F
330
1
100
AcDbSymbolTableRecord
100
AcDbBlockTableRecord
  2
*Model_Space
 70
    0
280
    1
281
    0
  0
BLOCK_RECORD
  5
1E
330
1
100
AcDbSymbolTableRecord
100
AcDbBlockTableRecord
  2
*Paper_Space
 70
    0
280
    1
281
    0
  0
BLOCK_RECORD
  5
51
330
1
100
AcDbSymbolTableRecord
100
AcDbBlockTableRecord
  2
*D14
 70
    0
280
    1
281
    0
  0
BLOCK_RECORD
  5
54
330
1
100
AcDbSymbolTableRecord
100
AcDbBlockTableRecord
  2
*D10
 70
    0
280
    1
281
    0
  0
BLOCK_RECORD
  5
57
330
1
100
AcDbSymbolTableRecord
100
AcDbBlockTableRecord
  2
*D12
 70
    0
280
    1
281
    0
  0
BLOCK_RECORD
  5
5A
330
1
100
AcDbSymbolTableRecord
100
AcDbBlockTableRecord
  2
*D7
 70
    0
280
    1
281
    0
  0
BLOCK_RECORD
  5
5D
330
1
100
AcDbSymbolTableRecord
100
AcDbBlockTableRecord
  2
*D18
 70
    0
280
    1
281
    0
  0
BLOCK_RECORD
  5
60
330
1
100
AcDbSymbolTableRecord
100
AcDbBlockTableRecord
  2
*D9
 70
    0
280
    1
281
    0
  0
BLOCK_RECORD
  5
63
330
1
100
AcDbSymbolTableRecord
100
AcDbBlockTableRecord
  2
*D11
 70
    0
280
    1
281
    0
  0
BLOCK_RECORD
  5
66
330
1
100
AcDbSymbolTableRecord
100
AcDbBlockTableRecord
  2
*D1
 70
    0
280
    1
281
    0
  0
BLOCK_RECORD
  5
69
330
1
100
AcDbSymbolTableRecord
100
AcDbBlockTableRecord
  2
*D15
 70
    0
280
    1
281
    0
  0
BLOCK_RECORD
  5
6C
330
1
100
AcDbSymbolTableRecord
100
AcDbBlockTableRecord
  2
*D6
 70
    0
280
    1
281
    0
  0
BLOCK_RECORD
  5
6F
330
1
100
AcDbSymbolTableRecord
100
AcDbBlockTableRecord
  2
*D4
 70
    0
280
    1
281
    0
  0
BLOCK_RECORD
  5
72
330
1
100
AcDbSymbolTableRecord
100
AcDbBlockTableRecord
  2
*D3
 70
    0
280
    1
281
    0
  0
BLOCK_RECORD
  5
75
330
1
100
AcDbSymbolTableRecord
100
AcDbBlockTableRecord
  2
*D5
 70
    0
280
    1
281
    0
  0
BLOCK_RECORD
  5
78
330
1
100
AcDbSymbolTableRecord
100
AcDbBlockTableRecord
  2
*D17
 70
    0
280
    1
281
    0
  0
BLOCK_RECORD
  5
7B
330
1
100
AcDbSymbolTableRecord
100
AcDbBlockTableRecord
  2
*D16
 70
    0
280
    1
281
    0
  0
BLOCK_RECORD
  5
7E
330
1
100
AcDbSymbolTableRecord
100
AcDbBlockTableRecord
  2
*D8
 70
    0
280
    1
281
    0
  0
BLOCK_RECORD
  5
81
330
1
100
AcDbSymbolTableRecord
100
AcDbBlockTableRecord
  2
*D2
 70
    0
280
    1
281
    0
  0
BLOCK_RECORD
  5
84
330
1
100
AcDbSymbolTableRecord
100
AcDbBlockTableRecord
  2
*D13
 70
    0
280
    1
281
    0
  0
ENDTAB
  0
ENDSEC
  0
SECTION
  2
BLOCKS
  0
BLOCK
  5
20
330
1F
100
AcDbEntity
  8
0
100
AcDbBlockBegin
  2
*Model_Space
 70
    0
 10
0
 20
0
 30
0
  3
*Model_Space
  1

  0
ENDBLK
  5
21
330
1F
100
AcDbEntity
  8
0
100
AcDbBlockEnd
  0
BLOCK
  5
1C
330
1B
100
AcDbEntity
  8
0
100
AcDbBlockBegin
  2
*Paper_Space
 70
    0
 10
0
 20
0
 30
0
  3
*Paper_Space
  1

  0
ENDBLK
  5
1D
330
1F
100
AcDbEntity
  8
0
100
AcDbBlockEnd
  0
BLOCK
  5
52
330
51
100
AcDbEntity
  8
0
100
AcDbBlockBegin
  2
*D14
 70
    1
 10
0
 20
0
  3
*D14
  1

  0
LINE
  5
87
100
AcDbEntity
  8
holes
  6
ByBlock
 62
    0
370
   -2
100
AcDbLine
 10
53
 20
175.625
 11
53
 21
181.25
  0
LINE
  5
88
100
AcDbEntity
  8
holes
  6
ByBlock
 62
    0
370
   -2
100
AcDbLine
 10
1.770480905514994e-16
 20
175.625
 11
1.770480905514993e-15
 21
181.25
  0
LINE
  5
89
100
AcDbEntity
  8
holes
  6
ByBlock
 62
    0
370
   -2
100
AcDbLine
 10
53
 20
180
 11
1.416384724411995e-15
 21
180
  0
SOLID
  5
8A
100
AcDbEntity
  8
holes
  6
ByBlock
 62
    0
370
   -2
100
AcDbTrace
 10
53
 20
180
 30
0
 11
50.5
 21
179.5837153422272
 31
0
 12
50.5
 22
180.4162846577728
 32
0
 13
50.5
 23
180.4162846577728
 33
0
  0
SOLID
  5
8B
100
AcDbEntity
  8
holes
  6
ByBlock
 62
    0
370
   -2
100
AcDbTrace
 10
1.416384724411995e-15
 20
180
 30
0
 11
2.500000000000001
 21
180.4162846577728
 31
0
 12
2.500000000000001
 22
179.5837153422272
 32
0
 13
2.500000000000001
 23
179.5837153422272
 33
0
  0
MTEXT
  5
8C
100
AcDbEntity
  8
holes
  6
CONTINUOUS
 62
    0
370
   -2
100
AcDbMText
 10
26.5
 20
183.125
 30
0
 40
5
 41
6.111111111111732
 71
    5
 72
    1
  1
53
  7
standard
210
0
220
0
230
1
 50
360
 73
    2
 44
1
  0
ENDBLK
  5
53
330
51
100
AcDbEntity
  8
0
100
AcDbBlockEnd
  0
BLOCK
  5
55
330
54
100
AcDbEntity
  8
0
100
AcDbBlockBegin
  2
*D10
 70
    1
 10
0
 20
0
  3
*D10
  1

  0
LINE
  5
8D
100
AcDbEntity
  8
holes
  6
ByBlock
 62
    0
370
   -2
100
AcDbLine
 10
232.625
 20
82
 11
241.25
 21
82
  0
LINE
  5
8E
100
AcDbEntity
  8
holes
  6
ByBlock
 62
    0
370
   -2
100
AcDbLine
 10
232.625
 20
108
 11
241.25
 21
108
  0
LINE
  5
8F
100
AcDbEntity
  8
holes
  6
ByBlock
 62
    0
370
   -2
100
AcDbLine
 10
240
 20
82
 11
240
 21
108
  0
SOLID
  5
90
100
AcDbEntity
  8
holes
  6
ByBlock
 62
    0
370
   -2
100
AcDbTrace
 10
240
 20
82
 30
0
 11
239.5837153422272
 21
84.5
 31
0
 12
240.4162846577728
 22
84.5
 32
0
 13
240.4162846577728
 23
84.5
 33
0
  0
SOLID
  5
91
100
AcDbEntity
  8
holes
  6
ByBlock
 62
    0
370
   -2
100
AcDbTrace
 10
240
 20
108
 30
0
 11
240.4162846577728
 21
105.5
 31
0
 12
239.5837153422272
 22
105.5
 32
0
 13
239.5837153422272
 23
105.5
 33
0
  0
MTEXT
  5
92
100
AcDbEntity
  8
holes
  6
CONTINUOUS
 62
    0
370
   -2
100
AcDbMText
 10
236.875
 20
95
 30
0
 40
5
 41
6.111111111111422
 71
    5
 72
    1
  1
26
  7
standard
210
0
220
0
230
1
 50
90
 73
    2
 44
1
  0
ENDBLK
  5
56
330
54
100
AcDbEntity
  8
0
100
AcDbBlockEnd
  0
BLOCK
  5
58
330
57
100
AcDbEntity
  8
0
100
AcDbBlockBegin
  2
*D12
 70
    1
 10
0
 20
0
  3
*D12
  1

  0
LINE
  5
93
100
AcDbEntity
  8
holes
  6
ByBlock
 62
    0
370
   -2
100
AcDbLine
 10
233.625
 20
127
 11
241.25
 21
127
  0
LINE
  5
94
100
AcDbEntity
  8
holes
  6
ByBlock
 62
    0
370
   -2
100
AcDbLine
 10
233.625
 20
157
 11
241.25
 21
157
  0
LINE
  5
95
100
AcDbEntity
  8
holes
  6
ByBlock
 62
    0
370
   -2
100
AcDbLine
 10
240
 20
127
 11
240
 21
157
  0
SOLID
  5
96
100
AcDbEntity
  8
holes
  6
ByBlock
 62
    0
370
   -2
100
AcDbTrace
 10
240
 20
127
 30
0
 11
239.5837153422272
 21
129.5
 31
0
 12
240.4162846577728
 22
129.5
 32
0
 13
240.4162846577728
 23
129.5
 33
0
  0
SOLID
  5
97
100
AcDbEntity
  8
holes
  6
ByBlock
 62
    0
370
   -2
100
AcDbTrace
 10
240
 20
157
 30
0
 11
240.4162846577728
 21
154.5
 31
0
 12
239.5837153422272
 22
154.5
 32
0
 13
239.5837153422272
 23
154.5
 33
0
  0
MTEXT
  5
98
100
AcDbEntity
  8
holes
  6
CONTINUOUS
 62
    0
370
   -2
100
AcDbMText
 10
236.875
 20
142
 30
0
 40
5
 41
6.111111111111422
 71
    5
 72
    1
  1
30
  7
standard
210
0
220
0
230
1
 50
90
 73
    2
 44
1
  0
ENDBLK
  5
59
330
57
100
AcDbEntity
  8
0
100
AcDbBlockEnd
  0
BLOCK
  5
5B
330
5A
100
AcDbEntity
  8
0
100
AcDbBlockBegin
  2
*D7
 70
    1
 10
0
 20
0
  3
*D7
  1

  0
LINE
  5
99
100
AcDbEntity
  8
holes
  6
ByBlock
 62
    0
370
   -2
100
AcDbLine
 10
132
 20
-6.625
 11
132
 21
-16.25
  0
LINE
  5
9A
100
AcDbEntity
  8
holes
  6
ByBlock
 62
    0
370
   -2
100
AcDbLine
 10
142
 20
-6.625
 11
142
 21
-16.25
  0
LINE
  5
9B
100
AcDbEntity
  8
holes
  6
ByBlock
 62
    0
370
   -2
100
AcDbLine
 10
132
 20
-15
 11
142
 21
-15
  0
SOLID
  5
9C
100
AcDbEntity
  8
holes
  6
ByBlock
 62
    0
370
   -2
100
AcDbTrace
 10
132
 20
-15
 30
0
 11
134.5
 21
-14.58371534222716
 31
0
 12
134.5
 22
-15.41628465777284
 32
0
 13
134.5
 23
-15.41628465777284
 33
0
  0
SOLID
  5
9D
100
AcDbEntity
  8
holes
  6
ByBlock
 62
    0
370
   -2
100
AcDbTrace
 10
142
 20
-15
 30
0
 11
139.5
 21
-15.41628465777284
 31
0
 12
139.5
 22
-14.58371534222716
 32
0
 13
139.5
 23
-14.58371534222716
 33
0
  0
MTEXT
  5
9E
100
AcDbEntity
  8
holes
  6
CONTINUOUS
 62
    0
370
   -2
100
AcDbMText
 10
137
 20
-11.875
 30
0
 40
5
 41
5
 71
    5
 72
    1
  1
10
  7
standard
210
0
220
0
230
1
 50
0
 73
    2
 44
1
  0
ENDBLK
  5
5C
330
5A
100
AcDbEntity
  8
0
100
AcDbBlockEnd
  0
BLOCK
  5
5E
330
5D
100
AcDbEntity
  8
0
100
AcDbBlockBegin
  2
*D18
 70
    1
 10
0
 20
0
  3
*D18
  1

  0
LINE
  5
9F
100
AcDbEntity
  8
holes
  6
ByBlock
 62
    0
370
   -2
100
AcDbLine
 10
218
 20
176.625
 11
218
 21
181.25
  0
LINE
  5
A0
100
AcDbEntity
  8
holes
  6
ByBlock
 62
    0
370
   -2
100
AcDbLine
 10
190
 20
176.625
 11
190
 21
181.25
  0
LINE
  5
A1
100
AcDbEntity
  8
holes
  6
ByBlock
 62
    0
370
   -2
100
AcDbLine
 10
218
 20
180
 11
190
 21
180
  0
SOLID
  5
A2
100
AcDbEntity
  8
holes
  6
ByBlock
 62
    0
370
   -2
100
AcDbTrace
 10
218
 20
180
 30
0
 11
215.5
 21
179.5837153422272
 31
0
 12
215.5
 22
180.4162846577728
 32
0
 13
215.5
 23
180.4162846577728
 33
0
  0
SOLID
  5
A3
100
AcDbEntity
  8
holes
  6
ByBlock
 62
    0
370
   -2
100
AcDbTrace
 10
190
 20
180
 30
0
 11
192.5
 21
180.4162846577728
 31
0
 12
192.5
 22
179.5837153422272
 32
0
 13
192.5
 23
179.5837153422272
 33
0
  0
MTEXT
  5
A4
100
AcDbEntity
  8
holes
  6
CONTINUOUS
 62
    0
370
   -2
100
AcDbMText
 10
204
 20
183.125
 30
0
 40
5
 41
6.111111111111112
 71
    5
 72
    1
  1
28
  7
standard
210
0
220
0
230
1
 50
360
 73
    2
 44
1
  0
ENDBLK
  5
5F
330
5D
100
AcDbEntity
  8
0
100
AcDbBlockEnd
  0
BLOCK
  5
61
330
60
100
AcDbEntity
  8
0
100
AcDbBlockBegin
  2
*D9
 70
    1
 10
0
 20
0
  3
*D9
  1

  0
LINE
  5
A5
100
AcDbEntity
  8
0
  6
ByBlock
 62
    0
370
   -2
100
AcDbLine
 10
-1.148106374200643e-16
 20
39.375
 11
-1.216992756652682e-14
 21
-26.25
  0
LINE
  5
A6
100
AcDbEntity
  8
0
  6
ByBlock
 62
    0
370
   -2
100
AcDbLine
 10
225
 20
39.375
 11
225
 21
-26.25
  0
LINE
  5
A7
100
AcDbEntity
  8
0
  6
ByBlock
 62
    0
370
   -2
100
AcDbLine
 10
-1.194030629168669e-14
 20
-25
 11
225
 21
-25
  0
SOLID
  5
A8
100
AcDbEntity
  8
0
  6
ByBlock
 62
    0
370
   -2
100
AcDbTrace
 10
-1.194030629168669e-14
 20
-25
 30
0
 11
2.499999999999988
 21
-24.58371534222716
 31
0
 12
2.499999999999988
 22
-25.41628465777284
 32
0
 13
2.499999999999988
 23
-25.41628465777284
 33
0
  0
SOLID
  5
A9
100
AcDbEntity
  8
0
  6
ByBlock
 62
    0
370
   -2
100
AcDbTrace
 10
225
 20
-25
 30
0
 11
222.5
 21
-25.41628465777284
 31
0
 12
222.5
 22
-24.58371534222716
 32
0
 13
222.5
 23
-24.58371534222716
 33
0
  0
MTEXT
  5
AA
100
AcDbEntity
  8
0
  6
CONTINUOUS
 62
    0
370
   -2
100
AcDbMText
 10
112.5
 20
-21.875
 30
0
 40
5
 41
10.00000000000031
 71
    5
 72
    1
  1
225
  7
standard
210
0
220
0
230
1
 50
0
 73
    2
 44
1
  0
ENDBLK
  5
62
330
60
100
AcDbEntity
  8
0
100
AcDbBlockEnd
  0
BLOCK
  5
64
330
63
100
AcDbEntity
  8
0
100
AcDbBlockBegin
  2
*D11
 70
    1
 10
0
 20
0
  3
*D11
  1

  0
LINE
  5
AB
100
AcDbEntity
  8
holes
  6
ByBlock
 62
    0
370
   -2
100
AcDbLine
 10
233.625
 20
108
 11
241.25
 21
108
  0
LINE
  5
AC
100
AcDbEntity
  8
holes
  6
ByBlock
 62
    0
370
   -2
100
AcDbLine
 10
233.625
 20
127
 11
241.25
 21
127
  0
LINE
  5
AD
100
AcDbEntity
  8
holes
  6
ByBlock
 62
    0
370
   -2
100
AcDbLine
 10
240
 20
108
 11
240
 21
127
  0
SOLID
  5
AE
100
AcDbEntity
  8
holes
  6
ByBlock
 62
    0
370
   -2
100
AcDbTrace
 10
240
 20
108
 30
0
 11
239.5837153422272
 21
110.5
 31
0
 12
240.4162846577728
 22
110.5
 32
0
 13
240.4162846577728
 23
110.5
 33
0
  0
SOLID
  5
AF
100
AcDbEntity
  8
holes
  6
ByBlock
 62
    0
370
   -2
100
AcDbTrace
 10
240
 20
127
 30
0
 11
240.4162846577728
 21
124.5
 31
0
 12
239.5837153422272
 22
124.5
 32
0
 13
239.5837153422272
 23
124.5
 33
0
  0
MTEXT
  5
B0
100
AcDbEntity
  8
holes
  6
CONTINUOUS
 62
    0
370
   -2
100
AcDbMText
 10
236.875
 20
117.5
 30
0
 40
5
 41
5
 71
    5
 72
    1
  1
19
  7
standard
210
0
220
0
230
1
 50
90
 73
    2
 44
1
  0
ENDBLK
  5
65
330
63
100
AcDbEntity
  8
0
100
AcDbBlockEnd
  0
BLOCK
  5
67
330
66
100
AcDbEntity
  8
0
100
AcDbBlockBegin
  2
*D1
 70
    1
 10
0
 20
0
  3
*D1
  1

  0
LINE
  5
B1
100
AcDbEntity
  8
holes
  6
ByBlock
 62
    0
370
   -2
100
AcDbLine
 10
230.625
 20
0
 11
241.25
 21
0
  0
LINE
  5
B2
100
AcDbEntity
  8
holes
  6
ByBlock
 62
    0
370
   -2
100
AcDbLine
 10
230.625
 20
32
 11
241.25
 21
32
  0
LINE
  5
B3
100
AcDbEntity
  8
holes
  6
ByBlock
 62
    0
370
   -2
100
AcDbLine
 10
240
 20
0
 11
240
 21
32
  0
SOLID
  5
B4
100
AcDbEntity
  8
holes
  6
ByBlock
 62
    0
370
   -2
100
AcDbTrace
 10
240
 20
0
 30
0
 11
239.5837153422272
 21
2.5
 31
0
 12
240.4162846577728
 22
2.5
 32
0
 13
240.4162846577728
 23
2.5
 33
0
  0
SOLID
  5
B5
100
AcDbEntity
  8
holes
  6
ByBlock
 62
    0
370
   -2
100
AcDbTrace
 10
240
 20
32
 30
0
 11
240.4162846577728
 21
29.5
 31
0
 12
239.5837153422272
 22
29.5
 32
0
 13
239.5837153422272
 23
29.5
 33
0
  0
MTEXT
  5
B6
100
AcDbEntity
  8
holes
  6
CONTINUOUS
 62
    0
370
   -2
100
AcDbMText
 10
236.875
 20
16
 30
0
 40
5
 41
6.111111111111422
 71
    5
 72
    1
  1
32
  7
standard
210
0
220
0
230
1
 50
90
 73
    2
 44
1
  0
ENDBLK
  5
68
330
66
100
AcDbEntity
  8
0
100
AcDbBlockEnd
  0
BLOCK
  5
6A
330
69
100
AcDbEntity
  8
0
100
AcDbBlockBegin
  2
*D15
 70
    1
 10
0
 20
0
  3
*D15
  1

  0
LINE
  5
B7
100
AcDbEntity
  8
holes
  6
ByBlock
 62
    0
370
   -2
100
AcDbLine
 10
53
 20
176.625
 11
53
 21
181.25
  0
LINE
  5
B8
100
AcDbEntity
  8
holes
  6
ByBlock
 62
    0
370
   -2
100
AcDbLine
 10
111
 20
176.625
 11
111
 21
181.25
  0
LINE
  5
B9
100
AcDbEntity
  8
holes
  6
ByBlock
 62
    0
370
   -2
100
AcDbLine
 10
53
 20
180
 11
111
 21
180
  0
SOLID
  5
BA
100
AcDbEntity
  8
holes
  6
ByBlock
 62
    0
370
   -2
100
AcDbTrace
 10
53
 20
180
 30
0
 11
55.5
 21
180.4162846577728
 31
0
 12
55.5
 22
179.5837153422272
 32
0
 13
55.5
 23
179.5837153422272
 33
0
  0
SOLID
  5
BB
100
AcDbEntity
  8
holes
  6
ByBlock
 62
    0
370
   -2
100
AcDbTrace
 10
111
 20
180
 30
0
 11
108.5
 21
179.5837153422272
 31
0
 12
108.5
 22
180.4162846577728
 32
0
 13
108.5
 23
180.4162846577728
 33
0
  0
MTEXT
  5
BC
100
AcDbEntity
  8
holes
  6
CONTINUOUS
 62
    0
370
   -2
100
AcDbMText
 10
82
 20
183.125
 30
0
 40
5
 41
6.111111111111422
 71
    5
 72
    1
  1
58
  7
standard
210
0
220
0
230
1
 50
0
 73
    2
 44
1
  0
ENDBLK
  5
6B
330
69
100
AcDbEntity
  8
0
100
AcDbBlockEnd
  0
BLOCK
  5
6D
330
6C
100
AcDbEntity
  8
0
100
AcDbBlockBegin
  2
*D6
 70
    1
 10
0
 20
0
  3
*D6
  1

  0
LINE
  5
BD
100
AcDbEntity
  8
holes
  6
ByBlock
 62
    0
370
   -2
100
AcDbLine
 10
62
 20
-6.625
 11
62
 21
-16.25
  0
LINE
  5
BE
100
AcDbEntity
  8
holes
  6
ByBlock
 62
    0
370
   -2
100
AcDbLine
 10
132
 20
-6.625
 11
132
 21
-16.25
  0
LINE
  5
BF
100
AcDbEntity
  8
holes
  6
ByBlock
 62
    0
370
   -2
100
AcDbLine
 10
62
 20
-15
 11
132
 21
-15
  0
SOLID
  5
C0
100
AcDbEntity
  8
holes
  6
ByBlock
 62
    0
370
   -2
100
AcDbTrace
 10
62
 20
-15
 30
0
 11
64.5
 21
-14.58371534222716
 31
0
 12
64.5
 22
-15.41628465777284
 32
0
 13
64.5
 23
-15.41628465777284
 33
0
  0
SOLID
  5
C1
100
AcDbEntity
  8
holes
  6
ByBlock
 62
    0
370
   -2
100
AcDbTrace
 10
132
 20
-15
 30
0
 11
129.5
 21
-15.41628465777284
 31
0
 12
129.5
 22
-14.58371534222716
 32
0
 13
129.5
 23
-14.58371534222716
 33
0
  0
MTEXT
  5
C2
100
AcDbEntity
  8
holes
  6
CONTINUOUS
 62
    0
370
   -2
100
AcDbMText
 10
97
 20
-11.875
 30
0
 40
5
 41
6.111111111111112
 71
    5
 72
    1
  1
70
  7
standard
210
0
220
0
230
1
 50
0
 73
    2
 44
1
  0
ENDBLK
  5
6E
330
6C
100
AcDbEntity
  8
0
100
AcDbBlockEnd
  0
BLOCK
  5
70
330
6F
100
AcDbEntity
  8
0
100
AcDbBlockBegin
  2
*D4
 70
    1
 10
0
 20
0
  3
*D4
  1

  0
LINE
  5
C3
100
AcDbEntity
  8
holes
  6
ByBlock
 62
    0
370
   -2
100
AcDbLine
 10
52
 20
-4.625
 11
52
 21
-16.25
  0
LINE
  5
C4
100
AcDbEntity
  8
holes
  6
ByBlock
 62
    0
370
   -2
100
AcDbLine
 10
12
 20
-4.625
 11
12
 21
-16.25
  0
LINE
  5
C5
100
AcDbEntity
  8
holes
  6
ByBlock
 62
    0
370
   -2
100
AcDbLine
 10
52
 20
-15
 11
12
 21
-15
  0
SOLID
  5
C6
100
AcDbEntity
  8
holes
  6
ByBlock
 62
    0
370
   -2
100
AcDbTrace
 10
52
 20
-15
 30
0
 11
49.5
 21
-15.41628465777284
 31
0
 12
49.5
 22
-14.58371534222716
 32
0
 13
49.5
 23
-14.58371534222716
 33
0
  0
SOLID
  5
C7
100
AcDbEntity
  8
holes
  6
ByBlock
 62
    0
370
   -2
100
AcDbTrace
 10
12
 20
-15
 30
0
 11
14.5
 21
-14.58371534222716
 31
0
 12
14.5
 22
-15.41628465777284
 32
0
 13
14.5
 23
-15.41628465777284
 33
0
  0
MTEXT
  5
C8
100
AcDbEntity
  8
holes
  6
CONTINUOUS
 62
    0
370
   -2
100
AcDbMText
 10
32
 20
-11.875
 30
0
 40
5
 41
6.666666666666667
 71
    5
 72
    1
  1
40
  7
standard
210
0
220
0
230
1
 50
360
 73
    2
 44
1
  0
ENDBLK
  5
71
330
6F
100
AcDbEntity
  8
0
100
AcDbBlockEnd
  0
BLOCK
  5
73
330
72
100
AcDbEntity
  8
0
100
AcDbBlockBegin
  2
*D3
 70
    1
 10
0
 20
0
  3
*D3
  1

  0
LINE
  5
C9
100
AcDbEntity
  8
holes
  6
ByBlock
 62
    0
370
   -2
100
AcDbLine
 10
-1.148106374200643e-16
 20
-5.625
 11
-2.066591473561158e-15
 21
-16.25
  0
LINE
  5
CA
100
AcDbEntity
  8
holes
  6
ByBlock
 62
    0
370
   -2
100
AcDbLine
 10
12
 20
-5.625
 11
12
 21
-16.25
  0
LINE
  5
CB
100
AcDbEntity
  8
holes
  6
ByBlock
 62
    0
370
   -2
100
AcDbLine
 10
-1.83697019872103e-15
 20
-15
 11
12
 21
-15
  0
SOLID
  5
CC
100
AcDbEntity
  8
holes
  6
ByBlock
 62
    0
370
   -2
100
AcDbTrace
 10
-1.83697019872103e-15
 20
-15
 30
0
 11
2.499999999999998
 21
-14.58371534222716
 31
0
 12
2.499999999999998
 22
-15.41628465777284
 32
0
 13
2.499999999999998
 23
-15.41628465777284
 33
0
  0
SOLID
  5
CD
100
AcDbEntity
  8
holes
  6
ByBlock
 62
    0
370
   -2
100
AcDbTrace
 10
12
 20
-15
 30
0
 11
9.499999999999998
 21
-15.41628465777284
 31
0
 12
9.499999999999998
 22
-14.58371534222716
 32
0
 13
9.499999999999998
 23
-14.58371534222716
 33
0
  0
MTEXT
  5
CE
100
AcDbEntity
  8
holes
  6
CONTINUOUS
 62
    0
370
   -2
100
AcDbMText
 10
5.999999999999998
 20
-11.875
 30
0
 40
5
 41
5
 71
    5
 72
    1
  1
12
  7
standard
210
0
220
0
230
1
 50
0
 73
    2
 44
1
  0
ENDBLK
  5
74
330
72
100
AcDbEntity
  8
0
100
AcDbBlockEnd
  0
BLOCK
  5
76
330
75
100
AcDbEntity
  8
0
100
AcDbBlockBegin
  2
*D5
 70
    1
 10
0
 20
0
  3
*D5
  1

  0
LINE
  5
CF
100
AcDbEntity
  8
holes
  6
ByBlock
 62
    0
370
   -2
100
AcDbLine
 10
52
 20
-5.625
 11
52
 21
-16.25
  0
LINE
  5
D0
100
AcDbEntity
  8
holes
  6
ByBlock
 62
    0
370
   -2
100
AcDbLine
 10
62
 20
-5.625
 11
62
 21
-16.25
  0
LINE
  5
D1
100
AcDbEntity
  8
holes
  6
ByBlock
 62
    0
370
   -2
100
AcDbLine
 10
52
 20
-15
 11
62
 21
-15
  0
SOLID
  5
D2
100
AcDbEntity
  8
holes
  6
ByBlock
 62
    0
370
   -2
100
AcDbTrace
 10
52
 20
-15
 30
0
 11
54.5
 21
-14.58371534222716
 31
0
 12
54.5
 22
-15.41628465777284
 32
0
 13
54.5
 23
-15.41628465777284
 33
0
  0
SOLID
  5
D3
100
AcDbEntity
  8
holes
  6
ByBlock
 62
    0
370
   -2
100
AcDbTrace
 10
62
 20
-15
 30
0
 11
59.5
 21
-15.41628465777284
 31
0
 12
59.5
 22
-14.58371534222716
 32
0
 13
59.5
 23
-14.58371534222716
 33
0
  0
MTEXT
  5
D4
100
AcDbEntity
  8
holes
  6
CONTINUOUS
 62
    0
370
   -2
100
AcDbMText
 10
57
 20
-11.875
 30
0
 40
5
 41
5
 71
    5
 72
    1
  1
10
  7
standard
210
0
220
0
230
1
 50
0
 73
    2
 44
1
  0
ENDBLK
  5
77
330
75
100
AcDbEntity
  8
0
100
AcDbBlockEnd
  0
BLOCK
  5
79
330
78
100
AcDbEntity
  8
0
100
AcDbBlockBegin
  2
*D17
 70
    1
 10
0
 20
0
  3
*D17
  1

  0
LINE
  5
D5
100
AcDbEntity
  8
holes
  6
ByBlock
 62
    0
370
   -2
100
AcDbLine
 10
126
 20
176.625
 11
126
 21
181.25
  0
LINE
  5
D6
100
AcDbEntity
  8
holes
  6
ByBlock
 62
    0
370
   -2
100
AcDbLine
 10
190
 20
176.625
 11
190
 21
181.25
  0
LINE
  5
D7
100
AcDbEntity
  8
holes
  6
ByBlock
 62
    0
370
   -2
100
AcDbLine
 10
126
 20
180
 11
190
 21
180
  0
SOLID
  5
D8
100
AcDbEntity
  8
holes
  6
ByBlock
 62
    0
370
   -2
100
AcDbTrace
 10
126
 20
180
 30
0
 11
128.5
 21
180.4162846577728
 31
0
 12
128.5
 22
179.5837153422272
 32
0
 13
128.5
 23
179.5837153422272
 33
0
  0
SOLID
  5
D9
100
AcDbEntity
  8
holes
  6
ByBlock
 62
    0
370
   -2
100
AcDbTrace
 10
190
 20
180
 30
0
 11
187.5
 21
179.5837153422272
 31
0
 12
187.5
 22
180.4162846577728
 32
0
 13
187.5
 23
180.4162846577728
 33
0
  0
MTEXT
  5
DA
100
AcDbEntity
  8
holes
  6
CONTINUOUS
 62
    0
370
   -2
100
AcDbMText
 10
158
 20
183.125
 30
0
 40
5
 41
6.666666666666977
 71
    5
 72
    1
  1
64
  7
standard
210
0
220
0
230
1
 50
0
 73
    2
 44
1
  0
ENDBLK
  5
7A
330
78
100
AcDbEntity
  8
0
100
AcDbBlockEnd
  0
BLOCK
  5
7C
330
7B
100
AcDbEntity
  8
0
100
AcDbBlockBegin
  2
*D16
 70
    1
 10
0
 20
0
  3
*D16
  1

  0
LINE
  5
DB
100
AcDbEntity
  8
holes
  6
ByBlock
 62
    0
370
   -2
100
AcDbLine
 10
111
 20
176.625
 11
111
 21
181.25
  0
LINE
  5
DC
100
AcDbEntity
  8
holes
  6
ByBlock
 62
    0
370
   -2
100
AcDbLine
 10
126
 20
176.625
 11
126
 21
181.25
  0
LINE
  5
DD
100
AcDbEntity
  8
holes
  6
ByBlock
 62
    0
370
   -2
100
AcDbLine
 10
111
 20
180
 11
126
 21
180
  0
SOLID
  5
DE
100
AcDbEntity
  8
holes
  6
ByBlock
 62
    0
370
   -2
100
AcDbTrace
 10
111
 20
180
 30
0
 11
113.5
 21
180.4162846577728
 31
0
 12
113.5
 22
179.5837153422272
 32
0
 13
113.5
 23
179.5837153422272
 33
0
  0
SOLID
  5
DF
100
AcDbEntity
  8
holes
  6
ByBlock
 62
    0
370
   -2
100
AcDbTrace
 10
126
 20
180
 30
0
 11
123.5
 21
179.5837153422272
 31
0
 12
123.5
 22
180.4162846577728
 32
0
 13
123.5
 23
180.4162846577728
 33
0
  0
MTEXT
  5
E0
100
AcDbEntity
  8
holes
  6
CONTINUOUS
 62
    0
370
   -2
100
AcDbMText
 10
118.5
 20
183.125
 30
0
 40
5
 41
5.000000000000311
 71
    5
 72
    1
  1
15
  7
standard
210
0
220
0
230
1
 50
0
 73
    2
 44
1
  0
ENDBLK
  5
7D
330
7B
100
AcDbEntity
  8
0
100
AcDbBlockEnd
  0
BLOCK
  5
7F
330
7E
100
AcDbEntity
  8
0
100
AcDbBlockBegin
  2
*D8
 70
    1
 10
0
 20
0
  3
*D8
  1

  0
LINE
  5
E1
100
AcDbEntity
  8
holes
  6
ByBlock
 62
    0
370
   -2
100
AcDbLine
 10
142
 20
-8.625
 11
142
 21
-16.25
  0
LINE
  5
E2
100
AcDbEntity
  8
holes
  6
ByBlock
 62
    0
370
   -2
100
AcDbLine
 10
212
 20
-8.625
 11
212
 21
-16.25
  0
LINE
  5
E3
100
AcDbEntity
  8
holes
  6
ByBlock
 62
    0
370
   -2
100
AcDbLine
 10
142
 20
-15
 11
212
 21
-15
  0
SOLID
  5
E4
100
AcDbEntity
  8
holes
  6
ByBlock
 62
    0
370
   -2
100
AcDbTrace
 10
142
 20
-15
 30
0
 11
144.5
 21
-14.58371534222716
 31
0
 12
144.5
 22
-15.41628465777284
 32
0
 13
144.5
 23
-15.41628465777284
 33
0
  0
SOLID
  5
E5
100
AcDbEntity
  8
holes
  6
ByBlock
 62
    0
370
   -2
100
AcDbTrace
 10
212
 20
-15
 30
0
 11
209.5
 21
-15.41628465777284
 31
0
 12
209.5
 22
-14.58371534222716
 32
0
 13
209.5
 23
-14.58371534222716
 33
0
  0
MTEXT
  5
E6
100
AcDbEntity
  8
holes
  6
CONTINUOUS
 62
    0
370
   -2
100
AcDbMText
 10
177
 20
-11.875
 30
0
 40
5
 41
6.111111111111112
 71
    5
 72
    1
  1
70
  7
standard
210
0
220
0
230
1
 50
0
 73
    2
 44
1
  0
ENDBLK
  5
80
330
7E
100
AcDbEntity
  8
0
100
AcDbBlockEnd
  0
BLOCK
  5
82
330
81
100
AcDbEntity
  8
0
100
AcDbBlockBegin
  2
*D2
 70
    1
 10
0
 20
0
  3
*D2
  1

  0
LINE
  5
E7
100
AcDbEntity
  8
holes
  6
ByBlock
 62
    0
370
   -2
100
AcDbLine
 10
231.625
 20
32
 11
241.25
 21
32
  0
LINE
  5
E8
100
AcDbEntity
  8
holes
  6
ByBlock
 62
    0
370
   -2
100
AcDbLine
 10
231.625
 20
82
 11
241.25
 21
82
  0
LINE
  5
E9
100
AcDbEntity
  8
holes
  6
ByBlock
 62
    0
370
   -2
100
AcDbLine
 10
240
 20
32
 11
240
 21
82
  0
SOLID
  5
EA
100
AcDbEntity
  8
holes
  6
ByBlock
 62
    0
370
   -2
100
AcDbTrace
 10
240
 20
32
 30
0
 11
239.5837153422272
 21
34.5
 31
0
 12
240.4162846577728
 22
34.5
 32
0
 13
240.4162846577728
 23
34.5
 33
0
  0
SOLID
  5
EB
100
AcDbEntity
  8
holes
  6
ByBlock
 62
    0
370
   -2
100
AcDbTrace
 10
240
 20
82
 30
0
 11
240.4162846577728
 21
79.5
 31
0
 12
239.5837153422272
 22
79.5
 32
0
 13
239.5837153422272
 23
79.5
 33
0
  0
MTEXT
  5
EC
100
AcDbEntity
  8
holes
  6
CONTINUOUS
 62
    0
370
   -2
100
AcDbMText
 10
236.875
 20
57
 30
0
 40
5
 41
6.111111111111422
 71
    5
 72
    1
  1
50
  7
standard
210
0
220
0
230
1
 50
90
 73
    2
 44
1
  0
ENDBLK
  5
83
330
81
100
AcDbEntity
  8
0
100
AcDbBlockEnd
  0
BLOCK
  5
85
330
84
100
AcDbEntity
  8
0
100
AcDbBlockBegin
  2
*D13
 70
    1
 10
0
 20
0
  3
*D13
  1

  0
LINE
  5
ED
100
AcDbEntity
  8
0
  6
ByBlock
 62
    0
370
   -2
100
AcDbLine
 10
190.625
 20
170
 11
251.25
 21
170
  0
LINE
  5
EE
100
AcDbEntity
  8
0
  6
ByBlock
 62
    0
370
   -2
100
AcDbLine
 10
190.625
 20
2.775557561562891e-16
 11
251.25
 21
2.720046410331634e-14
  0
LINE
  5
EF
100
AcDbEntity
  8
0
  6
ByBlock
 62
    0
370
   -2
100
AcDbLine
 10
250
 20
170
 11
250
 21
2.664535259100376e-14
  0
SOLID
  5
F0
100
AcDbEntity
  8
0
  6
ByBlock
 62
    0
370
   -2
100
AcDbTrace
 10
250
 20
170
 30
0
 11
250.4162846577728
 21
167.5
 31
0
 12
249.5837153422272
 22
167.5
 32
0
 13
249.5837153422272
 23
167.5
 33
0
  0
SOLID
  5
F1
100
AcDbEntity
  8
0
  6
ByBlock
 62
    0
370
   -2
100
AcDbTrace
 10
250
 20
2.664535259100376e-14
 30
0
 11
249.5837153422272
 21
2.500000000000027
 31
0
 12
250.4162846577728
 22
2.500000000000027
 32
0
 13
250.4162846577728
 23
2.500000000000027
 33
0
  0
MTEXT
  5
F2
100
AcDbEntity
  8
0
  6
CONTINUOUS
 62
    0
370
   -2
100
AcDbMText
 10
246.875
 20
85.00000000000003
 30
0
 40
5
 41
8.888888888888889
 71
    5
 72
    1
  1
170
  7
standard
210
0
220
0
230
1
 50
90
 73
    2
 44
1
  0
ENDBLK
  5
86
330
84
100
AcDbEntity
  8
0
100
AcDbBlockEnd
  0
ENDSEC
  0
SECTION
  2
ENTITIES
  0
ARC
  5
F3
100
AcDbEntity
  8
0
  6
ByLayer
 62
  256
370
  100
100
AcDbCircle
 10
35
 20
160
 40
10
100
AcDbArc
 50
90
 51
180
  0
LINE
  5
F4
100
AcDbEntity
  8
0
  6
ByLayer
 62
  256
370
  100
100
AcDbLine
 10
25
 20
160
 11
25
 21
150
  0
ARC
  5
F5
100
AcDbEntity
  8
0
  6
ByLayer
 62
  256
370
  100
100
AcDbCircle
 10
20
 20
150
 40
5
100
AcDbArc
 50
270
 51
0
  0
LINE
  5
F6
100
AcDbEntity
  8
0
  6
ByLayer
 62
  256
370
  100
100
AcDbLine
 10
20
 20
145
 11
10
 21
145
  0
ARC
  5
F7
100
AcDbEntity
  8
0
  6
ByLayer
 62
  256
370
  100
100
AcDbCircle
 10
10
 20
135
 40
10
100
AcDbArc
 50
90
 51
180
  0
LINE
  5
F8
100
AcDbEntity
  8
0
  6
ByLayer
 62
  256
370
  100
100
AcDbLine
 10
0
 20
135
 11
0
 21
35
  0
ARC
  5
F9
100
AcDbEntity
  8
0
  6
ByLayer
 62
  256
370
  100
100
AcDbCircle
 10
10
 20
35
 40
10
100
AcDbArc
 50
180
 51
270
  0
LINE
  5
FA
100
AcDbEntity
  8
0
  6
ByLayer
 62
  256
370
  100
100
AcDbLine
 10
10
 20
25
 11
20
 21
25
  0
ARC
  5
FB
100
AcDbEntity
  8
0
  6
ByLayer
 62
  256
370
  100
100
AcDbCircle
 10
20
 20
20
 40
5
100
AcDbArc
 50
0
 51
90
  0
LINE
  5
FC
100
AcDbEntity
  8
0
  6
ByLayer
 62
  256
370
  100
100
AcDbLine
 10
25
 20
20
 11
25
 21
10
  0
ARC
  5
FD
100
AcDbEntity
  8
0
  6
ByLayer
 62
  256
370
  100
100
AcDbCircle
 10
35
 20
10
 40
10
100
AcDbArc
 50
180
 51
270
  0
ARC
  5
FE
100
AcDbEntity
  8
0
  6
ByLayer
 62
  256
370
   -1
100
AcDbCircle
 10
190
 20
10
 40
10
100
AcDbArc
 50
270
 51
0
  0
LINE
  5
FF
100
AcDbEntity
  8
0
  6
ByLayer
 62
  256
370
   -1
100
AcDbLine
 10
200
 20
10
 11
200
 21
20
  0
LINE
  5
100
100
AcDbEntity
  8
0
  6
ByLayer
 62
  256
370
   -1
100
AcDbLine
 10
205
 20
25
 11
215
 21
25
  0
ARC
  5
101
100
AcDbEntity
  8
0
  6
ByLayer
 62
  256
370
   -1
100
AcDbCircle
 10
205
 20
20
 40
5
100
AcDbArc
 50
90
 51
180
  0
ARC
  5
102
100
AcDbEntity
  8
0
  6
ByLayer
 62
  256
370
  100
100
AcDbCircle
 10
215
 20
35
 40
10
100
AcDbArc
 50
270
 51
0
  0
LINE
  5
103
100
AcDbEntity
  8
0
  6
ByLayer
 62
  256
370
  100
100
AcDbLine
 10
225
 20
35
 11
225
 21
135
  0
ARC
  5
104
100
AcDbEntity
  8
0
  6
ByLayer
 62
  256
370
  100
100
AcDbCircle
 10
215
 20
135
 40
10
100
AcDbArc
 50
0
 51
90
  0
LINE
  5
105
100
AcDbEntity
  8
0
  6
ByLayer
 62
  256
370
  100
100
AcDbLine
 10
215
 20
145
 11
205
 21
145
  0
ARC
  5
106
100
AcDbEntity
  8
0
  6
ByLayer
 62
  256
370
  100
100
AcDbCircle
 10
205
 20
150
 40
5
100
AcDbArc
 50
180
 51
270
  0
LINE
  5
107
100
AcDbEntity
  8
0
  6
ByLayer
 62
  256
370
  100
100
AcDbLine
 10
200
 20
150
 11
200
 21
159
  0
LINE
  5
108
100
AcDbEntity
  8
0
  6
ByLayer
 62
  256
370
  100
100
AcDbLine
 10
200
 20
159
 11
200
 21
160
  0
ARC
  5
109
100
AcDbEntity
  8
0
  6
ByLayer
 62
  256
370
  100
100
AcDbCircle
 10
190
 20
160
 40
10
100
AcDbArc
 50
0
 51
90
  0
LINE
  5
10A
100
AcDbEntity
  8
0
  6
ByLayer
 62
  256
370
  100
100
AcDbLine
 10
190
 20
170
 11
35
 21
170
  0
LINE
  5
10B
100
AcDbEntity
  8
0
  6
ByLayer
 62
  256
370
  100
100
AcDbLine
 10
35
 20
0
 11
190
 21
0
  0
LINE
  5
10C
100
AcDbEntity
  8
0
  6
ByLayer
 62
  256
370
  100
100
AcDbLine
 10
200
 20
10
 11
200
 21
21
  0
LINE
  5
10D
100
AcDbEntity
  8
0
  6
ByLayer
 62
  256
370
  100
100
AcDbLine
 10
205
 20
25
 11
215
 21
25
  0
ARC
  5
10E
100
AcDbEntity
  8
0
  6
ByLayer
 62
  256
370
  100
100
AcDbCircle
 10
190
 20
10
 40
10
100
AcDbArc
 50
270
 51
0
  0
ARC
  5
10F
100
AcDbEntity
  8
0
  6
ByLayer
 62
  256
370
  100
100
AcDbCircle
 10
205
 20
20
 40
5
100
AcDbArc
 50
90
 51
180
  0
CIRCLE
  5
110
100
AcDbEntity
  8
0
  6
ByLayer
 62
  256
370
  100
100
AcDbCircle
 10
83
 20
165
 40
2
  0
CIRCLE
  5
111
100
AcDbEntity
  8
0
  6
ByLayer
 62
  256
370
  100
100
AcDbCircle
 10
142
 20
165
 40
2.23606797749979
  0
CIRCLE
  5
112
100
AcDbEntity
  8
0
  6
ByLayer
 62
  256
370
  100
100
AcDbCircle
 10
218
 20
57
 40
2.23606797749979
  0
CIRCLE
  5
113
100
AcDbEntity
  8
0
  6
ByLayer
 62
  256
370
  100
100
AcDbCircle
 10
218
 20
112
 40
2
  0
CIRCLE
  5
114
100
AcDbEntity
  8
0
  6
ByLayer
 62
  256
370
  100
100
AcDbCircle
 10
7
 20
112
 40
2
  0
CIRCLE
  5
115
100
AcDbEntity
  8
0
  6
ByLayer
 62
  256
370
  100
100
AcDbCircle
 10
7
 20
57
 40
2
  0
CIRCLE
  5
116
100
AcDbEntity
  8
0
  6
ByLayer
 62
  256
370
  100
100
AcDbCircle
 10
142
 20
5
 40
2
  0
CIRCLE
  5
117
100
AcDbEntity
  8
0
  6
ByLayer
 62
  256
370
  100
100
AcDbCircle
 10
82
 20
5
 40
2
  0
CIRCLE
  5
118
100
AcDbEntity
  8
holes
  6
ByLayer
 62
  256
370
   70
100
AcDbCircle
 10
12.00154473296178
 20
31.99977090212526
 40
1.493825477969567
  0
CIRCLE
  5
119
100
AcDbEntity
  8
holes
  6
ByLayer
 62
  256
370
   70
100
AcDbCircle
 10
52
 20
32
 40
1.5
  0
CIRCLE
  5
11A
100
AcDbEntity
  8
holes
  6
ByLayer
 62
  256
370
   70
100
AcDbCircle
 10
62
 20
32
 40
1.5
  0
CIRCLE
  5
11B
100
AcDbEntity
  8
holes
  6
ByLayer
 62
  256
370
   70
100
AcDbCircle
 10
132
 20
32
 40
1.5
  0
CIRCLE
  5
11C
100
AcDbEntity
  8
holes
  6
ByLayer
 62
  256
370
   70
100
AcDbCircle
 10
142
 20
32
 40
1.5
  0
CIRCLE
  5
11D
100
AcDbEntity
  8
holes
  6
ByLayer
 62
  256
370
   70
100
AcDbCircle
 10
212
 20
32
 40
1.5
  0
CIRCLE
  5
11E
100
AcDbEntity
  8
holes
  6
ByLayer
 62
  256
370
   70
100
AcDbCircle
 10
212
 20
82
 40
1.5
  0
CIRCLE
  5
11F
100
AcDbEntity
  8
holes
  6
ByLayer
 62
  256
370
   70
100
AcDbCircle
 10
142
 20
82
 40
1.5
  0
CIRCLE
  5
120
100
AcDbEntity
  8
holes
  6
ByLayer
 62
  256
370
   70
100
AcDbCircle
 10
132
 20
82
 40
1.5
  0
CIRCLE
  5
121
100
AcDbEntity
  8
holes
  6
ByLayer
 62
  256
370
   70
100
AcDbCircle
 10
62
 20
82
 40
1.5
  0
CIRCLE
  5
122
100
AcDbEntity
  8
holes
  6
ByLayer
 62
  256
370
   70
100
AcDbCircle
 10
52
 20
82
 40
1.5
  0
CIRCLE
  5
123
100
AcDbEntity
  8
holes
  6
ByLayer
 62
  256
370
   70
100
AcDbCircle
 10
12
 20
82
 40
1.5
  0
LINE
  5
124
100
AcDbEntity
  8
holes
  6
DASHDOTTINY
 62
  256
370
   -1
100
AcDbLine
 10
6
 20
82
 11
232
 21
82
  0
DIMENSION
  5
125
100
AcDbEntity
  8
holes
  6
ByLayer
 62
  256
370
   -1
100
AcDbDimension
  2
*D1
 10
240
 20
32
 30
0
 11
236.875
 21
16
 31
0
 70
   33
 71
    5
  3
Standard
 53
0
210
0
220
0
230
1
100
AcDbAlignedDimension
 13
230
 23
0
 33
0
 14
230
 24
32
 34
0
  0
LINE
  5
126
100
AcDbEntity
  8
holes
  6
DASHDOTTINY
 62
  256
370
   -1
100
AcDbLine
 10
6
 20
32
 11
232
 21
32
  0
LINE
  5
127
100
AcDbEntity
  8
holes
  6
ByLayer
 62
  256
370
   -1
100
AcDbLine
 10
190
 20
0
 11
231
 21
0
  0
DIMENSION
  5
128
100
AcDbEntity
  8
holes
  6
ByLayer
 62
  256
370
   -1
100
AcDbDimension
  2
*D2
 10
240
 20
82
 30
0
 11
236.875
 21
57
 31
0
 70
   33
 71
    5
  3
Standard
 53
0
210
0
220
0
230
1
100
AcDbAlignedDimension
 13
231
 23
32
 33
0
 14
231
 24
82
 34
0
  0
LINE
  5
129
100
AcDbEntity
  8
holes
  6
DASHDOTTINY
 62
  256
370
   -1
100
AcDbLine
 10
12
 20
92
 11
12
 21
-10
  0
LINE
  5
12A
100
AcDbEntity
  8
holes
  6
DASHDOTTINY
 62
  256
370
   -1
100
AcDbLine
 10
52
 20
92
 11
52
 21
-10
  0
LINE
  5
12B
100
AcDbEntity
  8
holes
  6
DASHDOTTINY
 62
  256
370
   -1
100
AcDbLine
 10
62
 20
92
 11
62
 21
-10
  0
LINE
  5
12C
100
AcDbEntity
  8
holes
  6
DASHDOTTINY
 62
  256
370
   -1
100
AcDbLine
 10
132
 20
92
 11
132
 21
-10
  0
LINE
  5
12D
100
AcDbEntity
  8
holes
  6
DASHDOTTINY
 62
  256
370
   -1
100
AcDbLine
 10
142
 20
92
 11
142
 21
-10
  0
LINE
  5
12E
100
AcDbEntity
  8
holes
  6
DASHDOTTINY
 62
  256
370
   -1
100
AcDbLine
 10
212
 20
92
 11
212
 21
-10
  0
LINE
  5
12F
100
AcDbEntity
  8
holes
  6
ByLayer
 62
  256
370
   -1
100
AcDbLine
 10
0
 20
40
 11
0
 21
-10
  0
DIMENSION
  5
130
100
AcDbEntity
  8
holes
  6
ByLayer
 62
  256
370
   -1
100
AcDbDimension
  2
*D3
 10
12
 20
-15
 30
0
 11
5.999999999999998
 21
-11.875
 31
0
 70
   33
 71
    5
  3
Standard
 53
0
210
0
220
0
230
1
100
AcDbAlignedDimension
 13
0
 23
-5
 33
0
 14
12
 24
-5
 34
0
  0
DIMENSION
  5
131
100
AcDbEntity
  8
holes
  6
ByLayer
 62
  256
370
   -1
100
AcDbDimension
  2
*D4
 10
12
 20
-15
 30
0
 11
32
 21
-11.875
 31
0
 70
   33
 71
    5
  3
Standard
 53
0
210
0
220
0
230
1
100
AcDbAlignedDimension
 13
52
 23
-4
 33
0
 14
12
 24
-4
 34
0
  0
DIMENSION
  5
132
100
AcDbEntity
  8
holes
  6
ByLayer
 62
  256
370
   -1
100
AcDbDimension
  2
*D5
 10
62
 20
-15
 30
0
 11
57
 21
-11.875
 31
0
 70
   33
 71
    5
  3
Standard
 53
0
210
0
220
0
230
1
100
AcDbAlignedDimension
 13
52
 23
-5
 33
0
 14
62
 24
-5
 34
0
  0
DIMENSION
  5
133
100
AcDbEntity
  8
holes
  6
ByLayer
 62
  256
370
   -1
100
AcDbDimension
  2
*D6
 10
132
 20
-15
 30
0
 11
97
 21
-11.875
 31
0
 70
   33
 71
    5
  3
Standard
 53
0
210
0
220
0
230
1
100
AcDbAlignedDimension
 13
62
 23
-6
 33
0
 14
132
 24
-6
 34
0
  0
DIMENSION
  5
134
100
AcDbEntity
  8
holes
  6
ByLayer
 62
  256
370
   -1
100
AcDbDimension
  2
*D7
 10
142
 20
-15
 30
0
 11
137
 21
-11.875
 31
0
 70
   33
 71
    5
  3
Standard
 53
0
210
0
220
0
230
1
100
AcDbAlignedDimension
 13
132
 23
-6
 33
0
 14
142
 24
-6
 34
0
  0
DIMENSION
  5
135
100
AcDbEntity
  8
holes
  6
ByLayer
 62
  256
370
   -1
100
AcDbDimension
  2
*D8
 10
212
 20
-15
 30
0
 11
177
 21
-11.875
 31
0
 70
   33
 71
    5
  3
Standard
 53
0
210
0
220
0
230
1
100
AcDbAlignedDimension
 13
142
 23
-8
 33
0
 14
212
 24
-8
 34
0
  0
DIMENSION
  5
136
100
AcDbEntity
  8
0
  6
ByLayer
 62
  256
370
   -1
100
AcDbDimension
  2
*D9
 10
225
 20
-25
 30
0
 11
112.5
 21
-21.875
 31
0
 70
   33
 71
    5
  3
Standard
 53
0
210
0
220
0
230
1
100
AcDbAlignedDimension
 13
0
 23
40
 33
0
 14
225
 24
40
 34
0
  0
CIRCLE
  5
137
100
AcDbEntity
  8
holes
  6
ByLayer
 62
  256
370
   70
100
AcDbCircle
 10
218
 20
127
 40
1.5
  0
CIRCLE
  5
138
100
AcDbEntity
  8
holes
  6
ByLayer
 62
  256
370
   70
100
AcDbCircle
 10
53
 20
108
 40
1.5
  0
CIRCLE
  5
139
100
AcDbEntity
  8
holes
  6
ByLayer
 62
  256
370
   70
100
AcDbCircle
 10
111
 20
108
 40
1.5
  0
CIRCLE
  5
13A
100
AcDbEntity
  8
holes
  6
ByLayer
 62
  256
370
   70
100
AcDbCircle
 10
126
 20
108
 40
1.5
  0
CIRCLE
  5
13B
100
AcDbEntity
  8
holes
  6
ByLayer
 62
  256
370
   70
100
AcDbCircle
 10
190
 20
108
 40
1.5
  0
CIRCLE
  5
13C
100
AcDbEntity
  8
holes
  6
ByLayer
 62
  256
370
   70
100
AcDbCircle
 10
53
 20
157
 40
1.5
  0
CIRCLE
  5
13D
100
AcDbEntity
  8
holes
  6
ByLayer
 62
  256
370
   70
100
AcDbCircle
 10
111
 20
157
 40
1.5
  0
CIRCLE
  5
13E
100
AcDbEntity
  8
holes
  6
ByLayer
 62
  256
370
   70
100
AcDbCircle
 10
126
 20
157
 40
1.5
  0
CIRCLE
  5
13F
100
AcDbEntity
  8
holes
  6
ByLayer
 62
  256
370
   70
100
AcDbCircle
 10
190
 20
157
 40
1.5
  0
LINE
  5
140
100
AcDbEntity
  8
holes
  6
DASHDOTTINY
 62
  256
370
   -1
100
AcDbLine
 10
53
 20
98
 11
53
 21
177
  0
LINE
  5
141
100
AcDbEntity
  8
holes
  6
DASHDOTTINY
 62
  256
370
   -1
100
AcDbLine
 10
111
 20
98
 11
111
 21
177
  0
LINE
  5
142
100
AcDbEntity
  8
holes
  6
DASHDOTTINY
 62
  256
370
   -1
100
AcDbLine
 10
126
 20
98
 11
126
 21
177
  0
LINE
  5
143
100
AcDbEntity
  8
holes
  6
DASHDOTTINY
 62
  256
370
   -1
100
AcDbLine
 10
190
 20
98
 11
190
 21
177
  0
LINE
  5
144
100
AcDbEntity
  8
holes
  6
DASHDOTTINY
 62
  256
370
   -1
100
AcDbLine
 10
43
 20
108
 11
240
 21
108
  0
LINE
  5
145
100
AcDbEntity
  8
holes
  6
DASHDOTTINY
 62
  256
370
   -1
100
AcDbLine
 10
43
 20
157
 11
240
 21
157
  0
DIMENSION
  5
146
100
AcDbEntity
  8
holes
  6
ByLayer
 62
  256
370
   -1
100
AcDbDimension
  2
*D10
 10
240
 20
108
 30
0
 11
236.875
 21
95
 31
0
 70
   33
 71
    5
  3
Standard
 53
0
210
0
220
0
230
1
100
AcDbAlignedDimension
 13
232
 23
82
 33
0
 14
232
 24
108
 34
0
  0
LINE
  5
147
100
AcDbEntity
  8
holes
  6
DASHDOTTINY
 62
  256
370
   -1
100
AcDbLine
 10
208
 20
127
 11
235
 21
127
  0
DIMENSION
  5
148
100
AcDbEntity
  8
holes
  6
ByLayer
 62
  256
370
   -1
100
AcDbDimension
  2
*D11
 10
240
 20
127
 30
0
 11
236.875
 21
117.5
 31
0
 70
   33
 71
    5
  3
Standard
 53
0
210
0
220
0
230
1
100
AcDbAlignedDimension
 13
233
 23
108
 33
0
 14
233
 24
127
 34
0
  0
DIMENSION
  5
149
100
AcDbEntity
  8
holes
  6
ByLayer
 62
  256
370
   -1
100
AcDbDimension
  2
*D12
 10
240
 20
157
 30
0
 11
236.875
 21
142
 31
0
 70
   33
 71
    5
  3
Standard
 53
0
210
0
220
0
230
1
100
AcDbAlignedDimension
 13
233
 23
127
 33
0
 14
233
 24
157
 34
0
  0
DIMENSION
  5
14A
100
AcDbEntity
  8
0
  6
ByLayer
 62
  256
370
   -1
100
AcDbDimension
  2
*D13
 10
250
 20
1.372594784063577e-14
 30
0
 11
246.875
 21
85.00000000000003
 31
0
 70
   33
 71
    5
  3
Standard
 53
0
210
0
220
0
230
1
100
AcDbAlignedDimension
 13
190
 23
170
 33
0
 14
190
 24
0
 34
0
  0
LINE
  5
14B
100
AcDbEntity
  8
holes
  6
ByLayer
 62
  256
370
   -1
100
AcDbLine
 10
0
 20
130
 11
0
 21
177
  0
DIMENSION
  5
14C
100
AcDbEntity
  8
holes
  6
ByLayer
 62
  256
370
   -1
100
AcDbDimension
  2
*D14
 10
9.18485099360515e-16
 20
180
 30
0
 11
26.5
 21
183.125
 31
0
 70
   33
 71
    5
  3
Standard
 53
0
210
0
220
0
230
1
100
AcDbAlignedDimension
 13
53
 23
175
 33
0
 14
0
 24
175
 34
0
  0
DIMENSION
  5
14D
100
AcDbEntity
  8
holes
  6
ByLayer
 62
  256
370
   -1
100
AcDbDimension
  2
*D15
 10
111
 20
180
 30
0
 11
82
 21
183.125
 31
0
 70
   33
 71
    5
  3
Standard
 53
0
210
0
220
0
230
1
100
AcDbAlignedDimension
 13
53
 23
176
 33
0
 14
111
 24
176
 34
0
  0
DIMENSION
  5
14E
100
AcDbEntity
  8
holes
  6
ByLayer
 62
  256
370
   -1
100
AcDbDimension
  2
*D16
 10
126
 20
180
 30
0
 11
118.5
 21
183.125
 31
0
 70
   33
 71
    5
  3
Standard
 53
0
210
0
220
0
230
1
100
AcDbAlignedDimension
 13
111
 23
176
 33
0
 14
126
 24
176
 34
0
  0
DIMENSION
  5
14F
100
AcDbEntity
  8
holes
  6
ByLayer
 62
  256
370
   -1
100
AcDbDimension
  2
*D17
 10
190
 20
180
 30
0
 11
158
 21
183.125
 31
0
 70
   33
 71
    5
  3
Standard
 53
0
210
0
220
0
230
1
100
AcDbAlignedDimension
 13
126
 23
176
 33
0
 14
190
 24
176
 34
0
  0
LINE
  5
150
100
AcDbEntity
  8
holes
  6
DASHDOTTINY
 62
  256
370
   -1
100
AcDbLine
 10
218
 20
119
 11
218
 21
176
  0
DIMENSION
  5
151
100
AcDbEntity
  8
holes
  6
ByLayer
 62
  256
370
   -1
100
AcDbDimension
  2
*D18
 10
190
 20
180
 30
0
 11
204
 21
183.125
 31
0
 70
   33
 71
    5
  3
Standard
 53
0
210
0
220
0
230
1
100
AcDbAlignedDimension
 13
218
 23
176
 33
0
 14
190
 24
176
 34
0
  0
MTEXT
  5
152
100
AcDbEntity
  8
holes
  6
ByLayer
 62
  256
370
   -1
100
AcDbMText
 10
60
 20
200
 30
0
 40
5
 41
126.805558126994
 71
    1
 72
    1
  1
Diameter of all new holes are 3 mm.
  7
standard
210
0
220
0
230
1
 50
0
 73
    2
 44
1
  0
LINE
  5
153
100
AcDbEntity
  8
holes
  6
ByLayer
 62
  256
370
   -1
100
AcDbLine
 10
70
 20
-40
 11
40
 21
10
  0
MTEXT
  5
154
100
AcDbEntity
  8
holes
  6
ByLayer
 62
  256
370
   -1
100
AcDbMText
 10
71.6666666666662
 20
-37
 30
0
 40
5
 41
103.3333333333354
 71
    1
 72
    1
  1
original mounting plate of box
  7
standard
210
0
220
0
230
1
 50
0
 73
    2
 44
1
  0
LINE
  5
155
100
AcDbEntity
  8
frame
  6
ByLayer
 62
  256
370
   -1
100
AcDbLine
 10
239.999
 20
-23.00899999999999
 11
239.999
 21
-55.01299999999998
  0
LINE
  5
156
100
AcDbEntity
  8
frame
  6
ByLayer
 62
  256
370
   -1
100
AcDbLine
 10
239.999
 20
-55.01299999999998
 11
348
 21
-55.01299999999998
  0
LINE
  5
157
100
AcDbEntity
  8
frame
  6
ByLayer
 62
  256
370
   -1
100
AcDbLine
 10
348
 20
-55.01299999999998
 11
348
 21
-23.00899999999999
  0
LINE
  5
158
100
AcDbEntity
  8
frame
  6
ByLayer
 62
  256
370
   -1
100
AcDbLine
 10
348
 20
-23.00899999999999
 11
239.999
 21
-23.00899999999999
  0
LINE
  5
159
100
AcDbEntity
  8
frame
  6
ByLayer
 62
  256
370
   -1
100
AcDbLine
 10
-49.9924
 20
219.9924
 11
-49.9924
 21
-56.995
  0
LINE
  5
15A
100
AcDbEntity
  8
frame
  6
ByLayer
 62
  256
370
   -1
100
AcDbLine
 10
-49.9924
 20
-56.995
 11
349.981
 21
-56.995
  0
LINE
  5
15B
100
AcDbEntity
  8
frame
  6
ByLayer
 62
  256
370
   -1
100
AcDbLine
 10
349.981
 20
-56.995
 11
349.981
 21
219.9924
  0
LINE
  5
15C
100
AcDbEntity
  8
frame
  6
ByLayer
 62
  256
370
   -1
100
AcDbLine
 10
349.981
 20
219.9924
 11
-49.9924
 21
219.9924
  0
LINE
  5
15D
100
AcDbEntity
  8
frame
  6
ByLayer
 62
  256
370
   -1
100
AcDbLine
 10
-48.0112
 20
218.0112
 11
-48.0112
 21
-55.01299999999998
  0
LINE
  5
15E
100
AcDbEntity
  8
frame
  6
ByLayer
 62
  256
370
   -1
100
AcDbLine
 10
-48.0112
 20
-55.01299999999998
 11
348
 21
-55.01299999999998
  0
LINE
  5
15F
100
AcDbEntity
  8
frame
  6
ByLayer
 62
  256
370
   -1
100
AcDbLine
 10
348
 20
-55.01299999999998
 11
348
 21
218.0112
  0
LINE
  5
160
100
AcDbEntity
  8
frame
  6
ByLayer
 62
  256
370
   -1
100
AcDbLine
 10
348
 20
218.0112
 11
-48.0112
 21
218.0112
  0
LINE
  5
161
100
AcDbEntity
  8
frame
  6
ByLayer
 62
  256
370
   -1
100
AcDbLine
 10
-0.005200000000002092
 20
218.0112
 11
-0.005200000000002092
 21
219.9924
  0
LINE
  5
162
100
AcDbEntity
  8
frame
  6
ByLayer
 62
  256
370
   -1
100
AcDbLine
 10
50.00700000000001
 20
218.0112
 11
50.00700000000001
 21
219.9924
  0
LINE
  5
163
100
AcDbEntity
  8
frame
  6
ByLayer
 62
  256
370
   -1
100
AcDbLine
 10
99.995
 20
218.0112
 11
99.995
 21
219.9924
  0
LINE
  5
164
100
AcDbEntity
  8
frame
  6
ByLayer
 62
  256
370
   -1
100
AcDbLine
 10
150.007
 20
218.0112
 11
150.007
 21
219.9924
  0
LINE
  5
165
100
AcDbEntity
  8
frame
  6
ByLayer
 62
  256
370
   -1
100
AcDbLine
 10
199.994
 20
218.0112
 11
199.994
 21
219.9924
  0
LINE
  5
166
100
AcDbEntity
  8
frame
  6
ByLayer
 62
  256
370
   -1
100
AcDbLine
 10
250.007
 20
218.0112
 11
250.007
 21
219.9924
  0
LINE
  5
167
100
AcDbEntity
  8
frame
  6
ByLayer
 62
  256
370
   -1
100
AcDbLine
 10
299.994
 20
218.0112
 11
299.994
 21
219.9924
  0
LINE
  5
168
100
AcDbEntity
  8
frame
  6
ByLayer
 62
  256
370
   -1
100
AcDbLine
 10
-24.0082
 20
218.4176
 11
-24.7448
 21
218.4176
  0
LINE
  5
169
100
AcDbEntity
  8
frame
  6
ByLayer
 62
  256
370
   -1
100
AcDbLine
 10
-24.3892
 20
218.4176
 11
-24.3892
 21
219.713
  0
LINE
  5
16A
100
AcDbEntity
  8
frame
  6
ByLayer
 62
  256
370
   -1
100
AcDbLine
 10
-24.3892
 20
219.713
 11
-24.5162
 21
219.5352
  0
LINE
  5
16B
100
AcDbEntity
  8
frame
  6
ByLayer
 62
  256
370
   -1
100
AcDbLine
 10
-24.5162
 20
219.5352
 11
-24.6178
 21
219.4082
  0
LINE
  5
16C
100
AcDbEntity
  8
frame
  6
ByLayer
 62
  256
370
   -1
100
AcDbLine
 10
-24.6178
 20
219.4082
 11
-24.7448
 21
219.3574
  0
LINE
  5
16D
100
AcDbEntity
  8
frame
  6
ByLayer
 62
  256
370
   -1
100
AcDbLine
 10
25.2424
 20
219.6114
 11
25.2932
 21
219.6622
  0
LINE
  5
16E
100
AcDbEntity
  8
frame
  6
ByLayer
 62
  256
370
   -1
100
AcDbLine
 10
25.2932
 20
219.6622
 11
25.42019999999999
 21
219.713
  0
LINE
  5
16F
100
AcDbEntity
  8
frame
  6
ByLayer
 62
  256
370
   -1
100
AcDbLine
 10
25.42019999999999
 20
219.713
 11
25.72499999999999
 21
219.713
  0
LINE
  5
170
100
AcDbEntity
  8
frame
  6
ByLayer
 62
  256
370
   -1
100
AcDbLine
 10
25.72499999999999
 20
219.713
 11
25.852
 21
219.6622
  0
LINE
  5
171
100
AcDbEntity
  8
frame
  6
ByLayer
 62
  256
370
   -1
100
AcDbLine
 10
25.852
 20
219.6622
 11
25.9028
 21
219.6114
  0
LINE
  5
172
100
AcDbEntity
  8
frame
  6
ByLayer
 62
  256
370
   -1
100
AcDbLine
 10
25.9028
 20
219.6114
 11
25.979
 21
219.4844
  0
LINE
  5
173
100
AcDbEntity
  8
frame
  6
ByLayer
 62
  256
370
   -1
100
AcDbLine
 10
25.979
 20
219.4844
 11
25.979
 21
219.3574
  0
LINE
  5
174
100
AcDbEntity
  8
frame
  6
ByLayer
 62
  256
370
   -1
100
AcDbLine
 10
25.979
 20
219.3574
 11
25.9028
 21
219.1796
  0
LINE
  5
175
100
AcDbEntity
  8
frame
  6
ByLayer
 62
  256
370
   -1
100
AcDbLine
 10
25.9028
 20
219.1796
 11
25.1662
 21
218.4176
  0
LINE
  5
176
100
AcDbEntity
  8
frame
  6
ByLayer
 62
  256
370
   -1
100
AcDbLine
 10
25.1662
 20
218.4176
 11
25.979
 21
218.4176
  0
LINE
  5
177
100
AcDbEntity
  8
frame
  6
ByLayer
 62
  256
370
   -1
100
AcDbLine
 10
75.179
 20
219.713
 11
75.99199999999999
 21
219.713
  0
LINE
  5
178
100
AcDbEntity
  8
frame
  6
ByLayer
 62
  256
370
   -1
100
AcDbLine
 10
75.99199999999999
 20
219.713
 11
75.56
 21
219.2304
  0
LINE
  5
179
100
AcDbEntity
  8
frame
  6
ByLayer
 62
  256
370
   -1
100
AcDbLine
 10
75.56
 20
219.2304
 11
75.738
 21
219.2304
  0
LINE
  5
17A
100
AcDbEntity
  8
frame
  6
ByLayer
 62
  256
370
   -1
100
AcDbLine
 10
75.738
 20
219.2304
 11
75.86500000000001
 21
219.1796
  0
LINE
  5
17B
100
AcDbEntity
  8
frame
  6
ByLayer
 62
  256
370
   -1
100
AcDbLine
 10
75.86500000000001
 20
219.1796
 11
75.91499999999999
 21
219.1034
  0
LINE
  5
17C
100
AcDbEntity
  8
frame
  6
ByLayer
 62
  256
370
   -1
100
AcDbLine
 10
75.91499999999999
 20
219.1034
 11
75.99199999999999
 21
218.9764
  0
LINE
  5
17D
100
AcDbEntity
  8
frame
  6
ByLayer
 62
  256
370
   -1
100
AcDbLine
 10
75.99199999999999
 20
218.9764
 11
75.99199999999999
 21
218.6716
  0
LINE
  5
17E
100
AcDbEntity
  8
frame
  6
ByLayer
 62
  256
370
   -1
100
AcDbLine
 10
75.99199999999999
 20
218.6716
 11
75.91499999999999
 21
218.5446
  0
LINE
  5
17F
100
AcDbEntity
  8
frame
  6
ByLayer
 62
  256
370
   -1
100
AcDbLine
 10
75.91499999999999
 20
218.5446
 11
75.86500000000001
 21
218.4938
  0
LINE
  5
180
100
AcDbEntity
  8
frame
  6
ByLayer
 62
  256
370
   -1
100
AcDbLine
 10
75.86500000000001
 20
218.4938
 11
75.738
 21
218.4176
  0
LINE
  5
181
100
AcDbEntity
  8
frame
  6
ByLayer
 62
  256
370
   -1
100
AcDbLine
 10
75.738
 20
218.4176
 11
75.38200000000001
 21
218.4176
  0
LINE
  5
182
100
AcDbEntity
  8
frame
  6
ByLayer
 62
  256
370
   -1
100
AcDbLine
 10
75.38200000000001
 20
218.4176
 11
75.255
 21
218.4938
  0
LINE
  5
183
100
AcDbEntity
  8
frame
  6
ByLayer
 62
  256
370
   -1
100
AcDbLine
 10
75.255
 20
218.4938
 11
75.179
 21
218.5446
  0
LINE
  5
184
100
AcDbEntity
  8
frame
  6
ByLayer
 62
  256
370
   -1
100
AcDbLine
 10
125.852
 20
219.2812
 11
125.852
 21
218.4176
  0
LINE
  5
185
100
AcDbEntity
  8
frame
  6
ByLayer
 62
  256
370
   -1
100
AcDbLine
 10
125.547
 20
219.7892
 11
125.242
 21
218.8494
  0
LINE
  5
186
100
AcDbEntity
  8
frame
  6
ByLayer
 62
  256
370
   -1
100
AcDbLine
 10
125.242
 20
218.8494
 11
126.03
 21
218.8494
  0
LINE
  5
187
100
AcDbEntity
  8
frame
  6
ByLayer
 62
  256
370
   -1
100
AcDbLine
 10
175.915
 20
219.713
 11
175.306
 21
219.713
  0
LINE
  5
188
100
AcDbEntity
  8
frame
  6
ByLayer
 62
  256
370
   -1
100
AcDbLine
 10
175.306
 20
219.713
 11
175.255
 21
219.1034
  0
LINE
  5
189
100
AcDbEntity
  8
frame
  6
ByLayer
 62
  256
370
   -1
100
AcDbLine
 10
175.255
 20
219.1034
 11
175.306
 21
219.1796
  0
LINE
  5
18A
100
AcDbEntity
  8
frame
  6
ByLayer
 62
  256
370
   -1
100
AcDbLine
 10
175.306
 20
219.1796
 11
175.433
 21
219.2304
  0
LINE
  5
18B
100
AcDbEntity
  8
frame
  6
ByLayer
 62
  256
370
   -1
100
AcDbLine
 10
175.433
 20
219.2304
 11
175.737
 21
219.2304
  0
LINE
  5
18C
100
AcDbEntity
  8
frame
  6
ByLayer
 62
  256
370
   -1
100
AcDbLine
 10
175.737
 20
219.2304
 11
175.864
 21
219.1796
  0
LINE
  5
18D
100
AcDbEntity
  8
frame
  6
ByLayer
 62
  256
370
   -1
100
AcDbLine
 10
175.864
 20
219.1796
 11
175.915
 21
219.1034
  0
LINE
  5
18E
100
AcDbEntity
  8
frame
  6
ByLayer
 62
  256
370
   -1
100
AcDbLine
 10
175.915
 20
219.1034
 11
175.991
 21
218.9764
  0
LINE
  5
18F
100
AcDbEntity
  8
frame
  6
ByLayer
 62
  256
370
   -1
100
AcDbLine
 10
175.991
 20
218.9764
 11
175.991
 21
218.6716
  0
LINE
  5
190
100
AcDbEntity
  8
frame
  6
ByLayer
 62
  256
370
   -1
100
AcDbLine
 10
175.991
 20
218.6716
 11
175.915
 21
218.5446
  0
LINE
  5
191
100
AcDbEntity
  8
frame
  6
ByLayer
 62
  256
370
   -1
100
AcDbLine
 10
175.915
 20
218.5446
 11
175.864
 21
218.4938
  0
LINE
  5
192
100
AcDbEntity
  8
frame
  6
ByLayer
 62
  256
370
   -1
100
AcDbLine
 10
175.864
 20
218.4938
 11
175.737
 21
218.4176
  0
LINE
  5
193
100
AcDbEntity
  8
frame
  6
ByLayer
 62
  256
370
   -1
100
AcDbLine
 10
175.737
 20
218.4176
 11
175.433
 21
218.4176
  0
LINE
  5
194
100
AcDbEntity
  8
frame
  6
ByLayer
 62
  256
370
   -1
100
AcDbLine
 10
175.433
 20
218.4176
 11
175.306
 21
218.4938
  0
LINE
  5
195
100
AcDbEntity
  8
frame
  6
ByLayer
 62
  256
370
   -1
100
AcDbLine
 10
175.306
 20
218.4938
 11
175.255
 21
218.5446
  0
LINE
  5
196
100
AcDbEntity
  8
frame
  6
ByLayer
 62
  256
370
   -1
100
AcDbLine
 10
225.852
 20
219.713
 11
225.598
 21
219.713
  0
LINE
  5
197
100
AcDbEntity
  8
frame
  6
ByLayer
 62
  256
370
   -1
100
AcDbLine
 10
225.598
 20
219.713
 11
225.471
 21
219.6622
  0
LINE
  5
198
100
AcDbEntity
  8
frame
  6
ByLayer
 62
  256
370
   -1
100
AcDbLine
 10
225.471
 20
219.6622
 11
225.42
 21
219.6114
  0
LINE
  5
199
100
AcDbEntity
  8
frame
  6
ByLayer
 62
  256
370
   -1
100
AcDbLine
 10
225.42
 20
219.6114
 11
225.293
 21
219.4082
  0
LINE
  5
19A
100
AcDbEntity
  8
frame
  6
ByLayer
 62
  256
370
   -1
100
AcDbLine
 10
225.293
 20
219.4082
 11
225.242
 21
219.1796
  0
LINE
  5
19B
100
AcDbEntity
  8
frame
  6
ByLayer
 62
  256
370
   -1
100
AcDbLine
 10
225.242
 20
219.1796
 11
225.242
 21
218.6716
  0
LINE
  5
19C
100
AcDbEntity
  8
frame
  6
ByLayer
 62
  256
370
   -1
100
AcDbLine
 10
225.242
 20
218.6716
 11
225.293
 21
218.5446
  0
LINE
  5
19D
100
AcDbEntity
  8
frame
  6
ByLayer
 62
  256
370
   -1
100
AcDbLine
 10
225.293
 20
218.5446
 11
225.369
 21
218.4938
  0
LINE
  5
19E
100
AcDbEntity
  8
frame
  6
ByLayer
 62
  256
370
   -1
100
AcDbLine
 10
225.369
 20
218.4938
 11
225.471
 21
218.4176
  0
LINE
  5
19F
100
AcDbEntity
  8
frame
  6
ByLayer
 62
  256
370
   -1
100
AcDbLine
 10
225.471
 20
218.4176
 11
225.725
 21
218.4176
  0
LINE
  5
1A0
100
AcDbEntity
  8
frame
  6
ByLayer
 62
  256
370
   -1
100
AcDbLine
 10
225.725
 20
218.4176
 11
225.852
 21
218.4938
  0
LINE
  5
1A1
100
AcDbEntity
  8
frame
  6
ByLayer
 62
  256
370
   -1
100
AcDbLine
 10
225.852
 20
218.4938
 11
225.902
 21
218.5446
  0
LINE
  5
1A2
100
AcDbEntity
  8
frame
  6
ByLayer
 62
  256
370
   -1
100
AcDbLine
 10
225.902
 20
218.5446
 11
225.979
 21
218.6716
  0
LINE
  5
1A3
100
AcDbEntity
  8
frame
  6
ByLayer
 62
  256
370
   -1
100
AcDbLine
 10
225.979
 20
218.6716
 11
225.979
 21
218.9764
  0
LINE
  5
1A4
100
AcDbEntity
  8
frame
  6
ByLayer
 62
  256
370
   -1
100
AcDbLine
 10
225.979
 20
218.9764
 11
225.902
 21
219.1034
  0
LINE
  5
1A5
100
AcDbEntity
  8
frame
  6
ByLayer
 62
  256
370
   -1
100
AcDbLine
 10
225.902
 20
219.1034
 11
225.852
 21
219.1796
  0
LINE
  5
1A6
100
AcDbEntity
  8
frame
  6
ByLayer
 62
  256
370
   -1
100
AcDbLine
 10
225.852
 20
219.1796
 11
225.725
 21
219.2304
  0
LINE
  5
1A7
100
AcDbEntity
  8
frame
  6
ByLayer
 62
  256
370
   -1
100
AcDbLine
 10
225.725
 20
219.2304
 11
225.471
 21
219.2304
  0
LINE
  5
1A8
100
AcDbEntity
  8
frame
  6
ByLayer
 62
  256
370
   -1
100
AcDbLine
 10
225.471
 20
219.2304
 11
225.369
 21
219.1796
  0
LINE
  5
1A9
100
AcDbEntity
  8
frame
  6
ByLayer
 62
  256
370
   -1
100
AcDbLine
 10
225.369
 20
219.1796
 11
225.293
 21
219.1034
  0
LINE
  5
1AA
100
AcDbEntity
  8
frame
  6
ByLayer
 62
  256
370
   -1
100
AcDbLine
 10
225.293
 20
219.1034
 11
225.242
 21
218.9764
  0
LINE
  5
1AB
100
AcDbEntity
  8
frame
  6
ByLayer
 62
  256
370
   -1
100
AcDbLine
 10
275.178
 20
219.713
 11
276.042
 21
219.713
  0
LINE
  5
1AC
100
AcDbEntity
  8
frame
  6
ByLayer
 62
  256
370
   -1
100
AcDbLine
 10
276.042
 20
219.713
 11
275.483
 21
218.4176
  0
LINE
  5
1AD
100
AcDbEntity
  8
frame
  6
ByLayer
 62
  256
370
   -1
100
AcDbLine
 10
325.47
 20
219.1796
 11
325.369
 21
219.2304
  0
LINE
  5
1AE
100
AcDbEntity
  8
frame
  6
ByLayer
 62
  256
370
   -1
100
AcDbLine
 10
325.369
 20
219.2304
 11
325.293
 21
219.2812
  0
LINE
  5
1AF
100
AcDbEntity
  8
frame
  6
ByLayer
 62
  256
370
   -1
100
AcDbLine
 10
325.293
 20
219.2812
 11
325.242
 21
219.4082
  0
LINE
  5
1B0
100
AcDbEntity
  8
frame
  6
ByLayer
 62
  256
370
   -1
100
AcDbLine
 10
325.242
 20
219.4082
 11
325.242
 21
219.4844
  0
LINE
  5
1B1
100
AcDbEntity
  8
frame
  6
ByLayer
 62
  256
370
   -1
100
AcDbLine
 10
325.242
 20
219.4844
 11
325.293
 21
219.6114
  0
LINE
  5
1B2
100
AcDbEntity
  8
frame
  6
ByLayer
 62
  256
370
   -1
100
AcDbLine
 10
325.293
 20
219.6114
 11
325.369
 21
219.6622
  0
LINE
  5
1B3
100
AcDbEntity
  8
frame
  6
ByLayer
 62
  256
370
   -1
100
AcDbLine
 10
325.369
 20
219.6622
 11
325.47
 21
219.713
  0
LINE
  5
1B4
100
AcDbEntity
  8
frame
  6
ByLayer
 62
  256
370
   -1
100
AcDbLine
 10
325.47
 20
219.713
 11
325.724
 21
219.713
  0
LINE
  5
1B5
100
AcDbEntity
  8
frame
  6
ByLayer
 62
  256
370
   -1
100
AcDbLine
 10
325.724
 20
219.713
 11
325.851
 21
219.6622
  0
LINE
  5
1B6
100
AcDbEntity
  8
frame
  6
ByLayer
 62
  256
370
   -1
100
AcDbLine
 10
325.851
 20
219.6622
 11
325.902
 21
219.6114
  0
LINE
  5
1B7
100
AcDbEntity
  8
frame
  6
ByLayer
 62
  256
370
   -1
100
AcDbLine
 10
325.902
 20
219.6114
 11
325.978
 21
219.4844
  0
LINE
  5
1B8
100
AcDbEntity
  8
frame
  6
ByLayer
 62
  256
370
   -1
100
AcDbLine
 10
325.978
 20
219.4844
 11
325.978
 21
219.4082
  0
LINE
  5
1B9
100
AcDbEntity
  8
frame
  6
ByLayer
 62
  256
370
   -1
100
AcDbLine
 10
325.978
 20
219.4082
 11
325.902
 21
219.2812
  0
LINE
  5
1BA
100
AcDbEntity
  8
frame
  6
ByLayer
 62
  256
370
   -1
100
AcDbLine
 10
325.902
 20
219.2812
 11
325.851
 21
219.2304
  0
LINE
  5
1BB
100
AcDbEntity
  8
frame
  6
ByLayer
 62
  256
370
   -1
100
AcDbLine
 10
325.851
 20
219.2304
 11
325.724
 21
219.1796
  0
LINE
  5
1BC
100
AcDbEntity
  8
frame
  6
ByLayer
 62
  256
370
   -1
100
AcDbLine
 10
325.724
 20
219.1796
 11
325.47
 21
219.1796
  0
LINE
  5
1BD
100
AcDbEntity
  8
frame
  6
ByLayer
 62
  256
370
   -1
100
AcDbLine
 10
325.47
 20
219.1796
 11
325.369
 21
219.1034
  0
LINE
  5
1BE
100
AcDbEntity
  8
frame
  6
ByLayer
 62
  256
370
   -1
100
AcDbLine
 10
325.369
 20
219.1034
 11
325.293
 21
219.0526
  0
LINE
  5
1BF
100
AcDbEntity
  8
frame
  6
ByLayer
 62
  256
370
   -1
100
AcDbLine
 10
325.293
 20
219.0526
 11
325.242
 21
218.9256
  0
LINE
  5
1C0
100
AcDbEntity
  8
frame
  6
ByLayer
 62
  256
370
   -1
100
AcDbLine
 10
325.242
 20
218.9256
 11
325.242
 21
218.6716
  0
LINE
  5
1C1
100
AcDbEntity
  8
frame
  6
ByLayer
 62
  256
370
   -1
100
AcDbLine
 10
325.242
 20
218.6716
 11
325.293
 21
218.5446
  0
LINE
  5
1C2
100
AcDbEntity
  8
frame
  6
ByLayer
 62
  256
370
   -1
100
AcDbLine
 10
325.293
 20
218.5446
 11
325.369
 21
218.4938
  0
LINE
  5
1C3
100
AcDbEntity
  8
frame
  6
ByLayer
 62
  256
370
   -1
100
AcDbLine
 10
325.369
 20
218.4938
 11
325.47
 21
218.4176
  0
LINE
  5
1C4
100
AcDbEntity
  8
frame
  6
ByLayer
 62
  256
370
   -1
100
AcDbLine
 10
325.47
 20
218.4176
 11
325.724
 21
218.4176
  0
LINE
  5
1C5
100
AcDbEntity
  8
frame
  6
ByLayer
 62
  256
370
   -1
100
AcDbLine
 10
325.724
 20
218.4176
 11
325.851
 21
218.4938
  0
LINE
  5
1C6
100
AcDbEntity
  8
frame
  6
ByLayer
 62
  256
370
   -1
100
AcDbLine
 10
325.851
 20
218.4938
 11
325.902
 21
218.5446
  0
LINE
  5
1C7
100
AcDbEntity
  8
frame
  6
ByLayer
 62
  256
370
   -1
100
AcDbLine
 10
325.902
 20
218.5446
 11
325.978
 21
218.6716
  0
LINE
  5
1C8
100
AcDbEntity
  8
frame
  6
ByLayer
 62
  256
370
   -1
100
AcDbLine
 10
325.978
 20
218.6716
 11
325.978
 21
218.9256
  0
LINE
  5
1C9
100
AcDbEntity
  8
frame
  6
ByLayer
 62
  256
370
   -1
100
AcDbLine
 10
325.978
 20
218.9256
 11
325.902
 21
219.0526
  0
LINE
  5
1CA
100
AcDbEntity
  8
frame
  6
ByLayer
 62
  256
370
   -1
100
AcDbLine
 10
325.902
 20
219.0526
 11
325.851
 21
219.1034
  0
LINE
  5
1CB
100
AcDbEntity
  8
frame
  6
ByLayer
 62
  256
370
   -1
100
AcDbLine
 10
325.851
 20
219.1034
 11
325.724
 21
219.1796
  0
LINE
  5
1CC
100
AcDbEntity
  8
frame
  6
ByLayer
 62
  256
370
   -1
100
AcDbLine
 10
-0.005200000000002092
 20
-55.01299999999998
 11
-0.005200000000002092
 21
-56.995
  0
LINE
  5
1CD
100
AcDbEntity
  8
frame
  6
ByLayer
 62
  256
370
   -1
100
AcDbLine
 10
50.00700000000001
 20
-55.01299999999998
 11
50.00700000000001
 21
-56.995
  0
LINE
  5
1CE
100
AcDbEntity
  8
frame
  6
ByLayer
 62
  256
370
   -1
100
AcDbLine
 10
99.995
 20
-55.01299999999998
 11
99.995
 21
-56.995
  0
LINE
  5
1CF
100
AcDbEntity
  8
frame
  6
ByLayer
 62
  256
370
   -1
100
AcDbLine
 10
150.007
 20
-55.01299999999998
 11
150.007
 21
-56.995
  0
LINE
  5
1D0
100
AcDbEntity
  8
frame
  6
ByLayer
 62
  256
370
   -1
100
AcDbLine
 10
199.994
 20
-55.01299999999998
 11
199.994
 21
-56.995
  0
LINE
  5
1D1
100
AcDbEntity
  8
frame
  6
ByLayer
 62
  256
370
   -1
100
AcDbLine
 10
250.007
 20
-55.01299999999998
 11
250.007
 21
-56.995
  0
LINE
  5
1D2
100
AcDbEntity
  8
frame
  6
ByLayer
 62
  256
370
   -1
100
AcDbLine
 10
299.994
 20
-55.01299999999998
 11
299.994
 21
-56.995
  0
LINE
  5
1D3
100
AcDbEntity
  8
frame
  6
ByLayer
 62
  256
370
   -1
100
AcDbLine
 10
-24.0082
 20
-56.58800000000002
 11
-24.7448
 21
-56.58800000000002
  0
LINE
  5
1D4
100
AcDbEntity
  8
frame
  6
ByLayer
 62
  256
370
   -1
100
AcDbLine
 10
-24.3892
 20
-56.58800000000002
 11
-24.3892
 21
-55.29300000000001
  0
LINE
  5
1D5
100
AcDbEntity
  8
frame
  6
ByLayer
 62
  256
370
   -1
100
AcDbLine
 10
-24.3892
 20
-55.29300000000001
 11
-24.5162
 21
-55.471
  0
LINE
  5
1D6
100
AcDbEntity
  8
frame
  6
ByLayer
 62
  256
370
   -1
100
AcDbLine
 10
-24.5162
 20
-55.471
 11
-24.6178
 21
-55.59800000000001
  0
LINE
  5
1D7
100
AcDbEntity
  8
frame
  6
ByLayer
 62
  256
370
   -1
100
AcDbLine
 10
-24.6178
 20
-55.59800000000001
 11
-24.7448
 21
-55.64800000000002
  0
LINE
  5
1D8
100
AcDbEntity
  8
frame
  6
ByLayer
 62
  256
370
   -1
100
AcDbLine
 10
25.2424
 20
-55.39400000000001
 11
25.2932
 21
-55.34399999999999
  0
LINE
  5
1D9
100
AcDbEntity
  8
frame
  6
ByLayer
 62
  256
370
   -1
100
AcDbLine
 10
25.2932
 20
-55.34399999999999
 11
25.42019999999999
 21
-55.29300000000001
  0
LINE
  5
1DA
100
AcDbEntity
  8
frame
  6
ByLayer
 62
  256
370
   -1
100
AcDbLine
 10
25.42019999999999
 20
-55.29300000000001
 11
25.72499999999999
 21
-55.29300000000001
  0
LINE
  5
1DB
100
AcDbEntity
  8
frame
  6
ByLayer
 62
  256
370
   -1
100
AcDbLine
 10
25.72499999999999
 20
-55.29300000000001
 11
25.852
 21
-55.34399999999999
  0
LINE
  5
1DC
100
AcDbEntity
  8
frame
  6
ByLayer
 62
  256
370
   -1
100
AcDbLine
 10
25.852
 20
-55.34399999999999
 11
25.9028
 21
-55.39400000000001
  0
LINE
  5
1DD
100
AcDbEntity
  8
frame
  6
ByLayer
 62
  256
370
   -1
100
AcDbLine
 10
25.9028
 20
-55.39400000000001
 11
25.979
 21
-55.52100000000002
  0
LINE
  5
1DE
100
AcDbEntity
  8
frame
  6
ByLayer
 62
  256
370
   -1
100
AcDbLine
 10
25.979
 20
-55.52100000000002
 11
25.979
 21
-55.64800000000002
  0
LINE
  5
1DF
100
AcDbEntity
  8
frame
  6
ByLayer
 62
  256
370
   -1
100
AcDbLine
 10
25.979
 20
-55.64800000000002
 11
25.9028
 21
-55.82600000000002
  0
LINE
  5
1E0
100
AcDbEntity
  8
frame
  6
ByLayer
 62
  256
370
   -1
100
AcDbLine
 10
25.9028
 20
-55.82600000000002
 11
25.1662
 21
-56.58800000000002
  0
LINE
  5
1E1
100
AcDbEntity
  8
frame
  6
ByLayer
 62
  256
370
   -1
100
AcDbLine
 10
25.1662
 20
-56.58800000000002
 11
25.979
 21
-56.58800000000002
  0
LINE
  5
1E2
100
AcDbEntity
  8
frame
  6
ByLayer
 62
  256
370
   -1
100
AcDbLine
 10
75.179
 20
-55.29300000000001
 11
75.99199999999999
 21
-55.29300000000001
  0
LINE
  5
1E3
100
AcDbEntity
  8
frame
  6
ByLayer
 62
  256
370
   -1
100
AcDbLine
 10
75.99199999999999
 20
-55.29300000000001
 11
75.56
 21
-55.77499999999998
  0
LINE
  5
1E4
100
AcDbEntity
  8
frame
  6
ByLayer
 62
  256
370
   -1
100
AcDbLine
 10
75.56
 20
-55.77499999999998
 11
75.738
 21
-55.77499999999998
  0
LINE
  5
1E5
100
AcDbEntity
  8
frame
  6
ByLayer
 62
  256
370
   -1
100
AcDbLine
 10
75.738
 20
-55.77499999999998
 11
75.86500000000001
 21
-55.82600000000002
  0
LINE
  5
1E6
100
AcDbEntity
  8
frame
  6
ByLayer
 62
  256
370
   -1
100
AcDbLine
 10
75.86500000000001
 20
-55.82600000000002
 11
75.91499999999999
 21
-55.90199999999999
  0
LINE
  5
1E7
100
AcDbEntity
  8
frame
  6
ByLayer
 62
  256
370
   -1
100
AcDbLine
 10
75.91499999999999
 20
-55.90199999999999
 11
75.99199999999999
 21
-56.029
  0
LINE
  5
1E8
100
AcDbEntity
  8
frame
  6
ByLayer
 62
  256
370
   -1
100
AcDbLine
 10
75.99199999999999
 20
-56.029
 11
75.99199999999999
 21
-56.334
  0
LINE
  5
1E9
100
AcDbEntity
  8
frame
  6
ByLayer
 62
  256
370
   -1
100
AcDbLine
 10
75.99199999999999
 20
-56.334
 11
75.91499999999999
 21
-56.46100000000001
  0
LINE
  5
1EA
100
AcDbEntity
  8
frame
  6
ByLayer
 62
  256
370
   -1
100
AcDbLine
 10
75.91499999999999
 20
-56.46100000000001
 11
75.86500000000001
 21
-56.512
  0
LINE
  5
1EB
100
AcDbEntity
  8
frame
  6
ByLayer
 62
  256
370
   -1
100
AcDbLine
 10
75.86500000000001
 20
-56.512
 11
75.738
 21
-56.58800000000002
  0
LINE
  5
1EC
100
AcDbEntity
  8
frame
  6
ByLayer
 62
  256
370
   -1
100
AcDbLine
 10
75.738
 20
-56.58800000000002
 11
75.38200000000001
 21
-56.58800000000002
  0
LINE
  5
1ED
100
AcDbEntity
  8
frame
  6
ByLayer
 62
  256
370
   -1
100
AcDbLine
 10
75.38200000000001
 20
-56.58800000000002
 11
75.255
 21
-56.512
  0
LINE
  5
1EE
100
AcDbEntity
  8
frame
  6
ByLayer
 62
  256
370
   -1
100
AcDbLine
 10
75.255
 20
-56.512
 11
75.179
 21
-56.46100000000001
  0
LINE
  5
1EF
100
AcDbEntity
  8
frame
  6
ByLayer
 62
  256
370
   -1
100
AcDbLine
 10
125.852
 20
-55.72500000000002
 11
125.852
 21
-56.58800000000002
  0
LINE
  5
1F0
100
AcDbEntity
  8
frame
  6
ByLayer
 62
  256
370
   -1
100
AcDbLine
 10
125.547
 20
-55.21699999999998
 11
125.242
 21
-56.15600000000001
  0
LINE
  5
1F1
100
AcDbEntity
  8
frame
  6
ByLayer
 62
  256
370
   -1
100
AcDbLine
 10
125.242
 20
-56.15600000000001
 11
126.03
 21
-56.15600000000001
  0
LINE
  5
1F2
100
AcDbEntity
  8
frame
  6
ByLayer
 62
  256
370
   -1
100
AcDbLine
 10
175.915
 20
-55.29300000000001
 11
175.306
 21
-55.29300000000001
  0
LINE
  5
1F3
100
AcDbEntity
  8
frame
  6
ByLayer
 62
  256
370
   -1
100
AcDbLine
 10
175.306
 20
-55.29300000000001
 11
175.255
 21
-55.90199999999999
  0
LINE
  5
1F4
100
AcDbEntity
  8
frame
  6
ByLayer
 62
  256
370
   -1
100
AcDbLine
 10
175.255
 20
-55.90199999999999
 11
175.306
 21
-55.82600000000002
  0
LINE
  5
1F5
100
AcDbEntity
  8
frame
  6
ByLayer
 62
  256
370
   -1
100
AcDbLine
 10
175.306
 20
-55.82600000000002
 11
175.433
 21
-55.77499999999998
  0
LINE
  5
1F6
100
AcDbEntity
  8
frame
  6
ByLayer
 62
  256
370
   -1
100
AcDbLine
 10
175.433
 20
-55.77499999999998
 11
175.737
 21
-55.77499999999998
  0
LINE
  5
1F7
100
AcDbEntity
  8
frame
  6
ByLayer
 62
  256
370
   -1
100
AcDbLine
 10
175.737
 20
-55.77499999999998
 11
175.864
 21
-55.82600000000002
  0
LINE
  5
1F8
100
AcDbEntity
  8
frame
  6
ByLayer
 62
  256
370
   -1
100
AcDbLine
 10
175.864
 20
-55.82600000000002
 11
175.915
 21
-55.90199999999999
  0
LINE
  5
1F9
100
AcDbEntity
  8
frame
  6
ByLayer
 62
  256
370
   -1
100
AcDbLine
 10
175.915
 20
-55.90199999999999
 11
175.991
 21
-56.029
  0
LINE
  5
1FA
100
AcDbEntity
  8
frame
  6
ByLayer
 62
  256
370
   -1
100
AcDbLine
 10
175.991
 20
-56.029
 11
175.991
 21
-56.334
  0
LINE
  5
1FB
100
AcDbEntity
  8
frame
  6
ByLayer
 62
  256
370
   -1
100
AcDbLine
 10
175.991
 20
-56.334
 11
175.915
 21
-56.46100000000001
  0
LINE
  5
1FC
100
AcDbEntity
  8
frame
  6
ByLayer
 62
  256
370
   -1
100
AcDbLine
 10
175.915
 20
-56.46100000000001
 11
175.864
 21
-56.512
  0
LINE
  5
1FD
100
AcDbEntity
  8
frame
  6
ByLayer
 62
  256
370
   -1
100
AcDbLine
 10
175.864
 20
-56.512
 11
175.737
 21
-56.58800000000002
  0
LINE
  5
1FE
100
AcDbEntity
  8
frame
  6
ByLayer
 62
  256
370
   -1
100
AcDbLine
 10
175.737
 20
-56.58800000000002
 11
175.433
 21
-56.58800000000002
  0
LINE
  5
1FF
100
AcDbEntity
  8
frame
  6
ByLayer
 62
  256
370
   -1
100
AcDbLine
 10
175.433
 20
-56.58800000000002
 11
175.306
 21
-56.512
  0
LINE
  5
200
100
AcDbEntity
  8
frame
  6
ByLayer
 62
  256
370
   -1
100
AcDbLine
 10
175.306
 20
-56.512
 11
175.255
 21
-56.46100000000001
  0
LINE
  5
201
100
AcDbEntity
  8
frame
  6
ByLayer
 62
  256
370
   -1
100
AcDbLine
 10
225.852
 20
-55.29300000000001
 11
225.598
 21
-55.29300000000001
  0
LINE
  5
202
100
AcDbEntity
  8
frame
  6
ByLayer
 62
  256
370
   -1
100
AcDbLine
 10
225.598
 20
-55.29300000000001
 11
225.471
 21
-55.34399999999999
  0
LINE
  5
203
100
AcDbEntity
  8
frame
  6
ByLayer
 62
  256
370
   -1
100
AcDbLine
 10
225.471
 20
-55.34399999999999
 11
225.42
 21
-55.39400000000001
  0
LINE
  5
204
100
AcDbEntity
  8
frame
  6
ByLayer
 62
  256
370
   -1
100
AcDbLine
 10
225.42
 20
-55.39400000000001
 11
225.293
 21
-55.59800000000001
  0
LINE
  5
205
100
AcDbEntity
  8
frame
  6
ByLayer
 62
  256
370
   -1
100
AcDbLine
 10
225.293
 20
-55.59800000000001
 11
225.242
 21
-55.82600000000002
  0
LINE
  5
206
100
AcDbEntity
  8
frame
  6
ByLayer
 62
  256
370
   -1
100
AcDbLine
 10
225.242
 20
-55.82600000000002
 11
225.242
 21
-56.334
  0
LINE
  5
207
100
AcDbEntity
  8
frame
  6
ByLayer
 62
  256
370
   -1
100
AcDbLine
 10
225.242
 20
-56.334
 11
225.293
 21
-56.46100000000001
  0
LINE
  5
208
100
AcDbEntity
  8
frame
  6
ByLayer
 62
  256
370
   -1
100
AcDbLine
 10
225.293
 20
-56.46100000000001
 11
225.369
 21
-56.512
  0
LINE
  5
209
100
AcDbEntity
  8
frame
  6
ByLayer
 62
  256
370
   -1
100
AcDbLine
 10
225.369
 20
-56.512
 11
225.471
 21
-56.58800000000002
  0
LINE
  5
20A
100
AcDbEntity
  8
frame
  6
ByLayer
 62
  256
370
   -1
100
AcDbLine
 10
225.471
 20
-56.58800000000002
 11
225.725
 21
-56.58800000000002
  0
LINE
  5
20B
100
AcDbEntity
  8
frame
  6
ByLayer
 62
  256
370
   -1
100
AcDbLine
 10
225.725
 20
-56.58800000000002
 11
225.852
 21
-56.512
  0
LINE
  5
20C
100
AcDbEntity
  8
frame
  6
ByLayer
 62
  256
370
   -1
100
AcDbLine
 10
225.852
 20
-56.512
 11
225.902
 21
-56.46100000000001
  0
LINE
  5
20D
100
AcDbEntity
  8
frame
  6
ByLayer
 62
  256
370
   -1
100
AcDbLine
 10
225.902
 20
-56.46100000000001
 11
225.979
 21
-56.334
  0
LINE
  5
20E
100
AcDbEntity
  8
frame
  6
ByLayer
 62
  256
370
   -1
100
AcDbLine
 10
225.979
 20
-56.334
 11
225.979
 21
-56.029
  0
LINE
  5
20F
100
AcDbEntity
  8
frame
  6
ByLayer
 62
  256
370
   -1
100
AcDbLine
 10
225.979
 20
-56.029
 11
225.902
 21
-55.90199999999999
  0
LINE
  5
210
100
AcDbEntity
  8
frame
  6
ByLayer
 62
  256
370
   -1
100
AcDbLine
 10
225.902
 20
-55.90199999999999
 11
225.852
 21
-55.82600000000002
  0
LINE
  5
211
100
AcDbEntity
  8
frame
  6
ByLayer
 62
  256
370
   -1
100
AcDbLine
 10
225.852
 20
-55.82600000000002
 11
225.725
 21
-55.77499999999998
  0
LINE
  5
212
100
AcDbEntity
  8
frame
  6
ByLayer
 62
  256
370
   -1
100
AcDbLine
 10
225.725
 20
-55.77499999999998
 11
225.471
 21
-55.77499999999998
  0
LINE
  5
213
100
AcDbEntity
  8
frame
  6
ByLayer
 62
  256
370
   -1
100
AcDbLine
 10
225.471
 20
-55.77499999999998
 11
225.369
 21
-55.82600000000002
  0
LINE
  5
214
100
AcDbEntity
  8
frame
  6
ByLayer
 62
  256
370
   -1
100
AcDbLine
 10
225.369
 20
-55.82600000000002
 11
225.293
 21
-55.90199999999999
  0
LINE
  5
215
100
AcDbEntity
  8
frame
  6
ByLayer
 62
  256
370
   -1
100
AcDbLine
 10
225.293
 20
-55.90199999999999
 11
225.242
 21
-56.029
  0
LINE
  5
216
100
AcDbEntity
  8
frame
  6
ByLayer
 62
  256
370
   -1
100
AcDbLine
 10
275.178
 20
-55.29300000000001
 11
276.042
 21
-55.29300000000001
  0
LINE
  5
217
100
AcDbEntity
  8
frame
  6
ByLayer
 62
  256
370
   -1
100
AcDbLine
 10
276.042
 20
-55.29300000000001
 11
275.483
 21
-56.58800000000002
  0
LINE
  5
218
100
AcDbEntity
  8
frame
  6
ByLayer
 62
  256
370
   -1
100
AcDbLine
 10
325.47
 20
-55.82600000000002
 11
325.369
 21
-55.77499999999998
  0
LINE
  5
219
100
AcDbEntity
  8
frame
  6
ByLayer
 62
  256
370
   -1
100
AcDbLine
 10
325.369
 20
-55.77499999999998
 11
325.293
 21
-55.72500000000002
  0
LINE
  5
21A
100
AcDbEntity
  8
frame
  6
ByLayer
 62
  256
370
   -1
100
AcDbLine
 10
325.293
 20
-55.72500000000002
 11
325.242
 21
-55.59800000000001
  0
LINE
  5
21B
100
AcDbEntity
  8
frame
  6
ByLayer
 62
  256
370
   -1
100
AcDbLine
 10
325.242
 20
-55.59800000000001
 11
325.242
 21
-55.52100000000002
  0
LINE
  5
21C
100
AcDbEntity
  8
frame
  6
ByLayer
 62
  256
370
   -1
100
AcDbLine
 10
325.242
 20
-55.52100000000002
 11
325.293
 21
-55.39400000000001
  0
LINE
  5
21D
100
AcDbEntity
  8
frame
  6
ByLayer
 62
  256
370
   -1
100
AcDbLine
 10
325.293
 20
-55.39400000000001
 11
325.369
 21
-55.34399999999999
  0
LINE
  5
21E
100
AcDbEntity
  8
frame
  6
ByLayer
 62
  256
370
   -1
100
AcDbLine
 10
325.369
 20
-55.34399999999999
 11
325.47
 21
-55.29300000000001
  0
LINE
  5
21F
100
AcDbEntity
  8
frame
  6
ByLayer
 62
  256
370
   -1
100
AcDbLine
 10
325.47
 20
-55.29300000000001
 11
325.724
 21
-55.29300000000001
  0
LINE
  5
220
100
AcDbEntity
  8
frame
  6
ByLayer
 62
  256
370
   -1
100
AcDbLine
 10
325.724
 20
-55.29300000000001
 11
325.851
 21
-55.34399999999999
  0
LINE
  5
221
100
AcDbEntity
  8
frame
  6
ByLayer
 62
  256
370
   -1
100
AcDbLine
 10
325.851
 20
-55.34399999999999
 11
325.902
 21
-55.39400000000001
  0
LINE
  5
222
100
AcDbEntity
  8
frame
  6
ByLayer
 62
  256
370
   -1
100
AcDbLine
 10
325.902
 20
-55.39400000000001
 11
325.978
 21
-55.52100000000002
  0
LINE
  5
223
100
AcDbEntity
  8
frame
  6
ByLayer
 62
  256
370
   -1
100
AcDbLine
 10
325.978
 20
-55.52100000000002
 11
325.978
 21
-55.59800000000001
  0
LINE
  5
224
100
AcDbEntity
  8
frame
  6
ByLayer
 62
  256
370
   -1
100
AcDbLine
 10
325.978
 20
-55.59800000000001
 11
325.902
 21
-55.72500000000002
  0
LINE
  5
225
100
AcDbEntity
  8
frame
  6
ByLayer
 62
  256
370
   -1
100
AcDbLine
 10
325.902
 20
-55.72500000000002
 11
325.851
 21
-55.77499999999998
  0
LINE
  5
226
100
AcDbEntity
  8
frame
  6
ByLayer
 62
  256
370
   -1
100
AcDbLine
 10
325.851
 20
-55.77499999999998
 11
325.724
 21
-55.82600000000002
  0
LINE
  5
227
100
AcDbEntity
  8
frame
  6
ByLayer
 62
  256
370
   -1
100
AcDbLine
 10
325.724
 20
-55.82600000000002
 11
325.47
 21
-55.82600000000002
  0
LINE
  5
228
100
AcDbEntity
  8
frame
  6
ByLayer
 62
  256
370
   -1
100
AcDbLine
 10
325.47
 20
-55.82600000000002
 11
325.369
 21
-55.90199999999999
  0
LINE
  5
229
100
AcDbEntity
  8
frame
  6
ByLayer
 62
  256
370
   -1
100
AcDbLine
 10
325.369
 20
-55.90199999999999
 11
325.293
 21
-55.95299999999997
  0
LINE
  5
22A
100
AcDbEntity
  8
frame
  6
ByLayer
 62
  256
370
   -1
100
AcDbLine
 10
325.293
 20
-55.95299999999997
 11
325.242
 21
-56.07999999999998
  0
LINE
  5
22B
100
AcDbEntity
  8
frame
  6
ByLayer
 62
  256
370
   -1
100
AcDbLine
 10
325.242
 20
-56.07999999999998
 11
325.242
 21
-56.334
  0
LINE
  5
22C
100
AcDbEntity
  8
frame
  6
ByLayer
 62
  256
370
   -1
100
AcDbLine
 10
325.242
 20
-56.334
 11
325.293
 21
-56.46100000000001
  0
LINE
  5
22D
100
AcDbEntity
  8
frame
  6
ByLayer
 62
  256
370
   -1
100
AcDbLine
 10
325.293
 20
-56.46100000000001
 11
325.369
 21
-56.512
  0
LINE
  5
22E
100
AcDbEntity
  8
frame
  6
ByLayer
 62
  256
370
   -1
100
AcDbLine
 10
325.369
 20
-56.512
 11
325.47
 21
-56.58800000000002
  0
LINE
  5
22F
100
AcDbEntity
  8
frame
  6
ByLayer
 62
  256
370
   -1
100
AcDbLine
 10
325.47
 20
-56.58800000000002
 11
325.724
 21
-56.58800000000002
  0
LINE
  5
230
100
AcDbEntity
  8
frame
  6
ByLayer
 62
  256
370
   -1
100
AcDbLine
 10
325.724
 20
-56.58800000000002
 11
325.851
 21
-56.512
  0
LINE
  5
231
100
AcDbEntity
  8
frame
  6
ByLayer
 62
  256
370
   -1
100
AcDbLine
 10
325.851
 20
-56.512
 11
325.902
 21
-56.46100000000001
  0
LINE
  5
232
100
AcDbEntity
  8
frame
  6
ByLayer
 62
  256
370
   -1
100
AcDbLine
 10
325.902
 20
-56.46100000000001
 11
325.978
 21
-56.334
  0
LINE
  5
233
100
AcDbEntity
  8
frame
  6
ByLayer
 62
  256
370
   -1
100
AcDbLine
 10
325.978
 20
-56.334
 11
325.978
 21
-56.07999999999998
  0
LINE
  5
234
100
AcDbEntity
  8
frame
  6
ByLayer
 62
  256
370
   -1
100
AcDbLine
 10
325.978
 20
-56.07999999999998
 11
325.902
 21
-55.95299999999997
  0
LINE
  5
235
100
AcDbEntity
  8
frame
  6
ByLayer
 62
  256
370
   -1
100
AcDbLine
 10
325.902
 20
-55.95299999999997
 11
325.851
 21
-55.90199999999999
  0
LINE
  5
236
100
AcDbEntity
  8
frame
  6
ByLayer
 62
  256
370
   -1
100
AcDbLine
 10
325.851
 20
-55.90199999999999
 11
325.724
 21
-55.82600000000002
  0
LINE
  5
237
100
AcDbEntity
  8
frame
  6
ByLayer
 62
  256
370
   -1
100
AcDbLine
 10
-49.9924
 20
170.0052
 11
-48.0112
 21
170.0052
  0
LINE
  5
238
100
AcDbEntity
  8
frame
  6
ByLayer
 62
  256
370
   -1
100
AcDbLine
 10
-49.9924
 20
119.993
 11
-48.0112
 21
119.993
  0
LINE
  5
239
100
AcDbEntity
  8
frame
  6
ByLayer
 62
  256
370
   -1
100
AcDbLine
 10
-49.9924
 20
70.005
 11
-48.0112
 21
70.005
  0
LINE
  5
23A
100
AcDbEntity
  8
frame
  6
ByLayer
 62
  256
370
   -1
100
AcDbLine
 10
-49.9924
 20
19.99299999999999
 11
-48.0112
 21
19.99299999999999
  0
LINE
  5
23B
100
AcDbEntity
  8
frame
  6
ByLayer
 62
  256
370
   -1
100
AcDbLine
 10
-49.9924
 20
-29.99400000000003
 11
-48.0112
 21
-29.99400000000003
  0
LINE
  5
23C
100
AcDbEntity
  8
frame
  6
ByLayer
 62
  256
370
   -1
100
AcDbLine
 10
-49.3066
 20
194.7956
 11
-48.697
 21
194.7956
  0
LINE
  5
23D
100
AcDbEntity
  8
frame
  6
ByLayer
 62
  256
370
   -1
100
AcDbLine
 10
-49.4336
 20
194.4146
 11
-49.0018
 21
195.71
  0
LINE
  5
23E
100
AcDbEntity
  8
frame
  6
ByLayer
 62
  256
370
   -1
100
AcDbLine
 10
-49.0018
 20
195.71
 11
-48.57
 21
194.4146
  0
LINE
  5
23F
100
AcDbEntity
  8
frame
  6
ByLayer
 62
  256
370
   -1
100
AcDbLine
 10
-48.9002
 20
145.1132
 11
-48.7224
 21
145.0624
  0
LINE
  5
240
100
AcDbEntity
  8
frame
  6
ByLayer
 62
  256
370
   -1
100
AcDbLine
 10
-48.7224
 20
145.0624
 11
-48.6462
 21
144.9862
  0
LINE
  5
241
100
AcDbEntity
  8
frame
  6
ByLayer
 62
  256
370
   -1
100
AcDbLine
 10
-48.6462
 20
144.9862
 11
-48.5954
 21
144.8592
  0
LINE
  5
242
100
AcDbEntity
  8
frame
  6
ByLayer
 62
  256
370
   -1
100
AcDbLine
 10
-48.5954
 20
144.8592
 11
-48.5954
 21
144.6814
  0
LINE
  5
243
100
AcDbEntity
  8
frame
  6
ByLayer
 62
  256
370
   -1
100
AcDbLine
 10
-48.5954
 20
144.6814
 11
-48.6462
 21
144.5544
  0
LINE
  5
244
100
AcDbEntity
  8
frame
  6
ByLayer
 62
  256
370
   -1
100
AcDbLine
 10
-48.6462
 20
144.5544
 11
-48.7224
 21
144.5036
  0
LINE
  5
245
100
AcDbEntity
  8
frame
  6
ByLayer
 62
  256
370
   -1
100
AcDbLine
 10
-48.7224
 20
144.5036
 11
-48.824
 21
144.4274
  0
LINE
  5
246
100
AcDbEntity
  8
frame
  6
ByLayer
 62
  256
370
   -1
100
AcDbLine
 10
-48.824
 20
144.4274
 11
-49.332
 21
144.4274
  0
LINE
  5
247
100
AcDbEntity
  8
frame
  6
ByLayer
 62
  256
370
   -1
100
AcDbLine
 10
-49.332
 20
144.4274
 11
-49.332
 21
145.7228
  0
LINE
  5
248
100
AcDbEntity
  8
frame
  6
ByLayer
 62
  256
370
   -1
100
AcDbLine
 10
-49.332
 20
145.7228
 11
-48.9002
 21
145.7228
  0
LINE
  5
249
100
AcDbEntity
  8
frame
  6
ByLayer
 62
  256
370
   -1
100
AcDbLine
 10
-48.9002
 20
145.7228
 11
-48.7732
 21
145.672
  0
LINE
  5
24A
100
AcDbEntity
  8
frame
  6
ByLayer
 62
  256
370
   -1
100
AcDbLine
 10
-48.7732
 20
145.672
 11
-48.7224
 21
145.6212
  0
LINE
  5
24B
100
AcDbEntity
  8
frame
  6
ByLayer
 62
  256
370
   -1
100
AcDbLine
 10
-48.7224
 20
145.6212
 11
-48.6462
 21
145.4942
  0
LINE
  5
24C
100
AcDbEntity
  8
frame
  6
ByLayer
 62
  256
370
   -1
100
AcDbLine
 10
-48.6462
 20
145.4942
 11
-48.6462
 21
145.3672
  0
LINE
  5
24D
100
AcDbEntity
  8
frame
  6
ByLayer
 62
  256
370
   -1
100
AcDbLine
 10
-48.6462
 20
145.3672
 11
-48.7224
 21
145.2402
  0
LINE
  5
24E
100
AcDbEntity
  8
frame
  6
ByLayer
 62
  256
370
   -1
100
AcDbLine
 10
-48.7224
 20
145.2402
 11
-48.7732
 21
145.1894
  0
LINE
  5
24F
100
AcDbEntity
  8
frame
  6
ByLayer
 62
  256
370
   -1
100
AcDbLine
 10
-48.7732
 20
145.1894
 11
-48.9002
 21
145.1132
  0
LINE
  5
250
100
AcDbEntity
  8
frame
  6
ByLayer
 62
  256
370
   -1
100
AcDbLine
 10
-48.9002
 20
145.1132
 11
-49.332
 21
145.1132
  0
LINE
  5
251
100
AcDbEntity
  8
frame
  6
ByLayer
 62
  256
370
   -1
100
AcDbLine
 10
-48.5954
 20
94.542
 11
-48.6462
 21
94.49100000000001
  0
LINE
  5
252
100
AcDbEntity
  8
frame
  6
ByLayer
 62
  256
370
   -1
100
AcDbLine
 10
-48.6462
 20
94.49100000000001
 11
-48.824
 21
94.41499999999999
  0
LINE
  5
253
100
AcDbEntity
  8
frame
  6
ByLayer
 62
  256
370
   -1
100
AcDbLine
 10
-48.824
 20
94.41499999999999
 11
-48.951
 21
94.41499999999999
  0
LINE
  5
254
100
AcDbEntity
  8
frame
  6
ByLayer
 62
  256
370
   -1
100
AcDbLine
 10
-48.951
 20
94.41499999999999
 11
-49.1542
 21
94.49100000000001
  0
LINE
  5
255
100
AcDbEntity
  8
frame
  6
ByLayer
 62
  256
370
   -1
100
AcDbLine
 10
-49.1542
 20
94.49100000000001
 11
-49.2558
 21
94.61799999999999
  0
LINE
  5
256
100
AcDbEntity
  8
frame
  6
ByLayer
 62
  256
370
   -1
100
AcDbLine
 10
-49.2558
 20
94.61799999999999
 11
-49.332
 21
94.745
  0
LINE
  5
257
100
AcDbEntity
  8
frame
  6
ByLayer
 62
  256
370
   -1
100
AcDbLine
 10
-49.332
 20
94.745
 11
-49.3828
 21
94.97399999999999
  0
LINE
  5
258
100
AcDbEntity
  8
frame
  6
ByLayer
 62
  256
370
   -1
100
AcDbLine
 10
-49.3828
 20
94.97399999999999
 11
-49.3828
 21
95.17699999999999
  0
LINE
  5
259
100
AcDbEntity
  8
frame
  6
ByLayer
 62
  256
370
   -1
100
AcDbLine
 10
-49.3828
 20
95.17699999999999
 11
-49.332
 21
95.405
  0
LINE
  5
25A
100
AcDbEntity
  8
frame
  6
ByLayer
 62
  256
370
   -1
100
AcDbLine
 10
-49.332
 20
95.405
 11
-49.2558
 21
95.53200000000001
  0
LINE
  5
25B
100
AcDbEntity
  8
frame
  6
ByLayer
 62
  256
370
   -1
100
AcDbLine
 10
-49.2558
 20
95.53200000000001
 11
-49.1542
 21
95.65899999999999
  0
LINE
  5
25C
100
AcDbEntity
  8
frame
  6
ByLayer
 62
  256
370
   -1
100
AcDbLine
 10
-49.1542
 20
95.65899999999999
 11
-48.951
 21
95.71000000000001
  0
LINE
  5
25D
100
AcDbEntity
  8
frame
  6
ByLayer
 62
  256
370
   -1
100
AcDbLine
 10
-48.951
 20
95.71000000000001
 11
-48.824
 21
95.71000000000001
  0
LINE
  5
25E
100
AcDbEntity
  8
frame
  6
ByLayer
 62
  256
370
   -1
100
AcDbLine
 10
-48.824
 20
95.71000000000001
 11
-48.6462
 21
95.65899999999999
  0
LINE
  5
25F
100
AcDbEntity
  8
frame
  6
ByLayer
 62
  256
370
   -1
100
AcDbLine
 10
-48.6462
 20
95.65899999999999
 11
-48.5954
 21
95.60900000000001
  0
LINE
  5
260
100
AcDbEntity
  8
frame
  6
ByLayer
 62
  256
370
   -1
100
AcDbLine
 10
-49.332
 20
44.428
 11
-49.332
 21
45.72300000000001
  0
LINE
  5
261
100
AcDbEntity
  8
frame
  6
ByLayer
 62
  256
370
   -1
100
AcDbLine
 10
-49.332
 20
45.72300000000001
 11
-49.0272
 21
45.72300000000001
  0
LINE
  5
262
100
AcDbEntity
  8
frame
  6
ByLayer
 62
  256
370
   -1
100
AcDbLine
 10
-49.0272
 20
45.72300000000001
 11
-48.824
 21
45.672
  0
LINE
  5
263
100
AcDbEntity
  8
frame
  6
ByLayer
 62
  256
370
   -1
100
AcDbLine
 10
-48.824
 20
45.672
 11
-48.7224
 21
45.54499999999999
  0
LINE
  5
264
100
AcDbEntity
  8
frame
  6
ByLayer
 62
  256
370
   -1
100
AcDbLine
 10
-48.7224
 20
45.54499999999999
 11
-48.6462
 21
45.41800000000001
  0
LINE
  5
265
100
AcDbEntity
  8
frame
  6
ByLayer
 62
  256
370
   -1
100
AcDbLine
 10
-48.6462
 20
45.41800000000001
 11
-48.5954
 21
45.19
  0
LINE
  5
266
100
AcDbEntity
  8
frame
  6
ByLayer
 62
  256
370
   -1
100
AcDbLine
 10
-48.5954
 20
45.19
 11
-48.5954
 21
44.98599999999999
  0
LINE
  5
267
100
AcDbEntity
  8
frame
  6
ByLayer
 62
  256
370
   -1
100
AcDbLine
 10
-48.5954
 20
44.98599999999999
 11
-48.6462
 21
44.75800000000001
  0
LINE
  5
268
100
AcDbEntity
  8
frame
  6
ByLayer
 62
  256
370
   -1
100
AcDbLine
 10
-48.6462
 20
44.75800000000001
 11
-48.7224
 21
44.631
  0
LINE
  5
269
100
AcDbEntity
  8
frame
  6
ByLayer
 62
  256
370
   -1
100
AcDbLine
 10
-48.7224
 20
44.631
 11
-48.824
 21
44.50399999999999
  0
LINE
  5
26A
100
AcDbEntity
  8
frame
  6
ByLayer
 62
  256
370
   -1
100
AcDbLine
 10
-48.824
 20
44.50399999999999
 11
-49.0272
 21
44.428
  0
LINE
  5
26B
100
AcDbEntity
  8
frame
  6
ByLayer
 62
  256
370
   -1
100
AcDbLine
 10
-49.0272
 20
44.428
 11
-49.332
 21
44.428
  0
LINE
  5
26C
100
AcDbEntity
  8
frame
  6
ByLayer
 62
  256
370
   -1
100
AcDbLine
 10
-49.2812
 20
-4.899000000000001
 11
-48.8494
 21
-4.899000000000001
  0
LINE
  5
26D
100
AcDbEntity
  8
frame
  6
ByLayer
 62
  256
370
   -1
100
AcDbLine
 10
-48.6716
 20
-5.585000000000008
 11
-49.2812
 21
-5.585000000000008
  0
LINE
  5
26E
100
AcDbEntity
  8
frame
  6
ByLayer
 62
  256
370
   -1
100
AcDbLine
 10
-49.2812
 20
-5.585000000000008
 11
-49.2812
 21
-4.289999999999992
  0
LINE
  5
26F
100
AcDbEntity
  8
frame
  6
ByLayer
 62
  256
370
   -1
100
AcDbLine
 10
-49.2812
 20
-4.289999999999992
 11
-48.6716
 21
-4.289999999999992
  0
LINE
  5
270
100
AcDbEntity
  8
frame
  6
ByLayer
 62
  256
370
   -1
100
AcDbLine
 10
-48.824
 20
-54.88600000000002
 11
-49.2558
 21
-54.88600000000002
  0
LINE
  5
271
100
AcDbEntity
  8
frame
  6
ByLayer
 62
  256
370
   -1
100
AcDbLine
 10
-49.2558
 20
-55.572
 11
-49.2558
 21
-54.27699999999999
  0
LINE
  5
272
100
AcDbEntity
  8
frame
  6
ByLayer
 62
  256
370
   -1
100
AcDbLine
 10
-49.2558
 20
-54.27699999999999
 11
-48.6462
 21
-54.27699999999999
  0
LINE
  5
273
100
AcDbEntity
  8
frame
  6
ByLayer
 62
  256
370
   -1
100
AcDbLine
 10
349.981
 20
170.0052
 11
348
 21
170.0052
  0
LINE
  5
274
100
AcDbEntity
  8
frame
  6
ByLayer
 62
  256
370
   -1
100
AcDbLine
 10
349.981
 20
119.993
 11
348
 21
119.993
  0
LINE
  5
275
100
AcDbEntity
  8
frame
  6
ByLayer
 62
  256
370
   -1
100
AcDbLine
 10
349.981
 20
70.005
 11
348
 21
70.005
  0
LINE
  5
276
100
AcDbEntity
  8
frame
  6
ByLayer
 62
  256
370
   -1
100
AcDbLine
 10
349.981
 20
19.99299999999999
 11
348
 21
19.99299999999999
  0
LINE
  5
277
100
AcDbEntity
  8
frame
  6
ByLayer
 62
  256
370
   -1
100
AcDbLine
 10
349.981
 20
-29.99400000000003
 11
348
 21
-29.99400000000003
  0
LINE
  5
278
100
AcDbEntity
  8
frame
  6
ByLayer
 62
  256
370
   -1
100
AcDbLine
 10
348.686
 20
194.7956
 11
349.296
 21
194.7956
  0
LINE
  5
279
100
AcDbEntity
  8
frame
  6
ByLayer
 62
  256
370
   -1
100
AcDbLine
 10
348.559
 20
194.4146
 11
348.991
 21
195.71
  0
LINE
  5
27A
100
AcDbEntity
  8
frame
  6
ByLayer
 62
  256
370
   -1
100
AcDbLine
 10
348.991
 20
195.71
 11
349.423
 21
194.4146
  0
LINE
  5
27B
100
AcDbEntity
  8
frame
  6
ByLayer
 62
  256
370
   -1
100
AcDbLine
 10
349.092
 20
145.1132
 11
349.27
 21
145.0624
  0
LINE
  5
27C
100
AcDbEntity
  8
frame
  6
ByLayer
 62
  256
370
   -1
100
AcDbLine
 10
349.27
 20
145.0624
 11
349.346
 21
144.9862
  0
LINE
  5
27D
100
AcDbEntity
  8
frame
  6
ByLayer
 62
  256
370
   -1
100
AcDbLine
 10
349.346
 20
144.9862
 11
349.397
 21
144.8592
  0
LINE
  5
27E
100
AcDbEntity
  8
frame
  6
ByLayer
 62
  256
370
   -1
100
AcDbLine
 10
349.397
 20
144.8592
 11
349.397
 21
144.6814
  0
LINE
  5
27F
100
AcDbEntity
  8
frame
  6
ByLayer
 62
  256
370
   -1
100
AcDbLine
 10
349.397
 20
144.6814
 11
349.346
 21
144.5544
  0
LINE
  5
280
100
AcDbEntity
  8
frame
  6
ByLayer
 62
  256
370
   -1
100
AcDbLine
 10
349.346
 20
144.5544
 11
349.27
 21
144.5036
  0
LINE
  5
281
100
AcDbEntity
  8
frame
  6
ByLayer
 62
  256
370
   -1
100
AcDbLine
 10
349.27
 20
144.5036
 11
349.169
 21
144.4274
  0
LINE
  5
282
100
AcDbEntity
  8
frame
  6
ByLayer
 62
  256
370
   -1
100
AcDbLine
 10
349.169
 20
144.4274
 11
348.661
 21
144.4274
  0
LINE
  5
283
100
AcDbEntity
  8
frame
  6
ByLayer
 62
  256
370
   -1
100
AcDbLine
 10
348.661
 20
144.4274
 11
348.661
 21
145.7228
  0
LINE
  5
284
100
AcDbEntity
  8
frame
  6
ByLayer
 62
  256
370
   -1
100
AcDbLine
 10
348.661
 20
145.7228
 11
349.092
 21
145.7228
  0
LINE
  5
285
100
AcDbEntity
  8
frame
  6
ByLayer
 62
  256
370
   -1
100
AcDbLine
 10
349.092
 20
145.7228
 11
349.219
 21
145.672
  0
LINE
  5
286
100
AcDbEntity
  8
frame
  6
ByLayer
 62
  256
370
   -1
100
AcDbLine
 10
349.219
 20
145.672
 11
349.27
 21
145.6212
  0
LINE
  5
287
100
AcDbEntity
  8
frame
  6
ByLayer
 62
  256
370
   -1
100
AcDbLine
 10
349.27
 20
145.6212
 11
349.346
 21
145.4942
  0
LINE
  5
288
100
AcDbEntity
  8
frame
  6
ByLayer
 62
  256
370
   -1
100
AcDbLine
 10
349.346
 20
145.4942
 11
349.346
 21
145.3672
  0
LINE
  5
289
100
AcDbEntity
  8
frame
  6
ByLayer
 62
  256
370
   -1
100
AcDbLine
 10
349.346
 20
145.3672
 11
349.27
 21
145.2402
  0
LINE
  5
28A
100
AcDbEntity
  8
frame
  6
ByLayer
 62
  256
370
   -1
100
AcDbLine
 10
349.27
 20
145.2402
 11
349.219
 21
145.1894
  0
LINE
  5
28B
100
AcDbEntity
  8
frame
  6
ByLayer
 62
  256
370
   -1
100
AcDbLine
 10
349.219
 20
145.1894
 11
349.092
 21
145.1132
  0
LINE
  5
28C
100
AcDbEntity
  8
frame
  6
ByLayer
 62
  256
370
   -1
100
AcDbLine
 10
349.092
 20
145.1132
 11
348.661
 21
145.1132
  0
LINE
  5
28D
100
AcDbEntity
  8
frame
  6
ByLayer
 62
  256
370
   -1
100
AcDbLine
 10
349.397
 20
94.542
 11
349.346
 21
94.49100000000001
  0
LINE
  5
28E
100
AcDbEntity
  8
frame
  6
ByLayer
 62
  256
370
   -1
100
AcDbLine
 10
349.346
 20
94.49100000000001
 11
349.169
 21
94.41499999999999
  0
LINE
  5
28F
100
AcDbEntity
  8
frame
  6
ByLayer
 62
  256
370
   -1
100
AcDbLine
 10
349.169
 20
94.41499999999999
 11
349.042
 21
94.41499999999999
  0
LINE
  5
290
100
AcDbEntity
  8
frame
  6
ByLayer
 62
  256
370
   -1
100
AcDbLine
 10
349.042
 20
94.41499999999999
 11
348.838
 21
94.49100000000001
  0
LINE
  5
291
100
AcDbEntity
  8
frame
  6
ByLayer
 62
  256
370
   -1
100
AcDbLine
 10
348.838
 20
94.49100000000001
 11
348.737
 21
94.61799999999999
  0
LINE
  5
292
100
AcDbEntity
  8
frame
  6
ByLayer
 62
  256
370
   -1
100
AcDbLine
 10
348.737
 20
94.61799999999999
 11
348.661
 21
94.745
  0
LINE
  5
293
100
AcDbEntity
  8
frame
  6
ByLayer
 62
  256
370
   -1
100
AcDbLine
 10
348.661
 20
94.745
 11
348.61
 21
94.97399999999999
  0
LINE
  5
294
100
AcDbEntity
  8
frame
  6
ByLayer
 62
  256
370
   -1
100
AcDbLine
 10
348.61
 20
94.97399999999999
 11
348.61
 21
95.17699999999999
  0
LINE
  5
295
100
AcDbEntity
  8
frame
  6
ByLayer
 62
  256
370
   -1
100
AcDbLine
 10
348.61
 20
95.17699999999999
 11
348.661
 21
95.405
  0
LINE
  5
296
100
AcDbEntity
  8
frame
  6
ByLayer
 62
  256
370
   -1
100
AcDbLine
 10
348.661
 20
95.405
 11
348.737
 21
95.53200000000001
  0
LINE
  5
297
100
AcDbEntity
  8
frame
  6
ByLayer
 62
  256
370
   -1
100
AcDbLine
 10
348.737
 20
95.53200000000001
 11
348.838
 21
95.65899999999999
  0
LINE
  5
298
100
AcDbEntity
  8
frame
  6
ByLayer
 62
  256
370
   -1
100
AcDbLine
 10
348.838
 20
95.65899999999999
 11
349.042
 21
95.71000000000001
  0
LINE
  5
299
100
AcDbEntity
  8
frame
  6
ByLayer
 62
  256
370
   -1
100
AcDbLine
 10
349.042
 20
95.71000000000001
 11
349.169
 21
95.71000000000001
  0
LINE
  5
29A
100
AcDbEntity
  8
frame
  6
ByLayer
 62
  256
370
   -1
100
AcDbLine
 10
349.169
 20
95.71000000000001
 11
349.346
 21
95.65899999999999
  0
LINE
  5
29B
100
AcDbEntity
  8
frame
  6
ByLayer
 62
  256
370
   -1
100
AcDbLine
 10
349.346
 20
95.65899999999999
 11
349.397
 21
95.60900000000001
  0
LINE
  5
29C
100
AcDbEntity
  8
frame
  6
ByLayer
 62
  256
370
   -1
100
AcDbLine
 10
348.661
 20
44.428
 11
348.661
 21
45.72300000000001
  0
LINE
  5
29D
100
AcDbEntity
  8
frame
  6
ByLayer
 62
  256
370
   -1
100
AcDbLine
 10
348.661
 20
45.72300000000001
 11
348.965
 21
45.72300000000001
  0
LINE
  5
29E
100
AcDbEntity
  8
frame
  6
ByLayer
 62
  256
370
   -1
100
AcDbLine
 10
348.965
 20
45.72300000000001
 11
349.169
 21
45.672
  0
LINE
  5
29F
100
AcDbEntity
  8
frame
  6
ByLayer
 62
  256
370
   -1
100
AcDbLine
 10
349.169
 20
45.672
 11
349.27
 21
45.54499999999999
  0
LINE
  5
2A0
100
AcDbEntity
  8
frame
  6
ByLayer
 62
  256
370
   -1
100
AcDbLine
 10
349.27
 20
45.54499999999999
 11
349.346
 21
45.41800000000001
  0
LINE
  5
2A1
100
AcDbEntity
  8
frame
  6
ByLayer
 62
  256
370
   -1
100
AcDbLine
 10
349.346
 20
45.41800000000001
 11
349.397
 21
45.19
  0
LINE
  5
2A2
100
AcDbEntity
  8
frame
  6
ByLayer
 62
  256
370
   -1
100
AcDbLine
 10
349.397
 20
45.19
 11
349.397
 21
44.98599999999999
  0
LINE
  5
2A3
100
AcDbEntity
  8
frame
  6
ByLayer
 62
  256
370
   -1
100
AcDbLine
 10
349.397
 20
44.98599999999999
 11
349.346
 21
44.75800000000001
  0
LINE
  5
2A4
100
AcDbEntity
  8
frame
  6
ByLayer
 62
  256
370
   -1
100
AcDbLine
 10
349.346
 20
44.75800000000001
 11
349.27
 21
44.631
  0
LINE
  5
2A5
100
AcDbEntity
  8
frame
  6
ByLayer
 62
  256
370
   -1
100
AcDbLine
 10
349.27
 20
44.631
 11
349.169
 21
44.50399999999999
  0
LINE
  5
2A6
100
AcDbEntity
  8
frame
  6
ByLayer
 62
  256
370
   -1
100
AcDbLine
 10
349.169
 20
44.50399999999999
 11
348.965
 21
44.428
  0
LINE
  5
2A7
100
AcDbEntity
  8
frame
  6
ByLayer
 62
  256
370
   -1
100
AcDbLine
 10
348.965
 20
44.428
 11
348.661
 21
44.428
  0
LINE
  5
2A8
100
AcDbEntity
  8
frame
  6
ByLayer
 62
  256
370
   -1
100
AcDbLine
 10
348.711
 20
-4.899000000000001
 11
349.143
 21
-4.899000000000001
  0
LINE
  5
2A9
100
AcDbEntity
  8
frame
  6
ByLayer
 62
  256
370
   -1
100
AcDbLine
 10
349.321
 20
-5.585000000000008
 11
348.711
 21
-5.585000000000008
  0
LINE
  5
2AA
100
AcDbEntity
  8
frame
  6
ByLayer
 62
  256
370
   -1
100
AcDbLine
 10
348.711
 20
-5.585000000000008
 11
348.711
 21
-4.289999999999992
  0
LINE
  5
2AB
100
AcDbEntity
  8
frame
  6
ByLayer
 62
  256
370
   -1
100
AcDbLine
 10
348.711
 20
-4.289999999999992
 11
349.321
 21
-4.289999999999992
  0
LINE
  5
2AC
100
AcDbEntity
  8
frame
  6
ByLayer
 62
  256
370
   -1
100
AcDbLine
 10
349.169
 20
-54.88600000000002
 11
348.737
 21
-54.88600000000002
  0
LINE
  5
2AD
100
AcDbEntity
  8
frame
  6
ByLayer
 62
  256
370
   -1
100
AcDbLine
 10
348.737
 20
-55.572
 11
348.737
 21
-54.27699999999999
  0
LINE
  5
2AE
100
AcDbEntity
  8
frame
  6
ByLayer
 62
  256
370
   -1
100
AcDbLine
 10
348.737
 20
-54.27699999999999
 11
349.346
 21
-54.27699999999999
  0
LINE
  5
2AF
100
AcDbEntity
  8
frame
  6
ByLayer
 62
  256
370
   -1
100
AcDbLine
 10
239.999
 20
-51.50799999999998
 11
348
 21
-51.50799999999998
  0
LINE
  5
2B0
100
AcDbEntity
  8
frame
  6
ByLayer
 62
  256
370
   -1
100
AcDbLine
 10
239.999
 20
-48.51100000000002
 11
348
 21
-48.51100000000002
  0
LINE
  5
2B1
100
AcDbEntity
  8
frame
  6
ByLayer
 62
  256
370
   -1
100
AcDbLine
 10
239.999
 20
-44.49799999999999
 11
348
 21
-44.49799999999999
  0
LINE
  5
2B2
100
AcDbEntity
  8
frame
  6
ByLayer
 62
  256
370
   -1
100
AcDbLine
 10
239.999
 20
-38.50299999999999
 11
348
 21
-38.50299999999999
  0
LINE
  5
2B3
100
AcDbEntity
  8
frame
  6
ByLayer
 62
  256
370
   -1
100
AcDbLine
 10
259.989
 20
-48.51100000000002
 11
259.989
 21
-51.50799999999998
  0
LINE
  5
2B4
100
AcDbEntity
  8
frame
  6
ByLayer
 62
  256
370
   -1
100
AcDbLine
 10
323.997
 20
-48.51100000000002
 11
323.997
 21
-55.01299999999998
  0
MTEXT
  5
2B5
100
AcDbEntity
  8
text
  6
ByLayer
 62
  256
370
   -1
100
AcDbMText
 10
241
 20
-52
 30
0
 40
2
 41
19.94444444444466
 71
    1
 72
    1
  1
LibreCAD v2.1.2
  7
STANDARD
210
0
220
0
230
1
 50
0
 73
    2
 44
1
  0
MTEXT
  5
2B6
100
AcDbEntity
  8
text
  6
ByLayer
 62
  256
370
   -1
100
AcDbMText
 10
241
 20
-39
 30
0
 40
2
 41
10.83333290932913
 71
    1
 72
    1
  1
Sheet: /
  7
STANDARD
210
0
220
0
230
1
 50
0
 73
    2
 44
1
  0
MTEXT
  5
2B7
100
AcDbEntity
  8
text
  6
ByLayer
 62
  256
370
   -1
100
AcDbMText
 10
261
 20
-49
 30
0
 40
2
 41
24.72222222222244
 71
    1
 72
    1
  1
Date: 2019. 09. 29.
  7
STANDARD
210
0
220
0
230
1
 50
0
 73
    2
 44
1
  0
MTEXT
  5
2B8
100
AcDbEntity
  8
text
  6
ByLayer
 62
  256
370
   -1
100
AcDbMText
 10
325
 20
-49
 30
0
 40
2
 41
14.83333333333333
 71
    1
 72
    1
  1
Rev: 191101
  7
STANDARD
210
0
220
0
230
1
 50
0
 73
    2
 44
1
  0
MTEXT
  5
2B9
100
AcDbEntity
  8
text
  6
ByLayer
 62
  256
370
   -1
100
AcDbMText
 10
325
 20
-52
 30
0
 40
2
 41
7.5
 71
    1
 72
    1
  1
Id: 1/1
  7
STANDARD
210
0
220
0
230
1
 50
0
 73
    2
 44
1
  0
MTEXT
  5
2BA
100
AcDbEntity
  8
text
  6
ByLayer
 62
  256
370
   -1
100
AcDbMText
 10
241
 20
-35
 30
0
 40
2
 41
61.16666975239068
 71
    1
 72
    1
  1
Pozsar Zsolt - http://www.szerafingomba.hu
  7
STANDARD
210
0
220
0
230
1
 50
0
 73
    2
 44
1
  0
MTEXT
  5
2BB
100
AcDbEntity
  8
text
  6
ByLayer
 62
  256
370
   -1
100
AcDbMText
 10
241
 20
-45
 30
0
 40
2
 41
78.11111111111248
 71
    1
 72
    1
  1
Title: MM5D Controlling and remote monitoring equipment
  7
STANDARD
210
0
220
0
230
1
 50
0
 73
    2
 44
1
  0
MTEXT
  5
2BC
100
AcDbEntity
  8
text
  6
ByLayer
 62
  256
370
   -1
100
AcDbMText
 10
241
 20
-29
 30
0
 40
2
 41
5.722222222222222
 71
    1
 72
    1
  1
M 1:1
  7
STANDARD
210
0
220
0
230
1
 50
0
 73
    2
 44
1
  0
MTEXT
  5
2BD
100
AcDbEntity
  8
text
  6
ByLayer
 62
  256
370
   -1
100
AcDbMText
 10
241
 20
-24
 30
0
 40
2
 41
23.22222222222278
 71
    1
 72
    1
  1
Draw no. 59/5/12
  7

210
0
220
0
230
1
 50
0
 73
    2
 44
1
  0
MTEXT
  5
2BE
100
AcDbEntity
  8
text
  6
ByLayer
 62
  256
370
   -1
100
AcDbMText
 10
241
 20
-32
 30
0
 40
2
 41
44.00000000000087
 71
    1
 72
    1
  1
Drilling draw for mounting plate
  7

210
0
220
0
230
1
 50
0
 73
    2
 44
1
  0
MTEXT
  5
2BF
100
AcDbEntity
  8
text
  6
ByLayer
 62
  256
370
   -1
100
AcDbMText
 10
241
 20
-42
 30
0
 40
2
 41
29.94444444444491
 71
    1
 72
    1
  1
File: mountingplate.dxf
  7

210
0
220
0
230
1
 50
0
 73
    2
 44
1
  0
MTEXT
  5
2C0
100
AcDbEntity
  8
text
  6
ByLayer
 62
  256
370
   -1
100
AcDbMText
 10
241
 20
-49
 30
0
 40
2
 41
12.16666624266249
 71
    1
 72
    1
  1
Size: A/3
  7

210
0
220
0
230
1
 50
0
 73
    2
 44
1
  0
ENDSEC
  0
SECTION
  2
OBJECTS
  0
DICTIONARY
  5
C
330
0
100
AcDbDictionary
281
    1
  3
ACAD_GROUP
350
D
  0
DICTIONARY
  5
D
330
C
100
AcDbDictionary
281
    1
  0
ENDSEC
  0
EOF
