G04 #@! TF.FileFunction,Copper,L2,Bot*
%FSLAX46Y46*%
G04 Gerber Fmt 4.6, Leading zero omitted, Abs format (unit mm)*
G04 Created by KiCad (PCBNEW 4.0.5+dfsg1-4) date Mon Feb 24 09:36:29 2020*
%MOMM*%
%LPD*%
G01*
G04 APERTURE LIST*
%ADD10C,0.150000*%
%ADD11C,0.300000*%
%ADD12C,2.499360*%
%ADD13R,2.032000X2.032000*%
%ADD14O,2.032000X2.032000*%
%ADD15C,5.400000*%
%ADD16C,1.524000*%
%ADD17R,1.300000X1.300000*%
%ADD18C,1.300000*%
%ADD19C,1.651000*%
%ADD20R,1.651000X1.651000*%
%ADD21C,2.540000*%
%ADD22R,2.540000X2.540000*%
%ADD23C,15.240000*%
%ADD24C,2.500000*%
%ADD25C,1.000000*%
G04 APERTURE END LIST*
D10*
D11*
X156491428Y-113073571D02*
X156491428Y-111573571D01*
X155991428Y-112645000D01*
X155491428Y-111573571D01*
X155491428Y-113073571D01*
X154777142Y-113073571D02*
X154777142Y-111573571D01*
X154277142Y-112645000D01*
X153777142Y-111573571D01*
X153777142Y-113073571D01*
X152348570Y-111573571D02*
X153062856Y-111573571D01*
X153134285Y-112287857D01*
X153062856Y-112216429D01*
X152919999Y-112145000D01*
X152562856Y-112145000D01*
X152419999Y-112216429D01*
X152348570Y-112287857D01*
X152277142Y-112430714D01*
X152277142Y-112787857D01*
X152348570Y-112930714D01*
X152419999Y-113002143D01*
X152562856Y-113073571D01*
X152919999Y-113073571D01*
X153062856Y-113002143D01*
X153134285Y-112930714D01*
X151634285Y-113073571D02*
X151634285Y-111573571D01*
X151277142Y-111573571D01*
X151062857Y-111645000D01*
X150919999Y-111787857D01*
X150848571Y-111930714D01*
X150777142Y-112216429D01*
X150777142Y-112430714D01*
X150848571Y-112716429D01*
X150919999Y-112859286D01*
X151062857Y-113002143D01*
X151277142Y-113073571D01*
X151634285Y-113073571D01*
X153470714Y-78783571D02*
X153470714Y-77283571D01*
X153113571Y-77283571D01*
X152899286Y-77355000D01*
X152756428Y-77497857D01*
X152685000Y-77640714D01*
X152613571Y-77926429D01*
X152613571Y-78140714D01*
X152685000Y-78426429D01*
X152756428Y-78569286D01*
X152899286Y-78712143D01*
X153113571Y-78783571D01*
X153470714Y-78783571D01*
X151970714Y-77783571D02*
X151970714Y-78783571D01*
X151970714Y-77926429D02*
X151899286Y-77855000D01*
X151756428Y-77783571D01*
X151542143Y-77783571D01*
X151399286Y-77855000D01*
X151327857Y-77997857D01*
X151327857Y-78783571D01*
X150613571Y-78640714D02*
X150542143Y-78712143D01*
X150613571Y-78783571D01*
X150685000Y-78712143D01*
X150613571Y-78640714D01*
X150613571Y-78783571D01*
X149899285Y-78640714D02*
X149827857Y-78712143D01*
X149899285Y-78783571D01*
X149970714Y-78712143D01*
X149899285Y-78640714D01*
X149899285Y-78783571D01*
X149899285Y-77855000D02*
X149827857Y-77926429D01*
X149899285Y-77997857D01*
X149970714Y-77926429D01*
X149899285Y-77855000D01*
X149899285Y-77997857D01*
X147327856Y-77283571D02*
X148042142Y-77283571D01*
X148113571Y-77997857D01*
X148042142Y-77926429D01*
X147899285Y-77855000D01*
X147542142Y-77855000D01*
X147399285Y-77926429D01*
X147327856Y-77997857D01*
X147256428Y-78140714D01*
X147256428Y-78497857D01*
X147327856Y-78640714D01*
X147399285Y-78712143D01*
X147542142Y-78783571D01*
X147899285Y-78783571D01*
X148042142Y-78712143D01*
X148113571Y-78640714D01*
X146542143Y-78783571D02*
X146256428Y-78783571D01*
X146113571Y-78712143D01*
X146042143Y-78640714D01*
X145899285Y-78426429D01*
X145827857Y-78140714D01*
X145827857Y-77569286D01*
X145899285Y-77426429D01*
X145970714Y-77355000D01*
X146113571Y-77283571D01*
X146399285Y-77283571D01*
X146542143Y-77355000D01*
X146613571Y-77426429D01*
X146685000Y-77569286D01*
X146685000Y-77926429D01*
X146613571Y-78069286D01*
X146542143Y-78140714D01*
X146399285Y-78212143D01*
X146113571Y-78212143D01*
X145970714Y-78140714D01*
X145899285Y-78069286D01*
X145827857Y-77926429D01*
X144113572Y-77212143D02*
X145399286Y-79140714D01*
X142899285Y-77283571D02*
X143613571Y-77283571D01*
X143685000Y-77997857D01*
X143613571Y-77926429D01*
X143470714Y-77855000D01*
X143113571Y-77855000D01*
X142970714Y-77926429D01*
X142899285Y-77997857D01*
X142827857Y-78140714D01*
X142827857Y-78497857D01*
X142899285Y-78640714D01*
X142970714Y-78712143D01*
X143113571Y-78783571D01*
X143470714Y-78783571D01*
X143613571Y-78712143D01*
X143685000Y-78640714D01*
X141113572Y-77212143D02*
X142399286Y-79140714D01*
X139970714Y-77283571D02*
X140256428Y-77283571D01*
X140399285Y-77355000D01*
X140470714Y-77426429D01*
X140613571Y-77640714D01*
X140685000Y-77926429D01*
X140685000Y-78497857D01*
X140613571Y-78640714D01*
X140542143Y-78712143D01*
X140399285Y-78783571D01*
X140113571Y-78783571D01*
X139970714Y-78712143D01*
X139899285Y-78640714D01*
X139827857Y-78497857D01*
X139827857Y-78140714D01*
X139899285Y-77997857D01*
X139970714Y-77926429D01*
X140113571Y-77855000D01*
X140399285Y-77855000D01*
X140542143Y-77926429D01*
X140613571Y-77997857D01*
X140685000Y-78140714D01*
X159416428Y-95206429D02*
X159344999Y-95135000D01*
X159202142Y-95063571D01*
X158844999Y-95063571D01*
X158702142Y-95135000D01*
X158630713Y-95206429D01*
X158559285Y-95349286D01*
X158559285Y-95492143D01*
X158630713Y-95706429D01*
X159487856Y-96563571D01*
X158559285Y-96563571D01*
X157630714Y-95063571D02*
X157487857Y-95063571D01*
X157345000Y-95135000D01*
X157273571Y-95206429D01*
X157202142Y-95349286D01*
X157130714Y-95635000D01*
X157130714Y-95992143D01*
X157202142Y-96277857D01*
X157273571Y-96420714D01*
X157345000Y-96492143D01*
X157487857Y-96563571D01*
X157630714Y-96563571D01*
X157773571Y-96492143D01*
X157845000Y-96420714D01*
X157916428Y-96277857D01*
X157987857Y-95992143D01*
X157987857Y-95635000D01*
X157916428Y-95349286D01*
X157845000Y-95206429D01*
X157773571Y-95135000D01*
X157630714Y-95063571D01*
X155702143Y-96563571D02*
X156559286Y-96563571D01*
X156130714Y-96563571D02*
X156130714Y-95063571D01*
X156273571Y-95277857D01*
X156416429Y-95420714D01*
X156559286Y-95492143D01*
X154987858Y-96563571D02*
X154702143Y-96563571D01*
X154559286Y-96492143D01*
X154487858Y-96420714D01*
X154345000Y-96206429D01*
X154273572Y-95920714D01*
X154273572Y-95349286D01*
X154345000Y-95206429D01*
X154416429Y-95135000D01*
X154559286Y-95063571D01*
X154845000Y-95063571D01*
X154987858Y-95135000D01*
X155059286Y-95206429D01*
X155130715Y-95349286D01*
X155130715Y-95706429D01*
X155059286Y-95849286D01*
X154987858Y-95920714D01*
X154845000Y-95992143D01*
X154559286Y-95992143D01*
X154416429Y-95920714D01*
X154345000Y-95849286D01*
X154273572Y-95706429D01*
D10*
X118110000Y-68580000D02*
X160020000Y-68580000D01*
X118110000Y-125730000D02*
X118110000Y-68580000D01*
X158115000Y-125730000D02*
X118110000Y-125730000D01*
X166370000Y-125730000D02*
X158115000Y-125730000D01*
X166370000Y-68580000D02*
X166370000Y-125730000D01*
X160020000Y-68580000D02*
X166370000Y-68580000D01*
X165100000Y-125730000D02*
X166370000Y-125730000D01*
X158115000Y-125730000D02*
X165100000Y-125730000D01*
D12*
X149860000Y-119380000D03*
X144780000Y-119380000D03*
X154940000Y-119380000D03*
X139700000Y-119380000D03*
X134620000Y-119380000D03*
D13*
X152400000Y-74930000D03*
D14*
X149860000Y-74930000D03*
D13*
X140970000Y-74930000D03*
D14*
X143510000Y-74930000D03*
D15*
X121920000Y-121920000D03*
X161925000Y-121920000D03*
X161925000Y-72390000D03*
X121920000Y-72390000D03*
D13*
X134620000Y-74930000D03*
D14*
X132080000Y-74930000D03*
D16*
X147955000Y-80645000D03*
X158115000Y-80645000D03*
X125730000Y-80010000D03*
X135890000Y-80010000D03*
X125730000Y-85090000D03*
X135890000Y-85090000D03*
X147955000Y-85090000D03*
X158115000Y-85090000D03*
D17*
X129540000Y-91440000D03*
D18*
X132040000Y-91440000D03*
D17*
X152400000Y-91440000D03*
D18*
X154900000Y-91440000D03*
D19*
X141605000Y-80645000D03*
X144145000Y-83185000D03*
D20*
X141605000Y-85725000D03*
D17*
X152400000Y-105410000D03*
D18*
X152400000Y-100410000D03*
D21*
X146685000Y-112395000D03*
D22*
X161925000Y-112395000D03*
D17*
X140970000Y-91440000D03*
D18*
X143470000Y-91440000D03*
D23*
X133350000Y-102870000D03*
D21*
X124460000Y-96520000D03*
X124460000Y-109220000D03*
D22*
X142240000Y-96520000D03*
X142240000Y-109220000D03*
D12*
X129540000Y-119380000D03*
D24*
X134620000Y-119380000D02*
X139700000Y-119380000D01*
X133350000Y-102870000D02*
X133350000Y-112395000D01*
X133350000Y-102870000D02*
X121920000Y-102870000D01*
X124460000Y-109220000D02*
X124460000Y-112395000D01*
X124460000Y-109220000D02*
X121920000Y-109220000D01*
X124460000Y-96520000D02*
X121920000Y-96520000D01*
D25*
X134620000Y-119380000D02*
X134620000Y-120650000D01*
D24*
X126365000Y-121285000D02*
X126365000Y-113030000D01*
X127635000Y-122555000D02*
X126365000Y-121285000D01*
X132715000Y-122555000D02*
X127635000Y-122555000D01*
X134620000Y-120650000D02*
X132715000Y-122555000D01*
D25*
X149860000Y-119380000D02*
X149860000Y-118110000D01*
D24*
X129540000Y-117475000D02*
X129540000Y-119380000D01*
X130810000Y-116205000D02*
X129540000Y-117475000D01*
X147955000Y-116205000D02*
X130810000Y-116205000D01*
X149860000Y-118110000D02*
X147955000Y-116205000D01*
X154940000Y-119380000D02*
X161925000Y-112395000D01*
X142240000Y-109220000D02*
X160655000Y-109220000D01*
X161925000Y-110490000D02*
X161925000Y-112395000D01*
X160655000Y-109220000D02*
X161925000Y-110490000D01*
X139700000Y-119380000D02*
X144780000Y-119380000D01*
D25*
X142240000Y-96520000D02*
X143510000Y-96520000D01*
D24*
X143510000Y-96520000D02*
X152400000Y-105410000D01*
D25*
X152400000Y-93980000D02*
X152400000Y-100410000D01*
D24*
X152400000Y-105410000D02*
X161925000Y-105410000D01*
X146685000Y-112395000D02*
X133350000Y-112395000D01*
X133350000Y-112395000D02*
X129540000Y-112395000D01*
X129540000Y-112395000D02*
X124460000Y-112395000D01*
X124460000Y-112395000D02*
X121920000Y-112395000D01*
X121920000Y-112395000D02*
X121920000Y-109220000D01*
X121920000Y-107950000D02*
X121920000Y-102870000D01*
X121920000Y-102870000D02*
X121920000Y-96520000D01*
X121920000Y-96520000D02*
X121920000Y-93980000D01*
X121920000Y-109220000D02*
X121920000Y-107950000D01*
X161925000Y-86360000D02*
X161925000Y-104140000D01*
X161925000Y-86360000D02*
X161925000Y-85090000D01*
X161925000Y-105410000D02*
X161925000Y-104140000D01*
D25*
X154900000Y-91440000D02*
X161290000Y-91440000D01*
X121920000Y-93980000D02*
X152400000Y-93980000D01*
X152400000Y-93980000D02*
X152400000Y-91440000D01*
X129540000Y-91440000D02*
X121920000Y-91440000D01*
X135890000Y-91440000D02*
X140970000Y-91440000D01*
X143470000Y-91440000D02*
X143510000Y-91440000D01*
X143510000Y-91440000D02*
X147955000Y-85090000D01*
X135890000Y-85090000D02*
X135890000Y-91440000D01*
X132040000Y-91440000D02*
X135890000Y-91440000D01*
X141605000Y-85725000D02*
X140335000Y-85725000D01*
X138430000Y-83820000D02*
X138430000Y-74930000D01*
X140335000Y-85725000D02*
X138430000Y-83820000D01*
X144145000Y-83185000D02*
X146050000Y-83185000D01*
X146050000Y-83185000D02*
X147955000Y-85090000D01*
X141605000Y-80645000D02*
X147955000Y-80645000D01*
X135890000Y-80010000D02*
X135890000Y-85090000D01*
X125730000Y-80010000D02*
X127000000Y-80010000D01*
X127000000Y-80010000D02*
X132080000Y-74930000D01*
X125730000Y-85090000D02*
X121920000Y-85090000D01*
X152400000Y-74930000D02*
X158115000Y-80645000D01*
X158115000Y-85090000D02*
X161925000Y-85090000D01*
X134620000Y-74930000D02*
X134620000Y-73660000D01*
D24*
X121920000Y-80010000D02*
X121920000Y-85090000D01*
X121920000Y-85090000D02*
X121920000Y-90170000D01*
X121920000Y-90170000D02*
X121920000Y-91440000D01*
X121920000Y-91440000D02*
X121920000Y-93980000D01*
D25*
X121920000Y-93980000D02*
X121920000Y-93980000D01*
X129540000Y-72390000D02*
X121920000Y-80010000D01*
X133350000Y-72390000D02*
X129540000Y-72390000D01*
X134620000Y-73660000D02*
X133350000Y-72390000D01*
X149860000Y-74930000D02*
X149860000Y-73660000D01*
D24*
X161925000Y-80010000D02*
X161925000Y-85090000D01*
D25*
X154940000Y-72390000D02*
X161925000Y-80010000D01*
X151130000Y-72390000D02*
X154940000Y-72390000D01*
X149860000Y-73660000D02*
X151130000Y-72390000D01*
X143510000Y-74930000D02*
X149860000Y-74930000D01*
X140970000Y-74930000D02*
X138430000Y-74930000D01*
X138430000Y-74930000D02*
X134620000Y-74930000D01*
M02*
