M48
;DRILL file {KiCad 4.0.7} date 03/02/20 22:48:31
;FORMAT={-:-/ absolute / inch / decimal}
FMAT,2
INCH,TZ
T1C0.031
T2C0.039
T3C0.138
%
G90
G05
M72
T1
X4.95Y-3.15
X4.95Y-3.35
X5.1Y-3.6
X5.1984Y-3.6
X5.35Y-3.15
X5.35Y-3.35
X5.55Y-3.6
X5.575Y-3.175
X5.575Y-3.375
X5.6484Y-3.6
X5.675Y-3.275
X5.825Y-3.175
X5.825Y-3.35
X6.Y-3.6
X6.Y-3.9531
X6.Y-4.15
X6.0984Y-3.6
X6.225Y-3.175
X6.225Y-3.35
T2
X4.9Y-3.8
X4.9Y-4.3
X5.1Y-4.7
X5.2Y-2.95
X5.3Y-2.95
X5.3Y-4.7
X5.5Y-4.7
X5.55Y-2.95
X5.6Y-3.8
X5.6Y-4.3
X5.65Y-2.95
X5.7Y-4.7
X5.775Y-4.425
X5.9Y-2.95
X5.9Y-4.7
X6.Y-2.95
X6.1Y-4.7
X6.375Y-4.425
T3
X4.8Y-2.85
X4.8Y-4.8
X5.25Y-4.05
X6.375Y-2.85
X6.375Y-4.8
T0
M30
