M48
;DRILL file {KiCad 4.0.5+dfsg1-4} date Mon Feb 24 09:37:50 2020
;FORMAT={-:-/ absolute / metric / decimal}
FMAT,2
METRIC,TZ
T1C0.800
T2C1.000
T3C3.500
%
G90
G05
M71
T1
X125.73Y-80.01
X125.73Y-85.09
X129.54Y-91.44
X132.04Y-91.44
X135.89Y-80.01
X135.89Y-85.09
X140.97Y-91.44
X141.605Y-80.645
X141.605Y-85.725
X143.47Y-91.44
X144.145Y-83.185
X147.955Y-80.645
X147.955Y-85.09
X152.4Y-91.44
X152.4Y-100.41
X152.4Y-105.41
X154.9Y-91.44
X158.115Y-80.645
X158.115Y-85.09
T2
X124.46Y-96.52
X124.46Y-109.22
X129.54Y-119.38
X132.08Y-74.93
X134.62Y-74.93
X134.62Y-119.38
X139.7Y-119.38
X140.97Y-74.93
X142.24Y-96.52
X142.24Y-109.22
X143.51Y-74.93
X144.78Y-119.38
X146.685Y-112.395
X149.86Y-74.93
X149.86Y-119.38
X152.4Y-74.93
X154.94Y-119.38
X161.925Y-112.395
T3
X121.92Y-72.39
X121.92Y-121.92
X133.35Y-102.87
X161.925Y-72.39
X161.925Y-121.92
T0
M30
