%TF.GenerationSoftware,KiCad,Pcbnew,4.0.7*%
%TF.CreationDate,2020-03-02T22:48:25+01:00*%
%TF.ProjectId,mm5d,6D6D35642E6B696361645F7063620000,191101*%
%TF.FileFunction,Legend,Top*%
%FSLAX46Y46*%
G04 Gerber Fmt 4.6, Leading zero omitted, Abs format (unit mm)*
G04 Created by KiCad (PCBNEW 4.0.7) date 03/02/20 22:48:25*
%MOMM*%
%LPD*%
G01*
G04 APERTURE LIST*
%ADD10C,0.150000*%
%ADD11C,0.300000*%
%ADD12C,0.200000*%
G04 APERTURE END LIST*
D10*
D11*
X163282143Y-100257856D02*
X160282143Y-100257856D01*
X162425000Y-99257856D01*
X160282143Y-98257856D01*
X163282143Y-98257856D01*
X163282143Y-96829285D02*
X160282143Y-96829285D01*
X162425000Y-95829285D01*
X160282143Y-94829285D01*
X163282143Y-94829285D01*
X160282143Y-91972143D02*
X160282143Y-93400714D01*
X161710714Y-93543571D01*
X161567857Y-93400714D01*
X161425000Y-93115000D01*
X161425000Y-92400714D01*
X161567857Y-92115000D01*
X161710714Y-91972143D01*
X161996429Y-91829286D01*
X162710714Y-91829286D01*
X162996429Y-91972143D01*
X163139286Y-92115000D01*
X163282143Y-92400714D01*
X163282143Y-93115000D01*
X163139286Y-93400714D01*
X162996429Y-93543571D01*
X163282143Y-90543571D02*
X160282143Y-90543571D01*
X160282143Y-89829286D01*
X160425000Y-89400714D01*
X160710714Y-89115000D01*
X160996429Y-88972143D01*
X161567857Y-88829286D01*
X161996429Y-88829286D01*
X162567857Y-88972143D01*
X162853571Y-89115000D01*
X163139286Y-89400714D01*
X163282143Y-89829286D01*
X163282143Y-90543571D01*
X143708572Y-124503571D02*
X143708572Y-123003571D01*
X144280000Y-123003571D01*
X144422858Y-123075000D01*
X144494286Y-123146429D01*
X144565715Y-123289286D01*
X144565715Y-123503571D01*
X144494286Y-123646429D01*
X144422858Y-123717857D01*
X144280000Y-123789286D01*
X143708572Y-123789286D01*
X145208572Y-123717857D02*
X145708572Y-123717857D01*
X145922858Y-124503571D02*
X145208572Y-124503571D01*
X145208572Y-123003571D01*
X145922858Y-123003571D01*
X154440001Y-123717857D02*
X153940001Y-123717857D01*
X153940001Y-124503571D02*
X153940001Y-123003571D01*
X154654287Y-123003571D01*
X156011429Y-124503571D02*
X155154286Y-124503571D01*
X155582858Y-124503571D02*
X155582858Y-123003571D01*
X155440001Y-123217857D01*
X155297143Y-123360714D01*
X155154286Y-123432143D01*
X149360001Y-123717857D02*
X148860001Y-123717857D01*
X148860001Y-124503571D02*
X148860001Y-123003571D01*
X149574287Y-123003571D01*
X150931429Y-124503571D02*
X150074286Y-124503571D01*
X150502858Y-124503571D02*
X150502858Y-123003571D01*
X150360001Y-123217857D01*
X150217143Y-123360714D01*
X150074286Y-123432143D01*
X138628572Y-124503571D02*
X138628572Y-123003571D01*
X139200000Y-123003571D01*
X139342858Y-123075000D01*
X139414286Y-123146429D01*
X139485715Y-123289286D01*
X139485715Y-123503571D01*
X139414286Y-123646429D01*
X139342858Y-123717857D01*
X139200000Y-123789286D01*
X138628572Y-123789286D01*
X140128572Y-123717857D02*
X140628572Y-123717857D01*
X140842858Y-124503571D02*
X140128572Y-124503571D01*
X140128572Y-123003571D01*
X140842858Y-123003571D01*
X134048572Y-123932143D02*
X135191429Y-123932143D01*
X128968572Y-123932143D02*
X130111429Y-123932143D01*
X129540000Y-124503571D02*
X129540000Y-123360714D01*
D12*
X157480000Y-121920000D02*
X142240000Y-121920000D01*
X157480000Y-116840000D02*
X157480000Y-121920000D01*
X142240000Y-116840000D02*
X157480000Y-116840000D01*
X127000000Y-116840000D02*
X127000000Y-121920000D01*
X142240000Y-116840000D02*
X127000000Y-116840000D01*
X142240000Y-121920000D02*
X142240000Y-116840000D01*
X127000000Y-121920000D02*
X142240000Y-121920000D01*
D10*
X132532381Y-72786905D02*
X131532381Y-72786905D01*
X132532381Y-72310715D02*
X131532381Y-72310715D01*
X132532381Y-71739286D01*
X131532381Y-71739286D01*
X134755000Y-72263095D02*
X134707381Y-72358333D01*
X134707381Y-72501190D01*
X134755000Y-72644048D01*
X134850238Y-72739286D01*
X134945476Y-72786905D01*
X135135952Y-72834524D01*
X135278810Y-72834524D01*
X135469286Y-72786905D01*
X135564524Y-72739286D01*
X135659762Y-72644048D01*
X135707381Y-72501190D01*
X135707381Y-72405952D01*
X135659762Y-72263095D01*
X135612143Y-72215476D01*
X135278810Y-72215476D01*
X135278810Y-72405952D01*
X135707381Y-71786905D02*
X134707381Y-71786905D01*
X135707381Y-71215476D01*
X134707381Y-71215476D01*
X135707381Y-70739286D02*
X134707381Y-70739286D01*
X134707381Y-70501191D01*
X134755000Y-70358333D01*
X134850238Y-70263095D01*
X134945476Y-70215476D01*
X135135952Y-70167857D01*
X135278810Y-70167857D01*
X135469286Y-70215476D01*
X135564524Y-70263095D01*
X135659762Y-70358333D01*
X135707381Y-70501191D01*
X135707381Y-70739286D01*
X152804762Y-72834524D02*
X152852381Y-72691667D01*
X152852381Y-72453571D01*
X152804762Y-72358333D01*
X152757143Y-72310714D01*
X152661905Y-72263095D01*
X152566667Y-72263095D01*
X152471429Y-72310714D01*
X152423810Y-72358333D01*
X152376190Y-72453571D01*
X152328571Y-72644048D01*
X152280952Y-72739286D01*
X152233333Y-72786905D01*
X152138095Y-72834524D01*
X152042857Y-72834524D01*
X151947619Y-72786905D01*
X151900000Y-72739286D01*
X151852381Y-72644048D01*
X151852381Y-72405952D01*
X151900000Y-72263095D01*
X152852381Y-71834524D02*
X151852381Y-71834524D01*
X151852381Y-71453571D01*
X151900000Y-71358333D01*
X151947619Y-71310714D01*
X152042857Y-71263095D01*
X152185714Y-71263095D01*
X152280952Y-71310714D01*
X152328571Y-71358333D01*
X152376190Y-71453571D01*
X152376190Y-71834524D01*
X152471429Y-70834524D02*
X152471429Y-70072619D01*
X150264762Y-72834524D02*
X150312381Y-72691667D01*
X150312381Y-72453571D01*
X150264762Y-72358333D01*
X150217143Y-72310714D01*
X150121905Y-72263095D01*
X150026667Y-72263095D01*
X149931429Y-72310714D01*
X149883810Y-72358333D01*
X149836190Y-72453571D01*
X149788571Y-72644048D01*
X149740952Y-72739286D01*
X149693333Y-72786905D01*
X149598095Y-72834524D01*
X149502857Y-72834524D01*
X149407619Y-72786905D01*
X149360000Y-72739286D01*
X149312381Y-72644048D01*
X149312381Y-72405952D01*
X149360000Y-72263095D01*
X150312381Y-71834524D02*
X149312381Y-71834524D01*
X149312381Y-71453571D01*
X149360000Y-71358333D01*
X149407619Y-71310714D01*
X149502857Y-71263095D01*
X149645714Y-71263095D01*
X149740952Y-71310714D01*
X149788571Y-71358333D01*
X149836190Y-71453571D01*
X149836190Y-71834524D01*
X149931429Y-70834524D02*
X149931429Y-70072619D01*
X150312381Y-70453571D02*
X149550476Y-70453571D01*
X140470000Y-72263095D02*
X140422381Y-72358333D01*
X140422381Y-72501190D01*
X140470000Y-72644048D01*
X140565238Y-72739286D01*
X140660476Y-72786905D01*
X140850952Y-72834524D01*
X140993810Y-72834524D01*
X141184286Y-72786905D01*
X141279524Y-72739286D01*
X141374762Y-72644048D01*
X141422381Y-72501190D01*
X141422381Y-72405952D01*
X141374762Y-72263095D01*
X141327143Y-72215476D01*
X140993810Y-72215476D01*
X140993810Y-72405952D01*
X141422381Y-71786905D02*
X140422381Y-71786905D01*
X141422381Y-71215476D01*
X140422381Y-71215476D01*
X141422381Y-70739286D02*
X140422381Y-70739286D01*
X140422381Y-70501191D01*
X140470000Y-70358333D01*
X140565238Y-70263095D01*
X140660476Y-70215476D01*
X140850952Y-70167857D01*
X140993810Y-70167857D01*
X141184286Y-70215476D01*
X141279524Y-70263095D01*
X141374762Y-70358333D01*
X141422381Y-70501191D01*
X141422381Y-70739286D01*
X142962381Y-72929762D02*
X143962381Y-72596429D01*
X142962381Y-72263095D01*
X143867143Y-71358333D02*
X143914762Y-71405952D01*
X143962381Y-71548809D01*
X143962381Y-71644047D01*
X143914762Y-71786905D01*
X143819524Y-71882143D01*
X143724286Y-71929762D01*
X143533810Y-71977381D01*
X143390952Y-71977381D01*
X143200476Y-71929762D01*
X143105238Y-71882143D01*
X143010000Y-71786905D01*
X142962381Y-71644047D01*
X142962381Y-71548809D01*
X143010000Y-71405952D01*
X143057619Y-71358333D01*
X143867143Y-70358333D02*
X143914762Y-70405952D01*
X143962381Y-70548809D01*
X143962381Y-70644047D01*
X143914762Y-70786905D01*
X143819524Y-70882143D01*
X143724286Y-70929762D01*
X143533810Y-70977381D01*
X143390952Y-70977381D01*
X143200476Y-70929762D01*
X143105238Y-70882143D01*
X143010000Y-70786905D01*
X142962381Y-70644047D01*
X142962381Y-70548809D01*
X143010000Y-70405952D01*
X143057619Y-70358333D01*
X142962381Y-69453571D02*
X142962381Y-69929762D01*
X143438571Y-69977381D01*
X143390952Y-69929762D01*
X143343333Y-69834524D01*
X143343333Y-69596428D01*
X143390952Y-69501190D01*
X143438571Y-69453571D01*
X143533810Y-69405952D01*
X143771905Y-69405952D01*
X143867143Y-69453571D01*
X143914762Y-69501190D01*
X143962381Y-69596428D01*
X143962381Y-69834524D01*
X143914762Y-69929762D01*
X143867143Y-69977381D01*
X118110000Y-68580000D02*
X160020000Y-68580000D01*
X118110000Y-125730000D02*
X118110000Y-68580000D01*
X158115000Y-125730000D02*
X118110000Y-125730000D01*
X166370000Y-125730000D02*
X158115000Y-125730000D01*
X166370000Y-68580000D02*
X166370000Y-125730000D01*
X160020000Y-68580000D02*
X166370000Y-68580000D01*
X165100000Y-125730000D02*
X166370000Y-125730000D01*
X158115000Y-125730000D02*
X165100000Y-125730000D01*
X151130000Y-76200000D02*
X148590000Y-76200000D01*
X153950000Y-76480000D02*
X152400000Y-76480000D01*
X151130000Y-76200000D02*
X151130000Y-73660000D01*
X152400000Y-73380000D02*
X153950000Y-73380000D01*
X153950000Y-73380000D02*
X153950000Y-76480000D01*
X151130000Y-73660000D02*
X148590000Y-73660000D01*
X148590000Y-73660000D02*
X148590000Y-76200000D01*
X142240000Y-73660000D02*
X144780000Y-73660000D01*
X139420000Y-73380000D02*
X140970000Y-73380000D01*
X142240000Y-73660000D02*
X142240000Y-76200000D01*
X140970000Y-76480000D02*
X139420000Y-76480000D01*
X139420000Y-76480000D02*
X139420000Y-73380000D01*
X142240000Y-76200000D02*
X144780000Y-76200000D01*
X144780000Y-76200000D02*
X144780000Y-73660000D01*
X133350000Y-76200000D02*
X130810000Y-76200000D01*
X136170000Y-76480000D02*
X134620000Y-76480000D01*
X133350000Y-76200000D02*
X133350000Y-73660000D01*
X134620000Y-73380000D02*
X136170000Y-73380000D01*
X136170000Y-73380000D02*
X136170000Y-76480000D01*
X133350000Y-73660000D02*
X130810000Y-73660000D01*
X130810000Y-73660000D02*
X130810000Y-76200000D01*
X147955000Y-80645000D02*
X148971000Y-80645000D01*
X148971000Y-80645000D02*
X148971000Y-79629000D01*
X148971000Y-79629000D02*
X157099000Y-79629000D01*
X157099000Y-79629000D02*
X157099000Y-81661000D01*
X157099000Y-81661000D02*
X148971000Y-81661000D01*
X148971000Y-81661000D02*
X148971000Y-80645000D01*
X148971000Y-80137000D02*
X149479000Y-79629000D01*
X158115000Y-80645000D02*
X157099000Y-80645000D01*
X125730000Y-80010000D02*
X126746000Y-80010000D01*
X126746000Y-80010000D02*
X126746000Y-78994000D01*
X126746000Y-78994000D02*
X134874000Y-78994000D01*
X134874000Y-78994000D02*
X134874000Y-81026000D01*
X134874000Y-81026000D02*
X126746000Y-81026000D01*
X126746000Y-81026000D02*
X126746000Y-80010000D01*
X126746000Y-79502000D02*
X127254000Y-78994000D01*
X135890000Y-80010000D02*
X134874000Y-80010000D01*
X125730000Y-85090000D02*
X126746000Y-85090000D01*
X126746000Y-85090000D02*
X126746000Y-84074000D01*
X126746000Y-84074000D02*
X134874000Y-84074000D01*
X134874000Y-84074000D02*
X134874000Y-86106000D01*
X134874000Y-86106000D02*
X126746000Y-86106000D01*
X126746000Y-86106000D02*
X126746000Y-85090000D01*
X126746000Y-84582000D02*
X127254000Y-84074000D01*
X135890000Y-85090000D02*
X134874000Y-85090000D01*
X147955000Y-85090000D02*
X148971000Y-85090000D01*
X148971000Y-85090000D02*
X148971000Y-84074000D01*
X148971000Y-84074000D02*
X157099000Y-84074000D01*
X157099000Y-84074000D02*
X157099000Y-86106000D01*
X157099000Y-86106000D02*
X148971000Y-86106000D01*
X148971000Y-86106000D02*
X148971000Y-85090000D01*
X148971000Y-84582000D02*
X149479000Y-84074000D01*
X158115000Y-85090000D02*
X157099000Y-85090000D01*
X129290000Y-90190000D02*
X132290000Y-90190000D01*
X132290000Y-92690000D02*
X129290000Y-92690000D01*
X152150000Y-90190000D02*
X155150000Y-90190000D01*
X155150000Y-92690000D02*
X152150000Y-92690000D01*
X138938000Y-86995000D02*
X137668000Y-88265000D01*
X137795000Y-85852000D02*
X136525000Y-87122000D01*
X136525000Y-87122000D02*
X137668000Y-88265000D01*
X146278186Y-83185000D02*
G75*
G03X146278186Y-83185000I-4673186J0D01*
G01*
X147401000Y-102835000D02*
X157399000Y-102835000D01*
X147405000Y-102695000D02*
X157395000Y-102695000D01*
X147413000Y-102555000D02*
X157387000Y-102555000D01*
X147425000Y-102415000D02*
X157375000Y-102415000D01*
X147440000Y-102275000D02*
X157360000Y-102275000D01*
X147460000Y-102135000D02*
X157340000Y-102135000D01*
X147484000Y-101995000D02*
X157316000Y-101995000D01*
X147513000Y-101855000D02*
X157287000Y-101855000D01*
X147545000Y-101715000D02*
X157255000Y-101715000D01*
X147582000Y-101575000D02*
X157218000Y-101575000D01*
X147623000Y-101435000D02*
X157177000Y-101435000D01*
X147668000Y-101295000D02*
X151934000Y-101295000D01*
X152866000Y-101295000D02*
X157132000Y-101295000D01*
X147718000Y-101155000D02*
X151733000Y-101155000D01*
X153067000Y-101155000D02*
X157082000Y-101155000D01*
X147773000Y-101015000D02*
X151604000Y-101015000D01*
X153196000Y-101015000D02*
X157027000Y-101015000D01*
X147833000Y-100875000D02*
X151515000Y-100875000D01*
X153285000Y-100875000D02*
X156967000Y-100875000D01*
X147898000Y-100735000D02*
X151454000Y-100735000D01*
X153346000Y-100735000D02*
X156902000Y-100735000D01*
X147968000Y-100595000D02*
X151417000Y-100595000D01*
X153383000Y-100595000D02*
X156832000Y-100595000D01*
X148044000Y-100455000D02*
X151401000Y-100455000D01*
X153399000Y-100455000D02*
X156756000Y-100455000D01*
X148126000Y-100315000D02*
X151405000Y-100315000D01*
X153395000Y-100315000D02*
X156674000Y-100315000D01*
X148214000Y-100175000D02*
X151428000Y-100175000D01*
X153372000Y-100175000D02*
X156586000Y-100175000D01*
X148309000Y-100035000D02*
X151473000Y-100035000D01*
X153327000Y-100035000D02*
X156491000Y-100035000D01*
X148411000Y-99895000D02*
X151543000Y-99895000D01*
X153257000Y-99895000D02*
X156389000Y-99895000D01*
X148521000Y-99755000D02*
X151644000Y-99755000D01*
X153156000Y-99755000D02*
X156279000Y-99755000D01*
X148639000Y-99615000D02*
X151793000Y-99615000D01*
X153007000Y-99615000D02*
X156161000Y-99615000D01*
X148767000Y-99475000D02*
X152045000Y-99475000D01*
X152755000Y-99475000D02*
X156033000Y-99475000D01*
X148904000Y-99335000D02*
X155896000Y-99335000D01*
X149054000Y-99195000D02*
X155746000Y-99195000D01*
X149216000Y-99055000D02*
X155584000Y-99055000D01*
X149393000Y-98915000D02*
X155407000Y-98915000D01*
X149589000Y-98775000D02*
X155211000Y-98775000D01*
X149807000Y-98635000D02*
X154993000Y-98635000D01*
X150053000Y-98495000D02*
X154747000Y-98495000D01*
X150338000Y-98355000D02*
X154462000Y-98355000D01*
X150680000Y-98215000D02*
X154120000Y-98215000D01*
X151126000Y-98075000D02*
X153674000Y-98075000D01*
X151901000Y-97935000D02*
X152899000Y-97935000D01*
X153400000Y-100410000D02*
G75*
G03X153400000Y-100410000I-1000000J0D01*
G01*
X157437500Y-102910000D02*
G75*
G03X157437500Y-102910000I-5037500J0D01*
G01*
X148590000Y-109220000D02*
X148590000Y-115570000D01*
X148590000Y-115570000D02*
X160020000Y-115570000D01*
X160020000Y-115570000D02*
X160020000Y-109220000D01*
X160020000Y-109220000D02*
X148590000Y-109220000D01*
X159385000Y-109220000D02*
X159385000Y-115570000D01*
X158750000Y-115570000D02*
X158750000Y-109220000D01*
X160020000Y-112395000D02*
X161925000Y-112395000D01*
X148590000Y-112395000D02*
X146685000Y-112395000D01*
X140720000Y-90190000D02*
X143720000Y-90190000D01*
X143720000Y-92690000D02*
X140720000Y-92690000D01*
X142240000Y-102870000D02*
G75*
G03X142240000Y-102870000I-8890000J0D01*
G01*
X152868334Y-81097381D02*
X152535000Y-80621190D01*
X152296905Y-81097381D02*
X152296905Y-80097381D01*
X152677858Y-80097381D01*
X152773096Y-80145000D01*
X152820715Y-80192619D01*
X152868334Y-80287857D01*
X152868334Y-80430714D01*
X152820715Y-80525952D01*
X152773096Y-80573571D01*
X152677858Y-80621190D01*
X152296905Y-80621190D01*
X153725477Y-80430714D02*
X153725477Y-81097381D01*
X153487381Y-80049762D02*
X153249286Y-80764048D01*
X153868334Y-80764048D01*
X130643334Y-80462381D02*
X130310000Y-79986190D01*
X130071905Y-80462381D02*
X130071905Y-79462381D01*
X130452858Y-79462381D01*
X130548096Y-79510000D01*
X130595715Y-79557619D01*
X130643334Y-79652857D01*
X130643334Y-79795714D01*
X130595715Y-79890952D01*
X130548096Y-79938571D01*
X130452858Y-79986190D01*
X130071905Y-79986190D01*
X131595715Y-80462381D02*
X131024286Y-80462381D01*
X131310000Y-80462381D02*
X131310000Y-79462381D01*
X131214762Y-79605238D01*
X131119524Y-79700476D01*
X131024286Y-79748095D01*
X130643334Y-85542381D02*
X130310000Y-85066190D01*
X130071905Y-85542381D02*
X130071905Y-84542381D01*
X130452858Y-84542381D01*
X130548096Y-84590000D01*
X130595715Y-84637619D01*
X130643334Y-84732857D01*
X130643334Y-84875714D01*
X130595715Y-84970952D01*
X130548096Y-85018571D01*
X130452858Y-85066190D01*
X130071905Y-85066190D01*
X131024286Y-84637619D02*
X131071905Y-84590000D01*
X131167143Y-84542381D01*
X131405239Y-84542381D01*
X131500477Y-84590000D01*
X131548096Y-84637619D01*
X131595715Y-84732857D01*
X131595715Y-84828095D01*
X131548096Y-84970952D01*
X130976667Y-85542381D01*
X131595715Y-85542381D01*
X152868334Y-85542381D02*
X152535000Y-85066190D01*
X152296905Y-85542381D02*
X152296905Y-84542381D01*
X152677858Y-84542381D01*
X152773096Y-84590000D01*
X152820715Y-84637619D01*
X152868334Y-84732857D01*
X152868334Y-84875714D01*
X152820715Y-84970952D01*
X152773096Y-85018571D01*
X152677858Y-85066190D01*
X152296905Y-85066190D01*
X153201667Y-84542381D02*
X153820715Y-84542381D01*
X153487381Y-84923333D01*
X153630239Y-84923333D01*
X153725477Y-84970952D01*
X153773096Y-85018571D01*
X153820715Y-85113810D01*
X153820715Y-85351905D01*
X153773096Y-85447143D01*
X153725477Y-85494762D01*
X153630239Y-85542381D01*
X153344524Y-85542381D01*
X153249286Y-85494762D01*
X153201667Y-85447143D01*
X130623334Y-89297143D02*
X130575715Y-89344762D01*
X130432858Y-89392381D01*
X130337620Y-89392381D01*
X130194762Y-89344762D01*
X130099524Y-89249524D01*
X130051905Y-89154286D01*
X130004286Y-88963810D01*
X130004286Y-88820952D01*
X130051905Y-88630476D01*
X130099524Y-88535238D01*
X130194762Y-88440000D01*
X130337620Y-88392381D01*
X130432858Y-88392381D01*
X130575715Y-88440000D01*
X130623334Y-88487619D01*
X130956667Y-88392381D02*
X131575715Y-88392381D01*
X131242381Y-88773333D01*
X131385239Y-88773333D01*
X131480477Y-88820952D01*
X131528096Y-88868571D01*
X131575715Y-88963810D01*
X131575715Y-89201905D01*
X131528096Y-89297143D01*
X131480477Y-89344762D01*
X131385239Y-89392381D01*
X131099524Y-89392381D01*
X131004286Y-89344762D01*
X130956667Y-89297143D01*
X153483334Y-89297143D02*
X153435715Y-89344762D01*
X153292858Y-89392381D01*
X153197620Y-89392381D01*
X153054762Y-89344762D01*
X152959524Y-89249524D01*
X152911905Y-89154286D01*
X152864286Y-88963810D01*
X152864286Y-88820952D01*
X152911905Y-88630476D01*
X152959524Y-88535238D01*
X153054762Y-88440000D01*
X153197620Y-88392381D01*
X153292858Y-88392381D01*
X153435715Y-88440000D01*
X153483334Y-88487619D01*
X153864286Y-88487619D02*
X153911905Y-88440000D01*
X154007143Y-88392381D01*
X154245239Y-88392381D01*
X154340477Y-88440000D01*
X154388096Y-88487619D01*
X154435715Y-88582857D01*
X154435715Y-88678095D01*
X154388096Y-88820952D01*
X153816667Y-89392381D01*
X154435715Y-89392381D01*
X145288095Y-87082381D02*
X145859524Y-87082381D01*
X145573809Y-88082381D02*
X145573809Y-87082381D01*
X146716667Y-88082381D02*
X146145238Y-88082381D01*
X146430952Y-88082381D02*
X146430952Y-87082381D01*
X146335714Y-87225238D01*
X146240476Y-87320476D01*
X146145238Y-87368095D01*
X152233334Y-96242143D02*
X152185715Y-96289762D01*
X152042858Y-96337381D01*
X151947620Y-96337381D01*
X151804762Y-96289762D01*
X151709524Y-96194524D01*
X151661905Y-96099286D01*
X151614286Y-95908810D01*
X151614286Y-95765952D01*
X151661905Y-95575476D01*
X151709524Y-95480238D01*
X151804762Y-95385000D01*
X151947620Y-95337381D01*
X152042858Y-95337381D01*
X152185715Y-95385000D01*
X152233334Y-95432619D01*
X153185715Y-96337381D02*
X152614286Y-96337381D01*
X152900000Y-96337381D02*
X152900000Y-95337381D01*
X152804762Y-95480238D01*
X152709524Y-95575476D01*
X152614286Y-95623095D01*
X145311905Y-109037381D02*
X145311905Y-108037381D01*
X145550000Y-108037381D01*
X145692858Y-108085000D01*
X145788096Y-108180238D01*
X145835715Y-108275476D01*
X145883334Y-108465952D01*
X145883334Y-108608810D01*
X145835715Y-108799286D01*
X145788096Y-108894524D01*
X145692858Y-108989762D01*
X145550000Y-109037381D01*
X145311905Y-109037381D01*
X146835715Y-109037381D02*
X146264286Y-109037381D01*
X146550000Y-109037381D02*
X146550000Y-108037381D01*
X146454762Y-108180238D01*
X146359524Y-108275476D01*
X146264286Y-108323095D01*
X145883334Y-91797143D02*
X145835715Y-91844762D01*
X145692858Y-91892381D01*
X145597620Y-91892381D01*
X145454762Y-91844762D01*
X145359524Y-91749524D01*
X145311905Y-91654286D01*
X145264286Y-91463810D01*
X145264286Y-91320952D01*
X145311905Y-91130476D01*
X145359524Y-91035238D01*
X145454762Y-90940000D01*
X145597620Y-90892381D01*
X145692858Y-90892381D01*
X145835715Y-90940000D01*
X145883334Y-90987619D01*
X146740477Y-91225714D02*
X146740477Y-91892381D01*
X146502381Y-90844762D02*
X146264286Y-91559048D01*
X146883334Y-91559048D01*
X133183334Y-114752381D02*
X132707143Y-114752381D01*
X132707143Y-113752381D01*
X134040477Y-114752381D02*
X133469048Y-114752381D01*
X133754762Y-114752381D02*
X133754762Y-113752381D01*
X133659524Y-113895238D01*
X133564286Y-113990476D01*
X133469048Y-114038095D01*
X127936667Y-115022381D02*
X127936667Y-115736667D01*
X127889047Y-115879524D01*
X127793809Y-115974762D01*
X127650952Y-116022381D01*
X127555714Y-116022381D01*
X128936667Y-116022381D02*
X128365238Y-116022381D01*
X128650952Y-116022381D02*
X128650952Y-115022381D01*
X128555714Y-115165238D01*
X128460476Y-115260476D01*
X128365238Y-115308095D01*
M02*
