%FSLAX45Y45*%
G04 Gerber Fmt 4.5, Leading zero omitted, Abs format (unit mm)*
G04 Created by KiCad (PCBNEW 4.0.5+dfsg1-4) date Mon Feb 24 09:37:51 2020*
%MOMM*%
%LPD*%
G01*
G04 APERTURE LIST*
%ADD10C,0.127000*%
%ADD11C,0.150000*%
%ADD12C,0.200000*%
%ADD13C,0.300000*%
G04 APERTURE END LIST*
D10*
D11*
X11811000Y-6858000D02*
X16002000Y-6858000D01*
X11811000Y-12573000D02*
X11811000Y-6858000D01*
X15811500Y-12573000D02*
X11811000Y-12573000D01*
X16637000Y-12573000D02*
X15811500Y-12573000D01*
X16637000Y-6858000D02*
X16637000Y-12573000D01*
X16002000Y-6858000D02*
X16637000Y-6858000D01*
X16510000Y-12573000D02*
X16637000Y-12573000D01*
X15811500Y-12573000D02*
X16510000Y-12573000D01*
D12*
X12533000Y-7961000D02*
X12613000Y-8041000D01*
X12613000Y-7961000D02*
X12533000Y-8041000D01*
X12533000Y-8469000D02*
X12613000Y-8549000D01*
X12613000Y-8469000D02*
X12533000Y-8549000D01*
X12914000Y-9104000D02*
X12994000Y-9184000D01*
X12994000Y-9104000D02*
X12914000Y-9184000D01*
X13164000Y-9104000D02*
X13244000Y-9184000D01*
X13244000Y-9104000D02*
X13164000Y-9184000D01*
X13549000Y-7961000D02*
X13629000Y-8041000D01*
X13629000Y-7961000D02*
X13549000Y-8041000D01*
X13549000Y-8469000D02*
X13629000Y-8549000D01*
X13629000Y-8469000D02*
X13549000Y-8549000D01*
X14057000Y-9104000D02*
X14137000Y-9184000D01*
X14137000Y-9104000D02*
X14057000Y-9184000D01*
X14120500Y-8024500D02*
X14200500Y-8104500D01*
X14200500Y-8024500D02*
X14120500Y-8104500D01*
X14120500Y-8532500D02*
X14200500Y-8612500D01*
X14200500Y-8532500D02*
X14120500Y-8612500D01*
X14307000Y-9104000D02*
X14387000Y-9184000D01*
X14387000Y-9104000D02*
X14307000Y-9184000D01*
X14374500Y-8278500D02*
X14454500Y-8358500D01*
X14454500Y-8278500D02*
X14374500Y-8358500D01*
X14755500Y-8024500D02*
X14835500Y-8104500D01*
X14835500Y-8024500D02*
X14755500Y-8104500D01*
X14755500Y-8469000D02*
X14835500Y-8549000D01*
X14835500Y-8469000D02*
X14755500Y-8549000D01*
X15200000Y-9104000D02*
X15280000Y-9184000D01*
X15280000Y-9104000D02*
X15200000Y-9184000D01*
X15200000Y-10001000D02*
X15280000Y-10081000D01*
X15280000Y-10001000D02*
X15200000Y-10081000D01*
X15200000Y-10501000D02*
X15280000Y-10581000D01*
X15280000Y-10501000D02*
X15200000Y-10581000D01*
X15450000Y-9104000D02*
X15530000Y-9184000D01*
X15530000Y-9104000D02*
X15450000Y-9184000D01*
X15771500Y-8024500D02*
X15851500Y-8104500D01*
X15851500Y-8024500D02*
X15771500Y-8104500D01*
X15771500Y-8469000D02*
X15851500Y-8549000D01*
X15851500Y-8469000D02*
X15771500Y-8549000D01*
X12496000Y-9652000D02*
G75*
G03X12496000Y-9652000I-50000J0D01*
G01*
X12496000Y-10922000D02*
G75*
G03X12496000Y-10922000I-50000J0D01*
G01*
X13004000Y-11938000D02*
G75*
G03X13004000Y-11938000I-50000J0D01*
G01*
X13258000Y-7493000D02*
G75*
G03X13258000Y-7493000I-50000J0D01*
G01*
X13512000Y-7493000D02*
G75*
G03X13512000Y-7493000I-50000J0D01*
G01*
X13512000Y-11938000D02*
G75*
G03X13512000Y-11938000I-50000J0D01*
G01*
X14020000Y-11938000D02*
G75*
G03X14020000Y-11938000I-50000J0D01*
G01*
X14147000Y-7493000D02*
G75*
G03X14147000Y-7493000I-50000J0D01*
G01*
X14274000Y-9652000D02*
G75*
G03X14274000Y-9652000I-50000J0D01*
G01*
X14274000Y-10922000D02*
G75*
G03X14274000Y-10922000I-50000J0D01*
G01*
X14401000Y-7493000D02*
G75*
G03X14401000Y-7493000I-50000J0D01*
G01*
X14528000Y-11938000D02*
G75*
G03X14528000Y-11938000I-50000J0D01*
G01*
X14718500Y-11239500D02*
G75*
G03X14718500Y-11239500I-50000J0D01*
G01*
X15036000Y-7493000D02*
G75*
G03X15036000Y-7493000I-50000J0D01*
G01*
X15036000Y-11938000D02*
G75*
G03X15036000Y-11938000I-50000J0D01*
G01*
X15290000Y-7493000D02*
G75*
G03X15290000Y-7493000I-50000J0D01*
G01*
X15544000Y-11938000D02*
G75*
G03X15544000Y-11938000I-50000J0D01*
G01*
X16242500Y-11239500D02*
G75*
G03X16242500Y-11239500I-50000J0D01*
G01*
X12192000Y-7064000D02*
X12192000Y-7414000D01*
X12017000Y-7239000D02*
X12367000Y-7239000D01*
X12192000Y-12017000D02*
X12192000Y-12367000D01*
X12017000Y-12192000D02*
X12367000Y-12192000D01*
X13335000Y-10112000D02*
X13335000Y-10462000D01*
X13160000Y-10287000D02*
X13510000Y-10287000D01*
X16192500Y-7064000D02*
X16192500Y-7414000D01*
X16017500Y-7239000D02*
X16367500Y-7239000D01*
X16192500Y-12017000D02*
X16192500Y-12367000D01*
X16017500Y-12192000D02*
X16367500Y-12192000D01*
D13*
X12074928Y-13046214D02*
X12074928Y-12746214D01*
X12146357Y-12746214D01*
X12189214Y-12760500D01*
X12217786Y-12789071D01*
X12232071Y-12817643D01*
X12246357Y-12874786D01*
X12246357Y-12917643D01*
X12232071Y-12974786D01*
X12217786Y-13003357D01*
X12189214Y-13031929D01*
X12146357Y-13046214D01*
X12074928Y-13046214D01*
X12374928Y-13046214D02*
X12374928Y-12846214D01*
X12374928Y-12903357D02*
X12389214Y-12874786D01*
X12403500Y-12860500D01*
X12432071Y-12846214D01*
X12460643Y-12846214D01*
X12560643Y-13046214D02*
X12560643Y-12846214D01*
X12560643Y-12746214D02*
X12546357Y-12760500D01*
X12560643Y-12774786D01*
X12574928Y-12760500D01*
X12560643Y-12746214D01*
X12560643Y-12774786D01*
X12746357Y-13046214D02*
X12717786Y-13031929D01*
X12703500Y-13003357D01*
X12703500Y-12746214D01*
X12903500Y-13046214D02*
X12874928Y-13031929D01*
X12860643Y-13003357D01*
X12860643Y-12746214D01*
X13246357Y-13046214D02*
X13246357Y-12746214D01*
X13346357Y-12960500D01*
X13446357Y-12746214D01*
X13446357Y-13046214D01*
X13717786Y-13046214D02*
X13717786Y-12889071D01*
X13703500Y-12860500D01*
X13674928Y-12846214D01*
X13617786Y-12846214D01*
X13589214Y-12860500D01*
X13717786Y-13031929D02*
X13689214Y-13046214D01*
X13617786Y-13046214D01*
X13589214Y-13031929D01*
X13574928Y-13003357D01*
X13574928Y-12974786D01*
X13589214Y-12946214D01*
X13617786Y-12931929D01*
X13689214Y-12931929D01*
X13717786Y-12917643D01*
X13860643Y-12846214D02*
X13860643Y-13146214D01*
X13860643Y-12860500D02*
X13889214Y-12846214D01*
X13946357Y-12846214D01*
X13974928Y-12860500D01*
X13989214Y-12874786D01*
X14003500Y-12903357D01*
X14003500Y-12989071D01*
X13989214Y-13017643D01*
X13974928Y-13031929D01*
X13946357Y-13046214D01*
X13889214Y-13046214D01*
X13860643Y-13031929D01*
X14132071Y-13017643D02*
X14146357Y-13031929D01*
X14132071Y-13046214D01*
X14117786Y-13031929D01*
X14132071Y-13017643D01*
X14132071Y-13046214D01*
X14132071Y-12860500D02*
X14146357Y-12874786D01*
X14132071Y-12889071D01*
X14117786Y-12874786D01*
X14132071Y-12860500D01*
X14132071Y-12889071D01*
X11723500Y-13500500D02*
X11803500Y-13580500D01*
X11803500Y-13500500D02*
X11723500Y-13580500D01*
X12132071Y-13376214D02*
X12160643Y-13376214D01*
X12189214Y-13390500D01*
X12203500Y-13404786D01*
X12217786Y-13433357D01*
X12232071Y-13490500D01*
X12232071Y-13561929D01*
X12217786Y-13619071D01*
X12203500Y-13647643D01*
X12189214Y-13661929D01*
X12160643Y-13676214D01*
X12132071Y-13676214D01*
X12103500Y-13661929D01*
X12089214Y-13647643D01*
X12074928Y-13619071D01*
X12060643Y-13561929D01*
X12060643Y-13490500D01*
X12074928Y-13433357D01*
X12089214Y-13404786D01*
X12103500Y-13390500D01*
X12132071Y-13376214D01*
X12360643Y-13647643D02*
X12374928Y-13661929D01*
X12360643Y-13676214D01*
X12346357Y-13661929D01*
X12360643Y-13647643D01*
X12360643Y-13676214D01*
X12546357Y-13504786D02*
X12517786Y-13490500D01*
X12503500Y-13476214D01*
X12489214Y-13447643D01*
X12489214Y-13433357D01*
X12503500Y-13404786D01*
X12517786Y-13390500D01*
X12546357Y-13376214D01*
X12603500Y-13376214D01*
X12632071Y-13390500D01*
X12646357Y-13404786D01*
X12660643Y-13433357D01*
X12660643Y-13447643D01*
X12646357Y-13476214D01*
X12632071Y-13490500D01*
X12603500Y-13504786D01*
X12546357Y-13504786D01*
X12517786Y-13519071D01*
X12503500Y-13533357D01*
X12489214Y-13561929D01*
X12489214Y-13619071D01*
X12503500Y-13647643D01*
X12517786Y-13661929D01*
X12546357Y-13676214D01*
X12603500Y-13676214D01*
X12632071Y-13661929D01*
X12646357Y-13647643D01*
X12660643Y-13619071D01*
X12660643Y-13561929D01*
X12646357Y-13533357D01*
X12632071Y-13519071D01*
X12603500Y-13504786D01*
X12846357Y-13376214D02*
X12874928Y-13376214D01*
X12903500Y-13390500D01*
X12917786Y-13404786D01*
X12932071Y-13433357D01*
X12946357Y-13490500D01*
X12946357Y-13561929D01*
X12932071Y-13619071D01*
X12917786Y-13647643D01*
X12903500Y-13661929D01*
X12874928Y-13676214D01*
X12846357Y-13676214D01*
X12817786Y-13661929D01*
X12803500Y-13647643D01*
X12789214Y-13619071D01*
X12774928Y-13561929D01*
X12774928Y-13490500D01*
X12789214Y-13433357D01*
X12803500Y-13404786D01*
X12817786Y-13390500D01*
X12846357Y-13376214D01*
X13074928Y-13676214D02*
X13074928Y-13476214D01*
X13074928Y-13504786D02*
X13089214Y-13490500D01*
X13117786Y-13476214D01*
X13160643Y-13476214D01*
X13189214Y-13490500D01*
X13203500Y-13519071D01*
X13203500Y-13676214D01*
X13203500Y-13519071D02*
X13217786Y-13490500D01*
X13246357Y-13476214D01*
X13289214Y-13476214D01*
X13317786Y-13490500D01*
X13332071Y-13519071D01*
X13332071Y-13676214D01*
X13474928Y-13676214D02*
X13474928Y-13476214D01*
X13474928Y-13504786D02*
X13489214Y-13490500D01*
X13517786Y-13476214D01*
X13560643Y-13476214D01*
X13589214Y-13490500D01*
X13603500Y-13519071D01*
X13603500Y-13676214D01*
X13603500Y-13519071D02*
X13617786Y-13490500D01*
X13646357Y-13476214D01*
X13689214Y-13476214D01*
X13717786Y-13490500D01*
X13732071Y-13519071D01*
X13732071Y-13676214D01*
X14317786Y-13361929D02*
X14060643Y-13747643D01*
X14703500Y-13376214D02*
X14732071Y-13376214D01*
X14760643Y-13390500D01*
X14774928Y-13404786D01*
X14789214Y-13433357D01*
X14803500Y-13490500D01*
X14803500Y-13561929D01*
X14789214Y-13619071D01*
X14774928Y-13647643D01*
X14760643Y-13661929D01*
X14732071Y-13676214D01*
X14703500Y-13676214D01*
X14674928Y-13661929D01*
X14660643Y-13647643D01*
X14646357Y-13619071D01*
X14632071Y-13561929D01*
X14632071Y-13490500D01*
X14646357Y-13433357D01*
X14660643Y-13404786D01*
X14674928Y-13390500D01*
X14703500Y-13376214D01*
X14932071Y-13647643D02*
X14946357Y-13661929D01*
X14932071Y-13676214D01*
X14917786Y-13661929D01*
X14932071Y-13647643D01*
X14932071Y-13676214D01*
X15132071Y-13376214D02*
X15160643Y-13376214D01*
X15189214Y-13390500D01*
X15203500Y-13404786D01*
X15217785Y-13433357D01*
X15232071Y-13490500D01*
X15232071Y-13561929D01*
X15217785Y-13619071D01*
X15203500Y-13647643D01*
X15189214Y-13661929D01*
X15160643Y-13676214D01*
X15132071Y-13676214D01*
X15103500Y-13661929D01*
X15089214Y-13647643D01*
X15074928Y-13619071D01*
X15060643Y-13561929D01*
X15060643Y-13490500D01*
X15074928Y-13433357D01*
X15089214Y-13404786D01*
X15103500Y-13390500D01*
X15132071Y-13376214D01*
X15332071Y-13376214D02*
X15517785Y-13376214D01*
X15417785Y-13490500D01*
X15460643Y-13490500D01*
X15489214Y-13504786D01*
X15503500Y-13519071D01*
X15517785Y-13547643D01*
X15517785Y-13619071D01*
X15503500Y-13647643D01*
X15489214Y-13661929D01*
X15460643Y-13676214D01*
X15374928Y-13676214D01*
X15346357Y-13661929D01*
X15332071Y-13647643D01*
X15803500Y-13676214D02*
X15632071Y-13676214D01*
X15717785Y-13676214D02*
X15717785Y-13376214D01*
X15689214Y-13419071D01*
X15660643Y-13447643D01*
X15632071Y-13461929D01*
X15917786Y-13376214D02*
X15917786Y-13433357D01*
X16032071Y-13376214D02*
X16032071Y-13433357D01*
X16474928Y-13790500D02*
X16460643Y-13776214D01*
X16432071Y-13733357D01*
X16417785Y-13704786D01*
X16403500Y-13661929D01*
X16389214Y-13590500D01*
X16389214Y-13533357D01*
X16403500Y-13461929D01*
X16417785Y-13419071D01*
X16432071Y-13390500D01*
X16460643Y-13347643D01*
X16474928Y-13333357D01*
X16746357Y-13676214D02*
X16574928Y-13676214D01*
X16660643Y-13676214D02*
X16660643Y-13376214D01*
X16632071Y-13419071D01*
X16603500Y-13447643D01*
X16574928Y-13461929D01*
X16889214Y-13676214D02*
X16946357Y-13676214D01*
X16974928Y-13661929D01*
X16989214Y-13647643D01*
X17017786Y-13604786D01*
X17032071Y-13547643D01*
X17032071Y-13433357D01*
X17017786Y-13404786D01*
X17003500Y-13390500D01*
X16974928Y-13376214D01*
X16917786Y-13376214D01*
X16889214Y-13390500D01*
X16874928Y-13404786D01*
X16860643Y-13433357D01*
X16860643Y-13504786D01*
X16874928Y-13533357D01*
X16889214Y-13547643D01*
X16917786Y-13561929D01*
X16974928Y-13561929D01*
X17003500Y-13547643D01*
X17017786Y-13533357D01*
X17032071Y-13504786D01*
X17389214Y-13676214D02*
X17389214Y-13376214D01*
X17517786Y-13676214D02*
X17517786Y-13519071D01*
X17503500Y-13490500D01*
X17474928Y-13476214D01*
X17432071Y-13476214D01*
X17403500Y-13490500D01*
X17389214Y-13504786D01*
X17703500Y-13676214D02*
X17674928Y-13661929D01*
X17660643Y-13647643D01*
X17646357Y-13619071D01*
X17646357Y-13533357D01*
X17660643Y-13504786D01*
X17674928Y-13490500D01*
X17703500Y-13476214D01*
X17746357Y-13476214D01*
X17774928Y-13490500D01*
X17789214Y-13504786D01*
X17803500Y-13533357D01*
X17803500Y-13619071D01*
X17789214Y-13647643D01*
X17774928Y-13661929D01*
X17746357Y-13676214D01*
X17703500Y-13676214D01*
X17974928Y-13676214D02*
X17946357Y-13661929D01*
X17932071Y-13633357D01*
X17932071Y-13376214D01*
X18203500Y-13661929D02*
X18174929Y-13676214D01*
X18117786Y-13676214D01*
X18089214Y-13661929D01*
X18074929Y-13633357D01*
X18074929Y-13519071D01*
X18089214Y-13490500D01*
X18117786Y-13476214D01*
X18174929Y-13476214D01*
X18203500Y-13490500D01*
X18217786Y-13519071D01*
X18217786Y-13547643D01*
X18074929Y-13576214D01*
X18332071Y-13661929D02*
X18360643Y-13676214D01*
X18417786Y-13676214D01*
X18446357Y-13661929D01*
X18460643Y-13633357D01*
X18460643Y-13619071D01*
X18446357Y-13590500D01*
X18417786Y-13576214D01*
X18374929Y-13576214D01*
X18346357Y-13561929D01*
X18332071Y-13533357D01*
X18332071Y-13519071D01*
X18346357Y-13490500D01*
X18374929Y-13476214D01*
X18417786Y-13476214D01*
X18446357Y-13490500D01*
X18560643Y-13790500D02*
X18574929Y-13776214D01*
X18603500Y-13733357D01*
X18617786Y-13704786D01*
X18632071Y-13661929D01*
X18646357Y-13590500D01*
X18646357Y-13533357D01*
X18632071Y-13461929D01*
X18617786Y-13419071D01*
X18603500Y-13390500D01*
X18574929Y-13347643D01*
X18560643Y-13333357D01*
X11803500Y-13936500D02*
G75*
G03X11803500Y-13936500I-50000J0D01*
G01*
X12232071Y-14072214D02*
X12060643Y-14072214D01*
X12146357Y-14072214D02*
X12146357Y-13772214D01*
X12117786Y-13815071D01*
X12089214Y-13843643D01*
X12060643Y-13857929D01*
X12360643Y-14043643D02*
X12374928Y-14057929D01*
X12360643Y-14072214D01*
X12346357Y-14057929D01*
X12360643Y-14043643D01*
X12360643Y-14072214D01*
X12560643Y-13772214D02*
X12589214Y-13772214D01*
X12617786Y-13786500D01*
X12632071Y-13800786D01*
X12646357Y-13829357D01*
X12660643Y-13886500D01*
X12660643Y-13957929D01*
X12646357Y-14015071D01*
X12632071Y-14043643D01*
X12617786Y-14057929D01*
X12589214Y-14072214D01*
X12560643Y-14072214D01*
X12532071Y-14057929D01*
X12517786Y-14043643D01*
X12503500Y-14015071D01*
X12489214Y-13957929D01*
X12489214Y-13886500D01*
X12503500Y-13829357D01*
X12517786Y-13800786D01*
X12532071Y-13786500D01*
X12560643Y-13772214D01*
X12846357Y-13772214D02*
X12874928Y-13772214D01*
X12903500Y-13786500D01*
X12917786Y-13800786D01*
X12932071Y-13829357D01*
X12946357Y-13886500D01*
X12946357Y-13957929D01*
X12932071Y-14015071D01*
X12917786Y-14043643D01*
X12903500Y-14057929D01*
X12874928Y-14072214D01*
X12846357Y-14072214D01*
X12817786Y-14057929D01*
X12803500Y-14043643D01*
X12789214Y-14015071D01*
X12774928Y-13957929D01*
X12774928Y-13886500D01*
X12789214Y-13829357D01*
X12803500Y-13800786D01*
X12817786Y-13786500D01*
X12846357Y-13772214D01*
X13074928Y-14072214D02*
X13074928Y-13872214D01*
X13074928Y-13900786D02*
X13089214Y-13886500D01*
X13117786Y-13872214D01*
X13160643Y-13872214D01*
X13189214Y-13886500D01*
X13203500Y-13915071D01*
X13203500Y-14072214D01*
X13203500Y-13915071D02*
X13217786Y-13886500D01*
X13246357Y-13872214D01*
X13289214Y-13872214D01*
X13317786Y-13886500D01*
X13332071Y-13915071D01*
X13332071Y-14072214D01*
X13474928Y-14072214D02*
X13474928Y-13872214D01*
X13474928Y-13900786D02*
X13489214Y-13886500D01*
X13517786Y-13872214D01*
X13560643Y-13872214D01*
X13589214Y-13886500D01*
X13603500Y-13915071D01*
X13603500Y-14072214D01*
X13603500Y-13915071D02*
X13617786Y-13886500D01*
X13646357Y-13872214D01*
X13689214Y-13872214D01*
X13717786Y-13886500D01*
X13732071Y-13915071D01*
X13732071Y-14072214D01*
X14317786Y-13757929D02*
X14060643Y-14143643D01*
X14703500Y-13772214D02*
X14732071Y-13772214D01*
X14760643Y-13786500D01*
X14774928Y-13800786D01*
X14789214Y-13829357D01*
X14803500Y-13886500D01*
X14803500Y-13957929D01*
X14789214Y-14015071D01*
X14774928Y-14043643D01*
X14760643Y-14057929D01*
X14732071Y-14072214D01*
X14703500Y-14072214D01*
X14674928Y-14057929D01*
X14660643Y-14043643D01*
X14646357Y-14015071D01*
X14632071Y-13957929D01*
X14632071Y-13886500D01*
X14646357Y-13829357D01*
X14660643Y-13800786D01*
X14674928Y-13786500D01*
X14703500Y-13772214D01*
X14932071Y-14043643D02*
X14946357Y-14057929D01*
X14932071Y-14072214D01*
X14917786Y-14057929D01*
X14932071Y-14043643D01*
X14932071Y-14072214D01*
X15132071Y-13772214D02*
X15160643Y-13772214D01*
X15189214Y-13786500D01*
X15203500Y-13800786D01*
X15217785Y-13829357D01*
X15232071Y-13886500D01*
X15232071Y-13957929D01*
X15217785Y-14015071D01*
X15203500Y-14043643D01*
X15189214Y-14057929D01*
X15160643Y-14072214D01*
X15132071Y-14072214D01*
X15103500Y-14057929D01*
X15089214Y-14043643D01*
X15074928Y-14015071D01*
X15060643Y-13957929D01*
X15060643Y-13886500D01*
X15074928Y-13829357D01*
X15089214Y-13800786D01*
X15103500Y-13786500D01*
X15132071Y-13772214D01*
X15332071Y-13772214D02*
X15517785Y-13772214D01*
X15417785Y-13886500D01*
X15460643Y-13886500D01*
X15489214Y-13900786D01*
X15503500Y-13915071D01*
X15517785Y-13943643D01*
X15517785Y-14015071D01*
X15503500Y-14043643D01*
X15489214Y-14057929D01*
X15460643Y-14072214D01*
X15374928Y-14072214D01*
X15346357Y-14057929D01*
X15332071Y-14043643D01*
X15660643Y-14072214D02*
X15717785Y-14072214D01*
X15746357Y-14057929D01*
X15760643Y-14043643D01*
X15789214Y-14000786D01*
X15803500Y-13943643D01*
X15803500Y-13829357D01*
X15789214Y-13800786D01*
X15774928Y-13786500D01*
X15746357Y-13772214D01*
X15689214Y-13772214D01*
X15660643Y-13786500D01*
X15646357Y-13800786D01*
X15632071Y-13829357D01*
X15632071Y-13900786D01*
X15646357Y-13929357D01*
X15660643Y-13943643D01*
X15689214Y-13957929D01*
X15746357Y-13957929D01*
X15774928Y-13943643D01*
X15789214Y-13929357D01*
X15803500Y-13900786D01*
X15917786Y-13772214D02*
X15917786Y-13829357D01*
X16032071Y-13772214D02*
X16032071Y-13829357D01*
X16474928Y-14186500D02*
X16460643Y-14172214D01*
X16432071Y-14129357D01*
X16417785Y-14100786D01*
X16403500Y-14057929D01*
X16389214Y-13986500D01*
X16389214Y-13929357D01*
X16403500Y-13857929D01*
X16417785Y-13815071D01*
X16432071Y-13786500D01*
X16460643Y-13743643D01*
X16474928Y-13729357D01*
X16746357Y-14072214D02*
X16574928Y-14072214D01*
X16660643Y-14072214D02*
X16660643Y-13772214D01*
X16632071Y-13815071D01*
X16603500Y-13843643D01*
X16574928Y-13857929D01*
X16917786Y-13900786D02*
X16889214Y-13886500D01*
X16874928Y-13872214D01*
X16860643Y-13843643D01*
X16860643Y-13829357D01*
X16874928Y-13800786D01*
X16889214Y-13786500D01*
X16917786Y-13772214D01*
X16974928Y-13772214D01*
X17003500Y-13786500D01*
X17017786Y-13800786D01*
X17032071Y-13829357D01*
X17032071Y-13843643D01*
X17017786Y-13872214D01*
X17003500Y-13886500D01*
X16974928Y-13900786D01*
X16917786Y-13900786D01*
X16889214Y-13915071D01*
X16874928Y-13929357D01*
X16860643Y-13957929D01*
X16860643Y-14015071D01*
X16874928Y-14043643D01*
X16889214Y-14057929D01*
X16917786Y-14072214D01*
X16974928Y-14072214D01*
X17003500Y-14057929D01*
X17017786Y-14043643D01*
X17032071Y-14015071D01*
X17032071Y-13957929D01*
X17017786Y-13929357D01*
X17003500Y-13915071D01*
X16974928Y-13900786D01*
X17389214Y-14072214D02*
X17389214Y-13772214D01*
X17517786Y-14072214D02*
X17517786Y-13915071D01*
X17503500Y-13886500D01*
X17474928Y-13872214D01*
X17432071Y-13872214D01*
X17403500Y-13886500D01*
X17389214Y-13900786D01*
X17703500Y-14072214D02*
X17674928Y-14057929D01*
X17660643Y-14043643D01*
X17646357Y-14015071D01*
X17646357Y-13929357D01*
X17660643Y-13900786D01*
X17674928Y-13886500D01*
X17703500Y-13872214D01*
X17746357Y-13872214D01*
X17774928Y-13886500D01*
X17789214Y-13900786D01*
X17803500Y-13929357D01*
X17803500Y-14015071D01*
X17789214Y-14043643D01*
X17774928Y-14057929D01*
X17746357Y-14072214D01*
X17703500Y-14072214D01*
X17974928Y-14072214D02*
X17946357Y-14057929D01*
X17932071Y-14029357D01*
X17932071Y-13772214D01*
X18203500Y-14057929D02*
X18174929Y-14072214D01*
X18117786Y-14072214D01*
X18089214Y-14057929D01*
X18074929Y-14029357D01*
X18074929Y-13915071D01*
X18089214Y-13886500D01*
X18117786Y-13872214D01*
X18174929Y-13872214D01*
X18203500Y-13886500D01*
X18217786Y-13915071D01*
X18217786Y-13943643D01*
X18074929Y-13972214D01*
X18332071Y-14057929D02*
X18360643Y-14072214D01*
X18417786Y-14072214D01*
X18446357Y-14057929D01*
X18460643Y-14029357D01*
X18460643Y-14015071D01*
X18446357Y-13986500D01*
X18417786Y-13972214D01*
X18374929Y-13972214D01*
X18346357Y-13957929D01*
X18332071Y-13929357D01*
X18332071Y-13915071D01*
X18346357Y-13886500D01*
X18374929Y-13872214D01*
X18417786Y-13872214D01*
X18446357Y-13886500D01*
X18560643Y-14186500D02*
X18574929Y-14172214D01*
X18603500Y-14129357D01*
X18617786Y-14100786D01*
X18632071Y-14057929D01*
X18646357Y-13986500D01*
X18646357Y-13929357D01*
X18632071Y-13857929D01*
X18617786Y-13815071D01*
X18603500Y-13786500D01*
X18574929Y-13743643D01*
X18560643Y-13729357D01*
X11628500Y-14157500D02*
X11628500Y-14507500D01*
X11453500Y-14332500D02*
X11803500Y-14332500D01*
X12046357Y-14168214D02*
X12232071Y-14168214D01*
X12132071Y-14282500D01*
X12174928Y-14282500D01*
X12203500Y-14296786D01*
X12217786Y-14311071D01*
X12232071Y-14339643D01*
X12232071Y-14411071D01*
X12217786Y-14439643D01*
X12203500Y-14453929D01*
X12174928Y-14468214D01*
X12089214Y-14468214D01*
X12060643Y-14453929D01*
X12046357Y-14439643D01*
X12360643Y-14439643D02*
X12374928Y-14453929D01*
X12360643Y-14468214D01*
X12346357Y-14453929D01*
X12360643Y-14439643D01*
X12360643Y-14468214D01*
X12646357Y-14168214D02*
X12503500Y-14168214D01*
X12489214Y-14311071D01*
X12503500Y-14296786D01*
X12532071Y-14282500D01*
X12603500Y-14282500D01*
X12632071Y-14296786D01*
X12646357Y-14311071D01*
X12660643Y-14339643D01*
X12660643Y-14411071D01*
X12646357Y-14439643D01*
X12632071Y-14453929D01*
X12603500Y-14468214D01*
X12532071Y-14468214D01*
X12503500Y-14453929D01*
X12489214Y-14439643D01*
X12846357Y-14168214D02*
X12874928Y-14168214D01*
X12903500Y-14182500D01*
X12917786Y-14196786D01*
X12932071Y-14225357D01*
X12946357Y-14282500D01*
X12946357Y-14353929D01*
X12932071Y-14411071D01*
X12917786Y-14439643D01*
X12903500Y-14453929D01*
X12874928Y-14468214D01*
X12846357Y-14468214D01*
X12817786Y-14453929D01*
X12803500Y-14439643D01*
X12789214Y-14411071D01*
X12774928Y-14353929D01*
X12774928Y-14282500D01*
X12789214Y-14225357D01*
X12803500Y-14196786D01*
X12817786Y-14182500D01*
X12846357Y-14168214D01*
X13074928Y-14468214D02*
X13074928Y-14268214D01*
X13074928Y-14296786D02*
X13089214Y-14282500D01*
X13117786Y-14268214D01*
X13160643Y-14268214D01*
X13189214Y-14282500D01*
X13203500Y-14311071D01*
X13203500Y-14468214D01*
X13203500Y-14311071D02*
X13217786Y-14282500D01*
X13246357Y-14268214D01*
X13289214Y-14268214D01*
X13317786Y-14282500D01*
X13332071Y-14311071D01*
X13332071Y-14468214D01*
X13474928Y-14468214D02*
X13474928Y-14268214D01*
X13474928Y-14296786D02*
X13489214Y-14282500D01*
X13517786Y-14268214D01*
X13560643Y-14268214D01*
X13589214Y-14282500D01*
X13603500Y-14311071D01*
X13603500Y-14468214D01*
X13603500Y-14311071D02*
X13617786Y-14282500D01*
X13646357Y-14268214D01*
X13689214Y-14268214D01*
X13717786Y-14282500D01*
X13732071Y-14311071D01*
X13732071Y-14468214D01*
X14317786Y-14153929D02*
X14060643Y-14539643D01*
X14703500Y-14168214D02*
X14732071Y-14168214D01*
X14760643Y-14182500D01*
X14774928Y-14196786D01*
X14789214Y-14225357D01*
X14803500Y-14282500D01*
X14803500Y-14353929D01*
X14789214Y-14411071D01*
X14774928Y-14439643D01*
X14760643Y-14453929D01*
X14732071Y-14468214D01*
X14703500Y-14468214D01*
X14674928Y-14453929D01*
X14660643Y-14439643D01*
X14646357Y-14411071D01*
X14632071Y-14353929D01*
X14632071Y-14282500D01*
X14646357Y-14225357D01*
X14660643Y-14196786D01*
X14674928Y-14182500D01*
X14703500Y-14168214D01*
X14932071Y-14439643D02*
X14946357Y-14453929D01*
X14932071Y-14468214D01*
X14917786Y-14453929D01*
X14932071Y-14439643D01*
X14932071Y-14468214D01*
X15232071Y-14468214D02*
X15060643Y-14468214D01*
X15146357Y-14468214D02*
X15146357Y-14168214D01*
X15117785Y-14211071D01*
X15089214Y-14239643D01*
X15060643Y-14253929D01*
X15332071Y-14168214D02*
X15517785Y-14168214D01*
X15417785Y-14282500D01*
X15460643Y-14282500D01*
X15489214Y-14296786D01*
X15503500Y-14311071D01*
X15517785Y-14339643D01*
X15517785Y-14411071D01*
X15503500Y-14439643D01*
X15489214Y-14453929D01*
X15460643Y-14468214D01*
X15374928Y-14468214D01*
X15346357Y-14453929D01*
X15332071Y-14439643D01*
X15689214Y-14296786D02*
X15660643Y-14282500D01*
X15646357Y-14268214D01*
X15632071Y-14239643D01*
X15632071Y-14225357D01*
X15646357Y-14196786D01*
X15660643Y-14182500D01*
X15689214Y-14168214D01*
X15746357Y-14168214D01*
X15774928Y-14182500D01*
X15789214Y-14196786D01*
X15803500Y-14225357D01*
X15803500Y-14239643D01*
X15789214Y-14268214D01*
X15774928Y-14282500D01*
X15746357Y-14296786D01*
X15689214Y-14296786D01*
X15660643Y-14311071D01*
X15646357Y-14325357D01*
X15632071Y-14353929D01*
X15632071Y-14411071D01*
X15646357Y-14439643D01*
X15660643Y-14453929D01*
X15689214Y-14468214D01*
X15746357Y-14468214D01*
X15774928Y-14453929D01*
X15789214Y-14439643D01*
X15803500Y-14411071D01*
X15803500Y-14353929D01*
X15789214Y-14325357D01*
X15774928Y-14311071D01*
X15746357Y-14296786D01*
X15917786Y-14168214D02*
X15917786Y-14225357D01*
X16032071Y-14168214D02*
X16032071Y-14225357D01*
X16474928Y-14582500D02*
X16460643Y-14568214D01*
X16432071Y-14525357D01*
X16417785Y-14496786D01*
X16403500Y-14453929D01*
X16389214Y-14382500D01*
X16389214Y-14325357D01*
X16403500Y-14253929D01*
X16417785Y-14211071D01*
X16432071Y-14182500D01*
X16460643Y-14139643D01*
X16474928Y-14125357D01*
X16732071Y-14168214D02*
X16589214Y-14168214D01*
X16574928Y-14311071D01*
X16589214Y-14296786D01*
X16617785Y-14282500D01*
X16689214Y-14282500D01*
X16717785Y-14296786D01*
X16732071Y-14311071D01*
X16746357Y-14339643D01*
X16746357Y-14411071D01*
X16732071Y-14439643D01*
X16717785Y-14453929D01*
X16689214Y-14468214D01*
X16617785Y-14468214D01*
X16589214Y-14453929D01*
X16574928Y-14439643D01*
X17103500Y-14468214D02*
X17103500Y-14168214D01*
X17232071Y-14468214D02*
X17232071Y-14311071D01*
X17217786Y-14282500D01*
X17189214Y-14268214D01*
X17146357Y-14268214D01*
X17117786Y-14282500D01*
X17103500Y-14296786D01*
X17417786Y-14468214D02*
X17389214Y-14453929D01*
X17374928Y-14439643D01*
X17360643Y-14411071D01*
X17360643Y-14325357D01*
X17374928Y-14296786D01*
X17389214Y-14282500D01*
X17417786Y-14268214D01*
X17460643Y-14268214D01*
X17489214Y-14282500D01*
X17503500Y-14296786D01*
X17517786Y-14325357D01*
X17517786Y-14411071D01*
X17503500Y-14439643D01*
X17489214Y-14453929D01*
X17460643Y-14468214D01*
X17417786Y-14468214D01*
X17689214Y-14468214D02*
X17660643Y-14453929D01*
X17646357Y-14425357D01*
X17646357Y-14168214D01*
X17917786Y-14453929D02*
X17889214Y-14468214D01*
X17832071Y-14468214D01*
X17803500Y-14453929D01*
X17789214Y-14425357D01*
X17789214Y-14311071D01*
X17803500Y-14282500D01*
X17832071Y-14268214D01*
X17889214Y-14268214D01*
X17917786Y-14282500D01*
X17932071Y-14311071D01*
X17932071Y-14339643D01*
X17789214Y-14368214D01*
X18046357Y-14453929D02*
X18074929Y-14468214D01*
X18132071Y-14468214D01*
X18160643Y-14453929D01*
X18174929Y-14425357D01*
X18174929Y-14411071D01*
X18160643Y-14382500D01*
X18132071Y-14368214D01*
X18089214Y-14368214D01*
X18060643Y-14353929D01*
X18046357Y-14325357D01*
X18046357Y-14311071D01*
X18060643Y-14282500D01*
X18089214Y-14268214D01*
X18132071Y-14268214D01*
X18160643Y-14282500D01*
X18274928Y-14582500D02*
X18289214Y-14568214D01*
X18317786Y-14525357D01*
X18332071Y-14496786D01*
X18346357Y-14453929D01*
X18360643Y-14382500D01*
X18360643Y-14325357D01*
X18346357Y-14253929D01*
X18332071Y-14211071D01*
X18317786Y-14182500D01*
X18289214Y-14139643D01*
X18274928Y-14125357D01*
M02*
