%TF.GenerationSoftware,KiCad,Pcbnew,4.0.7*%
%TF.CreationDate,2020-03-02T22:48:25+01:00*%
%TF.ProjectId,mm5d,6D6D35642E6B696361645F7063620000,191101*%
%TF.FileFunction,Soldermask,Bot*%
%FSLAX46Y46*%
G04 Gerber Fmt 4.6, Leading zero omitted, Abs format (unit mm)*
G04 Created by KiCad (PCBNEW 4.0.7) date 03/02/20 22:48:25*
%MOMM*%
%LPD*%
G01*
G04 APERTURE LIST*
%ADD10C,0.150000*%
%ADD11C,2.899360*%
%ADD12R,2.432000X2.432000*%
%ADD13O,2.432000X2.432000*%
%ADD14C,5.800000*%
%ADD15C,1.924000*%
%ADD16R,1.700000X1.700000*%
%ADD17C,1.700000*%
%ADD18C,2.051000*%
%ADD19R,2.051000X2.051000*%
%ADD20C,2.940000*%
%ADD21R,2.940000X2.940000*%
%ADD22C,15.640000*%
G04 APERTURE END LIST*
D10*
X118110000Y-68580000D02*
X160020000Y-68580000D01*
X118110000Y-125730000D02*
X118110000Y-68580000D01*
X158115000Y-125730000D02*
X118110000Y-125730000D01*
X166370000Y-125730000D02*
X158115000Y-125730000D01*
X166370000Y-68580000D02*
X166370000Y-125730000D01*
X160020000Y-68580000D02*
X166370000Y-68580000D01*
X165100000Y-125730000D02*
X166370000Y-125730000D01*
X158115000Y-125730000D02*
X165100000Y-125730000D01*
D11*
X149860000Y-119380000D03*
X144780000Y-119380000D03*
X154940000Y-119380000D03*
X139700000Y-119380000D03*
X134620000Y-119380000D03*
D12*
X152400000Y-74930000D03*
D13*
X149860000Y-74930000D03*
D12*
X140970000Y-74930000D03*
D13*
X143510000Y-74930000D03*
D14*
X121920000Y-121920000D03*
X161925000Y-121920000D03*
X161925000Y-72390000D03*
X121920000Y-72390000D03*
D12*
X134620000Y-74930000D03*
D13*
X132080000Y-74930000D03*
D15*
X147955000Y-80645000D03*
X158115000Y-80645000D03*
X125730000Y-80010000D03*
X135890000Y-80010000D03*
X125730000Y-85090000D03*
X135890000Y-85090000D03*
X147955000Y-85090000D03*
X158115000Y-85090000D03*
D16*
X129540000Y-91440000D03*
D17*
X132040000Y-91440000D03*
D16*
X152400000Y-91440000D03*
D17*
X154900000Y-91440000D03*
D18*
X141605000Y-80645000D03*
X144145000Y-83185000D03*
D19*
X141605000Y-85725000D03*
D16*
X152400000Y-105410000D03*
D17*
X152400000Y-100410000D03*
D20*
X146685000Y-112395000D03*
D21*
X161925000Y-112395000D03*
D16*
X140970000Y-91440000D03*
D17*
X143470000Y-91440000D03*
D22*
X133350000Y-102870000D03*
D20*
X124460000Y-96520000D03*
X124460000Y-109220000D03*
D21*
X142240000Y-96520000D03*
X142240000Y-109220000D03*
D11*
X129540000Y-119380000D03*
M02*
