<?xml version="1.0" encoding="UTF-8" standalone="no"?>
<!-- Created with Inkscape (http://www.inkscape.org/) -->

<svg
   xmlns:dc="http://purl.org/dc/elements/1.1/"
   xmlns:cc="http://creativecommons.org/ns#"
   xmlns:rdf="http://www.w3.org/1999/02/22-rdf-syntax-ns#"
   xmlns:svg="http://www.w3.org/2000/svg"
   xmlns="http://www.w3.org/2000/svg"
   xmlns:sodipodi="http://sodipodi.sourceforge.net/DTD/sodipodi-0.dtd"
   xmlns:inkscape="http://www.inkscape.org/namespaces/inkscape"
   version="1.1"
   id="svg11329"
   xml:space="preserve"
   width="1122.6667"
   height="793.33331"
   viewBox="0 0 1122.6667 793.33331"
   sodipodi:docname="frontpage.svg"
   inkscape:export-filename="/home/pozsarzs/Git/mm5d-hw/frontpage/preview.png"
   inkscape:export-xdpi="101"
   inkscape:export-ydpi="101"
   inkscape:version="0.92.1 r15371"><metadata
     id="metadata11335"><rdf:RDF><cc:Work
         rdf:about=""><dc:format>image/svg+xml</dc:format><dc:type
           rdf:resource="http://purl.org/dc/dcmitype/StillImage" /><dc:title></dc:title></cc:Work></rdf:RDF></metadata><defs
     id="defs11333"><clipPath
       clipPathUnits="userSpaceOnUse"
       id="clipPath11345"><path
         d="M 0,-0.2 H 841.8 V 595 H 0 Z"
         id="path11343"
         inkscape:connector-curvature="0"
         style="clip-rule:evenodd" /></clipPath></defs><sodipodi:namedview
     pagecolor="#ffffff"
     bordercolor="#666666"
     borderopacity="1"
     objecttolerance="10"
     gridtolerance="10"
     guidetolerance="10"
     inkscape:pageopacity="0"
     inkscape:pageshadow="2"
     inkscape:window-width="1022"
     inkscape:window-height="736"
     id="namedview11331"
     showgrid="false"
     inkscape:zoom="0.65168069"
     inkscape:cx="561.33337"
     inkscape:cy="396.66666"
     inkscape:window-x="0"
     inkscape:window-y="0"
     inkscape:window-maximized="1"
     inkscape:current-layer="g11341" /><g
     id="g11337"
     inkscape:groupmode="layer"
     inkscape:label="frontpage"
     transform="matrix(1.3333333,0,0,-1.3333333,0,793.33333)"><g
       id="g11339"><g
         id="g11341"
         clip-path="url(#clipPath11345)"><g
           id="g11347"
           transform="matrix(-1,0,0,1,694.4,0)"><path
             d="M 347.2,155.6 H 28.3 V 566.7 H 666.1 V 155.6 Z"
             style="fill:none;stroke:#000000;stroke-width:0.75;stroke-linecap:butt;stroke-linejoin:round;stroke-miterlimit:10;stroke-dasharray:none;stroke-opacity:1"
             id="path11349"
             inkscape:connector-curvature="0" /></g><g
           id="g11351"
           transform="matrix(-1,0,0,1,694.4,0)"><text
             transform="matrix(1,0,0,-1,56.1,532.6)"
             style="font-style:italic;font-variant:normal;font-weight:bold;font-size:18px;font-family:'Liberation Sans';-inkscape-font-specification:LiberationSans-BoldItalic;writing-mode:lr-tb;fill:#000000;fill-opacity:1;fill-rule:nonzero;stroke:none"
             id="text11355"><tspan
               x="0 14.994 29.988001 39.888"
               y="0"
               sodipodi:role="line"
               id="tspan11353">MM5D</tspan></text>
</g><g
           id="g11357"
           transform="matrix(-1,0,0,1,694.4,0)"><text
             transform="matrix(1,0,0,-1,231.7,532.6)"
             style="font-style:italic;font-variant:normal;font-weight:bold;font-size:15px;font-family:'Liberation Sans';-inkscape-font-specification:LiberationSans-BoldItalic;writing-mode:lr-tb;fill:#000000;fill-opacity:1;fill-rule:nonzero;stroke:none"
             id="text11361"><tspan
               x="0 9.9899998 15.87 24.975 34.080002 39.959999 48.345001 61.650002 74.955002 83.339996 92.519997 96.705002 105 109.29 117.675 126.78 135.88499 140.88 146.75999 155.86501 160.05 164.235 168.42 177.60001 186.705 190.89 199.27499 208.38 217.485 221.67 227.55 235.935 249.24001 258.345 263.42999 271.815 276 289.30499 298.41 307.51501 311.70001 316.785 325.89001 331.76999 335.95499 345.06 354.16501 358.35001 367.45499 375.84 384.22501 388.41 396.79501"
               y="0"
               sodipodi:role="line"
               id="tspan11359">Programmable controlling and remote monitoring device</tspan></text>
</g><g
           id="g11363"
           transform="matrix(-1,0,0,1,694.4,0)"><path
             d="m 56.7,521.9 581.1,2.2"
             style="fill:none;stroke:#000000;stroke-width:2.26398993;stroke-linecap:butt;stroke-linejoin:round;stroke-miterlimit:10;stroke-dasharray:none;stroke-opacity:1"
             id="path11365"
             inkscape:connector-curvature="0" /></g><g
           id="g11367"
           transform="matrix(-1,0,0,1,694.4,0)"><text
             transform="matrix(1,0,0,-1,66.6,443.6)"
             style="font-variant:normal;font-weight:bold;font-size:13px;font-family:'Liberation Sans';-inkscape-font-specification:LiberationSans-Bold;writing-mode:lr-tb;fill:#000000;fill-opacity:1;fill-rule:nonzero;stroke:none"
             id="text11371"><tspan
               x="0 7.9039998 15.886 25.882999 33.084999"
               y="0"
               sodipodi:role="line"
               id="tspan11369">power</tspan></text>
</g><g
           id="g11373"
           transform="matrix(-1,0,0,1,694.4,0)"><text
             transform="matrix(1,0,0,-1,66.6,385.6)"
             style="font-variant:normal;font-weight:bold;font-size:13px;font-family:'Liberation Sans';-inkscape-font-specification:LiberationSans-Bold;writing-mode:lr-tb;fill:#000000;fill-opacity:1;fill-rule:nonzero;stroke:none"
             id="text11377"><tspan
               x="0 7.2020001 14.404 18.707001 22.308001 29.51"
               y="0"
               sodipodi:role="line"
               id="tspan11375">active</tspan></text>
</g><path
           d="M 166.4,191.1 H 269.2 V 332.8 H 63.7 V 191.1 Z"
           style="fill:#dc2300;fill-opacity:1;fill-rule:evenodd;stroke:none"
           id="path11379"
           inkscape:connector-curvature="0" /><g
           id="g11381"
           transform="matrix(-1,0,0,1,694.4,0)"><path
             d="M 528,191.1 H 425.2 V 332.8 H 630.7 V 191.1 Z"
             style="fill:none;stroke:#3465a4;stroke-width:0.75;stroke-linecap:butt;stroke-linejoin:round;stroke-miterlimit:10;stroke-dasharray:none;stroke-opacity:1"
             id="path11383"
             inkscape:connector-curvature="0" /></g><g
           id="g11385"
           transform="matrix(-1,0,0,1,694.4,0)"><text
             transform="matrix(1,0,0,-1,198.2,358.6)"
             style="font-variant:normal;font-weight:bold;font-size:13px;font-family:'Liberation Sans';-inkscape-font-specification:LiberationSans-Bold;writing-mode:lr-tb;fill:#000000;fill-opacity:1;fill-rule:nonzero;stroke:none"
             id="text11389"><tspan
               x="0 4.303 11.505 23.087999 30.992001 38.194 43.199001 50.401001 54.703999 62.686001 67.691002 74.892998 78.494003"
               y="0"
               sodipodi:role="line"
               id="tspan11387">temperature [</tspan></text>
</g><g
           id="g11391"
           transform="matrix(-1,0,0,1,694.4,0)"><text
             transform="matrix(1,0,0,-1,281,358.6)"
             style="font-variant:normal;font-weight:bold;font-size:13px;font-family:'Liberation Sans';-inkscape-font-specification:LiberationSans-Bold;writing-mode:lr-tb;fill:#000000;fill-opacity:1;fill-rule:nonzero;stroke:none"
             id="text11395"><tspan
               x="0"
               y="0"
               id="tspan11393">°</tspan></text>
</g><g
           id="g11397"
           transform="matrix(-1,0,0,1,694.4,0)"><text
             transform="matrix(1,0,0,-1,286.2,358.6)"
             style="font-variant:normal;font-weight:bold;font-size:13px;font-family:'Liberation Sans';-inkscape-font-specification:LiberationSans-Bold;writing-mode:lr-tb;fill:#000000;fill-opacity:1;fill-rule:nonzero;stroke:none"
             id="text11401"><tspan
               x="0 9.2950001"
               y="0"
               sodipodi:role="line"
               id="tspan11399">C]</tspan></text>
</g><g
           id="g11403"
           transform="matrix(-1,0,0,1,694.4,0)"><text
             transform="matrix(1,0,0,-1,376.8,358.6)"
             style="font-variant:normal;font-weight:bold;font-size:13px;font-family:'Liberation Sans';-inkscape-font-specification:LiberationSans-Bold;writing-mode:lr-tb;fill:#000000;fill-opacity:1;fill-rule:nonzero;stroke:none"
             id="text11407"><tspan
               x="0 5.0050001 12.207 15.808 23.01 27.313 30.914 38.116001 45.318001 48.918999 56.901001 64.805 76.309998 79.911003 87.815002 91.416 95.719002 102.921 106.522 110.903 122.005"
               y="0"
               sodipodi:role="line"
               id="tspan11405">relative humidity [%]</tspan></text>
</g><g
           id="g11409"
           transform="matrix(-1,0,0,1,694.4,0)"><text
             transform="matrix(1,0,0,-1,578.5,358.6)"
             style="font-variant:normal;font-weight:bold;font-size:13px;font-family:'Liberation Sans';-inkscape-font-specification:LiberationSans-Bold;writing-mode:lr-tb;fill:#000000;fill-opacity:1;fill-rule:nonzero;stroke:none"
             id="text11413"><tspan
               x="0 11.505 19.487 27.391001"
               y="0"
               sodipodi:role="line"
               id="tspan11411">mode</tspan></text>
</g><g
           id="g11415"
           transform="matrix(-1,0,0,1,694.4,0)"><path
             d="M 347.2,382.4 H 148.8 V 495.8 H 545.7 V 382.4 Z"
             style="fill:none;stroke:#000000;stroke-width:0.75;stroke-linecap:butt;stroke-linejoin:round;stroke-miterlimit:10;stroke-dasharray:none;stroke-opacity:1"
             id="path11417"
             inkscape:connector-curvature="0" /></g><g
           id="g11419"
           transform="matrix(-1,0,0,1,694.4,0)"><path
             d="M 347.2,184 H 56.7 V 339.9 H 637.8 V 184 Z"
             style="fill:none;stroke:#000000;stroke-width:2.26398993;stroke-linecap:butt;stroke-linejoin:round;stroke-miterlimit:10;stroke-dasharray:none;stroke-opacity:1"
             id="path11421"
             inkscape:connector-curvature="0" /></g><g
           id="g11423"
           transform="matrix(-1,0,0,1,694.4,0)"><text
             transform="matrix(1,0,0,-1,106.1,304.7)"
             style="font-variant:normal;font-weight:bold;font-size:13px;font-family:'Liberation Sans';-inkscape-font-specification:LiberationSans-Bold;writing-mode:lr-tb;fill:#000000;fill-opacity:1;fill-rule:nonzero;stroke:none"
             id="text11427"><tspan
               x="0 11.505 18.707001 26.611 34.592999 41.794998 45.396 48.997002 60.501999 68.405998 76.309998"
               y="0"
               sodipodi:role="line"
               id="tspan11425">manual mode</tspan></text>
</g><g
           id="g11429"
           transform="matrix(-1,0,0,1,694.4,0)"><text
             transform="matrix(1,0,0,-1,290.7,304.7)"
             style="font-variant:normal;font-weight:bold;font-size:13px;font-family:'Liberation Sans';-inkscape-font-specification:LiberationSans-Bold;writing-mode:lr-tb;fill:#000000;fill-opacity:1;fill-rule:nonzero;stroke:none"
             id="text11433"><tspan
               x="0 7.9819999 15.184 22.386 26.688999 30.290001 38.194"
               y="0"
               sodipodi:role="line"
               id="tspan11431">heating</tspan></text>
</g><g
           id="g11435"
           transform="matrix(-1,0,0,1,694.4,0)"><text
             transform="matrix(1,0,0,-1,475.1,304.7)"
             style="font-variant:normal;font-weight:bold;font-size:13px;font-family:'Liberation Sans';-inkscape-font-specification:LiberationSans-Bold;writing-mode:lr-tb;fill:#ffffff;fill-opacity:1;fill-rule:nonzero;stroke:none"
             id="text11439"><tspan
               x="0 10.101 15.106 23.01 30.914 38.896 42.497002 46.799999 54.001999 65.507004 73.411003 80.612999 85.695999 92.898003 97.200996 105.105 110.11"
               y="0"
               sodipodi:role="line"
               id="tspan11437">wrong temperature</tspan></text>
</g><path
           d="m 609.4,315.8 c -4.1,0 -7.1,-3.1 -7.1,-7.1 0,-4 3,-7.1 7.1,-7.1 4,0 7,3.1 7,7.1 0,4 -3,7.1 -7,7.1 z m 7,0 z m -14.2,-14.2 z"
           style="fill:#ffffff;fill-opacity:1;fill-rule:evenodd;stroke:none"
           id="path11441"
           inkscape:connector-curvature="0" /><g
           id="g11443"
           transform="matrix(-1,0,0,1,694.4,0)"><path
             d="m 85,315.8 c 4.1,0 7.1,-3.1 7.1,-7.1 0,-4 -3,-7.1 -7.1,-7.1 -4,0 -7,3.1 -7,7.1 0,4 3,7.1 7,7.1 z"
             style="fill:none;stroke:#3465a4;stroke-width:0.75;stroke-linecap:butt;stroke-linejoin:round;stroke-miterlimit:10;stroke-dasharray:none;stroke-opacity:1"
             id="path11445"
             inkscape:connector-curvature="0" /></g><g
           id="g11447"
           transform="matrix(-1,0,0,1,694.4,0)"><path
             d="M 78,315.8 Z"
             style="fill:none;stroke:#3465a4;stroke-width:0.75;stroke-linecap:butt;stroke-linejoin:round;stroke-miterlimit:10;stroke-dasharray:none;stroke-opacity:1"
             id="path11449"
             inkscape:connector-curvature="0" /></g><g
           id="g11451"
           transform="matrix(-1,0,0,1,694.4,0)"><path
             d="M 92.2,301.6 Z"
             style="fill:none;stroke:#3465a4;stroke-width:0.75;stroke-linecap:butt;stroke-linejoin:round;stroke-miterlimit:10;stroke-dasharray:none;stroke-opacity:1"
             id="path11453"
             inkscape:connector-curvature="0" /></g><path
           d="m 425.1,315.8 c -4,0 -7.1,-3.1 -7.1,-7.1 0,-4 3.1,-7.1 7.1,-7.1 4,0 7.1,3.1 7.1,7.1 0,4 -3.1,7.1 -7.1,7.1 z m 7.1,0 z M 418,301.6 Z"
           style="fill:#ffffff;fill-opacity:1;fill-rule:evenodd;stroke:none"
           id="path11455"
           inkscape:connector-curvature="0" /><g
           id="g11457"
           transform="matrix(-1,0,0,1,694.4,0)"><path
             d="m 269.3,315.8 c 4,0 7.1,-3.1 7.1,-7.1 0,-4 -3.1,-7.1 -7.1,-7.1 -4,0 -7.1,3.1 -7.1,7.1 0,4 3.1,7.1 7.1,7.1 z"
             style="fill:none;stroke:#000000;stroke-width:0.75;stroke-linecap:butt;stroke-linejoin:round;stroke-miterlimit:10;stroke-dasharray:none;stroke-opacity:1"
             id="path11459"
             inkscape:connector-curvature="0" /></g><g
           id="g11461"
           transform="matrix(-1,0,0,1,694.4,0)"><path
             d="M 262.2,315.8 Z"
             style="fill:none;stroke:#000000;stroke-width:0.75;stroke-linecap:butt;stroke-linejoin:round;stroke-miterlimit:10;stroke-dasharray:none;stroke-opacity:1"
             id="path11463"
             inkscape:connector-curvature="0" /></g><g
           id="g11465"
           transform="matrix(-1,0,0,1,694.4,0)"><path
             d="M 276.4,301.6 Z"
             style="fill:none;stroke:#000000;stroke-width:0.75;stroke-linecap:butt;stroke-linejoin:round;stroke-miterlimit:10;stroke-dasharray:none;stroke-opacity:1"
             id="path11467"
             inkscape:connector-curvature="0" /></g><path
           d="m 240.9,315.8 c -4.1,0 -7.1,-3.1 -7.1,-7.1 0,-4 3,-7.1 7.1,-7.1 4,0 7,3.1 7,7.1 0,4 -3,7.1 -7,7.1 z m 7,0 z m -14.2,-14.2 z"
           style="fill:#ffffff;fill-opacity:1;fill-rule:evenodd;stroke:none"
           id="path11469"
           inkscape:connector-curvature="0" /><g
           id="g11471"
           transform="matrix(-1,0,0,1,694.4,0)"><path
             d="m 453.5,315.8 c 4.1,0 7.1,-3.1 7.1,-7.1 0,-4 -3,-7.1 -7.1,-7.1 -4,0 -7,3.1 -7,7.1 0,4 3,7.1 7,7.1 z"
             style="fill:none;stroke:#000000;stroke-width:0.75;stroke-linecap:butt;stroke-linejoin:round;stroke-miterlimit:10;stroke-dasharray:none;stroke-opacity:1"
             id="path11473"
             inkscape:connector-curvature="0" /></g><g
           id="g11475"
           transform="matrix(-1,0,0,1,694.4,0)"><path
             d="M 446.5,315.8 Z"
             style="fill:none;stroke:#000000;stroke-width:0.75;stroke-linecap:butt;stroke-linejoin:round;stroke-miterlimit:10;stroke-dasharray:none;stroke-opacity:1"
             id="path11477"
             inkscape:connector-curvature="0" /></g><g
           id="g11479"
           transform="matrix(-1,0,0,1,694.4,0)"><path
             d="M 460.7,301.6 Z"
             style="fill:none;stroke:#000000;stroke-width:0.75;stroke-linecap:butt;stroke-linejoin:round;stroke-miterlimit:10;stroke-dasharray:none;stroke-opacity:1"
             id="path11481"
             inkscape:connector-curvature="0" /></g><g
           id="g11483"
           transform="matrix(-1,0,0,1,694.4,0)"><text
             transform="matrix(1,0,0,-1,106.1,210.6)"
             style="font-variant:normal;font-weight:bold;font-size:13px;font-family:'Liberation Sans';-inkscape-font-specification:LiberationSans-Bold;writing-mode:lr-tb;fill:#000000;fill-opacity:1;fill-rule:nonzero;stroke:none"
             id="text11487"><tspan
               x="0 7.9039998 15.808 23.01 30.992001 38.194 46.098 49.699001 57.603001 65.507004 73.411003 78.494003"
               y="0"
               sodipodi:role="line"
               id="tspan11485">opened doors</tspan></text>
</g><g
           id="g11489"
           transform="matrix(-1,0,0,1,694.4,0)"><text
             transform="matrix(1,0,0,-1,290.7,210.6)"
             style="font-variant:normal;font-weight:bold;font-size:13px;font-family:'Liberation Sans';-inkscape-font-specification:LiberationSans-Bold;writing-mode:lr-tb;fill:#000000;fill-opacity:1;fill-rule:nonzero;stroke:none"
             id="text11493"><tspan
               x="0 7.9819999 15.886 27.391001 30.992001 38.896 42.497002 46.799999 54.001999 57.603001 65.584999"
               y="0"
               sodipodi:role="line"
               id="tspan11491">humidifying</tspan></text>
</g><g
           id="g11495"
           transform="matrix(-1,0,0,1,694.4,0)"><text
             transform="matrix(1,0,0,-1,475.1,210.6)"
             style="font-variant:normal;font-weight:bold;font-size:13px;font-family:'Liberation Sans';-inkscape-font-specification:LiberationSans-Bold;writing-mode:lr-tb;fill:#ffffff;fill-opacity:1;fill-rule:nonzero;stroke:none"
             id="text11499"><tspan
               x="0 10.101 15.106 23.01 30.914 38.896 42.497002 50.401001 58.305 69.809998 73.411003 81.315002 84.916 89.296997"
               y="0"
               sodipodi:role="line"
               id="tspan11497">wrong humidity</tspan></text>
</g><path
           d="m 609.4,222.2 c -4.1,0 -7.1,-3 -7.1,-7 0,-4.1 3,-7.1 7.1,-7.1 4,0 7,3 7,7.1 0,4 -3,7 -7,7 z m 7,0 z M 602.2,208 Z"
           style="fill:#ffffff;fill-opacity:1;fill-rule:evenodd;stroke:none"
           id="path11501"
           inkscape:connector-curvature="0" /><g
           id="g11503"
           transform="matrix(-1,0,0,1,694.4,0)"><path
             d="m 85,222.2 c 4.1,0 7.1,-3 7.1,-7 0,-4.1 -3,-7.1 -7.1,-7.1 -4,0 -7,3 -7,7.1 0,4 3,7 7,7 z"
             style="fill:none;stroke:#000000;stroke-width:0.75;stroke-linecap:butt;stroke-linejoin:round;stroke-miterlimit:10;stroke-dasharray:none;stroke-opacity:1"
             id="path11505"
             inkscape:connector-curvature="0" /></g><g
           id="g11507"
           transform="matrix(-1,0,0,1,694.4,0)"><path
             d="M 78,222.2 Z"
             style="fill:none;stroke:#000000;stroke-width:0.75;stroke-linecap:butt;stroke-linejoin:round;stroke-miterlimit:10;stroke-dasharray:none;stroke-opacity:1"
             id="path11509"
             inkscape:connector-curvature="0" /></g><g
           id="g11511"
           transform="matrix(-1,0,0,1,694.4,0)"><path
             d="M 92.2,208 Z"
             style="fill:none;stroke:#000000;stroke-width:0.75;stroke-linecap:butt;stroke-linejoin:round;stroke-miterlimit:10;stroke-dasharray:none;stroke-opacity:1"
             id="path11513"
             inkscape:connector-curvature="0" /></g><path
           d="m 425.1,222.2 c -4,0 -7.1,-3 -7.1,-7 0,-4.1 3.1,-7.1 7.1,-7.1 4,0 7.1,3 7.1,7.1 0,4 -3.1,7 -7.1,7 z m 7.1,0 z M 418,208 Z"
           style="fill:#ffffff;fill-opacity:1;fill-rule:evenodd;stroke:none"
           id="path11515"
           inkscape:connector-curvature="0" /><g
           id="g11517"
           transform="matrix(-1,0,0,1,694.4,0)"><path
             d="m 269.3,222.2 c 4,0 7.1,-3 7.1,-7 0,-4.1 -3.1,-7.1 -7.1,-7.1 -4,0 -7.1,3 -7.1,7.1 0,4 3.1,7 7.1,7 z"
             style="fill:none;stroke:#000000;stroke-width:0.75;stroke-linecap:butt;stroke-linejoin:round;stroke-miterlimit:10;stroke-dasharray:none;stroke-opacity:1"
             id="path11519"
             inkscape:connector-curvature="0" /></g><g
           id="g11521"
           transform="matrix(-1,0,0,1,694.4,0)"><path
             d="M 262.2,222.2 Z"
             style="fill:none;stroke:#000000;stroke-width:0.75;stroke-linecap:butt;stroke-linejoin:round;stroke-miterlimit:10;stroke-dasharray:none;stroke-opacity:1"
             id="path11523"
             inkscape:connector-curvature="0" /></g><g
           id="g11525"
           transform="matrix(-1,0,0,1,694.4,0)"><path
             d="M 276.4,208 Z"
             style="fill:none;stroke:#000000;stroke-width:0.75;stroke-linecap:butt;stroke-linejoin:round;stroke-miterlimit:10;stroke-dasharray:none;stroke-opacity:1"
             id="path11527"
             inkscape:connector-curvature="0" /></g><path
           d="m 240.9,222.2 c -4.1,0 -7.1,-3 -7.1,-7 0,-4.1 3,-7.1 7.1,-7.1 4,0 7,3 7,7.1 0,4 -3,7 -7,7 z m 7,0 z M 233.7,208 Z"
           style="fill:#ffffff;fill-opacity:1;fill-rule:evenodd;stroke:none"
           id="path11529"
           inkscape:connector-curvature="0" /><g
           id="g11531"
           transform="matrix(-1,0,0,1,694.4,0)"><path
             d="m 453.5,222.2 c 4.1,0 7.1,-3 7.1,-7 0,-4.1 -3,-7.1 -7.1,-7.1 -4,0 -7,3 -7,7.1 0,4 3,7 7,7 z"
             style="fill:none;stroke:#000000;stroke-width:0.75;stroke-linecap:butt;stroke-linejoin:round;stroke-miterlimit:10;stroke-dasharray:none;stroke-opacity:1"
             id="path11533"
             inkscape:connector-curvature="0" /></g><g
           id="g11535"
           transform="matrix(-1,0,0,1,694.4,0)"><path
             d="M 446.5,222.2 Z"
             style="fill:none;stroke:#000000;stroke-width:0.75;stroke-linecap:butt;stroke-linejoin:round;stroke-miterlimit:10;stroke-dasharray:none;stroke-opacity:1"
             id="path11537"
             inkscape:connector-curvature="0" /></g><g
           id="g11539"
           transform="matrix(-1,0,0,1,694.4,0)"><path
             d="M 460.7,208 Z"
             style="fill:none;stroke:#000000;stroke-width:0.75;stroke-linecap:butt;stroke-linejoin:round;stroke-miterlimit:10;stroke-dasharray:none;stroke-opacity:1"
             id="path11541"
             inkscape:connector-curvature="0" /></g><g
           id="g11543"
           transform="matrix(-1,0,0,1,694.4,0)"><text
             transform="matrix(1,0,0,-1,106.1,273.6)"
             style="font-variant:normal;font-weight:bold;font-size:13px;font-family:'Liberation Sans';-inkscape-font-specification:LiberationSans-Bold;writing-mode:lr-tb;fill:#000000;fill-opacity:1;fill-rule:nonzero;stroke:none"
             id="text11547"><tspan
               x="0 7.9039998 15.106 22.308001 27.391001 34.592999 42.497002 47.501999 52.584999 59.786999 67.691002 71.994003 75.595001 83.499001 88.582001 96.486 100.789 107.991 115.193 119.496 123.097 131.00101"
               y="0"
               sodipodi:role="line"
               id="tspan11545">overcurrent protection</tspan></text>
</g><g
           id="g11549"
           transform="matrix(-1,0,0,1,694.4,0)"><text
             transform="matrix(1,0,0,-1,290.7,273.6)"
             style="font-variant:normal;font-weight:bold;font-size:13px;font-family:'Liberation Sans';-inkscape-font-specification:LiberationSans-Bold;writing-mode:lr-tb;fill:#000000;fill-opacity:1;fill-rule:nonzero;stroke:none"
             id="text11553"><tspan
               x="0 3.6010001 7.2020001 15.184 23.087999 27.391001 30.992001 38.896"
               y="0"
               sodipodi:role="line"
               id="tspan11551">lighting</tspan></text>
</g><g
           id="g11555"
           transform="matrix(-1,0,0,1,694.4,0)"><text
             transform="matrix(1,0,0,-1,475.1,273.6)"
             style="font-variant:normal;font-weight:bold;font-size:13px;font-family:'Liberation Sans';-inkscape-font-specification:LiberationSans-Bold;writing-mode:lr-tb;fill:#ffffff;fill-opacity:1;fill-rule:nonzero;stroke:none"
             id="text11559"><tspan
               x="0 7.9039998 12.909 20.891001 25.194 32.396 39.598 43.901001 47.501999 55.405998 63.310001 66.911003 74.112999 79.195999 84.200996 92.105003"
               y="0"
               sodipodi:role="line"
               id="tspan11557">protection error</tspan></text>
</g><path
           d="m 609.4,284.6 c -4.1,0 -7.1,-3.1 -7.1,-7.1 0,-4 3,-7.1 7.1,-7.1 4,0 7,3.1 7,7.1 0,4 -3,7.1 -7,7.1 z m 7,0 z m -14.2,-14.2 z"
           style="fill:#ffffff;fill-opacity:1;fill-rule:evenodd;stroke:none"
           id="path11561"
           inkscape:connector-curvature="0" /><g
           id="g11563"
           transform="matrix(-1,0,0,1,694.4,0)"><path
             d="m 85,284.6 c 4.1,0 7.1,-3.1 7.1,-7.1 0,-4 -3,-7.1 -7.1,-7.1 -4,0 -7,3.1 -7,7.1 0,4 3,7.1 7,7.1 z"
             style="fill:none;stroke:#000000;stroke-width:0.75;stroke-linecap:butt;stroke-linejoin:round;stroke-miterlimit:10;stroke-dasharray:none;stroke-opacity:1"
             id="path11565"
             inkscape:connector-curvature="0" /></g><g
           id="g11567"
           transform="matrix(-1,0,0,1,694.4,0)"><path
             d="M 78,284.6 Z"
             style="fill:none;stroke:#000000;stroke-width:0.75;stroke-linecap:butt;stroke-linejoin:round;stroke-miterlimit:10;stroke-dasharray:none;stroke-opacity:1"
             id="path11569"
             inkscape:connector-curvature="0" /></g><g
           id="g11571"
           transform="matrix(-1,0,0,1,694.4,0)"><path
             d="M 92.2,270.4 Z"
             style="fill:none;stroke:#000000;stroke-width:0.75;stroke-linecap:butt;stroke-linejoin:round;stroke-miterlimit:10;stroke-dasharray:none;stroke-opacity:1"
             id="path11573"
             inkscape:connector-curvature="0" /></g><path
           d="m 425.1,284.6 c -4,0 -7.1,-3.1 -7.1,-7.1 0,-4 3.1,-7.1 7.1,-7.1 4,0 7.1,3.1 7.1,7.1 0,4 -3.1,7.1 -7.1,7.1 z m 7.1,0 z M 418,270.4 Z"
           style="fill:#ffffff;fill-opacity:1;fill-rule:evenodd;stroke:none"
           id="path11575"
           inkscape:connector-curvature="0" /><g
           id="g11577"
           transform="matrix(-1,0,0,1,694.4,0)"><path
             d="m 269.3,284.6 c 4,0 7.1,-3.1 7.1,-7.1 0,-4 -3.1,-7.1 -7.1,-7.1 -4,0 -7.1,3.1 -7.1,7.1 0,4 3.1,7.1 7.1,7.1 z"
             style="fill:none;stroke:#000000;stroke-width:0.75;stroke-linecap:butt;stroke-linejoin:round;stroke-miterlimit:10;stroke-dasharray:none;stroke-opacity:1"
             id="path11579"
             inkscape:connector-curvature="0" /></g><g
           id="g11581"
           transform="matrix(-1,0,0,1,694.4,0)"><path
             d="M 262.2,284.6 Z"
             style="fill:none;stroke:#000000;stroke-width:0.75;stroke-linecap:butt;stroke-linejoin:round;stroke-miterlimit:10;stroke-dasharray:none;stroke-opacity:1"
             id="path11583"
             inkscape:connector-curvature="0" /></g><g
           id="g11585"
           transform="matrix(-1,0,0,1,694.4,0)"><path
             d="M 276.4,270.4 Z"
             style="fill:none;stroke:#000000;stroke-width:0.75;stroke-linecap:butt;stroke-linejoin:round;stroke-miterlimit:10;stroke-dasharray:none;stroke-opacity:1"
             id="path11587"
             inkscape:connector-curvature="0" /></g><path
           d="m 240.9,284.6 c -4.1,0 -7.1,-3.1 -7.1,-7.1 0,-4 3,-7.1 7.1,-7.1 4,0 7,3.1 7,7.1 0,4 -3,7.1 -7,7.1 z m 7,0 z m -14.2,-14.2 z"
           style="fill:#ffffff;fill-opacity:1;fill-rule:evenodd;stroke:none"
           id="path11589"
           inkscape:connector-curvature="0" /><g
           id="g11591"
           transform="matrix(-1,0,0,1,694.4,0)"><path
             d="m 453.5,284.6 c 4.1,0 7.1,-3.1 7.1,-7.1 0,-4 -3,-7.1 -7.1,-7.1 -4,0 -7,3.1 -7,7.1 0,4 3,7.1 7,7.1 z"
             style="fill:none;stroke:#000000;stroke-width:0.75;stroke-linecap:butt;stroke-linejoin:round;stroke-miterlimit:10;stroke-dasharray:none;stroke-opacity:1"
             id="path11593"
             inkscape:connector-curvature="0" /></g><g
           id="g11595"
           transform="matrix(-1,0,0,1,694.4,0)"><path
             d="M 446.5,284.6 Z"
             style="fill:none;stroke:#000000;stroke-width:0.75;stroke-linecap:butt;stroke-linejoin:round;stroke-miterlimit:10;stroke-dasharray:none;stroke-opacity:1"
             id="path11597"
             inkscape:connector-curvature="0" /></g><g
           id="g11599"
           transform="matrix(-1,0,0,1,694.4,0)"><path
             d="M 460.7,270.4 Z"
             style="fill:none;stroke:#000000;stroke-width:0.75;stroke-linecap:butt;stroke-linejoin:round;stroke-miterlimit:10;stroke-dasharray:none;stroke-opacity:1"
             id="path11601"
             inkscape:connector-curvature="0" /></g><g
           id="g11603"
           transform="matrix(-1,0,0,1,694.4,0)"><text
             transform="matrix(1,0,0,-1,106.1,242.9)"
             style="font-variant:normal;font-weight:bold;font-size:13px;font-family:'Liberation Sans';-inkscape-font-specification:LiberationSans-Bold;writing-mode:lr-tb;fill:#000000;fill-opacity:1;fill-rule:nonzero;stroke:none"
             id="text11607"><tspan
               x="0 10.101 17.302999 21.606001 28.808001 33.813 37.414001 45.396 50.401001 57.603001 64.805 72.007004 79.911003 84.994003"
               y="0"
               sodipodi:role="line"
               id="tspan11605">water pressure</tspan></text>
</g><g
           id="g11609"
           transform="matrix(-1,0,0,1,694.4,0)"><text
             transform="matrix(1,0,0,-1,290.7,242.9)"
             style="font-variant:normal;font-weight:bold;font-size:13px;font-family:'Liberation Sans';-inkscape-font-specification:LiberationSans-Bold;writing-mode:lr-tb;fill:#000000;fill-opacity:1;fill-rule:nonzero;stroke:none"
             id="text11613"><tspan
               x="0 7.2020001 14.404 22.386 26.688999 30.290001 33.890999 41.092999 45.396 48.997002 56.901001"
               y="0"
               sodipodi:role="line"
               id="tspan11611">ventilating</tspan></text>
</g><g
           id="g11615"
           transform="matrix(-1,0,0,1,694.4,0)"><text
             transform="matrix(1,0,0,-1,475.1,242.9)"
             style="font-variant:normal;font-weight:bold;font-size:13px;font-family:'Liberation Sans';-inkscape-font-specification:LiberationSans-Bold;writing-mode:lr-tb;fill:#ffffff;fill-opacity:1;fill-rule:nonzero;stroke:none"
             id="text11619"><tspan
               x="0 3.6010001 11.505 21.606001 25.207001 35.307999 42.509998 46.813 54.014999 59.02 62.620998 70.525002 75.608002 82.809998 90.012001 97.213997 105.118 110.123"
               y="0"
               sodipodi:role="line"
               id="tspan11617">low water pressure</tspan></text>
</g><path
           d="m 609.4,253.4 c -4.1,0 -7.1,-3 -7.1,-7.1 0,-4 3,-7 7.1,-7 4,0 7,3 7,7 0,4.1 -3,7.1 -7,7.1 z m 7,0 z m -14.2,-14.2 z"
           style="fill:#ffffff;fill-opacity:1;fill-rule:evenodd;stroke:none"
           id="path11621"
           inkscape:connector-curvature="0" /><g
           id="g11623"
           transform="matrix(-1,0,0,1,694.4,0)"><path
             d="m 85,253.4 c 4.1,0 7.1,-3 7.1,-7.1 0,-4 -3,-7 -7.1,-7 -4,0 -7,3 -7,7 0,4.1 3,7.1 7,7.1 z"
             style="fill:none;stroke:#000000;stroke-width:0.75;stroke-linecap:butt;stroke-linejoin:round;stroke-miterlimit:10;stroke-dasharray:none;stroke-opacity:1"
             id="path11625"
             inkscape:connector-curvature="0" /></g><g
           id="g11627"
           transform="matrix(-1,0,0,1,694.4,0)"><path
             d="M 78,253.4 Z"
             style="fill:none;stroke:#000000;stroke-width:0.75;stroke-linecap:butt;stroke-linejoin:round;stroke-miterlimit:10;stroke-dasharray:none;stroke-opacity:1"
             id="path11629"
             inkscape:connector-curvature="0" /></g><g
           id="g11631"
           transform="matrix(-1,0,0,1,694.4,0)"><path
             d="M 92.2,239.2 Z"
             style="fill:none;stroke:#000000;stroke-width:0.75;stroke-linecap:butt;stroke-linejoin:round;stroke-miterlimit:10;stroke-dasharray:none;stroke-opacity:1"
             id="path11633"
             inkscape:connector-curvature="0" /></g><path
           d="m 425.1,253.4 c -4,0 -7.1,-3 -7.1,-7.1 0,-4 3.1,-7 7.1,-7 4,0 7.1,3 7.1,7 0,4.1 -3.1,7.1 -7.1,7.1 z m 7.1,0 z M 418,239.2 Z"
           style="fill:#ffffff;fill-opacity:1;fill-rule:evenodd;stroke:none"
           id="path11635"
           inkscape:connector-curvature="0" /><g
           id="g11637"
           transform="matrix(-1,0,0,1,694.4,0)"><path
             d="m 269.3,253.4 c 4,0 7.1,-3 7.1,-7.1 0,-4 -3.1,-7 -7.1,-7 -4,0 -7.1,3 -7.1,7 0,4.1 3.1,7.1 7.1,7.1 z"
             style="fill:none;stroke:#000000;stroke-width:0.75;stroke-linecap:butt;stroke-linejoin:round;stroke-miterlimit:10;stroke-dasharray:none;stroke-opacity:1"
             id="path11639"
             inkscape:connector-curvature="0" /></g><g
           id="g11641"
           transform="matrix(-1,0,0,1,694.4,0)"><path
             d="M 262.2,253.4 Z"
             style="fill:none;stroke:#000000;stroke-width:0.75;stroke-linecap:butt;stroke-linejoin:round;stroke-miterlimit:10;stroke-dasharray:none;stroke-opacity:1"
             id="path11643"
             inkscape:connector-curvature="0" /></g><g
           id="g11645"
           transform="matrix(-1,0,0,1,694.4,0)"><path
             d="M 276.4,239.2 Z"
             style="fill:none;stroke:#000000;stroke-width:0.75;stroke-linecap:butt;stroke-linejoin:round;stroke-miterlimit:10;stroke-dasharray:none;stroke-opacity:1"
             id="path11647"
             inkscape:connector-curvature="0" /></g><path
           d="m 240.9,253.4 c -4.1,0 -7.1,-3 -7.1,-7.1 0,-4 3,-7 7.1,-7 4,0 7,3 7,7 0,4.1 -3,7.1 -7,7.1 z m 7,0 z m -14.2,-14.2 z"
           style="fill:#ffffff;fill-opacity:1;fill-rule:evenodd;stroke:none"
           id="path11649"
           inkscape:connector-curvature="0" /><g
           id="g11651"
           transform="matrix(-1,0,0,1,694.4,0)"><path
             d="m 453.5,253.4 c 4.1,0 7.1,-3 7.1,-7.1 0,-4 -3,-7 -7.1,-7 -4,0 -7,3 -7,7 0,4.1 3,7.1 7,7.1 z"
             style="fill:none;stroke:#000000;stroke-width:0.75;stroke-linecap:butt;stroke-linejoin:round;stroke-miterlimit:10;stroke-dasharray:none;stroke-opacity:1"
             id="path11653"
             inkscape:connector-curvature="0" /></g><g
           id="g11655"
           transform="matrix(-1,0,0,1,694.4,0)"><path
             d="M 446.5,253.4 Z"
             style="fill:none;stroke:#000000;stroke-width:0.75;stroke-linecap:butt;stroke-linejoin:round;stroke-miterlimit:10;stroke-dasharray:none;stroke-opacity:1"
             id="path11657"
             inkscape:connector-curvature="0" /></g><g
           id="g11659"
           transform="matrix(-1,0,0,1,694.4,0)"><path
             d="M 460.7,239.2 Z"
             style="fill:none;stroke:#000000;stroke-width:0.75;stroke-linecap:butt;stroke-linejoin:round;stroke-miterlimit:10;stroke-dasharray:none;stroke-opacity:1"
             id="path11661"
             inkscape:connector-curvature="0" /></g><path
           d="m 609.4,480.2 c -4.1,0 -7.1,-3.1 -7.1,-7.1 0,-4 3,-7.1 7.1,-7.1 4,0 7,3.1 7,7.1 0,4 -3,7.1 -7,7.1 z m 7,0 z M 602.2,466 Z"
           style="fill:#ffffff;fill-opacity:1;fill-rule:evenodd;stroke:none"
           id="path11663"
           inkscape:connector-curvature="0" /><g
           id="g11665"
           transform="matrix(-1,0,0,1,694.4,0)"><path
             d="m 85,480.2 c 4.1,0 7.1,-3.1 7.1,-7.1 0,-4 -3,-7.1 -7.1,-7.1 -4,0 -7,3.1 -7,7.1 0,4 3,7.1 7,7.1 z"
             style="fill:none;stroke:#000000;stroke-width:0.75;stroke-linecap:butt;stroke-linejoin:round;stroke-miterlimit:10;stroke-dasharray:none;stroke-opacity:1"
             id="path11667"
             inkscape:connector-curvature="0" /></g><g
           id="g11669"
           transform="matrix(-1,0,0,1,694.4,0)"><path
             d="M 78,480.2 Z"
             style="fill:none;stroke:#000000;stroke-width:0.75;stroke-linecap:butt;stroke-linejoin:round;stroke-miterlimit:10;stroke-dasharray:none;stroke-opacity:1"
             id="path11671"
             inkscape:connector-curvature="0" /></g><g
           id="g11673"
           transform="matrix(-1,0,0,1,694.4,0)"><path
             d="M 92.2,466 Z"
             style="fill:none;stroke:#000000;stroke-width:0.75;stroke-linecap:butt;stroke-linejoin:round;stroke-miterlimit:10;stroke-dasharray:none;stroke-opacity:1"
             id="path11675"
             inkscape:connector-curvature="0" /></g><path
           d="m 609.3,315.8 c -4,0 -7.1,-3.1 -7.1,-7.1 0,-4.1 3.1,-7.1 7.1,-7.1 4.1,0 7.1,3 7.1,7.1 0,4 -3,7.1 -7.1,7.1 z m 7.1,0 z m -14.2,-14.2 z"
           style="fill:#ffffff;fill-opacity:1;fill-rule:evenodd;stroke:none"
           id="path11677"
           inkscape:connector-curvature="0" /><g
           id="g11679"
           transform="matrix(-1,0,0,1,694.4,0)"><path
             d="m 85.1,315.8 c 4,0 7.1,-3.1 7.1,-7.1 0,-4.1 -3.1,-7.1 -7.1,-7.1 -4.1,0 -7.1,3 -7.1,7.1 0,4 3,7.1 7.1,7.1 z"
             style="fill:none;stroke:#000000;stroke-width:0.75;stroke-linecap:butt;stroke-linejoin:round;stroke-miterlimit:10;stroke-dasharray:none;stroke-opacity:1"
             id="path11681"
             inkscape:connector-curvature="0" /></g><g
           id="g11683"
           transform="matrix(-1,0,0,1,694.4,0)"><path
             d="M 78,315.8 Z"
             style="fill:none;stroke:#000000;stroke-width:0.75;stroke-linecap:butt;stroke-linejoin:round;stroke-miterlimit:10;stroke-dasharray:none;stroke-opacity:1"
             id="path11685"
             inkscape:connector-curvature="0" /></g><g
           id="g11687"
           transform="matrix(-1,0,0,1,694.4,0)"><path
             d="M 92.2,301.6 Z"
             style="fill:none;stroke:#000000;stroke-width:0.75;stroke-linecap:butt;stroke-linejoin:round;stroke-miterlimit:10;stroke-dasharray:none;stroke-opacity:1"
             id="path11689"
             inkscape:connector-curvature="0" /></g><path
           d="m 609.4,423.5 c -4.1,0 -7.1,-3.1 -7.1,-7.1 0,-4 3,-7.1 7.1,-7.1 4,0 7,3.1 7,7.1 0,4 -3,7.1 -7,7.1 z m 7,0 z m -14.2,-14.2 z"
           style="fill:#ffffff;fill-opacity:1;fill-rule:evenodd;stroke:none"
           id="path11691"
           inkscape:connector-curvature="0" /><g
           id="g11693"
           transform="matrix(-1,0,0,1,694.4,0)"><path
             d="m 85,423.5 c 4.1,0 7.1,-3.1 7.1,-7.1 0,-4 -3,-7.1 -7.1,-7.1 -4,0 -7,3.1 -7,7.1 0,4 3,7.1 7,7.1 z"
             style="fill:none;stroke:#000000;stroke-width:0.75;stroke-linecap:butt;stroke-linejoin:round;stroke-miterlimit:10;stroke-dasharray:none;stroke-opacity:1"
             id="path11695"
             inkscape:connector-curvature="0" /></g><g
           id="g11697"
           transform="matrix(-1,0,0,1,694.4,0)"><path
             d="M 78,423.5 Z"
             style="fill:none;stroke:#000000;stroke-width:0.75;stroke-linecap:butt;stroke-linejoin:round;stroke-miterlimit:10;stroke-dasharray:none;stroke-opacity:1"
             id="path11699"
             inkscape:connector-curvature="0" /></g><g
           id="g11701"
           transform="matrix(-1,0,0,1,694.4,0)"><path
             d="M 92.2,409.3 Z"
             style="fill:none;stroke:#000000;stroke-width:0.75;stroke-linecap:butt;stroke-linejoin:round;stroke-miterlimit:10;stroke-dasharray:none;stroke-opacity:1"
             id="path11703"
             inkscape:connector-curvature="0" /></g><path
           d="m 99.2,447.6 c -4.9,0 -8.6,-3.7 -8.6,-8.5 0,-4.8 3.7,-8.5 8.6,-8.5 4.8,0 8.4,3.7 8.4,8.5 0,4.8 -3.6,8.5 -8.4,8.5 z m 8.4,0 z m -17,-17 z"
           style="fill:#ffffff;fill-opacity:1;fill-rule:evenodd;stroke:none"
           id="path11705"
           inkscape:connector-curvature="0" /><g
           id="g11707"
           transform="matrix(-1,0,0,1,694.4,0)"><path
             d="m 595.2,447.6 c 4.9,0 8.6,-3.7 8.6,-8.5 0,-4.8 -3.7,-8.5 -8.6,-8.5 -4.8,0 -8.4,3.7 -8.4,8.5 0,4.8 3.6,8.5 8.4,8.5 z"
             style="fill:none;stroke:#000000;stroke-width:0.75;stroke-linecap:butt;stroke-linejoin:round;stroke-miterlimit:10;stroke-dasharray:none;stroke-opacity:1"
             id="path11709"
             inkscape:connector-curvature="0" /></g><g
           id="g11711"
           transform="matrix(-1,0,0,1,694.4,0)"><path
             d="M 586.8,447.6 Z"
             style="fill:none;stroke:#000000;stroke-width:0.75;stroke-linecap:butt;stroke-linejoin:round;stroke-miterlimit:10;stroke-dasharray:none;stroke-opacity:1"
             id="path11713"
             inkscape:connector-curvature="0" /></g><g
           id="g11715"
           transform="matrix(-1,0,0,1,694.4,0)"><path
             d="M 603.8,430.6 Z"
             style="fill:none;stroke:#000000;stroke-width:0.75;stroke-linecap:butt;stroke-linejoin:round;stroke-miterlimit:10;stroke-dasharray:none;stroke-opacity:1"
             id="path11717"
             inkscape:connector-curvature="0" /></g><g
           id="g11719"
           transform="matrix(-1,0,0,1,694.4,0)" /><g
           id="g11721"
           transform="matrix(-1,0,0,1,694.4,0)"><text
             transform="matrix(1,0,0,-1,574.3,462.5)"
             style="font-variant:normal;font-weight:bold;font-size:13px;font-family:'Liberation Sans';-inkscape-font-specification:LiberationSans-Bold;writing-mode:lr-tb;fill:#000000;fill-opacity:1;fill-rule:nonzero;stroke:none"
             id="text11725"><tspan
               x="0 7.9039998 15.106 23.087999 30.992001 38.194"
               y="0"
               sodipodi:role="line"
               id="tspan11723">hyphae</tspan></text>
</g><g
           id="g11727"
           transform="matrix(-1,0,0,1,694.4,0)"><text
             transform="matrix(1,0,0,-1,567.1,404.5)"
             style="font-variant:normal;font-weight:bold;font-size:13px;font-family:'Liberation Sans';-inkscape-font-specification:LiberationSans-Bold;writing-mode:lr-tb;fill:#000000;fill-opacity:1;fill-rule:nonzero;stroke:none"
             id="text11731"><tspan
               x="0 11.505 19.487 26.688999 34.592999 39.598 47.501999 55.484001"
               y="0"
               sodipodi:role="line"
               id="tspan11729">mushroom</tspan></text>
</g></g></g></g></svg>