<?xml version="1.0" encoding="UTF-8" standalone="no"?>
<svg
   xmlns:dc="http://purl.org/dc/elements/1.1/"
   xmlns:cc="http://creativecommons.org/ns#"
   xmlns:rdf="http://www.w3.org/1999/02/22-rdf-syntax-ns#"
   xmlns:svg="http://www.w3.org/2000/svg"
   xmlns="http://www.w3.org/2000/svg"
   id="svg2127"
   height="210mm"
   width="297mm"
   version="1.0">
  <metadata
     id="metadata2131">
    <rdf:RDF>
      <cc:Work
         rdf:about="">
        <dc:format>image/svg+xml</dc:format>
        <dc:type
           rdf:resource="http://purl.org/dc/dcmitype/StillImage" />
        <dc:title></dc:title>
      </cc:Work>
    </rdf:RDF>
  </metadata>
  <defs
     id="defs1821">
    <clipPath
       id="clipEmfPath1"
       clipPathUnits="userSpaceOnUse">
      <path
         id="path1817"
         d="M 0,0 L 1122.3507,0 L 1122.3507,793.57024 L 0,793.57024 z" />
    </clipPath>
    <pattern
       y="0"
       x="0"
       height="6"
       width="6"
       patternUnits="userSpaceOnUse"
       id="EMFhbasepattern" />
  </defs>
  <path
     transform="matrix(-1,0,0,1,918.33676,0)"
     id="path1823"
     d="M 459.15893,605.67409 H 0 V 0 h 918.31786 v 605.67409 z"
     clip-path="url(#clipEmfPath1)"
     style="fill:#cfe7f5;fill-opacity:1;fill-rule:evenodd;stroke:none" />
  <path
     transform="matrix(-1,0,0,1,918.33676,0)"
     id="path1825"
     d="M 459.15893,605.67409 H 0 V 0 H 918.31786 V 605.67409 H 459.15893"
     clip-path="url(#clipEmfPath1)"
     style="fill:none;stroke:#cfe7f5;stroke-width:0.03779086px;stroke-linecap:round;stroke-linejoin:round;stroke-miterlimit:4;stroke-dasharray:none;stroke-opacity:1" />
  <g
     transform="matrix(-1,0,0,1,918.33676,0)"
     id="g1837"
     clip-path="url(#clipEmfPath1)">
    <text
       id="text1835"
       y="0"
       x="0"
       transform="translate(55.099072,181.28275)"
       style="font-style:normal;font-variant:normal;font-weight:700;font-size:19.1875px;line-height:445.90749741%;font-family:'Liberation Sans';text-align:start;letter-spacing:0px;word-spacing:0px;text-anchor:start;fill:#000000;fill-opacity:1;stroke:none"
       xml:space="preserve"><tspan
         id="tspan1829"
         y="0"
         x="0"><tspan
           id="tspan1827"
           style="font-style:normal;font-variant:normal;font-weight:700;font-size:19.1875px;font-family:'Liberation Sans';fill:#000000"
           dy="0"
           dx="0">power</tspan></tspan><tspan
         id="tspan1833"
         y="85.558502"
         x="0"><tspan
           id="tspan1831"
           style="font-style:normal;font-variant:normal;font-weight:700;font-size:19.1875px;font-family:'Liberation Sans';fill:#000000"
           dy="0"
           dx="0">active</tspan></tspan></text>
  </g>
  <path
     transform="matrix(-1,0,0,1,918.33676,0)"
     id="path1839"
     d="M 719.34899,553.44712 H 571.39778 V 344.61484 H 867.3002 v 208.83228 z"
     clip-path="url(#clipEmfPath1)"
     style="fill:#dc2300;fill-opacity:1;fill-rule:evenodd;stroke:none" />
  <path
     transform="matrix(-1,0,0,1,918.33676,0)"
     id="path1841"
     d="M 719.34899,553.44712 H 571.39778 V 344.61484 H 867.3002 V 553.44712 H 719.34899"
     clip-path="url(#clipEmfPath1)"
     style="fill:none;stroke:#3465a4;stroke-width:0.03779086px;stroke-linecap:round;stroke-linejoin:round;stroke-miterlimit:4;stroke-dasharray:none;stroke-opacity:1" />
  <g
     transform="matrix(-1,0,0,1,918.33676,0)"
     id="g1865"
     clip-path="url(#clipEmfPath1)">
    <text
       id="text1851"
       y="0"
       x="0"
       transform="translate(244.58244,306.59723)"
       style="font-style:normal;font-variant:normal;font-weight:700;font-size:19.1875px;line-height:125%;font-family:'Liberation Sans';text-align:start;letter-spacing:0px;word-spacing:0px;text-anchor:start;fill:#000000;fill-opacity:1;stroke:none"
       xml:space="preserve"><tspan
         id="tspan1849"
         y="0"
         x="0"><tspan
           id="tspan1843"
           style="font-style:normal;font-variant:normal;font-weight:700;font-size:19.1875px;font-family:'Liberation Sans';fill:#000000"
           dy="0"
           dx="0">temperature [</tspan><tspan
           id="tspan1845"
           style="font-style:normal;font-variant:normal;font-weight:700;font-size:19.1875px;font-family:'Liberation Sans';fill:#000000"
           dy="0"
           dx="0">°</tspan><tspan
           id="tspan1847"
           style="font-style:normal;font-variant:normal;font-weight:700;font-size:19.1875px;font-family:'Liberation Sans';fill:#000000"
           dy="0"
           dx="0">C]</tspan></tspan></text>
    <text
       id="text1857"
       y="0"
       x="257.09122"
       transform="translate(244.58244,306.59723)"
       style="font-style:normal;font-variant:normal;font-weight:700;font-size:19.1875px;line-height:125%;font-family:'Liberation Sans';text-align:start;letter-spacing:0px;word-spacing:0px;text-anchor:start;fill:#000000;fill-opacity:1;stroke:none"
       xml:space="preserve"><tspan
         id="tspan1855"
         y="0"
         x="257.09122"><tspan
           id="tspan1853"
           style="font-style:normal;font-variant:normal;font-weight:700;font-size:19.1875px;font-family:'Liberation Sans';fill:#000000"
           dy="0"
           dx="0">relative humidity [%]</tspan></tspan></text>
    <text
       id="text1863"
       y="0"
       x="547.58954"
       transform="translate(244.58244,306.59723)"
       style="font-style:normal;font-variant:normal;font-weight:700;font-size:19.1875px;line-height:125%;font-family:'Liberation Sans';text-align:start;letter-spacing:0px;word-spacing:0px;text-anchor:start;fill:#000000;fill-opacity:1;stroke:none"
       xml:space="preserve"><tspan
         id="tspan1861"
         y="0"
         x="547.58954"><tspan
           id="tspan1859"
           style="font-style:normal;font-variant:normal;font-weight:700;font-size:19.1875px;font-family:'Liberation Sans';fill:#000000"
           dy="0"
           dx="0">mode</tspan></tspan></text>
  </g>
  <path
     transform="matrix(-1,0,0,1,918.33676,0)"
     id="path1867"
     d="M 459.15893,271.48953 H 173.46004 V 104.41614 h 571.39778 v 167.07339 z"
     clip-path="url(#clipEmfPath1)"
     style="fill:#ffffff;fill-opacity:1;fill-rule:evenodd;stroke:none" />
  <path
     transform="matrix(-1,0,0,1,918.33676,0)"
     id="path1869"
     d="m 459.15893,269.82673 v 1.6628 1.6628 H 173.46004 v -1.6628 -1.6628 z"
     clip-path="url(#clipEmfPath1)"
     style="fill:#000000;fill-opacity:1;fill-rule:evenodd;stroke:none" />
  <path
     transform="matrix(-1,0,0,1,918.33676,0)"
     id="path1871"
     d="m 173.46004,273.15233 c -0.30233,0 -0.56686,-0.0756 -0.8314,-0.22675 -0.26453,-0.15116 -0.45349,-0.34012 -0.60465,-0.60465 -0.15117,-0.26454 -0.22675,-0.52908 -0.22675,-0.8314 h 1.6628 z"
     clip-path="url(#clipEmfPath1)"
     style="fill:#000000;fill-opacity:1;fill-rule:evenodd;stroke:none" />
  <path
     transform="matrix(-1,0,0,1,918.33676,0)"
     id="path1873"
     d="m 175.12284,271.48953 h -1.6628 -1.6628 V 104.41614 h 1.6628 1.6628 z"
     clip-path="url(#clipEmfPath1)"
     style="fill:#000000;fill-opacity:1;fill-rule:evenodd;stroke:none" />
  <path
     transform="matrix(-1,0,0,1,918.33676,0)"
     id="path1875"
     d="m 171.79724,104.41614 c 0,-0.30232 0.0756,-0.56686 0.22675,-0.8314 0.15116,-0.26453 0.34012,-0.45349 0.60465,-0.60465 0.26454,-0.15116 0.52907,-0.22675 0.8314,-0.22675 v 1.6628 z"
     clip-path="url(#clipEmfPath1)"
     style="fill:#000000;fill-opacity:1;fill-rule:evenodd;stroke:none" />
  <path
     transform="matrix(-1,0,0,1,918.33676,0)"
     id="path1877"
     d="m 173.46004,106.07894 v -1.6628 -1.6628 h 571.39778 v 1.6628 1.6628 z"
     clip-path="url(#clipEmfPath1)"
     style="fill:#000000;fill-opacity:1;fill-rule:evenodd;stroke:none" />
  <path
     transform="matrix(-1,0,0,1,918.33676,0)"
     id="path1879"
     d="m 744.85782,102.75334 c 0.30233,0 0.56686,0.0756 0.8314,0.22675 0.26454,0.15116 0.45349,0.34012 0.60465,0.60465 0.15117,0.26454 0.22675,0.52908 0.22675,0.8314 v 0 h -1.6628 z"
     clip-path="url(#clipEmfPath1)"
     style="fill:#000000;fill-opacity:1;fill-rule:evenodd;stroke:none" />
  <path
     transform="matrix(-1,0,0,1,918.33676,0)"
     id="path1881"
     d="m 743.19502,104.41614 h 1.6628 1.6628 v 167.07339 h -1.6628 -1.6628 z"
     clip-path="url(#clipEmfPath1)"
     style="fill:#000000;fill-opacity:1;fill-rule:evenodd;stroke:none" />
  <path
     transform="matrix(-1,0,0,1,918.33676,0)"
     id="path1883"
     d="m 746.52062,271.48953 c 0,0.30232 -0.0756,0.56686 -0.22675,0.8314 -0.15116,0.26453 -0.34011,0.45349 -0.60465,0.60465 -0.26454,0.15116 -0.52907,0.22675 -0.8314,0.22675 v -1.6628 z"
     clip-path="url(#clipEmfPath1)"
     style="fill:#000000;fill-opacity:1;fill-rule:evenodd;stroke:none" />
  <path
     transform="matrix(-1,0,0,1,918.33676,0)"
     id="path1885"
     d="m 744.85782,269.82673 v 1.6628 1.6628 H 459.15893 v -1.6628 -1.6628 z"
     clip-path="url(#clipEmfPath1)"
     style="fill:#000000;fill-opacity:1;fill-rule:evenodd;stroke:none" />
  <path
     transform="matrix(-1,0,0,1,918.33676,0)"
     id="path1887"
     d="m 459.15893,562.2146 v 1.6628 1.6628 H 40.814127 v -1.6628 -1.6628 z"
     clip-path="url(#clipEmfPath1)"
     style="fill:#000000;fill-opacity:1;fill-rule:evenodd;stroke:none" />
  <path
     transform="matrix(-1,0,0,1,918.33676,0)"
     id="path1889"
     d="m 40.814127,565.5402 c -0.302327,0 -0.566863,-0.0756 -0.831399,-0.22675 -0.264536,-0.15116 -0.45349,-0.34012 -0.604653,-0.60465 -0.151164,-0.26454 -0.226746,-0.52907 -0.226746,-0.8314 h 1.662798 z"
     clip-path="url(#clipEmfPath1)"
     style="fill:#000000;fill-opacity:1;fill-rule:evenodd;stroke:none" />
  <path
     transform="matrix(-1,0,0,1,918.33676,0)"
     id="path1891"
     d="M 42.476925,563.8774 H 40.814127 39.151329 V 334.14677 h 1.662798 1.662798 z"
     clip-path="url(#clipEmfPath1)"
     style="fill:#000000;fill-opacity:1;fill-rule:evenodd;stroke:none" />
  <path
     transform="matrix(-1,0,0,1,918.33676,0)"
     id="path1893"
     d="m 39.151329,334.14677 c 0,-0.30233 0.07558,-0.56686 0.226746,-0.8314 0.151163,-0.26453 0.340117,-0.45349 0.604653,-0.60465 0.264536,-0.15117 0.529072,-0.22675 0.831399,-0.22675 v 1.6628 z"
     clip-path="url(#clipEmfPath1)"
     style="fill:#000000;fill-opacity:1;fill-rule:evenodd;stroke:none" />
  <path
     transform="matrix(-1,0,0,1,918.33676,0)"
     id="path1895"
     d="m 40.814127,335.80957 v -1.6628 -1.6628 H 877.50373 v 1.6628 1.6628 z"
     clip-path="url(#clipEmfPath1)"
     style="fill:#000000;fill-opacity:1;fill-rule:evenodd;stroke:none" />
  <path
     transform="matrix(-1,0,0,1,918.33676,0)"
     id="path1897"
     d="m 877.50373,332.48397 c 0.30233,0 0.56687,0.0756 0.8314,0.22675 0.26454,0.15116 0.45349,0.34012 0.60466,0.60465 0.15116,0.26454 0.22674,0.52907 0.22674,0.8314 v 0 h -1.6628 z"
     clip-path="url(#clipEmfPath1)"
     style="fill:#000000;fill-opacity:1;fill-rule:evenodd;stroke:none" />
  <path
     transform="matrix(-1,0,0,1,918.33676,0)"
     id="path1899"
     d="m 875.84094,334.14677 h 1.66279 1.6628 V 563.8774 h -1.6628 -1.66279 z"
     clip-path="url(#clipEmfPath1)"
     style="fill:#000000;fill-opacity:1;fill-rule:evenodd;stroke:none" />
  <path
     transform="matrix(-1,0,0,1,918.33676,0)"
     id="path1901"
     d="m 879.16653,563.8774 c 0,0.30233 -0.0756,0.56686 -0.22674,0.8314 -0.15117,0.26453 -0.34012,0.45349 -0.60466,0.60465 -0.26453,0.15117 -0.52907,0.22675 -0.8314,0.22675 v -1.6628 z"
     clip-path="url(#clipEmfPath1)"
     style="fill:#000000;fill-opacity:1;fill-rule:evenodd;stroke:none" />
  <path
     transform="matrix(-1,0,0,1,918.33676,0)"
     id="path1903"
     d="m 877.50373,562.2146 v 1.6628 1.6628 h -418.3448 v -1.6628 -1.6628 z"
     clip-path="url(#clipEmfPath1)"
     style="fill:#000000;fill-opacity:1;fill-rule:evenodd;stroke:none" />
  <g
     transform="matrix(-1,0,0,1,928.33676,0)"
     id="g1995"
     clip-path="url(#clipEmfPath1)">
    <text
       id="text1909"
       y="0"
       x="0"
       transform="translate(111.93652,385.95804)"
       style="font-style:normal;font-variant:normal;font-weight:700;font-size:19.1875px;line-height:125%;font-family:'Liberation Sans';text-align:start;letter-spacing:0px;word-spacing:0px;text-anchor:start;fill:#000000;fill-opacity:1;stroke:none"
       xml:space="preserve"><tspan
         id="tspan1907"
         y="0"
         x="0"><tspan
           id="tspan1905"
           style="font-style:normal;font-variant:normal;font-weight:700;font-size:19.1875px;font-family:'Liberation Sans';fill:#000000"
           dy="0"
           dx="0">manual mode</tspan></tspan></text>
    <text
       id="text1915"
       y="0"
       x="265.89648"
       transform="translate(111.93652,385.95804)"
       style="font-style:normal;font-variant:normal;font-weight:700;font-size:19.1875px;line-height:125%;font-family:'Liberation Sans';text-align:start;letter-spacing:0px;word-spacing:0px;text-anchor:start;fill:#000000;fill-opacity:1;stroke:none"
       xml:space="preserve"><tspan
         id="tspan1913"
         y="0"
         x="265.89648"><tspan
           id="tspan1911"
           style="font-style:normal;font-variant:normal;font-weight:700;font-size:19.1875px;font-family:'Liberation Sans';fill:#000000"
           dy="0"
           dx="0">heating</tspan></tspan></text>
    <text
       id="text1921"
       y="0"
       x="531.3017"
       transform="translate(111.93652,385.95804)"
       style="font-style:normal;font-variant:normal;font-weight:700;font-size:19.1875px;line-height:125%;font-family:'Liberation Sans';text-align:start;letter-spacing:0px;word-spacing:0px;text-anchor:start;fill:#000000;fill-opacity:1;stroke:none"
       xml:space="preserve"><tspan
         id="tspan1919"
         y="0"
         x="531.3017"><tspan
           id="tspan1917"
           style="font-style:normal;font-variant:normal;font-weight:700;font-size:19.1875px;font-family:'Liberation Sans';fill:#ffffff"
           dy="0"
           dx="0">wrong temperature</tspan></tspan></text>
    <text
       id="text1927"
       y="138.65466"
       x="0"
       transform="translate(111.93652,385.95804)"
       style="font-style:normal;font-variant:normal;font-weight:700;font-size:19.1875px;line-height:125%;font-family:'Liberation Sans';text-align:start;letter-spacing:0px;word-spacing:0px;text-anchor:start;fill:#000000;fill-opacity:1;stroke:none"
       xml:space="preserve"><tspan
         id="tspan1925"
         y="138.65466"
         x="0"><tspan
           id="tspan1923"
           style="font-style:normal;font-variant:normal;font-weight:700;font-size:19.1875px;font-family:'Liberation Sans';fill:#000000"
           dy="0"
           dx="0">opened doors</tspan></tspan></text>
    <text
       id="text1933"
       y="138.65466"
       x="265.89648"
       transform="translate(111.93652,385.95804)"
       style="font-style:normal;font-variant:normal;font-weight:700;font-size:19.1875px;line-height:125%;font-family:'Liberation Sans';text-align:start;letter-spacing:0px;word-spacing:0px;text-anchor:start;fill:#000000;fill-opacity:1;stroke:none"
       xml:space="preserve"><tspan
         id="tspan1931"
         y="138.65466"
         x="265.89648"><tspan
           id="tspan1929"
           style="font-style:normal;font-variant:normal;font-weight:700;font-size:19.1875px;font-family:'Liberation Sans';fill:#000000"
           dy="0"
           dx="0">humidifying</tspan></tspan></text>
    <text
       id="text1939"
       y="138.65466"
       x="531.3017"
       transform="translate(111.93652,385.95804)"
       style="font-style:normal;font-variant:normal;font-weight:700;font-size:19.1875px;line-height:125%;font-family:'Liberation Sans';text-align:start;letter-spacing:0px;word-spacing:0px;text-anchor:start;fill:#000000;fill-opacity:1;stroke:none"
       xml:space="preserve"><tspan
         id="tspan1937"
         y="138.65466"
         x="531.3017"><tspan
           id="tspan1935"
           style="font-style:normal;font-variant:normal;font-weight:700;font-size:19.1875px;font-family:'Liberation Sans';fill:#ffffff"
           dy="0"
           dx="0">wrong humidity</tspan></tspan></text>
    <text
       id="text1945"
       y="45.953686"
       x="0"
       transform="translate(111.93652,385.95804)"
       style="font-style:normal;font-variant:normal;font-weight:700;font-size:19.1875px;line-height:125%;font-family:'Liberation Sans';text-align:start;letter-spacing:0px;word-spacing:0px;text-anchor:start;fill:#000000;fill-opacity:1;stroke:none"
       xml:space="preserve"><tspan
         id="tspan1943"
         y="45.953686"
         x="0"><tspan
           id="tspan1941"
           style="font-style:normal;font-variant:normal;font-weight:700;font-size:19.1875px;font-family:'Liberation Sans';fill:#000000"
           dy="0"
           dx="0">overcurrent protection</tspan></tspan></text>
    <text
       id="text1951"
       y="45.953686"
       x="265.89648"
       transform="translate(111.93652,385.95804)"
       style="font-style:normal;font-variant:normal;font-weight:700;font-size:19.1875px;line-height:125%;font-family:'Liberation Sans';text-align:start;letter-spacing:0px;word-spacing:0px;text-anchor:start;fill:#000000;fill-opacity:1;stroke:none"
       xml:space="preserve"><tspan
         id="tspan1949"
         y="45.953686"
         x="265.89648"><tspan
           id="tspan1947"
           style="font-style:normal;font-variant:normal;font-weight:700;font-size:19.1875px;font-family:'Liberation Sans';fill:#000000"
           dy="0"
           dx="0">lighting</tspan></tspan></text>
    <text
       id="text1957"
       y="45.953686"
       x="531.3017"
       transform="translate(111.93652,385.95804)"
       style="font-style:normal;font-variant:normal;font-weight:700;font-size:19.1875px;line-height:125%;font-family:'Liberation Sans';text-align:start;letter-spacing:0px;word-spacing:0px;text-anchor:start;fill:#000000;fill-opacity:1;stroke:none"
       xml:space="preserve"><tspan
         id="tspan1955"
         y="45.953686"
         x="531.3017"><tspan
           id="tspan1953"
           style="font-style:normal;font-variant:normal;font-weight:700;font-size:19.1875px;font-family:'Liberation Sans';fill:#ffffff"
           dy="0"
           dx="0">protection error</tspan></tspan></text>
    <text
       id="text1963"
       y="91.038177"
       x="0"
       transform="translate(111.93652,385.95804)"
       style="font-style:normal;font-variant:normal;font-weight:700;font-size:19.1875px;line-height:125%;font-family:'Liberation Sans';text-align:start;letter-spacing:0px;word-spacing:0px;text-anchor:start;fill:#000000;fill-opacity:1;stroke:none"
       xml:space="preserve"><tspan
         id="tspan1961"
         y="91.038177"
         x="0"><tspan
           id="tspan1959"
           style="font-style:normal;font-variant:normal;font-weight:700;font-size:19.1875px;font-family:'Liberation Sans';fill:#000000"
           dy="0"
           dx="0">water pressure</tspan></tspan></text>
    <text
       id="text1969"
       y="91.038177"
       x="265.89648"
       transform="translate(111.93652,385.95804)"
       style="font-style:normal;font-variant:normal;font-weight:700;font-size:19.1875px;line-height:125%;font-family:'Liberation Sans';text-align:start;letter-spacing:0px;word-spacing:0px;text-anchor:start;fill:#000000;fill-opacity:1;stroke:none"
       xml:space="preserve"><tspan
         id="tspan1967"
         y="91.038177"
         x="265.89648"><tspan
           id="tspan1965"
           style="font-style:normal;font-variant:normal;font-weight:700;font-size:19.1875px;font-family:'Liberation Sans';fill:#000000"
           dy="0"
           dx="0">ventilating</tspan></tspan></text>
    <text
       id="text1975"
       y="91.038177"
       x="531.3017"
       transform="translate(111.93652,385.95804)"
       style="font-style:normal;font-variant:normal;font-weight:700;font-size:19.1875px;line-height:125%;font-family:'Liberation Sans';text-align:start;letter-spacing:0px;word-spacing:0px;text-anchor:start;fill:#000000;fill-opacity:1;stroke:none"
       xml:space="preserve"><tspan
         id="tspan1973"
         y="91.038177"
         x="531.3017"><tspan
           id="tspan1971"
           style="font-style:normal;font-variant:normal;font-weight:700;font-size:19.1875px;font-family:'Liberation Sans';fill:#ffffff"
           dy="0"
           dx="0">low water pressure</tspan></tspan></text>
    <text
       id="text1987"
       y="-232.52715"
       x="663.83423"
       transform="translate(111.93652,385.95804)"
       style="font-style:normal;font-variant:normal;font-weight:700;font-size:19.1875px;line-height:445.71056366%;font-family:'Liberation Sans';text-align:start;letter-spacing:0px;word-spacing:0px;text-anchor:start;fill:#000000;fill-opacity:1;stroke:none"
       xml:space="preserve"><tspan
         id="tspan1981"
         y="-232.52715"
         x="663.83423"><tspan
           id="tspan1977"
           style="font-style:normal;font-variant:normal;font-weight:700;font-size:19.1875px;font-family:'Liberation Sans';fill:#000000"
           dy="0"
           dx="0" /><tspan
           id="tspan1979"
           style="font-style:normal;font-variant:normal;font-weight:700;font-size:19.1875px;font-family:'Liberation Sans';fill:#000000"
           dy="0"
           dx="0">hyphae</tspan></tspan><tspan
         id="tspan1985"
         y="-147.00642"
         x="663.83423"><tspan
           id="tspan1983"
           style="font-style:normal;font-variant:normal;font-weight:700;font-size:19.1875px;font-family:'Liberation Sans';fill:#000000"
           dy="0"
           dx="0">mushroom</tspan></tspan></text>
    <text
       id="text1993"
       y="-339.89099"
       x="181.50949"
       transform="translate(111.93652,385.95804)"
       style="font-style:normal;font-variant:normal;font-weight:700;font-size:22.125px;line-height:125%;font-family:'Liberation Sans';text-align:start;letter-spacing:0px;word-spacing:0px;text-anchor:start;fill:#000000;fill-opacity:1;stroke:none"
       xml:space="preserve"><tspan
         id="tspan1991"
         y="-339.89099"
         x="181.50949"><tspan
           id="tspan1989"
           style="font-style:normal;font-variant:normal;font-weight:700;font-size:22.125px;font-family:'Liberation Sans';fill:#000000"
           dy="0"
           dx="0">Programmable controlling and remote monitoring device</tspan></tspan></text>
  </g>
  <path
     transform="matrix(-1,0,0,1,918.33676,0)"
     id="path1997"
     d="m 40.814127,60.31421 v -1.662798 -1.662797 l 837.558793,0.07558 v 1.662798 1.662798 z"
     clip-path="url(#clipEmfPath1)"
     style="fill:#000000;fill-opacity:1;fill-rule:evenodd;stroke:none" />
  <g
     transform="matrix(-1,0,0,1,920.33676,0)"
     id="g2005"
     clip-path="url(#clipEmfPath1)">
    <text
       id="text2003"
       y="0"
       x="0"
       transform="translate(42.854834,50.18626)"
       style="font-style:normal;font-variant:normal;font-weight:700;font-size:26.5px;line-height:125%;font-family:'Liberation Sans';text-align:start;letter-spacing:0px;word-spacing:0px;text-anchor:start;fill:#000000;fill-opacity:1;stroke:none"
       xml:space="preserve"><tspan
         id="tspan2001"
         y="0"
         x="0"><tspan
           id="tspan1999"
           style="font-style:normal;font-variant:normal;font-weight:700;font-size:26.5px;font-family:'Liberation Sans';fill:#000000"
           dy="0"
           dx="0">MM5D</tspan></tspan></text>
  </g>
  <path
     transform="matrix(-1,0,0,1,918.33676,0)"
     id="path2007"
     d="m 81.930581,132.87266 c 2.909896,0 5.177348,2.26745 5.177348,5.21514 0,2.98547 -2.267452,5.21514 -5.177348,5.21514 -2.947687,0 -5.215138,-2.22967 -5.215138,-5.21514 0,-2.94769 2.267451,-5.21514 5.215138,-5.21514 z m -5.215138,0 z m 10.468068,10.50586 z"
     clip-path="url(#clipEmfPath1)"
     style="fill:#000000;fill-opacity:1;fill-rule:evenodd;stroke:none" />
  <path
     transform="matrix(-1,0,0,1,918.33676,0)"
     id="path2009"
     d="m 81.930581,132.87266 c 2.909896,0 5.177348,2.26745 5.177348,5.21514 0,2.98547 -2.267452,5.21514 -5.177348,5.21514 -2.947687,0 -5.215138,-2.22967 -5.215138,-5.21514 0,-2.94769 2.267451,-5.21514 5.215138,-5.21514"
     clip-path="url(#clipEmfPath1)"
     style="fill:none;stroke:#000000;stroke-width:0.03779086px;stroke-linecap:round;stroke-linejoin:round;stroke-miterlimit:4;stroke-dasharray:none;stroke-opacity:1" />
  <path
     transform="matrix(-1,0,0,1,918.33676,0)"
     id="path2011"
     d="m 76.715443,132.87266 v 0"
     clip-path="url(#clipEmfPath1)"
     style="fill:none;stroke:#000000;stroke-width:0.03779086px;stroke-linecap:round;stroke-linejoin:round;stroke-miterlimit:4;stroke-dasharray:none;stroke-opacity:1" />
  <path
     transform="matrix(-1,0,0,1,918.33676,0)"
     id="path2013"
     d="m 87.183511,143.37852 v 0"
     clip-path="url(#clipEmfPath1)"
     style="fill:none;stroke:#000000;stroke-width:0.03779086px;stroke-linecap:round;stroke-linejoin:round;stroke-miterlimit:4;stroke-dasharray:none;stroke-opacity:1" />
  <path
     transform="matrix(-1,0,0,1,918.33676,0)"
     id="path2015"
     d="m 81.590464,216.42825 c 2.758732,0 4.912811,2.22966 4.912811,5.21514 0,2.94768 -2.154079,5.21513 -4.912811,5.21513 -2.796524,0 -4.912812,-2.26745 -4.912812,-5.21513 0,-2.98548 2.116288,-5.21514 4.912812,-5.21514 z m -4.912812,0 z m 9.901205,10.46806 z"
     clip-path="url(#clipEmfPath1)"
     style="fill:#000000;fill-opacity:1;fill-rule:evenodd;stroke:none" />
  <path
     transform="matrix(-1,0,0,1,918.33676,0)"
     id="path2017"
     d="m 81.590464,216.42825 c 2.758732,0 4.912811,2.22966 4.912811,5.21514 0,2.94768 -2.154079,5.21513 -4.912811,5.21513 -2.796524,0 -4.912812,-2.26745 -4.912812,-5.21513 0,-2.98548 2.116288,-5.21514 4.912812,-5.21514"
     clip-path="url(#clipEmfPath1)"
     style="fill:none;stroke:#000000;stroke-width:0.03779086px;stroke-linecap:round;stroke-linejoin:round;stroke-miterlimit:4;stroke-dasharray:none;stroke-opacity:1" />
  <path
     transform="matrix(-1,0,0,1,918.33676,0)"
     id="path2019"
     d="m 76.677652,216.42825 v 0"
     clip-path="url(#clipEmfPath1)"
     style="fill:none;stroke:#000000;stroke-width:0.03779086px;stroke-linecap:round;stroke-linejoin:round;stroke-miterlimit:4;stroke-dasharray:none;stroke-opacity:1" />
  <path
     transform="matrix(-1,0,0,1,918.33676,0)"
     id="path2021"
     d="m 86.578857,226.89631 v 0"
     clip-path="url(#clipEmfPath1)"
     style="fill:none;stroke:#000000;stroke-width:0.03779086px;stroke-linecap:round;stroke-linejoin:round;stroke-miterlimit:4;stroke-dasharray:none;stroke-opacity:1" />
  <path
     transform="matrix(-1,0,0,1,918.33676,0)"
     id="path2023"
     d="m 81.930581,375.18764 c 2.909896,0 5.177348,2.22966 5.177348,5.21514 0,2.94769 -2.267452,5.21514 -5.177348,5.21514 -2.947687,0 -5.215138,-2.26745 -5.215138,-5.21514 0,-2.98548 2.267451,-5.21514 5.215138,-5.21514 z m -5.215138,0 z m 10.468068,10.46807 z"
     clip-path="url(#clipEmfPath1)"
     style="fill:#000000;fill-opacity:1;fill-rule:evenodd;stroke:none" />
  <path
     transform="matrix(-1,0,0,1,918.33676,0)"
     id="path2025"
     d="m 81.930581,375.18764 c 2.909896,0 5.177348,2.22966 5.177348,5.21514 0,2.94769 -2.267452,5.21514 -5.177348,5.21514 -2.947687,0 -5.215138,-2.26745 -5.215138,-5.21514 0,-2.98548 2.267451,-5.21514 5.215138,-5.21514"
     clip-path="url(#clipEmfPath1)"
     style="fill:none;stroke:#000000;stroke-width:0.03779086px;stroke-linecap:round;stroke-linejoin:round;stroke-miterlimit:4;stroke-dasharray:none;stroke-opacity:1" />
  <path
     transform="matrix(-1,0,0,1,918.33676,0)"
     id="path2027"
     d="m 76.715443,375.18764 v 0"
     clip-path="url(#clipEmfPath1)"
     style="fill:none;stroke:#000000;stroke-width:0.03779086px;stroke-linecap:round;stroke-linejoin:round;stroke-miterlimit:4;stroke-dasharray:none;stroke-opacity:1" />
  <path
     transform="matrix(-1,0,0,1,918.33676,0)"
     id="path2029"
     d="m 87.183511,385.65571 v 0"
     clip-path="url(#clipEmfPath1)"
     style="fill:none;stroke:#000000;stroke-width:0.03779086px;stroke-linecap:round;stroke-linejoin:round;stroke-miterlimit:4;stroke-dasharray:none;stroke-opacity:1" />
  <path
     transform="matrix(-1,0,0,1,918.33676,0)"
     id="path2031"
     d="m 81.930581,421.14133 c 2.909896,0 5.177348,2.22966 5.177348,5.21514 0,2.94768 -2.267452,5.21513 -5.177348,5.21513 -2.947687,0 -5.215138,-2.26745 -5.215138,-5.21513 0,-2.98548 2.267451,-5.21514 5.215138,-5.21514 z m -5.215138,0 z m 10.468068,10.46807 z"
     clip-path="url(#clipEmfPath1)"
     style="fill:#000000;fill-opacity:1;fill-rule:evenodd;stroke:none" />
  <path
     transform="matrix(-1,0,0,1,918.33676,0)"
     id="path2033"
     d="m 81.930581,421.14133 c 2.909896,0 5.177348,2.22966 5.177348,5.21514 0,2.94768 -2.267452,5.21513 -5.177348,5.21513 -2.947687,0 -5.215138,-2.26745 -5.215138,-5.21513 0,-2.98548 2.267451,-5.21514 5.215138,-5.21514"
     clip-path="url(#clipEmfPath1)"
     style="fill:none;stroke:#000000;stroke-width:0.03779086px;stroke-linecap:round;stroke-linejoin:round;stroke-miterlimit:4;stroke-dasharray:none;stroke-opacity:1" />
  <path
     transform="matrix(-1,0,0,1,918.33676,0)"
     id="path2035"
     d="m 76.715443,421.14133 v 0"
     clip-path="url(#clipEmfPath1)"
     style="fill:none;stroke:#000000;stroke-width:0.03779086px;stroke-linecap:round;stroke-linejoin:round;stroke-miterlimit:4;stroke-dasharray:none;stroke-opacity:1" />
  <path
     transform="matrix(-1,0,0,1,918.33676,0)"
     id="path2037"
     d="m 87.183511,431.6094 v 0"
     clip-path="url(#clipEmfPath1)"
     style="fill:none;stroke:#000000;stroke-width:0.03779086px;stroke-linecap:round;stroke-linejoin:round;stroke-miterlimit:4;stroke-dasharray:none;stroke-opacity:1" />
  <path
     transform="matrix(-1,0,0,1,918.33676,0)"
     id="path2039"
     d="m 81.930581,467.09501 c 2.909896,0 5.177348,2.26745 5.177348,5.25293 0,2.94769 -2.267452,5.21514 -5.177348,5.21514 -2.947687,0 -5.215138,-2.26745 -5.215138,-5.21514 0,-2.98548 2.267451,-5.25293 5.215138,-5.25293 z m -5.215138,0 z m 10.468068,10.50586 z"
     clip-path="url(#clipEmfPath1)"
     style="fill:#000000;fill-opacity:1;fill-rule:evenodd;stroke:none" />
  <path
     transform="matrix(-1,0,0,1,918.33676,0)"
     id="path2041"
     d="m 81.930581,467.09501 c 2.909896,0 5.177348,2.26745 5.177348,5.25293 0,2.94769 -2.267452,5.21514 -5.177348,5.21514 -2.947687,0 -5.215138,-2.26745 -5.215138,-5.21514 0,-2.98548 2.267451,-5.25293 5.215138,-5.25293"
     clip-path="url(#clipEmfPath1)"
     style="fill:none;stroke:#000000;stroke-width:0.03779086px;stroke-linecap:round;stroke-linejoin:round;stroke-miterlimit:4;stroke-dasharray:none;stroke-opacity:1" />
  <path
     transform="matrix(-1,0,0,1,918.33676,0)"
     id="path2043"
     d="m 76.715443,467.09501 v 0"
     clip-path="url(#clipEmfPath1)"
     style="fill:none;stroke:#000000;stroke-width:0.03779086px;stroke-linecap:round;stroke-linejoin:round;stroke-miterlimit:4;stroke-dasharray:none;stroke-opacity:1" />
  <path
     transform="matrix(-1,0,0,1,918.33676,0)"
     id="path2045"
     d="m 87.183511,477.60087 v 0"
     clip-path="url(#clipEmfPath1)"
     style="fill:none;stroke:#000000;stroke-width:0.03779086px;stroke-linecap:round;stroke-linejoin:round;stroke-miterlimit:4;stroke-dasharray:none;stroke-opacity:1" />
  <path
     transform="matrix(-1,0,0,1,918.33676,0)"
     id="path2047"
     d="m 81.930581,513.0487 c 2.909896,0 5.177348,2.26745 5.177348,5.21513 0,2.98548 -2.267452,5.25293 -5.177348,5.25293 -2.947687,0 -5.215138,-2.26745 -5.215138,-5.25293 0,-2.94768 2.267451,-5.21513 5.215138,-5.21513 z m -5.215138,0 z m 10.468068,10.50585 z"
     clip-path="url(#clipEmfPath1)"
     style="fill:#000000;fill-opacity:1;fill-rule:evenodd;stroke:none" />
  <path
     transform="matrix(-1,0,0,1,918.33676,0)"
     id="path2049"
     d="m 81.930581,513.0487 c 2.909896,0 5.177348,2.26745 5.177348,5.21513 0,2.98548 -2.267452,5.25293 -5.177348,5.25293 -2.947687,0 -5.215138,-2.26745 -5.215138,-5.25293 0,-2.94768 2.267451,-5.21513 5.215138,-5.21513"
     clip-path="url(#clipEmfPath1)"
     style="fill:none;stroke:#000000;stroke-width:0.03779086px;stroke-linecap:round;stroke-linejoin:round;stroke-miterlimit:4;stroke-dasharray:none;stroke-opacity:1" />
  <path
     transform="matrix(-1,0,0,1,918.33676,0)"
     id="path2051"
     d="m 76.715443,513.0487 v 0"
     clip-path="url(#clipEmfPath1)"
     style="fill:none;stroke:#000000;stroke-width:0.03779086px;stroke-linecap:round;stroke-linejoin:round;stroke-miterlimit:4;stroke-dasharray:none;stroke-opacity:1" />
  <path
     transform="matrix(-1,0,0,1,918.33676,0)"
     id="path2053"
     d="m 87.183511,523.55455 v 0"
     clip-path="url(#clipEmfPath1)"
     style="fill:none;stroke:#000000;stroke-width:0.03779086px;stroke-linecap:round;stroke-linejoin:round;stroke-miterlimit:4;stroke-dasharray:none;stroke-opacity:1" />
  <path
     transform="matrix(-1,0,0,1,918.33676,0)"
     id="path2055"
     d="m 347.22241,375.22543 c 2.90989,0 5.17735,2.26746 5.17735,5.21514 0,2.94769 -2.26746,5.21514 -5.17735,5.21514 -2.94769,0 -5.21514,-2.26745 -5.21514,-5.21514 0,-2.94768 2.26745,-5.21514 5.21514,-5.21514 z m -5.21514,0 z m 10.46807,10.46807 z"
     clip-path="url(#clipEmfPath1)"
     style="fill:#000000;fill-opacity:1;fill-rule:evenodd;stroke:none" />
  <path
     transform="matrix(-1,0,0,1,918.33676,0)"
     id="path2057"
     d="m 347.22241,375.22543 c 2.90989,0 5.17735,2.26746 5.17735,5.21514 0,2.94769 -2.26746,5.21514 -5.17735,5.21514 -2.94769,0 -5.21514,-2.26745 -5.21514,-5.21514 0,-2.94768 2.26745,-5.21514 5.21514,-5.21514"
     clip-path="url(#clipEmfPath1)"
     style="fill:none;stroke:#000000;stroke-width:0.03779086px;stroke-linecap:round;stroke-linejoin:round;stroke-miterlimit:4;stroke-dasharray:none;stroke-opacity:1" />
  <path
     transform="matrix(-1,0,0,1,918.33676,0)"
     id="path2059"
     d="m 342.00727,375.22543 v 0"
     clip-path="url(#clipEmfPath1)"
     style="fill:none;stroke:#000000;stroke-width:0.03779086px;stroke-linecap:round;stroke-linejoin:round;stroke-miterlimit:4;stroke-dasharray:none;stroke-opacity:1" />
  <path
     transform="matrix(-1,0,0,1,918.33676,0)"
     id="path2061"
     d="m 352.47534,385.6935 v 0"
     clip-path="url(#clipEmfPath1)"
     style="fill:none;stroke:#000000;stroke-width:0.03779086px;stroke-linecap:round;stroke-linejoin:round;stroke-miterlimit:4;stroke-dasharray:none;stroke-opacity:1" />
  <path
     transform="matrix(-1,0,0,1,918.33676,0)"
     id="path2063"
     d="m 347.22241,421.17912 c 2.90989,0 5.17735,2.22966 5.17735,5.21514 0,2.94768 -2.26746,5.21514 -5.17735,5.21514 -2.94769,0 -5.21514,-2.26746 -5.21514,-5.21514 0,-2.98548 2.26745,-5.21514 5.21514,-5.21514 z m -5.21514,0 z m 10.46807,10.46807 z"
     clip-path="url(#clipEmfPath1)"
     style="fill:#000000;fill-opacity:1;fill-rule:evenodd;stroke:none" />
  <path
     transform="matrix(-1,0,0,1,918.33676,0)"
     id="path2065"
     d="m 347.22241,421.17912 c 2.90989,0 5.17735,2.22966 5.17735,5.21514 0,2.94768 -2.26746,5.21514 -5.17735,5.21514 -2.94769,0 -5.21514,-2.26746 -5.21514,-5.21514 0,-2.98548 2.26745,-5.21514 5.21514,-5.21514"
     clip-path="url(#clipEmfPath1)"
     style="fill:none;stroke:#000000;stroke-width:0.03779086px;stroke-linecap:round;stroke-linejoin:round;stroke-miterlimit:4;stroke-dasharray:none;stroke-opacity:1" />
  <path
     transform="matrix(-1,0,0,1,918.33676,0)"
     id="path2067"
     d="m 342.00727,421.17912 v 0"
     clip-path="url(#clipEmfPath1)"
     style="fill:none;stroke:#000000;stroke-width:0.03779086px;stroke-linecap:round;stroke-linejoin:round;stroke-miterlimit:4;stroke-dasharray:none;stroke-opacity:1" />
  <path
     transform="matrix(-1,0,0,1,918.33676,0)"
     id="path2069"
     d="m 352.47534,431.64719 v 0"
     clip-path="url(#clipEmfPath1)"
     style="fill:none;stroke:#000000;stroke-width:0.03779086px;stroke-linecap:round;stroke-linejoin:round;stroke-miterlimit:4;stroke-dasharray:none;stroke-opacity:1" />
  <path
     transform="matrix(-1,0,0,1,918.33676,0)"
     id="path2071"
     d="m 347.22241,467.17059 c 2.90989,0 5.17735,2.22966 5.17735,5.21514 0,2.94769 -2.26746,5.21514 -5.17735,5.21514 -2.94769,0 -5.21514,-2.26745 -5.21514,-5.21514 0,-2.98548 2.26745,-5.21514 5.21514,-5.21514 z m -5.21514,0 z m 10.46807,10.46807 z"
     clip-path="url(#clipEmfPath1)"
     style="fill:#000000;fill-opacity:1;fill-rule:evenodd;stroke:none" />
  <path
     transform="matrix(-1,0,0,1,918.33676,0)"
     id="path2073"
     d="m 347.22241,467.17059 c 2.90989,0 5.17735,2.22966 5.17735,5.21514 0,2.94769 -2.26746,5.21514 -5.17735,5.21514 -2.94769,0 -5.21514,-2.26745 -5.21514,-5.21514 0,-2.98548 2.26745,-5.21514 5.21514,-5.21514"
     clip-path="url(#clipEmfPath1)"
     style="fill:none;stroke:#000000;stroke-width:0.03779086px;stroke-linecap:round;stroke-linejoin:round;stroke-miterlimit:4;stroke-dasharray:none;stroke-opacity:1" />
  <path
     transform="matrix(-1,0,0,1,918.33676,0)"
     id="path2075"
     d="m 342.00727,467.17059 v 0"
     clip-path="url(#clipEmfPath1)"
     style="fill:none;stroke:#000000;stroke-width:0.03779086px;stroke-linecap:round;stroke-linejoin:round;stroke-miterlimit:4;stroke-dasharray:none;stroke-opacity:1" />
  <path
     transform="matrix(-1,0,0,1,918.33676,0)"
     id="path2077"
     d="m 352.47534,477.63866 v 0"
     clip-path="url(#clipEmfPath1)"
     style="fill:none;stroke:#000000;stroke-width:0.03779086px;stroke-linecap:round;stroke-linejoin:round;stroke-miterlimit:4;stroke-dasharray:none;stroke-opacity:1" />
  <path
     transform="matrix(-1,0,0,1,918.33676,0)"
     id="path2079"
     d="m 347.22241,513.08649 c 2.90989,0 5.17735,2.26745 5.17735,5.21513 0,2.98548 -2.26746,5.25293 -5.17735,5.25293 -2.94769,0 -5.21514,-2.26745 -5.21514,-5.25293 0,-2.94768 2.26745,-5.21513 5.21514,-5.21513 z m -5.21514,0 z m 10.46807,10.50585 z"
     clip-path="url(#clipEmfPath1)"
     style="fill:#000000;fill-opacity:1;fill-rule:evenodd;stroke:none" />
  <path
     transform="matrix(-1,0,0,1,918.33676,0)"
     id="path2081"
     d="m 347.22241,513.08649 c 2.90989,0 5.17735,2.26745 5.17735,5.21513 0,2.98548 -2.26746,5.25293 -5.17735,5.25293 -2.94769,0 -5.21514,-2.26745 -5.21514,-5.25293 0,-2.94768 2.26745,-5.21513 5.21514,-5.21513"
     clip-path="url(#clipEmfPath1)"
     style="fill:none;stroke:#000000;stroke-width:0.03779086px;stroke-linecap:round;stroke-linejoin:round;stroke-miterlimit:4;stroke-dasharray:none;stroke-opacity:1" />
  <path
     transform="matrix(-1,0,0,1,918.33676,0)"
     id="path2083"
     d="m 342.00727,513.08649 v 0"
     clip-path="url(#clipEmfPath1)"
     style="fill:none;stroke:#000000;stroke-width:0.03779086px;stroke-linecap:round;stroke-linejoin:round;stroke-miterlimit:4;stroke-dasharray:none;stroke-opacity:1" />
  <path
     transform="matrix(-1,0,0,1,918.33676,0)"
     id="path2085"
     d="m 352.47534,523.59234 v 0"
     clip-path="url(#clipEmfPath1)"
     style="fill:none;stroke:#000000;stroke-width:0.03779086px;stroke-linecap:round;stroke-linejoin:round;stroke-miterlimit:4;stroke-dasharray:none;stroke-opacity:1" />
  <path
     transform="matrix(-1,0,0,1,918.33676,0)"
     id="path2087"
     d="m 612.51423,375.22543 c 2.9099,0 5.17735,2.26746 5.17735,5.21514 0,2.94769 -2.26745,5.21514 -5.17735,5.21514 -2.94768,0 -5.21513,-2.26745 -5.21513,-5.21514 0,-2.94768 2.26745,-5.21514 5.21513,-5.21514 z m -5.21513,0 z m 10.46806,10.46807 z"
     clip-path="url(#clipEmfPath1)"
     style="fill:#000000;fill-opacity:1;fill-rule:evenodd;stroke:none" />
  <path
     transform="matrix(-1,0,0,1,918.33676,0)"
     id="path2089"
     d="m 612.51423,375.22543 c 2.9099,0 5.17735,2.26746 5.17735,5.21514 0,2.94769 -2.26745,5.21514 -5.17735,5.21514 -2.94768,0 -5.21513,-2.26745 -5.21513,-5.21514 0,-2.94768 2.26745,-5.21514 5.21513,-5.21514"
     clip-path="url(#clipEmfPath1)"
     style="fill:none;stroke:#000000;stroke-width:0.03779086px;stroke-linecap:round;stroke-linejoin:round;stroke-miterlimit:4;stroke-dasharray:none;stroke-opacity:1" />
  <path
     transform="matrix(-1,0,0,1,918.33676,0)"
     id="path2091"
     d="m 607.2991,375.22543 v 0"
     clip-path="url(#clipEmfPath1)"
     style="fill:none;stroke:#000000;stroke-width:0.03779086px;stroke-linecap:round;stroke-linejoin:round;stroke-miterlimit:4;stroke-dasharray:none;stroke-opacity:1" />
  <path
     transform="matrix(-1,0,0,1,918.33676,0)"
     id="path2093"
     d="m 617.76716,385.6935 v 0"
     clip-path="url(#clipEmfPath1)"
     style="fill:none;stroke:#000000;stroke-width:0.03779086px;stroke-linecap:round;stroke-linejoin:round;stroke-miterlimit:4;stroke-dasharray:none;stroke-opacity:1" />
  <path
     transform="matrix(-1,0,0,1,918.33676,0)"
     id="path2095"
     d="m 612.51423,421.17912 c 2.9099,0 5.17735,2.22966 5.17735,5.21514 0,2.94768 -2.26745,5.21514 -5.17735,5.21514 -2.94768,0 -5.21513,-2.26746 -5.21513,-5.21514 0,-2.98548 2.26745,-5.21514 5.21513,-5.21514 z m -5.21513,0 z m 10.46806,10.46807 z"
     clip-path="url(#clipEmfPath1)"
     style="fill:#000000;fill-opacity:1;fill-rule:evenodd;stroke:none" />
  <path
     transform="matrix(-1,0,0,1,918.33676,0)"
     id="path2097"
     d="m 612.51423,421.17912 c 2.9099,0 5.17735,2.22966 5.17735,5.21514 0,2.94768 -2.26745,5.21514 -5.17735,5.21514 -2.94768,0 -5.21513,-2.26746 -5.21513,-5.21514 0,-2.98548 2.26745,-5.21514 5.21513,-5.21514"
     clip-path="url(#clipEmfPath1)"
     style="fill:none;stroke:#000000;stroke-width:0.03779086px;stroke-linecap:round;stroke-linejoin:round;stroke-miterlimit:4;stroke-dasharray:none;stroke-opacity:1" />
  <path
     transform="matrix(-1,0,0,1,918.33676,0)"
     id="path2099"
     d="m 607.2991,421.17912 v 0"
     clip-path="url(#clipEmfPath1)"
     style="fill:none;stroke:#000000;stroke-width:0.03779086px;stroke-linecap:round;stroke-linejoin:round;stroke-miterlimit:4;stroke-dasharray:none;stroke-opacity:1" />
  <path
     transform="matrix(-1,0,0,1,918.33676,0)"
     id="path2101"
     d="m 617.76716,431.64719 v 0"
     clip-path="url(#clipEmfPath1)"
     style="fill:none;stroke:#000000;stroke-width:0.03779086px;stroke-linecap:round;stroke-linejoin:round;stroke-miterlimit:4;stroke-dasharray:none;stroke-opacity:1" />
  <path
     transform="matrix(-1,0,0,1,918.33676,0)"
     id="path2103"
     d="m 612.51423,467.17059 c 2.9099,0 5.17735,2.22966 5.17735,5.21514 0,2.94769 -2.26745,5.21514 -5.17735,5.21514 -2.94768,0 -5.21513,-2.26745 -5.21513,-5.21514 0,-2.98548 2.26745,-5.21514 5.21513,-5.21514 z m -5.21513,0 z m 10.46806,10.46807 z"
     clip-path="url(#clipEmfPath1)"
     style="fill:#000000;fill-opacity:1;fill-rule:evenodd;stroke:none" />
  <path
     transform="matrix(-1,0,0,1,918.33676,0)"
     id="path2105"
     d="m 612.51423,467.17059 c 2.9099,0 5.17735,2.22966 5.17735,5.21514 0,2.94769 -2.26745,5.21514 -5.17735,5.21514 -2.94768,0 -5.21513,-2.26745 -5.21513,-5.21514 0,-2.98548 2.26745,-5.21514 5.21513,-5.21514"
     clip-path="url(#clipEmfPath1)"
     style="fill:none;stroke:#000000;stroke-width:0.03779086px;stroke-linecap:round;stroke-linejoin:round;stroke-miterlimit:4;stroke-dasharray:none;stroke-opacity:1" />
  <path
     transform="matrix(-1,0,0,1,918.33676,0)"
     id="path2107"
     d="m 607.2991,467.17059 v 0"
     clip-path="url(#clipEmfPath1)"
     style="fill:none;stroke:#000000;stroke-width:0.03779086px;stroke-linecap:round;stroke-linejoin:round;stroke-miterlimit:4;stroke-dasharray:none;stroke-opacity:1" />
  <path
     transform="matrix(-1,0,0,1,918.33676,0)"
     id="path2109"
     d="m 617.76716,477.63866 v 0"
     clip-path="url(#clipEmfPath1)"
     style="fill:none;stroke:#000000;stroke-width:0.03779086px;stroke-linecap:round;stroke-linejoin:round;stroke-miterlimit:4;stroke-dasharray:none;stroke-opacity:1" />
  <path
     transform="matrix(-1,0,0,1,918.33676,0)"
     id="path2111"
     d="m 612.51423,513.08649 c 2.9099,0 5.17735,2.26745 5.17735,5.21513 0,2.98548 -2.26745,5.25293 -5.17735,5.25293 -2.94768,0 -5.21513,-2.26745 -5.21513,-5.25293 0,-2.94768 2.26745,-5.21513 5.21513,-5.21513 z m -5.21513,0 z m 10.46806,10.50585 z"
     clip-path="url(#clipEmfPath1)"
     style="fill:#000000;fill-opacity:1;fill-rule:evenodd;stroke:none" />
  <path
     transform="matrix(-1,0,0,1,918.33676,0)"
     id="path2113"
     d="m 612.51423,513.08649 c 2.9099,0 5.17735,2.26745 5.17735,5.21513 0,2.98548 -2.26745,5.25293 -5.17735,5.25293 -2.94768,0 -5.21513,-2.26745 -5.21513,-5.25293 0,-2.94768 2.26745,-5.21513 5.21513,-5.21513"
     clip-path="url(#clipEmfPath1)"
     style="fill:none;stroke:#000000;stroke-width:0.03779086px;stroke-linecap:round;stroke-linejoin:round;stroke-miterlimit:4;stroke-dasharray:none;stroke-opacity:1" />
  <path
     transform="matrix(-1,0,0,1,918.33676,0)"
     id="path2115"
     d="m 607.2991,513.08649 v 0"
     clip-path="url(#clipEmfPath1)"
     style="fill:none;stroke:#000000;stroke-width:0.03779086px;stroke-linecap:round;stroke-linejoin:round;stroke-miterlimit:4;stroke-dasharray:none;stroke-opacity:1" />
  <path
     transform="matrix(-1,0,0,1,918.33676,0)"
     id="path2117"
     d="m 617.76716,523.59234 v 0"
     clip-path="url(#clipEmfPath1)"
     style="fill:none;stroke:#000000;stroke-width:0.03779086px;stroke-linecap:round;stroke-linejoin:round;stroke-miterlimit:4;stroke-dasharray:none;stroke-opacity:1" />
  <path
     transform="matrix(-1,0,0,1,918.33676,0)"
     id="path2119"
     d="m 816.58487,183.1345 c 2.9099,0 5.17735,2.22966 5.17735,5.21514 0,2.94769 -2.26745,5.21514 -5.17735,5.21514 -2.94769,0 -5.21514,-2.26745 -5.21514,-5.21514 0,-2.98548 2.26745,-5.21514 5.21514,-5.21514 z m -5.21514,0 z m 10.46807,10.46807 z"
     clip-path="url(#clipEmfPath1)"
     style="fill:#000000;fill-opacity:1;fill-rule:evenodd;stroke:none" />
  <path
     transform="matrix(-1,0,0,1,918.33676,0)"
     id="path2121"
     d="m 816.58487,183.1345 c 2.9099,0 5.17735,2.22966 5.17735,5.21514 0,2.94769 -2.26745,5.21514 -5.17735,5.21514 -2.94769,0 -5.21514,-2.26745 -5.21514,-5.21514 0,-2.98548 2.26745,-5.21514 5.21514,-5.21514"
     clip-path="url(#clipEmfPath1)"
     style="fill:none;stroke:#000000;stroke-width:0.03779086px;stroke-linecap:round;stroke-linejoin:round;stroke-miterlimit:4;stroke-dasharray:none;stroke-opacity:1" />
  <path
     transform="matrix(-1,0,0,1,918.33676,0)"
     id="path2123"
     d="m 811.36973,183.1345 v 0"
     clip-path="url(#clipEmfPath1)"
     style="fill:none;stroke:#000000;stroke-width:0.03779086px;stroke-linecap:round;stroke-linejoin:round;stroke-miterlimit:4;stroke-dasharray:none;stroke-opacity:1" />
  <path
     transform="matrix(-1,0,0,1,918.33676,0)"
     id="path2125"
     d="m 821.8378,193.60257 v 0"
     clip-path="url(#clipEmfPath1)"
     style="fill:none;stroke:#000000;stroke-width:0.03779086px;stroke-linecap:round;stroke-linejoin:round;stroke-miterlimit:4;stroke-dasharray:none;stroke-opacity:1" />
</svg>
